<svg width="15" height="18" viewBox="0 0 15 18" fill="none" xmlns="http://www.w3.org/2000/svg">
<path d="M2.2567 13.1165V6.27328C2.2567 3.87921 4.03636 1.87708 6.44103 1.33683C6.36688 0.701234 6.85417 0.108012 7.53213 0.0126733C8.33722 -0.0932591 9.03637 0.478776 9.03637 1.20971C9.03637 1.26268 9.03637 1.30505 9.03637 1.34742C10.0321 1.56988 10.922 2.04658 11.6211 2.69276C12.6169 3.61438 13.2207 4.88556 13.2207 6.28387V13.1271L14.2377 13.7415C14.6084 13.9534 14.8627 14.2394 14.8627 14.6208C14.8627 15.1504 14.3966 15.5847 13.8245 15.5847H1.65288C1.08085 15.5847 0.614746 15.1504 0.614746 14.6208C0.614746 14.2394 0.868984 13.9852 1.23975 13.7415L2.2567 13.1271V13.1165Z" fill="#001738"/>
<path d="M9.62929 16.1038C9.62929 17.1526 8.78184 18 7.7331 18C6.68437 18 5.83691 17.1526 5.83691 16.1038H9.63989H9.62929Z" fill="#001738"/>
</svg>
