<svg width="308" height="253" viewBox="0 0 308 253" fill="none" xmlns="http://www.w3.org/2000/svg">
<path d="M178.123 108.679C178.336 109.06 178.672 109.37 178.92 109.673C178.477 109.828 178.23 109.416 177.837 110.155C178.02 110.186 178.121 110.237 178.213 110.217C179.4 109.994 180.121 110.189 181.301 109.955C181.361 109.942 181.438 109.933 181.474 109.893C181.564 109.796 181.696 109.67 181.686 109.572C181.672 109.485 181.496 109.355 181.387 109.354C180.98 109.343 180.571 109.381 180.16 109.403C180.114 109.356 180.068 109.308 180.028 109.261C180.571 108.717 181.108 108.164 181.668 107.631C182.17 107.155 182.737 106.94 183.468 106.982C184.188 107.019 184.93 106.923 185.637 106.768C186.828 106.506 187.793 105.431 187.804 104.459C187.808 104.157 187.831 103.784 187.359 103.781C186.981 103.78 186.852 103.999 186.757 104.359C186.652 104.731 186.471 105.144 186.191 105.402C185.504 106.044 184.608 106.141 183.617 106.181C183.866 105.825 184.107 105.563 184.254 105.256C184.471 104.792 184.77 104.456 185.197 104.148C186.465 103.23 187.046 101.336 186.53 99.9474C186.388 99.5746 186.242 99.0704 185.708 99.1579C185.223 99.2378 185.274 99.6965 185.295 100.074C185.296 100.091 185.242 100.115 185.082 100.231C184.847 99.7028 184.661 99.1838 184.39 98.7175C184.26 98.4924 183.959 98.3675 183.738 98.1954C183.595 98.4426 183.412 98.6803 183.33 98.9469C183.286 99.0968 183.388 99.312 183.472 99.4787C183.867 100.307 184.363 101.033 185.533 101.085C185.33 101.746 185.15 102.323 184.965 102.907C184.904 102.893 184.843 102.873 184.782 102.859C184.716 102.582 184.666 102.294 184.573 102.023C184.291 101.157 183.984 100.895 183.469 101.037C182.937 101.179 182.819 101.518 183.01 102.432C183.18 103.242 183.311 104.043 182.625 104.85C182.564 104.287 182.551 103.833 182.451 103.392C182.405 103.197 182.19 103.035 182.056 102.854C181.905 103.041 181.611 103.245 181.629 103.42C181.675 103.994 181.845 104.552 181.951 105.124C181.979 105.282 182.016 105.516 181.932 105.602C181.377 106.14 180.789 106.646 180.08 107.278C180.228 106.751 180.335 106.401 180.424 106.041C180.755 104.728 181.169 103.433 181.379 102.103C181.506 101.308 181.418 100.505 182.187 99.975C182.283 99.9107 182.36 99.776 182.388 99.6597C182.651 98.574 182.98 97.4966 183.122 96.3938C183.194 95.8534 182.966 95.2483 182.785 94.7017C182.641 94.2687 182.244 94.2135 181.846 94.3996C181.469 94.5739 181.339 94.8809 181.475 95.2757C181.544 95.4704 181.644 95.6583 181.707 95.8587C182.121 97.1419 182.061 98.3675 181.235 99.646C181.043 98.9626 180.873 98.4101 180.735 97.8507C180.61 97.3511 180.289 97.1392 179.816 97.2352C179.332 97.3315 179.203 97.6823 179.332 98.1433C179.421 98.4633 179.506 98.789 179.606 99.103C179.957 100.191 180.27 101.281 179.953 102.517C178.89 101.474 178.056 100.378 177.746 98.9534C177.639 98.4641 177.51 97.9812 177.375 97.4985C177.266 97.1025 177.123 96.6859 176.605 96.7727C176.049 96.8665 176.052 97.3326 176.113 97.758C176.212 98.4505 176.344 99.1363 176.461 99.8501C176.367 99.8374 176.269 99.8578 176.207 99.8165C175.657 99.4987 175.121 99.1364 174.555 98.8521C174.287 98.7204 173.978 98.678 173.653 98.6528C173.568 98.9853 173.512 99.3606 173.643 99.6131C173.821 99.9569 174.154 100.327 174.505 100.456C175.179 100.703 175.912 100.783 176.614 100.93C176.786 100.967 177.043 100.956 177.107 101.058C177.738 102.14 178.723 102.759 179.881 103.195C179.53 104.542 179.188 105.839 178.851 107.136L178.14 108.684L178.123 108.679Z" fill="#438BFF"/>
<path d="M178.184 110.306C178.123 110.308 178.063 110.294 177.985 110.276C177.941 110.266 177.885 110.252 177.819 110.238L177.708 110.221L177.759 110.12C178.045 109.582 178.292 109.605 178.529 109.628C178.606 109.636 178.678 109.644 178.765 109.63C178.713 109.572 178.667 109.519 178.61 109.46C178.409 109.233 178.197 109 178.043 108.727L178.025 108.689L178.756 107.102L179.763 103.243C178.448 102.737 177.57 102.054 177.016 101.095C176.992 101.057 176.843 101.041 176.75 101.029C176.689 101.02 176.629 101.017 176.573 101.003C176.363 100.957 176.148 100.921 175.937 100.88C175.44 100.791 174.932 100.696 174.453 100.524C174.052 100.375 173.717 99.9556 173.551 99.6387C173.432 99.4186 173.435 99.0839 173.559 98.6237L173.578 98.5571L173.65 98.5652C173.98 98.5957 174.3 98.6321 174.58 98.7744C174.955 98.9621 175.315 99.1834 175.669 99.3994C175.855 99.5126 176.046 99.631 176.237 99.7385C176.259 99.754 176.303 99.7522 176.353 99.7557C176.323 99.5759 176.289 99.4018 176.26 99.222C176.174 98.7208 176.089 98.2471 176.02 97.7617C175.981 97.4726 175.888 96.8017 176.579 96.6805C177.195 96.5788 177.349 97.132 177.445 97.4682C177.567 97.913 177.708 98.4229 177.817 98.9286C178.073 100.119 178.696 101.147 179.897 102.349C180.142 101.22 179.871 100.217 179.519 99.1175C179.444 98.8847 179.379 98.646 179.315 98.4182L179.244 98.1523C179.167 97.8702 179.179 97.6339 179.293 97.4538C179.39 97.2908 179.562 97.1906 179.796 97.1427C180.318 97.0393 180.679 97.2825 180.81 97.8202C180.903 98.2004 181.017 98.5798 181.132 98.9865C181.171 99.133 181.215 99.2793 181.26 99.4365C181.933 98.3178 182.046 97.1779 181.626 95.873C181.594 95.7701 181.546 95.6678 181.504 95.5708C181.467 95.479 181.425 95.3875 181.394 95.2955C181.245 94.8572 181.39 94.5113 181.804 94.319C182.063 94.1989 182.309 94.1779 182.504 94.2633C182.666 94.3335 182.787 94.4712 182.855 94.6659L182.893 94.7851C183.067 95.2936 183.26 95.8727 183.194 96.3964C183.084 97.2181 182.876 98.0328 182.667 98.8256C182.596 99.1082 182.519 99.3856 182.454 99.668C182.425 99.7788 182.35 99.9409 182.222 100.028C181.635 100.436 181.571 101.02 181.502 101.637C181.487 101.791 181.471 101.946 181.444 102.1C181.291 103.055 181.033 104.004 180.785 104.924C180.685 105.296 180.58 105.673 180.485 106.05C180.423 106.288 180.356 106.521 180.28 106.804C180.261 106.871 180.242 106.948 180.217 107.02C180.318 106.929 180.418 106.842 180.519 106.751C181.017 106.308 181.446 105.929 181.857 105.528C181.873 105.511 181.914 105.438 181.857 105.128C181.822 104.932 181.776 104.736 181.735 104.54C181.654 104.176 181.568 103.796 181.536 103.418C181.524 103.26 181.672 103.111 181.819 102.968C181.877 102.911 181.941 102.848 181.983 102.797L182.045 102.718L182.109 102.797C182.149 102.851 182.201 102.903 182.247 102.956C182.361 103.078 182.482 103.21 182.521 103.368C182.589 103.677 182.618 103.989 182.649 104.35C182.653 104.443 182.667 104.535 182.677 104.634C183.181 103.939 183.092 103.251 182.923 102.441C182.719 101.484 182.852 101.111 183.438 100.95C184.1 100.77 184.399 101.235 184.643 101.993C184.706 102.182 184.752 102.383 184.793 102.574C184.807 102.644 184.826 102.715 184.84 102.786L184.901 102.8L185.415 101.15C184.227 101.055 183.745 100.252 183.391 99.5039C183.301 99.3101 183.193 99.0896 183.246 98.9119C183.304 98.7121 183.417 98.532 183.531 98.3574C183.577 98.2842 183.618 98.2167 183.659 98.1438L183.705 98.0651L183.779 98.1225C183.847 98.1746 183.92 98.221 183.993 98.2674C184.168 98.381 184.348 98.4943 184.448 98.6658C184.643 98.998 184.788 99.3486 184.946 99.7207C185.001 99.8447 185.049 99.9688 185.104 100.093C185.131 100.075 185.152 100.058 185.173 100.046C185.184 100.04 185.195 100.034 185.2 100.029L185.199 99.9957C185.184 99.6398 185.154 99.1529 185.682 99.0657C186.254 98.9712 186.434 99.4741 186.569 99.8415L186.594 99.9118C187.135 101.349 186.522 103.277 185.232 104.207C184.8 104.515 184.517 104.85 184.315 105.281C184.214 105.493 184.074 105.685 183.907 105.9C183.86 105.957 183.819 106.019 183.767 106.087C184.648 106.04 185.483 105.93 186.122 105.339C186.434 105.052 186.596 104.585 186.663 104.335C186.749 104.025 186.879 103.696 187.345 103.699C187.51 103.703 187.643 103.747 187.729 103.837C187.878 103.99 187.871 104.221 187.868 104.429L187.869 104.462C187.856 105.494 186.836 106.583 185.64 106.85C184.82 107.032 184.104 107.105 183.45 107.071C182.752 107.033 182.195 107.231 181.709 107.701C181.324 108.067 180.939 108.456 180.57 108.827C180.423 108.976 180.275 109.124 180.127 109.267L180.184 109.326C180.283 109.322 180.382 109.318 180.48 109.314C180.776 109.302 181.077 109.278 181.379 109.288C181.516 109.294 181.736 109.444 181.758 109.58C181.774 109.7 181.669 109.814 181.574 109.917L181.532 109.962C181.479 110.019 181.398 110.033 181.332 110.047L181.311 110.048C180.707 110.171 180.213 110.18 179.737 110.188C179.276 110.196 178.799 110.204 178.217 110.316C178.201 110.316 178.19 110.317 178.173 110.317L178.184 110.306ZM177.961 110.101C177.961 110.101 178.006 110.11 178.022 110.115C178.1 110.134 178.161 110.148 178.193 110.141C178.787 110.029 179.275 110.021 179.74 110.013C180.212 110.005 180.694 109.996 181.282 109.879L181.304 109.878C181.336 109.866 181.396 109.858 181.412 109.841L181.459 109.79C181.512 109.733 181.612 109.63 181.605 109.586C181.597 109.543 181.461 109.438 181.385 109.436C181.094 109.431 180.793 109.449 180.497 109.461C180.387 109.465 180.272 109.47 180.163 109.474L180.125 109.476L179.913 109.249L179.971 109.192C180.139 109.026 180.303 108.86 180.466 108.694C180.84 108.323 181.22 107.934 181.61 107.562C182.133 107.064 182.722 106.848 183.47 106.889C184.108 106.923 184.812 106.851 185.617 106.676C186.748 106.427 187.71 105.406 187.721 104.446L187.719 104.413C187.723 104.238 187.726 104.04 187.629 103.934C187.572 103.876 187.488 103.847 187.362 103.846C187.033 103.843 186.93 104.017 186.834 104.361C186.757 104.628 186.585 105.123 186.247 105.438C185.528 106.104 184.594 106.196 183.625 106.241L183.461 106.248L183.554 106.112C183.637 105.994 183.715 105.886 183.793 105.79C183.949 105.581 184.09 105.399 184.18 105.198C184.398 104.74 184.696 104.388 185.149 104.062C186.386 103.173 186.969 101.328 186.453 99.9559L186.428 99.8856C186.268 99.4533 186.13 99.1463 185.721 99.2177C185.361 99.2761 185.351 99.5562 185.373 99.9777L185.376 100.049C185.378 100.104 185.341 100.133 185.277 100.174C185.245 100.197 185.197 100.226 185.133 100.278L185.053 100.336L185.011 100.245C184.939 100.088 184.878 99.9319 184.811 99.7755C184.659 99.4087 184.514 99.0636 184.319 98.7368C184.237 98.5976 184.085 98.4995 183.916 98.3912C183.865 98.3603 183.815 98.324 183.764 98.2876C183.733 98.3328 183.707 98.3831 183.676 98.4283C183.568 98.6027 183.465 98.7659 183.412 98.9436C183.378 99.0601 183.468 99.254 183.54 99.3991C183.894 100.142 184.364 100.924 185.54 100.975L185.644 100.981L185.023 102.981L184.718 102.9L184.705 102.851C184.685 102.764 184.665 102.677 184.645 102.591C184.605 102.4 184.559 102.21 184.502 102.026C184.201 101.1 183.9 100.981 183.493 101.09C183.065 101.206 182.893 101.433 183.096 102.39C183.246 103.108 183.436 104.005 182.698 104.88L182.577 105.022L182.559 104.836C182.541 104.667 182.529 104.503 182.512 104.35C182.481 103.994 182.452 103.688 182.385 103.39C182.358 103.275 182.261 103.17 182.152 103.053C182.123 103.022 182.095 102.99 182.066 102.958C182.029 102.998 181.992 103.032 181.955 103.072C181.845 103.187 181.713 103.313 181.722 103.394C181.753 103.761 181.834 104.136 181.914 104.495C181.96 104.69 182.002 104.891 182.037 105.087C182.073 105.3 182.099 105.529 181.993 105.638C181.576 106.044 181.147 106.423 180.65 106.866C180.486 107.01 180.316 107.159 180.142 107.32L179.935 107.504L180.012 107.237C180.065 107.06 180.108 106.899 180.151 106.749C180.233 106.466 180.301 106.238 180.357 106C180.451 105.623 180.557 105.246 180.657 104.875C180.905 103.96 181.163 103.011 181.311 102.067C181.338 101.913 181.354 101.764 181.37 101.61C181.437 100.982 181.504 100.332 182.155 99.883C182.225 99.8363 182.297 99.7237 182.32 99.6185C182.391 99.3359 182.462 99.0533 182.533 98.7762C182.737 97.9891 182.945 97.1744 183.055 96.3636C183.118 95.8784 182.937 95.3427 182.763 94.8287L182.719 94.7098C182.669 94.5583 182.583 94.4521 182.46 94.4022C182.309 94.337 182.107 94.3561 181.892 94.4581C181.553 94.6144 181.443 94.8766 181.567 95.2336C181.598 95.3256 181.634 95.4119 181.671 95.4982C181.713 95.6007 181.762 95.7084 181.793 95.8168C182.251 97.2299 182.098 98.4592 181.313 99.6702L181.215 99.8223L181.164 99.6488C181.1 99.4265 181.043 99.2204 180.985 99.0253C180.87 98.6186 180.756 98.2338 180.663 97.8481C180.552 97.3919 180.27 97.2058 179.84 97.289C179.649 97.3242 179.516 97.4064 179.444 97.5245C179.361 97.6594 179.347 97.8575 179.417 98.0905L179.488 98.3564C179.552 98.5841 179.617 98.8229 179.686 99.0504C180.063 100.22 180.347 101.283 180.035 102.514L180.002 102.652L179.899 102.552C178.991 101.656 178.013 100.528 177.675 98.9508C177.567 98.4506 177.431 97.9459 177.309 97.5011C177.199 97.0887 177.065 96.7596 176.629 96.832C176.182 96.905 176.136 97.2469 176.199 97.727C176.268 98.2124 176.353 98.6807 176.439 99.1818C176.475 99.3888 176.511 99.6012 176.552 99.8135L176.573 99.9168L176.468 99.9046C176.441 99.9057 176.413 99.9014 176.386 99.9025C176.315 99.9054 176.243 99.8973 176.181 99.8614C175.99 99.7484 175.799 99.6355 175.608 99.5171C175.259 99.3063 174.899 99.085 174.53 98.897C174.295 98.7804 174.013 98.7369 173.727 98.7101C173.633 99.0979 173.633 99.3666 173.722 99.544C173.888 99.8554 174.2 100.227 174.539 100.35C175.001 100.518 175.51 100.613 175.996 100.703C176.212 100.743 176.427 100.778 176.637 100.825C176.687 100.834 176.742 100.842 176.797 100.846C176.957 100.867 177.122 100.882 177.181 100.989C177.724 101.927 178.596 102.594 179.91 103.089L179.977 103.114L179.958 103.186L178.927 107.128L178.226 108.648C178.368 108.894 178.563 109.106 178.752 109.318C178.839 109.413 178.919 109.503 178.994 109.593L179.069 109.683L178.961 109.721C178.798 109.776 178.655 109.766 178.534 109.754C178.336 109.735 178.182 109.719 177.977 110.068L177.961 110.101Z" fill="black"/>
<path d="M179.777 107.938C178.903 106.251 177.816 101.353 177.808 101.298C177.702 100.699 176.948 100.768 176.561 100.839C176.174 100.909 175.411 101.165 175.645 101.775C175.651 101.792 175.662 101.808 175.668 101.824C176.726 104.502 177.637 106.692 178.768 108.204C178.878 108.347 178.902 108.396 178.907 108.401C179.129 108.589 179.295 108.495 179.483 108.4C179.671 108.304 179.803 108.162 179.788 107.943C179.788 107.943 179.788 107.943 179.788 107.937L179.777 107.938Z" fill="#22C7DD"/>
<path d="M179.173 108.593C179.074 108.597 178.963 108.563 178.85 108.464L178.826 108.432C178.826 108.432 178.779 108.357 178.699 108.256C177.562 106.728 176.656 104.548 175.593 101.854C175.581 101.833 175.569 101.795 175.562 101.779C175.489 101.59 175.505 101.441 175.592 101.284C175.786 100.936 176.329 100.799 176.547 100.757C176.879 100.694 177.338 100.665 177.632 100.867C177.773 100.965 177.861 101.104 177.89 101.284C177.897 101.328 178.978 106.21 179.852 107.896L179.864 107.918L179.882 107.956L179.866 107.973C179.875 108.186 179.75 108.361 179.514 108.481C179.406 108.534 179.294 108.594 179.173 108.599L179.173 108.593ZM176.936 100.879C176.799 100.884 176.668 100.906 176.575 100.921C176.417 100.949 175.896 101.069 175.727 101.366C175.665 101.478 175.66 101.605 175.715 101.745C175.715 101.756 175.739 101.81 175.739 101.81C176.797 104.493 177.695 106.645 178.826 108.157C178.907 108.264 178.943 108.323 178.96 108.344C179.13 108.485 179.243 108.426 179.426 108.336C179.619 108.24 179.703 108.127 179.702 107.979L179.701 107.957C178.826 106.249 177.74 101.362 177.732 101.318C177.71 101.182 177.646 101.08 177.544 101.008C177.386 100.899 177.16 100.875 176.947 100.884L176.936 100.879Z" fill="black"/>
<path d="M177.427 101.369C177.492 101.739 177.08 101.871 176.835 101.925C176.591 101.979 176.161 102.056 176.019 101.678C175.866 101.278 176.364 101.116 176.62 101.067C176.87 101.018 177.362 100.977 177.432 101.363L177.427 101.369Z" fill="#6BDCE8"/>
<path d="M180.562 103.195C180.521 102.878 179.954 102.813 179.696 102.818C179.422 102.818 178.816 102.898 178.853 103.253L178.853 103.269C179.117 105.03 179.195 106.689 178.89 108.385C178.859 108.562 178.845 108.612 178.85 108.617C178.879 108.918 179.073 108.959 179.294 109.021C179.516 109.084 179.724 109.064 179.87 108.883C179.87 108.883 179.87 108.878 179.87 108.872C180.579 106.743 180.516 105.462 180.571 103.287L180.567 103.2L180.562 103.195Z" fill="#22C7DD"/>
<path d="M179.611 109.387L179.709 109.098C179.585 109.147 179.437 109.147 179.27 109.099L179.248 109.1C179.037 109.032 178.799 108.965 178.763 108.621C178.762 108.604 178.762 108.599 178.771 108.56C178.775 108.527 178.79 108.472 178.807 108.367C179.081 106.853 179.072 105.295 178.777 103.289L178.775 103.239C178.76 103.136 178.801 103.063 178.859 102.995C179.079 102.75 179.633 102.739 179.693 102.742C179.786 102.738 180.587 102.749 180.644 103.191C180.651 103.235 180.64 103.778 180.638 104.003C180.604 105.727 180.583 106.978 179.962 108.846L179.979 108.857L179.933 108.93C179.933 108.93 179.922 108.941 179.917 108.947L179.611 109.387ZM178.93 103.255C179.231 105.278 179.24 106.868 178.962 108.399C178.944 108.504 178.93 108.565 178.926 108.592L178.927 108.62C178.947 108.838 179.08 108.877 179.285 108.934L179.307 108.933C179.513 108.996 179.671 108.968 179.781 108.848L179.781 108.837L179.791 108.826C180.412 106.963 180.436 105.783 180.468 103.999C180.475 103.774 180.472 103.566 180.473 103.319L180.469 103.209C180.443 102.98 179.985 102.9 179.683 102.901C179.425 102.901 179.088 102.969 178.967 103.106C178.931 103.145 178.916 103.19 178.918 103.25L178.919 103.261L178.93 103.255Z" fill="black"/>
<path d="M180.285 103.283C180.273 103.519 179.907 103.55 179.726 103.552C179.545 103.548 179.171 103.52 179.15 103.29C179.124 103.055 179.528 103.006 179.709 103.004C179.89 103.002 180.304 103.051 180.286 103.288L180.285 103.283Z" fill="#6BDCE8"/>
<path d="M179.791 108.415C179.791 108.415 179.786 108.415 179.785 108.409C178.337 106.641 176.721 105.204 174.952 103.773C174.94 103.757 174.89 103.72 174.867 103.71C174.464 103.502 174.056 103.99 173.864 104.255C173.666 104.521 173.313 105.161 173.668 105.382C173.668 105.382 173.668 105.382 173.673 105.382C175.123 106.108 177.885 108.338 178.672 109.096C178.758 109.175 178.866 109.286 178.872 109.285C179.131 109.445 179.375 109.254 179.55 109.088C179.724 108.922 179.916 108.651 179.785 108.409L179.791 108.415Z" fill="#22C7DD"/>
<path d="M179.092 109.43C179.009 109.433 178.921 109.415 178.831 109.358C178.82 109.353 178.82 109.353 178.785 109.316C178.745 109.28 178.677 109.211 178.62 109.159C177.838 108.411 175.082 106.181 173.638 105.455L173.61 105.439C173.61 105.439 173.599 105.434 173.593 105.429L173.582 105.43C173.502 105.362 173.455 105.281 173.435 105.178C173.359 104.797 173.743 104.26 173.79 104.198C174.195 103.644 174.566 103.454 174.897 103.627C174.919 103.637 174.987 103.683 175.015 103.715C176.524 104.932 178.28 106.441 179.832 108.342L179.855 108.374C180.033 108.712 179.707 109.049 179.601 109.146C179.506 109.238 179.31 109.416 179.086 109.425L179.092 109.43ZM173.72 105.314C175.187 106.056 177.949 108.292 178.73 109.039C178.787 109.091 178.861 109.16 178.901 109.202L178.93 109.228C179.121 109.347 179.318 109.202 179.503 109.035C179.562 108.983 179.836 108.709 179.733 108.472L179.711 108.462L179.71 108.44C178.164 106.555 176.413 105.052 174.905 103.835C174.883 103.819 174.848 103.788 174.832 103.783C174.585 103.656 174.28 103.827 173.931 104.308C173.744 104.562 173.562 104.937 173.609 105.16C173.623 105.225 173.658 105.278 173.709 105.315L173.726 105.325L173.72 105.314Z" fill="black"/>
<path d="M174.806 103.97C175.056 104.18 174.794 104.602 174.643 104.8C174.491 104.998 174.161 105.379 173.886 105.214C173.616 105.05 173.882 104.573 174.027 104.369C174.173 104.166 174.557 103.761 174.806 103.97Z" fill="#6BDCE8"/>
<path d="M182.355 108.201L181.947 107.62C181.788 107.467 181.586 107.371 181.372 107.352C181.372 107.352 180.284 107.314 179.591 107.671C178.898 108.028 178.554 109.293 178.554 109.293L180.369 110.08L183.344 110.015C183.344 110.015 183.501 109.548 183.328 109.078C183.156 108.607 182.492 108.333 182.355 108.207L182.355 108.201Z" fill="#25497C"/>
<path d="M183.402 110.089L180.333 110.148L178.457 109.335L178.476 109.268C178.49 109.213 178.84 107.965 179.555 107.596C180.259 107.233 181.33 107.266 181.374 107.27C181.611 107.299 181.829 107.4 182 107.563L182.413 108.149C182.447 108.175 182.515 108.222 182.593 108.268C182.858 108.433 183.263 108.674 183.398 109.047C183.577 109.539 183.421 110.017 183.416 110.039L183.397 110.095L183.402 110.089ZM180.381 109.992L183.28 109.93C183.313 109.797 183.376 109.449 183.247 109.103C183.13 108.784 182.759 108.558 182.511 108.409C182.416 108.352 182.337 108.306 182.297 108.264L182.286 108.253L181.878 107.672C181.741 107.546 181.557 107.46 181.364 107.435C181.364 107.435 180.298 107.401 179.627 107.746C179.063 108.038 178.728 108.99 178.651 109.25L180.382 110.003L180.381 109.992Z" fill="black"/>
<path d="M177.732 108.915L178.389 108.597C178.495 108.505 179.032 108.368 179.143 108.402L179.878 108.663C180.033 108.712 180.63 109.757 180.679 110.035L180.096 110.393L178.031 110.477L177.546 110.277L177.534 109.307C177.571 109.135 177.648 108.989 177.738 108.914L177.732 108.915Z" fill="#3C5C82"/>
<path d="M180.116 110.475L177.996 110.544L177.461 110.33L177.447 109.305C177.493 109.094 177.574 108.938 177.681 108.851L177.696 108.839L178.348 108.528C178.486 108.429 179.029 108.281 179.168 108.325L179.902 108.586C180.108 108.654 180.706 109.738 180.756 110.021L180.758 110.076L180.116 110.475ZM178.039 110.389L180.065 110.307L180.579 109.995C180.483 109.665 179.96 108.792 179.848 108.736L179.113 108.475C179.041 108.456 178.531 108.581 178.441 108.656L178.425 108.667L177.779 108.979C177.705 109.047 177.644 109.171 177.612 109.32L177.626 110.219L178.044 110.388L178.039 110.389Z" fill="black"/>
<path d="M14.5403 213.68C15.0592 214.352 15.7951 214.851 16.3593 215.362C15.5506 215.788 14.9568 215.066 14.4143 216.602C14.7739 216.609 14.9824 216.678 15.1544 216.613C17.3734 215.842 18.8168 216.011 21.0212 215.221C21.1324 215.178 21.2771 215.14 21.3364 215.053C21.4804 214.841 21.6982 214.56 21.6518 214.374C21.5988 214.21 21.2242 214.01 21.0128 214.04C20.2278 214.135 19.4504 214.327 18.667 214.488C18.5652 214.409 18.4635 214.331 18.3722 214.251C19.2609 213.05 20.1351 211.83 21.0592 210.645C21.8882 209.586 22.9178 209.009 24.3366 208.879C25.7324 208.743 27.1326 208.346 28.448 207.845C30.6635 206.999 32.2125 204.651 31.9529 202.78C31.8744 202.198 31.8117 201.472 30.9031 201.602C30.1745 201.708 29.9907 202.167 29.9112 202.887C29.8148 203.633 29.5857 204.48 29.1206 205.057C27.9832 206.49 26.2877 206.933 24.3923 207.295C24.769 206.539 25.1587 205.965 25.3525 205.332C25.6368 204.376 26.1158 203.645 26.8476 202.93C29.0241 200.799 29.5991 196.988 28.2056 194.465C27.8268 193.788 27.4 192.86 26.3977 193.182C25.4877 193.475 25.7185 194.343 25.8669 195.063C25.8729 195.095 25.7761 195.157 25.502 195.426C24.8976 194.478 24.3915 193.532 23.7359 192.713C23.4215 192.317 22.806 192.164 22.3317 191.896C22.1264 192.413 21.8438 192.922 21.7618 193.459C21.7215 193.76 21.9795 194.145 22.1881 194.441C23.1871 195.922 24.3492 197.176 26.6157 196.939C26.4138 198.269 26.2342 199.432 26.0462 200.608C25.925 200.598 25.8018 200.579 25.6806 200.569C25.474 200.055 25.2947 199.514 25.0377 199.02C24.2465 197.435 23.5811 197.019 22.6302 197.44C21.6479 197.866 21.5185 198.553 22.1476 200.256C22.7073 201.766 23.1897 203.27 22.1017 205.019C21.8225 203.954 21.667 203.083 21.348 202.265C21.2027 201.902 20.7428 201.653 20.434 201.343C20.1963 201.746 19.6903 202.223 19.7752 202.554C20.027 203.646 20.5157 204.67 20.8827 205.74C20.9825 206.036 21.1208 206.476 20.9833 206.665C20.0716 207.859 19.0851 209.003 17.9018 210.423C18.0365 209.366 18.1409 208.662 18.21 207.943C18.4692 205.321 18.8935 202.711 18.9144 200.092C18.9302 198.526 18.5316 197.006 19.8576 195.765C20.0242 195.614 20.1333 195.333 20.1541 195.101C20.3487 192.937 20.673 190.769 20.6292 188.607C20.6113 187.546 19.9999 186.447 19.4943 185.448C19.0935 184.656 18.3135 184.664 17.6005 185.136C16.9255 185.58 16.7631 186.208 17.1395 186.928C17.3266 187.283 17.5746 187.616 17.7533 187.983C18.9183 190.333 19.1547 192.709 17.933 195.406C17.3669 194.146 16.8802 193.132 16.4544 192.095C16.0715 191.17 15.3926 190.854 14.5095 191.175C13.6055 191.5 13.4591 192.211 13.8385 193.061C14.1031 193.651 14.3592 194.254 14.6427 194.829C15.631 196.822 16.5459 198.829 16.2901 201.298C13.9465 199.597 12.0266 197.727 11.0211 195.075C10.6736 194.165 10.2863 193.273 9.88842 192.383C9.56445 191.652 9.16965 190.892 8.19878 191.208C7.15661 191.548 7.29512 192.444 7.53484 193.245C7.92488 194.549 8.37575 195.83 8.8052 197.17C8.62118 197.173 8.43867 197.24 8.30749 197.178C7.15726 196.725 6.02246 196.182 4.85281 195.797C4.29817 195.621 3.69173 195.628 3.05988 195.673C2.99133 196.337 2.99114 197.075 3.31549 197.523C3.7576 198.134 4.50494 198.751 5.21666 198.897C6.58376 199.179 8.01655 199.122 9.41049 199.203C9.75112 199.225 10.2433 199.131 10.3965 199.308C11.9209 201.21 13.9934 202.117 16.3475 202.622C16.0584 205.315 15.7722 207.909 15.4965 210.502L14.5737 213.685L14.5403 213.68Z" fill="#438BFF"/>
<path d="M15.1236 216.792C15.0084 216.814 14.8872 216.805 14.7326 216.791C14.6448 216.786 14.5341 216.775 14.4024 216.767L14.185 216.765L14.2537 216.557C14.6482 215.439 15.1315 215.412 15.5938 215.389C15.7444 215.382 15.8845 215.377 16.0481 215.324C15.9318 215.227 15.8281 215.138 15.7013 215.043C15.2489 214.663 14.7734 214.276 14.3992 213.794L14.3538 213.726L15.3045 210.463L16.1331 202.75C13.4578 202.154 11.5727 201.092 10.2304 199.405C10.1745 199.34 9.8838 199.352 9.69977 199.354C9.58058 199.356 9.46339 199.367 9.35267 199.356C8.93473 199.327 8.51032 199.321 8.09439 199.303C7.11191 199.273 6.10648 199.237 5.1359 199.043C4.32193 198.872 3.5566 198.161 3.14543 197.599C2.85402 197.21 2.76348 196.565 2.86983 195.644L2.88772 195.51L3.02786 195.505C3.67219 195.469 4.29757 195.447 4.87715 195.641C5.65276 195.894 6.40895 196.216 7.15266 196.53C7.54223 196.695 7.94426 196.868 8.3423 197.02C8.39019 197.043 8.47396 197.027 8.57021 197.019C8.46235 196.682 8.34601 196.357 8.23815 196.019C7.92856 195.08 7.62896 194.193 7.35678 193.279C7.19846 192.734 6.82689 191.469 8.12287 191.038C9.27824 190.665 9.73349 191.685 10.0145 192.304C10.3774 193.125 10.7957 194.066 11.1492 195.008C11.985 197.225 13.4789 199.024 16.1339 200.992C16.2811 198.749 15.4714 196.896 14.4791 194.882C14.2675 194.456 14.0748 194.015 13.8861 193.595L13.6729 193.104C13.4433 192.583 13.3992 192.125 13.5656 191.746C13.7066 191.404 14.0078 191.162 14.4441 191.003C15.4194 190.654 16.1836 191.018 16.591 192.015C16.8775 192.72 17.206 193.417 17.5444 194.167C17.6612 194.437 17.7885 194.706 17.9198 194.996C18.8938 192.65 18.7837 190.424 17.6002 188.034C17.5099 187.845 17.3881 187.662 17.2788 187.488C17.182 187.322 17.0747 187.158 16.9884 186.99C16.5751 186.19 16.7548 185.482 17.4972 184.993C17.9599 184.688 18.4271 184.577 18.8277 184.685C19.1593 184.774 19.4312 185.004 19.6184 185.359L19.7252 185.577C20.2064 186.506 20.7449 187.564 20.7673 188.591C20.7929 190.203 20.626 191.831 20.4511 193.416C20.396 193.98 20.3284 194.536 20.2837 195.098C20.2609 195.319 20.1618 195.653 19.9404 195.858C18.9284 196.811 18.9728 197.953 19.0187 199.16C19.0328 199.461 19.0469 199.763 19.04 200.068C19.0193 201.949 18.7957 203.848 18.583 205.69C18.4971 206.434 18.4026 207.19 18.3291 207.942C18.2789 208.419 18.2163 208.886 18.1507 209.452C18.1328 209.586 18.1189 209.741 18.0925 209.887C18.2595 209.681 18.4285 209.486 18.5955 209.281C19.4259 208.286 20.1422 207.433 20.8191 206.544C20.8445 206.507 20.9023 206.355 20.7046 205.774C20.5803 205.407 20.435 205.044 20.3002 204.679C20.0406 204.001 19.7645 203.294 19.5951 202.578C19.5267 202.276 19.7679 201.948 20.0112 201.63C20.1064 201.503 20.21 201.364 20.2758 201.254L20.3735 201.083L20.5187 201.218C20.612 201.309 20.7262 201.396 20.83 201.484C21.0854 201.685 21.3553 201.905 21.4761 202.197C21.6948 202.774 21.8402 203.365 22.0035 204.05C22.0375 204.228 22.0924 204.402 22.1389 204.588C22.9088 203.106 22.5417 201.809 21.982 200.298C21.316 198.515 21.4648 197.76 22.5458 197.282C23.7674 196.745 24.4755 197.554 25.1638 198.942C25.3385 199.289 25.4857 199.662 25.6185 200.017C25.6655 200.149 25.7229 200.279 25.7698 200.411L25.891 200.42L26.4073 197.098C24.0933 197.258 22.9347 195.851 22.039 194.513C21.8099 194.166 21.5394 193.773 21.5907 193.416C21.6444 193.015 21.8108 192.636 21.9792 192.267C22.0474 192.113 22.1072 191.971 22.165 191.819L22.2313 191.655L22.3894 191.744C22.5351 191.825 22.6892 191.893 22.8433 191.961C23.212 192.129 23.591 192.296 23.833 192.597C24.3026 193.18 24.6839 193.813 25.0941 194.484C25.2343 194.706 25.3641 194.931 25.5043 195.154C25.5507 195.113 25.5866 195.073 25.6245 195.044C25.6434 195.03 25.6623 195.015 25.6708 195.003L25.6588 194.94C25.5289 194.259 25.33 193.331 26.3218 193.012C27.3954 192.666 27.885 193.582 28.2514 194.25L28.3192 194.378C29.7726 196.988 29.1468 200.873 26.9324 203.033C26.1901 203.75 25.7426 204.476 25.4776 205.362C25.3442 205.8 25.1294 206.21 24.8702 206.672C24.796 206.795 24.7342 206.926 24.6535 207.071C26.3355 206.729 27.9097 206.276 28.971 204.956C29.4889 204.314 29.6665 203.368 29.7232 202.869C29.7997 202.247 29.954 201.577 30.8522 201.449C31.1703 201.41 31.4396 201.456 31.6307 201.604C31.961 201.856 32.0135 202.302 32.0685 202.704L32.0805 202.766C32.3517 204.755 30.7019 207.143 28.478 208.002C26.9507 208.586 25.5948 208.932 24.3266 209.055C22.9727 209.183 21.958 209.724 21.1585 210.767C20.522 211.583 19.8935 212.441 19.2904 213.262C19.0491 213.59 18.8079 213.918 18.5646 214.236L18.6913 214.331C18.8798 214.295 19.0683 214.259 19.2568 214.223C19.8223 214.115 20.3943 213.984 20.9783 213.916C21.2441 213.887 21.7105 214.113 21.7919 214.369C21.8568 214.595 21.6873 214.845 21.5348 215.069L21.467 215.169C21.3823 215.294 21.2292 215.344 21.1076 215.389L21.0657 215.397C19.9392 215.808 18.9927 215.967 18.0777 216.12C17.194 216.267 16.2789 216.42 15.1904 216.801C15.159 216.807 15.138 216.811 15.1066 216.817L15.1236 216.792ZM14.6372 216.462C14.6372 216.462 14.725 216.467 14.7584 216.471C14.913 216.485 15.0342 216.495 15.095 216.472C16.2045 216.087 17.1405 215.93 18.0346 215.781C18.9392 215.63 19.8648 215.475 20.9618 215.081L21.0037 215.073C21.0625 215.04 21.1757 215.007 21.2011 214.97L21.2774 214.858C21.3621 214.733 21.5251 214.507 21.4987 214.425C21.4722 214.343 21.1809 214.181 21.0323 214.199C20.4712 214.274 19.8973 214.394 19.3318 214.502C19.1223 214.542 18.9024 214.584 18.693 214.624L18.6197 214.638L18.1462 214.262L18.2414 214.135C18.5186 213.767 18.7852 213.401 19.0519 213.036C19.6655 212.213 20.2835 211.357 20.9285 210.529C21.7913 209.419 22.8628 208.835 24.313 208.699C25.5498 208.583 26.8847 208.241 28.3826 207.673C30.4868 206.869 32.0454 204.629 31.7898 202.778L31.7778 202.716C31.7348 202.377 31.6837 201.996 31.4657 201.82C31.339 201.725 31.1699 201.692 30.9271 201.728C30.2927 201.816 30.1453 202.181 30.0598 202.87C29.9882 203.405 29.7996 204.407 29.2393 205.11C28.047 206.597 26.2763 207.044 24.4247 207.408L24.1105 207.468L24.251 207.181C24.3766 206.929 24.4957 206.7 24.6188 206.492C24.859 206.044 25.0778 205.655 25.1943 205.242C25.4807 204.298 25.9536 203.534 26.7318 202.778C28.8555 200.712 29.4484 196.995 28.061 194.503L27.9931 194.375C27.5609 193.589 27.206 193.038 26.4406 193.293C25.7655 193.509 25.8255 194.051 25.9899 194.855L26.0159 194.991C26.0359 195.096 25.9726 195.162 25.8609 195.26C25.8061 195.314 25.7218 195.384 25.6142 195.502L25.4771 195.637L25.3698 195.473C25.1861 195.193 25.0234 194.91 24.8503 194.628C24.4525 193.966 24.0732 193.343 23.6057 192.771C23.4071 192.526 23.0864 192.381 22.7302 192.221C22.624 192.177 22.5157 192.121 22.4075 192.066C22.3607 192.162 22.3263 192.266 22.2795 192.362C22.1215 192.728 21.97 193.072 21.9188 193.429C21.8875 193.663 22.1166 194.01 22.2962 194.269C23.19 195.596 24.3196 196.965 26.5966 196.726L26.7996 196.709L26.1789 200.735L25.5689 200.666L25.53 200.576C25.4666 200.415 25.4032 200.253 25.3398 200.092C25.207 199.737 25.0637 199.384 24.9015 199.046C24.057 197.352 23.4435 197.208 22.692 197.536C21.9007 197.883 21.6351 198.368 22.3011 200.151C22.7954 201.489 23.4185 203.161 22.2498 205.056L22.0589 205.363L21.97 205.011C21.8871 204.691 21.8167 204.378 21.7397 204.089C21.5784 203.415 21.435 202.834 21.2203 202.278C21.1364 202.066 20.9184 201.891 20.6755 201.698C20.6111 201.646 20.5468 201.593 20.4824 201.54C20.4231 201.627 20.3618 201.704 20.3025 201.791C20.1225 202.043 19.9047 202.323 19.9452 202.478C20.1105 203.174 20.3742 203.872 20.6318 204.54C20.777 204.903 20.9138 205.278 21.0382 205.645C21.1685 206.043 21.2839 206.477 21.1124 206.716C20.4271 207.618 19.7108 208.471 18.8803 209.465C18.6057 209.789 18.3225 210.125 18.0329 210.484L17.6885 210.897L17.7601 210.363C17.8113 210.006 17.8476 209.684 17.8879 209.383C17.9639 208.815 18.0286 208.358 18.0683 207.884C18.1418 207.131 18.2362 206.375 18.3222 205.632C18.5369 203.8 18.7605 201.901 18.7747 200.042C18.7815 199.737 18.7694 199.446 18.7554 199.145C18.7055 197.917 18.6476 196.648 19.7713 195.597C19.8914 195.488 19.998 195.25 20.0124 195.041C20.0675 194.477 20.1227 193.913 20.1798 193.36C20.3462 191.787 20.5131 190.159 20.4915 188.568C20.4726 187.616 19.971 186.637 19.4879 185.699L19.3706 185.482C19.2308 185.205 19.0338 185.025 18.7834 184.965C18.4746 184.883 18.0912 184.978 17.7063 185.236C17.0985 185.634 16.9621 186.17 17.3035 186.821C17.3898 186.989 17.4846 187.145 17.5795 187.3C17.6907 187.485 17.8145 187.679 17.9069 187.878C19.1931 190.465 19.2515 192.875 18.0895 195.43L17.9445 195.751L17.7968 195.432C17.6101 195.022 17.4399 194.642 17.2737 194.283C16.9352 193.534 16.6048 192.826 16.3162 192.111C15.9703 191.265 15.3747 190.988 14.5714 191.272C14.2148 191.394 13.981 191.591 13.8764 191.839C13.7568 192.122 13.7869 192.507 13.9881 192.935L14.2012 193.426C14.3899 193.846 14.5826 194.287 14.7817 194.705C15.8419 196.847 16.6945 198.811 16.4472 201.268L16.4239 201.544L16.1974 201.381C14.1924 199.919 11.9863 198.028 10.883 195.091C10.5315 194.159 10.1256 193.228 9.76272 192.407C9.43275 191.645 9.08041 191.05 8.26263 191.315C7.4239 191.583 7.43266 192.255 7.69237 193.16C7.96455 194.074 8.26214 194.951 8.57174 195.89C8.70007 196.278 8.8304 196.677 8.9712 197.073L9.0406 197.266L8.83563 197.273C8.78327 197.283 8.72891 197.282 8.67655 197.292C8.54041 197.318 8.40028 197.323 8.27109 197.272C7.87105 197.11 7.47101 196.947 7.06898 196.774C6.33773 196.469 5.58155 196.146 4.81641 195.891C4.3306 195.734 3.77653 195.731 3.21798 195.762C3.14848 196.535 3.2255 197.052 3.44855 197.368C3.85773 197.919 4.56317 198.544 5.25195 198.684C6.18912 198.874 7.19454 198.91 8.15608 198.944C8.58249 198.96 9.0069 198.966 9.42483 198.995C9.52308 198.997 9.6318 198.998 9.73852 198.989C10.0522 198.983 10.3744 198.965 10.5191 199.155C11.8324 200.803 13.701 201.836 16.3724 202.411L16.508 202.44L16.4921 202.584L15.6411 210.463L14.7292 213.59C15.0725 214.023 15.5086 214.374 15.9341 214.727C16.1272 214.886 16.3078 215.036 16.4779 215.188L16.648 215.34L16.4506 215.443C16.1544 215.597 15.8761 215.617 15.6397 215.63C15.2528 215.65 14.9515 215.664 14.6566 216.393L14.6372 216.462Z" fill="black"/>
<path d="M17.5093 211.778C15.3422 208.784 11.8444 199.672 11.8139 199.57C11.4369 198.448 10.0058 198.797 9.28222 199.043C8.55869 199.29 7.16408 200.001 7.78793 201.109C7.8044 201.138 7.83135 201.166 7.84782 201.195C10.6511 206.043 13.0336 209.995 15.6435 212.579C15.8964 212.824 15.9563 212.91 15.9688 212.919C16.4492 213.218 16.7418 212.988 17.0764 212.751C17.4109 212.513 17.6227 212.202 17.5323 211.785C17.5323 211.785 17.5323 211.785 17.5303 211.774L17.5093 211.778Z" fill="#22C7DD"/>
<path d="M16.5349 213.212C16.3464 213.248 16.123 213.215 15.8756 213.056L15.8217 213.001C15.8217 213.001 15.7099 212.871 15.5253 212.7C12.899 210.086 10.531 206.153 7.71121 201.275C7.68227 201.237 7.64733 201.168 7.63086 201.139C7.43522 200.796 7.42313 200.505 7.54518 200.178C7.81917 199.453 8.82441 199.033 9.2313 198.89C9.85211 198.674 10.7278 198.485 11.3503 198.79C11.6501 198.939 11.8592 199.181 11.967 199.519C11.9935 199.6 15.4748 208.683 17.642 211.677L17.6709 211.715L17.7163 211.782L17.6909 211.82C17.7689 212.228 17.5795 212.601 17.1587 212.898C16.9673 213.032 16.7673 213.179 16.5369 213.223L16.5349 213.212ZM10.0143 199.012C9.75253 199.062 9.50719 199.142 9.33317 199.197C9.03747 199.296 8.06812 199.677 7.8285 200.298C7.74282 200.531 7.76786 200.776 7.91408 201.03C7.91808 201.051 7.97996 201.148 7.97996 201.148C10.7853 206.007 13.1328 209.889 15.7427 212.474C15.9293 212.655 16.0141 212.758 16.0535 212.794C16.4217 213.017 16.6216 212.87 16.9476 212.645C17.2927 212.406 17.4202 212.164 17.3767 211.88L17.3687 211.838C15.1936 208.801 11.6998 199.711 11.6733 199.629C11.5919 199.373 11.4387 199.196 11.2223 199.086C10.887 198.922 10.4457 198.941 10.0373 199.019L10.0143 199.012Z" fill="black"/>
<path d="M11.1009 199.814C11.3311 200.508 10.5772 200.88 10.1219 201.054C9.66667 201.228 8.86136 201.501 8.48055 200.814C8.07081 200.089 8.98227 199.633 9.46047 199.465C9.92819 199.3 10.8627 199.078 11.1094 199.802L11.1009 199.814Z" fill="#6BDCE8"/>
<path d="M17.656 202.427C17.4877 201.829 16.3771 201.868 15.8829 201.951C15.3553 202.03 14.2129 202.357 14.3847 203.03L14.3907 203.061C15.403 206.374 16.0297 209.543 15.9313 212.893C15.922 213.243 15.9086 213.343 15.9211 213.351C16.0624 213.921 16.447 213.946 16.8918 214.002C17.3367 214.058 17.7307 213.961 17.9599 213.57C17.9599 213.57 17.9579 213.559 17.9559 213.549C18.7087 209.248 18.2199 206.802 17.7005 202.603L17.6685 202.435L17.656 202.427Z" fill="#22C7DD"/>
<path d="M17.6058 214.614L17.7113 214.03C17.4864 214.16 17.2016 214.203 16.8675 214.158L16.8256 214.166C16.3997 214.096 15.9214 214.035 15.7535 213.383C15.7475 213.352 15.7455 213.341 15.7525 213.264C15.751 213.199 15.7624 213.089 15.7663 212.882C15.8573 209.89 15.3943 206.896 14.2501 203.12L14.2321 203.026C14.1732 202.831 14.231 202.679 14.3222 202.531C14.6761 201.997 15.7378 201.816 15.8549 201.805C16.033 201.771 17.5779 201.563 17.8131 202.397C17.8396 202.479 17.9747 203.527 18.0357 203.961C18.4645 207.287 18.7842 209.701 18.126 213.473L18.1614 213.488L18.0931 213.642C18.0931 213.642 18.0762 213.667 18.0677 213.68L17.6058 214.614ZM14.5334 203.012C15.6939 206.817 16.169 209.874 16.0735 212.899C16.0696 213.106 16.0602 213.227 16.0597 213.282L16.0697 213.334C16.1706 213.749 16.4379 213.785 16.8494 213.836L16.8913 213.828C17.3047 213.89 17.6004 213.791 17.7784 213.529L17.7744 213.508L17.7913 213.483C18.4515 209.721 18.1579 207.443 17.7071 204.002C17.6565 203.566 17.591 203.166 17.522 202.691L17.482 202.482C17.3667 202.048 16.4615 202.025 15.8815 202.114C15.3853 202.187 14.756 202.416 14.5632 202.713C14.5038 202.801 14.4884 202.89 14.5104 203.006L14.5144 203.027L14.5334 203.012Z" fill="black"/>
<path d="M17.15 202.675C17.1941 203.134 16.4984 203.299 16.1508 203.354C15.8013 203.4 15.0732 203.452 14.9682 203.016C14.8509 202.572 15.6138 202.361 15.9614 202.305C16.309 202.25 17.1184 202.225 17.152 202.686L17.15 202.675Z" fill="#6BDCE8"/>
<path d="M17.6728 212.691C17.6728 212.691 17.6623 212.693 17.6603 212.683C14.3661 209.697 10.8442 207.396 7.02909 205.15C7.00215 205.123 6.8939 205.067 6.84802 205.055C6.01205 204.769 5.36715 205.826 5.07365 206.392C4.76967 206.96 4.27499 208.292 5.02071 208.616C5.02071 208.616 5.02071 208.616 5.03118 208.614C8.02936 209.594 13.983 213.092 15.716 214.324C15.9031 214.451 16.1441 214.633 16.1545 214.631C16.6982 214.864 17.114 214.426 17.4016 214.056C17.6892 213.687 17.9807 213.11 17.6603 212.683L17.6728 212.691Z" fill="#22C7DD"/>
<path d="M16.6189 214.846C16.4619 214.876 16.2863 214.866 16.0968 214.783C16.0738 214.777 16.0738 214.777 15.997 214.715C15.9097 214.656 15.758 214.544 15.6333 214.459C13.9147 213.246 7.97159 209.746 4.98388 208.764L4.92552 208.743C4.92552 208.743 4.90258 208.736 4.89011 208.728L4.86916 208.732C4.69656 208.624 4.5828 208.483 4.5134 208.29C4.25826 207.579 4.84327 206.436 4.91553 206.303C5.53644 205.12 6.19505 204.647 6.88088 204.885C6.92677 204.898 7.07043 204.969 7.13478 205.021C10.3862 206.93 14.1979 209.328 17.7306 212.539L17.7845 212.594C18.2246 213.194 17.6933 213.936 17.5178 214.154C17.3613 214.357 17.0358 214.756 16.6065 214.838L16.6189 214.846ZM5.10146 208.47C8.13705 209.476 14.0927 212.984 15.8112 214.197C15.936 214.282 16.0981 214.392 16.1874 214.462L16.2497 214.504C16.6518 214.677 16.9893 214.341 17.2978 213.968C17.395 213.851 17.8436 213.245 17.5776 212.818L17.5317 212.805L17.5237 212.763C14.0075 209.581 10.2083 207.192 6.95685 205.283C6.90896 205.26 6.83413 205.209 6.80072 205.205C6.28996 205.031 5.75103 205.448 5.21932 206.473C4.93229 207.016 4.68923 207.789 4.84451 208.205C4.88944 208.326 4.97227 208.419 5.08051 208.474L5.11593 208.489L5.10146 208.47Z" fill="black"/>
<path d="M6.80586 205.573C7.3466 205.904 6.96246 206.791 6.72874 207.215C6.49502 207.64 5.96922 208.468 5.3921 208.23C4.82546 207.991 5.20009 206.997 5.42134 206.564C5.64258 206.131 6.26511 205.242 6.80586 205.573Z" fill="#6BDCE8"/>
<path d="M22.5442 211.544L21.5933 210.543C21.2421 210.295 20.8271 210.168 20.4087 210.194C20.4087 210.194 18.3052 210.432 17.0742 211.319C15.8433 212.205 15.5451 214.736 15.5451 214.736L19.2624 215.731L24.9688 214.75C24.9688 214.75 25.136 213.806 24.6689 212.951C24.2017 212.096 22.8456 211.758 22.5462 211.555L22.5442 211.544Z" fill="#25497C"/>
<path d="M25.1016 214.877L19.2132 215.87L15.3706 214.846L15.3885 214.712C15.4 214.601 15.7146 212.099 16.9835 211.184C18.2334 210.283 20.3034 210.04 20.3892 210.035C20.8535 210.022 21.3019 210.153 21.678 210.418L22.6415 211.428C22.7143 211.468 22.858 211.539 23.0226 211.605C23.5787 211.846 24.4267 212.194 24.795 212.873C25.2807 213.768 25.1175 214.732 25.115 214.776L25.0931 214.889L25.1016 214.877ZM19.2619 215.557L24.8217 214.604C24.847 214.339 24.8677 213.651 24.5198 213.023C24.2029 212.443 23.4238 212.114 22.905 211.899C22.705 211.817 22.5404 211.751 22.4511 211.681L22.4261 211.664L21.4752 210.663C21.1759 210.46 20.7963 210.348 20.4178 210.355C20.4178 210.355 18.3582 210.596 17.1651 211.453C16.1635 212.176 15.7932 214.103 15.7196 214.627L19.2659 215.578L19.2619 215.557Z" fill="black"/>
<path d="M13.8558 214.245L15.0274 213.446C15.2049 213.238 16.1996 212.821 16.4231 212.854L17.9114 213.145C18.2246 213.194 19.6721 215.034 19.8474 215.554L18.8279 216.411L14.8798 217.164L13.8888 216.919L13.5873 215.056C13.6091 214.715 13.7142 214.413 13.8662 214.243L13.8558 214.245Z" fill="#3C5C82"/>
<path d="M18.8893 216.562L14.8306 217.304L13.7393 217.046L13.4178 215.078C13.4465 214.66 13.5581 214.334 13.7376 214.137L13.765 214.11L14.9282 213.324C15.1664 213.094 16.1677 212.653 16.4475 212.697L17.9358 212.989C18.3512 213.061 19.8128 214.975 19.99 215.505L20.01 215.61L18.8893 216.562ZM14.8688 216.993L18.7435 216.253L19.6429 215.506C19.3639 214.898 18.106 213.368 17.8746 213.293L16.3863 213.002C16.2421 212.986 15.2957 213.373 15.1437 213.543L15.1163 213.57L13.9636 214.355C13.841 214.508 13.7593 214.763 13.7399 215.059L14.0259 216.785L14.8793 216.991L14.8688 216.993Z" fill="black"/>
<path d="M234.364 17.9873C234.275 18.5716 234.392 19.1911 234.825 19.5913C235.202 21.0284 237.261 22.5414 239.065 22.2722L239.092 22.2779C240.272 23.861 242.141 24.4508 243.948 23.7827C244.537 24.3651 245.236 24.7391 245.981 24.9002C246.957 25.1112 248.004 24.9476 248.995 24.4005L249.022 24.4062C249.403 24.6649 250.029 24.8188 250.466 24.8577C251.89 24.9706 252.875 24.7936 253.987 23.7338C254.735 23.4962 255.101 22.9162 255.057 22.2195C255.057 22.2195 244.936 18.397 244.815 18.3525C244.695 18.3079 234.364 17.9873 234.364 17.9873Z" fill="#FCACAC"/>
<path opacity="0.2" d="M244.289 22.2875C244.308 22.7185 244.218 23.1355 244.021 23.5294C244.015 23.556 243.971 23.5464 243.968 23.5179C243.958 23.0887 244.04 22.6699 244.236 22.276C244.242 22.2493 244.286 22.2589 244.289 22.2875Z" fill="black"/>
<path opacity="0.2" d="M238.631 20.8413C238.68 21.2604 238.813 21.6327 239.055 21.9729C239.078 21.9964 239.042 22.035 239.01 22.0096C238.669 21.7409 238.427 21.2707 238.569 20.8279C238.575 20.8013 238.621 20.802 238.623 20.8394L238.631 20.8413Z" fill="black"/>
<path opacity="0.2" d="M234.861 18.9955C234.855 19.1521 234.99 19.4319 234.95 19.4419C234.816 19.3758 234.804 19.1317 234.806 18.9929C234.812 18.9663 234.858 18.967 234.85 19.0025L234.861 18.9955Z" fill="black"/>
<path opacity="0.2" d="M249.96 23.2441C249.867 23.6788 249.558 24.0763 249.119 24.2137C249.089 24.2257 249.07 24.1845 249.094 24.1617C249.453 23.9145 249.665 23.5796 249.907 23.2326C249.915 23.1971 249.968 23.2086 249.969 23.246L249.96 23.2441Z" fill="black"/>
<path opacity="0.2" d="M254.295 23.1691C254.256 23.3465 254.156 23.5105 253.973 23.5825C253.964 23.5805 253.946 23.5767 253.938 23.5748C254.08 23.4293 254.139 23.4141 254.241 23.1576C254.249 23.1221 254.3 23.1425 254.286 23.1672L254.295 23.1691Z" fill="black"/>
<path d="M252.953 22.6747C251.718 22.547 251.245 22.5841 249.99 22.9349C249.385 22.5998 248.072 22.186 247.407 22.0421C246.404 21.8254 245.325 21.7499 244.32 21.9319C242.904 20.9665 240.455 20.3535 238.733 20.5012C237.284 18.7858 234.747 18.7944 234.699 18.7563C234.379 18.5199 234.353 18.2543 234.382 17.9913C234.388 17.9647 234.393 17.938 234.399 17.9114C234.474 17.5655 234.797 17.2732 235.168 17.149C236.828 16.598 240.078 16.0378 245.374 17.1828C250.671 18.3277 253.399 20.1805 254.684 21.3682C254.791 21.4749 254.885 21.5974 254.958 21.7339C254.998 21.8075 255.027 21.888 255.049 21.9578C255.071 22.0276 255.075 22.0935 255.086 22.1702C255.109 22.5373 254.993 22.9022 254.495 23.0173C254.416 23.0374 253.616 22.7438 252.969 22.6874L252.953 22.6747Z" fill="#FFCACA"/>
<path d="M255.182 22.6274C255.25 22.4006 255.244 22.1299 255.186 21.9225C255.104 21.6168 254.885 21.3838 254.762 21.2644C253.355 19.9573 250.584 18.1697 245.394 17.0477C240.205 15.9258 236.943 16.4092 235.121 17.0183C234.69 17.1665 234.329 17.5062 234.245 17.9802C234.117 18.7419 234.314 19.295 234.698 19.6659C235.104 21.1373 237.159 22.6681 239.025 22.4122C239.713 23.313 240.61 23.8877 241.595 24.1006C242.34 24.2617 243.131 24.2098 243.904 23.9406C244.49 24.4944 245.196 24.8792 245.95 25.0422C246.953 25.2589 248.009 25.0973 248.988 24.566C249.397 24.8216 250.016 24.9647 250.455 24.9946C251.852 25.1018 252.889 24.9452 254.054 23.8507C254.686 23.6344 254.987 23.2723 255.174 22.6255L255.182 22.6274ZM234.588 17.8128C234.702 17.5405 234.904 17.3798 235.215 17.2707C237.007 16.6737 240.211 16.1965 245.348 17.3069C250.484 18.4174 253.214 20.1776 254.59 21.4593C254.69 21.5552 254.768 21.665 254.836 21.7818C254.869 21.8446 254.891 21.9144 254.922 21.986C254.974 22.1738 254.979 22.3234 254.918 22.4773C254.873 22.5977 254.713 22.823 254.479 22.8746C254.443 22.8669 254.293 22.8343 254.162 22.7967C253.855 22.7118 253.382 22.5816 252.973 22.5397C251.709 22.4151 251.228 22.4503 250.012 22.791C249.38 22.4501 248.101 22.0529 247.436 21.909C246.344 21.6731 245.286 21.63 244.351 21.7899C243.556 21.256 242.432 20.8274 241.279 20.578C240.419 20.392 239.546 20.3055 238.79 20.365C237.928 19.3707 236.595 18.7946 234.845 18.6393C234.81 18.6316 234.772 18.6328 234.755 18.629C234.556 18.4746 234.52 18.2533 234.512 18.1214C234.499 18.0073 234.538 17.9135 234.581 17.8021L234.588 17.8128ZM253.95 23.6052L253.898 23.631C252.797 24.6838 251.848 24.8222 250.486 24.7227C250.075 24.6897 249.474 24.5504 249.1 24.3025L249.001 24.244L248.928 24.2838C247.987 24.8139 246.977 24.9763 246.01 24.7672C245.282 24.61 244.603 24.2309 244.042 23.6917L243.971 23.6301L243.893 23.6502C242.138 24.2924 240.338 23.7268 239.196 22.1799L239.146 22.1133L239.032 22.1257C237.294 22.3907 235.301 20.9107 234.945 19.5523L234.935 19.513L234.903 19.4875C234.701 19.3046 234.579 19.0553 234.51 18.7712C234.54 18.8054 234.57 18.8397 234.61 18.8671C234.651 18.8944 234.678 18.9001 234.814 18.9112C236.528 19.0588 237.808 19.6234 238.621 20.5884L238.665 20.6443L238.731 20.64C240.442 20.4992 242.862 21.1153 244.229 22.0515L244.278 22.0808L244.336 22.0745C245.251 21.9196 246.303 21.952 247.376 22.184C248.041 22.3279 249.338 22.729 249.926 23.0603L249.944 23.0641L250.025 23.0725C251.232 22.7299 251.696 22.6908 252.931 22.8185C253.313 22.8547 253.769 22.9811 254.075 23.0659C254.364 23.147 254.435 23.1623 254.501 23.158C254.56 23.1429 254.632 23.112 254.693 23.088C254.531 23.3222 254.277 23.5088 253.939 23.6121L253.95 23.6052Z" fill="black"/>
<path d="M235.525 12.704C235.308 12.4621 235.17 12.2 235.153 11.89C235.037 9.93362 236.085 8.05221 237.836 7.16794C238.581 5.13766 240.535 3.83285 242.632 3.97042C244.252 2.57499 246.565 2.44354 248.301 3.6454C250.379 3.26821 252.431 4.34324 253.33 6.28333C255.296 7.02414 256.538 9.0105 256.377 11.1762C257.597 12.703 257.785 14.8421 256.871 16.576C256.726 16.8604 256.472 17.0469 256.179 17.1599C254.814 17.6727 250.268 18.8163 245.105 17.7001C239.942 16.5839 236.479 13.746 235.525 12.704Z" fill="#FFCACA"/>
<path d="M245.076 17.8332C240.108 16.7592 236.586 14.0663 235.422 12.7932C235.175 12.517 235.032 12.2353 235.015 11.9253L235.025 11.8809C234.903 9.86745 235.968 7.98989 237.727 7.07013C238.503 5.02785 240.476 3.71801 242.579 3.82897C244.23 2.45895 246.581 2.3263 248.332 3.50347C250.424 3.14786 252.498 4.24638 253.437 6.1764C255.399 6.93495 256.669 8.96447 256.525 11.134C257.747 12.6982 257.941 14.8481 257.006 16.6422L257.002 16.66C256.839 16.9405 256.577 17.1625 256.234 17.2925C254.506 17.9403 249.955 18.888 245.076 17.8332ZM235.619 12.6129C236.769 13.8644 240.235 16.5172 245.132 17.5759C250.028 18.6345 254.431 17.6828 256.138 17.0489C256.421 16.9429 256.635 16.7664 256.762 16.5245L256.766 16.5068C257.654 14.8045 257.458 12.7471 256.281 11.2762L256.244 11.2311L256.256 11.1779C256.4 9.09202 255.19 7.13108 253.291 6.42336L253.213 6.35095C252.336 4.48062 250.327 3.42406 248.326 3.78998L248.269 3.79622L248.219 3.76697C246.548 2.60706 244.281 2.73922 242.71 4.08023L242.665 4.11691L242.612 4.10541C240.586 3.98318 238.667 5.25826 237.954 7.22141L237.937 7.30125L237.862 7.30365C236.194 8.15004 235.164 9.9516 235.276 11.8795L235.272 11.8972C235.3 12.154 235.4 12.3799 235.619 12.6129Z" fill="black"/>
<g opacity="0.1">
<path d="M245.167 17.7135C245.849 13.441 246.437 8.91604 248.001 4.94561C247.578 9.26486 246.478 13.6697 245.167 17.7135Z" fill="black"/>
<path d="M252.93 7.74757C252.213 11.9661 249.088 15.9426 245.363 17.7931C248.897 15.3629 251.096 11.4183 252.93 7.74757Z" fill="black"/>
<path d="M255.556 12.6517C254.698 14.472 252.874 15.6097 251.142 16.4889C249.406 17.3022 247.3 18.0261 245.435 17.8921C248.988 16.8774 253.142 15.4447 255.565 12.6536L255.556 12.6517Z" fill="black"/>
<path d="M242.458 5.50226C242.343 9.73015 243.06 14.0172 244.956 17.7423C242.564 14.2908 241.11 9.54724 242.458 5.50226Z" fill="black"/>
<path d="M238.058 8.67383C239.173 12.4526 241.919 15.34 244.902 17.777C241.508 16.2539 238.099 12.5641 238.058 8.67383Z" fill="black"/>
</g>
<path opacity="0.2" d="M244.653 20.3046C246.951 20.8014 248.919 20.7155 249.05 20.1129C249.18 19.5103 247.423 18.6191 245.125 18.1223C242.827 17.6255 240.859 17.7114 240.729 18.314C240.598 18.9166 242.355 19.8078 244.653 20.3046Z" fill="black"/>
<path d="M244.814 19.7731C248.136 20.4912 251.411 18.3806 252.129 15.0588C252.847 11.737 250.737 8.46204 247.415 7.7439C244.093 7.02577 240.818 9.13643 240.1 12.4582C239.382 15.78 241.493 19.055 244.814 19.7731Z" fill="#F25AB1"/>
<path d="M244.786 19.9062C241.397 19.1736 239.235 15.8182 239.967 12.4295C240.7 9.04071 244.055 6.87825 247.444 7.61086C250.833 8.34348 252.995 11.6988 252.262 15.0876C251.53 18.4763 248.174 20.6388 244.786 19.9062ZM247.388 7.86813C244.141 7.1662 240.926 9.23826 240.224 12.4851C239.522 15.7319 241.595 18.947 244.841 19.6489C248.088 20.3509 251.303 18.2788 252.005 15.032C252.707 11.7852 250.635 8.57006 247.388 7.86813Z" fill="black"/>
<path opacity="0.6" d="M241.491 13.1117C241.305 13.0715 241.187 12.888 241.227 12.7017C241.81 10.0049 244.475 8.28749 247.172 8.87051C247.358 8.91079 247.476 9.0942 247.436 9.28049C247.395 9.46678 247.212 9.58499 247.026 9.54472C244.702 9.04224 242.395 10.5214 241.89 12.8545C241.85 13.0408 241.667 13.159 241.48 13.1187L241.491 13.1117Z" fill="white"/>
<path opacity="0.2" d="M251.94 11.7679C251.96 12.3201 251.914 12.8766 251.793 13.4354C251.011 17.0548 247.438 19.3652 243.809 18.5808C242.771 18.3564 241.839 17.904 241.054 17.2795C241.911 18.514 243.225 19.4387 244.804 19.7801C248.13 20.4993 251.401 18.3836 252.119 15.0658C252.364 13.9303 252.284 12.7986 251.929 11.7749L251.94 11.7679Z" fill="black"/>
<path opacity="0.6" d="M241.361 14.1423C241.557 14.1847 241.75 14.0601 241.793 13.8642C241.835 13.6682 241.71 13.475 241.515 13.4326C241.319 13.3902 241.125 13.5148 241.083 13.7107C241.041 13.9067 241.165 14.0999 241.361 14.1423Z" fill="white"/>
<path d="M289.103 248.395C289.195 248.883 289.461 249.341 289.915 249.536C290.615 250.569 292.668 251.192 294.02 250.475L294.043 250.472C295.42 251.396 297.064 251.341 298.308 250.307C298.937 250.604 299.595 250.705 300.229 250.624C301.061 250.519 301.844 250.097 302.476 249.387L302.499 249.384C302.872 249.483 303.411 249.43 303.768 249.338C304.927 249.03 305.658 248.615 306.242 247.465C306.767 247.069 306.896 246.507 306.666 245.968C306.666 245.968 297.586 245.768 297.478 245.766C297.37 245.765 289.103 248.395 289.103 248.395Z" fill="#FCACAC"/>
<path opacity="0.2" d="M298.161 249.028C298.296 249.364 298.341 249.72 298.295 250.086C298.298 250.109 298.26 250.114 298.25 250.092C298.122 249.755 298.07 249.401 298.115 249.034C298.112 249.011 298.15 249.006 298.161 249.028Z" fill="black"/>
<path opacity="0.2" d="M293.278 249.463C293.433 249.781 293.643 250.039 293.929 250.241C293.954 250.253 293.936 250.294 293.904 250.282C293.559 250.165 293.236 249.86 293.225 249.47C293.222 249.447 293.259 249.435 293.27 249.464L293.278 249.463Z" fill="black"/>
<path opacity="0.2" d="M289.778 249.055C289.816 249.18 290.001 249.364 289.973 249.383C289.848 249.368 289.77 249.179 289.733 249.068C289.73 249.045 289.767 249.033 289.771 249.063L289.778 249.055Z" fill="black"/>
<path opacity="0.2" d="M302.917 248.202C302.964 248.572 302.831 248.973 302.522 249.204C302.502 249.222 302.475 249.195 302.487 249.17C302.703 248.874 302.777 248.55 302.872 248.208C302.868 248.178 302.914 248.172 302.925 248.201L302.917 248.202Z" fill="black"/>
<path opacity="0.2" d="M306.327 246.932C306.347 247.083 306.313 247.241 306.188 247.349C306.181 247.35 306.166 247.352 306.158 247.353C306.231 247.198 306.273 247.17 306.282 246.938C306.278 246.908 306.325 246.91 306.32 246.933L306.327 246.932Z" fill="black"/>
<path d="M305.127 246.916C304.114 247.159 303.75 247.321 302.855 247.949C302.282 247.853 301.127 247.892 300.56 247.963C299.706 248.072 298.83 248.313 298.086 248.738C296.695 248.369 294.585 248.568 293.263 249.166C291.637 248.212 289.631 248.927 289.583 248.911C289.263 248.813 289.168 248.61 289.118 248.394C289.115 248.371 289.112 248.348 289.109 248.326C289.072 248.031 289.246 247.709 289.504 247.507C290.665 246.607 293.082 245.256 297.594 244.684C302.107 244.112 304.784 244.816 306.133 245.398C306.247 245.453 306.356 245.523 306.452 245.611C306.504 245.658 306.549 245.714 306.586 245.763C306.623 245.812 306.645 245.863 306.675 245.921C306.796 246.205 306.806 246.526 306.443 246.756C306.387 246.794 305.671 246.785 305.143 246.921L305.127 246.916Z" fill="#FFCACA"/>
<path d="M306.879 246.256C306.869 246.057 306.789 245.845 306.685 245.697C306.535 245.478 306.296 245.354 306.166 245.294C304.687 244.652 301.994 244.011 297.572 244.572C293.151 245.133 290.704 246.426 289.431 247.417C289.131 247.655 288.94 248.024 289.006 248.423C289.118 249.062 289.428 249.445 289.835 249.631C290.568 250.683 292.622 251.321 294.028 250.597C294.824 251.118 295.695 251.322 296.534 251.216C297.168 251.136 297.78 250.874 298.317 250.444C298.936 250.719 299.602 250.827 300.245 250.745C301.099 250.637 301.89 250.214 302.516 249.52C302.911 249.608 303.441 249.549 303.798 249.45C304.934 249.144 305.711 248.731 306.328 247.539C306.767 247.191 306.905 246.821 306.872 246.257L306.879 246.256ZM289.231 248.195C289.245 247.947 289.36 247.764 289.576 247.59C290.828 246.618 293.231 245.345 297.608 244.79C301.984 244.235 304.637 244.866 306.084 245.496C306.19 245.544 306.283 245.609 306.369 245.683C306.412 245.724 306.449 245.773 306.494 245.821C306.587 245.955 306.633 246.072 306.628 246.211C306.626 246.319 306.562 246.542 306.391 246.648C306.361 246.652 306.232 246.668 306.118 246.675C305.852 246.693 305.441 246.722 305.105 246.803C304.07 247.057 303.699 247.22 302.832 247.829C302.236 247.736 301.113 247.778 300.546 247.85C299.616 247.968 298.766 248.23 298.07 248.617C297.292 248.416 296.283 248.391 295.3 248.516C294.567 248.609 293.852 248.784 293.27 249.042C292.31 248.495 291.094 248.412 289.665 248.777C289.635 248.781 289.606 248.792 289.591 248.794C289.39 248.728 289.3 248.562 289.257 248.46C289.215 248.374 289.219 248.288 289.222 248.188L289.231 248.195ZM306.176 247.374L306.142 247.409C305.565 248.55 304.852 248.924 303.746 249.226C303.412 249.314 302.897 249.372 302.532 249.28L302.437 249.261L302.39 249.313C301.793 249.996 301.039 250.406 300.215 250.511C299.595 250.59 298.951 250.479 298.357 250.209L298.284 250.18L298.227 250.218C297.017 251.216 295.435 251.271 294.099 250.365L294.04 250.327L293.953 250.368C292.651 251.063 290.661 250.448 289.999 249.472L289.98 249.444L289.948 249.433C289.737 249.344 289.571 249.181 289.437 248.975C289.47 248.994 289.503 249.013 289.543 249.023C289.583 249.033 289.605 249.031 289.717 249.001C291.115 248.639 292.286 248.729 293.199 249.266L293.249 249.298L293.3 249.276C294.615 248.687 296.703 248.499 298.047 248.858L298.094 248.868L298.138 248.847C298.819 248.468 299.661 248.2 300.575 248.084C301.142 248.013 302.281 247.968 302.839 248.066L302.854 248.064L302.921 248.048C303.781 247.44 304.137 247.279 305.15 247.036C305.463 246.958 305.859 246.93 306.125 246.912C306.377 246.895 306.437 246.888 306.488 246.866C306.53 246.838 306.579 246.793 306.62 246.757C306.557 246.988 306.408 247.206 306.17 247.382L306.176 247.374Z" fill="black"/>
<path d="M288.546 243.889C288.307 243.758 288.124 243.589 288.024 243.348C287.387 241.832 287.691 240.05 288.83 238.861C288.853 237.045 290.035 235.467 291.734 234.99C292.627 233.433 294.421 232.683 296.131 233.15C297.671 232.271 299.595 232.549 300.849 233.834C302.612 233.871 304.15 235.097 304.627 236.857C306.02 237.725 306.765 239.366 306.526 240.993C306.491 241.259 306.342 241.478 306.141 241.649C305.204 242.436 301.924 244.611 297.525 245.169C293.126 245.727 289.592 244.447 288.546 243.889Z" fill="#FFCACA"/>
<path d="M297.54 245.282C293.307 245.819 289.767 244.671 288.49 243.988C288.217 243.838 288.025 243.655 287.925 243.414L287.921 243.377C287.262 241.817 287.581 240.033 288.716 238.814C288.76 236.98 289.957 235.392 291.652 234.893C292.577 233.347 294.401 232.586 296.116 233.029C297.673 232.163 299.622 232.454 300.904 233.719C302.669 233.772 304.241 235.024 304.733 236.782C306.137 237.679 306.891 239.327 306.651 241.008L306.653 241.023C306.603 241.291 306.458 241.54 306.222 241.739C305.035 242.734 301.697 244.755 297.54 245.282ZM288.595 243.79C289.855 244.46 293.34 245.592 297.512 245.063C301.684 244.534 304.904 242.551 306.078 241.573C306.272 241.41 306.393 241.21 306.425 240.983L306.423 240.968C306.651 239.372 305.921 237.798 304.579 236.963L304.537 236.937L304.532 236.892C304.064 235.2 302.558 233.986 300.857 233.956L300.775 233.92C299.559 232.684 297.673 232.409 296.191 233.257L296.147 233.278L296.1 233.269C294.453 232.817 292.696 233.555 291.826 235.055L291.801 235.097L291.756 235.103C290.118 235.572 288.954 237.117 288.939 238.87L288.947 238.938L288.889 238.961C287.804 240.097 287.492 241.811 288.119 243.305L288.121 243.321C288.215 243.516 288.357 243.667 288.595 243.79Z" fill="black"/>
<g opacity="0.1">
<path d="M297.578 245.162C296.925 241.589 296.127 237.843 296.257 234.263C297.128 237.8 297.487 241.595 297.578 245.162Z" fill="black"/>
<path d="M300.941 235.105C301.551 238.645 300.187 242.665 297.756 245.17C299.875 242.26 300.514 238.523 300.941 235.105Z" fill="black"/>
<path d="M304.39 238.254C304.219 239.935 303.092 241.345 301.967 242.524C300.82 243.653 299.354 244.814 297.84 245.229C300.369 243.433 303.258 241.139 304.397 238.253L304.39 238.254Z" fill="black"/>
<path d="M292.024 236.251C293.113 239.631 294.878 242.824 297.42 245.244C294.562 243.179 292.086 239.83 292.024 236.251Z" fill="black"/>
<path d="M289.426 239.991C291.364 242.671 294.344 244.19 297.387 245.286C294.274 245.028 290.545 243.059 289.426 239.991Z" fill="black"/>
</g>
<path opacity="0.2" d="M297.895 247.357C299.853 247.109 301.387 246.491 301.322 245.978C301.257 245.464 299.617 245.249 297.659 245.498C295.701 245.746 294.167 246.363 294.232 246.877C294.297 247.39 295.937 247.605 297.895 247.357Z" fill="black"/>
<path d="M297.874 246.891C300.705 246.532 302.708 243.947 302.349 241.116C301.99 238.286 299.404 236.283 296.574 236.642C293.744 237.001 291.741 239.586 292.1 242.417C292.459 245.247 295.044 247.25 297.874 246.891Z" fill="#F25AB1"/>
<path d="M297.889 247.004C295.001 247.371 292.353 245.318 291.986 242.431C291.62 239.544 293.672 236.895 296.56 236.528C299.447 236.162 302.096 238.215 302.462 241.102C302.828 243.989 300.776 246.638 297.889 247.004ZM296.588 236.748C293.821 237.099 291.855 239.637 292.205 242.403C292.556 245.169 295.095 247.136 297.861 246.785C300.627 246.434 302.594 243.896 302.243 241.13C301.892 238.363 299.354 236.397 296.588 236.748Z" fill="black"/>
<path opacity="0.6" d="M293.383 242.546C293.224 242.566 293.08 242.454 293.06 242.295C292.768 239.997 294.398 237.893 296.696 237.602C296.855 237.582 296.999 237.694 297.02 237.853C297.04 238.011 296.928 238.156 296.769 238.176C294.788 238.427 293.375 240.243 293.627 242.23C293.648 242.389 293.535 242.534 293.377 242.554L293.383 242.546Z" fill="white"/>
<path opacity="0.2" d="M301.28 238.564C301.45 238.996 301.569 239.449 301.629 239.925C302.021 243.009 299.837 245.836 296.746 246.228C295.861 246.34 294.996 246.242 294.201 245.967C295.224 246.705 296.522 247.07 297.868 246.9C300.702 246.54 302.701 243.952 302.342 241.125C302.219 240.157 301.84 239.284 301.273 238.573L301.28 238.564Z" fill="black"/>
<path opacity="0.6" d="M293.568 243.398C293.735 243.376 293.853 243.224 293.832 243.057C293.811 242.89 293.658 242.772 293.491 242.793C293.324 242.814 293.206 242.967 293.227 243.134C293.249 243.301 293.401 243.419 293.568 243.398Z" fill="white"/>
<path d="M38.8772 67.8461C38.9791 68.1727 39.197 68.4654 39.524 68.5636C40.0844 69.2157 41.5395 69.4804 42.4096 68.8827L42.4249 68.879C43.4407 69.403 44.5625 69.2357 45.3329 68.43C45.7871 68.5835 46.2457 68.6007 46.6742 68.4955C47.2353 68.3577 47.7388 68.0069 48.1156 67.4708L48.1309 67.467C48.3945 67.5051 48.7592 67.4264 48.9965 67.3356C49.7661 67.0331 50.2338 66.6911 50.5431 65.8579C50.8718 65.5445 50.9155 65.1498 50.7157 64.7986C50.7157 64.7986 44.4806 65.3776 44.4067 65.3849C44.3328 65.3923 38.8772 67.8461 38.8772 67.8461Z" fill="#FCACAC"/>
<path opacity="0.2" d="M45.1314 67.5653C45.2503 67.7849 45.3091 68.0247 45.3068 68.2795C45.3106 68.2948 45.2851 68.3011 45.2762 68.287C45.1625 68.0661 45.0985 67.8276 45.1008 67.5728C45.0971 67.5575 45.1226 67.5512 45.1314 67.5653Z" fill="black"/>
<path opacity="0.2" d="M41.8211 68.2483C41.9528 68.454 42.1164 68.6139 42.3287 68.7295C42.3465 68.7359 42.3375 68.7652 42.3146 68.76C42.0689 68.7067 41.8238 68.5235 41.7854 68.2571C41.7816 68.2418 41.8059 68.2304 41.816 68.2496L41.8211 68.2483Z" fill="black"/>
<path opacity="0.2" d="M39.3915 68.2445C39.4281 68.3275 39.5691 68.4389 39.5512 68.4541C39.4646 68.4537 39.3963 68.3299 39.3622 68.2571C39.3584 68.2418 39.3827 68.2304 39.3877 68.2508L39.3915 68.2445Z" fill="black"/>
<path opacity="0.2" d="M48.3243 66.6244C48.3857 66.8744 48.3259 67.1595 48.1327 67.3422C48.1199 67.3562 48.0996 67.3395 48.1061 67.3217C48.2306 67.1018 48.2557 66.8739 48.2937 66.632C48.2887 66.6115 48.3193 66.604 48.3294 66.6232L48.3243 66.6244Z" fill="black"/>
<path opacity="0.2" d="M50.5599 65.4859C50.585 65.5879 50.5743 65.6987 50.4975 65.7825C50.4924 65.7838 50.4822 65.7863 50.4771 65.7875C50.5146 65.6756 50.5414 65.6527 50.5293 65.4934C50.5243 65.473 50.5562 65.4706 50.5548 65.4872L50.5599 65.4859Z" fill="black"/>
<path d="M49.7366 65.5691C49.0616 65.816 48.8253 65.9552 48.2613 66.456C47.8614 66.4353 47.0735 66.553 46.6909 66.6469C46.1145 66.7885 45.5338 67.023 45.0571 67.3727C44.0754 67.2297 42.6459 67.532 41.7876 68.0457C40.5986 67.5209 39.2811 68.1689 39.2467 68.1611C39.0201 68.1194 38.9391 67.9878 38.8875 67.8437C38.8837 67.8284 38.88 67.8131 38.8762 67.7977C38.8274 67.5988 38.9213 67.3648 39.0825 67.2062C39.8066 66.4983 41.3554 65.3824 44.401 64.6345C47.4465 63.8867 49.3361 64.1584 50.3057 64.4504C50.3884 64.4787 50.4685 64.5186 50.5409 64.5711C50.5802 64.5993 50.6158 64.6338 50.6449 64.6645C50.6741 64.6952 50.6931 64.7284 50.7184 64.7655C50.8234 64.9507 50.8556 65.1699 50.6255 65.3563C50.5897 65.3867 50.099 65.4369 49.748 65.5717L49.7366 65.5691Z" fill="#FFCACA"/>
<path d="M50.8844 64.979C50.862 64.8439 50.79 64.7047 50.7075 64.6114C50.5871 64.4733 50.4141 64.4076 50.3199 64.3766C49.2562 64.0536 47.3614 63.8265 44.377 64.5593C41.3927 65.2921 39.8186 66.371 39.0254 67.1499C38.8386 67.3364 38.7368 67.6048 38.8134 67.8727C38.9403 68.3013 39.1826 68.5393 39.4765 68.6348C40.0611 69.2972 41.5187 69.5722 42.4246 68.9657C43.0107 69.2599 43.6232 69.3313 44.1894 69.1922C44.618 69.087 45.0164 68.8594 45.3503 68.5231C45.7957 68.6626 46.2606 68.6837 46.6942 68.5772C47.2707 68.4356 47.7792 68.0836 48.1535 67.559C48.4311 67.5882 48.7894 67.5056 49.0255 67.4097C49.7797 67.111 50.2793 66.7665 50.6078 65.9015C50.8816 65.6288 50.9464 65.364 50.8793 64.9803L50.8844 64.979ZM38.9492 67.6987C38.9397 67.528 39.004 67.3932 39.1383 67.2574C39.9187 66.4925 41.4647 65.4313 44.4185 64.706C47.3722 63.9807 49.239 64.2039 50.2798 64.5217C50.3562 64.5462 50.4248 64.5834 50.4896 64.627C50.5226 64.6514 50.5518 64.682 50.5861 64.7115C50.6609 64.7959 50.7013 64.8725 50.7086 64.9681C50.7159 65.042 50.6898 65.1999 50.5811 65.2861C50.5607 65.2911 50.474 65.3124 50.3962 65.3261C50.2152 65.3597 49.9359 65.412 49.7126 65.4939C49.0236 65.7497 48.7822 65.8901 48.2361 66.3757C47.8209 66.3587 47.0547 66.4765 46.6721 66.5705C46.0446 66.7245 45.483 66.9706 45.037 67.2911C44.4882 67.2149 43.7949 67.277 43.1317 67.4398C42.6369 67.5613 42.1609 67.7377 41.7828 67.9603C41.0821 67.6618 40.2423 67.7003 39.2929 68.0633C39.2725 68.0683 39.2534 68.0784 39.2432 68.0809C39.1006 68.051 39.0259 67.9449 38.9879 67.8785C38.9525 67.8223 38.9489 67.7637 38.9428 67.6949L38.9492 67.6987ZM50.4911 65.8004L50.4706 65.8271C50.1651 66.6539 49.7065 66.9667 48.9726 67.2605C48.7506 67.3474 48.4025 67.4275 48.1452 67.3933L48.079 67.3879L48.0508 67.4273C47.6957 67.9418 47.2115 68.2825 46.6554 68.419C46.2371 68.5218 45.7875 68.4969 45.3587 68.3588L45.3065 68.3446L45.2707 68.375C44.5209 69.1541 43.4411 69.3165 42.4546 68.8015L42.4113 68.7796L42.3551 68.8151C41.5182 69.3938 40.1064 69.1292 39.5764 68.5129L39.5612 68.495L39.5383 68.4898C39.3869 68.4459 39.2599 68.3473 39.1521 68.2169C39.1763 68.2271 39.2005 68.2374 39.2285 68.2414C39.2565 68.2453 39.2718 68.2416 39.3458 68.2126C40.2748 67.8546 41.084 67.8236 41.7516 68.1195L41.7885 68.1374L41.8217 68.1185C42.6761 67.6112 44.0916 67.3177 45.0401 67.458L45.0732 67.4607L45.1013 67.443C45.5384 67.1301 46.0936 66.8802 46.7109 66.7286C47.0935 66.6347 47.8699 66.5143 48.2597 66.5376L48.2699 66.5351L48.3145 66.5188C48.8555 66.0343 49.0867 65.8964 49.7617 65.6496C49.9697 65.5714 50.2387 65.5216 50.4197 65.488C50.5906 65.4568 50.6314 65.4468 50.6646 65.4278C50.6915 65.405 50.7209 65.3707 50.7465 65.3428C50.7216 65.5058 50.6369 65.6672 50.4872 65.8068L50.4911 65.8004Z" fill="black"/>
<path d="M38.1409 64.8032C37.9666 64.7324 37.8282 64.6312 37.7409 64.4741C37.1845 63.4857 37.2521 62.2412 37.9388 61.337C37.8115 60.0917 38.4968 58.9173 39.6224 58.457C40.1113 57.3201 41.2811 56.665 42.4894 56.8498C43.4747 56.1264 44.8148 56.1652 45.7747 56.9463C46.9856 56.8329 48.1356 57.5512 48.6008 58.7189C49.6231 59.2035 50.2633 60.2688 50.2279 61.4025C50.2246 61.5872 50.1399 61.7487 50.0157 61.8819C49.436 62.4949 47.3609 64.2431 44.3919 64.9721C41.4228 65.7011 38.9015 65.1032 38.1409 64.8032Z" fill="#FFCACA"/>
<path d="M44.4106 65.0486C41.5539 65.7501 39.0385 65.2427 38.11 64.8757C37.9116 64.7946 37.7655 64.6844 37.6782 64.5273L37.672 64.5018C37.0978 63.4853 37.1757 62.2383 37.8574 61.3137C37.7429 60.0544 38.4371 58.8725 39.559 58.3969C40.0708 57.2651 41.2597 56.5999 42.4693 56.7681C43.4674 56.0525 44.8253 56.0976 45.8031 56.8636C47.0164 56.7604 48.1918 57.4941 48.6673 58.6593C49.6997 59.163 50.3462 60.2321 50.3146 61.4028L50.3171 61.413C50.3035 61.6003 50.2238 61.7821 50.0779 61.9369C49.3433 62.7123 47.2164 64.3596 44.4106 65.0486ZM38.1666 64.7319C39.0824 65.0912 41.5583 65.5921 44.3743 64.9007C47.1903 64.2092 49.2394 62.5972 49.9662 61.8346C50.0865 61.7077 50.1534 61.5614 50.1578 61.4035L50.1553 61.3933C50.1855 60.2824 49.5617 59.2618 48.5762 58.7952L48.5457 58.7811L48.5382 58.7505C48.0842 57.6287 46.9572 56.9156 45.7897 57.0292L45.7311 57.0111C44.8004 56.2606 43.487 56.2207 42.5388 56.9187L42.5107 56.9364L42.4776 56.9338C41.3138 56.7543 40.1683 57.398 39.6911 58.4942L39.6769 58.5248L39.6463 58.5323C38.5615 58.9826 37.8865 60.1327 38.014 61.3347L38.0252 61.3806L37.9869 61.4008C37.3336 62.2644 37.2546 63.463 37.8022 64.4374L37.8047 64.4476C37.8844 64.574 37.9936 64.6662 38.1666 64.7319Z" fill="black"/>
<g opacity="0.1">
<path d="M44.4276 64.9634C43.6987 62.5677 42.8569 60.0645 42.6633 57.6023C43.5389 59.9565 44.0836 62.5273 44.4276 64.9634Z" fill="black"/>
<path d="M45.938 57.8096C46.6351 60.1861 46.018 63.0475 44.5499 64.955C45.7719 62.7943 45.9153 60.1843 45.938 57.8096Z" fill="black"/>
<path d="M48.5483 59.6947C48.5638 60.8592 47.9032 61.9139 47.2255 62.8105C46.5288 63.6739 45.6166 64.5849 44.6122 64.9884C46.2031 63.5592 48.0007 61.7601 48.5534 59.6934L48.5483 59.6947Z" fill="black"/>
<path d="M39.9208 59.2979C40.9333 61.5267 42.3936 63.5751 44.3254 65.0318C42.2052 63.8431 40.2456 61.7442 39.9208 59.2979Z" fill="black"/>
<path d="M38.4365 62.064C39.9748 63.7471 42.136 64.5525 44.3061 65.0635C42.154 65.1322 39.4447 64.0774 38.4365 62.064Z" fill="black"/>
</g>
<path opacity="0.2" d="M44.8176 66.4416C46.139 66.1172 47.1412 65.5732 47.0561 65.2267C46.971 64.8801 45.8308 64.8622 44.5094 65.1867C43.1881 65.5111 42.1859 66.0551 42.271 66.4016C42.3561 66.7482 43.4962 66.7661 44.8176 66.4416Z" fill="black"/>
<path d="M44.7667 66.1241C46.677 65.6551 47.8452 63.7263 47.3762 61.8161C46.9071 59.9059 44.9784 58.7376 43.0681 59.2066C41.1579 59.6757 39.9896 61.6044 40.4587 63.5147C40.9277 65.4249 42.8565 66.5932 44.7667 66.1241Z" fill="#F25AB1"/>
<path d="M44.7855 66.2007C42.8368 66.6792 40.8607 65.4822 40.3822 63.5335C39.9036 61.5847 41.1006 59.6086 43.0494 59.1301C44.9981 58.6516 46.9742 59.8485 47.4527 61.7973C47.9312 63.746 46.7343 65.7221 44.7855 66.2007ZM43.0857 59.278C41.2186 59.7365 40.0716 61.63 40.5301 63.4971C40.9886 65.3642 42.8821 66.5112 44.7492 66.0527C46.6163 65.5942 47.7633 63.7007 47.3048 61.8336C46.8463 59.9665 44.9528 58.8196 43.0857 59.278Z" fill="black"/>
<path opacity="0.6" d="M41.348 63.5019C41.2409 63.5282 41.1328 63.4628 41.1065 63.3556C40.7257 61.8048 41.6764 60.2353 43.2272 59.8545C43.3343 59.8282 43.4424 59.8937 43.4687 60.0008C43.495 60.1079 43.4295 60.2159 43.3224 60.2422C41.9858 60.5704 41.1609 61.9251 41.4904 63.2668C41.5167 63.3739 41.4513 63.4819 41.3441 63.5082L41.348 63.5019Z" fill="white"/>
<path opacity="0.2" d="M46.4429 60.1521C46.5933 60.4343 46.7106 60.7355 46.7895 61.0569C47.3006 63.1383 46.0279 65.2466 43.9414 65.7589C43.3445 65.9055 42.7444 65.9068 42.178 65.7808C42.9368 66.2057 43.8548 66.3535 44.7629 66.1305C46.6759 65.6608 47.8408 63.7304 47.3723 61.8225C47.212 61.1695 46.8831 60.6012 46.4391 60.1585L46.4429 60.1521Z" fill="black"/>
<path opacity="0.6" d="M41.5418 64.0709C41.6545 64.0432 41.7234 63.9294 41.6958 63.8167C41.6681 63.704 41.5543 63.6351 41.4416 63.6628C41.3289 63.6905 41.26 63.8043 41.2877 63.9169C41.3153 64.0296 41.4291 64.0986 41.5418 64.0709Z" fill="white"/>
</svg>
