<svg width="14" height="18" viewBox="0 0 14 18" fill="none" xmlns="http://www.w3.org/2000/svg">
<path d="M1.61338 13.1162V6.27311C1.61338 3.8791 3.36208 1.87703 5.72491 1.33679C5.65204 0.701215 6.13086 0.10801 6.79703 0.012673C7.5881 -0.0932567 8.27509 0.478763 8.27509 1.20968C8.27509 1.26264 8.27509 1.30501 8.27509 1.34739C9.25353 1.56984 10.1279 2.04652 10.8149 2.69269C11.7933 3.61428 12.3866 4.88544 12.3866 6.28371V13.1268L13.3859 13.7412C13.7502 13.953 14 14.239 14 14.6204C14 15.15 13.542 15.5843 12.9799 15.5843H1.02007C0.457993 15.5843 0 15.15 0 14.6204C0 14.239 0.249814 13.9848 0.614126 13.7412L1.61338 13.1268V13.1162Z" fill="#001738"/>
<path d="M1.61338 13.1162V6.27311C1.61338 3.8791 3.36208 1.87703 5.72491 1.33679C5.65204 0.701215 6.13086 0.10801 6.79703 0.012673C7.5881 -0.0932567 8.27509 0.478763 8.27509 1.20968C8.27509 1.26264 8.27509 1.30501 8.27509 1.34739C9.25353 1.56984 10.1279 2.04652 10.8149 2.69269C11.7933 3.61428 12.3866 4.88544 12.3866 6.28371V13.1268L13.3859 13.7412C13.7502 13.953 14 14.239 14 14.6204C14 15.15 13.542 15.5843 12.9799 15.5843H1.02007C0.457993 15.5843 0 15.15 0 14.6204C0 14.239 0.249814 13.9848 0.614126 13.7412L1.61338 13.1268V13.1162Z" fill="white"/>
<path d="M8.85921 16.104C8.85921 17.1527 8.02649 18.0002 6.99601 18.0002C5.96553 18.0002 5.13281 17.1527 5.13281 16.104H8.86962H8.85921Z" fill="#001738"/>
<path d="M8.85921 16.104C8.85921 17.1527 8.02649 18.0002 6.99601 18.0002C5.96553 18.0002 5.13281 17.1527 5.13281 16.104H8.86962H8.85921Z" fill="white"/>
</svg>
