<svg width="23" height="26" viewBox="0 0 23 26" fill="none" xmlns="http://www.w3.org/2000/svg">
<path d="M7.20768 22.596C7.52215 23.2066 8.03209 23.7239 8.40606 24.2242C7.69213 24.4362 7.33516 23.7748 6.65523 24.9111C6.9442 24.979 7.09719 25.0553 7.24167 25.0383C9.13698 24.7585 10.2589 25.1147 12.1542 24.8263C12.2477 24.8094 12.3752 24.8009 12.4346 24.7415C12.5791 24.5889 12.8001 24.4023 12.7916 24.2497C12.7746 24.1055 12.5026 23.8935 12.3327 23.885C11.6867 23.8426 11.0323 23.8765 10.3864 23.885C10.3184 23.8087 10.2504 23.7239 10.1824 23.6476C11.0833 22.825 11.9672 21.9854 12.8851 21.1798C13.7095 20.4589 14.6274 20.1621 15.7833 20.2639C16.9222 20.3741 18.1036 20.2639 19.234 20.0604C21.1378 19.7212 22.7356 18.0844 22.8121 16.5495C22.8376 16.0746 22.8971 15.481 22.1577 15.4471C21.5627 15.4131 21.3417 15.7608 21.1633 16.3205C20.9763 16.9057 20.6533 17.5417 20.2029 17.9318C19.0725 18.8986 17.6446 18.9918 16.0808 19.0003C16.4972 18.4491 16.8967 18.0505 17.1432 17.5756C17.5171 16.8548 18.0101 16.346 18.707 15.888C20.7808 14.5227 21.8177 11.5546 21.0868 9.33271C20.8913 8.73061 20.6873 7.92497 19.8289 8.03522C19.0555 8.1285 19.115 8.85781 19.115 9.45992C19.115 9.49384 19.03 9.51928 18.7665 9.69737C18.4265 8.84933 18.1631 8.01826 17.7636 7.2635C17.5681 6.89885 17.1092 6.67836 16.7607 6.39851C16.5227 6.78012 16.2083 7.14478 16.0638 7.5688C15.9788 7.80625 16.1403 8.15394 16.2508 8.41683C16.8287 9.75673 17.5596 10.927 19.4124 11.0881C19.047 12.1143 18.724 13.0301 18.401 13.9375C18.3076 13.9121 18.2141 13.8782 18.1206 13.8527C18.0271 13.4033 17.9676 12.9538 17.8486 12.5128C17.4576 11.1305 16.9902 10.6896 16.1573 10.8846C15.3074 11.0797 15.0949 11.6054 15.3414 13.0641C15.5623 14.3531 15.7153 15.6251 14.5764 16.8633C14.5169 15.9728 14.5254 15.252 14.3979 14.5481C14.3385 14.2344 14.007 13.963 13.803 13.6747C13.548 13.963 13.0721 14.2683 13.0891 14.5397C13.1316 15.4471 13.3611 16.346 13.4885 17.2534C13.5225 17.4993 13.565 17.8809 13.4205 18.0081C12.5026 18.8222 11.5422 19.5855 10.3779 20.5438C10.6413 19.7212 10.8368 19.1699 11.0068 18.6102C11.6187 16.558 12.3582 14.5312 12.7746 12.445C13.0211 11.1984 12.9361 9.91786 14.194 9.12918C14.347 9.0359 14.4744 8.82389 14.5339 8.6458C15.0184 6.94973 15.6133 5.26214 15.9108 3.53214C16.0553 2.67563 15.7408 1.70886 15.4858 0.835386C15.2819 0.148477 14.6529 0.0297518 14.0155 0.301123C13.4035 0.555534 13.1826 1.02195 13.3781 1.66646C13.4715 1.98024 13.616 2.28553 13.7095 2.5993C14.279 4.65155 14.109 6.59355 12.7236 8.55252C12.4601 7.45855 12.2307 6.57659 12.0437 5.67767C11.8822 4.88052 11.3808 4.52434 10.6243 4.64307C9.85091 4.7618 9.62143 5.31302 9.79142 6.05081C9.9104 6.56811 10.0209 7.08541 10.1654 7.59424C10.6498 9.34119 11.0748 11.0797 10.4968 13.0217C8.88201 11.3002 7.63263 9.51928 7.23317 7.24654C7.09719 6.46635 6.91871 5.69464 6.74022 4.92292C6.59574 4.28689 6.39176 3.61695 5.56734 3.71871C4.68343 3.82895 4.64944 4.56675 4.71743 5.24518C4.82792 6.34762 4.9894 7.44159 5.13389 8.56948C4.9809 8.54404 4.83642 8.56948 4.73443 8.50164C3.87601 7.95889 3.0601 7.35679 2.17619 6.87341C1.75973 6.64444 1.26678 6.56811 0.75683 6.50027C0.595346 7.02605 0.484858 7.6112 0.671839 8.01825C0.935312 8.57796 1.43676 9.18007 1.98071 9.40903C3.0346 9.84153 4.18198 10.0111 5.29537 10.2995C5.55884 10.3673 5.9753 10.3673 6.06879 10.5369C6.9952 12.2924 8.52504 13.3354 10.3269 14.0902C9.68093 16.1933 9.06049 18.2286 8.44005 20.2554L7.20768 22.6554V22.596Z" fill="#438BFF"/>
<path d="M7.19942 25.1655C7.10593 25.1655 7.00394 25.14 6.89345 25.1061C6.81696 25.0891 6.74046 25.0637 6.63847 25.0383L6.46849 24.9959L6.56198 24.8432C7.05493 24.0121 7.43739 24.063 7.81985 24.1139C7.93884 24.1309 8.05783 24.1478 8.19382 24.1309C8.11732 24.0376 8.04083 23.9443 7.96434 23.851C7.65837 23.4779 7.3354 23.0963 7.11442 22.6553L7.08043 22.5959L8.3383 20.1366L10.1826 14.0986C8.12582 13.2082 6.78296 12.0718 5.96704 10.5284C5.93304 10.469 5.69507 10.4266 5.55058 10.4096C5.45709 10.3927 5.3551 10.3757 5.27861 10.3588C4.94714 10.274 4.61568 10.1976 4.27571 10.1213C3.49379 9.94322 2.68637 9.76513 1.94695 9.45984C1.31801 9.20543 0.816562 8.51852 0.570087 8.0097C0.400104 7.65352 0.425601 7.12774 0.646579 6.39843L0.680576 6.29666L0.791065 6.31362C1.30951 6.38147 1.81946 6.46627 2.25292 6.70372C2.83086 7.02597 3.3918 7.39911 3.93575 7.76377C4.22472 7.95881 4.51369 8.15386 4.81116 8.34043C4.84515 8.36587 4.92165 8.36587 4.99814 8.37435C4.96414 8.08602 4.92165 7.80617 4.88765 7.52632C4.77716 6.72916 4.67517 5.97441 4.59868 5.20269C4.55618 4.74476 4.44569 3.67623 5.55908 3.53206C6.54498 3.41334 6.75746 4.2953 6.87645 4.82956C7.03793 5.54191 7.22491 6.35603 7.3694 7.16166C7.70087 9.06126 8.62727 10.7319 10.4461 12.6993C10.905 10.9354 10.5396 9.32415 10.0551 7.56872C9.95314 7.19558 9.86815 6.81396 9.78316 6.44931L9.68966 6.02529C9.58768 5.57583 9.62167 5.19421 9.80865 4.92284C9.97863 4.67691 10.2506 4.52427 10.6246 4.4649C11.4575 4.3377 12.0099 4.73628 12.1884 5.60127C12.3074 6.20338 12.4604 6.82244 12.6219 7.46695C12.6814 7.69592 12.7409 7.93337 12.8004 8.18778C13.9392 6.45779 14.1942 4.66843 13.6078 2.58226C13.5653 2.42114 13.4973 2.25153 13.4378 2.09888C13.3783 1.95472 13.3273 1.80207 13.2763 1.6579C13.0638 0.962513 13.3188 0.41977 13.9902 0.139918C14.4067 -0.0296893 14.7976 -0.0466501 15.1036 0.0975161C15.3586 0.216241 15.5371 0.445211 15.6306 0.758985L15.6901 0.954033C15.928 1.76815 16.2085 2.70099 16.064 3.5151C15.843 4.80412 15.4521 6.08465 15.0781 7.32279C14.9421 7.76377 14.8146 8.19626 14.6872 8.63724C14.6362 8.81533 14.5002 9.06126 14.2962 9.19695C13.3358 9.79905 13.1998 10.7234 13.0553 11.6987C13.0213 11.9446 12.9873 12.182 12.9363 12.428C12.6389 13.929 12.1629 15.4131 11.7125 16.8547C11.5255 17.4399 11.3385 18.025 11.1685 18.6102C11.058 18.9833 10.939 19.3479 10.7946 19.7889C10.7606 19.8992 10.7181 20.0094 10.6841 20.1281C10.854 19.9925 11.0155 19.8568 11.177 19.7211C11.9929 19.0596 12.6899 18.4829 13.3783 17.8724C13.4123 17.8469 13.4718 17.7282 13.4038 17.2363C13.3613 16.9226 13.3018 16.6088 13.2508 16.295C13.1488 15.7099 13.0383 15.1078 13.0128 14.5141C13.0043 14.2597 13.2508 14.0392 13.4888 13.8187C13.5823 13.7339 13.6843 13.6407 13.7608 13.5559L13.8712 13.4286L13.9647 13.5643C14.0242 13.6491 14.1007 13.7339 14.1772 13.8187C14.3557 14.0223 14.5342 14.2343 14.5852 14.4887C14.6787 14.9806 14.6957 15.4724 14.7297 16.0491C14.7297 16.1932 14.7467 16.3459 14.7552 16.4985C15.5966 15.43 15.5031 14.336 15.2821 13.047C15.0271 11.5206 15.2566 10.9354 16.1915 10.7234C17.2539 10.4775 17.6874 11.2407 18.0358 12.4449C18.1208 12.7502 18.1803 13.0725 18.2313 13.3778C18.2483 13.488 18.2738 13.6067 18.2908 13.717L18.3843 13.7424L19.3022 11.1644C17.4239 10.9354 16.71 9.63793 16.2 8.43371C16.064 8.11994 15.911 7.76377 16.0045 7.49239C16.115 7.17862 16.302 6.89877 16.489 6.6274C16.5655 6.51715 16.642 6.40691 16.71 6.29666L16.7864 6.16946L16.8969 6.26274C16.9989 6.34754 17.1179 6.43235 17.2284 6.50867C17.5004 6.69524 17.7723 6.89029 17.9253 7.17014C18.2143 7.71288 18.4268 8.27259 18.6478 8.87469C18.7243 9.06974 18.8007 9.27327 18.8772 9.4768C18.9197 9.45136 18.9622 9.42592 18.9877 9.40896C19.0047 9.40048 19.0217 9.392 19.0302 9.38352V9.33263C19.0302 8.76445 19.0132 7.99274 19.8546 7.89097C20.7725 7.78073 21.019 8.58636 21.2145 9.17151L21.2485 9.28175C22.0134 11.5884 20.917 14.5989 18.8177 15.9897C18.1208 16.4477 17.6449 16.9565 17.2964 17.6349C17.1179 17.9656 16.8884 18.254 16.6165 18.5847C16.54 18.678 16.4635 18.7713 16.387 18.8646C17.7808 18.8476 19.1152 18.7204 20.1606 17.83C20.6706 17.3975 20.9595 16.6681 21.087 16.2781C21.24 15.7947 21.4695 15.2774 22.2089 15.3198C22.4724 15.3367 22.6763 15.4131 22.8038 15.5572C23.0248 15.8032 23.0078 16.1763 22.9908 16.507V16.5579C22.9058 18.1861 21.2145 19.8483 19.3022 20.1875C17.9933 20.4249 16.8544 20.4928 15.8175 20.391C14.7127 20.2893 13.8202 20.5691 13.0213 21.273C12.3839 21.8327 11.755 22.4178 11.143 22.986C10.905 23.2065 10.6586 23.4355 10.4121 23.656L10.4971 23.7577C10.6501 23.7577 10.8116 23.7577 10.9645 23.7577C11.432 23.7577 11.9164 23.7408 12.3924 23.7747C12.6134 23.7917 12.9533 24.0376 12.9703 24.2581C12.9873 24.4446 12.8088 24.6227 12.6559 24.7754L12.5879 24.8432C12.5029 24.928 12.3754 24.945 12.2734 24.9619H12.2394C11.2705 25.1146 10.4886 25.0976 9.74066 25.0807C9.00973 25.0637 8.25331 25.0467 7.3269 25.1824C7.30141 25.1824 7.28441 25.1824 7.25891 25.1824L7.19942 25.1655ZM6.86795 24.8263C6.86795 24.8263 6.93594 24.8432 6.96144 24.8517C7.08043 24.8856 7.17392 24.9111 7.23341 24.9026C8.18532 24.7584 8.95024 24.7839 9.68966 24.8008C10.4376 24.8178 11.2025 24.8347 12.1459 24.6906H12.1799C12.2394 24.6736 12.3329 24.6651 12.3499 24.6397L12.4264 24.5634C12.5114 24.4786 12.6729 24.3174 12.6729 24.2496C12.6644 24.1818 12.4519 24.0037 12.3329 23.9952C11.8654 23.9697 11.3895 23.9782 10.9305 23.9782C10.7521 23.9782 10.5736 23.9782 10.3951 23.9782H10.3356L10.0126 23.6051L10.1061 23.5203C10.3781 23.2659 10.6501 23.0199 10.922 22.7655C11.534 22.1973 12.1714 21.6122 12.8088 21.0525C13.6673 20.2977 14.6192 20.0009 15.8005 20.1112C16.8119 20.2045 17.9253 20.1366 19.2172 19.9076C21.019 19.5854 22.6169 18.0335 22.6933 16.5155V16.4646C22.7103 16.1848 22.7273 15.871 22.5744 15.7014C22.4894 15.6081 22.3534 15.5572 22.1579 15.5487C21.6395 15.5233 21.461 15.7947 21.291 16.3289C21.155 16.7445 20.849 17.5247 20.2881 17.9996C19.1067 19.0087 17.6194 19.0935 16.081 19.102H15.8175L15.979 18.8985C16.115 18.7204 16.251 18.5593 16.3785 18.3981C16.642 18.0759 16.8714 17.796 17.0329 17.4907C17.4069 16.7784 17.8998 16.2441 18.6393 15.7523C20.6536 14.4209 21.6989 11.546 20.968 9.34111L20.934 9.23087C20.7045 8.53548 20.5091 8.04362 19.8546 8.12842C19.2852 8.19626 19.2427 8.64572 19.2512 9.31567V9.42592C19.2512 9.5192 19.1917 9.55312 19.0897 9.62097C19.0387 9.65489 18.9622 9.69729 18.8517 9.77361L18.7158 9.8669L18.6563 9.71425C18.5543 9.45984 18.4608 9.20543 18.3673 8.9595C18.1463 8.36587 17.9338 7.81465 17.6619 7.28887C17.5429 7.06838 17.3049 6.89877 17.0414 6.72068C16.9649 6.66132 16.8799 6.61044 16.8034 6.55107C16.7524 6.6274 16.7015 6.69524 16.6505 6.77156C16.4635 7.04293 16.2935 7.28887 16.2 7.56872C16.1405 7.7468 16.2765 8.06906 16.37 8.29803C16.8884 9.49376 17.5769 10.7573 19.4382 10.9185L19.6082 10.9354L18.4948 14.0562L18.0188 13.9035L18.0018 13.8272C17.9763 13.6915 17.9508 13.5474 17.9253 13.4032C17.8743 13.1064 17.8148 12.7926 17.7299 12.4958C17.3134 11.0117 16.8459 10.8082 16.1915 10.9524C15.5031 11.1135 15.2141 11.4527 15.4776 12.9792C15.6731 14.124 15.911 15.5572 14.6872 16.8886L14.4832 17.1091L14.4662 16.8123C14.4492 16.5409 14.4322 16.2865 14.4237 16.0406C14.3982 15.4809 14.3727 14.9975 14.2877 14.5141C14.2537 14.3276 14.1007 14.158 13.9392 13.9714C13.8967 13.9205 13.8542 13.8696 13.8117 13.8187C13.7523 13.8781 13.6928 13.9375 13.6248 13.9884C13.4378 14.158 13.2253 14.353 13.2338 14.4802C13.2593 15.0654 13.3698 15.659 13.4718 16.2272C13.5313 16.5409 13.5823 16.8632 13.6333 17.177C13.6843 17.5162 13.7098 17.8808 13.5228 18.042C12.8343 18.6526 12.1289 19.2292 11.313 19.8992C11.041 20.1197 10.7691 20.3401 10.4801 20.5861L10.1401 20.8659L10.2761 20.4504C10.3696 20.1705 10.4546 19.9161 10.5311 19.6872C10.6756 19.2462 10.7946 18.8815 10.905 18.5169C11.0835 17.9317 11.2705 17.3381 11.449 16.753C11.8994 15.3198 12.3669 13.8442 12.6644 12.3601C12.7154 12.1227 12.7494 11.8767 12.7834 11.6393C12.9278 10.6471 13.0808 9.62945 14.1432 8.9595C14.2622 8.88317 14.3727 8.71357 14.4237 8.55244C14.5512 8.11146 14.6872 7.67048 14.8146 7.2295C15.1886 5.99985 15.5711 4.7278 15.792 3.44726C15.9195 2.68403 15.6731 1.82751 15.4266 0.996435L15.3671 0.801386C15.2991 0.555456 15.1631 0.385848 14.9761 0.301045C14.7467 0.1908 14.4237 0.207761 14.0667 0.351927C13.5143 0.580897 13.3273 0.987954 13.4973 1.55614C13.5398 1.7003 13.5993 1.84447 13.6503 1.98016C13.7098 2.14128 13.7778 2.31937 13.8287 2.48898C14.4577 4.75324 14.1432 6.68676 12.8173 8.55244L12.6559 8.78989L12.5879 8.51004C12.5029 8.15386 12.4264 7.82313 12.3414 7.50935C12.1799 6.85637 12.0354 6.2373 11.9079 5.63519C11.755 4.90588 11.3215 4.59211 10.6331 4.70235C10.3356 4.75324 10.1146 4.86348 9.98713 5.05005C9.84265 5.26206 9.81715 5.57583 9.91064 5.94897L10.0041 6.37299C10.0891 6.73764 10.1741 7.11926 10.2761 7.48391C10.7946 9.35807 11.177 11.0626 10.6076 12.9792L10.5396 13.1912L10.3866 13.0301C9.00123 11.5545 7.53088 9.71425 7.08893 7.1871C6.95294 6.38995 6.76596 5.58431 6.59598 4.87196C6.44299 4.21897 6.25601 3.68471 5.55908 3.76951C4.84515 3.8628 4.75166 4.38858 4.81966 5.16029C4.89615 5.93201 4.99814 6.67828 5.10863 7.47543C5.15112 7.80617 5.20212 8.14538 5.24461 8.4846L5.27011 8.6542L5.10013 8.62876C5.05763 8.62876 5.00664 8.62028 4.96414 8.62028C4.85365 8.62028 4.74316 8.60332 4.64967 8.54396C4.3522 8.35739 4.06323 8.16234 3.76576 7.96729C3.23032 7.61112 2.66937 7.23798 2.09993 6.91573C1.73447 6.7122 1.29251 6.63588 0.842059 6.56803C0.672077 7.17014 0.646579 7.60264 0.782565 7.88249C1.02054 8.39131 1.49649 8.99342 2.02344 9.20543C2.74587 9.50224 3.54479 9.68033 4.30971 9.84994C4.64967 9.92626 4.98114 10.0026 5.32111 10.0874C5.3976 10.1043 5.48259 10.1213 5.56758 10.1298C5.82256 10.1722 6.07753 10.2061 6.17102 10.3842C6.96994 11.9022 8.30431 13.0131 10.3611 13.8866L10.4716 13.929L10.4376 14.0392L8.55078 20.2045L7.3439 22.5705C7.55638 22.9691 7.85385 23.3168 8.13432 23.6644C8.26181 23.8171 8.3893 23.9697 8.49978 24.1224L8.61027 24.2666L8.43179 24.3174C8.16832 24.3938 7.94734 24.3683 7.75186 24.3429C7.43739 24.3005 7.19942 24.2666 6.84245 24.8008L6.86795 24.8263Z" fill="black"/>
<path d="M9.8765 21.5276C8.60163 18.8054 7.19077 10.9865 7.17378 10.9102C7.04629 9.96039 5.83941 10.0198 5.22747 10.1046C4.60703 10.1978 3.38316 10.5455 3.71463 11.5293C3.72312 11.5547 3.74012 11.5801 3.74862 11.6056C5.25297 15.9136 6.56184 19.433 8.24467 21.8923C8.40615 22.1297 8.44865 22.206 8.44865 22.2145C8.78861 22.5283 9.05208 22.3926 9.35805 22.2484C9.66402 22.1043 9.8765 21.8923 9.868 21.5446C9.868 21.5446 9.868 21.5446 9.868 21.5361L9.8765 21.5276Z" fill="#22C7DD"/>
<path d="M8.88229 22.5191C8.7208 22.5191 8.55932 22.4598 8.38084 22.2986L8.34684 22.2477C8.34684 22.2477 8.27035 22.129 8.15986 21.9594C6.45153 19.4747 5.15967 15.9638 3.64682 11.6388C3.62982 11.6049 3.61282 11.5455 3.60432 11.5201C3.50233 11.2233 3.53633 10.9773 3.68081 10.7399C4.01228 10.1971 4.87919 10.0191 5.22766 9.96818C5.7631 9.89185 6.48553 9.86641 6.93599 10.2056C7.14846 10.3668 7.28445 10.5957 7.31845 10.8841C7.32695 10.9519 8.7293 18.7454 10.0042 21.4591L10.0212 21.493L10.0467 21.5524L10.0212 21.5778C10.0212 21.917 9.81719 22.1799 9.43473 22.358C9.25625 22.4428 9.07777 22.5191 8.88229 22.5191ZM5.8396 10.1802C5.62712 10.1802 5.41464 10.2056 5.26165 10.2226C5.01518 10.2565 4.17376 10.4176 3.89329 10.8756C3.7828 11.0452 3.77431 11.2487 3.8508 11.4777C3.8508 11.4946 3.88479 11.5794 3.88479 11.5794C5.38914 15.8875 6.68101 19.3559 8.36384 21.8152C8.48283 21.9933 8.54232 22.0781 8.55932 22.1205C8.8143 22.358 9.00128 22.2732 9.29875 22.1375C9.61321 21.9933 9.7492 21.8237 9.7662 21.5863V21.5439C8.48283 18.7878 7.08047 10.9858 7.07197 10.918C7.04647 10.6975 6.95298 10.5364 6.7915 10.4092C6.55352 10.2311 6.18806 10.1717 5.85659 10.1717L5.8396 10.1802Z" fill="black"/>
<path d="M6.57849 10.9869C6.65498 11.5805 5.99205 11.7586 5.60959 11.835C5.22713 11.9113 4.5302 11.9961 4.32622 11.394C4.11374 10.758 4.91266 10.529 5.31212 10.4696C5.71158 10.4103 6.4935 10.3763 6.57849 10.9954V10.9869Z" fill="#6BDCE8"/>
<path d="M11.4322 14.073C11.3897 13.5727 10.4973 13.437 10.0808 13.42C9.64734 13.4031 8.67844 13.4964 8.71243 14.0476V14.073C9.0184 16.88 9.0354 19.5005 8.44046 22.1633C8.38097 22.4431 8.35547 22.5195 8.35547 22.5195C8.38097 22.9944 8.68694 23.0792 9.0354 23.1894C9.38386 23.2997 9.70683 23.2827 9.95331 23.0028C9.95331 23.0028 9.95331 22.9944 9.95331 22.9859C11.2112 19.6701 11.2027 17.6348 11.4237 14.2002V14.0561L11.4322 14.073Z" fill="#22C7DD"/>
<path d="M9.52779 23.8006L9.69777 23.3426C9.50229 23.4105 9.26431 23.402 9.00084 23.3172H8.96684C8.63538 23.1985 8.26141 23.0797 8.22742 22.5285C8.22742 22.5031 8.22742 22.4946 8.24441 22.4352C8.25291 22.3843 8.27841 22.2911 8.31241 22.1299C8.84785 19.7554 8.93285 17.2876 8.58438 14.099V14.0227C8.56738 13.8531 8.63538 13.7428 8.73737 13.6411C9.10283 13.2679 9.98674 13.2849 10.0802 13.2934C10.2247 13.2934 11.4996 13.3612 11.5591 14.0651C11.5676 14.1329 11.5166 14.9895 11.4996 15.3541C11.3381 18.0763 11.2191 20.0607 10.1227 22.9695L10.1482 22.9864L10.0717 23.0967C10.0717 23.0967 10.0547 23.1136 10.0462 23.1221L9.53628 23.7921L9.52779 23.8006ZM8.83936 14.0651C9.18782 17.2876 9.10283 19.7978 8.56738 22.1978C8.53339 22.3589 8.50789 22.4522 8.49939 22.5031V22.5455C8.51639 22.8932 8.72887 22.961 9.04333 23.0628H9.07733C9.4003 23.1815 9.64677 23.1391 9.83375 22.961V22.944L9.85075 22.9271C10.9556 20.0183 11.0661 18.1526 11.2361 15.3372C11.2616 14.981 11.2701 14.6502 11.2956 14.2601C11.2956 14.2517 11.2956 14.0821 11.2956 14.0821C11.2701 13.7174 10.5477 13.5648 10.0717 13.5478C9.66377 13.5308 9.12833 13.6156 8.92435 13.8192C8.86485 13.887 8.83086 13.9549 8.83936 14.0397V14.0566V14.0651Z" fill="black"/>
<path d="M10.9901 14.2005C10.9561 14.5737 10.3697 14.5991 10.0807 14.5906C9.79175 14.5737 9.20531 14.5058 9.17981 14.1327C9.15431 13.7596 9.80025 13.7002 10.0892 13.7172C10.3782 13.7341 11.0241 13.8274 10.9901 14.2005Z" fill="#6BDCE8"/>
<path d="M9.87743 22.2736C9.87743 22.2736 9.86893 22.2736 9.86893 22.2651C7.68465 19.3733 5.2199 16.9988 2.50868 14.6243C2.48318 14.5988 2.41518 14.5395 2.38119 14.5225C1.75225 14.1663 1.08082 14.9126 0.749353 15.3282C0.417887 15.7352 -0.185552 16.7274 0.366892 17.1006C0.366892 17.1006 0.366892 17.1006 0.375391 17.1006C2.61916 18.3387 6.86023 22.0446 8.05861 23.2912C8.1861 23.4184 8.35608 23.5965 8.36458 23.605C8.76404 23.8764 9.1635 23.588 9.45247 23.3336C9.74144 23.0792 10.0559 22.6637 9.86893 22.2736H9.87743Z" fill="#22C7DD"/>
<path d="M8.70385 23.8427C8.56786 23.8427 8.43188 23.8088 8.29589 23.7155C8.27889 23.707 8.27889 23.707 8.2279 23.6476C8.1684 23.5883 8.06641 23.4695 7.97292 23.3847C6.78305 22.1466 2.55897 18.4492 0.315199 17.211L0.272703 17.1856C0.272703 17.1856 0.255705 17.1771 0.247206 17.1686H0.230208C0.11122 17.0584 0.0347275 16.9227 0.00923009 16.7616C-0.0842604 16.151 0.561674 15.3284 0.629667 15.2351C1.3096 14.3871 1.91304 14.1072 2.42299 14.404C2.46548 14.421 2.55897 14.5058 2.60997 14.5482C4.92173 16.575 7.60746 19.0682 9.95322 22.172L9.98722 22.2229C10.2422 22.7657 9.70675 23.283 9.53677 23.4271C9.37528 23.5628 9.06081 23.8342 8.70385 23.8342V23.8427ZM0.451185 16.9905C2.72896 18.2626 6.96153 21.9685 8.15141 23.1982C8.2364 23.283 8.34689 23.4017 8.40638 23.4611L8.44888 23.5035C8.73785 23.6985 9.06081 23.4865 9.36678 23.2321C9.46027 23.1473 9.91923 22.7317 9.76624 22.3586L9.73225 22.3417V22.3077C7.40348 19.2294 4.72625 16.7446 2.41449 14.7178C2.37199 14.6924 2.3295 14.6415 2.304 14.633C1.91304 14.4125 1.42009 14.6669 0.842146 15.4047C0.527678 15.7948 0.221709 16.3715 0.272703 16.7276C0.289702 16.8379 0.340697 16.9142 0.425688 16.9821L0.451185 16.999V16.9905Z" fill="black"/>
<path d="M2.26089 14.9297C2.64335 15.2774 2.20139 15.9219 1.94642 16.2272C1.69994 16.5325 1.1475 17.1091 0.722541 16.8293C0.297584 16.5494 0.756537 15.8116 1.00301 15.5063C1.24949 15.201 1.87842 14.582 2.26089 14.9297Z" fill="#6BDCE8"/>
<path d="M13.9485 22.1041L13.3451 21.1543C13.0986 20.8999 12.7926 20.7388 12.4526 20.6879C12.4526 20.6879 10.7358 20.5607 9.60544 21.078C8.48355 21.5953 7.85461 23.5797 7.85461 23.5797L10.6763 24.9366L15.4019 25.0298C15.4019 25.0298 15.6823 24.3005 15.4358 23.5458C15.1894 22.791 14.161 22.3161 13.9485 22.1041Z" fill="#25497C"/>
<path d="M15.4869 25.1571L10.6169 25.0553L7.69324 23.6476L7.72723 23.5374C7.75273 23.4526 8.38167 21.4936 9.54605 20.9593C10.6849 20.4335 12.3763 20.5523 12.4528 20.5608C12.8267 20.6201 13.1667 20.7897 13.4302 21.0611L14.0421 22.0194C14.0931 22.0703 14.1951 22.1381 14.3226 22.2229C14.7305 22.4943 15.3595 22.9098 15.5464 23.5119C15.8014 24.3006 15.5209 25.0469 15.5124 25.0808L15.4784 25.1656L15.4869 25.1571ZM10.7104 24.8094L15.3085 24.8942C15.368 24.6907 15.4954 24.1395 15.3085 23.5798C15.147 23.0709 14.569 22.6808 14.1866 22.4264C14.0336 22.3247 13.9231 22.2483 13.8551 22.1805L13.8381 22.1635L13.2347 21.2137C13.0222 21.0017 12.7417 20.8576 12.4273 20.8067C12.4273 20.8067 10.7359 20.688 9.65654 21.1883C8.73863 21.6123 8.16069 23.0964 8.00771 23.5034L10.7019 24.8009L10.7104 24.8094Z" fill="black"/>
<path d="M6.57838 22.9353L7.64078 22.4774C7.81076 22.3417 8.67767 22.1551 8.84765 22.2145L9.99504 22.6724C10.2415 22.7657 11.1169 24.4533 11.1764 24.8943L10.233 25.4285H6.95235L6.19592 25.0808L6.23842 23.5459C6.31491 23.2745 6.4339 23.054 6.58688 22.9353H6.57838Z" fill="#3C5C82"/>
<path d="M10.2514 25.5556L6.88577 25.5302L6.05286 25.1571L6.09535 23.5288C6.18034 23.1981 6.32483 22.9606 6.49481 22.825L6.52031 22.808L7.5657 22.3585C7.78668 22.2059 8.65359 22.0108 8.88307 22.0872L10.0305 22.5451C10.3534 22.6638 11.2288 24.4193 11.2883 24.8687V24.9535L10.2429 25.5472L10.2514 25.5556ZM6.97076 25.2927H10.1834L11.0164 24.8348C10.8804 24.309 10.1154 22.8928 9.93696 22.7995L8.78958 22.3416C8.67909 22.3077 7.86317 22.4688 7.71019 22.5875L7.68469 22.6045L6.6393 23.0539C6.52031 23.1557 6.40982 23.3423 6.35033 23.5797L6.31633 25.0044L6.97076 25.2927Z" fill="black"/>
</svg>
