<svg width="27" height="31" viewBox="0 0 27 31" fill="none" xmlns="http://www.w3.org/2000/svg">
<path d="M8.46159 26.645C8.83074 27.365 9.42938 27.975 9.86838 28.565C9.03029 28.815 8.61124 28.035 7.81306 29.375C8.15229 29.455 8.33188 29.545 8.50149 29.525C10.7264 29.195 12.0434 29.615 14.2683 29.275C14.3781 29.255 14.5278 29.245 14.5976 29.175C14.7672 28.995 15.0266 28.775 15.0166 28.595C14.9967 28.425 14.6774 28.175 14.4779 28.165C13.7196 28.115 12.9513 28.155 12.1931 28.165C12.1133 28.075 12.0334 27.975 11.9536 27.885C13.0112 26.915 14.0488 25.925 15.1264 24.975C16.0942 24.125 17.1717 23.775 18.5286 23.895C19.8656 24.025 21.2524 23.895 22.5794 23.655C24.8143 23.255 26.69 21.325 26.7798 19.515C26.8097 18.955 26.8796 18.255 26.0116 18.215C25.3132 18.175 25.0538 18.585 24.8442 19.245C24.6247 19.935 24.2456 20.685 23.7168 21.145C22.3898 22.285 20.7136 22.395 18.8778 22.405C19.3667 21.755 19.8357 21.285 20.125 20.725C20.564 19.875 21.1427 19.275 21.9608 18.735C24.3953 17.125 25.6125 13.625 24.7544 11.005C24.525 10.295 24.2855 9.34498 23.2778 9.47498C22.3699 9.58498 22.4397 10.445 22.4397 11.155C22.4397 11.195 22.3399 11.225 22.0306 11.435C21.6316 10.435 21.3223 9.45498 20.8533 8.56498C20.6239 8.13498 20.0851 7.87498 19.676 7.54498C19.3967 7.99498 19.0275 8.42498 18.8579 8.92498C18.7581 9.20498 18.9477 9.61498 19.0774 9.92498C19.7558 11.505 20.6139 12.885 22.7889 13.075C22.3599 14.285 21.9808 15.365 21.6016 16.435C21.4919 16.405 21.3821 16.365 21.2724 16.335C21.1626 15.805 21.0928 15.275 20.9531 14.755C20.4942 13.125 19.9454 12.605 18.9676 12.835C17.9699 13.065 17.7205 13.685 18.0098 15.405C18.2692 16.925 18.4488 18.425 17.1119 19.885C17.042 18.835 17.052 17.985 16.9023 17.155C16.8325 16.785 16.4434 16.465 16.2039 16.125C15.9046 16.465 15.3459 16.825 15.3658 17.145C15.4157 18.215 15.6851 19.275 15.8348 20.345C15.8747 20.635 15.9246 21.085 15.755 21.235C14.6774 22.195 13.55 23.095 12.1831 24.225C12.4924 23.255 12.7219 22.605 12.9214 21.945C13.6398 19.525 14.5078 17.135 14.9967 14.675C15.286 13.205 15.1863 11.695 16.6629 10.765C16.8425 10.655 16.9921 10.405 17.062 10.195C17.6307 8.19498 18.3291 6.20498 18.6783 4.16498C18.8479 3.15498 18.4787 2.01498 18.1794 0.984984C17.94 0.174984 17.2017 0.0349839 16.4534 0.354984C15.735 0.654984 15.4756 1.20498 15.7051 1.96498C15.8148 2.33498 15.9844 2.69498 16.0942 3.06498C16.7627 5.48498 16.5631 7.77498 14.9368 10.085C14.6275 8.79498 14.3581 7.75498 14.1386 6.69498C13.9491 5.75498 13.3604 5.33498 12.4724 5.47498C11.5645 5.61498 11.2951 6.26498 11.4947 7.13498C11.6344 7.74498 11.7641 8.35498 11.9337 8.95498C12.5024 11.015 13.0012 13.065 12.3228 15.355C10.4271 13.325 8.96045 11.225 8.49152 8.54498C8.33188 7.62498 8.12236 6.71498 7.91284 5.80498C7.74322 5.05498 7.50377 4.26498 6.53597 4.38498C5.49834 4.51498 5.45843 5.38498 5.53825 6.18498C5.66795 7.48498 5.85752 8.77498 6.02714 10.105C5.84755 10.075 5.67793 10.105 5.5582 10.025C4.5505 9.38498 3.59269 8.67498 2.55505 8.10498C2.06617 7.83498 1.48749 7.74498 0.888851 7.66498C0.699283 8.28498 0.569579 8.97498 0.789078 9.45498C1.09837 10.115 1.68703 10.825 2.32557 11.095C3.56275 11.605 4.90968 11.805 6.2167 12.145C6.526 12.225 7.01488 12.225 7.12463 12.425C8.21215 14.495 10.0081 15.725 12.1232 16.615C11.365 19.095 10.6366 21.495 9.90829 23.885L8.46159 26.715V26.645Z" fill="#438BFF"/>
<path d="M8.45161 29.675C8.34186 29.675 8.22213 29.645 8.09243 29.605C8.00263 29.585 7.91284 29.555 7.79311 29.525L7.59357 29.475L7.70332 29.295C8.282 28.315 8.73097 28.375 9.17995 28.435C9.31963 28.455 9.45931 28.475 9.61895 28.455C9.52915 28.345 9.43936 28.235 9.34956 28.125C8.99038 27.685 8.61125 27.235 8.35184 26.715L8.31193 26.645L9.78856 23.745L11.9536 16.625C9.53913 15.575 7.96272 14.235 7.00491 12.415C6.965 12.345 6.68564 12.295 6.51602 12.275C6.40627 12.255 6.28655 12.235 6.19675 12.215C5.80764 12.115 5.41852 12.025 5.01943 11.935C4.10153 11.725 3.15369 11.515 2.28567 11.155C1.54735 10.855 0.958693 10.045 0.669353 9.44499C0.469808 9.02499 0.49974 8.40499 0.759148 7.54499L0.799057 7.42499L0.928762 7.44499C1.53737 7.52499 2.13601 7.62499 2.64485 7.90499C3.3233 8.28499 3.9818 8.72499 4.62034 9.15499C4.95957 9.38499 5.2988 9.61499 5.648 9.83499C5.68791 9.86499 5.77771 9.86499 5.8675 9.87499C5.82759 9.53499 5.77771 9.20499 5.7378 8.87499C5.60809 7.93499 5.48837 7.04499 5.39857 6.13499C5.34868 5.59499 5.21898 4.33499 6.526 4.16499C7.68336 4.02499 7.93279 5.06499 8.07247 5.69499C8.26204 6.53499 8.48154 7.49499 8.65115 8.44499C9.04027 10.685 10.1278 12.655 12.2629 14.975C12.8017 12.895 12.3727 10.995 11.804 8.92499C11.6842 8.48499 11.5845 8.03499 11.4847 7.60499L11.3749 7.10499C11.2552 6.57499 11.2951 6.12499 11.5146 5.80499C11.7142 5.51499 12.0334 5.33499 12.4724 5.26499C13.4502 5.11499 14.0987 5.58499 14.3083 6.60499C14.4479 7.31499 14.6275 8.04499 14.8171 8.80499C14.8869 9.07499 14.9568 9.35499 15.0266 9.65499C16.3636 7.61499 16.6629 5.50499 15.9745 3.04499C15.9246 2.85499 15.8448 2.65499 15.7749 2.47499C15.7051 2.30499 15.6452 2.12499 15.5853 1.95499C15.3359 1.13499 15.6352 0.494991 16.4234 0.16499C16.9123 -0.0350095 17.3713 -0.0550095 17.7305 0.114991C18.0298 0.254991 18.2393 0.52499 18.349 0.894991L18.4189 1.12499C18.6982 2.08499 19.0275 3.18499 18.8579 4.14499C18.5985 5.66499 18.1395 7.17499 17.7005 8.63499C17.5409 9.15499 17.3912 9.66499 17.2416 10.185C17.1817 10.395 17.0221 10.685 16.7826 10.845C15.6552 11.555 15.4956 12.645 15.3259 13.795C15.286 14.085 15.2461 14.365 15.1863 14.655C14.8371 16.425 14.2783 18.175 13.7495 19.875C13.53 20.565 13.3105 21.255 13.111 21.945C12.9813 22.385 12.8416 22.815 12.672 23.335C12.6321 23.465 12.5822 23.595 12.5423 23.735C12.7418 23.575 12.9314 23.415 13.121 23.255C14.0788 22.475 14.8969 21.795 15.7051 21.075C15.745 21.045 15.8148 20.905 15.735 20.325C15.6851 19.955 15.6153 19.585 15.5554 19.215C15.4357 18.525 15.306 17.815 15.2761 17.115C15.2661 16.815 15.5554 16.555 15.8348 16.295C15.9445 16.195 16.0643 16.085 16.154 15.985L16.2838 15.835L16.3935 15.995C16.4633 16.095 16.5531 16.195 16.6429 16.295C16.8525 16.535 17.062 16.785 17.1218 17.085C17.2316 17.665 17.2515 18.245 17.2915 18.925C17.2915 19.095 17.3114 19.275 17.3214 19.455C18.3091 18.195 18.1994 16.905 17.94 15.385C17.6407 13.585 17.91 12.895 19.0075 12.645C20.2547 12.355 20.7635 13.255 21.1726 14.675C21.2724 15.035 21.3422 15.415 21.4021 15.775C21.422 15.905 21.452 16.045 21.4719 16.175L21.5817 16.205L22.6592 13.165C20.4542 12.895 19.6162 11.365 19.0175 9.94499C18.8579 9.57499 18.6783 9.15499 18.788 8.83499C18.9177 8.46499 19.1372 8.13499 19.3567 7.81499C19.4465 7.68499 19.5363 7.55499 19.6162 7.42499L19.7059 7.27499L19.8357 7.38499C19.9554 7.48499 20.0951 7.58499 20.2248 7.67499C20.544 7.89499 20.8633 8.12499 21.0429 8.45499C21.3821 9.09499 21.6316 9.75499 21.891 10.465C21.9808 10.695 22.0706 10.935 22.1604 11.175C22.2102 11.145 22.2601 11.115 22.2901 11.095C22.31 11.085 22.33 11.075 22.3399 11.065V11.005C22.3399 10.335 22.32 9.42499 23.3077 9.30499C24.3853 9.17499 24.6746 10.125 24.9041 10.815L24.944 10.945C25.842 13.665 24.5549 17.215 22.0905 18.855C21.2724 19.395 20.7137 19.995 20.3046 20.795C20.0951 21.185 19.8257 21.525 19.5064 21.915C19.4166 22.025 19.3268 22.135 19.237 22.245C20.8733 22.225 22.4397 22.075 23.6669 21.025C24.2656 20.515 24.6048 19.655 24.7544 19.195C24.934 18.625 25.2034 18.015 26.0714 18.065C26.3807 18.085 26.6202 18.175 26.7698 18.345C27.0293 18.635 27.0093 19.075 26.9893 19.465V19.525C26.8896 21.445 24.9041 23.405 22.6592 23.805C21.1227 24.085 19.7858 24.165 18.5685 24.045C17.2715 23.925 16.2239 24.255 15.286 25.085C14.5377 25.745 13.7994 26.435 13.0811 27.105C12.8017 27.365 12.5124 27.635 12.223 27.895L12.3228 28.015C12.5024 28.015 12.6919 28.015 12.8715 28.015C13.4203 28.015 13.989 27.995 14.5477 28.035C14.8071 28.055 15.2062 28.345 15.2262 28.605C15.2461 28.825 15.0366 29.035 14.857 29.215L14.7772 29.295C14.6774 29.395 14.5278 29.415 14.408 29.435H14.3681C13.2307 29.615 12.3128 29.595 11.4348 29.575C10.5768 29.555 9.68879 29.535 8.60127 29.695C8.57134 29.695 8.55138 29.695 8.52145 29.695L8.45161 29.675ZM8.0625 29.275C8.0625 29.275 8.14231 29.295 8.17225 29.305C8.31193 29.345 8.42168 29.375 8.49152 29.365C9.60897 29.195 10.5069 29.225 11.3749 29.245C12.2529 29.265 13.1509 29.285 14.2584 29.115H14.2983C14.3681 29.095 14.4779 29.085 14.4978 29.055L14.5876 28.965C14.6874 28.865 14.877 28.675 14.877 28.595C14.867 28.515 14.6176 28.305 14.4779 28.295C13.9291 28.265 13.3704 28.275 12.8316 28.275C12.6221 28.275 12.4126 28.275 12.2031 28.275H12.1332L11.7541 27.835L11.8638 27.735C12.1831 27.435 12.5024 27.145 12.8216 26.845C13.54 26.175 14.2883 25.485 15.0366 24.825C16.0443 23.935 17.1618 23.585 18.5486 23.715C19.7359 23.825 21.0429 23.745 22.5594 23.475C24.6746 23.095 26.5503 21.265 26.6401 19.475V19.415C26.6601 19.085 26.68 18.715 26.5005 18.515C26.4007 18.405 26.241 18.345 26.0116 18.335C25.403 18.305 25.1934 18.625 24.9939 19.255C24.8343 19.745 24.4751 20.665 23.8166 21.225C22.4297 22.415 20.6837 22.515 18.8778 22.525H18.5685L18.7581 22.285C18.9177 22.075 19.0774 21.885 19.227 21.695C19.5363 21.315 19.8057 20.985 19.9953 20.625C20.4343 19.785 21.013 19.155 21.881 18.575C24.2456 17.005 25.4728 13.615 24.6148 11.015L24.5748 10.885C24.3055 10.065 24.076 9.48499 23.3077 9.58499C22.6393 9.66499 22.5894 10.195 22.5994 10.985V11.115C22.5994 11.225 22.5295 11.265 22.4098 11.345C22.3499 11.385 22.2601 11.435 22.1304 11.525L21.9708 11.635L21.9009 11.455C21.7812 11.155 21.6715 10.855 21.5617 10.565C21.3023 9.86499 21.0529 9.21499 20.7336 8.59499C20.5939 8.33499 20.3146 8.13499 20.0053 7.92499C19.9155 7.85499 19.8157 7.79499 19.7259 7.72499C19.666 7.81499 19.6062 7.89499 19.5463 7.98499C19.3268 8.30499 19.1273 8.59499 19.0175 8.92499C18.9477 9.13499 19.1073 9.51499 19.2171 9.78499C19.8257 11.195 20.6338 12.685 22.8189 12.875L23.0184 12.895L21.7114 16.575L21.1527 16.395L21.1327 16.305C21.1028 16.145 21.0728 15.975 21.0429 15.805C20.983 15.455 20.9132 15.085 20.8134 14.735C20.3245 12.985 19.7758 12.745 19.0075 12.915C18.1994 13.105 17.8602 13.505 18.1695 15.305C18.3989 16.655 18.6783 18.345 17.2416 19.915L17.0021 20.175L16.9822 19.825C16.9622 19.505 16.9422 19.205 16.9323 18.915C16.9023 18.255 16.8724 17.685 16.7726 17.115C16.7327 16.895 16.5531 16.695 16.3636 16.475C16.3137 16.415 16.2638 16.355 16.2139 16.295C16.1441 16.365 16.0742 16.435 15.9944 16.495C15.7749 16.695 15.5255 16.925 15.5355 17.075C15.5654 17.765 15.6951 18.465 15.8148 19.135C15.8847 19.505 15.9445 19.885 16.0044 20.255C16.0643 20.655 16.0942 21.085 15.8747 21.275C15.0665 21.995 14.2384 22.675 13.2806 23.465C12.9613 23.725 12.6421 23.985 12.3028 24.275L11.9037 24.605L12.0634 24.115C12.1731 23.785 12.2729 23.485 12.3627 23.215C12.5323 22.695 12.672 22.265 12.8017 21.835C13.0112 21.145 13.2307 20.445 13.4402 19.755C13.969 18.065 14.5178 16.325 14.867 14.575C14.9268 14.295 14.9668 14.005 15.0067 13.725C15.1763 12.555 15.3559 11.355 16.603 10.565C16.7427 10.475 16.8724 10.275 16.9323 10.085C17.0819 9.56499 17.2416 9.04499 17.3912 8.52499C17.8302 7.07499 18.2792 5.57499 18.5386 4.06499C18.6883 3.16499 18.3989 2.15499 18.1096 1.17499L18.0397 0.944991C17.9599 0.654991 17.8003 0.45499 17.5808 0.35499C17.3114 0.22499 16.9323 0.24499 16.5132 0.41499C15.8647 0.684991 15.6452 1.16499 15.8448 1.83499C15.8946 2.00499 15.9645 2.17499 16.0243 2.33499C16.0942 2.52499 16.174 2.73499 16.2339 2.93499C16.9722 5.60499 16.603 7.88499 15.0466 10.085L14.857 10.365L14.7772 10.035C14.6774 9.61499 14.5876 9.22499 14.4878 8.85499C14.2983 8.08499 14.1287 7.35499 13.979 6.64499C13.7994 5.78499 13.2906 5.41499 12.4824 5.54499C12.1332 5.60499 11.8738 5.73499 11.7241 5.95499C11.5545 6.20499 11.5246 6.57499 11.6344 7.01499L11.7441 7.51499C11.8439 7.94499 11.9436 8.39499 12.0634 8.82499C12.672 11.035 13.121 13.045 12.4525 15.305L12.3727 15.555L12.1931 15.365C10.5668 13.625 8.84072 11.455 8.32191 8.47499C8.16227 7.53499 7.94277 6.58499 7.74322 5.74499C7.56363 4.97499 7.34413 4.34499 6.526 4.44499C5.68791 4.55499 5.57816 5.17499 5.65798 6.08499C5.74777 6.99499 5.8675 7.87499 5.99721 8.81499C6.04709 9.20499 6.10696 9.60499 6.15684 10.005L6.18677 10.205L5.98723 10.175C5.93734 10.175 5.87748 10.165 5.82759 10.165C5.69789 10.165 5.56818 10.145 5.45843 10.075C5.10923 9.85499 4.77 9.62499 4.4208 9.39499C3.79223 8.97499 3.13373 8.53499 2.46526 8.15499C2.03624 7.91499 1.51742 7.82499 0.988625 7.74499C0.78908 8.45499 0.759148 8.96499 0.918784 9.29499C1.19815 9.89499 1.75687 10.605 2.37546 10.855C3.22353 11.205 4.16139 11.415 5.05934 11.615C5.45843 11.705 5.84755 11.795 6.24664 11.895C6.33643 11.915 6.4362 11.935 6.53598 11.945C6.83529 11.995 7.13461 12.035 7.24436 12.245C8.18222 14.035 9.74865 15.345 12.1631 16.375L12.2929 16.425L12.2529 16.555L10.038 23.825L8.62122 26.615C8.87066 27.085 9.21986 27.495 9.54911 27.905C9.69877 28.085 9.84842 28.265 9.97813 28.445L10.1078 28.615L9.89831 28.675C9.58902 28.765 9.32961 28.735 9.10013 28.705C8.73097 28.655 8.45161 28.615 8.03257 29.245L8.0625 29.275Z" fill="black"/>
<path d="M11.5944 25.385C10.0978 22.175 8.44162 12.955 8.42166 12.865C8.272 11.745 6.85523 11.815 6.13687 11.915C5.40853 12.025 3.97181 12.435 4.36092 13.595C4.3709 13.625 4.39085 13.655 4.40083 13.685C6.1668 18.765 7.7033 22.915 9.67879 25.815C9.86836 26.095 9.91825 26.185 9.91825 26.195C10.3173 26.565 10.6266 26.405 10.9858 26.235C11.345 26.065 11.5944 25.815 11.5844 25.405C11.5844 25.405 11.5844 25.405 11.5844 25.395L11.5944 25.385Z" fill="#22C7DD"/>
<path d="M10.4271 26.555C10.2375 26.555 10.048 26.485 9.83843 26.295L9.79852 26.235C9.79852 26.235 9.70873 26.095 9.57902 25.895C7.57359 22.965 6.05705 18.825 4.2811 13.725C4.26115 13.685 4.24119 13.615 4.23122 13.585C4.11149 13.235 4.1514 12.945 4.32101 12.665C4.71012 12.025 5.7278 11.815 6.13687 11.755C6.76544 11.665 7.6135 11.635 8.1423 12.035C8.39173 12.225 8.55137 12.495 8.59127 12.835C8.60125 12.915 10.2475 22.105 11.7441 25.305L11.764 25.345L11.794 25.415L11.764 25.445C11.764 25.845 11.5246 26.155 11.0756 26.365C10.8661 26.465 10.6566 26.555 10.4271 26.555ZM6.85523 12.005C6.6058 12.005 6.35637 12.035 6.17678 12.055C5.88744 12.095 4.89969 12.285 4.57044 12.825C4.44074 13.025 4.43076 13.265 4.52056 13.535C4.52056 13.555 4.56046 13.655 4.56046 13.655C6.32644 18.735 7.84298 22.825 9.81848 25.725C9.95816 25.935 10.028 26.035 10.048 26.085C10.3473 26.365 10.5668 26.265 10.916 26.105C11.2851 25.935 11.4448 25.735 11.4647 25.455V25.405C9.95816 22.155 8.31191 12.955 8.30193 12.875C8.272 12.615 8.16225 12.425 7.97268 12.275C7.69332 12.065 7.2643 11.995 6.87519 11.995L6.85523 12.005Z" fill="black"/>
<path d="M7.72325 12.955C7.81305 13.655 7.03482 13.865 6.58585 13.955C6.13687 14.045 5.31873 14.145 5.07928 13.435C4.82985 12.685 5.76771 12.415 6.23664 12.345C6.70557 12.275 7.62348 12.235 7.72325 12.965V12.955Z" fill="#6BDCE8"/>
<path d="M13.4203 16.595C13.3704 16.005 12.3228 15.845 11.8339 15.825C11.325 15.805 10.1876 15.915 10.2275 16.565V16.595C10.5867 19.905 10.6067 22.995 9.90828 26.135C9.83843 26.465 9.8085 26.555 9.8085 26.555C9.83843 27.115 10.1976 27.215 10.6067 27.345C11.0157 27.475 11.3949 27.455 11.6842 27.125C11.6842 27.125 11.6842 27.115 11.6842 27.105C13.1609 23.195 13.1509 20.795 13.4103 16.745V16.575L13.4203 16.595Z" fill="#22C7DD"/>
<path d="M11.1854 28.065L11.3849 27.525C11.1554 27.605 10.8761 27.595 10.5668 27.495H10.5269C10.1378 27.355 9.69875 27.215 9.65884 26.565C9.65884 26.535 9.65884 26.525 9.6788 26.455C9.68878 26.395 9.71871 26.285 9.75862 26.095C10.3872 23.295 10.487 20.385 10.0779 16.625V16.535C10.0579 16.335 10.1378 16.205 10.2575 16.085C10.6865 15.645 11.7241 15.665 11.8339 15.675C12.0035 15.675 13.5001 15.755 13.5699 16.585C13.5799 16.665 13.52 17.675 13.5001 18.105C13.3105 21.315 13.1708 23.655 11.8838 27.085L11.9137 27.105L11.8239 27.235C11.8239 27.235 11.804 27.255 11.794 27.265L11.1953 28.055L11.1854 28.065ZM10.3772 16.585C10.7863 20.385 10.6865 23.345 10.0579 26.175C10.018 26.365 9.98809 26.475 9.97812 26.535V26.585C9.99807 26.995 10.2475 27.075 10.6167 27.195H10.6566C11.0357 27.335 11.325 27.285 11.5445 27.075V27.055L11.5645 27.035C12.8615 23.605 12.9912 21.405 13.1908 18.085C13.2207 17.665 13.2307 17.275 13.2606 16.815C13.2606 16.805 13.2606 16.605 13.2606 16.605C13.2307 16.175 12.3826 15.995 11.8239 15.975C11.345 15.955 10.7164 16.055 10.477 16.295C10.4071 16.375 10.3672 16.455 10.3772 16.555V16.575V16.585Z" fill="black"/>
<path d="M12.9014 16.745C12.8615 17.185 12.1731 17.215 11.8339 17.205C11.4946 17.185 10.8062 17.105 10.7763 16.665C10.7464 16.225 11.5046 16.155 11.8438 16.175C12.1831 16.195 12.9413 16.305 12.9014 16.745Z" fill="#6BDCE8"/>
<path d="M11.5944 26.265C11.5944 26.265 11.5845 26.265 11.5845 26.255C9.02031 22.845 6.12691 20.045 2.94416 17.245C2.91423 17.215 2.83441 17.145 2.79451 17.125C2.05619 16.705 1.26799 17.585 0.878873 18.075C0.48976 18.555 -0.218625 19.725 0.429897 20.165C0.429897 20.165 0.429897 20.165 0.439874 20.165C3.07387 21.625 8.05252 25.995 9.45931 27.465C9.60897 27.615 9.80851 27.825 9.81849 27.835C10.2874 28.155 10.7564 27.815 11.0956 27.515C11.4348 27.215 11.804 26.725 11.5845 26.265H11.5944Z" fill="#22C7DD"/>
<path d="M10.2176 28.115C10.0579 28.115 9.89829 28.075 9.73866 27.965C9.7187 27.955 9.7187 27.955 9.65884 27.885C9.589 27.815 9.46927 27.675 9.35952 27.575C7.96271 26.115 3.00401 21.755 0.370016 20.295L0.32013 20.265C0.32013 20.265 0.300176 20.255 0.290198 20.245H0.270244C0.130562 20.115 0.0407671 19.955 0.0108353 19.765C-0.0989144 19.045 0.659357 18.075 0.739175 17.965C1.53735 16.965 2.24574 16.635 2.84437 16.985C2.89426 17.005 3.00401 17.105 3.06387 17.155C5.77769 19.545 8.9305 22.485 11.6842 26.145L11.7241 26.205C12.0234 26.845 11.3949 27.455 11.1953 27.625C11.0058 27.785 10.6366 28.105 10.2176 28.105V28.115ZM0.529652 20.035C3.20356 21.535 8.17223 25.905 9.56904 27.355C9.66881 27.455 9.79852 27.595 9.86836 27.665L9.91825 27.715C10.2575 27.945 10.6366 27.695 10.9958 27.395C11.1055 27.295 11.6443 26.805 11.4647 26.365L11.4248 26.345V26.305C8.69104 22.675 5.54821 19.745 2.8344 17.355C2.78451 17.325 2.73462 17.265 2.70469 17.255C2.24574 16.995 1.66706 17.295 0.988606 18.165C0.619448 18.625 0.260267 19.305 0.32013 19.725C0.340085 19.855 0.399948 19.945 0.499721 20.025L0.529652 20.045V20.035Z" fill="black"/>
<path d="M2.65481 17.605C3.10379 18.015 2.58497 18.775 2.28566 19.135C1.99632 19.495 1.34779 20.175 0.848931 19.845C0.350069 19.515 0.88884 18.645 1.17818 18.285C1.46752 17.925 2.20584 17.195 2.65481 17.605Z" fill="#6BDCE8"/>
<path d="M16.3735 26.065L15.6652 24.945C15.3758 24.645 15.0166 24.455 14.6175 24.395C14.6175 24.395 12.6021 24.245 11.2752 24.855C9.95817 25.465 9.21985 27.805 9.21985 27.805L12.5323 29.405L18.0796 29.515C18.0796 29.515 18.4089 28.655 18.1196 27.765C17.8302 26.875 16.623 26.315 16.3735 26.065Z" fill="#25497C"/>
<path d="M18.1794 29.665L12.4624 29.545L9.03027 27.885L9.07018 27.755C9.10011 27.655 9.83843 25.345 11.2053 24.715C12.5423 24.095 14.5277 24.235 14.6175 24.245C15.0565 24.315 15.4556 24.515 15.7649 24.835L16.4833 25.965C16.5431 26.025 16.6629 26.105 16.8125 26.205C17.2914 26.525 18.0298 27.015 18.2493 27.725C18.5486 28.655 18.2193 29.535 18.2093 29.575L18.1694 29.675L18.1794 29.665ZM12.5722 29.255L17.9699 29.355C18.0397 29.115 18.1894 28.465 17.9699 27.805C17.7803 27.205 17.1019 26.745 16.6529 26.445C16.4733 26.325 16.3436 26.235 16.2638 26.155L16.2438 26.135L15.5354 25.015C15.286 24.765 14.9568 24.595 14.5876 24.535C14.5876 24.535 12.6021 24.395 11.335 24.985C10.2575 25.485 9.57902 27.235 9.39943 27.715L12.5622 29.245L12.5722 29.255Z" fill="black"/>
<path d="M7.72327 27.045L8.97042 26.505C9.16997 26.345 10.1876 26.125 10.3872 26.195L11.7341 26.735C12.0235 26.845 13.0511 28.835 13.121 29.355L12.0135 29.985H8.16227L7.27429 29.575L7.32418 27.765C7.41397 27.445 7.55365 27.185 7.73325 27.045H7.72327Z" fill="#3C5C82"/>
<path d="M12.0334 30.135L8.08242 30.105L7.10464 29.665L7.15453 27.745C7.2543 27.355 7.42392 27.075 7.62346 26.915L7.65339 26.895L8.8806 26.365C9.14 26.185 10.1577 25.955 10.4271 26.045L11.774 26.585C12.1531 26.725 13.1808 28.795 13.2506 29.325V29.425L12.0234 30.125L12.0334 30.135ZM8.18219 29.825H11.9536L12.9314 29.285C12.7717 28.665 11.8738 26.995 11.6642 26.885L10.3173 26.345C10.1876 26.305 9.2298 26.495 9.05021 26.635L9.02028 26.655L7.79308 27.185C7.65339 27.305 7.52369 27.525 7.45385 27.805L7.41394 29.485L8.18219 29.825Z" fill="black"/>
</svg>
