<svg width="27" height="30" viewBox="0 0 27 30" fill="none" xmlns="http://www.w3.org/2000/svg">
<path d="M8.46122 26.5255C8.83038 27.2423 9.42901 27.8495 9.86801 28.4369C9.02992 28.6858 8.61088 27.9093 7.8127 29.2433C8.15192 29.3229 8.33151 29.4125 8.50113 29.3926C10.7261 29.0641 12.0431 29.4822 14.268 29.1437C14.3777 29.1238 14.5274 29.1138 14.5972 29.0441C14.7668 28.865 15.0262 28.6459 15.0163 28.4667C14.9963 28.2975 14.677 28.0486 14.4775 28.0387C13.7192 27.9889 12.951 28.0287 12.1927 28.0387C12.1129 27.9491 12.0331 27.8495 11.9533 27.7599C13.0108 26.7943 14.0485 25.8087 15.126 24.863C16.0938 24.0168 17.1714 23.6683 18.5283 23.7878C19.8652 23.9172 21.2521 23.7878 22.579 23.5489C24.8139 23.1507 26.6897 21.2293 26.7795 19.4274C26.8094 18.8699 26.8792 18.1731 26.0112 18.1332C25.3128 18.0934 25.0534 18.5016 24.8439 19.1586C24.6244 19.8455 24.2452 20.5922 23.7164 21.0501C22.3895 22.185 20.7133 22.2945 18.8775 22.3045C19.3664 21.6574 19.8353 21.1895 20.1246 20.632C20.5636 19.7858 21.1423 19.1885 21.9604 18.6509C24.3949 17.0481 25.6121 13.5638 24.7541 10.9555C24.5246 10.2487 24.2851 9.30297 23.2774 9.43239C22.3695 9.54189 22.4393 10.398 22.4393 11.1049C22.4393 11.1447 22.3396 11.1745 22.0303 11.3836C21.6312 10.3881 21.3219 9.41247 20.853 8.52646C20.6235 8.09839 20.0847 7.83955 19.6756 7.51103C19.3963 7.95901 19.0271 8.38709 18.8575 8.88485C18.7577 9.16359 18.9473 9.57176 19.077 9.88037C19.7555 11.4533 20.6135 12.8271 22.7886 13.0163C22.3595 14.2208 21.9804 15.296 21.6013 16.3612C21.4915 16.3313 21.3818 16.2915 21.272 16.2617C21.1623 15.734 21.0924 15.2064 20.9527 14.6887C20.4938 13.066 19.945 12.5484 18.9673 12.7773C17.9695 13.0063 17.7201 13.6235 18.0094 15.3358C18.2689 16.849 18.4484 18.3423 17.1115 19.7958C17.0417 18.7505 17.0516 17.9043 16.902 17.078C16.8321 16.7096 16.443 16.3911 16.2036 16.0526C15.9042 16.3911 15.3455 16.7495 15.3655 17.068C15.4154 18.1332 15.6847 19.1885 15.8344 20.2537C15.8743 20.5424 15.9242 20.9904 15.7546 21.1397C14.677 22.0954 13.5496 22.9914 12.1827 24.1163C12.492 23.1507 12.7215 22.5036 12.921 21.8465C13.6394 19.4374 14.5074 17.0581 14.9963 14.6091C15.2857 13.1457 15.1859 11.6424 16.6625 10.7166C16.8421 10.6071 16.9918 10.3582 17.0616 10.1492C17.6303 8.15812 18.3287 6.17703 18.6779 4.14617C18.8475 3.14069 18.4784 2.0058 18.1791 0.980412C17.9396 0.17404 17.2013 0.0346673 16.453 0.353234C15.7346 0.65189 15.4752 1.19943 15.7047 1.95602C15.8145 2.32437 15.9841 2.68275 16.0938 3.0511C16.7623 5.46026 16.5627 7.74 14.9365 10.0397C14.6272 8.75543 14.3578 7.72009 14.1383 6.66484C13.9487 5.72905 13.36 5.31093 12.4721 5.4503C11.5641 5.58967 11.2948 6.23676 11.4943 7.10287C11.634 7.71013 11.7637 8.3174 11.9333 8.91471C12.502 10.9655 13.0009 13.0063 12.3224 15.286C10.4267 13.2651 8.96008 11.1745 8.49115 8.50655C8.33151 7.59067 8.12199 6.68475 7.91247 5.77882C7.74286 5.03218 7.5034 4.24572 6.53561 4.36518C5.49797 4.4946 5.45807 5.3607 5.53788 6.15712C5.66759 7.4513 5.85716 8.73552 6.02677 10.0596C5.84718 10.0297 5.67757 10.0596 5.55784 9.97992C4.55014 9.34279 3.59232 8.63597 2.55469 8.06852C2.0658 7.79973 1.48712 7.71013 0.888485 7.63049C0.698917 8.24771 0.569213 8.93462 0.788712 9.41247C1.09801 10.0695 1.68666 10.7763 2.32521 11.0451C3.56239 11.5528 4.90932 11.7519 6.21634 12.0904C6.52563 12.1701 7.01452 12.1701 7.12427 12.3692C8.21179 14.4299 10.0077 15.6544 12.1229 16.5404C11.3646 19.0093 10.6363 21.3985 9.90792 23.7778L8.46122 26.5952V26.5255Z" fill="#438BFF"/>
<path d="M8.45161 29.5421C8.34186 29.5421 8.22213 29.5122 8.09243 29.4724C8.00263 29.4525 7.91284 29.4226 7.79311 29.3927L7.59357 29.343L7.70332 29.1638C8.282 28.1882 8.73097 28.2479 9.17995 28.3076C9.31963 28.3275 9.45931 28.3475 9.61895 28.3275C9.52915 28.218 9.43936 28.1085 9.34956 27.999C8.99038 27.561 8.61125 27.113 8.35184 26.5953L8.31193 26.5256L9.78856 23.6386L11.9536 16.5505C9.53913 15.5052 7.96272 14.1712 7.00491 12.3594C6.965 12.2897 6.68564 12.2399 6.51602 12.22C6.40627 12.2001 6.28655 12.1802 6.19675 12.1603C5.80764 12.0607 5.41852 11.9711 5.01943 11.8815C4.10153 11.6725 3.15369 11.4634 2.28567 11.105C1.54735 10.8064 0.958693 10 0.669353 9.40269C0.469808 8.98457 0.49974 8.36734 0.759148 7.5112L0.799057 7.39173L0.928762 7.41164C1.53737 7.49129 2.13601 7.59084 2.64485 7.86958C3.3233 8.24788 3.9818 8.68591 4.62034 9.11399C4.95957 9.34296 5.2988 9.57192 5.648 9.79094C5.68791 9.8208 5.77771 9.8208 5.8675 9.83076C5.82759 9.49228 5.77771 9.16376 5.7378 8.83524C5.60809 7.89945 5.48837 7.01344 5.39857 6.10751C5.34868 5.56993 5.21898 4.31557 6.526 4.14634C7.68336 4.00696 7.93279 5.0423 8.07247 5.66948C8.26204 6.50572 8.48154 7.46142 8.65115 8.40717C9.04027 10.6371 10.1278 12.5983 12.2629 14.9079C12.8017 12.8372 12.3727 10.9457 11.804 8.88502C11.6842 8.44699 11.5845 7.999 11.4847 7.57093L11.3749 7.07317C11.2552 6.54554 11.2951 6.09756 11.5146 5.77899C11.7142 5.49029 12.0334 5.31109 12.4724 5.24141C13.4502 5.09208 14.0987 5.55998 14.3083 6.57541C14.4479 7.28223 14.6275 8.00896 14.8171 8.76555C14.8869 9.03434 14.9568 9.31309 15.0266 9.61175C16.3636 7.58088 16.6629 5.48033 15.9745 3.03135C15.9246 2.8422 15.8448 2.6431 15.7749 2.46391C15.7051 2.29467 15.6452 2.11547 15.5853 1.94623C15.3359 1.12991 15.6352 0.492773 16.4234 0.164251C16.9123 -0.0348527 17.3713 -0.0547631 17.7305 0.114475C18.0298 0.253848 18.2393 0.522639 18.349 0.890982L18.4189 1.11995C18.6982 2.07565 19.0275 3.17072 18.8579 4.12642C18.5985 5.63962 18.1395 7.14285 17.7005 8.59631C17.5409 9.11399 17.3912 9.6217 17.2416 10.1394C17.1817 10.3484 17.0221 10.6371 16.7826 10.7964C15.6552 11.5032 15.4956 12.5884 15.3259 13.7332C15.286 14.0219 15.2461 14.3006 15.1863 14.5894C14.8371 16.3514 14.2783 18.0936 13.7495 19.786C13.53 20.4729 13.3105 21.1598 13.111 21.8467C12.9813 22.2847 12.8416 22.7128 12.672 23.2305C12.6321 23.3599 12.5822 23.4893 12.5423 23.6287C12.7418 23.4694 12.9314 23.3101 13.121 23.1508C14.0788 22.3743 14.8969 21.6974 15.7051 20.9806C15.745 20.9507 15.8148 20.8114 15.735 20.234C15.6851 19.8656 15.6153 19.4973 15.5554 19.1289C15.4357 18.442 15.306 17.7352 15.2761 17.0383C15.2661 16.7397 15.5554 16.4808 15.8348 16.222C15.9445 16.1225 16.0643 16.0129 16.154 15.9134L16.2838 15.7641L16.3935 15.9233C16.4633 16.0229 16.5531 16.1225 16.6429 16.222C16.8525 16.4609 17.062 16.7098 17.1218 17.0085C17.2316 17.5859 17.2515 18.1633 17.2915 18.8402C17.2915 19.0095 17.3114 19.1887 17.3214 19.3679C18.3091 18.1135 18.1994 16.8293 17.94 15.3161C17.6407 13.5241 17.91 12.8372 19.0075 12.5884C20.2547 12.2997 20.7635 13.1956 21.1726 14.6093C21.2724 14.9676 21.3422 15.3459 21.4021 15.7043C21.422 15.8338 21.452 15.9731 21.4719 16.1025L21.5817 16.1324L22.6592 13.106C20.4542 12.8372 19.6162 11.3141 19.0175 9.90045C18.8579 9.5321 18.6783 9.11399 18.788 8.79542C18.9177 8.42708 19.1372 8.09855 19.3567 7.77999C19.4465 7.65057 19.5363 7.52115 19.6162 7.39173L19.7059 7.24241L19.8357 7.35191C19.9554 7.45146 20.0951 7.55102 20.2248 7.64061C20.544 7.85963 20.8633 8.0886 21.0429 8.41712C21.3821 9.05425 21.6316 9.7113 21.891 10.4181C21.9808 10.6471 22.0706 10.886 22.1604 11.1249C22.2102 11.0951 22.2601 11.0652 22.2901 11.0453C22.31 11.0353 22.33 11.0254 22.3399 11.0154V10.9557C22.3399 10.2887 22.32 9.38278 23.3077 9.26331C24.3853 9.1339 24.6746 10.0796 24.9041 10.7666L24.944 10.896C25.842 13.6038 24.5549 17.1379 22.0905 18.7705C21.2724 19.3081 20.7137 19.9054 20.3046 20.7018C20.0951 21.0901 19.8257 21.4286 19.5064 21.8168C19.4166 21.9263 19.3268 22.0358 19.237 22.1454C20.8733 22.1254 22.4397 21.9761 23.6669 20.9308C24.2656 20.4231 24.6048 19.567 24.7544 19.109C24.934 18.5416 25.2034 17.9343 26.0714 17.9841C26.3807 18.004 26.6202 18.0936 26.7698 18.2628C27.0293 18.5515 27.0093 18.9896 26.9893 19.3778V19.4375C26.8896 21.3489 24.9041 23.3002 22.6592 23.6984C21.1227 23.9771 19.7858 24.0568 18.5685 23.9373C17.2715 23.8178 16.2239 24.1464 15.286 24.9726C14.5377 25.6297 13.7994 26.3166 13.0811 26.9836C12.8017 27.2424 12.5124 27.5112 12.223 27.77L12.3228 27.8895C12.5024 27.8895 12.6919 27.8895 12.8715 27.8895C13.4203 27.8895 13.989 27.8696 14.5477 27.9094C14.8071 27.9293 15.2062 28.218 15.2262 28.4769C15.2461 28.6959 15.0366 28.9049 14.857 29.0841L14.7772 29.1638C14.6774 29.2633 14.5278 29.2832 14.408 29.3031H14.3681C13.2307 29.4823 12.3128 29.4624 11.4348 29.4425C10.5768 29.4226 9.68879 29.4027 8.60127 29.562C8.57134 29.562 8.55138 29.562 8.52145 29.562L8.45161 29.5421ZM8.0625 29.1439C8.0625 29.1439 8.14231 29.1638 8.17225 29.1737C8.31193 29.2136 8.42168 29.2434 8.49152 29.2335C9.60897 29.0642 10.5069 29.0941 11.3749 29.114C12.2529 29.1339 13.1509 29.1538 14.2584 28.9846H14.2983C14.3681 28.9647 14.4779 28.9547 14.4978 28.9249L14.5876 28.8353C14.6874 28.7357 14.877 28.5466 14.877 28.4669C14.867 28.3873 14.6176 28.1782 14.4779 28.1683C13.9291 28.1384 13.3704 28.1483 12.8316 28.1483C12.6221 28.1483 12.4126 28.1483 12.2031 28.1483H12.1332L11.7541 27.7103L11.8638 27.6108C12.1831 27.3121 12.5024 27.0234 12.8216 26.7248C13.54 26.0578 14.2883 25.3708 15.0366 24.7138C16.0443 23.8278 17.1618 23.4794 18.5486 23.6088C19.7359 23.7183 21.0429 23.6386 22.5594 23.3698C24.6746 22.9915 26.5503 21.1697 26.6401 19.3878V19.328C26.6601 18.9995 26.68 18.6312 26.5005 18.4321C26.4007 18.3226 26.241 18.2628 26.0116 18.2529C25.403 18.223 25.1934 18.5416 24.9939 19.1687C24.8343 19.6566 24.4751 20.5724 23.8166 21.1299C22.4297 22.3146 20.6837 22.4141 18.8778 22.4241H18.5685L18.7581 22.1852C18.9177 21.9761 19.0774 21.787 19.227 21.5978C19.5363 21.2195 19.8057 20.891 19.9953 20.5326C20.4343 19.6964 21.013 19.0692 21.881 18.4918C24.2456 16.9288 25.4728 13.554 24.6148 10.9657L24.5748 10.8362C24.3055 10.0199 24.076 9.44251 23.3077 9.54206C22.6393 9.6217 22.5894 10.1493 22.5994 10.9358V11.0652C22.5994 11.1747 22.5295 11.2145 22.4098 11.2942C22.3499 11.334 22.2601 11.3838 22.1304 11.4734L21.9708 11.5829L21.9009 11.4037C21.7812 11.105 21.6715 10.8064 21.5617 10.5177C21.3023 9.82081 21.0529 9.17372 20.7336 8.55649C20.5939 8.29766 20.3146 8.09855 20.0053 7.88949C19.9155 7.81981 19.8157 7.76008 19.7259 7.69039C19.666 7.77999 19.6062 7.85963 19.5463 7.94923C19.3268 8.26779 19.1273 8.55649 19.0175 8.88502C18.9477 9.09407 19.1073 9.47237 19.2171 9.74116C19.8257 11.1448 20.6338 12.6282 22.8189 12.8173L23.0184 12.8372L21.7114 16.5008L21.1527 16.3216L21.1327 16.232C21.1028 16.0727 21.0728 15.9034 21.0429 15.7342C20.983 15.3858 20.9132 15.0174 20.8134 14.669C20.3245 12.9268 19.7758 12.6879 19.0075 12.8571C18.1994 13.0463 17.8602 13.4445 18.1695 15.2364C18.3989 16.5804 18.6783 18.2628 17.2416 19.8258L17.0021 20.0846L16.9822 19.7362C16.9622 19.4176 16.9422 19.119 16.9323 18.8303C16.9023 18.1732 16.8724 17.6058 16.7726 17.0383C16.7327 16.8193 16.5531 16.6202 16.3636 16.4012C16.3137 16.3415 16.2638 16.2817 16.2139 16.222C16.1441 16.2917 16.0742 16.3614 15.9944 16.4211C15.7749 16.6202 15.5255 16.8492 15.5355 16.9985C15.5654 17.6854 15.6951 18.3823 15.8148 19.0493C15.8847 19.4176 15.9445 19.7959 16.0044 20.1643C16.0643 20.5625 16.0942 20.9905 15.8747 21.1797C15.0665 21.8965 14.2384 22.5734 13.2806 23.3599C12.9613 23.6187 12.6421 23.8776 12.3028 24.1663L11.9037 24.4948L12.0634 24.007C12.1731 23.6785 12.2729 23.3798 12.3627 23.111C12.5323 22.5933 12.672 22.1653 12.8017 21.7372C13.0112 21.0503 13.2307 20.3534 13.4402 19.6665C13.969 17.9841 14.5178 16.2519 14.867 14.5097C14.9268 14.231 14.9668 13.9423 15.0067 13.6635C15.1763 12.4988 15.3559 11.3041 16.603 10.5177C16.7427 10.4281 16.8724 10.229 16.9323 10.0398C17.0819 9.52215 17.2416 9.00448 17.3912 8.48681C17.8302 7.0433 18.2792 5.55002 18.5386 4.04678C18.6883 3.15081 18.3989 2.14534 18.1096 1.16973L18.0397 0.940758C17.9599 0.652057 17.8003 0.452953 17.5808 0.3534C17.3114 0.223983 16.9323 0.243893 16.5132 0.413132C15.8647 0.681922 15.6452 1.15977 15.8448 1.82677C15.8946 1.99601 15.9645 2.16525 16.0243 2.32453C16.0942 2.51368 16.174 2.72274 16.2339 2.92184C16.9722 5.57989 16.603 7.84967 15.0466 10.0398L14.857 10.3186L14.7772 9.99004C14.6774 9.57193 14.5876 9.18367 14.4878 8.81533C14.2983 8.04878 14.1287 7.32205 13.979 6.61523C13.7994 5.75908 13.2906 5.39074 12.4824 5.52015C12.1332 5.57989 11.8738 5.7093 11.7241 5.92832C11.5545 6.1772 11.5246 6.54554 11.6344 6.98357L11.7441 7.48133C11.8439 7.9094 11.9436 8.35739 12.0634 8.78546C12.672 10.9856 13.121 12.9866 12.4525 15.2364L12.3727 15.4853L12.1931 15.2962C10.5668 13.564 8.84072 11.4037 8.32191 8.43703C8.16227 7.50124 7.94277 6.5555 7.74322 5.71926C7.56363 4.95271 7.34413 4.32553 6.526 4.42508C5.68791 4.53459 5.57816 5.15181 5.65798 6.05774C5.74777 6.96366 5.8675 7.83972 5.99721 8.77551C6.04709 9.16376 6.10696 9.56197 6.15684 9.96018L6.18677 10.1593L5.98723 10.1294C5.93734 10.1294 5.87748 10.1195 5.82759 10.1195C5.69789 10.1195 5.56818 10.0996 5.45843 10.0299C5.10923 9.81085 4.77 9.58188 4.4208 9.35291C3.79223 8.93479 3.13373 8.49676 2.46526 8.11846C2.03624 7.87954 1.51742 7.78994 0.988625 7.7103C0.78908 8.41712 0.759148 8.92484 0.918784 9.25336C1.19815 9.85067 1.75687 10.5575 2.37546 10.8064C3.22353 11.1548 4.16139 11.3639 5.05934 11.563C5.45843 11.6526 5.84755 11.7422 6.24664 11.8417C6.33643 11.8616 6.4362 11.8815 6.53598 11.8915C6.83529 11.9413 7.13461 11.9811 7.24436 12.1901C8.18222 13.9721 9.74865 15.2763 12.1631 16.3016L12.2929 16.3514L12.2529 16.4808L10.038 23.7183L8.62122 26.4958C8.87066 26.9637 9.21986 27.3718 9.54911 27.78C9.69877 27.9592 9.84842 28.1384 9.97813 28.3176L10.1078 28.4868L9.89831 28.5466C9.58902 28.6362 9.32961 28.6063 9.10013 28.5764C8.73097 28.5266 8.45161 28.4868 8.03257 29.114L8.0625 29.1439Z" fill="black"/>
<path d="M11.5941 25.2712C10.0975 22.0756 8.44128 12.8969 8.42132 12.8073C8.27167 11.6923 6.8549 11.762 6.13653 11.8615C5.40819 11.971 3.97147 12.3792 4.36058 13.534C4.37056 13.5639 4.39052 13.5937 4.40049 13.6236C6.16647 18.6808 7.70296 22.8123 9.67846 25.6993C9.86803 25.978 9.91791 26.0676 9.91791 26.0776C10.317 26.4459 10.6263 26.2866 10.9855 26.1174C11.3447 25.9481 11.5941 25.6993 11.5841 25.2911C11.5841 25.2911 11.5841 25.2911 11.5841 25.2812L11.5941 25.2712Z" fill="#22C7DD"/>
<path d="M10.427 26.4359C10.2374 26.4359 10.0479 26.3662 9.83834 26.1771L9.79843 26.1173C9.79843 26.1173 9.70863 25.978 9.57893 25.7789C7.5735 22.862 6.05696 18.7405 4.28101 13.6634C4.26106 13.6236 4.2411 13.5539 4.23112 13.524C4.1114 13.1756 4.15131 12.8869 4.32092 12.6081C4.71003 11.971 5.72771 11.7619 6.13678 11.7022C6.76535 11.6126 7.61341 11.5827 8.14221 11.981C8.39164 12.1701 8.55127 12.4389 8.59118 12.7774C8.60116 12.857 10.2474 22.0058 11.744 25.1915L11.7639 25.2313L11.7939 25.301L11.7639 25.3309C11.7639 25.7291 11.5245 26.0377 11.0755 26.2468C10.866 26.3463 10.6565 26.4359 10.427 26.4359ZM6.85514 11.9511C6.60571 11.9511 6.35628 11.981 6.17669 12.0009C5.88735 12.0407 4.8996 12.2298 4.57035 12.7674C4.44065 12.9665 4.43067 13.2054 4.52046 13.4742C4.52046 13.4941 4.56037 13.5937 4.56037 13.5937C6.32635 18.6509 7.84289 22.7226 9.81838 25.6096C9.95807 25.8187 10.0279 25.9182 10.0479 25.968C10.3472 26.2468 10.5667 26.1472 10.9159 25.9879C11.285 25.8187 11.4447 25.6196 11.4646 25.3408V25.2911C9.95807 22.0556 8.31182 12.8968 8.30184 12.8172C8.27191 12.5584 8.16216 12.3692 7.97259 12.2199C7.69323 12.0108 7.26421 11.9411 6.8751 11.9411L6.85514 11.9511Z" fill="black"/>
<path d="M7.72255 12.8971C7.81235 13.594 7.03412 13.803 6.58514 13.8926C6.13617 13.9822 5.31803 14.0818 5.07858 13.375C4.82915 12.6283 5.76701 12.3595 6.23594 12.2898C6.70487 12.2202 7.62278 12.1803 7.72255 12.9071V12.8971Z" fill="#6BDCE8"/>
<path d="M13.4204 16.5206C13.3705 15.9332 12.3229 15.7739 11.834 15.754C11.3251 15.7341 10.1877 15.8436 10.2276 16.4907V16.5206C10.5868 19.8158 10.6068 22.8919 9.90837 26.0179C9.83853 26.3464 9.80859 26.436 9.80859 26.436C9.83853 26.9935 10.1977 27.093 10.6068 27.2224C11.0158 27.3519 11.395 27.3319 11.6843 27.0034C11.6843 27.0034 11.6843 26.9935 11.6843 26.9835C13.161 23.091 13.151 20.7018 13.4104 16.6699V16.5007L13.4204 16.5206Z" fill="#22C7DD"/>
<path d="M11.1847 27.9393L11.3843 27.4018C11.1548 27.4814 10.8754 27.4714 10.5661 27.3719H10.5262C10.1371 27.2325 9.69811 27.0932 9.6582 26.4461C9.6582 26.4162 9.6582 26.4062 9.67816 26.3366C9.68813 26.2768 9.71807 26.1673 9.75798 25.9782C10.3865 23.1907 10.4863 20.2937 10.0772 16.5506V16.461C10.0573 16.2619 10.1371 16.1325 10.2568 16.013C10.6859 15.575 11.7235 15.5949 11.8332 15.6048C12.0029 15.6048 13.4994 15.6845 13.5693 16.5108C13.5793 16.5904 13.5194 17.5959 13.4994 18.024C13.3099 21.2196 13.1702 23.5491 11.8831 26.9637L11.9131 26.9836L11.8233 27.1131C11.8233 27.1131 11.8033 27.133 11.7933 27.1429L11.1947 27.9294L11.1847 27.9393ZM10.3766 16.5108C10.7856 20.2937 10.6859 23.2405 10.0573 26.0578C10.0174 26.247 9.98745 26.3565 9.97747 26.4162V26.466C9.99743 26.8741 10.2469 26.9538 10.616 27.0732H10.6559C11.0351 27.2126 11.3244 27.1628 11.5439 26.9538V26.9339L11.5639 26.914C12.8609 23.4993 12.9906 21.3092 13.1902 18.004C13.2201 17.5859 13.2301 17.1977 13.26 16.7397C13.26 16.7298 13.26 16.5307 13.26 16.5307C13.2301 16.1026 12.382 15.9234 11.8233 15.9035C11.3444 15.8836 10.7158 15.9831 10.4763 16.2221C10.4065 16.3017 10.3666 16.3813 10.3766 16.4809V16.5008V16.5108Z" fill="black"/>
<path d="M12.9014 16.6699C12.8615 17.1079 12.1731 17.1378 11.8338 17.1278C11.4946 17.1079 10.8062 17.0283 10.7763 16.5902C10.7463 16.1522 11.5046 16.0825 11.8438 16.1024C12.183 16.1223 12.9413 16.2319 12.9014 16.6699Z" fill="#6BDCE8"/>
<path d="M11.5953 26.1473C11.5953 26.1473 11.5853 26.1473 11.5853 26.1374C9.02113 22.7427 6.12773 19.9552 2.94499 17.1677C2.91506 17.1379 2.83524 17.0682 2.79533 17.0483C2.05701 16.6302 1.26881 17.5062 0.879697 17.994C0.490584 18.4719 -0.217801 19.6366 0.43072 20.0747C0.43072 20.0747 0.430721 20.0747 0.440698 20.0747C3.07469 21.5281 8.05334 25.8786 9.46013 27.342C9.60979 27.4913 9.80934 27.7004 9.81931 27.7103C10.2882 28.0289 10.7572 27.6904 11.0964 27.3917C11.4356 27.0931 11.8048 26.6053 11.5853 26.1473H11.5953Z" fill="#22C7DD"/>
<path d="M10.2176 27.989C10.0579 27.989 9.89829 27.9491 9.73866 27.8396C9.7187 27.8297 9.7187 27.8297 9.65884 27.76C9.589 27.6903 9.46927 27.5509 9.35952 27.4514C7.96271 25.9979 3.00401 21.6574 0.370016 20.204L0.32013 20.1741C0.32013 20.1741 0.300176 20.1642 0.290198 20.1542H0.270244C0.130562 20.0248 0.0407671 19.8655 0.0108353 19.6764C-0.0989144 18.9596 0.659357 17.9939 0.739175 17.8844C1.53735 16.8889 2.24574 16.5604 2.84437 16.9088C2.89426 16.9287 3.00401 17.0283 3.06387 17.0781C5.77769 19.4573 8.9305 22.3842 11.6842 26.0278L11.7241 26.0875C12.0234 26.7247 11.3949 27.3319 11.1953 27.5012C11.0058 27.6604 10.6366 27.979 10.2176 27.979V27.989ZM0.529652 19.9452C3.20356 21.4384 8.17223 25.7889 9.56904 27.2324C9.66881 27.3319 9.79852 27.4713 9.86836 27.541L9.91825 27.5908C10.2575 27.8197 10.6366 27.5708 10.9958 27.2722C11.1055 27.1726 11.6443 26.6848 11.4647 26.2468L11.4248 26.2269V26.1871C8.69104 22.5733 5.54821 19.6565 2.8344 17.2772C2.78451 17.2473 2.73462 17.1876 2.70469 17.1776C2.24574 16.9188 1.66706 17.2174 0.988606 18.0835C0.619448 18.5415 0.260267 19.2184 0.32013 19.6365C0.340085 19.766 0.399948 19.8556 0.499721 19.9352L0.529652 19.9551V19.9452Z" fill="black"/>
<path d="M2.65405 17.526C3.10303 17.9342 2.58421 18.6908 2.28489 19.0492C1.99555 19.4075 1.34703 20.0845 0.848168 19.756C0.349306 19.4275 0.888077 18.5614 1.17742 18.203C1.46676 17.8446 2.20507 17.1178 2.65405 17.526Z" fill="#6BDCE8"/>
<path d="M16.3744 25.9485L15.666 24.8335C15.3767 24.5348 15.0175 24.3457 14.6184 24.2859C14.6184 24.2859 12.603 24.1366 11.276 24.7439C9.95902 25.3512 9.2207 27.6807 9.2207 27.6807L12.5332 29.2735L18.0805 29.383C18.0805 29.383 18.4098 28.5269 18.1204 27.6409C17.8311 26.7548 16.6238 26.1973 16.3744 25.9485Z" fill="#25497C"/>
<path d="M18.1804 29.5321L12.4634 29.4127L9.03125 27.7601L9.07116 27.6307C9.10109 27.5311 9.83941 25.2315 11.2063 24.6043C12.5432 23.9871 14.5287 24.1265 14.6185 24.1364C15.0575 24.2061 15.4566 24.4052 15.7659 24.7238L16.4843 25.8487C16.5441 25.9084 16.6638 25.9881 16.8135 26.0876C17.2924 26.4062 18.0307 26.894 18.2502 27.6008C18.5495 28.5267 18.2203 29.4027 18.2103 29.4425L18.1704 29.5421L18.1804 29.5321ZM12.5732 29.124L17.9709 29.2235C18.0407 28.9846 18.1904 28.3375 17.9709 27.6805C17.7813 27.0832 17.1028 26.6252 16.6539 26.3266C16.4743 26.2071 16.3446 26.1175 16.2648 26.0379L16.2448 26.018L15.5364 24.903C15.287 24.6541 14.9577 24.4849 14.5886 24.4251C14.5886 24.4251 12.6031 24.2857 11.336 24.8731C10.2585 25.3709 9.58 27.113 9.40041 27.5909L12.5632 29.114L12.5732 29.124Z" fill="black"/>
<path d="M7.72241 26.9239L8.96957 26.3863C9.16911 26.227 10.1868 26.008 10.3863 26.0777L11.7333 26.6153C12.0226 26.7248 13.0503 28.7058 13.1201 29.2235L12.0126 29.8507H8.16141L7.27344 29.4425L7.32332 27.6406C7.41312 27.3221 7.5528 27.0632 7.73239 26.9239H7.72241Z" fill="#3C5C82"/>
<path d="M12.0342 30.0001L8.08324 29.9702L7.10547 29.5322L7.15535 27.6208C7.25513 27.2325 7.42474 26.9538 7.62429 26.7945L7.65422 26.7746L8.88142 26.247C9.14083 26.0678 10.1585 25.8388 10.4279 25.9284L11.7748 26.466C12.154 26.6054 13.1816 28.6661 13.2515 29.1937V29.2933L12.0243 29.9901L12.0342 30.0001ZM8.18301 29.6915H11.9544L12.9322 29.1539C12.7725 28.5367 11.8746 26.8741 11.6651 26.7646L10.3181 26.2271C10.1884 26.1872 9.23062 26.3764 9.05103 26.5158L9.0211 26.5357L7.7939 27.0633C7.65422 27.1828 7.52451 27.4018 7.45467 27.6805L7.41476 29.353L8.18301 29.6915Z" fill="black"/>
</svg>
