<svg width="45" height="44" viewBox="0 0 45 44" fill="none" xmlns="http://www.w3.org/2000/svg">
<path d="M1.66586 34.3173H1.65833C1.72238 35.4854 2.21598 36.627 3.21072 37.2035C4.52949 39.8147 9.12261 41.872 12.4723 40.5909L12.5326 40.5683C15.464 43.1493 19.296 43.4998 22.495 41.4726H22.4988H22.5026C23.8854 42.3468 25.385 42.7801 26.8809 42.7801C28.844 42.7801 30.7995 42.034 32.465 40.5683L32.5253 40.5909C33.373 40.915 34.6391 40.9451 35.4869 40.8283C38.2714 40.4477 40.0875 39.6979 41.7868 37.2035C43.1207 36.4311 43.5992 35.1613 43.2187 33.8538C43.2187 33.8538 22.1747 30.7076 21.9148 30.6699C21.6548 30.6323 1.66209 34.3173 1.66209 34.3173H1.66586Z" fill="#FCACAC"/>
<path opacity="0.2" d="M22.5314 38.4676C22.7463 39.293 22.7387 40.1335 22.539 40.9589C22.5239 41.0117 22.441 41.0117 22.4297 40.9589C22.2262 40.1335 22.2111 39.293 22.4221 38.4676C22.4372 38.4149 22.5164 38.4186 22.5314 38.4676Z" fill="black"/>
<path opacity="0.2" d="M11.0625 38.0377C11.3225 38.8141 11.7409 39.4849 12.359 40.0427C12.408 40.0842 12.3552 40.1671 12.2949 40.137C11.5261 39.7563 10.8665 38.9497 10.9532 38.049C10.9569 37.9887 11.0474 37.9811 11.0625 38.0377Z" fill="black"/>
<path opacity="0.2" d="M3.04357 36.0572C3.09256 36.3662 3.46945 36.8374 3.40915 36.8788C3.12648 36.7997 2.9908 36.3436 2.94557 36.0685C2.93804 36.0082 3.02849 35.9969 3.04357 36.0572Z" fill="black"/>
<path opacity="0.2" d="M33.8442 37.9488C33.8442 38.8194 33.4183 39.724 32.623 40.1574C32.5703 40.1875 32.5137 40.1159 32.5514 40.0707C33.1394 39.4488 33.4107 38.7177 33.7273 37.9413C33.7424 37.8734 33.8442 37.8772 33.8442 37.9488Z" fill="black"/>
<path opacity="0.2" d="M42.1355 35.9999C42.1242 36.3542 42.0149 36.7198 41.6908 36.9271C41.6682 36.9421 41.638 36.9346 41.6229 36.9158C41.8415 36.569 41.9508 36.5238 42.0413 35.9848C42.0526 35.9208 42.1468 35.9396 42.1355 35.9999Z" fill="black"/>
<path d="M39.369 35.6118C36.9312 35.8831 36.0457 36.1431 33.7887 37.3375C32.4888 36.9381 29.7947 36.697 28.442 36.697C26.4224 36.697 24.3236 37.0059 22.4548 37.7671C19.3349 36.4973 14.3612 36.3428 11.1208 37.3375C7.62416 34.6321 2.75598 35.7135 2.63541 35.6608C1.92327 35.3443 1.75371 34.8431 1.70473 34.3194C1.70096 34.2704 1.69719 34.2177 1.70096 34.1687C1.70096 34.1649 1.70096 34.1611 1.70096 34.1574C1.71227 33.4678 2.19833 32.7595 2.86149 32.3676C5.82685 30.6117 11.848 28.189 22.4962 28.189C33.1444 28.189 39.1655 30.6117 42.1347 32.3676C42.3909 32.5221 42.6245 32.7218 42.8091 32.9479C42.9109 33.0722 43.0013 33.2079 43.0767 33.3473C43.0767 33.351 43.0804 33.3548 43.0842 33.3623C43.1483 33.4867 43.201 33.6148 43.2349 33.7467C43.4271 34.4437 43.3668 35.1898 42.4436 35.6306C42.2929 35.7022 40.6313 35.4799 39.3728 35.6193L39.369 35.6118Z" fill="#FFCACA"/>
<path d="M43.6219 34.5836C43.6633 34.1201 43.5352 33.6002 43.343 33.2196C43.0642 32.6657 42.5442 32.3002 42.2616 32.1344C39.0137 30.2128 32.9473 27.9181 22.4875 27.9181C12.0277 27.9181 5.96511 30.2128 2.71715 32.1344C1.94472 32.5904 1.39084 33.4005 1.43605 34.3462C1.50387 35.8572 2.11051 36.8406 3.00728 37.3945C4.40519 40.0509 8.99076 42.1459 12.4799 40.8723C14.1717 42.3192 16.1423 43.0539 18.1167 43.0539C19.6126 43.0539 21.1122 42.6319 22.4988 41.7841C23.859 42.6093 25.3737 43.0464 26.8847 43.0464C28.9118 43.0464 30.8599 42.2966 32.5253 40.8723C33.4183 41.185 34.6693 41.2114 35.5283 41.0946C38.2601 40.7216 40.1968 39.9944 41.979 37.4058C43.1057 36.7313 43.539 35.9024 43.6219 34.5874V34.5836ZM2.01631 33.8865C2.13312 33.3176 2.44209 32.9144 2.98844 32.5904C6.17988 30.7026 12.1483 28.4456 22.4875 28.4456C32.8267 28.4456 38.7989 30.6989 41.9903 32.5904C42.2164 32.726 42.4237 32.9031 42.5932 33.1141C42.6837 33.2234 42.7628 33.344 42.8344 33.4796C43.0152 33.8112 43.083 34.0975 43.0341 34.4216C42.9926 34.6816 42.7892 35.1639 42.3634 35.3711C42.288 35.3824 41.9903 35.3636 41.7228 35.3485C41.0898 35.3108 40.129 35.2581 39.3377 35.3485C36.8509 35.6273 35.9428 35.9024 33.7574 37.0554C32.4085 36.671 29.7822 36.4337 28.4371 36.4337C26.2479 36.4337 24.1831 36.7954 22.4461 37.4849C20.6902 36.7916 18.3503 36.4337 16.0406 36.4337C14.3111 36.4337 12.5967 36.6371 11.1686 37.0516C9.10003 35.503 6.30046 34.9378 2.86033 35.3749C2.78121 35.3862 2.72092 35.3937 2.67947 35.3975C2.23862 35.1827 2.07283 34.7682 1.99747 34.5271C1.92965 34.3085 1.96733 34.1088 2.01255 33.8903L2.01631 33.8865ZM41.6588 36.9725L41.5721 37.0516C39.8841 39.5309 38.1207 40.1978 35.4567 40.5633C34.6579 40.6726 33.4334 40.65 32.6233 40.341L32.4123 40.2619L32.2917 40.3674C30.6978 41.7691 28.8289 42.5113 26.8847 42.5113C25.4227 42.5113 23.957 42.0743 22.6608 41.2529L22.4988 41.17L22.3556 41.2415C19.2471 43.2046 15.5545 42.8693 12.7097 40.3636L12.5891 40.2581L12.3744 40.3372C9.14902 41.5694 4.69155 39.546 3.44436 37.078L3.41045 37.0102L3.34263 36.9687C2.88294 36.7012 2.53252 36.2716 2.28761 35.7479C2.36673 35.7969 2.42325 35.8496 2.51745 35.8948C2.59658 35.9325 2.6531 35.925 2.92815 35.8911C6.28162 35.4691 8.987 36.023 10.9501 37.5414L11.0631 37.6243L11.1912 37.5866C14.4279 36.5957 19.33 36.7803 22.3481 38.0087L22.4461 38.0501L22.544 38.0087C24.2358 37.3229 26.2743 36.9574 28.4333 36.9574C29.7785 36.9574 32.4349 37.1948 33.7009 37.5866L33.7423 37.5979L33.9044 37.5678C36.0822 36.4148 36.9526 36.1435 39.3905 35.8722C40.1478 35.7893 41.0747 35.8383 41.6889 35.8722C42.2692 35.9061 42.4274 35.9137 42.5442 35.8572C42.6573 35.8044 42.7703 35.7215 42.8796 35.6462C42.6573 36.1661 42.2503 36.6258 41.6512 36.9725H41.6588Z" fill="black"/>
<path d="M1.69693 23.6792C1.17319 23.31 0.800162 22.8654 0.634373 22.2738C0.634373 22.2738 0.634373 22.2663 0.634373 22.2625C-0.398041 18.5435 0.837842 14.5005 3.83712 12.074C4.42115 7.8539 7.63143 4.53435 11.7234 3.92771C14.2781 0.578017 18.6677 -0.635258 22.5072 0.947274C26.343 -0.639027 30.7326 0.578017 33.2835 3.93148C37.3755 4.53435 40.5896 7.84636 41.1774 12.0702C44.1691 14.4968 45.4012 18.5285 44.3801 22.2436C44.3801 22.2436 44.3801 22.2512 44.3801 22.2549C44.2143 22.8578 43.8112 23.3326 43.2874 23.6679C40.8722 25.2241 32.6091 29.3085 22.2096 29.3085C11.8101 29.3085 3.97276 25.2844 1.7007 23.6792H1.69693Z" fill="#FFCACA"/>
<path d="M22.2037 29.5721C12.2111 29.5721 4.31728 25.8569 1.54031 23.8939C0.941207 23.4718 0.568181 22.9782 0.391088 22.3867L0.364713 22.3038C-0.686541 18.4756 0.579485 14.4213 3.5863 11.9344C4.23062 7.69173 7.48611 4.33826 11.5706 3.68641C14.1742 0.351788 18.643 -0.876559 22.5051 0.660759C26.3785 -0.887863 30.836 0.351788 33.4246 3.68641C37.5241 4.33826 40.7909 7.7068 41.4239 11.9307C44.427 14.425 45.6854 18.4869 44.6342 22.3151L44.6229 22.3603C44.442 22.9745 44.0313 23.5058 43.4285 23.8901C40.3802 25.8569 32.0154 29.5721 22.2074 29.5721H22.2037ZM1.84928 23.4605C4.57727 25.3897 12.3467 29.0409 22.2037 29.0409C32.0606 29.0409 40.1353 25.3784 43.1421 23.4417C43.6432 23.1177 43.9823 22.6843 44.1218 22.1794L44.1331 22.1342C45.1203 18.4869 43.8957 14.6172 41.0057 12.2698L40.9265 12.2057L40.9115 12.104C40.3463 8.02707 37.1888 4.77158 33.24 4.19132L33.0666 4.08958C30.6062 0.849156 26.3032 -0.337744 22.6031 1.18827L22.5013 1.22972L22.3996 1.18827C18.6957 -0.341512 14.3927 0.852924 11.9285 4.08581L11.8607 4.17248L11.7552 4.18755C7.80639 4.77158 4.65639 8.02707 4.09497 12.1077V12.2698L3.95179 12.3074C1.08816 14.636 -0.132655 18.5283 0.884688 22.1907L0.895992 22.2284C1.03917 22.7107 1.34061 23.1026 1.84551 23.4605H1.84928Z" fill="black"/>
<g opacity="0.1">
<path d="M22.3225 29.3065C21.8628 20.8098 21.1092 11.8572 22.4694 3.57153C23.4416 12.0532 23.1703 20.9794 22.3225 29.3065Z" fill="black"/>
<path d="M33.1094 6.9068C33.4899 15.3131 29.1191 24.2619 22.74 29.3788C28.5313 23.237 31.1123 14.7403 33.1094 6.9068Z" fill="black"/>
<path d="M40.1894 15.2445C39.3039 19.1029 36.2519 22.0569 33.2903 24.4646C30.2872 26.7442 26.5457 29.0163 22.8945 29.5325C29.3 26.1112 36.704 21.6311 40.1894 15.2445Z" fill="black"/>
<path d="M12.0415 6.95276C13.5788 15.1254 16.7288 23.072 21.9399 29.4473C15.9036 23.803 11.1297 15.2837 12.0415 6.95276Z" fill="black"/>
<path d="M4.90692 14.871C8.61457 21.6759 15.103 26.0768 21.8476 29.532C14.6809 28.0135 6.59496 22.3315 4.90692 14.871Z" fill="black"/>
</g>
<path opacity="0.2" d="M22.417 34.4959C27.0472 34.4959 30.8007 33.5124 30.8007 32.2992C30.8007 31.086 27.0472 30.1025 22.417 30.1025C17.7869 30.1025 14.0334 31.086 14.0334 32.2992C14.0334 33.5124 17.7869 34.4959 22.417 34.4959Z" fill="black"/>
<path d="M22.502 33.4123C29.1924 33.4123 34.616 27.9887 34.616 21.2984C34.616 14.608 29.1924 9.18446 22.502 9.18446C15.8117 9.18446 10.3881 14.608 10.3881 21.2984C10.3881 27.9887 15.8117 33.4123 22.502 33.4123Z" fill="#F25AB1"/>
<path d="M22.5018 33.6768C15.6781 33.6768 10.1241 28.1228 10.1241 21.2991C10.1241 14.4754 15.6781 8.92143 22.5018 8.92143C29.3255 8.92143 34.8832 14.4754 34.8832 21.2991C34.8832 28.1228 29.3293 33.6768 22.5018 33.6768ZM22.5018 9.44894C15.9682 9.44894 10.6517 14.7655 10.6517 21.2991C10.6517 27.8327 15.9682 33.1493 22.5018 33.1493C29.0354 33.1493 34.352 27.8327 34.352 21.2991C34.352 14.7655 29.0354 9.44894 22.5018 9.44894Z" fill="black"/>
<path opacity="0.6" d="M13.3348 21.9768C12.9618 21.9768 12.6566 21.6716 12.6566 21.2986C12.6566 15.869 17.0764 11.453 22.5022 11.453C22.8753 11.453 23.1805 11.7582 23.1805 12.1312C23.1805 12.5042 22.8753 12.8094 22.5022 12.8094C17.8187 12.8094 14.0131 16.6188 14.0131 21.3023C14.0131 21.6754 13.7079 21.9806 13.3348 21.9806V21.9768Z" fill="white"/>
<path opacity="0.2" d="M32.8848 15.0462C33.1523 16.09 33.2918 17.1864 33.2918 18.313C33.2918 25.6078 27.3799 31.5196 20.0851 31.5196C17.9902 31.5196 16.012 31.0336 14.2524 30.1632C16.4152 32.1753 19.3165 33.4074 22.5042 33.4074C29.196 33.4074 34.6181 27.9853 34.6181 21.2935C34.6181 19.0063 33.9851 16.8699 32.8848 15.0425V15.0462Z" fill="black"/>
<path opacity="0.6" d="M13.5117 24.0128C13.9051 24.0128 14.224 23.6939 14.224 23.3005C14.224 22.9071 13.9051 22.5881 13.5117 22.5881C13.1183 22.5881 12.7994 22.9071 12.7994 23.3005C12.7994 23.6939 13.1183 24.0128 13.5117 24.0128Z" fill="white"/>
</svg>
