<svg width="45" height="45" viewBox="0 0 45 45" fill="none" xmlns="http://www.w3.org/2000/svg">
<path d="M22.5 45C34.9264 45 45 34.9264 45 22.5C45 10.0736 34.9264 0 22.5 0C10.0736 0 0 10.0736 0 22.5C0 34.9264 10.0736 45 22.5 45Z" fill="#32FCE3"/>
<g filter="url(#filter0_i_802_2015)">
<path d="M22.4998 41.3025C32.8841 41.3025 41.3023 32.8843 41.3023 22.5C41.3023 12.1157 32.8841 3.69751 22.4998 3.69751C12.1154 3.69751 3.69727 12.1157 3.69727 22.5C3.69727 32.8843 12.1154 41.3025 22.4998 41.3025Z" fill="#00E2CC"/>
</g>
<path d="M23.8662 14.0087C25.1139 14.0087 26.1899 14.157 27.085 14.4448C27.9801 14.7327 28.7215 15.1339 29.3002 15.6398C29.8788 16.1544 30.3038 16.7562 30.5841 17.4627C30.8644 18.1692 31 18.928 31 19.7479V20.1404C31 20.9603 30.8553 21.7366 30.566 22.4693C30.2767 23.2019 29.8336 23.8474 29.2369 24.3969C28.6401 24.9464 27.8987 25.3825 27.0127 25.7052C26.1266 26.0279 25.0778 26.1936 23.8662 26.1936H19.7071V32.4649C19.7071 33.0057 19.5262 33.3982 19.1555 33.6337C18.7939 33.8779 18.3599 34 17.8535 34C17.3472 34 16.9222 33.8779 16.5515 33.6337C16.1808 33.3894 16 33.0057 16 32.4649V16.3201C16 15.4479 16.1808 14.8461 16.5335 14.5059C16.8861 14.1657 17.528 14 18.4593 14H23.8662V14.0087ZM19.7071 23.1845H23.3779C24.5895 23.1845 25.5479 22.9577 26.2351 22.5129C26.9313 22.068 27.2749 21.2569 27.2749 20.0881V19.7828C27.2749 19.2246 27.1844 18.771 27.0127 18.4134C26.8409 18.0645 26.5967 17.7767 26.2712 17.5674C25.9548 17.358 25.575 17.201 25.132 17.1225C24.689 17.0353 24.2098 17.0004 23.6854 17.0004H19.698V23.1932L19.7071 23.1845Z" fill="white"/>
<defs>
<filter id="filter0_i_802_2015" x="3.69727" y="3.69751" width="37.605" height="37.605" filterUnits="userSpaceOnUse" color-interpolation-filters="sRGB">
<feFlood flood-opacity="0" result="BackgroundImageFix"/>
<feBlend mode="normal" in="SourceGraphic" in2="BackgroundImageFix" result="shape"/>
<feColorMatrix in="SourceAlpha" type="matrix" values="0 0 0 0 0 0 0 0 0 0 0 0 0 0 0 0 0 0 127 0" result="hardAlpha"/>
<feOffset dx="2.5" dy="2.5"/>
<feComposite in2="hardAlpha" operator="arithmetic" k2="-1" k3="1"/>
<feColorMatrix type="matrix" values="0 0 0 0 0 0 0 0 0 0 0 0 0 0 0 0 0 0 0.1 0"/>
<feBlend mode="normal" in2="shape" result="effect1_innerShadow_802_2015"/>
</filter>
</defs>
</svg>
