<svg width="32" height="24" viewBox="0 0 32 24" fill="none" xmlns="http://www.w3.org/2000/svg">
<path d="M11.5926 12.354C10.5148 11.2229 9.84808 9.6871 9.84808 7.99498C9.84808 5.26368 11.5926 2.93702 14.013 2.05417C13.1271 1.10696 11.8666 0.5 10.4692 0.5C7.77473 0.5 5.59178 2.69792 5.59178 5.41082C5.59178 7.69151 7.1445 9.58594 9.23612 10.1469C4.37699 10.8274 0.623047 15.3888 0.623047 20.925H5.19903C5.95712 17.0901 8.37755 13.9174 11.5926 12.354Z" fill="#C1C1C1"/>
<path d="M23.0098 10.1562C25.1014 9.60442 26.6542 7.70078 26.6542 5.4201C26.6542 2.70719 24.4712 0.509277 21.7768 0.509277C20.3793 0.509277 19.128 1.10704 18.2329 2.06345C20.6533 2.9371 22.3979 5.26376 22.3979 8.00426C22.3979 9.69638 21.7311 11.223 20.6533 12.3633C23.8684 13.9267 26.2888 17.0994 27.0469 20.9343H31.6229C31.6229 15.3981 27.869 10.8367 23.019 10.1654L23.0098 10.1562Z" fill="#C1C1C1"/>
<path d="M17.365 12.7311C19.4566 12.1794 21.0093 10.2757 21.0093 7.99505C21.0093 5.28214 18.8263 3.08423 16.1319 3.08423C13.4375 3.08423 11.2545 5.28214 11.2545 7.99505C11.2545 10.2757 12.8072 12.1702 14.8989 12.7311C10.0489 13.4025 6.29492 17.9638 6.29492 23.5H25.9872C25.9872 17.9638 22.2332 13.4025 17.3832 12.7311H17.365Z" fill="#C1C1C1"/>
</svg>
