<svg width="27" height="25" viewBox="0 0 27 25" fill="none" xmlns="http://www.w3.org/2000/svg">
<path d="M0.938141 19.6504C0.978141 20.3204 1.25814 20.9704 1.82814 21.3004C2.58814 22.8004 5.21814 23.9704 7.13814 23.2404H7.17814C8.85814 24.7104 11.0481 24.9004 12.8881 23.7504C13.6781 24.2504 14.5381 24.5004 15.3981 24.5004C16.5181 24.5004 17.6381 24.0704 18.5981 23.2304H18.6381C19.1281 23.4304 19.8481 23.4504 20.3381 23.3804C21.9381 23.1604 22.9781 22.7304 23.9481 21.3004C24.7081 20.8604 24.9881 20.1304 24.7681 19.3804C24.7681 19.3804 12.7181 17.5804 12.5681 17.5604C12.4181 17.5404 0.938141 19.6504 0.938141 19.6504Z" fill="#FCACAC"/>
<path opacity="0.2" d="M12.8881 22.0304C13.0081 22.5004 13.0081 22.9804 12.8881 23.4604C12.8881 23.4904 12.8281 23.4904 12.8281 23.4604C12.7081 22.9904 12.6981 22.5104 12.8281 22.0304C12.8281 22.0004 12.8781 22.0004 12.8881 22.0304Z" fill="black"/>
<path opacity="0.2" d="M6.31812 21.7904C6.46812 22.2404 6.70812 22.6204 7.05812 22.9404C7.08812 22.9604 7.05812 23.0104 7.01812 22.9904C6.57812 22.7704 6.19812 22.3104 6.24812 21.7904C6.24812 21.7604 6.29812 21.7504 6.30812 21.7904H6.31812Z" fill="black"/>
<path opacity="0.2" d="M1.72813 20.6504C1.75813 20.8304 1.96813 21.1004 1.93813 21.1204C1.77813 21.0704 1.69813 20.8104 1.67813 20.6604C1.67813 20.6204 1.72813 20.6204 1.73813 20.6604L1.72813 20.6504Z" fill="black"/>
<path opacity="0.2" d="M19.3681 21.7304C19.3681 22.2304 19.1281 22.7504 18.6681 23.0004C18.6381 23.0204 18.6081 22.9804 18.6281 22.9504C18.9681 22.5904 19.1181 22.1804 19.2981 21.7304C19.2981 21.6904 19.3681 21.6904 19.3681 21.7304Z" fill="black"/>
<path opacity="0.2" d="M24.1181 20.6204C24.1181 20.8204 24.0481 21.0304 23.8681 21.1504C23.8581 21.1504 23.8381 21.1504 23.8281 21.1504C23.9581 20.9504 24.0181 20.9204 24.0681 20.6204C24.0681 20.5804 24.1281 20.5904 24.1181 20.6204Z" fill="black"/>
<path d="M22.5381 20.4004C21.1381 20.5604 20.6381 20.7004 19.3381 21.3904C18.5981 21.1604 17.0481 21.0204 16.2781 21.0204C15.1181 21.0204 13.9181 21.2004 12.8481 21.6304C11.0581 20.9004 8.20814 20.8104 6.35814 21.3804C4.35814 19.8304 1.56814 20.4504 1.49814 20.4204C1.08814 20.2404 0.99814 19.9504 0.96814 19.6504C0.96814 19.6204 0.96814 19.5904 0.96814 19.5604C0.96814 19.1704 1.24814 18.7604 1.63814 18.5304C3.33814 17.5204 6.78814 16.1404 12.8881 16.1404C18.9881 16.1404 22.4381 17.5304 24.1381 18.5304C24.2881 18.6204 24.4181 18.7304 24.5281 18.8604C24.5881 18.9304 24.6381 19.0104 24.6781 19.0904C24.7181 19.1604 24.7481 19.2404 24.7681 19.3104C24.8781 19.7104 24.8481 20.1404 24.3181 20.3904C24.2281 20.4304 23.2781 20.3004 22.5581 20.3904L22.5381 20.4004Z" fill="#FFCACA"/>
<path d="M24.9681 19.8104C24.9881 19.5504 24.9181 19.2504 24.8081 19.0304C24.6481 18.7104 24.3481 18.5004 24.1881 18.4104C22.3281 17.3104 18.8581 15.9904 12.8581 15.9904C6.85813 15.9904 3.39813 17.3004 1.53813 18.4104C1.09813 18.6704 0.77813 19.1404 0.80813 19.6804C0.84813 20.5504 1.19813 21.1104 1.70813 21.4304C2.50813 22.9504 5.13813 24.1504 7.12813 23.4204C8.09813 24.2504 9.22813 24.6704 10.3581 24.6704C11.2181 24.6704 12.0781 24.4304 12.8681 23.9404C13.6481 24.4104 14.5181 24.6604 15.3781 24.6604C16.5381 24.6604 17.6581 24.2304 18.6081 23.4204C19.1181 23.6004 19.8381 23.6104 20.3281 23.5504C21.8981 23.3404 22.9981 22.9204 24.0181 21.4404C24.6681 21.0504 24.9081 20.5804 24.9581 19.8304L24.9681 19.8104ZM1.13813 19.4104C1.20813 19.0904 1.37813 18.8504 1.69813 18.6704C3.52813 17.5904 6.94813 16.3004 12.8681 16.3004C18.7881 16.3004 22.2081 17.5904 24.0381 18.6704C24.1681 18.7504 24.2881 18.8504 24.3881 18.9704C24.4381 19.0304 24.4881 19.1004 24.5281 19.1804C24.6281 19.3704 24.6681 19.5304 24.6381 19.7204C24.6181 19.8704 24.4981 20.1504 24.2581 20.2604C24.2181 20.2604 24.0481 20.2604 23.8881 20.2504C23.5281 20.2304 22.9781 20.2004 22.5181 20.2504C21.0981 20.4104 20.5681 20.5704 19.3181 21.2304C18.5481 21.0104 17.0381 20.8704 16.2681 20.8704C15.0181 20.8704 13.8281 21.0804 12.8381 21.4704C11.8281 21.0704 10.4881 20.8704 9.16813 20.8704C8.17813 20.8704 7.19813 20.9904 6.37813 21.2204C5.18813 20.3304 3.58813 20.0104 1.61813 20.2604C1.57813 20.2604 1.53813 20.2704 1.51813 20.2704C1.26813 20.1504 1.16813 19.9104 1.12813 19.7704C1.08813 19.6504 1.10813 19.5304 1.12813 19.4004L1.13813 19.4104ZM23.8481 21.1804L23.7981 21.2304C22.8281 22.6504 21.8181 23.0304 20.2981 23.2404C19.8381 23.3004 19.1381 23.2904 18.6781 23.1104L18.5581 23.0604L18.4881 23.1204C17.5781 23.9204 16.5081 24.3504 15.3881 24.3504C14.5481 24.3504 13.7081 24.1004 12.9681 23.6304L12.8781 23.5804L12.7981 23.6204C11.0181 24.7504 8.90813 24.5504 7.27813 23.1204L7.20813 23.0604L7.08813 23.1104C5.23813 23.8204 2.68813 22.6604 1.96813 21.2404L1.94813 21.2004L1.90813 21.1804C1.64813 21.0304 1.44813 20.7804 1.30813 20.4804C1.35813 20.5104 1.38813 20.5404 1.43813 20.5604C1.48813 20.5804 1.51813 20.5804 1.67813 20.5604C3.59813 20.3204 5.14813 20.6304 6.26813 21.5104L6.32813 21.5604L6.39813 21.5404C8.24813 20.9704 11.0581 21.0804 12.7881 21.7804L12.8481 21.8004L12.9081 21.7804C13.8781 21.3904 15.0481 21.1804 16.2781 21.1804C17.0481 21.1804 18.5681 21.3204 19.2981 21.5404H19.3181L19.4081 21.5304C20.6581 20.8704 21.1581 20.7104 22.5481 20.5604C22.9781 20.5104 23.5181 20.5404 23.8681 20.5604C24.1981 20.5804 24.2881 20.5804 24.3581 20.5604C24.4281 20.5304 24.4881 20.4804 24.5481 20.4404C24.4181 20.7404 24.1881 21.0004 23.8481 21.2004V21.1804Z" fill="black"/>
<path d="M0.958124 13.5604C0.658124 13.3504 0.448124 13.0904 0.348124 12.7504C-0.241876 10.6204 0.468124 8.3104 2.17812 6.9104C2.50812 4.4904 4.34812 2.5904 6.69812 2.2504C8.15812 0.330405 10.6781 -0.369596 12.8781 0.540405C15.0781 -0.369596 17.5881 0.330405 19.0481 2.2504C21.3881 2.5904 23.2281 4.4904 23.5681 6.9104C25.2781 8.3004 25.9881 10.6104 25.4081 12.7404C25.3081 13.0804 25.0781 13.3604 24.7781 13.5504C23.3981 14.4404 18.6581 16.7804 12.7081 16.7804C6.75812 16.7804 2.25812 14.4804 0.958124 13.5604Z" fill="#FFCACA"/>
<path d="M12.7081 16.9404C6.98813 16.9404 2.46813 14.8104 0.878128 13.6904C0.538128 13.4504 0.318128 13.1604 0.218128 12.8304V12.7804C-0.401872 10.5904 0.328128 8.26039 2.04813 6.84039C2.41813 4.41039 4.27813 2.49039 6.61813 2.12039C8.10813 0.200385 10.6681 -0.499615 12.8781 0.380385C15.0981 -0.509615 17.6481 0.200385 19.1281 2.11039C21.4781 2.48039 23.3481 4.41039 23.7081 6.83039C25.4281 8.26039 26.1481 10.5904 25.5481 12.7804V12.8104C25.4381 13.1604 25.1981 13.4704 24.8581 13.6904C23.1081 14.8204 18.3181 16.9404 12.6981 16.9404H12.7081ZM1.04813 13.4404C2.60813 14.5504 7.05813 16.6404 12.7081 16.6404C18.3581 16.6404 22.9781 14.5404 24.6981 13.4304C24.9881 13.2504 25.1781 13.0004 25.2581 12.7104V12.6804C25.8281 10.5904 25.1281 8.37039 23.4781 7.03039L23.4281 6.99039V6.93039C23.0981 4.59039 21.2881 2.73039 19.0281 2.40039L18.9281 2.34039C17.5181 0.480385 15.0581 -0.199615 12.9381 0.680385L12.8781 0.700385L12.8181 0.680385C10.6981 -0.199615 8.22813 0.490385 6.81813 2.34039L6.77813 2.39039H6.71813C4.45813 2.73039 2.64813 4.60039 2.32813 6.93039V7.02039L2.24813 7.04039C0.608128 8.38039 -0.091872 10.6104 0.498128 12.7104V12.7304C0.588128 13.0104 0.758128 13.2304 1.04813 13.4404Z" fill="black"/>
<g opacity="0.1">
<path d="M12.7681 16.7904C12.5081 11.9204 12.0681 6.80038 12.8481 2.05038C13.4081 6.91038 13.2481 12.0204 12.7681 16.7904Z" fill="black"/>
<path d="M18.9481 3.96039C19.1681 8.77039 16.6581 13.9004 13.0081 16.8304C16.3281 13.3104 17.8081 8.45039 18.9481 3.96039Z" fill="black"/>
<path d="M23.0081 8.73038C22.4981 10.9404 20.7581 12.6304 19.0581 14.0104C17.3381 15.3204 15.1981 16.6204 13.1081 16.9104C16.7781 14.9504 21.0181 12.3804 23.0181 8.73038H23.0081Z" fill="black"/>
<path d="M6.87812 3.98038C7.75812 8.66038 9.55812 13.2104 12.5481 16.8604C9.08812 13.6304 6.35812 8.75038 6.87812 3.98038Z" fill="black"/>
<path d="M2.79813 8.52039C4.91813 12.4204 8.63813 14.9404 12.4981 16.9204C8.38813 16.0504 3.75813 12.8004 2.79813 8.52039Z" fill="black"/>
</g>
<path opacity="0.2" d="M12.8281 19.7604C15.4791 19.7604 17.6281 19.1963 17.6281 18.5004C17.6281 17.8045 15.4791 17.2404 12.8281 17.2404C10.1772 17.2404 8.02814 17.8045 8.02814 18.5004C8.02814 19.1963 10.1772 19.7604 12.8281 19.7604Z" fill="black"/>
<path d="M12.8781 19.1404C16.711 19.1404 19.8181 16.0333 19.8181 12.2004C19.8181 8.36755 16.711 5.26041 12.8781 5.26041C9.04529 5.26041 5.93814 8.36755 5.93814 12.2004C5.93814 16.0333 9.04529 19.1404 12.8781 19.1404Z" fill="#F25AB1"/>
<path d="M12.8781 19.2904C8.96812 19.2904 5.78812 16.1104 5.78812 12.2004C5.78812 8.29038 8.96812 5.11038 12.8781 5.11038C16.7881 5.11038 19.9681 8.29038 19.9681 12.2004C19.9681 16.1104 16.7881 19.2904 12.8781 19.2904ZM12.8781 5.41038C9.13812 5.41038 6.08812 8.45038 6.08812 12.2004C6.08812 15.9504 9.12812 18.9904 12.8781 18.9904C16.6281 18.9904 19.6681 15.9504 19.6681 12.2004C19.6681 8.45038 16.6281 5.41038 12.8781 5.41038Z" fill="black"/>
<path opacity="0.6" d="M7.61812 12.5904C7.40812 12.5904 7.22812 12.4204 7.22812 12.2004C7.22812 9.09039 9.75812 6.56039 12.8681 6.56039C13.0781 6.56039 13.2581 6.73039 13.2581 6.95039C13.2581 7.17039 13.0881 7.34039 12.8681 7.34039C10.1881 7.34039 8.00812 9.52039 8.00812 12.2004C8.00812 12.4104 7.83812 12.5904 7.61812 12.5904Z" fill="white"/>
<path opacity="0.2" d="M18.8181 8.62038C18.9681 9.22038 19.0481 9.85038 19.0481 10.4904C19.0481 14.6704 15.6581 18.0504 11.4881 18.0504C10.2881 18.0504 9.15813 17.7704 8.14813 17.2704C9.38813 18.4204 11.0481 19.1304 12.8781 19.1304C16.7081 19.1304 19.8181 16.0204 19.8181 12.1904C19.8181 10.8804 19.4581 9.66038 18.8281 8.61038L18.8181 8.62038Z" fill="black"/>
<path opacity="0.6" d="M7.72812 13.7504C7.95455 13.7504 8.13811 13.5668 8.13811 13.3404C8.13811 13.114 7.95455 12.9304 7.72812 12.9304C7.50168 12.9304 7.31812 13.114 7.31812 13.3404C7.31812 13.5668 7.50168 13.7504 7.72812 13.7504Z" fill="white"/>
</svg>
