<svg width="46" height="52" viewBox="0 0 46 52" fill="none" xmlns="http://www.w3.org/2000/svg">
<path d="M14.4314 45.4137C15.0599 46.6488 16.0818 47.6817 16.8353 48.6741C15.4054 49.1079 14.6813 47.7626 13.3323 50.0599C13.9094 50.1886 14.2255 50.3503 14.5086 50.3062C18.302 49.7401 20.5626 50.4643 24.3523 49.8725C24.5471 49.8431 24.7934 49.821 24.9147 49.696C25.2051 49.3983 25.6535 49.016 25.6241 48.7109C25.5947 48.4242 25.0434 47.9941 24.7015 47.9721C23.4076 47.8912 22.1027 47.95 20.8015 47.9574C20.6655 47.7993 20.5295 47.6376 20.3935 47.4795C22.1946 45.8254 23.97 44.1382 25.8079 42.5209C27.4583 41.069 29.2962 40.4698 31.612 40.6867C33.8873 40.8999 36.2618 40.6867 38.5224 40.2787C42.3342 39.595 45.5395 36.3125 45.6976 33.2248C45.7454 32.2655 45.8703 31.0855 44.3816 31.0083C43.1833 30.9495 42.7459 31.6406 42.3894 32.758C42.0144 33.9343 41.3712 35.2098 40.4596 35.989C38.188 37.9298 35.3355 38.1247 32.1927 38.1357C33.0308 37.0329 33.8285 36.228 34.3284 35.2722C35.0782 33.8277 36.0707 32.7984 37.4638 31.8795C41.6175 29.1337 43.7053 23.1789 42.2313 18.7092C41.8343 17.4998 41.4226 15.8825 39.7134 16.0957C38.1549 16.2905 38.2762 17.7424 38.2835 18.9518C38.2835 19.0106 38.1144 19.0731 37.5925 19.4296C36.9125 17.7241 36.3905 16.0552 35.5818 14.5372C35.1922 13.8093 34.2622 13.3683 33.5785 12.7948C33.097 13.5704 32.4758 14.2982 32.1891 15.1363C32.0273 15.6105 32.3361 16.3052 32.5677 16.8419C33.7182 19.5289 35.1995 21.8924 38.9084 22.2085C38.1732 24.278 37.5226 26.1012 36.8757 27.9244C36.6882 27.8655 36.4971 27.8067 36.3096 27.7479C36.1295 26.851 36.0045 25.9431 35.7583 25.0646C34.9753 22.2857 34.0417 21.4072 32.3765 21.7895C30.671 22.1791 30.2519 23.2341 30.7445 26.16C31.1819 28.7551 31.5017 31.3098 29.2154 33.7909C29.0941 32.0045 29.1088 30.5489 28.8515 29.141C28.7338 28.5051 28.0759 27.9685 27.6605 27.3877C27.1532 27.9721 26.2012 28.5713 26.2233 29.1337C26.3005 30.9569 26.7599 32.7617 27.0172 34.5812C27.0871 35.0811 27.1643 35.842 26.8886 36.0883C25.0544 37.724 23.1283 39.2531 20.7905 41.1756C21.3235 39.5288 21.7094 38.4187 22.0439 37.2939C23.2679 33.1734 24.7493 29.1043 25.5874 24.9029C26.0909 22.3923 25.9182 19.834 28.4287 18.246C28.7375 18.0512 28.9985 17.6395 29.1014 17.2756C30.0792 13.8645 31.2591 10.4864 31.8619 7.00547C32.1597 5.29256 31.5201 3.34071 31.0055 1.58369C30.6011 0.19792 29.344 -0.0263028 28.0612 0.510362C26.8408 1.0213 26.3887 1.96597 26.7783 3.24882C26.9695 3.88106 27.2598 4.48756 27.4363 5.12347C28.5868 9.25137 28.2339 13.1404 25.455 17.0845C24.9331 14.8864 24.4626 13.1073 24.0987 11.3098C23.7715 9.7035 22.7717 8.99774 21.2573 9.233C19.7061 9.4756 19.2466 10.582 19.5958 12.0523C19.8384 13.0852 20.059 14.1218 20.342 15.1437C21.3124 18.643 22.1652 22.146 21.0073 26.035C17.7653 22.5798 15.2584 19.0032 14.4644 14.4379C14.1924 12.872 13.8359 11.3208 13.4793 9.76966C13.1853 8.49784 12.7773 7.14883 11.1232 7.35835C9.34408 7.58257 9.28895 9.06758 9.42495 10.4313C9.6455 12.6441 9.97632 14.8422 10.2667 17.1176C9.96897 17.0734 9.66387 17.1102 9.46171 16.9815C7.74879 15.8935 6.10572 14.6915 4.33767 13.7064C3.50694 13.2433 2.52183 13.0852 1.49996 12.9529C1.18017 14.0005 0.955946 15.1878 1.33823 15.9964C1.86754 17.1139 2.86735 18.3379 3.96274 18.7864C6.06528 19.6502 8.38103 20.003 10.6049 20.5728C11.1379 20.7088 11.9723 20.7088 12.1487 21.047C14.0087 24.572 17.0669 26.6599 20.6802 28.189C19.39 32.4162 18.1439 36.4963 16.9015 40.5727L14.4387 45.3954L14.4314 45.4137Z" fill="#438BFF"/>
<path d="M14.4143 50.5728C14.2231 50.5728 14.0283 50.5177 13.7931 50.4478C13.646 50.4037 13.4806 50.3559 13.2785 50.3118L12.9329 50.2346L13.113 49.9295C14.0945 48.2534 14.8701 48.3563 15.6273 48.4592C15.8662 48.4923 16.1051 48.5254 16.3771 48.5033C16.2264 48.3159 16.0721 48.1284 15.914 47.9373C15.2965 47.1947 14.6606 46.4228 14.2048 45.5296L14.1459 45.412L16.6675 40.4717L20.3617 28.349C16.2411 26.5663 13.5541 24.2873 11.9184 21.1812C11.8523 21.0599 11.3744 20.9827 11.0877 20.9386C10.8929 20.9092 10.7054 20.8798 10.54 20.8357C9.87468 20.6666 9.20569 20.5159 8.53302 20.3652C6.97081 20.016 5.35714 19.6558 3.8611 19.0419C2.60398 18.5236 1.58946 17.1452 1.10058 16.1234C0.758736 15.4029 0.810197 14.348 1.25129 12.896L1.31378 12.6865L1.53065 12.7159C2.57457 12.8519 3.58909 13.0173 4.46025 13.5025C5.62547 14.1495 6.75026 14.903 7.83829 15.6271C8.42274 16.0168 9.00352 16.4064 9.599 16.785C9.67251 16.8328 9.81587 16.8438 9.96657 16.8512C9.89306 16.2777 9.81587 15.7117 9.73868 15.1456C9.5218 13.543 9.31596 12.0285 9.16525 10.4774C9.07336 9.55841 8.86016 7.4044 11.0877 7.12136C13.0653 6.87508 13.4806 8.66152 13.7306 9.73117C14.0614 11.1684 14.4363 12.7968 14.7194 14.4141C15.3847 18.2296 17.2336 21.5782 20.8836 25.5407C21.8063 21.9936 21.0748 18.7626 20.0934 15.2301C19.8838 14.484 19.7111 13.7157 19.542 12.9769L19.3472 12.1278C19.134 11.2309 19.2148 10.4663 19.5861 9.91863C19.9206 9.4224 20.472 9.10996 21.2218 8.99234C22.898 8.73136 24.0044 9.54003 24.3536 11.275C24.5999 12.488 24.9013 13.7194 25.2211 15.028C25.335 15.4911 25.4527 15.9727 25.5739 16.4726C27.8493 13.0026 28.3602 9.4077 27.195 5.20995C27.1031 4.88281 26.9781 4.55199 26.8531 4.2322C26.7392 3.93813 26.6289 3.6404 26.537 3.33898C26.1106 1.93483 26.6215 0.850476 27.9669 0.288081C28.7976 -0.0611187 29.5916 -0.0942007 30.2018 0.196186C30.709 0.438788 31.0766 0.898261 31.2604 1.52682L31.3743 1.91278C31.8595 3.55585 32.4072 5.4158 32.1242 7.06255C31.6758 9.65398 30.8965 12.227 30.1466 14.7155C29.8783 15.5977 29.61 16.4799 29.36 17.3621C29.2608 17.715 28.9924 18.2186 28.5734 18.4795C26.651 19.6925 26.3789 21.5415 26.0922 23.497C26.0224 23.9822 25.9489 24.4747 25.8533 24.9673C25.2505 27.9778 24.3058 30.9625 23.3942 33.848C23.023 35.0242 22.6517 36.2005 22.3025 37.3804C22.082 38.1229 21.8394 38.8581 21.5453 39.7439C21.4718 39.9608 21.3983 40.1887 21.3211 40.4276C21.6592 40.1483 21.9901 39.8799 22.3135 39.6153C23.9456 38.281 25.3534 37.1305 26.7245 35.9064C26.7833 35.8513 26.9119 35.6197 26.7686 34.6273C26.6804 33.9987 26.5664 33.3665 26.4525 32.7416C26.2429 31.5727 26.0261 30.3633 25.9709 29.1577C25.9526 28.6504 26.4488 28.1983 26.9266 27.7646C27.1215 27.5881 27.3236 27.4043 27.4707 27.2353L27.6875 26.989L27.8787 27.2573C28.0036 27.4301 28.1507 27.6028 28.2977 27.7719C28.6543 28.1799 29.0218 28.6063 29.1137 29.1099C29.2938 30.1024 29.3416 31.0948 29.3968 32.2417C29.4115 32.5357 29.4262 32.8371 29.4409 33.1533C31.1317 31.0029 30.9332 28.8158 30.4958 26.2207C29.9775 23.1625 30.4407 21.9862 32.3227 21.5562C34.4546 21.071 35.3295 22.5891 36.0132 25.0151C36.1896 25.6289 36.3036 26.2685 36.4138 26.8824C36.4579 27.1103 36.4984 27.3382 36.5425 27.5661L36.7263 27.6249L38.5642 22.4531C34.7965 21.9936 33.3776 19.3875 32.3411 16.9651C32.0727 16.3366 31.7676 15.6235 31.9588 15.0721C32.172 14.4472 32.5579 13.8848 32.9329 13.3408C33.0836 13.1202 33.2343 12.8997 33.374 12.6755L33.532 12.4218L33.7599 12.613C33.9694 12.7857 34.1973 12.9475 34.4289 13.1092C34.9692 13.4841 35.528 13.8738 35.822 14.4325C36.3955 15.5132 36.8218 16.649 37.2703 17.8473C37.421 18.2443 37.5717 18.6486 37.7298 19.053C37.8217 18.9941 37.8915 18.95 37.9503 18.9133C37.9871 18.8912 38.0165 18.8728 38.0385 18.8581V18.7479C38.0238 17.6157 38.0054 16.0645 39.6963 15.8513C41.5342 15.6271 42.0378 17.2408 42.4201 18.4207L42.4936 18.6413C44.019 23.2801 41.8356 29.3194 37.6232 32.1057C36.219 33.032 35.278 34.0502 34.5723 35.4028C34.2231 36.0718 33.7526 36.6489 33.2049 37.3179C33.0542 37.5017 32.8998 37.6892 32.7417 37.884C35.5427 37.8546 38.2076 37.601 40.3102 35.8035C41.3284 34.9323 41.9091 33.4767 42.1628 32.6864C42.4752 31.7124 42.92 30.6795 44.4123 30.7567C44.9417 30.7824 45.346 30.9441 45.607 31.2382C46.0554 31.7381 46.015 32.4806 45.9819 33.1386L45.9745 33.2452C45.8055 36.5129 42.4237 39.8542 38.5862 40.5416C35.958 41.0121 33.6791 41.1481 31.6022 40.9533C29.3821 40.7438 27.5993 41.3061 25.9967 42.725C24.7212 43.8461 23.453 45.0224 22.2253 46.1619C21.7401 46.6103 21.2549 47.0624 20.7697 47.5109L20.9388 47.7094C21.2512 47.7094 21.5637 47.702 21.8798 47.6983C22.8171 47.6836 23.7838 47.6653 24.7359 47.7277C25.1806 47.7535 25.857 48.2644 25.8974 48.7018C25.9342 49.0804 25.5776 49.437 25.2615 49.7494L25.1182 49.8928C24.9491 50.0655 24.6918 50.1023 24.4786 50.1354L24.4087 50.1464C22.4679 50.4478 20.902 50.4111 19.3986 50.3743C17.9357 50.3412 16.4212 50.3045 14.5613 50.5801C14.5172 50.5875 14.4694 50.5912 14.4253 50.5912L14.4143 50.5728ZM13.7379 49.8965C13.8078 49.9148 13.8739 49.9332 13.9327 49.9516C14.1753 50.0214 14.3628 50.0692 14.4694 50.0508C16.3698 49.7678 17.9099 49.8046 19.395 49.8413C20.891 49.8781 22.4275 49.9148 24.3132 49.6171L24.3867 49.6061C24.4969 49.5877 24.6844 49.562 24.7285 49.5142L24.8792 49.3635C25.052 49.1907 25.3791 48.8709 25.3644 48.7349C25.3461 48.5989 24.927 48.2424 24.6807 48.2276C23.7508 48.1688 22.7914 48.1872 21.8651 48.2019C21.5085 48.2093 21.1557 48.2129 20.7991 48.2166H20.6815L20.0309 47.4594L20.2147 47.2903C20.7624 46.7867 21.31 46.2795 21.8541 45.7722C23.0818 44.6327 24.3536 43.4528 25.6328 42.328C27.3567 40.8099 29.2644 40.2071 31.6316 40.4276C33.6533 40.6188 35.8955 40.4865 38.4723 40.0233C42.0929 39.3764 45.2798 36.2556 45.4342 33.2084L45.4416 33.1018C45.471 32.5468 45.5077 31.9145 45.2026 31.5763C45.0299 31.3852 44.7579 31.286 44.3682 31.2639C43.3243 31.2124 42.9788 31.7528 42.6333 32.8371C42.3613 33.6789 41.7437 35.2338 40.6263 36.1895C38.2591 38.2148 35.2854 38.3876 32.1904 38.3949H31.6684L31.9845 37.9796C32.2602 37.6193 32.5285 37.2922 32.7822 36.9798C33.3115 36.3365 33.7709 35.7778 34.0907 35.1529C34.8406 33.7157 35.8331 32.6423 37.3107 31.6609C41.3431 28.9923 43.4346 23.2213 41.9753 18.7883L41.9055 18.5641C41.4533 17.1636 41.0564 16.1858 39.7367 16.3476C38.5899 16.4909 38.5127 17.3805 38.5311 18.7258V18.95C38.5311 19.1301 38.4098 19.2073 38.2003 19.336C38.0937 19.4022 37.9393 19.4977 37.7261 19.6411L37.4614 19.8212L37.3438 19.5235C37.1416 19.0162 36.9505 18.5089 36.7667 18.009C36.3219 16.8254 35.9066 15.708 35.3442 14.6567C35.1053 14.2083 34.6201 13.8701 34.1091 13.5135C33.9474 13.3996 33.7893 13.2893 33.6313 13.1717C33.5357 13.3187 33.4328 13.4658 33.3335 13.6128C32.966 14.1495 32.6168 14.6567 32.4219 15.2191C32.297 15.583 32.569 16.2189 32.7675 16.6858C33.8004 19.0934 35.1861 21.6334 38.917 21.9531L39.2515 21.9826L37.024 28.2498L36.072 27.952L36.0426 27.8013C35.9874 27.522 35.936 27.2389 35.8845 26.9559C35.7779 26.3531 35.664 25.7282 35.4986 25.1364C34.6568 22.1516 33.7305 21.7436 32.4219 22.0414C31.0362 22.3575 30.4664 23.0485 30.9884 26.1178C31.378 28.4225 31.8632 31.2896 29.3968 33.9656L28.9888 34.4067L28.9483 33.8076C28.9116 33.2599 28.8895 32.7416 28.8638 32.249C28.8123 31.1206 28.7645 30.1465 28.5881 29.1871C28.5219 28.8195 28.2132 28.4666 27.8934 28.0917C27.8051 27.9888 27.7169 27.8895 27.6324 27.7866C27.5148 27.9042 27.3861 28.0182 27.2611 28.1321C26.8862 28.474 26.4635 28.8599 26.4745 29.1246C26.526 30.2935 26.7392 31.4845 26.945 32.6387C27.059 33.2746 27.1729 33.9068 27.2648 34.5464C27.3604 35.2264 27.4118 35.9616 27.0516 36.285C25.6695 37.5164 24.258 38.6706 22.6223 40.0086C22.0856 40.446 21.5269 40.9018 20.9461 41.3797L20.2624 41.9421L20.5345 41.1003C20.7182 40.5342 20.8837 40.0343 21.038 39.5712C21.3284 38.689 21.571 37.9612 21.7879 37.2224C22.1408 36.0387 22.512 34.8625 22.8833 33.6826C23.7912 30.8081 24.7285 27.8381 25.324 24.857C25.4196 24.3755 25.4931 23.8903 25.5629 23.4124C25.857 21.4275 26.1584 19.3727 28.283 18.0311C28.5183 17.8841 28.7498 17.5459 28.8454 17.2077C29.099 16.3218 29.3674 15.4397 29.6357 14.5538C30.3819 12.08 31.1538 9.52532 31.5986 6.9633C31.8595 5.43418 31.356 3.71391 30.8634 2.04878L30.7495 1.65915C30.6061 1.16659 30.3414 0.828421 29.9665 0.648308C29.4997 0.424085 28.8527 0.460843 28.1507 0.751229C27.0516 1.2107 26.6693 2.02673 27.0149 3.17725C27.1031 3.46763 27.2134 3.75067 27.3199 4.0337C27.4486 4.36452 27.5773 4.70637 27.6765 5.05925C28.9446 9.61354 28.3014 13.4841 25.6548 17.2408L25.324 17.7113L25.1917 17.1526C25.0226 16.4431 24.8608 15.7778 24.7065 15.1419C24.3867 13.8297 24.0853 12.5946 23.8353 11.3706C23.5376 9.91128 22.6627 9.27905 21.288 9.49592C20.6852 9.59149 20.2514 9.82674 20.0015 10.198C19.7184 10.6207 19.6596 11.2456 19.8397 11.9991L20.0345 12.8519C20.2036 13.5871 20.3764 14.348 20.5786 15.0831C21.6225 18.8398 22.3907 22.2619 21.2439 26.1178L21.1152 26.5479L20.8101 26.2207C18.0386 23.2617 15.0833 19.5565 14.2011 14.4913C13.9217 12.885 13.5505 11.264 13.2196 9.83777C12.9146 8.52184 12.547 7.44851 11.1465 7.62495C9.71294 7.80873 9.5218 8.87104 9.67251 10.4185C9.82689 11.9624 10.0327 13.4731 10.2459 15.0684C10.3378 15.7374 10.426 16.4137 10.5179 17.0938L10.562 17.4319L10.2239 17.3805C10.132 17.3658 10.0438 17.3621 9.95555 17.3547C9.735 17.34 9.51078 17.329 9.31596 17.2077C8.72048 16.8291 8.13236 16.4358 7.54423 16.0462C6.46355 15.3257 5.34979 14.5795 4.20294 13.9436C3.46779 13.5356 2.58928 13.3739 1.67768 13.2489C1.33216 14.4619 1.2954 15.3294 1.56373 15.8955C2.04526 16.91 3.00096 18.1267 4.05224 18.5567C5.50417 19.1559 7.09946 19.5124 8.63962 19.8543C9.31596 20.005 9.9923 20.1594 10.6613 20.3285C10.812 20.3652 10.9848 20.3946 11.1612 20.4203C11.6648 20.4975 12.1831 20.5784 12.3705 20.9313C13.9769 23.9785 16.6491 26.2134 20.7734 27.9557L20.9866 28.0476L20.9167 28.2718L17.138 40.6592L14.7194 45.4046C15.1458 46.1986 15.7339 46.9117 16.3073 47.5991C16.5646 47.9079 16.8146 48.2129 17.0388 48.5107L17.263 48.8047L16.9065 48.9113C16.3771 49.0731 15.936 49.0143 15.5501 48.9628C14.9179 48.8783 14.44 48.8158 13.7343 49.8854L13.7379 49.8965Z" fill="black"/>
<path d="M19.7777 43.2653C19.7777 43.2653 19.7851 43.2653 19.7851 43.2617C17.223 37.7958 14.4 22.0892 14.378 21.9311C14.1244 20.0197 11.7094 20.1336 10.478 20.3137C9.23925 20.4939 6.78015 21.1923 7.43811 23.1662C7.45649 23.225 7.48222 23.2728 7.50428 23.3242C10.5258 31.9697 13.1356 39.0382 16.521 43.9895C16.8444 44.4636 16.9216 44.618 16.9327 44.6291C17.6164 45.2576 18.1457 44.9819 18.7632 44.6989C19.3807 44.4159 19.8034 43.9858 19.7924 43.2874C19.7924 43.2764 19.7814 43.2727 19.7777 43.2653Z" fill="#22C7DD"/>
<path d="M17.7717 45.2649C17.4519 45.2649 17.1174 45.151 16.7572 44.8201L16.6837 44.7209C16.6396 44.6511 16.5367 44.4783 16.3051 44.1364C12.8866 39.1374 10.2915 32.0983 7.25531 23.4124C7.22222 23.3389 7.18914 23.2249 7.17444 23.1771C6.97227 22.5743 7.03476 22.0891 7.32882 21.6112C7.99782 20.5269 9.72543 20.1667 10.4385 20.0601C11.5045 19.902 12.9638 19.8616 13.8644 20.5416C14.2981 20.8687 14.5554 21.3245 14.6326 21.898C14.6547 22.0413 17.4593 37.6854 20.0139 43.1403L20.0434 43.2065L20.0985 43.3278L20.047 43.3719C20.0323 44.0556 19.6353 44.5849 18.8708 44.9378C18.5142 45.0995 18.154 45.2686 17.7717 45.2686V45.2649ZM11.6736 20.4791C11.2399 20.4791 10.8282 20.5232 10.5157 20.5673C10.0158 20.6408 8.33966 20.9496 7.76992 21.8759C7.55672 22.2251 7.52731 22.6184 7.6817 23.0816C7.69272 23.1146 7.75154 23.2837 7.75154 23.2837C10.773 31.9328 13.3498 38.8948 16.7352 43.8424C16.9778 44.1989 17.0843 44.3754 17.1285 44.4526C17.6467 44.9267 18.0217 44.7577 18.6024 44.4893C19.2273 44.2026 19.5104 43.8571 19.5324 43.3829L19.5251 43.3756V43.3057C16.9594 37.7663 14.14 22.1038 14.1217 21.9641C14.0629 21.523 13.8791 21.1922 13.5556 20.9496C13.0704 20.5857 12.3463 20.4791 11.6736 20.4791Z" fill="black"/>
<path d="M13.1555 22.1049C13.3135 23.2922 11.9866 23.6561 11.211 23.8031C10.4317 23.9502 9.04962 24.1303 8.64161 22.9099C8.21154 21.6271 9.81418 21.1713 10.6192 21.0536C11.4205 20.936 12.9901 20.8625 13.1555 22.1049Z" fill="#6BDCE8"/>
<path d="M22.8891 28.3095C22.8082 27.306 21.0145 27.0266 20.1837 26.9972C19.3089 26.9678 17.3791 27.1442 17.4453 28.2654C17.4453 28.2801 17.4489 28.3095 17.4453 28.3095C18.0554 33.9444 18.0959 39.2118 16.9013 44.5638C16.7763 45.1262 16.7358 45.2695 16.7358 45.2879C16.791 46.2436 17.4048 46.409 18.0959 46.6369C18.7906 46.8648 19.4486 46.8281 19.9448 46.2693C19.9521 46.2583 19.9448 46.2473 19.9521 46.2436C19.9521 46.2473 19.9595 46.2399 19.9521 46.2436C22.4811 39.5794 22.4517 35.4993 22.9001 28.5999C22.9001 28.5888 22.8891 28.3131 22.8854 28.3131L22.8891 28.3095Z" fill="#22C7DD"/>
<path d="M19.0693 47.8384L19.4148 46.9268C19.0178 47.0665 18.5473 47.0481 18.0143 46.8753L17.9482 46.8533C17.2865 46.6401 16.5403 46.3938 16.4742 45.2947C16.4742 45.2433 16.4779 45.2249 16.5073 45.1109C16.5293 45.008 16.5734 44.8242 16.6469 44.5008C17.7129 39.7296 17.8894 34.7783 17.1983 28.3641L17.1836 28.206C17.1542 27.8715 17.2976 27.6436 17.496 27.4378C18.2239 26.6916 19.9919 26.7283 20.1867 26.732C20.4771 26.7431 23.0281 26.868 23.1421 28.2832C23.1604 28.4155 23.0612 30.1432 23.0208 30.8673C22.6936 36.3405 22.4547 40.3104 20.2602 46.1622L20.3043 46.2027L20.1426 46.4305C20.1426 46.4305 20.1095 46.4673 20.0912 46.4857L19.0693 47.8384ZM17.6982 28.2795C18.4003 34.7489 18.2275 39.7884 17.1505 44.6147C17.077 44.9419 17.0329 45.1293 17.0108 45.2322L16.9888 45.3205C17.0366 46.0152 17.463 46.1549 18.1099 46.3644L18.1797 46.3864C18.8267 46.5996 19.3266 46.5261 19.6978 46.1549V46.1255L19.7346 46.0887C21.9401 40.2552 22.1643 36.5059 22.5025 30.8379C22.5466 30.1137 22.565 29.4668 22.6164 28.6802C22.6164 28.6618 22.6274 28.3273 22.6274 28.3273C22.5686 27.5958 21.124 27.2834 20.172 27.254C19.345 27.2246 18.2753 27.3863 17.8673 27.8017C17.7387 27.9303 17.6872 28.07 17.6982 28.2464V28.2795Z" fill="black"/>
<path d="M21.9986 28.5519C21.9251 29.3054 20.7598 29.3569 20.1791 29.3275C19.5983 29.2981 18.4257 29.1584 18.3816 28.4122C18.3375 27.6697 19.6203 27.5521 20.2011 27.5705C20.7819 27.5889 22.0758 27.7947 21.9986 28.5482V28.5519Z" fill="#6BDCE8"/>
<path d="M19.7613 44.7797C19.7613 44.7797 19.7392 44.765 19.7392 44.7577C15.365 38.9536 10.4248 34.1824 4.98463 29.4039C4.94052 29.3488 4.78981 29.2312 4.72733 29.1944C3.47388 28.4776 2.1212 29.9773 1.46323 30.8044C0.805266 31.6278 -0.407743 33.6127 0.70602 34.3625C0.70602 34.3625 0.709695 34.3625 0.713371 34.3662C0.713371 34.3662 0.713371 34.3662 0.717047 34.3662C0.724398 34.3699 0.73175 34.3736 0.739102 34.3772C5.24194 36.8731 13.7293 44.3129 16.1333 46.8124C16.3943 47.066 16.7251 47.4336 16.7398 47.4447C17.5338 47.985 18.3461 47.4042 18.9232 46.908C19.504 46.4118 20.1399 45.559 19.7613 44.7797Z" fill="#22C7DD"/>
<path d="M17.4161 47.9216C17.1514 47.9216 16.8721 47.8481 16.5964 47.6569C16.567 47.6386 16.5633 47.6349 16.4604 47.5209C16.3428 47.396 16.1332 47.1681 15.9568 46.999C13.5749 44.5215 5.10223 37.0891 0.617771 34.6042L0.529552 34.5454C0.529552 34.5454 0.500145 34.5234 0.485442 34.5124L0.456036 34.4903C0.213434 34.2918 0.0664031 34.0271 0.0186179 33.7C-0.168847 32.476 1.11768 30.8255 1.26471 30.6381C2.6174 28.9399 3.8304 28.3738 4.85595 28.9656C4.93314 29.0097 5.12796 29.1641 5.22353 29.256C9.85869 33.3214 15.2327 38.3388 19.934 44.5766L20.0039 44.6796C20.5221 45.7676 19.4378 46.8115 19.0923 47.1056C18.7725 47.3813 18.1366 47.9253 17.4161 47.9253V47.9216ZM0.878751 34.1595C5.44407 36.7068 13.9315 44.1503 16.317 46.6314C16.4935 46.8042 16.714 47.0357 16.8353 47.1681L16.9162 47.2526C17.5043 47.6533 18.1476 47.2269 18.7541 46.7086C18.9452 46.5469 19.8605 45.7125 19.5517 44.9479L19.4856 44.9075V44.8413C14.8173 38.6623 9.45068 33.6669 4.81551 29.5905C4.73832 29.5353 4.64275 29.4361 4.59864 29.414C3.82305 28.9693 2.83427 29.4876 1.66537 30.9579C1.04049 31.7408 0.415602 32.906 0.525876 33.6191C0.558958 33.836 0.658204 34.0014 0.823614 34.1227L0.878751 34.1595Z" fill="black"/>
<path d="M4.50793 30.018C5.26881 30.7091 4.37927 32.0176 3.87937 32.6241C3.37578 33.2343 2.27305 34.3922 1.4313 33.8371C0.585865 33.2821 1.49746 31.7934 1.99001 31.1795C2.48257 30.562 3.75071 29.3233 4.5116 30.018H4.50793Z" fill="#6BDCE8"/>
<path d="M27.9356 44.4283L26.7189 42.5242C26.2337 42.0207 25.6088 41.6935 24.9288 41.5943C24.9288 41.5943 21.4809 41.337 19.2313 42.3772C16.9817 43.4175 15.7246 47.3946 15.7246 47.3946L21.3816 50.1258L30.8431 50.3095C30.8431 50.3095 31.3981 48.8466 30.9129 47.3322C30.4314 45.8177 28.3509 44.8657 27.9356 44.432V44.4283Z" fill="#25497C"/>
<path d="M31.0209 50.5619L21.2654 50.3487L15.4099 47.522L15.476 47.3088C15.5275 47.1434 16.7956 43.2103 19.1224 42.1333C21.4051 41.0783 24.8015 41.3173 24.9485 41.3283C25.7057 41.4422 26.3747 41.7914 26.904 42.3391L28.1354 44.2616C28.2347 44.3571 28.4515 44.5005 28.6978 44.6659C29.5249 45.2173 30.7746 46.048 31.1569 47.2463C31.6605 48.8269 31.1054 50.3303 31.0834 50.3928L31.0172 50.5619H31.0209ZM21.4418 49.8634L30.657 50.0399C30.7746 49.6245 31.0246 48.5218 30.668 47.4043C30.3372 46.3788 29.1793 45.6069 28.4148 45.096C28.117 44.8975 27.8781 44.7394 27.7495 44.6071L27.7164 44.5666L26.4997 42.6626C26.0806 42.2362 25.5146 41.9421 24.8897 41.8466C24.875 41.8466 21.5043 41.6076 19.3429 42.6075C17.5087 43.4529 16.3361 46.4376 16.0458 47.2573L21.4418 49.8634Z" fill="black"/>
<path d="M13.1651 46.0988L15.2897 45.1798C15.6389 44.9078 17.3702 44.5329 17.7047 44.6579L19.9984 45.5731C20.4873 45.7533 22.2407 49.146 22.3583 50.0429L20.4616 51.1089L13.8929 51.0868L12.3822 50.4068L12.4667 47.3155C12.6138 46.7714 12.8637 46.3304 13.1651 46.0951V46.0988Z" fill="#3C5C82"/>
<path d="M20.531 51.3701L13.7933 51.326L12.1245 50.5761L12.2127 47.312C12.3854 46.6467 12.6648 46.1652 13.0103 45.8968L13.0655 45.8637L15.1643 44.9558C15.6091 44.6544 17.3514 44.2538 17.7962 44.4155L20.0972 45.3344C20.7442 45.5734 22.4975 49.1021 22.6188 50.0064L22.6409 50.1791L20.531 51.3664V51.3701ZM13.9513 50.8297L20.395 50.8518L22.0674 49.9108C21.7991 48.8522 20.2626 46.0108 19.8987 45.816L17.605 44.9007C17.3808 44.8272 15.7451 45.1543 15.4437 45.3896L15.3885 45.4227L13.297 46.3269C13.0544 46.5291 12.8412 46.915 12.7163 47.3892L12.6427 50.249L13.9476 50.8371L13.9513 50.8297Z" fill="black"/>
</svg>
