<svg width="30" height="22" viewBox="0 0 30 22" fill="none" xmlns="http://www.w3.org/2000/svg">
<path d="M10.8851 11.3071C9.81565 10.2282 9.15403 8.76323 9.15403 7.14918C9.15403 4.5439 10.8851 2.32458 13.2869 1.48247C12.4078 0.578952 11.157 0 9.77034 0C7.09664 0 4.93049 2.09651 4.93049 4.68425C4.93049 6.85971 6.47126 8.66674 8.54678 9.20183C3.72505 9.85096 0 14.2019 0 19.4826H4.54076C5.29302 15.8247 7.69482 12.7984 10.8851 11.3071Z" fill="#000D42"/>
<path d="M21.4532 9.21111C23.5287 8.68479 25.0695 6.86899 25.0695 4.69353C25.0695 2.10579 22.9033 0.00927734 20.2296 0.00927734C18.8429 0.00927734 17.6012 0.579458 16.713 1.49175C19.1148 2.32509 20.8459 4.5444 20.8459 7.15846C20.8459 8.77251 20.1843 10.2287 19.1148 11.3164C22.3051 12.8076 24.7069 15.834 25.4592 19.4919H29.9999C29.9999 14.2112 26.2749 9.86024 21.4622 9.21988L21.4532 9.21111Z" fill="#000D42"/>
<path d="M16.0535 11.7236C18.0696 11.197 19.5662 9.38038 19.5662 7.20394C19.5662 4.61503 17.4621 2.51758 14.8649 2.51758C12.2678 2.51758 10.1636 4.61503 10.1636 7.20394C10.1636 9.38038 11.6603 11.1882 13.6764 11.7236C9.00148 12.3642 5.38306 16.7171 5.38306 22.0002H24.3644C24.3644 16.7171 20.746 12.3642 16.0711 11.7236H16.0535Z" fill="#000D42"/>
</svg>
