<svg width="22" height="22" viewBox="0 0 22 22" fill="none" xmlns="http://www.w3.org/2000/svg">
<path d="M0.803223 16.8493C0.837389 17.4238 1.07655 17.9812 1.56342 18.2641C2.21257 19.5503 4.45899 20.5536 6.09895 19.9276H6.13312C7.56809 21.1881 9.43868 21.351 11.0103 20.3649C11.6851 20.7937 12.4197 21.008 13.1542 21.008C14.1109 21.008 15.0675 20.6393 15.8875 19.919H15.9217C16.3402 20.0905 16.9552 20.1077 17.3737 20.0477C18.7404 19.859 19.6287 19.4903 20.4572 18.2641C21.1064 17.8869 21.3455 17.2609 21.1576 16.6178C21.1576 16.6178 10.8651 15.0744 10.737 15.0573C10.6089 15.0401 0.803223 16.8493 0.803223 16.8493Z" fill="#FCACAC"/>
<path opacity="0.2" d="M11.0075 18.8899C11.11 19.2929 11.11 19.7045 11.0075 20.1161C11.0075 20.1418 10.9562 20.1418 10.9562 20.1161C10.8537 19.7131 10.8452 19.3015 10.9562 18.8899C10.9562 18.8642 10.9989 18.8642 11.0075 18.8899Z" fill="black"/>
<path opacity="0.2" d="M5.39671 18.6842C5.52483 19.0701 5.72983 19.3959 6.02878 19.6703C6.05441 19.6875 6.02878 19.7303 5.99461 19.7132C5.61879 19.5246 5.29421 19.1301 5.33692 18.6842C5.33692 18.6585 5.37963 18.6499 5.38817 18.6842H5.39671Z" fill="black"/>
<path opacity="0.2" d="M1.47386 17.7071C1.49948 17.8614 1.67886 18.0929 1.65323 18.1101C1.51657 18.0672 1.44824 17.8443 1.43115 17.7157C1.43115 17.6814 1.47386 17.6814 1.4824 17.7157L1.47386 17.7071Z" fill="black"/>
<path opacity="0.2" d="M16.541 18.6329C16.541 19.0616 16.336 19.5075 15.9431 19.7219C15.9175 19.739 15.8919 19.7047 15.909 19.679C16.1994 19.3703 16.3275 19.0188 16.4813 18.6329C16.4813 18.5986 16.541 18.5986 16.541 18.6329Z" fill="black"/>
<path opacity="0.2" d="M20.6017 17.6811C20.6017 17.8526 20.5419 18.0326 20.3882 18.1355C20.3796 18.1355 20.3625 18.1355 20.354 18.1355C20.465 17.964 20.5163 17.9383 20.559 17.6811C20.559 17.6468 20.6102 17.6553 20.6017 17.6811Z" fill="black"/>
<path d="M19.2503 17.4921C18.0545 17.6293 17.6274 17.7494 16.517 18.341C15.885 18.1438 14.561 18.0238 13.9033 18.0238C12.9125 18.0238 11.8875 18.1781 10.9736 18.5468C9.44467 17.9209 7.01034 17.8437 5.43016 18.3324C3.72186 17.0034 1.33878 17.535 1.27899 17.5093C0.928792 17.3549 0.851918 17.1063 0.826294 16.849C0.826294 16.8233 0.826294 16.7976 0.826294 16.7719C0.826294 16.4375 1.06546 16.0859 1.39857 15.8887C2.85063 15.0227 5.79745 13.8394 11.0078 13.8394C16.2181 13.8394 19.1649 15.0312 20.617 15.8887C20.7451 15.9659 20.8561 16.0602 20.9501 16.1716C21.0013 16.2317 21.044 16.3003 21.0782 16.3689C21.1124 16.4289 21.138 16.4975 21.1551 16.5575C21.249 16.9005 21.2234 17.2692 20.7707 17.4836C20.6938 17.5179 19.8824 17.4064 19.2674 17.4836L19.2503 17.4921Z" fill="#FFCACA"/>
<path d="M21.3287 16.9859C21.3458 16.763 21.286 16.5058 21.1921 16.3171C21.0554 16.0427 20.7992 15.8627 20.6625 15.7855C19.0738 14.8423 16.1099 13.7104 10.985 13.7104C5.86007 13.7104 2.90471 14.8337 1.31599 15.7855C0.940163 16.0084 0.666834 16.4114 0.692459 16.8745C0.726625 17.6205 1.02558 18.1006 1.46119 18.375C2.14451 19.6784 4.39093 20.7073 6.09069 20.0814C6.91921 20.7931 7.8844 21.1532 8.84959 21.1532C9.58416 21.1532 10.3187 20.9474 10.9935 20.5272C11.6597 20.9303 12.4029 21.1446 13.1374 21.1446C14.1282 21.1446 15.0849 20.7759 15.8963 20.0814C16.332 20.2357 16.9469 20.2443 17.3655 20.1928C18.7065 20.0128 19.6461 19.6526 20.5173 18.3836C21.0725 18.0492 21.2775 17.6462 21.3202 17.0031L21.3287 16.9859ZM0.974329 16.643C1.03412 16.3686 1.17932 16.1628 1.45265 16.0084C3.01575 15.0824 5.93694 13.9763 10.9935 13.9763C16.0501 13.9763 18.9713 15.0824 20.5344 16.0084C20.6454 16.077 20.7479 16.1628 20.8333 16.2657C20.876 16.3171 20.9187 16.3771 20.9529 16.4457C21.0383 16.6087 21.0725 16.7459 21.0469 16.9088C21.0298 17.0374 20.9273 17.2775 20.7223 17.3718C20.6881 17.3718 20.5429 17.3718 20.4062 17.3632C20.0988 17.3461 19.629 17.3204 19.2361 17.3632C18.0232 17.5004 17.5705 17.6376 16.5028 18.2035C15.8451 18.0149 14.5553 17.8949 13.8976 17.8949C12.8299 17.8949 11.8135 18.0749 10.9679 18.4093C10.1052 18.0663 8.96063 17.8949 7.83316 17.8949C6.98755 17.8949 6.15048 17.9977 5.45008 18.195C4.43364 17.4318 3.067 17.1574 1.38432 17.3718C1.35015 17.3718 1.31599 17.3804 1.29891 17.3804C1.08537 17.2775 0.999953 17.0717 0.965787 16.9516C0.931621 16.8488 0.948704 16.7459 0.965787 16.6344L0.974329 16.643ZM20.3721 18.1607L20.3294 18.2035C19.5008 19.4211 18.6382 19.747 17.3398 19.927C16.9469 19.9785 16.349 19.9699 15.9561 19.8156L15.8536 19.7727L15.7938 19.8241C15.0166 20.5101 14.1026 20.8788 13.146 20.8788C12.4285 20.8788 11.711 20.6644 11.0789 20.2614L11.0021 20.2186L10.9337 20.2529C9.41333 21.2218 7.61108 21.0503 6.21881 19.8241L6.15902 19.7727L6.05652 19.8156C4.47634 20.4244 2.29826 19.4297 1.68327 18.2121L1.66619 18.1778L1.63202 18.1607C1.40995 18.032 1.23912 17.8177 1.11953 17.5604C1.16224 17.5862 1.18787 17.6119 1.23057 17.629C1.27328 17.6462 1.29891 17.6462 1.43557 17.629C3.07554 17.4232 4.39947 17.6891 5.35612 18.4436L5.40737 18.4865L5.46716 18.4693C7.04734 17.9806 9.4475 18.0749 10.9252 18.6751L10.9764 18.6923L11.0277 18.6751C11.8562 18.3407 12.8556 18.1607 13.9062 18.1607C14.5639 18.1607 15.8622 18.2807 16.4857 18.4693H16.5028L16.5797 18.4608C17.6473 17.8949 18.0744 17.7577 19.2617 17.629C19.629 17.5862 20.0902 17.6119 20.3892 17.629C20.671 17.6462 20.7479 17.6462 20.8077 17.629C20.8675 17.6033 20.9187 17.5604 20.97 17.5261C20.8589 17.7834 20.6625 18.0063 20.3721 18.1778V18.1607Z" fill="black"/>
<path d="M0.819588 11.6276C0.563343 11.4475 0.383971 11.2246 0.298556 10.9331C-0.205392 9.10668 0.401054 7.12595 1.86165 5.92551C2.14352 3.85046 3.71516 2.22129 5.72241 1.92975C6.96947 0.283428 9.12193 -0.316793 11.0011 0.463494C12.8802 -0.316793 15.0241 0.283428 16.2712 1.92975C18.2699 2.22129 19.8415 3.85046 20.1319 5.92551C21.5925 7.11738 22.199 9.09811 21.7036 10.9245C21.6181 11.216 21.4217 11.4561 21.1654 11.619C19.9867 12.3822 15.938 14.3886 10.8559 14.3886C5.77366 14.3886 1.92998 12.4165 0.819588 11.6276Z" fill="#FFCACA"/>
<path d="M10.8547 14.5257C5.96891 14.5257 2.10815 12.6993 0.750053 11.7389C0.459642 11.5332 0.271729 11.2845 0.186314 11.0015V10.9587C-0.343259 9.08082 0.28027 7.08294 1.74941 5.86535C2.06544 3.78173 3.65416 2.1354 5.65288 1.81814C6.92556 0.171822 9.11218 -0.428399 10.9999 0.326165C12.8961 -0.436974 15.0742 0.171822 16.3383 1.80957C18.3455 2.12683 19.9428 3.78172 20.2503 5.85678C21.7194 7.08294 22.3344 9.08082 21.8219 10.9587V10.9844C21.728 11.2845 21.523 11.5503 21.2326 11.7389C19.7378 12.7079 15.6464 14.5257 10.8461 14.5257H10.8547ZM0.895259 11.5246C2.22773 12.4764 6.0287 14.2684 10.8547 14.2684C15.6806 14.2684 19.6268 12.4678 21.0959 11.516C21.3436 11.3617 21.5059 11.1473 21.5742 10.8986V10.8729C22.0611 9.08082 21.4632 7.17726 20.0538 6.02827L20.0111 5.99397V5.94252C19.7293 3.93607 18.1833 2.34119 16.2529 2.05823L16.1675 2.00678C14.9631 0.411911 12.8619 -0.171162 11.0511 0.583403L10.9999 0.600552L10.9486 0.583403C9.13781 -0.171162 7.02806 0.420485 5.82371 2.00678L5.78954 2.04966H5.73829C3.80791 2.34119 2.2619 3.94464 1.98857 5.94252V6.01969L1.92024 6.03684C0.519433 7.18584 -0.0784725 9.09797 0.425476 10.8986V10.9158C0.50235 11.1559 0.647555 11.3445 0.895259 11.5246Z" fill="black"/>
<g opacity="0.1">
<path d="M10.9041 14.397C10.682 10.2212 10.3062 5.83099 10.9724 1.75806C11.4507 5.92531 11.3141 10.3069 10.9041 14.397Z" fill="black"/>
<path d="M16.1818 3.39575C16.3697 7.52013 14.2258 11.9189 11.1082 14.4313C13.9439 11.413 15.2081 7.24574 16.1818 3.39575Z" fill="black"/>
<path d="M19.6535 7.48608C19.2179 9.38107 17.7316 10.8302 16.2796 12.0135C14.8104 13.1367 12.9826 14.2514 11.1974 14.5001C14.3321 12.8195 17.9537 10.6158 19.662 7.48608H19.6535Z" fill="black"/>
<path d="M5.87245 3.41235C6.6241 7.42526 8.16157 11.3267 10.7155 14.4564C7.76012 11.6868 5.42829 7.50243 5.87245 3.41235Z" fill="black"/>
<path d="M2.38879 7.30591C4.19959 10.65 7.37703 12.8108 10.6741 14.5086C7.16349 13.7626 3.20878 10.9758 2.38879 7.30591Z" fill="black"/>
</g>
<path opacity="0.2" d="M10.9567 16.9438C13.2211 16.9438 15.0567 16.46 15.0567 15.8634C15.0567 15.2667 13.2211 14.783 10.9567 14.783C8.69241 14.783 6.85681 15.2667 6.85681 15.8634C6.85681 16.46 8.69241 16.9438 10.9567 16.9438Z" fill="black"/>
<path d="M11.0014 16.4115C14.2752 16.4115 16.9292 13.7473 16.9292 10.4608C16.9292 7.17426 14.2752 4.51001 11.0014 4.51001C7.72758 4.51001 5.07361 7.17426 5.07361 10.4608C5.07361 13.7473 7.72758 16.4115 11.0014 16.4115Z" fill="#F25AB1"/>
<path d="M11.0006 16.5408C7.6609 16.5408 4.9447 13.8141 4.9447 10.4615C4.9447 7.1088 7.6609 4.38208 11.0006 4.38208C14.3404 4.38208 17.0566 7.1088 17.0566 10.4615C17.0566 13.8141 14.3404 16.5408 11.0006 16.5408ZM11.0006 4.63932C7.80611 4.63932 5.20095 7.24599 5.20095 10.4615C5.20095 13.6769 7.79756 16.2836 11.0006 16.2836C14.2037 16.2836 16.8003 13.6769 16.8003 10.4615C16.8003 7.24599 14.2037 4.63932 11.0006 4.63932Z" fill="black"/>
<path opacity="0.6" d="M6.50744 10.796C6.32806 10.796 6.17432 10.6502 6.17432 10.4616C6.17432 7.79486 8.33532 5.62549 10.9917 5.62549C11.1711 5.62549 11.3248 5.77126 11.3248 5.9599C11.3248 6.14854 11.1796 6.29431 10.9917 6.29431C8.7026 6.29431 6.84055 8.16357 6.84055 10.4616C6.84055 10.6416 6.69535 10.796 6.50744 10.796Z" fill="white"/>
<path opacity="0.2" d="M16.0714 7.39188C16.1995 7.90635 16.2679 8.44655 16.2679 8.99532C16.2679 12.5795 13.3723 15.4777 9.8105 15.4777C8.78552 15.4777 7.82033 15.2376 6.95764 14.8089C8.01679 15.795 9.43468 16.4038 10.9978 16.4038C14.2692 16.4038 16.9256 13.7371 16.9256 10.453C16.9256 9.32973 16.6181 8.28363 16.08 7.3833L16.0714 7.39188Z" fill="black"/>
<path opacity="0.6" d="M6.60215 11.7908C6.79557 11.7908 6.95236 11.6334 6.95236 11.4392C6.95236 11.245 6.79557 11.0876 6.60215 11.0876C6.40874 11.0876 6.25195 11.245 6.25195 11.4392C6.25195 11.6334 6.40874 11.7908 6.60215 11.7908Z" fill="white"/>
</svg>
