<svg width="27" height="30" viewBox="0 0 27 30" fill="none" xmlns="http://www.w3.org/2000/svg">
<path d="M0.947266 22.9127C0.987644 23.5917 1.27029 24.2504 1.84568 24.5848C2.61286 26.1048 5.26771 27.2905 7.20586 26.5507H7.24623C8.94211 28.0403 11.1528 28.2329 13.0102 27.0675C13.8077 27.5742 14.6758 27.8275 15.5439 27.8275C16.6745 27.8275 17.8051 27.3918 18.7742 26.5406H18.8145C19.3092 26.7432 20.036 26.7635 20.5306 26.6926C22.1457 26.4696 23.1955 26.0339 24.1747 24.5848C24.9419 24.1389 25.2245 23.3992 25.0025 22.6391C25.0025 22.6391 12.8386 20.8151 12.6872 20.7948C12.5358 20.7746 0.947266 22.9127 0.947266 22.9127Z" fill="#FCACAC"/>
<path opacity="0.2" d="M13.0107 25.3246C13.1318 25.8009 13.1318 26.2873 13.0107 26.7738C13.0107 26.8042 12.9501 26.8042 12.9501 26.7738C12.829 26.2975 12.8189 25.8111 12.9501 25.3246C12.9501 25.2942 13.0006 25.2942 13.0107 25.3246Z" fill="black"/>
<path opacity="0.2" d="M6.37787 25.0817C6.52929 25.5377 6.77156 25.9228 7.12487 26.247C7.15515 26.2673 7.12487 26.318 7.08449 26.2977C6.64033 26.0748 6.25674 25.6086 6.30721 25.0817C6.30721 25.0513 6.35768 25.0411 6.36778 25.0817H6.37787Z" fill="black"/>
<path opacity="0.2" d="M1.74383 23.9263C1.77412 24.1087 1.9861 24.3823 1.95582 24.4026C1.7943 24.3519 1.71355 24.0884 1.69336 23.9364C1.69336 23.8959 1.74383 23.8959 1.75393 23.9364L1.74383 23.9263Z" fill="black"/>
<path opacity="0.2" d="M19.5504 25.0205C19.5504 25.5272 19.3081 26.0541 18.8438 26.3075C18.8135 26.3277 18.7832 26.2872 18.8034 26.2568C19.1466 25.892 19.298 25.4765 19.4797 25.0205C19.4797 24.98 19.5504 24.98 19.5504 25.0205Z" fill="black"/>
<path opacity="0.2" d="M24.3455 23.8961C24.3455 24.0988 24.2748 24.3116 24.0931 24.4332C24.083 24.4332 24.0628 24.4332 24.0527 24.4332C24.184 24.2305 24.2445 24.2001 24.295 23.8961C24.295 23.8556 24.3556 23.8657 24.3455 23.8961Z" fill="black"/>
<path d="M22.7524 23.6732C21.3391 23.8353 20.8344 23.9772 19.5221 24.6764C18.7751 24.4433 17.2105 24.3015 16.4332 24.3015C15.2622 24.3015 14.0509 24.4839 12.9708 24.9196C11.1639 24.1799 8.28693 24.0887 6.41945 24.6663C4.40055 23.0956 1.58419 23.7238 1.51352 23.6934C1.09965 23.511 1.0088 23.2172 0.978516 22.9132C0.978516 22.8828 0.978516 22.8524 0.978516 22.822C0.978516 22.4267 1.26116 22.0113 1.65485 21.7782C3.37091 20.7547 6.85352 19.3563 13.0112 19.3563C19.1688 19.3563 22.6514 20.7648 24.3675 21.7782C24.5189 21.8694 24.6501 21.9809 24.7612 22.1126C24.8217 22.1835 24.8722 22.2646 24.9126 22.3457C24.953 22.4166 24.9832 22.4977 25.0034 22.5686C25.1145 22.974 25.0842 23.4097 24.5492 23.663C24.4583 23.7036 23.4993 23.5718 22.7725 23.663L22.7524 23.6732Z" fill="#FFCACA"/>
<path d="M25.2047 23.0749C25.2249 22.8115 25.1543 22.5074 25.0432 22.2845C24.8817 21.9602 24.5789 21.7474 24.4174 21.6562C22.5398 20.5415 19.037 19.2039 12.9803 19.2039C6.92359 19.2039 3.43089 20.5314 1.55332 21.6562C1.10916 21.9197 0.786135 22.396 0.816419 22.9432C0.856797 23.8248 1.2101 24.3923 1.72492 24.7166C2.53248 26.2569 5.18734 27.4729 7.19614 26.7332C8.17531 27.5742 9.31599 27.9999 10.4567 27.9999C11.3248 27.9999 12.1929 27.7567 12.9904 27.2601C13.7778 27.7364 14.656 27.9897 15.5241 27.9897C16.6951 27.9897 17.8257 27.554 18.7846 26.7332C19.2995 26.9156 20.0263 26.9257 20.5209 26.8649C22.1057 26.6521 23.2161 26.2265 24.2458 24.7267C24.9019 24.3315 25.1442 23.8552 25.1946 23.0952L25.2047 23.0749ZM1.14954 22.6696C1.2202 22.3453 1.39181 22.1021 1.71483 21.9197C3.56212 20.8253 7.01444 19.518 12.9904 19.518C18.9663 19.518 22.4187 20.8253 24.2659 21.9197C24.3972 22.0008 24.5183 22.1021 24.6193 22.2237C24.6697 22.2845 24.7202 22.3554 24.7606 22.4365C24.8615 22.629 24.9019 22.7912 24.8716 22.9837C24.8514 23.1357 24.7303 23.4195 24.488 23.5309C24.4476 23.5309 24.276 23.5309 24.1145 23.5208C23.7511 23.5005 23.1959 23.4701 22.7316 23.5208C21.2982 23.6829 20.7632 23.8451 19.5013 24.5139C18.7241 24.291 17.1998 24.1491 16.4225 24.1491C15.1607 24.1491 13.9595 24.3619 12.9601 24.7571C11.9406 24.3518 10.5879 24.1491 9.25542 24.1491C8.25607 24.1491 7.26681 24.2707 6.43906 24.5038C5.23781 23.6019 3.62269 23.2776 1.63407 23.5309C1.5937 23.5309 1.55332 23.5411 1.53313 23.5411C1.28077 23.4195 1.17982 23.1763 1.13944 23.0344C1.09906 22.9128 1.11925 22.7912 1.13944 22.6594L1.14954 22.6696ZM24.0742 24.4632L24.0237 24.5139C23.0445 25.9529 22.025 26.3379 20.4906 26.5508C20.0263 26.6116 19.3196 26.6014 18.8553 26.419L18.7342 26.3683L18.6635 26.4292C17.7449 27.2398 16.6648 27.6756 15.5342 27.6756C14.6863 27.6756 13.8383 27.4222 13.0913 26.946L13.0005 26.8953L12.9197 26.9358C11.1229 28.0809 8.99297 27.8783 7.34756 26.4292L7.2769 26.3683L7.15577 26.419C5.28828 27.1385 2.71418 25.963 1.98738 24.524L1.96719 24.4835L1.92681 24.4632C1.66436 24.3112 1.46247 24.0579 1.32114 23.7539C1.37162 23.7843 1.4019 23.8147 1.45237 23.8349C1.50284 23.8552 1.53313 23.8552 1.69464 23.8349C3.63278 23.5917 5.19743 23.9059 6.32802 24.7976L6.38858 24.8483L6.45925 24.828C8.32673 24.2504 11.1633 24.3619 12.9096 25.0712L12.9702 25.0915L13.0308 25.0712C14.0099 24.676 15.191 24.4632 16.4326 24.4632C17.2099 24.4632 18.7443 24.6051 19.4812 24.828H19.5013L19.5922 24.8179C20.854 24.1491 21.3587 23.9869 22.7619 23.8349C23.1959 23.7843 23.741 23.8147 24.0943 23.8349C24.4275 23.8552 24.5183 23.8552 24.589 23.8349C24.6596 23.8045 24.7202 23.7539 24.7808 23.7133C24.6495 24.0174 24.4174 24.2808 24.0742 24.4835V24.4632Z" fill="black"/>
<path d="M0.968659 16.7417C0.665824 16.5289 0.45384 16.2655 0.352895 15.9209C-0.242681 13.7625 0.474029 11.4216 2.20019 10.0029C2.53331 7.55056 4.3907 5.62518 6.7629 5.28064C8.2367 3.33498 10.7805 2.62563 13.0013 3.54779C15.2221 2.62563 17.7558 3.33498 19.2296 5.28064C21.5917 5.62518 23.4491 7.55056 23.7923 10.0029C25.5185 11.4115 26.2352 13.7523 25.6497 15.9108C25.5488 16.2553 25.3166 16.5391 25.0138 16.7316C23.6207 17.6335 18.8359 20.0048 12.8297 20.0048C6.82347 20.0048 2.28094 17.674 0.968659 16.7417Z" fill="#FFCACA"/>
<path d="M12.8282 20.1667C7.05417 20.1667 2.49145 18.0083 0.886426 16.8733C0.543213 16.6301 0.321134 16.3362 0.220189 16.0018V15.9511C-0.40567 13.7319 0.331229 11.3708 2.06748 9.93178C2.44098 7.46931 4.31856 5.52366 6.68067 5.14872C8.18475 3.20306 10.7689 2.49371 12.9998 3.38547C15.2408 2.48358 17.8149 3.20306 19.3089 5.13858C21.6811 5.51353 23.5688 7.46931 23.9322 9.92164C25.6684 11.3708 26.3952 13.7319 25.7896 15.9511V15.9815C25.6785 16.3362 25.4363 16.6504 25.093 16.8733C23.3265 18.0184 18.4912 20.1667 12.8181 20.1667H12.8282ZM1.05803 16.62C2.63278 17.7448 7.12483 19.8627 12.8282 19.8627C18.5316 19.8627 23.1953 17.7347 24.9315 16.6098C25.2243 16.4274 25.4161 16.1741 25.4968 15.8802V15.8498C26.0722 13.7319 25.3656 11.4822 23.7 10.1243L23.6495 10.0838V10.023C23.3164 7.65172 21.4893 5.76687 19.2079 5.43246L19.107 5.37165C17.6837 3.4868 15.2004 2.79772 13.0604 3.68948L12.9998 3.70974L12.9393 3.68948C10.7992 2.79772 8.30589 3.49694 6.88256 5.37165L6.84218 5.42232H6.78162C4.50026 5.76687 2.67315 7.66185 2.35013 10.023V10.1142L2.26937 10.1344C0.613875 11.4924 -0.0927402 13.7521 0.502835 15.8802V15.9005C0.593686 16.1842 0.765292 16.4072 1.05803 16.62Z" fill="black"/>
<g opacity="0.1">
<path d="M12.8878 20.0147C12.6253 15.0796 12.1811 9.89122 12.9685 5.07776C13.5338 10.0027 13.3723 15.181 12.8878 20.0147Z" fill="black"/>
<path d="M19.127 7.01343C19.3491 11.8877 16.8154 17.0862 13.1309 20.0554C16.4822 16.4883 17.9762 11.5634 19.127 7.01343Z" fill="black"/>
<path d="M23.226 11.8472C22.7112 14.0867 20.9547 15.7993 19.2387 17.1977C17.5024 18.5252 15.3422 19.8426 13.2324 20.1365C16.9371 18.1503 21.2172 15.5459 23.2361 11.8472H23.226Z" fill="black"/>
<path d="M6.94131 7.03372C7.82963 11.7762 9.64664 16.387 12.6649 20.0858C9.1722 16.8127 6.4164 11.8675 6.94131 7.03372Z" fill="black"/>
<path d="M2.82422 11.6344C4.96425 15.5865 8.71941 18.1402 12.6159 20.1466C8.46705 19.265 3.79329 15.9716 2.82422 11.6344Z" fill="black"/>
</g>
<path opacity="0.2" d="M12.9489 23.0243C15.6249 23.0243 17.7942 22.4526 17.7942 21.7474C17.7942 21.0422 15.6249 20.4706 12.9489 20.4706C10.2729 20.4706 8.10352 21.0422 8.10352 21.7474C8.10352 22.4526 10.2729 23.0243 12.9489 23.0243Z" fill="black"/>
<path d="M12.9997 22.396C16.8688 22.396 20.0053 19.2473 20.0053 15.3633C20.0053 11.4792 16.8688 8.33054 12.9997 8.33054C9.13065 8.33054 5.99414 11.4792 5.99414 15.3633C5.99414 19.2473 9.13065 22.396 12.9997 22.396Z" fill="#F25AB1"/>
<path d="M13.0008 22.5481C9.0538 22.5481 5.84375 19.3256 5.84375 15.3633C5.84375 11.4011 9.0538 8.17862 13.0008 8.17862C16.9477 8.17862 20.1578 11.4011 20.1578 15.3633C20.1578 19.3256 16.9477 22.5481 13.0008 22.5481ZM13.0008 8.48263C9.22541 8.48263 6.14658 11.5632 6.14658 15.3633C6.14658 19.1634 9.21531 22.2441 13.0008 22.2441C16.7862 22.2441 19.8549 19.1634 19.8549 15.3633C19.8549 11.5632 16.7862 8.48263 13.0008 8.48263Z" fill="black"/>
<path opacity="0.6" d="M7.69056 15.7588C7.47858 15.7588 7.29688 15.5865 7.29688 15.3635C7.29688 12.212 9.85078 9.64819 12.9902 9.64819C13.2022 9.64819 13.3839 9.82046 13.3839 10.0434C13.3839 10.2663 13.2123 10.4386 12.9902 10.4386C10.2848 10.4386 8.08425 12.6477 8.08425 15.3635C8.08425 15.5764 7.91264 15.7588 7.69056 15.7588Z" fill="white"/>
<path opacity="0.2" d="M18.9954 11.7355C19.1469 12.3436 19.2276 12.982 19.2276 13.6305C19.2276 17.8664 15.8056 21.2915 11.5962 21.2915C10.3848 21.2915 9.24415 21.0078 8.22461 20.5011C9.47633 21.6665 11.152 22.386 12.9993 22.386C16.8655 22.386 20.0049 19.2344 20.0049 15.3532C20.0049 14.0257 19.6415 12.7894 19.0055 11.7254L18.9954 11.7355Z" fill="black"/>
<path opacity="0.6" d="M7.80059 16.9339C8.02917 16.9339 8.21447 16.7479 8.21447 16.5184C8.21447 16.289 8.02917 16.1029 7.80059 16.1029C7.57202 16.1029 7.38672 16.289 7.38672 16.5184C7.38672 16.7479 7.57202 16.9339 7.80059 16.9339Z" fill="white"/>
</svg>
