<svg width="18" height="23" viewBox="0 0 18 23" fill="none" xmlns="http://www.w3.org/2000/svg">
<path d="M18 5H0V23H18V5Z" fill="#C1C1C1"/>
<path d="M18 5H0V23H18V5Z" fill="#000D42"/>
<path d="M9 12C5.69388 12 3 9.49565 3 6.42213V5.57787C3 2.50435 5.69388 0 9 0C12.3061 0 15 2.50435 15 5.57787V6.42213C15 9.49565 12.3061 12 9 12ZM9 1.42292C6.53061 1.42292 4.53061 3.2917 4.53061 5.57787V6.42213C4.53061 8.71779 6.53061 10.5771 9 10.5771C11.4694 10.5771 13.4694 8.7083 13.4694 6.42213V5.57787C13.4694 3.28221 11.4592 1.42292 9 1.42292Z" fill="#000D42"/>
</svg>
