<svg width="19" height="24" viewBox="0 0 19 24" fill="none" xmlns="http://www.w3.org/2000/svg">
<path d="M18.623 5.5H0.623047V23.5H18.623V5.5Z" fill="#C1C1C1"/>
<path d="M9.50305 13.15C6.26305 13.15 3.62305 10.51 3.62305 7.27V6.38C3.62305 3.14 6.26305 0.5 9.50305 0.5C12.743 0.5 15.383 3.14 15.383 6.38V7.27C15.383 10.51 12.743 13.15 9.50305 13.15ZM9.50305 2C7.08305 2 5.12305 3.97 5.12305 6.38V7.27C5.12305 9.69 7.08305 11.65 9.50305 11.65C11.923 11.65 13.883 9.68 13.883 7.27V6.38C13.883 3.96 11.913 2 9.50305 2Z" fill="#C1C1C1"/>
</svg>
