<svg width="277" height="247" viewBox="0 0 277 247" fill="none" xmlns="http://www.w3.org/2000/svg">
<path d="M1 195.766C1.97127 195.061 2.70674 194.369 4.59876 194.369C7.57433 194.369 7.57433 196.363 10.5499 196.363C13.5255 196.363 13.5311 194.369 16.5067 194.369C19.4822 194.369 19.4822 196.363 22.4578 196.363C25.4334 196.363 25.4334 194.369 28.4146 194.369C29.9023 194.369 30.9747 195.088 32.44 196.336" stroke="white" stroke-opacity="0.1" stroke-width="2" stroke-miterlimit="10"/>
<path d="M48.1602 244.615C49.1314 243.91 49.8669 243.218 51.7589 243.218C54.7345 243.218 54.7345 245.212 57.7101 245.212C60.6856 245.212 60.6912 243.218 63.6668 243.218C66.6424 243.218 66.6424 245.212 69.618 245.212C72.5935 245.212 72.5935 243.218 75.5747 243.218C77.0625 243.218 78.1348 243.937 79.6002 245.185" stroke="white" stroke-opacity="0.1" stroke-width="2" stroke-miterlimit="10"/>
<path d="M39.0421 180.412C42.0177 180.412 42.0233 178.418 44.9988 178.418C47.9744 178.418 47.9744 180.412 50.95 180.412C53.9256 180.412 53.9256 178.418 56.9067 178.418C58.3945 178.418 59.4669 179.137 60.9322 180.385" stroke="white" stroke-opacity="0.1" stroke-width="2" stroke-miterlimit="10"/>
<path d="M236.801 188.787C237.772 188.082 238.508 187.391 240.4 187.391C243.375 187.391 243.375 189.385 246.351 189.385C249.326 189.385 249.332 187.391 252.307 187.391C255.283 187.391 255.283 189.385 258.259 189.385C261.234 189.385 261.234 187.391 264.215 187.391C265.703 187.391 266.775 188.109 268.241 189.358" stroke="white" stroke-opacity="0.1" stroke-width="2" stroke-miterlimit="10"/>
<path d="M244.66 213.71C245.631 213.005 246.367 212.314 248.259 212.314C251.234 212.314 251.234 214.308 254.21 214.308C257.186 214.308 257.191 212.314 260.167 212.314C263.142 212.314 263.142 214.308 266.118 214.308C269.094 214.308 269.094 212.314 272.075 212.314C273.563 212.314 274.635 213.032 276.1 214.281" stroke="white" stroke-opacity="0.1" stroke-width="2" stroke-miterlimit="10"/>
<path d="M250.34 87.4393C251.898 87.4393 253.16 86.1583 253.16 84.5781C253.16 82.9979 251.898 81.7169 250.34 81.7169C248.783 81.7169 247.521 82.9979 247.521 84.5781C247.521 86.1583 248.783 87.4393 250.34 87.4393Z" fill="white" fill-opacity="0.2"/>
<path d="M248.307 70.352C249.283 70.352 250.075 69.5486 250.075 68.5575C250.075 67.5665 249.283 66.7631 248.307 66.7631C247.33 66.7631 246.538 67.5665 246.538 68.5575C246.538 69.5486 247.33 70.352 248.307 70.352Z" fill="white" fill-opacity="0.2"/>
<path d="M260.37 61.27C261.059 61.27 261.618 60.7031 261.618 60.0039C261.618 59.3046 261.059 58.7378 260.37 58.7378C259.681 58.7378 259.122 59.3046 259.122 60.0039C259.122 60.7031 259.681 61.27 260.37 61.27Z" fill="white" fill-opacity="0.2"/>
<path d="M261.363 46.9642C261.944 46.9642 262.415 46.4866 262.415 45.8975C262.415 45.3083 261.944 44.8308 261.363 44.8308C260.783 44.8308 260.312 45.3083 260.312 45.8975C260.312 46.4866 260.783 46.9642 261.363 46.9642Z" fill="white" fill-opacity="0.2"/>
<path d="M25.5181 55.3838C25.5413 57.8613 27.5396 59.8506 29.9813 59.827C32.4229 59.8033 34.3834 57.7758 34.3602 55.2983C34.3369 52.8207 32.3387 50.8314 29.897 50.8551C27.4553 50.8787 25.4948 52.9063 25.5181 55.3838Z" fill="white" fill-opacity="0.2"/>
<path d="M40.7043 81.7169C44.2313 81.7169 47.0905 78.8157 47.0905 75.2369C47.0905 71.6581 44.2313 68.7569 40.7043 68.7569C37.1772 68.7569 34.318 71.6581 34.318 75.2369C34.318 78.8157 37.1772 81.7169 40.7043 81.7169Z" fill="white" fill-opacity="0.2"/>
<ellipse cx="38.248" cy="78.7262" rx="0.9825" ry="0.996923" fill="#D9D9D9" fill-opacity="0.3"/>
<path d="M36.7743 75.7354C36.7743 73.2577 38.7537 71.2492 41.1955 71.2492" stroke="white" stroke-opacity="0.3" stroke-width="1.5"/>
<path d="M231.264 98.4422C227.762 98.8699 225.265 102.097 225.687 105.65C226.108 109.203 229.289 111.737 232.79 111.309C236.292 110.882 238.789 107.654 238.368 104.101C237.946 100.548 234.766 98.0144 231.264 98.4422Z" fill="white" fill-opacity="0.2"/>
<ellipse cx="0.982708" cy="0.996719" rx="0.982708" ry="0.996719" transform="matrix(-0.992623 0.121242 -0.117808 -0.993036 235.147 101.984)" fill="#D9D9D9" fill-opacity="0.3"/>
<path d="M235.87 103.904C236.162 106.364 234.433 108.598 232.009 108.894" stroke="white" stroke-opacity="0.3" stroke-width="1.5"/>
<ellipse cx="0.498461" cy="0.491251" rx="0.498461" ry="0.491251" transform="matrix(0.00939397 0.999956 -0.999953 0.00967178 28.4422 52.8631)" fill="#D9D9D9" fill-opacity="0.3"/>
<path d="M29.4239 52.8536C31.0517 52.8379 32.3838 54.1641 32.3993 55.8158" stroke="white" stroke-opacity="0.3"/>
<path d="M40.0853 40.5839C41.6426 40.5839 42.9051 39.3029 42.9051 37.7227C42.9051 36.1425 41.6426 34.8615 40.0853 34.8615C38.528 34.8615 37.2655 36.1425 37.2655 37.7227C37.2655 39.3029 38.528 40.5839 40.0853 40.5839Z" fill="white" fill-opacity="0.2"/>
<path d="M32.1565 20.5058C33.1332 20.5058 33.925 19.7024 33.925 18.7114C33.925 17.7203 33.1332 16.9169 32.1565 16.9169C31.1798 16.9169 30.388 17.7203 30.388 18.7114C30.388 19.7024 31.1798 20.5058 32.1565 20.5058Z" fill="white" fill-opacity="0.2"/>
<path d="M41.716 16.7375C42.4051 16.7375 42.9638 16.1706 42.9638 15.4714C42.9638 14.7722 42.4051 14.2053 41.716 14.2053C41.0269 14.2053 40.4682 14.7722 40.4682 15.4714C40.4682 16.1706 41.0269 16.7375 41.716 16.7375Z" fill="white" fill-opacity="0.2"/>
<path d="M37.3832 3.09956C37.9638 3.09956 38.4345 2.62197 38.4345 2.03285C38.4345 1.44372 37.9638 0.966141 37.3832 0.966141C36.8026 0.966141 36.3319 1.44372 36.3319 2.03285C36.3319 2.62197 36.8026 3.09956 37.3832 3.09956Z" fill="white" fill-opacity="0.2"/>
</svg>
