<svg width="120" height="98" viewBox="0 0 120 98" fill="none" xmlns="http://www.w3.org/2000/svg">
<path d="M59.9993 0.437866H60.0285H60.0577C85.2742 0.437866 105.716 20.8795 105.716 46.096C105.716 60.9924 98.577 74.8673 87.539 83.2027C89.9614 85.0823 93.201 85.9637 99.079 86.3198C109.662 86.9677 112.68 83.7106 116.118 84.8838C119.556 86.0571 119.562 89.215 119.562 90.0555C119.562 94.305 114.653 100.37 101.081 101.981C94.1408 102.804 89.1384 101.566 89.1384 101.566C89.1384 101.566 88.5196 109.692 99.3942 119.778C103.62 123.701 105.173 124.442 105.984 127.005C106.807 129.614 106.049 134.587 99.0382 135.299C92.4247 135.976 86.249 132.766 79.8048 123.899C77.178 120.28 76.4951 116.696 76.1274 115.774C76.4893 118.99 76.8103 122.107 77.9252 126.187C78.7599 129.252 79.5246 131.587 82.0404 136.169C83.272 138.416 83.6339 142.456 80.0791 144.866C77.3882 146.693 72.4208 147.405 68.148 143.722C63.2915 139.537 62.521 134.412 61.0267 126.252C60.4605 123.175 60.011 117.648 60.011 117.648C60.011 117.648 59.5616 123.175 59.0012 126.252C57.501 134.418 56.7364 139.543 51.8799 143.722C47.6071 147.405 42.6397 146.688 39.9487 144.866C36.3939 142.456 36.75 138.416 37.9875 136.169C40.5033 131.581 41.2679 129.252 42.1027 126.187C43.2175 122.107 43.5386 118.984 43.9005 115.774C43.5328 116.69 42.8498 120.28 40.2231 123.899C33.7789 132.766 27.6032 135.971 20.9897 135.299C13.9735 134.581 13.2205 129.608 14.0435 127.005C14.8549 124.442 16.4017 123.701 20.6336 119.778C31.5082 109.692 30.8895 101.566 30.8895 101.566C30.8895 101.566 25.8871 102.804 18.9467 101.981C5.36951 100.37 0.466309 94.305 0.466309 90.0555C0.466309 89.215 0.472146 86.0571 3.91022 84.8838C7.3483 83.7106 10.3661 86.9677 20.9488 86.3198C26.8268 85.9579 30.0665 85.0823 32.4889 83.2027C21.4508 74.8673 14.312 60.9924 14.312 46.096C14.2887 20.8795 34.7303 0.437866 59.9468 0.437866H59.976H60.0052H59.9993Z" fill="#A9C0FF"/>
<path d="M74.9664 146.804C72.6549 146.804 70.1274 146.022 67.851 144.061C63.0703 139.94 62.1481 134.908 60.7588 127.285L60.5837 126.333C60.3677 125.148 60.1634 123.596 60 122.131C59.8366 123.596 59.6323 125.148 59.4163 126.333L59.2412 127.285C57.8519 134.908 56.9297 139.94 52.149 144.061C47.8529 147.761 42.6754 147.265 39.6867 145.234C35.8401 142.625 36.3245 138.259 37.5854 135.965C40.1362 131.318 40.8542 129.036 41.6597 126.076C42.2901 123.765 42.6637 121.786 42.9322 119.907C42.3893 121.202 41.6363 122.673 40.5506 124.156C34.2815 132.783 28.0416 136.461 20.9203 135.731C17.062 135.34 15.2174 133.682 14.3535 132.369C13.1161 130.484 13.1511 128.289 13.6005 126.87C14.2426 124.833 15.3692 123.847 17.6107 121.88C18.3812 121.202 19.2567 120.438 20.3133 119.457C25.8352 114.332 28.2926 109.75 29.3783 106.802C30.2072 104.555 30.3882 102.897 30.4232 102.109C28.9406 102.407 24.5744 103.096 18.8656 102.419C3.97509 100.644 0 93.8087 0 90.0496C0 86.489 2.03716 85.0472 3.74161 84.4635C5.38185 83.9031 6.89367 84.2708 8.98336 84.7728C11.5459 85.3916 15.0482 86.238 20.897 85.8761C26.308 85.5433 29.4309 84.7787 31.7365 83.1851C20.5292 74.4878 13.8515 60.6654 13.8515 46.0842C13.8515 20.6752 34.5325 0 59.9475 0H60.0292C85.4733 0 106.148 20.6752 106.148 46.0959C106.148 60.6771 99.4766 74.4995 88.2635 83.1968C90.5691 84.7903 93.692 85.555 99.103 85.8877C104.946 86.2438 108.454 85.3974 111.017 84.7845C113.106 84.2825 114.618 83.9148 116.258 84.4751C117.963 85.0589 120 86.5006 120 90.0613C120 93.8204 116.025 100.656 101.129 102.419C95.4256 103.096 91.0594 102.407 89.571 102.109C89.606 102.897 89.7869 104.555 90.6158 106.802C91.7015 109.744 94.159 114.332 99.6809 119.457C100.737 120.438 101.613 121.202 102.383 121.88C104.625 123.847 105.752 124.839 106.394 126.87C106.843 128.295 106.878 130.484 105.641 132.369C104.777 133.688 102.932 135.34 99.0738 135.731C91.9467 136.461 85.7126 132.778 79.4435 124.156C78.3637 122.668 77.6048 121.197 77.062 119.907C77.3363 121.792 77.7041 123.771 78.3345 126.076C79.14 129.036 79.8638 131.318 82.4088 135.965C83.6696 138.264 84.1541 142.625 80.3074 145.234C78.9007 146.185 77.0094 146.804 74.9606 146.804H74.9664ZM43.8778 115.336C43.9128 115.336 43.9479 115.336 43.9829 115.348C44.193 115.4 44.3331 115.605 44.3098 115.821L44.2572 116.264C43.9187 119.27 43.5684 122.376 42.5002 126.304C41.6772 129.322 40.9417 131.657 38.3442 136.385C37.2351 138.399 36.809 142.228 40.1712 144.51C42.8972 146.361 47.6253 146.798 51.5712 143.401C56.1183 139.484 56.9705 134.838 58.3773 127.133L58.5524 126.182C59.1069 123.164 59.5564 117.677 59.5564 117.624C59.5739 117.397 59.7665 117.222 59.9942 117.222C60.2218 117.222 60.4144 117.397 60.4319 117.624C60.4319 117.677 60.8872 123.164 61.4418 126.182L61.6169 127.133C63.0236 134.832 63.87 139.484 68.423 143.401C72.3689 146.804 77.1028 146.361 79.8229 144.51C83.1851 142.228 82.7532 138.405 81.65 136.385C79.0524 131.657 78.317 129.322 77.4939 126.304C76.4257 122.376 76.0755 119.27 75.7369 116.264L75.6844 115.821C75.6611 115.605 75.8011 115.4 76.0113 115.348C76.2273 115.295 76.4432 115.406 76.525 115.61C76.6067 115.815 76.6942 116.101 76.811 116.498C77.2604 118.004 78.0951 120.806 80.1557 123.642C86.2205 131.989 92.2035 135.556 98.9921 134.861C101.776 134.575 103.825 133.548 104.917 131.884C105.991 130.256 105.956 128.359 105.565 127.127C104.993 125.323 104.065 124.506 101.811 122.527C101.035 121.845 100.16 121.074 99.0913 120.088C88.1876 109.972 88.6721 101.864 88.7012 101.525C88.7129 101.397 88.7771 101.28 88.8822 101.204C88.9873 101.129 89.1215 101.105 89.2441 101.134C89.2908 101.146 94.264 102.343 101.029 101.543C109.744 100.51 119.124 96.4705 119.124 90.0555C119.124 87.6097 118.062 86.0103 115.978 85.2982C114.577 84.8195 113.246 85.1406 111.227 85.6309C108.612 86.2613 105.034 87.1252 99.0563 86.7575C93.0791 86.3897 89.7753 85.4908 87.2711 83.547C87.1661 83.4653 87.1019 83.3369 87.1019 83.1968C87.1019 83.0626 87.1661 82.9341 87.277 82.8524C98.5485 74.3419 105.279 60.6012 105.279 46.0959C105.273 21.1596 84.9888 0.875572 60.0584 0.875572H59.9767C35.0112 0.875572 14.7271 21.1596 14.7271 46.0959C14.7271 60.6012 21.4573 74.3419 32.7289 82.8524C32.8398 82.9341 32.904 83.0626 32.904 83.1968C32.904 83.3311 32.8398 83.4595 32.7347 83.547C30.2306 85.4908 26.9267 86.3897 20.9495 86.7575C14.9723 87.1252 11.3941 86.2613 8.77906 85.6309C6.75941 85.1464 5.42271 84.8195 4.02763 85.2982C1.93793 86.0103 0.881409 87.6097 0.881409 90.0555C0.881409 96.4763 10.2617 100.51 18.9766 101.543C25.7418 102.348 30.7151 101.146 30.7617 101.134C30.8843 101.105 31.0186 101.134 31.1236 101.204C31.2287 101.274 31.2929 101.397 31.3046 101.525C31.328 101.864 31.8183 109.978 20.9145 120.088C19.8463 121.074 18.9707 121.845 18.1944 122.527C15.9412 124.506 15.0131 125.323 14.4411 127.127C14.05 128.359 14.0208 130.256 15.089 131.884C16.1806 133.548 18.2294 134.575 21.0137 134.861C27.8023 135.556 33.7795 131.989 39.8502 123.642C41.9107 120.806 42.7454 118.004 43.1949 116.498C43.3116 116.101 43.3992 115.815 43.4809 115.61C43.5509 115.441 43.7144 115.336 43.8895 115.336H43.8778Z" fill="#231815"/>
<path d="M45.069 54.4674C46.3198 54.4674 47.3338 53.0196 47.3338 51.2337C47.3338 49.4477 46.3198 47.9999 45.069 47.9999C43.8182 47.9999 42.8042 49.4477 42.8042 51.2337C42.8042 53.0196 43.8182 54.4674 45.069 54.4674Z" fill="#231815"/>
<path d="M74.9308 54.4674C76.1816 54.4674 77.1956 53.0196 77.1956 51.2337C77.1956 49.4477 76.1816 47.9999 74.9308 47.9999C73.68 47.9999 72.666 49.4477 72.666 51.2337C72.666 53.0196 73.68 54.4674 74.9308 54.4674Z" fill="#231815"/>
<path d="M74.8607 61.4723C75.6896 61.6999 76.2616 62.5697 76.1974 63.5211C75.5612 73.1291 69.1929 77.3727 59.9935 77.3727C50.7942 77.3727 44.4667 73.1583 43.7954 63.6145C43.7254 62.628 44.3441 61.735 45.208 61.5423C47.0059 61.1454 50.0529 60.766 52.055 60.766C54.565 60.766 58.5459 61.4898 59.7484 61.7933C59.9877 61.8517 60.227 61.8575 60.4663 61.805C61.7855 61.5131 66.4319 60.766 69.1111 60.766C71.0958 60.766 73.4189 61.0754 74.8607 61.4665V61.4723Z" fill="#F482A0"/>
<path d="M59.9999 77.5946C50.0475 77.5946 44.2162 72.6331 43.5858 63.6322C43.5099 62.5406 44.1929 61.5483 45.1677 61.3323C46.8897 60.9471 49.9425 60.5502 52.0614 60.5502C54.6239 60.5502 58.6398 61.2915 59.8073 61.5833C60.0116 61.6359 60.2159 61.6359 60.4202 61.595C61.7277 61.309 66.3799 60.5502 69.1117 60.5502C71.0379 60.5502 73.3669 60.8362 74.9196 61.2623C75.8594 61.5191 76.4898 62.4764 76.4198 63.5388C75.8185 72.6039 69.9872 77.5946 59.9999 77.5946ZM52.0614 60.988C50.0009 60.988 46.9305 61.3849 45.2611 61.7585C44.4906 61.9277 43.9594 62.7216 44.0178 63.5972C44.4556 69.7787 47.5784 77.151 59.9999 77.151C72.4213 77.151 75.5734 69.732 75.982 63.5038C76.0403 62.6632 75.5325 61.8752 74.8029 61.6767C73.3086 61.2681 70.9679 60.9821 69.1117 60.9821C66.5375 60.9821 61.9203 61.7059 60.5135 62.0153C60.245 62.0737 59.9649 62.0737 59.6963 62.0036C58.5464 61.7118 54.583 60.9821 52.0614 60.9821V60.988Z" fill="#231815"/>
<path d="M72.4162 66.8364C72.7022 66.8364 72.8307 67.1341 72.6088 67.2917C71.1437 68.3074 67.0869 70.6306 60.6369 70.6306C54.934 70.6306 50.2001 68.5642 48.3322 67.6186C48.0695 67.4844 48.1804 67.1458 48.4839 67.1458L72.4162 66.8364Z" fill="#A0444D"/>
</svg>
