<svg width="205" height="280" viewBox="0 0 205 280" fill="none" xmlns="http://www.w3.org/2000/svg">
<path d="M102.756 279.945C125.818 279.945 144.512 275.928 144.512 270.972C144.512 266.017 125.818 262 102.756 262C79.6949 262 61 266.017 61 270.972C61 275.928 79.6949 279.945 102.756 279.945Z" fill="black" fill-opacity="0.15"/>
<path d="M102.5 0.747971H102.55H102.599C145.678 0.747971 180.599 35.6692 180.599 78.7473C180.599 104.195 168.403 127.898 149.547 142.138C153.685 145.349 159.219 146.855 169.261 147.463C187.34 148.57 192.495 143.005 198.368 145.01C204.242 147.014 204.252 152.409 204.252 153.845C204.252 161.104 195.866 171.465 172.681 174.217C160.825 175.623 152.279 173.509 152.279 173.509C152.279 173.509 151.222 187.39 169.799 204.621C177.019 211.322 179.671 212.589 181.057 216.966C182.463 221.424 181.167 229.92 169.191 231.136C157.893 232.293 147.343 226.808 136.334 211.661C131.847 205.479 130.68 199.356 130.052 197.781C130.67 203.275 131.218 208.6 133.123 215.57C134.549 220.805 135.855 224.794 140.153 232.622C142.257 236.461 142.875 243.362 136.803 247.48C132.206 250.601 123.72 251.818 116.42 245.525C108.124 238.376 106.807 229.62 104.255 215.68C103.287 210.425 102.52 200.981 102.52 200.981C102.52 200.981 101.752 210.425 100.795 215.68C98.2318 229.63 96.9254 238.386 88.6289 245.525C81.3296 251.818 72.8436 250.591 68.2466 247.48C62.1738 243.362 62.7821 236.461 64.8961 232.622C69.1939 224.784 70.5002 220.805 71.9262 215.57C73.8308 208.6 74.3792 203.265 74.9975 197.781C74.3693 199.346 73.2026 205.479 68.7153 211.661C57.7064 226.808 47.1563 232.283 35.8582 231.136C23.8721 229.91 22.5858 221.414 23.9918 216.966C25.3779 212.589 28.0204 211.322 35.25 204.621C53.8274 187.39 52.7704 173.509 52.7704 173.509C52.7704 173.509 44.2246 175.623 32.3681 174.217C9.17373 171.465 0.797424 161.104 0.797424 153.845C0.797424 152.409 0.807396 147.014 6.68078 145.01C12.5542 143.005 17.7096 148.57 35.7884 147.463C45.83 146.845 51.3644 145.349 55.5027 142.138C36.646 127.898 24.4505 104.195 24.4505 78.7473C24.4106 35.6692 59.3318 0.747971 102.41 0.747971H102.46H102.51H102.5Z" fill="#A9C0FF"/>
<path d="M128.068 250.79C124.119 250.79 119.801 249.454 115.912 246.104C107.745 239.064 106.17 230.468 103.796 217.445L103.497 215.819C103.128 213.795 102.779 211.143 102.5 208.64C102.221 211.143 101.872 213.795 101.503 215.819L101.204 217.445C98.8304 230.468 97.2548 239.064 89.0879 246.104C81.7487 252.426 72.9037 251.578 67.7982 248.108C61.2268 243.651 62.0544 236.192 64.2083 232.273C68.566 224.335 69.7925 220.436 71.1686 215.381C72.2456 211.432 72.8838 208.051 73.3425 204.84C72.4151 207.054 71.1288 209.567 69.274 212.1C58.5643 226.838 47.9045 233.12 35.7389 231.874C29.1475 231.206 25.9965 228.374 24.5206 226.13C22.4066 222.909 22.4664 219.16 23.2343 216.737C24.3312 213.257 26.2557 211.571 30.0849 208.211C31.4012 207.054 32.8969 205.748 34.7018 204.073C44.1351 195.317 48.3333 187.49 50.188 182.454C51.604 178.615 51.9131 175.783 51.973 174.436C49.4401 174.945 41.9812 176.122 32.2288 174.965C6.79079 171.934 0 160.257 0 153.835C0 147.752 3.48015 145.289 6.39192 144.292C9.19399 143.334 11.7767 143.963 15.3466 144.82C19.7242 145.877 25.7073 147.323 35.699 146.705C44.9428 146.137 50.2778 144.83 54.2166 142.108C35.0708 127.25 23.6631 103.637 23.6631 78.7273C23.6631 35.3201 58.9931 0 102.41 0H102.55C146.017 0 181.337 35.3201 181.337 78.7472C181.337 103.657 169.939 127.27 150.783 142.128C154.722 144.85 160.057 146.156 169.301 146.725C179.283 147.333 185.276 145.887 189.653 144.84C193.223 143.983 195.806 143.354 198.608 144.312C201.52 145.309 205 147.772 205 153.855C205 160.277 198.209 171.953 172.761 174.965C163.019 176.122 155.56 174.945 153.017 174.436C153.077 175.783 153.386 178.615 154.802 182.454C156.657 187.48 160.855 195.317 170.288 204.073C172.093 205.748 173.589 207.054 174.905 208.211C178.734 211.571 180.659 213.267 181.756 216.737C182.524 219.17 182.583 222.909 180.469 226.13C178.994 228.384 175.842 231.206 169.251 231.874C157.076 233.12 146.426 226.828 135.716 212.1C133.871 209.557 132.575 207.044 131.648 204.84C132.116 208.061 132.744 211.442 133.821 215.381C135.197 220.436 136.434 224.335 140.782 232.273C142.936 236.202 143.763 243.651 137.192 248.108C134.789 249.733 131.558 250.79 128.058 250.79H128.068ZM74.9579 197.033C75.0178 197.033 75.0776 197.033 75.1374 197.052C75.4964 197.142 75.7357 197.491 75.6958 197.86L75.6061 198.618C75.0277 203.754 74.4294 209.059 72.6046 215.77C71.1986 220.925 69.9421 224.914 65.5047 232.991C63.61 236.431 62.8821 242.973 68.6258 246.872C73.2827 250.033 81.3598 250.78 88.1007 244.977C95.8688 238.286 97.3246 230.348 99.7278 217.186L100.027 215.56C100.974 210.405 101.742 201.031 101.742 200.941C101.772 200.553 102.101 200.253 102.49 200.253C102.879 200.253 103.208 200.553 103.238 200.941C103.238 201.031 104.016 210.405 104.963 215.56L105.262 217.186C107.665 230.338 109.111 238.286 116.889 244.977C123.63 250.79 131.717 250.033 136.364 246.872C142.108 242.973 141.37 236.441 139.485 232.991C135.048 224.914 133.791 220.925 132.385 215.77C130.561 209.059 129.962 203.754 129.384 198.618L129.294 197.86C129.254 197.491 129.494 197.142 129.853 197.052C130.222 196.963 130.591 197.152 130.73 197.501C130.87 197.85 131.019 198.339 131.219 199.017C131.987 201.59 133.413 206.376 136.933 211.222C147.293 225.482 157.514 231.575 169.112 230.388C173.868 229.9 177.368 228.145 179.233 225.303C181.068 222.52 181.008 219.28 180.34 217.176C179.363 214.094 177.777 212.698 173.928 209.318C172.602 208.151 171.106 206.835 169.281 205.15C150.654 187.868 151.481 174.018 151.531 173.439C151.551 173.22 151.661 173.02 151.84 172.891C152.02 172.761 152.249 172.721 152.459 172.771C152.538 172.791 161.034 174.835 172.592 173.469C187.48 171.704 203.504 164.804 203.504 153.845C203.504 149.667 201.689 146.934 198.129 145.718C195.736 144.9 193.463 145.448 190.012 146.286C185.545 147.363 179.432 148.839 169.221 148.211C159.01 147.582 153.366 146.047 149.088 142.726C148.909 142.587 148.799 142.367 148.799 142.128C148.799 141.899 148.909 141.679 149.098 141.54C168.354 127.001 179.851 103.527 179.851 78.7472C179.841 36.1477 145.189 1.49577 102.6 1.49577H102.46C59.8108 1.49577 25.1588 36.1477 25.1588 78.7472C25.1588 103.527 36.6563 127.001 55.9118 141.54C56.1013 141.679 56.211 141.899 56.211 142.128C56.211 142.357 56.1013 142.577 55.9218 142.726C51.6439 146.047 45.9999 147.582 35.7887 148.211C25.5776 148.839 19.4649 147.363 14.9976 146.286C11.5473 145.458 9.26379 144.9 6.88053 145.718C3.31063 146.934 1.50574 149.667 1.50574 153.845C1.50574 164.814 17.5304 171.704 32.4183 173.469C43.9756 174.845 52.4715 172.791 52.5513 172.771C52.7607 172.721 52.9901 172.771 53.1696 172.891C53.3491 173.01 53.4588 173.22 53.4787 173.439C53.5186 174.018 54.3562 187.878 35.7289 205.15C33.9041 206.835 32.4083 208.151 31.0821 209.318C27.233 212.698 25.6474 214.094 24.6702 217.176C24.0021 219.28 23.9522 222.52 25.7771 225.303C27.6418 228.145 31.1419 229.9 35.8984 230.388C47.4956 231.575 57.7067 225.482 68.0774 211.222C71.5974 206.376 73.0234 201.59 73.7912 199.017C73.9907 198.339 74.1402 197.85 74.2798 197.501C74.3995 197.212 74.6787 197.033 74.9779 197.033H74.9579Z" fill="#231815"/>
<path d="M76.9922 73.4923C79.129 73.4923 80.8613 71.0189 80.8613 67.9679C80.8613 64.9169 79.129 62.4435 76.9922 62.4435C74.8554 62.4435 73.1232 64.9169 73.1232 67.9679C73.1232 71.0189 74.8554 73.4923 76.9922 73.4923Z" fill="#231815"/>
<path d="M128.008 73.4923C130.144 73.4923 131.877 71.0189 131.877 67.9679C131.877 64.9169 130.144 62.4435 128.008 62.4435C125.871 62.4435 124.139 64.9169 124.139 67.9679C124.139 71.0189 125.871 73.4923 128.008 73.4923Z" fill="#231815"/>
<path d="M127.888 85.4586C129.304 85.8475 130.281 87.3333 130.172 88.9587C129.085 105.372 118.206 112.622 102.49 112.622C86.7746 112.622 75.9652 105.422 74.8184 89.1183C74.6987 87.433 75.7557 85.9073 77.2316 85.5783C80.3029 84.9002 85.5082 84.252 88.9285 84.252C93.2164 84.252 100.017 85.4885 102.071 86.0071C102.48 86.1068 102.889 86.1168 103.298 86.027C105.551 85.5284 113.489 84.252 118.066 84.252C121.456 84.252 125.425 84.7805 127.888 85.4486V85.4586Z" fill="#F482A0"/>
<path d="M102.5 113C85.4982 113 75.5364 104.524 74.4595 89.1478C74.3298 87.2831 75.4965 85.5879 77.1618 85.2189C80.1035 84.5608 85.3188 83.8827 88.9385 83.8827C93.3161 83.8827 100.177 85.1491 102.171 85.6477C102.52 85.7374 102.869 85.7375 103.218 85.6676C105.452 85.179 113.399 83.8827 118.066 83.8827C121.357 83.8827 125.336 84.3713 127.988 85.0992C129.593 85.538 130.67 87.1734 130.551 88.9882C129.524 104.474 119.562 113 102.5 113ZM88.9385 84.6306C85.4185 84.6306 80.1733 85.3087 77.3214 85.9469C76.0051 86.236 75.0977 87.5922 75.1974 89.088C75.9453 99.6481 81.2802 112.242 102.5 112.242C123.72 112.242 129.105 99.5683 129.803 88.9284C129.903 87.4925 129.035 86.1463 127.789 85.8073C125.236 85.1092 121.237 84.6206 118.066 84.6206C113.669 84.6206 105.781 85.8571 103.378 86.3856C102.919 86.4853 102.44 86.4853 101.982 86.3657C100.017 85.8671 93.2463 84.6206 88.9385 84.6206V84.6306Z" fill="#231815"/>
<path d="M123.71 94.6221C124.199 94.6221 124.418 95.1307 124.039 95.3999C121.536 97.135 114.606 101.104 103.587 101.104C93.8445 101.104 85.7574 97.5738 82.5664 95.9584C82.1177 95.729 82.3071 95.1506 82.8257 95.1506L123.71 94.6221Z" fill="#A0444D"/>
</svg>
