<svg width="40" height="40" viewBox="0 0 40 40" fill="none" xmlns="http://www.w3.org/2000/svg">
<path d="M20 40C31.0457 40 40 31.0457 40 20C40 8.95431 31.0457 0 20 0C8.95431 0 0 8.95431 0 20C0 31.0457 8.95431 40 20 40Z" fill="#00E2CC"/>
<mask id="mask0_105_301" style="mask-type:luminance" maskUnits="userSpaceOnUse" x="0" y="0" width="40" height="40">
<path d="M40 20C40 23.1941 38.1588 26.7765 35.9882 29.8824C35.9588 29.9235 38.3824 32.3294 38.3824 32.3294L36.8294 35.5588L31.7412 37.3353L29.1353 37.7941C29.1353 37.7941 29.1176 37.8 29.1118 37.8059C26.3765 39.2059 23.2765 40 19.9941 40C15.8176 40 11.9471 38.7235 8.74118 36.5353L8.72941 36.5294L6.26471 36.5588L2.17647 34.6588L2.03529 30.5294C2.03529 30.5294 4.61176 31.2059 4.45882 30.9824C2.24706 27.6882 0 23.4824 0 20C0 8.95294 8.95294 0 20 0C31.0471 0 40 8.95294 40 20Z" fill="white"/>
</mask>
<g mask="url(#mask0_105_301)">
<path d="M20.0534 6.21216H20.0593H20.0651C27.5416 6.21216 33.6063 12.2769 33.6063 19.7533C33.6063 24.171 31.4887 28.2886 28.2181 30.7592C28.9357 31.318 29.8946 31.5769 31.6416 31.6827C34.7828 31.8769 35.6769 30.9063 36.6946 31.2533C37.7122 31.6004 37.7181 32.5357 37.7181 32.7886C37.7181 34.0475 36.2651 35.8475 32.2357 36.3239C30.1769 36.5651 28.6946 36.2004 28.6946 36.2004C28.6946 36.2004 28.5122 38.6122 31.7357 41.6004C32.9887 42.7651 33.4475 42.9827 33.6887 43.7416C33.9298 44.5004 33.7063 45.9886 31.6298 46.2004C29.671 46.4004 27.8357 45.4475 25.924 42.818C25.1416 41.7475 24.9416 40.6827 24.8357 40.4063C24.9416 41.3592 25.0416 42.2827 25.371 43.4945C25.6181 44.4063 25.8416 45.0945 26.5887 46.4533C26.9534 47.118 27.0593 48.318 26.0063 49.0298C25.2063 49.571 23.7357 49.7827 22.4651 48.6886C21.024 47.4475 20.7946 45.9298 20.3534 43.5063C20.1887 42.5945 20.0534 40.9533 20.0534 40.9533C20.0534 40.9533 19.9181 42.5945 19.7534 43.5063C19.3122 45.9298 19.0828 47.4475 17.6416 48.6886C16.371 49.7827 14.9004 49.571 14.1004 49.0298C13.0475 48.3122 13.1534 47.118 13.5181 46.4533C14.2651 45.0945 14.4887 44.4004 14.7357 43.4945C15.0651 42.2827 15.1593 41.3592 15.271 40.4063C15.1593 40.6769 14.9593 41.7416 14.1828 42.818C12.271 45.4475 10.4416 46.4004 8.47691 46.2004C6.39455 45.9886 6.17102 44.5122 6.41808 43.7416C6.66514 42.971 7.11808 42.7592 8.37102 41.6004C11.5946 38.6063 11.4122 36.2004 11.4122 36.2004C11.4122 36.2004 9.92985 36.571 7.87102 36.3239C3.8475 35.8475 2.38867 34.0475 2.38867 32.7886C2.38867 32.5416 2.38867 31.6004 3.4122 31.2533C4.42985 30.9063 5.32397 31.871 8.46514 31.6827C10.2063 31.5769 11.171 31.318 11.8887 30.7592C8.6122 28.2886 6.50044 24.171 6.50044 19.7533C6.50044 12.2769 12.5651 6.21216 20.0416 6.21216H20.0475H20.0534Z" fill="#A9C0FF"/>
<path d="M24.4892 49.6176C23.801 49.6176 23.0539 49.3882 22.3774 48.8058C20.9598 47.5823 20.6892 46.0941 20.2716 43.8294L20.2186 43.547C20.1539 43.1941 20.0951 42.7352 20.048 42.2999C20.001 42.7352 19.9421 43.1941 19.8774 43.547L19.8245 43.8294C19.4127 46.0882 19.1421 47.5823 17.7186 48.8058C16.4421 49.9058 14.9068 49.7529 14.0245 49.1529C12.8833 48.3764 13.0245 47.0823 13.401 46.4058C14.1598 45.0294 14.3716 44.3529 14.6127 43.4705C14.801 42.7882 14.9127 42.1999 14.9892 41.6411C14.8304 42.0235 14.6068 42.4588 14.2833 42.8999C12.5774 45.247 10.8774 46.3588 8.97744 46.3588C8.80685 46.3588 8.63626 46.347 8.45979 46.3294C7.31273 46.2117 6.77155 45.7235 6.51273 45.3294C6.14214 44.7705 6.15391 44.1176 6.2892 43.6999C6.47744 43.0941 6.81273 42.8058 7.47744 42.2176C7.70685 42.0176 7.96567 41.7882 8.27744 41.4999C9.91861 39.9823 10.6421 38.6176 10.9657 37.747C11.2127 37.0823 11.2657 36.5882 11.2774 36.3529C10.8363 36.4411 9.54214 36.647 7.84802 36.447C3.43038 35.9235 2.25391 33.8941 2.25391 32.7823C2.25391 31.7235 2.85979 31.2999 3.36567 31.1235C3.85391 30.9588 4.30097 31.0647 4.91861 31.2176C5.67744 31.3999 6.71861 31.6529 8.45391 31.547C10.0598 31.447 10.9833 31.2235 11.6657 30.747C10.0833 29.5176 8.76567 27.8941 7.84214 26.0352C6.87155 24.0823 6.35979 21.9058 6.35979 19.747C6.35979 12.2117 12.4892 6.07642 20.0304 6.07642H20.0539C27.601 6.07642 33.7304 12.2058 33.7304 19.747C33.7304 21.9117 33.2186 24.0882 32.248 26.0352C31.3245 27.8941 30.0068 29.5176 28.4245 30.747C29.1068 31.2176 30.0363 31.447 31.6363 31.547C33.3716 31.6529 34.4068 31.3999 35.1716 31.2176C35.7892 31.0705 36.2421 30.9588 36.7245 31.1235C37.2304 31.2941 37.8363 31.7235 37.8363 32.7823C37.8363 33.8999 36.6598 35.9235 32.2421 36.447C30.548 36.647 29.2539 36.447 28.8127 36.3529C28.8245 36.5882 28.8774 37.0764 29.1245 37.747C29.448 38.6176 30.1774 39.9823 31.8127 41.4999C32.1245 41.7882 32.3833 42.0176 32.6127 42.2176C33.2774 42.7999 33.6127 43.0941 33.801 43.6999C33.9363 44.1235 33.948 44.7705 33.5774 45.3294C33.3186 45.7176 32.7716 46.2117 31.6304 46.3294C31.4598 46.347 31.2833 46.3588 31.1127 46.3588C29.2127 46.3588 27.5127 45.247 25.8068 42.8999C25.4892 42.4588 25.2598 42.0235 25.101 41.6411C25.1833 42.1999 25.2892 42.7882 25.4774 43.4705C25.7186 44.347 25.9304 45.0235 26.6892 46.4058C27.0657 47.0882 27.2069 48.3823 26.0657 49.1529C25.648 49.4352 25.0892 49.6176 24.4774 49.6176H24.4892ZM20.0539 40.847C20.1186 40.847 20.1774 40.8999 20.1833 40.9647C20.1833 40.9823 20.3186 42.6058 20.4833 43.4999L20.5363 43.7823C20.9539 46.0647 21.2068 47.447 22.5539 48.6058C23.7245 49.6117 25.1304 49.4823 25.9363 48.9352C26.9304 48.2588 26.8068 47.1235 26.4774 46.5235C25.7068 45.1235 25.4892 44.4294 25.248 43.5352C24.9304 42.3705 24.8245 41.447 24.7245 40.5588L24.7068 40.4294C24.701 40.3647 24.7421 40.3058 24.8068 40.2882C24.8716 40.2705 24.9363 40.3058 24.9598 40.3647C24.9833 40.4235 25.0068 40.5117 25.0421 40.6294C25.1774 41.0764 25.4245 41.9058 26.0363 42.747C27.8363 45.2235 29.6127 46.2823 31.6245 46.0764C32.448 45.9941 33.0598 45.6882 33.3833 45.1941C33.701 44.7117 33.6892 44.147 33.5774 43.7823C33.4068 43.247 33.1304 43.0058 32.4657 42.4176C32.2363 42.2176 31.9774 41.9882 31.6598 41.6941C28.4245 38.6941 28.5716 36.2882 28.5774 36.1882C28.5774 36.1529 28.601 36.1176 28.6304 36.0941C28.6598 36.0705 28.701 36.0647 28.7363 36.0705C28.748 36.0705 30.2245 36.4294 32.2304 36.1941C34.8127 35.8882 37.5951 34.6882 37.5951 32.7882C37.5951 32.0647 37.2833 31.5882 36.6598 31.3764C36.2421 31.2352 35.848 31.3294 35.248 31.4764C34.4716 31.6647 33.4127 31.9176 31.6363 31.8117C29.8657 31.7058 28.8833 31.4352 28.1421 30.8588C28.1127 30.8352 28.0892 30.7941 28.0892 30.7529C28.0892 30.7117 28.1068 30.6764 28.1421 30.6529C29.7539 29.4352 31.0951 27.8058 32.0245 25.9235C32.9774 24.0058 33.4774 21.8705 33.4774 19.747C33.4774 12.3529 27.4598 6.33524 20.0657 6.33524H20.0421C12.6421 6.33524 6.62449 12.3529 6.62449 19.747C6.62449 21.8705 7.12449 24.0058 8.07744 25.9235C9.00685 27.7999 10.3539 29.4352 11.9598 30.6529C11.9892 30.6764 12.0127 30.7176 12.0127 30.7529C12.0127 30.7941 11.9951 30.8294 11.9598 30.8588C11.2186 31.4352 10.2363 31.6999 8.46567 31.8117C6.69508 31.9176 5.63038 31.6647 4.85391 31.4764C4.25391 31.3294 3.85979 31.2352 3.44214 31.3764C2.82449 31.5882 2.50685 32.0647 2.50685 32.7882C2.50685 34.6941 5.2892 35.8882 7.87155 36.1941C9.87744 36.4294 11.3539 36.0764 11.3657 36.0705C11.401 36.0588 11.4421 36.0705 11.4716 36.0941C11.501 36.1176 11.5245 36.1529 11.5245 36.1882C11.5304 36.2882 11.6774 38.6941 8.44214 41.6941C8.12449 41.9882 7.86567 42.2176 7.63626 42.4176C6.97155 43.0058 6.69508 43.247 6.52449 43.7823C6.40685 44.147 6.40097 44.7117 6.71861 45.1941C7.04214 45.6882 7.64802 45.9941 8.47744 46.0764C10.4892 46.2823 12.2657 45.2235 14.0657 42.747C14.6774 41.9058 14.9245 41.0764 15.0598 40.6294C15.0951 40.5117 15.1186 40.4294 15.1421 40.3647C15.1657 40.3058 15.2304 40.2705 15.2951 40.2882C15.3598 40.3058 15.401 40.3647 15.3951 40.4294L15.3774 40.5588C15.2774 41.4529 15.1716 42.3705 14.8539 43.5352C14.6127 44.4294 14.3951 45.1235 13.6245 46.5235C13.2951 47.1235 13.1716 48.2588 14.1657 48.9352C14.9716 49.4823 16.3774 49.6117 17.548 48.6058C18.8951 47.447 19.148 46.0647 19.5657 43.7823L19.6186 43.4999C19.7833 42.6058 19.9186 40.9764 19.9186 40.9647C19.9186 40.8999 19.9774 40.847 20.048 40.847H20.0539Z" fill="#231815"/>
<path d="M15.6257 18.8412C15.996 18.8412 16.2963 18.412 16.2963 17.8824C16.2963 17.3529 15.996 16.9236 15.6257 16.9236C15.2553 16.9236 14.9551 17.3529 14.9551 17.8824C14.9551 18.412 15.2553 18.8412 15.6257 18.8412Z" fill="#231815"/>
<path d="M24.4831 18.8412C24.8534 18.8412 25.1537 18.412 25.1537 17.8824C25.1537 17.3529 24.8534 16.9236 24.4831 16.9236C24.1127 16.9236 23.8125 17.3529 23.8125 17.8824C23.8125 18.412 24.1127 18.8412 24.4831 18.8412Z" fill="#231815"/>
<path d="M24.4598 20.9176C24.7069 20.9823 24.8775 21.2411 24.8598 21.5235C24.6716 24.3705 22.7834 25.6293 20.054 25.6293C17.3246 25.6293 15.4481 24.3764 15.2481 21.547C15.2246 21.2529 15.4128 20.9882 15.6657 20.9352C16.201 20.8176 17.101 20.7058 17.6951 20.7058C18.4422 20.7058 19.6187 20.9235 19.9775 21.0117C20.0481 21.0293 20.1187 21.0293 20.1893 21.0117C20.5834 20.9235 21.9598 20.7058 22.754 20.7058C23.3422 20.7058 24.0304 20.794 24.4598 20.9117V20.9176Z" fill="#F482A0"/>
<path d="M20.0541 25.6997C17.1012 25.6997 15.3718 24.2291 15.1835 21.5585C15.16 21.235 15.36 20.9409 15.6541 20.8762C16.1659 20.7644 17.0718 20.6468 17.6953 20.6468C18.4541 20.6468 19.6482 20.8644 19.9894 20.9526C20.0482 20.9703 20.1129 20.9703 20.1718 20.9526C20.56 20.8644 21.9423 20.6409 22.7482 20.6409C23.3188 20.6409 24.0129 20.7232 24.4718 20.8526C24.7482 20.9291 24.9365 21.2115 24.9188 21.5291C24.7423 24.2173 23.0129 25.6997 20.0482 25.6997H20.0541ZM17.6953 20.7762C17.0835 20.7762 16.1718 20.8938 15.6776 21.0056C15.4482 21.0585 15.2894 21.2938 15.307 21.5526C15.4012 22.8997 15.8835 23.9232 16.7423 24.6056C17.5482 25.2468 18.66 25.5703 20.0482 25.5703C21.4365 25.5703 22.56 25.2409 23.36 24.5997C24.2188 23.9115 24.6953 22.8762 24.7894 21.5232C24.807 21.2762 24.6541 21.0409 24.4423 20.982C24.0012 20.8585 23.307 20.7762 22.7541 20.7762C21.9894 20.7762 20.6188 20.9938 20.2012 21.082C20.1188 21.0997 20.0365 21.0997 19.96 21.082C19.6188 20.9938 18.4423 20.7762 17.6953 20.7762Z" fill="#231815"/>
<path d="M23.7356 22.5117C23.8179 22.5117 23.8591 22.6 23.7944 22.647C23.3591 22.947 22.1591 23.6353 20.2414 23.6353C18.5473 23.6353 17.1473 23.0235 16.5944 22.7412C16.5179 22.7 16.5473 22.6 16.6414 22.6L23.7414 22.5059L23.7356 22.5117Z" fill="#A0444D"/>
</g>
</svg>
