<svg width="295" height="479" viewBox="0 0 295 479" fill="none" xmlns="http://www.w3.org/2000/svg">
<path d="M166.825 84.2934L166.881 84.3299L166.937 84.3664C220.494 119.402 235.502 191.215 200.471 244.766C179.774 276.405 145.337 295.965 110.316 298.327C112.851 305.694 118.509 312.051 130.501 320.984C152.078 337.064 163.016 334.333 168.688 341.602C174.361 348.87 169.989 355.579 168.817 357.371C162.913 366.396 144.061 372.457 112.992 357.018C97.114 349.128 88.2065 339.539 88.2065 339.539C88.2065 339.539 75.6011 355.926 84.6834 392.458C88.2155 406.665 90.4832 410.397 88.6359 416.969C86.7588 423.654 78.2435 433.166 62.3482 424.937C47.3714 417.184 38.7051 401.787 37.3374 374.002C36.7806 362.662 40.3199 354.099 40.8059 351.637C37.1121 358.975 33.4632 366.042 30.152 376.259C27.6692 383.937 26.0449 389.938 25.0199 403.182C24.5175 409.66 19.6678 418.738 8.76421 418.925C0.510521 419.067 -11.0292 413.678 -14.9908 399.925C-19.4946 384.294 -14.0043 372.343 -5.84235 352.925C-2.76877 345.615 3.95066 333.246 3.95066 333.246C3.95066 333.246 -4.68418 344.362 -10.1505 350.106C-24.6723 365.364 -33.4232 375.183 -49.5488 377.318C-63.7434 379.194 -73.3042 370.78 -76.4748 363.165C-80.6714 353.099 -74.2968 345.019 -68.5626 341.963C-56.8386 335.718 -51.991 331.826 -45.9501 326.475C-37.9195 319.354 -32.9028 313.174 -27.6593 306.85C-29.7198 308.281 -36.1518 314.961 -46.7611 318.987C-72.7671 328.866 -90.3463 327.093 -103.45 316.477C-117.352 305.214 -112.054 293.597 -106.681 289.199C-101.403 284.88 -97.0714 285.456 -82.6395 283.001C-45.5288 276.687 -35.564 258.572 -35.564 258.572C-35.564 258.572 -47.9182 254.252 -61.5091 242.865C-88.1011 220.584 -90.1011 200.882 -84.197 191.857C-83.0251 190.065 -78.6292 183.373 -69.6969 185.658C-60.7647 187.942 -58.8846 199.059 -35.5077 212.387C-22.5185 219.795 -14.4235 222.426 -6.66092 221.804C-18.5275 188.771 -14.4018 149.381 6.29508 117.743C41.3389 64.1996 113.156 49.185 166.707 84.2163L166.763 84.2528L166.819 84.2893L166.825 84.2934Z" fill="#A9C0FF"/>
<path d="M-4.7427 415.948C-9.6583 412.733 -13.9335 407.564 -16.0435 400.235C-20.4816 384.843 -15.4393 372.873 -7.80225 354.758L-6.85222 352.493C-5.66457 349.677 -3.94122 346.095 -2.25272 342.756C-4.63764 345.631 -7.22047 348.659 -9.33171 350.871L-11.0215 352.643C-24.566 366.893 -33.5135 376.309 -49.399 378.415C-63.6653 380.306 -73.9685 372.053 -77.504 363.588C-82.0425 352.706 -74.9575 344.108 -69.0883 340.981C-57.215 334.657 -52.515 330.801 -46.6902 325.645C-42.1397 321.611 -38.6032 317.924 -35.4112 314.303C-38.3605 316.294 -42.0138 318.374 -46.3714 320.029C-69.5966 328.85 -86.9714 328.849 -100.584 319.944C-101.805 319.145 -102.992 318.281 -104.146 317.339C-111.794 311.142 -113.416 305.071 -113.418 301.068C-113.433 295.341 -110.307 290.738 -107.374 288.338C-103.18 284.903 -99.4162 284.373 -91.9184 283.303C-89.3412 282.936 -86.4213 282.518 -82.8149 281.903C-63.96 278.694 -52.3764 272.366 -45.9728 267.624C-41.0899 264.003 -38.4024 260.733 -37.2372 259.114C-40.8019 257.676 -51.0301 253.083 -62.2079 243.718C-91.3949 219.287 -90.3407 199.246 -85.1179 191.262C-80.1707 183.7 -73.847 183.464 -69.4097 184.597C-65.1475 185.685 -62.4496 188.557 -58.7066 192.537C-54.1238 197.411 -47.851 204.072 -34.9402 211.438C-22.9895 218.256 -15.2903 220.965 -8.18332 220.79C-13.7522 204.595 -15.5797 186.768 -13.4814 169.137C-11.2738 150.621 -4.75314 132.643 5.38037 117.152C40.6894 63.1633 113.337 47.975 167.316 83.2862L167.49 83.3997C221.53 118.751 236.719 191.4 201.408 245.378C191.27 260.875 177.414 274.046 161.334 283.486C146.016 292.479 128.947 297.936 111.884 299.325C114.567 305.913 120.138 311.876 131.172 320.095C143.087 328.969 151.71 332.052 158.006 334.294C163.152 336.129 166.863 337.451 169.569 340.92C172.388 344.526 174.705 350.414 169.754 357.983C164.531 365.967 146.592 374.961 112.506 358.019C99.4468 351.529 91.1407 343.998 88.3951 341.308C87.3746 343.03 85.4495 346.798 84.0978 352.721C82.3184 360.488 81.1611 373.637 85.7747 392.198C86.6562 395.748 87.4431 398.591 88.1429 401.094C90.1664 408.392 91.1885 412.052 89.7218 417.271C88.7016 420.914 85.7369 425.622 80.4788 427.91C76.809 429.501 70.5984 430.457 61.8562 425.933C60.5353 425.246 59.2572 424.507 58.0422 423.712C44.4236 414.804 37.4723 398.882 36.2456 374.075C36.0201 369.413 36.4584 365.239 37.1018 361.738C35.0628 366.114 33.1069 370.835 31.2281 376.617C28.8312 384.015 27.1872 389.87 26.1493 403.283C25.6358 409.913 20.5923 419.855 8.80745 420.05C4.49365 420.123 -0.372577 418.807 -4.7365 415.952L-4.7427 415.948ZM4.56973 332.313C5.05324 332.63 5.21286 333.265 4.93995 333.777C4.87531 333.903 -1.7833 346.179 -4.80463 353.355L-5.75463 355.619C-13.468 373.932 -18.1239 384.987 -13.9081 399.623C-10.2453 412.331 0.409026 417.964 8.75928 417.824C19.061 417.65 23.4762 408.925 23.9289 403.105C24.9852 389.448 26.6693 383.477 29.1141 375.924C32.2973 366.092 35.868 359.01 39.3256 352.155L39.8325 351.15C40.087 350.653 40.6644 350.42 41.1837 350.6C41.7132 350.779 42.02 351.324 41.9138 351.866C41.8075 352.407 41.5899 353.132 41.2864 354.137C40.1424 357.956 38.0224 365.067 38.4572 373.955C39.7471 400.114 47.4993 416.001 62.8662 423.956C69.1732 427.223 74.9561 427.882 79.5817 425.871C84.1194 423.9 86.687 419.827 87.5697 416.678C88.867 412.056 88.025 409.027 85.9888 401.694C85.291 399.175 84.4957 396.318 83.6078 392.736C74.4999 356.108 86.7979 339.555 87.3281 338.866C87.5251 338.606 87.8299 338.451 88.1585 338.436C88.4871 338.42 88.8025 338.547 89.0244 338.79C89.1136 338.883 97.9972 348.333 113.487 356.032C133.432 365.946 158.963 370.406 167.884 356.768C171.278 351.58 171.254 346.705 167.805 342.289C165.497 339.336 162.212 338.161 157.245 336.39C150.815 334.096 142.009 330.955 129.827 321.88C117.645 312.804 111.881 306.298 109.257 298.687C109.145 298.357 109.194 297.999 109.384 297.708C109.575 297.416 109.89 297.233 110.239 297.213C127.456 296.049 144.732 290.639 160.203 281.561C175.99 272.3 189.595 259.363 199.546 244.151C234.19 191.206 219.291 119.942 166.335 85.2999L166.162 85.1864C113.144 50.5037 41.88 65.4026 7.23786 118.359C-2.71318 133.57 -9.11141 151.212 -11.2768 169.393C-13.3961 187.205 -11.4315 205.202 -5.60131 221.443C-5.48551 221.767 -5.52755 222.129 -5.71194 222.424C-5.90253 222.716 -6.21111 222.903 -6.55806 222.933C-14.5772 223.582 -22.8432 220.901 -36.0492 213.377C-49.2511 205.847 -55.6505 199.041 -60.3287 194.069C-63.941 190.228 -66.334 187.689 -69.9642 186.757C-75.3919 185.366 -79.8642 187.291 -83.2623 192.485C-92.1834 206.122 -77.8687 227.728 -60.7947 242.031C-47.5349 253.139 -35.3221 257.499 -35.1964 257.537C-34.8853 257.643 -34.6428 257.882 -34.5251 258.189C-34.4074 258.496 -34.4332 258.833 -34.5868 259.122C-35.0055 259.884 -45.2414 277.777 -82.4546 284.112C-86.0918 284.734 -89.0282 285.15 -91.6156 285.519C-99.1401 286.589 -102.263 287.034 -105.978 290.074C-108.514 292.15 -111.22 296.125 -111.201 301.076C-111.19 306.12 -108.27 311.154 -102.75 315.624C-89.305 326.517 -71.6424 327.255 -47.1578 317.957C-38.844 314.801 -33.1743 310.004 -30.1335 307.425C-29.3341 306.745 -28.7507 306.259 -28.2973 305.945C-27.8399 305.624 -27.2147 305.697 -26.8455 306.107C-26.4659 306.514 -26.4523 307.143 -26.8081 307.565L-27.5258 308.432C-32.4215 314.346 -37.4799 320.455 -45.2129 327.311C-51.1539 332.577 -55.9497 336.512 -68.0398 342.951C-73.1912 345.697 -79.4185 353.228 -75.4486 362.747C-72.232 370.454 -62.7961 377.963 -49.6913 376.224C-34.5856 374.227 -26.3283 365.528 -12.6393 351.124L-10.9454 349.347C-5.57477 343.708 2.99302 332.681 3.08246 332.571C3.43596 332.112 4.08218 332.003 4.56567 332.32L4.56973 332.313Z" fill="#231815"/>
<path d="M75.9512 153.998C78.6078 155.736 82.7748 154.067 85.2584 150.27C87.7421 146.474 87.6018 141.987 84.9452 140.249C82.2886 138.511 78.1216 140.18 75.638 143.977C73.1543 147.773 73.2945 152.26 75.9512 153.998Z" fill="#231815"/>
<path d="M139.369 195.485C142.026 197.223 146.193 195.554 148.676 191.758C151.16 187.961 151.02 183.474 148.363 181.737C145.706 179.999 141.539 181.668 139.056 185.464C136.572 189.261 136.712 193.748 139.369 195.485Z" fill="#231815"/>
<path d="M129.492 210.263C130.942 211.902 130.953 214.538 129.487 216.482C114.78 236 95.3685 236.163 75.8301 223.382C56.2916 210.6 48.7144 192.862 60.5424 171.655C61.7642 169.463 64.3089 168.428 66.4176 169.223C70.7916 170.872 77.7883 174.316 82.0283 177.09C87.3592 180.577 94.8024 187.641 96.9346 189.957C97.3515 190.415 97.862 190.758 98.4371 190.975C101.651 192.192 112.557 197.061 118.248 200.783C122.463 203.541 126.965 207.415 129.482 210.265L129.492 210.263Z" fill="#F482A0"/>
<path d="M75.5272 223.848C54.3894 210.021 48.9 191.391 60.0584 171.384C61.4179 168.954 64.2328 167.804 66.6197 168.701C70.8144 170.286 77.8374 173.676 82.3438 176.624C87.7864 180.185 95.2859 187.339 97.3558 189.587C97.7167 189.982 98.1528 190.276 98.6516 190.461C101.83 191.664 112.767 196.526 118.569 200.322C122.654 202.994 127.216 206.846 129.915 209.904C131.555 211.755 131.563 214.664 129.939 216.823C116.071 235.235 96.7455 237.729 75.5334 223.853L75.5272 223.848ZM81.7356 177.554C77.3593 174.691 70.2765 171.271 66.2282 169.746C64.3525 169.042 62.1192 169.979 61.0288 171.93C55.4091 182.009 54.0383 191.628 56.9735 200.523C59.7252 208.873 66.17 216.408 76.1314 222.925C86.0928 229.441 95.6365 232.348 104.416 231.497C113.769 230.595 122.052 225.428 129.043 216.149C130.329 214.441 130.347 212.072 129.077 210.63C126.478 207.69 121.904 203.831 117.955 201.248C112.494 197.675 101.669 192.789 98.2517 191.492C97.5941 191.239 97.0155 190.851 96.5323 190.332C94.4955 188.114 87.0913 181.058 81.7294 177.55L81.7356 177.554Z" fill="#231815"/>
<path d="M116.854 218.258C117.465 218.649 117.322 219.476 116.636 219.497C112.113 219.618 100.269 218.916 86.5639 209.95C74.4515 202.027 67.2619 191.057 64.6045 186.459C64.2353 185.819 64.935 185.25 65.5878 185.66L116.847 218.254L116.854 218.258Z" fill="#A0444D"/>
</svg>
