<svg width="300" height="294" viewBox="0 0 300 294" fill="none" xmlns="http://www.w3.org/2000/svg">
<path d="M13 220.396C13.9713 219.691 14.7067 219 16.5988 219C19.5743 219 19.5743 220.994 22.5499 220.994C25.5255 220.994 25.5311 219 28.5067 219C31.4822 219 31.4822 220.994 34.4578 220.994C37.4334 220.994 37.4334 219 40.4146 219C41.9023 219 42.9747 219.718 44.44 220.967" stroke="white" stroke-opacity="0.1" stroke-width="2" stroke-miterlimit="10"/>
<path d="M44 255.397C44.9713 254.692 45.7067 254 47.5988 254C50.5743 254 50.5743 255.994 53.5499 255.994C56.5255 255.994 56.5311 254 59.5067 254C62.4822 254 62.4822 255.994 65.4578 255.994C68.4334 255.994 68.4334 254 71.4146 254C72.9023 254 73.9747 254.719 75.44 255.967" stroke="white" stroke-opacity="0.1" stroke-width="2" stroke-miterlimit="10"/>
<path d="M31 197.994C33.9756 197.994 33.9812 196 36.9568 196C39.9323 196 39.9323 197.994 42.9079 197.994C45.8835 197.994 45.8835 196 48.8647 196C50.3524 196 51.4248 196.718 52.8901 197.967" stroke="white" stroke-opacity="0.1" stroke-width="2" stroke-miterlimit="10"/>
<path d="M237 210.396C237.971 209.691 238.707 209 240.599 209C243.574 209 243.574 210.994 246.55 210.994C249.525 210.994 249.531 209 252.507 209C255.482 209 255.482 210.994 258.458 210.994C261.433 210.994 261.433 209 264.415 209C265.902 209 266.975 209.718 268.44 210.967" stroke="white" stroke-opacity="0.1" stroke-width="2" stroke-miterlimit="10"/>
<path d="M257 235.396C257.971 234.691 258.707 234 260.599 234C263.574 234 263.574 235.994 266.55 235.994C269.525 235.994 269.531 234 272.507 234C275.482 234 275.482 235.994 278.458 235.994C281.433 235.994 281.433 234 284.415 234C285.902 234 286.975 234.718 288.44 235.967" stroke="white" stroke-opacity="0.1" stroke-width="2" stroke-miterlimit="10"/>
<path d="M268.418 119.609C269.975 119.609 271.238 118.328 271.238 116.748C271.238 115.168 269.975 113.887 268.418 113.887C266.861 113.887 265.598 115.168 265.598 116.748C265.598 118.328 266.861 119.609 268.418 119.609Z" fill="white" fill-opacity="0.2"/>
<path d="M266.384 102.522C267.361 102.522 268.153 101.718 268.153 100.727C268.153 99.736 267.361 98.9326 266.384 98.9326C265.407 98.9326 264.616 99.736 264.616 100.727C264.616 101.718 265.407 102.522 266.384 102.522Z" fill="white" fill-opacity="0.2"/>
<path d="M278.447 93.4394C279.137 93.4394 279.695 92.8726 279.695 92.1733C279.695 91.4741 279.137 90.9072 278.447 90.9072C277.758 90.9072 277.2 91.4741 277.2 92.1733C277.2 92.8726 277.758 93.4394 278.447 93.4394Z" fill="white" fill-opacity="0.2"/>
<path d="M279.44 79.1334C280.021 79.1334 280.492 78.6558 280.492 78.0667C280.492 77.4776 280.021 77 279.44 77C278.86 77 278.389 77.4776 278.389 78.0667C278.389 78.6558 278.86 79.1334 279.44 79.1334Z" fill="white" fill-opacity="0.2"/>
<path d="M249.34 130.611C245.839 131.039 243.342 134.266 243.763 137.819C244.185 141.373 247.365 143.906 250.867 143.479C254.369 143.051 256.866 139.824 256.444 136.271C256.023 132.717 252.842 130.184 249.34 130.611Z" fill="white" fill-opacity="0.2"/>
<ellipse cx="0.982708" cy="0.996719" rx="0.982708" ry="0.996719" transform="matrix(-0.992623 0.121242 -0.117808 -0.993036 253.225 134.154)" fill="#D9D9D9" fill-opacity="0.3"/>
<path d="M253.947 136.074C254.238 138.534 252.51 140.768 250.085 141.064" stroke="white" stroke-opacity="0.3" stroke-width="1.5"/>
<path d="M40.6091 85.6178C42.1665 85.6178 43.4289 84.3369 43.4289 82.7567C43.4289 81.1765 42.1665 79.8955 40.6091 79.8955C39.0518 79.8955 37.7894 81.1765 37.7894 82.7567C37.7894 84.3369 39.0518 85.6178 40.6091 85.6178Z" fill="white" fill-opacity="0.2"/>
<path d="M32.6809 65.5401C33.6576 65.5401 34.4494 64.7367 34.4494 63.7456C34.4494 62.7546 33.6576 61.9512 32.6809 61.9512C31.7042 61.9512 30.9124 62.7546 30.9124 63.7456C30.9124 64.7367 31.7042 65.5401 32.6809 65.5401Z" fill="white" fill-opacity="0.2"/>
<path d="M42.2403 61.7714C42.9294 61.7714 43.488 61.2046 43.488 60.5054C43.488 59.8061 42.9294 59.2393 42.2403 59.2393C41.5511 59.2393 40.9925 59.8061 40.9925 60.5054C40.9925 61.2046 41.5511 61.7714 42.2403 61.7714Z" fill="white" fill-opacity="0.2"/>
<path d="M37.907 48.1334C38.4877 48.1334 38.9583 47.6558 38.9583 47.0667C38.9583 46.4776 38.4877 46 37.907 46C37.3264 46 36.8558 46.4776 36.8558 47.0667C36.8558 47.6558 37.3264 48.1334 37.907 48.1334Z" fill="white" fill-opacity="0.2"/>
<path d="M41.2284 126.751C44.7554 126.751 47.6146 123.85 47.6146 120.271C47.6146 116.692 44.7554 113.791 41.2284 113.791C37.7013 113.791 34.8421 116.692 34.8421 120.271C34.8421 123.85 37.7013 126.751 41.2284 126.751Z" fill="white" fill-opacity="0.2"/>
<ellipse cx="38.7719" cy="123.76" rx="0.9825" ry="0.996923" fill="#D9D9D9" fill-opacity="0.3"/>
<path d="M37.2991 120.769C37.2991 118.292 39.2786 116.283 41.7204 116.283" stroke="white" stroke-opacity="0.3" stroke-width="1.5"/>
<path d="M26.0421 100.417C26.0654 102.895 28.0637 104.884 30.5053 104.86C32.947 104.837 34.9075 102.809 34.8842 100.332C34.861 97.8541 32.8627 95.8648 30.4211 95.8885C27.9794 95.9121 26.0189 97.9397 26.0421 100.417Z" fill="white" fill-opacity="0.2"/>
<ellipse cx="0.498461" cy="0.491251" rx="0.498461" ry="0.491251" transform="matrix(0.00939397 0.999956 -0.999953 0.00967178 28.9671 97.8965)" fill="#D9D9D9" fill-opacity="0.3"/>
<path d="M29.9475 97.8879C31.5753 97.8721 32.9074 99.1983 32.9229 100.85" stroke="white" stroke-opacity="0.3"/>
<path d="M150 294C173.196 294 192 289.971 192 285C192 280.029 173.196 276 150 276C126.804 276 108 280.029 108 285C108 289.971 126.804 294 150 294Z" fill="black" fill-opacity="0.15"/>
</svg>
