<svg width="200" height="270" viewBox="0 0 200 270" fill="none" xmlns="http://www.w3.org/2000/svg">
<path d="M99.9996 41.9586H100.045H100.09C139.176 41.9586 170.86 73.6432 170.86 112.729C170.86 135.818 159.795 157.324 142.686 170.244C146.441 173.157 151.462 174.524 160.573 175.076C176.976 176.08 181.654 171.031 186.983 172.85C192.312 174.668 192.321 179.563 192.321 180.866C192.321 187.453 184.712 196.853 163.676 199.35C152.919 200.626 145.165 198.708 145.165 198.708C145.165 198.708 144.206 211.302 161.062 226.936C167.612 233.016 170.019 234.165 171.276 238.137C172.552 242.181 171.376 249.89 160.51 250.994C150.259 252.043 140.687 247.067 130.698 233.324C126.627 227.714 125.568 222.159 124.998 220.73C125.559 225.715 126.057 230.546 127.785 236.87C129.079 241.62 130.264 245.239 134.163 252.342C136.072 255.825 136.633 262.086 131.123 265.823C126.952 268.655 119.253 269.758 112.63 264.049C105.102 257.562 103.908 249.618 101.592 236.97C100.714 232.202 100.018 223.634 100.018 223.634C100.018 223.634 99.3211 232.202 98.4525 236.97C96.1273 249.628 94.942 257.571 87.4145 264.049C80.7916 269.758 73.0922 268.646 68.9212 265.823C63.4113 262.086 63.9632 255.825 65.8812 252.342C69.7808 245.23 70.966 241.62 72.2598 236.87C73.9879 230.546 74.4855 225.706 75.0464 220.73C74.4764 222.15 73.4179 227.714 69.3465 233.324C59.3579 247.067 49.7856 252.034 39.5347 250.994C28.6595 249.881 27.4924 242.172 28.7681 238.137C30.0257 234.165 32.4233 233.016 38.9828 226.936C55.8384 211.302 54.8794 198.708 54.8794 198.708C54.8794 198.708 47.1256 200.626 36.3681 199.35C15.3234 196.853 7.72345 187.453 7.72345 180.866C7.72345 179.563 7.7325 174.668 13.0615 172.85C18.3905 171.031 23.0681 176.08 39.4714 175.076C48.5823 174.515 53.6037 173.157 57.3584 170.244C40.2495 157.324 29.1843 135.818 29.1843 112.729C29.1481 73.6432 60.8327 41.9586 99.9182 41.9586H99.9634H100.009H99.9996Z" fill="#A9C0FF"/>
<path d="M123.198 268.827C119.615 268.827 115.698 267.614 112.169 264.574C104.759 258.187 103.33 250.388 101.176 238.572L100.905 237.097C100.57 235.26 100.253 232.854 100 230.583C99.7467 232.854 99.43 235.26 99.0952 237.097L98.8238 238.572C96.6705 250.388 95.241 258.187 87.831 264.574C81.172 270.311 73.1468 269.541 68.5144 266.393C62.5521 262.349 63.303 255.581 65.2573 252.025C69.2111 244.824 70.324 241.286 71.5725 236.699C72.5497 233.116 73.1287 230.049 73.5449 227.136C72.7035 229.144 71.5363 231.424 69.8535 233.722C60.1364 247.094 50.4645 252.794 39.4265 251.663C33.4461 251.057 30.587 248.488 29.248 246.452C27.3299 243.53 27.3842 240.128 28.0808 237.929C29.0761 234.772 30.8223 233.243 34.2965 230.194C35.4908 229.144 36.8479 227.959 38.4856 226.439C47.0446 218.495 50.8536 211.393 52.5364 206.824C53.8212 203.34 54.1017 200.771 54.1559 199.549C51.8579 200.011 45.0903 201.079 36.2418 200.029C13.1614 197.279 7 186.684 7 180.857C7 175.338 10.1576 173.103 12.7995 172.199C15.3419 171.33 17.6852 171.9 20.9242 172.678C24.8961 173.637 30.3246 174.949 39.3903 174.388C47.7774 173.872 52.6179 172.687 56.1917 170.217C38.8203 156.736 28.4699 135.312 28.4699 112.711C28.4699 73.3268 60.5254 41.2803 99.9186 41.2803H100.045C139.484 41.2803 171.53 73.3268 171.53 112.729C171.53 135.33 161.189 156.754 143.808 170.235C147.382 172.705 152.223 173.891 160.61 174.406C169.666 174.958 175.104 173.646 179.076 172.696C182.315 171.918 184.658 171.348 187.201 172.217C189.842 173.122 193 175.356 193 180.875C193 186.702 186.839 197.297 163.749 200.029C154.91 201.079 148.142 200.011 145.835 199.549C145.889 200.771 146.17 203.34 147.455 206.824C149.137 211.384 152.946 218.495 161.505 226.439C163.143 227.959 164.5 229.144 165.694 230.194C169.169 233.243 170.915 234.781 171.91 237.929C172.607 240.137 172.661 243.53 170.743 246.452C169.404 248.497 166.545 251.057 160.564 251.663C149.517 252.794 139.855 247.085 130.137 233.722C128.464 231.415 127.287 229.135 126.446 227.136C126.871 230.058 127.441 233.125 128.418 236.699C129.667 241.286 130.789 244.824 134.734 252.025C136.688 255.59 137.439 262.349 131.477 266.393C129.296 267.868 126.365 268.827 123.189 268.827H123.198ZM75.0106 220.051C75.0649 220.051 75.1192 220.051 75.1735 220.069C75.4992 220.151 75.7163 220.467 75.6801 220.802L75.5987 221.49C75.0739 226.149 74.5311 230.963 72.8754 237.052C71.5997 241.729 70.4597 245.348 66.4335 252.677C64.7145 255.798 64.054 261.733 69.2654 265.271C73.4906 268.139 80.8191 268.818 86.9353 263.552C93.9834 257.481 95.3043 250.279 97.4848 238.336L97.7562 236.862C98.6157 232.184 99.3124 223.679 99.3124 223.598C99.3395 223.245 99.6381 222.974 99.991 222.974C100.344 222.974 100.642 223.245 100.67 223.598C100.67 223.679 101.375 232.184 102.235 236.862L102.506 238.336C104.687 250.27 105.999 257.481 113.056 263.552C119.172 268.827 126.509 268.139 130.726 265.271C135.937 261.733 135.267 255.807 133.557 252.677C129.531 245.348 128.391 241.729 127.116 237.052C125.46 230.963 124.917 226.149 124.392 221.49L124.311 220.802C124.275 220.467 124.492 220.151 124.817 220.069C125.152 219.988 125.487 220.16 125.614 220.477C125.74 220.793 125.876 221.236 126.057 221.852C126.754 224.186 128.047 228.529 131.241 232.926C140.642 245.864 149.915 251.392 160.438 250.315C164.753 249.872 167.929 248.28 169.621 245.701C171.286 243.177 171.232 240.236 170.625 238.327C169.739 235.532 168.3 234.265 164.808 231.198C163.604 230.139 162.247 228.945 160.592 227.416C143.691 211.737 144.442 199.169 144.487 198.645C144.505 198.446 144.605 198.265 144.767 198.147C144.93 198.029 145.138 197.993 145.328 198.039C145.401 198.057 153.109 199.911 163.595 198.672C177.103 197.07 191.643 190.81 191.643 180.866C191.643 177.075 189.996 174.596 186.766 173.492C184.595 172.751 182.532 173.248 179.402 174.008C175.348 174.985 169.802 176.324 160.537 175.754C151.273 175.184 146.152 173.791 142.27 170.778C142.107 170.652 142.008 170.452 142.008 170.235C142.008 170.027 142.107 169.828 142.279 169.702C159.75 156.51 170.182 135.212 170.182 112.729C170.173 74.0777 138.733 42.6374 100.09 42.6374H99.9638C61.2673 42.6374 29.827 74.0777 29.827 112.729C29.827 135.212 40.2589 156.51 57.7297 169.702C57.9016 169.828 58.0012 170.027 58.0012 170.235C58.0012 170.443 57.9016 170.642 57.7388 170.778C53.8574 173.791 48.7365 175.184 39.4717 175.754C30.207 176.324 24.6609 174.985 20.6075 174.008C17.4771 173.257 15.4052 172.751 13.2428 173.492C10.0038 174.596 8.36618 177.075 8.36618 180.866C8.36618 190.819 22.9056 197.07 36.4137 198.672C46.8998 199.92 54.6083 198.057 54.6807 198.039C54.8707 197.993 55.0788 198.039 55.2417 198.147C55.4045 198.256 55.504 198.446 55.5221 198.645C55.5583 199.169 56.3183 211.746 39.4175 227.416C37.7617 228.945 36.4046 230.139 35.2013 231.198C31.7089 234.265 30.2704 235.532 29.3837 238.327C28.7775 240.236 28.7323 243.177 30.388 245.701C32.0799 248.28 35.2556 249.872 39.5713 250.315C50.0936 251.392 59.3583 245.864 68.7678 232.926C71.9616 228.529 73.2554 224.186 73.952 221.852C74.133 221.236 74.2687 220.793 74.3954 220.477C74.5039 220.214 74.7573 220.051 75.0287 220.051H75.0106Z" fill="black"/>
<path d="M76.8569 107.96C78.7957 107.96 80.3673 105.716 80.3673 102.948C80.3673 100.18 78.7957 97.9358 76.8569 97.9358C74.9181 97.9358 73.3464 100.18 73.3464 102.948C73.3464 105.716 74.9181 107.96 76.8569 107.96Z" fill="black"/>
<path d="M123.141 107.96C125.08 107.96 126.652 105.716 126.652 102.948C126.652 100.18 125.08 97.9358 123.141 97.9358C121.202 97.9358 119.631 100.18 119.631 102.948C119.631 105.716 121.202 107.96 123.141 107.96Z" fill="black"/>
<path d="M123.035 118.817C124.32 119.17 125.207 120.518 125.107 121.993C124.121 136.885 114.25 143.463 99.991 143.463C85.7321 143.463 75.9245 136.93 74.884 122.138C74.7754 120.609 75.7345 119.224 77.0735 118.926C79.8602 118.311 84.583 117.722 87.6863 117.722C91.5768 117.722 97.7472 118.844 99.611 119.315C99.982 119.405 100.353 119.414 100.724 119.333C102.769 118.881 109.971 117.722 114.123 117.722C117.2 117.722 120.8 118.202 123.035 118.808V118.817Z" fill="#EB85A3"/>
<path d="M100.001 143.807C84.5747 143.807 75.5362 136.117 74.5591 122.165C74.4415 120.473 75.5 118.935 77.011 118.601C79.68 118.003 84.4119 117.388 87.6962 117.388C91.668 117.388 97.8928 118.537 99.7023 118.99C100.019 119.071 100.336 119.071 100.652 119.008C102.679 118.564 109.89 117.388 114.124 117.388C117.11 117.388 120.72 117.832 123.126 118.492C124.583 118.89 125.56 120.374 125.452 122.021C124.52 136.071 115.481 143.807 100.001 143.807ZM87.6962 118.067C84.5024 118.067 79.7433 118.682 77.1557 119.261C75.9615 119.523 75.1381 120.754 75.2286 122.111C75.9072 131.692 80.7476 143.119 100.001 143.119C119.254 143.119 124.14 131.62 124.773 121.966C124.864 120.663 124.076 119.442 122.945 119.134C120.629 118.501 117.001 118.058 114.124 118.058C110.134 118.058 102.978 119.18 100.797 119.659C100.381 119.75 99.9466 119.75 99.5304 119.641C97.748 119.189 91.6047 118.058 87.6962 118.058V118.067Z" fill="black"/>
<path d="M119.244 127.133C119.687 127.133 119.886 127.594 119.542 127.839C117.271 129.413 110.983 133.014 100.986 133.014C92.1461 133.014 84.8086 129.811 81.9134 128.345C81.5062 128.137 81.6781 127.613 82.1486 127.613L119.244 127.133Z" fill="#AD475F"/>
</svg>
