<svg width="78" height="78" viewBox="0 0 78 78" fill="none" xmlns="http://www.w3.org/2000/svg">
<path d="M38.9982 34.1148C37.7908 35.7187 35.4912 35.9942 33.9394 34.7193L33.938 34.7235C33.148 36.5663 30.9819 37.3815 29.1729 36.5171L29.1686 36.5143V36.5171C28.8425 38.4962 26.9323 39.8063 24.9686 39.3972H24.9658V39.4C25.1204 41.4003 23.577 43.1264 21.5726 43.1967H21.5698C22.1981 45.1041 21.1129 47.1521 19.1816 47.7031C20.2527 49.4025 19.6961 51.653 17.9545 52.6552L18.0866 52.7465C19.28 53.5702 19.3179 55.3189 18.1639 56.1946C19.3039 56.5347 19.8338 57.8462 19.2491 58.8821L19.1788 59.0058L19.2547 59.0311C20.2682 59.3727 20.8121 60.4733 20.4678 61.4854C21.3688 61.8776 21.8172 62.7223 21.7455 63.7007L21.7258 64.0141C19.8268 64.5679 19.526 62.7392 19.526 62.7392L19.519 62.742C18.4577 63.1974 17.3711 62.1559 17.7774 61.0763L17.7802 61.0693H17.7746C16.6782 61.4334 15.683 60.3032 16.182 59.2617L16.1848 59.256H16.182C15.0589 59.5231 14.1649 58.3101 14.7524 57.3163V57.3135C13.6097 57.4807 12.8253 56.1932 13.5 55.2542H13.4972C12.3446 55.3189 11.6811 53.9666 12.436 53.0937H12.4374V53.0923C11.2833 53.0516 10.745 51.6459 11.5757 50.8447C10.4315 50.6999 10.0225 49.2507 10.9235 48.5282C9.79758 48.278 9.52348 46.7979 10.4863 46.1625C9.38713 45.8111 9.25079 44.3113 10.2685 43.7659C9.02167 43.2374 8.8305 41.5478 9.9283 40.7537L10.3247 40.4669C9.0793 39.2243 9.41524 37.1271 10.9867 36.3343C9.95501 34.909 10.6213 32.8919 12.2982 32.3592L12.2954 32.355C11.5026 30.7863 12.4767 28.9013 14.2141 28.6385H14.2197C13.6785 26.9616 14.9324 25.2453 16.695 25.2509C16.4139 23.5107 17.9123 22.0011 19.6539 22.271C19.6328 20.5069 21.3378 19.2348 23.0232 19.7563V19.7535C23.2579 18.0063 25.1288 16.9942 26.72 17.7547H26.7228V17.7561C27.2078 16.0581 29.2052 15.3243 30.6741 16.3054V16.3026C31.3952 14.6918 33.4755 14.2504 34.7898 15.4283L34.7926 15.4311L34.7968 15.4241C35.7358 13.9327 37.8555 13.7851 38.9926 15.1331L38.9982 15.1402L39.0039 15.1331C40.1396 13.7851 42.2593 13.9313 43.1997 15.4241L43.2039 15.4311L43.2067 15.4283C44.521 14.2504 46.6013 14.6918 47.3224 16.3026V16.3054H47.3238C48.7913 15.3243 50.7901 16.0581 51.2751 17.7561L51.2779 17.7547C52.8691 16.9942 54.74 18.0063 54.9747 19.7535V19.7563C56.6601 19.2348 58.3651 20.5069 58.344 22.271C60.087 22.0011 61.5854 23.5107 61.3029 25.2509C63.0641 25.2453 64.3194 26.9616 63.7782 28.6385H63.7838C65.5226 28.9013 66.4953 30.7863 65.7025 32.355L65.6997 32.3592C67.3766 32.8919 68.0415 34.909 67.0112 36.3343C68.5827 37.1271 68.9172 39.2229 67.6732 40.4669L68.0696 40.7537C69.1674 41.5478 68.9762 43.236 67.7294 43.7659C68.7457 44.3113 68.6094 45.8097 67.5116 46.1625C68.4744 46.7979 68.2003 48.2794 67.0744 48.5282C67.9754 49.2493 67.5664 50.6985 66.4222 50.8447C67.2529 51.6459 66.7132 53.0516 65.5605 53.0923L65.5619 53.0937C66.3168 53.9666 65.6519 55.3175 64.5007 55.2542H64.4979C65.1712 56.1932 64.3882 57.4807 63.2455 57.3135L63.2469 57.3163C63.8344 58.3101 62.9418 59.5231 61.8173 59.2575H61.8145L61.8173 59.2617C62.3163 60.3032 61.3211 61.4334 60.2248 61.0707H60.2191L60.2219 61.0763C60.6296 62.1559 59.5416 63.196 58.4804 62.742L58.4733 62.7392C58.4733 62.7392 58.1641 64.5806 56.2651 64.0268L56.2468 63.7541C56.1737 62.7744 56.6305 61.8762 57.5316 61.484C57.1872 60.4705 57.7297 59.3713 58.7446 59.0297L58.8205 59.0044L58.7502 58.8807C58.1655 57.8448 58.6954 56.5333 59.8354 56.1932C58.68 55.3175 58.7193 53.5688 59.9127 52.7451L60.0448 52.6538C58.3032 51.6516 57.7466 49.4011 58.8177 47.7017C56.8864 47.1507 55.8012 45.1027 56.4295 43.1953H56.4267C54.4209 43.125 52.8789 41.3988 53.0335 39.3986V39.3958H53.0307C51.067 39.8049 49.1568 38.4948 48.8307 36.5157V36.5129L48.825 36.5157C47.016 37.3815 44.8499 36.5663 44.0599 34.7221V34.7179H44.0571C42.5067 35.9928 40.2057 35.7173 38.9982 34.1134" fill="#171515"/>
<path d="M56.9352 64.3443C56.7089 64.3443 56.4657 64.3063 56.2085 64.2318L56.0679 64.1911L56.0384 63.7722C55.9611 62.7264 56.4334 61.824 57.281 61.3756C57.1601 60.885 57.215 60.3734 57.4413 59.9151C57.6704 59.4527 58.0485 59.0942 58.5194 58.8946C58.2551 58.3647 58.2298 57.7533 58.4533 57.1994C58.6445 56.7271 58.9959 56.349 59.4415 56.1269C59.0071 55.6814 58.771 55.0854 58.785 54.4486C58.8005 53.7416 59.121 53.102 59.6692 52.6691C58.9214 52.1504 58.3957 51.3885 58.1736 50.4946C57.9473 49.5823 58.0654 48.6447 58.5053 47.8267C57.631 47.5104 56.9184 46.8905 56.4784 46.0612C56.0384 45.2319 55.9274 44.2929 56.1551 43.3919C55.2288 43.2949 54.3882 42.8648 53.7641 42.1662C53.1386 41.4662 52.8055 40.582 52.8125 39.6529C51.8904 39.7794 50.9725 39.5615 50.198 39.0316C49.4235 38.5003 48.8894 37.7215 48.6757 36.8163C47.8084 37.1593 46.8653 37.1677 45.9867 36.8374C45.1068 36.5071 44.4026 35.8774 43.9795 35.0494C43.2218 35.5878 42.3082 35.8211 41.3762 35.7101C40.4443 35.599 39.6094 35.1549 39.0007 34.4534C38.3921 35.1549 37.5585 35.599 36.6252 35.7101C35.6933 35.8211 34.7782 35.5878 34.022 35.0494C33.5975 35.8788 32.8932 36.5071 32.0147 36.8374C31.1348 37.1677 30.1902 37.1593 29.3257 36.8163C29.1107 37.723 28.5779 38.5003 27.8034 39.0316C27.0289 39.5629 26.1096 39.7794 25.1889 39.6543C25.196 40.5862 24.8628 41.469 24.2387 42.1676C23.6132 42.8676 22.7713 43.2977 21.8478 43.3947C22.0769 44.2957 21.9644 45.2333 21.5245 46.0626C21.0845 46.8919 20.3718 47.5118 19.4975 47.8281C19.9375 48.6476 20.0556 49.5837 19.8293 50.496C19.6072 51.3899 19.0815 52.1518 18.3337 52.6705C18.8819 53.1034 19.2023 53.7444 19.2178 54.45C19.2319 55.0882 18.9957 55.6828 18.5614 56.1283C19.0084 56.3518 19.3598 56.7286 19.5495 57.2008C19.773 57.7547 19.7477 58.3661 19.4835 58.896C19.953 59.0956 20.3325 59.4541 20.5616 59.9165C20.7879 60.3748 20.8427 60.8864 20.7218 61.3756C21.5751 61.8226 22.0333 62.6856 21.9574 63.7202L21.9279 64.1784L21.7859 64.2192C21.1435 64.4061 20.5967 64.3612 20.1582 64.0856C19.6887 63.7905 19.4722 63.3041 19.3795 63.0146C18.8692 63.1481 18.3421 63.0117 17.9527 62.6407C17.5915 62.2949 17.4298 61.8212 17.4945 61.3475C17.0166 61.3925 16.5527 61.2097 16.2238 60.8358C15.8935 60.4619 15.7726 59.9756 15.878 59.5089C15.4029 59.5117 14.9531 59.2896 14.6579 58.8876C14.3627 58.4856 14.284 57.9922 14.4274 57.5368C13.9523 57.496 13.5264 57.236 13.2678 56.8115C13.0091 56.387 12.974 55.8894 13.1567 55.448C12.6872 55.3665 12.2852 55.0699 12.0659 54.6215C11.8467 54.1745 11.8565 53.6755 12.0786 53.2538C11.6189 53.1301 11.2465 52.797 11.0693 52.3331C10.8908 51.8679 10.9456 51.3731 11.2057 50.9725C10.7587 50.8066 10.4185 50.4425 10.2836 49.9632C10.1486 49.4839 10.2484 48.9962 10.5436 48.6223C10.1135 48.4156 9.80849 48.022 9.71853 47.5329C9.62856 47.0437 9.77194 46.5658 10.1009 46.22C9.68901 45.974 9.42334 45.5552 9.37696 45.0604C9.33198 44.5684 9.51611 44.1088 9.87033 43.7939C9.39242 43.479 9.07896 42.9744 9.0129 42.3869C8.93277 41.6784 9.22936 41.0051 9.80849 40.5876L10.0123 40.44C9.488 39.8188 9.2645 39.0175 9.39382 38.2037C9.52455 37.387 9.99122 36.6926 10.687 36.2667C10.2639 35.5695 10.1683 34.7374 10.4284 33.9516C10.687 33.1659 11.2591 32.5544 12.0125 32.2452C11.7033 31.489 11.7398 30.6512 12.1194 29.9161C12.4989 29.1795 13.1609 28.665 13.9565 28.4795C13.7696 27.6839 13.9354 26.863 14.4246 26.1939C14.9138 25.5248 15.6461 25.1172 16.46 25.054C16.3953 24.2387 16.6834 23.4515 17.2668 22.864C17.8515 22.275 18.6359 21.9826 19.4511 22.0417C19.5074 21.2264 19.9094 20.4899 20.5728 19.9937C21.2377 19.4975 22.0572 19.3232 22.8556 19.5003C23.0257 18.7061 23.5317 18.03 24.264 17.6336C24.9936 17.2386 25.8313 17.1852 26.596 17.4776C26.8841 16.7115 27.4787 16.1197 28.2575 15.8344C29.0362 15.549 29.8725 15.6151 30.588 16.0115C30.9788 15.296 31.6535 14.7914 32.4673 14.6185C33.2784 14.4456 34.0993 14.6312 34.7501 15.126C35.2435 14.4667 35.98 14.0647 36.8065 14.0071C37.6359 13.9494 38.423 14.2488 38.9993 14.8322C39.5798 14.246 40.3656 13.9494 41.1907 14.0071C42.02 14.0647 42.758 14.4681 43.2486 15.126C43.9008 14.6298 44.7203 14.4456 45.5313 14.6185C46.3438 14.7914 47.0171 15.2932 47.4106 16.0115C48.1261 15.6137 48.9625 15.5476 49.7412 15.8344C50.5199 16.1197 51.1145 16.7129 51.4026 17.4776C52.1687 17.1852 53.0051 17.24 53.7346 17.6336C54.4641 18.0286 54.9687 18.7005 55.143 19.5003C55.9414 19.3232 56.7609 19.4975 57.4258 19.9937C58.0907 20.4899 58.4913 21.2264 58.5475 22.0417C59.3628 21.984 60.1485 22.2764 60.7319 22.864C61.3166 23.4515 61.6033 24.2401 61.5387 25.054C62.3525 25.1172 63.0849 25.5248 63.574 26.1939C64.0632 26.863 64.2277 27.6839 64.0421 28.4795C64.8391 28.6664 65.4998 29.1809 65.8793 29.9161C66.2588 30.6526 66.2954 31.489 65.9861 32.2452C66.7409 32.5544 67.3116 33.1659 67.5703 33.9516C67.8289 34.7374 67.7333 35.5681 67.3116 36.2667C68.0074 36.6926 68.4741 37.387 68.6048 38.2037C68.7355 39.0175 68.5106 39.8202 67.9877 40.44L68.1916 40.5876C68.7693 41.0051 69.0673 41.6784 68.9871 42.3869C68.9211 42.9744 68.6076 43.479 68.1283 43.7939C68.4839 44.1102 68.6681 44.5684 68.6231 45.0604C68.5781 45.5566 68.3096 45.9768 67.9006 46.2214C68.2281 46.5672 68.3729 47.0437 68.2815 47.5329C68.1916 48.022 67.8865 48.417 67.4564 48.6223C67.7516 48.9962 67.8514 49.4853 67.7165 49.9646C67.5815 50.444 67.2413 50.808 66.7944 50.9739C67.053 51.3745 67.1078 51.8693 66.9293 52.3345C66.7508 52.7984 66.3797 53.1315 65.9201 53.2552C66.1421 53.6769 66.152 54.1759 65.9327 54.6229C65.7134 55.0699 65.3114 55.3665 64.8419 55.448C65.0247 55.888 64.9895 56.3856 64.7309 56.8115C64.4722 57.236 64.0463 57.4974 63.5712 57.5368C63.716 57.9922 63.6373 58.4856 63.3407 58.8876C63.0469 59.2868 62.6028 59.5075 62.1276 59.5075H62.1192C62.2246 59.9756 62.1023 60.4605 61.7734 60.8344C61.4431 61.2083 60.9778 61.391 60.5013 61.3461C60.566 61.824 60.4029 62.2949 60.0431 62.6393C59.6523 63.0132 59.1224 63.1481 58.615 63.0146C58.5208 63.3069 58.3015 63.7989 57.8264 64.0969C57.565 64.2614 57.2641 64.3429 56.9282 64.3443H56.9352ZM56.4672 63.8636C56.9226 63.9704 57.3049 63.9296 57.6071 63.7413C58.1413 63.4081 58.2678 62.7123 58.2692 62.7053L58.3142 62.4439L58.5587 62.5465C58.979 62.7264 59.4359 62.6435 59.7591 62.3342C60.0824 62.025 60.1851 61.5724 60.0276 61.1521L59.873 60.7416L60.2877 60.8696C60.7192 61.0129 61.1676 60.8906 61.4642 60.5547C61.7608 60.2187 61.824 59.7577 61.63 59.3543L61.4431 58.9649L61.8634 59.0521C62.3062 59.1575 62.7419 58.9972 63.0076 58.636C63.2732 58.2748 63.2971 57.8109 63.068 57.4258L62.8431 57.0462L63.2775 57.1081C63.7216 57.1727 64.1419 56.9745 64.3753 56.5922C64.6086 56.2085 64.5903 55.7446 64.3289 55.3805L64.0801 55.0334L64.506 55.046C64.96 55.0713 65.3606 54.8366 65.5588 54.436C65.757 54.0339 65.6966 53.5743 65.4042 53.2356L65.116 52.9024L65.5546 52.8855C66.0016 52.8701 66.3797 52.6002 66.5399 52.1827C66.7002 51.7653 66.599 51.3112 66.2771 51.0006L65.9608 50.6956L66.398 50.6407C66.8421 50.5845 67.1936 50.2823 67.3144 49.8508C67.4353 49.4207 67.2948 48.9779 66.9448 48.6982L66.6018 48.4226L67.0319 48.3271C67.4691 48.2301 67.791 47.8969 67.8725 47.4556C67.954 47.0156 67.7727 46.5883 67.3988 46.3423L67.0277 46.0977L67.4522 45.9656C67.8781 45.8293 68.1677 45.468 68.2084 45.0224C68.2492 44.5768 68.0299 44.1678 67.6349 43.9569L67.247 43.7489L67.6518 43.576C68.1663 43.3581 68.5106 42.8957 68.5739 42.3405C68.6371 41.7852 68.4038 41.2581 67.9512 40.9292L67.3552 40.4977L67.5309 40.3234C68.0763 39.7794 68.3181 39.0316 68.1972 38.2711C68.0749 37.5107 67.611 36.8754 66.9237 36.5296L66.703 36.4185L66.8478 36.2175C67.299 35.5934 67.4199 34.8161 67.1781 34.0852C66.9363 33.3542 66.3769 32.8004 65.6431 32.5671L65.414 32.494L65.5166 32.2761C65.868 31.5789 65.8652 30.7932 65.511 30.11C65.1582 29.4269 64.5186 28.9687 63.7582 28.8534L63.5122 28.8168L63.5825 28.5793C63.82 27.8456 63.6935 27.0668 63.2395 26.4441C62.7855 25.8242 62.0855 25.4686 61.318 25.4686H61.0608L61.1001 25.224C61.2238 24.4622 60.9821 23.7102 60.4381 23.162C59.8969 22.6166 59.1505 22.3692 58.3901 22.4845L58.1342 22.5491L58.137 22.2764C58.1469 21.5033 57.7969 20.7949 57.177 20.3338C56.5571 19.8714 55.7798 19.7378 55.0404 19.9656L54.8155 20.0358L54.7691 19.7899C54.6665 19.0238 54.2167 18.3744 53.5378 18.0075C52.8589 17.6406 52.0689 17.6196 51.3717 17.9527L51.1468 18.0595L51.0751 17.8206C50.8629 17.077 50.3245 16.4979 49.5992 16.2308C48.8725 15.9637 48.0882 16.0579 47.4444 16.488L47.2476 16.6201L47.1337 16.3966C46.8175 15.691 46.2032 15.1948 45.447 15.0332C44.6907 14.8729 43.9275 15.0768 43.3512 15.5926L43.1656 15.7599L43.0293 15.5519C42.6132 14.8912 41.9357 14.485 41.164 14.4316C40.3923 14.3782 39.6656 14.686 39.168 15.2764L39.1047 15.3509L38.9023 15.3579L38.8377 15.282C38.3345 14.6846 37.6077 14.3767 36.836 14.4302C36.0658 14.4836 35.3882 14.8884 34.9764 15.542L34.8443 15.7529L34.6531 15.5954C34.074 15.0768 33.3107 14.8729 32.5545 15.0332C31.7982 15.1934 31.184 15.691 30.8677 16.3966L30.7651 16.6244L30.5557 16.488C29.9119 16.0579 29.1275 15.9651 28.4008 16.2308C27.6741 16.4979 27.1372 17.077 26.9249 17.8206L26.856 18.0609L26.6311 17.9527C25.9311 17.6181 25.1412 17.6378 24.4622 18.0061C23.7833 18.373 23.3335 19.0238 23.2309 19.7884L23.1972 20.0358L22.9582 19.9656C22.2202 19.7364 21.4415 19.8714 20.8216 20.3324C20.2018 20.7949 19.8532 21.5033 19.8616 22.275L19.8644 22.5238L19.6184 22.4859C18.8552 22.3678 18.106 22.6138 17.5606 23.162C17.0166 23.7102 16.7748 24.4608 16.8985 25.224L16.9379 25.4686H16.682C15.9132 25.4686 15.2132 25.8242 14.7591 26.4441C14.3037 27.0668 14.1786 27.8456 14.4162 28.5793L14.4921 28.814L14.2489 28.852C13.4814 28.9687 12.8418 29.4269 12.489 30.11C12.1362 30.7932 12.132 31.5803 12.4792 32.2663L12.5902 32.487L12.3569 32.5671C11.6232 32.8004 11.0637 33.3528 10.8219 34.0852C10.5802 34.8161 10.7011 35.5934 11.1523 36.2175L11.2971 36.4185L11.0764 36.5296C10.389 36.8768 9.92515 37.5107 9.80286 38.2711C9.68057 39.0316 9.92375 39.7794 10.4691 40.3234L10.6448 40.4977L10.0488 40.9292C9.59623 41.2567 9.3629 41.7838 9.42615 42.3405C9.48941 42.8971 9.83379 43.3581 10.3482 43.576L10.7559 43.7489L10.3637 43.9569C9.96873 44.1678 9.74945 44.5768 9.79021 45.0224C9.83098 45.468 10.1205 45.8293 10.5464 45.967L10.9653 46.1019L10.5999 46.3451C10.226 46.5911 10.0446 47.0184 10.1262 47.4584C10.2077 47.8983 10.5296 48.2329 10.9667 48.3285L11.3969 48.4241L11.0539 48.6996C10.7039 48.9793 10.5633 49.4207 10.6842 49.8522C10.8051 50.2823 11.1565 50.5859 11.6007 50.6422L12.0378 50.697L11.7216 51.002C11.3997 51.3126 11.2985 51.7653 11.4587 52.1841C11.6189 52.603 11.9971 52.8715 12.4441 52.887L12.877 52.9024L12.5987 53.2341C12.3021 53.5771 12.243 54.0368 12.4412 54.4388C12.638 54.8408 13.0386 55.0741 13.4856 55.0502L13.9256 55.0263L13.6712 55.3848C13.4097 55.7488 13.3915 56.2127 13.6248 56.5964C13.8581 56.9802 14.2784 57.1784 14.7226 57.1123L15.1387 57.0519L14.9376 57.4215C14.7043 57.8165 14.7282 58.2804 14.9939 58.6416C15.2595 59.0029 15.6953 59.1617 16.1324 59.0591L16.5682 58.9551L16.3728 59.3557C16.1774 59.7619 16.2421 60.223 16.5373 60.5589C16.8339 60.8949 17.2808 61.0171 17.7068 60.8766L18.1256 60.7374L17.9752 61.1493C17.815 61.5752 17.9176 62.0278 18.2409 62.3384C18.5642 62.6491 19.021 62.7306 19.4329 62.5549L19.6803 62.4495L19.7309 62.7123C19.7309 62.7123 19.8546 63.4053 20.3817 63.7342C20.6825 63.9226 21.0662 63.9634 21.5231 63.8551L21.5329 63.6935C21.6004 62.777 21.1702 62.0278 20.3817 61.6848L20.2032 61.6075L20.2664 61.4234C20.4154 60.9876 20.3845 60.5196 20.1807 60.1063C19.9769 59.693 19.624 59.3838 19.1869 59.2376L18.8692 59.1308L19.0646 58.785C19.312 58.3464 19.3457 57.8292 19.1574 57.3625C18.969 56.8958 18.5853 56.5472 18.1031 56.4024L17.7053 56.283L18.0371 56.0314C18.5333 55.6546 18.8088 55.0826 18.7961 54.4613C18.7821 53.8386 18.4799 53.2791 17.9682 52.9263L17.562 52.6452L17.8515 52.4779C18.6429 52.0211 19.2009 51.2817 19.4202 50.3948C19.6395 49.5078 19.4933 48.5941 19.0056 47.821L18.8552 47.5835L19.1264 47.5062C20.005 47.256 20.7247 46.6726 21.152 45.8658C21.5793 45.059 21.658 44.1369 21.3712 43.2682L21.2827 42.9983L21.5666 42.9913C22.4789 42.9589 23.3152 42.5668 23.9239 41.8864C24.5325 41.2061 24.8277 40.3304 24.7574 39.421L24.7363 39.1412L25.0104 39.1947C25.9072 39.3816 26.8139 39.2003 27.5659 38.683C28.3179 38.1671 28.8141 37.387 28.9631 36.486L29.0081 36.2105L29.2611 36.3272C30.089 36.7235 31.0125 36.7629 31.8657 36.4424C32.7189 36.1205 33.3866 35.4824 33.7465 34.6446L33.8519 34.3986L34.0683 34.5546C34.781 35.1408 35.668 35.3994 36.5746 35.2912C37.4812 35.183 38.2824 34.7219 38.8306 33.9924L38.9993 34.1189L39.168 33.9924C39.7162 34.7219 40.5188 35.183 41.424 35.2912C42.3307 35.3994 43.2176 35.1408 43.9233 34.5603L43.9486 34.542L44.1566 34.4169L44.2508 34.6404C44.612 35.4824 45.2797 36.1205 46.1329 36.4424C46.9861 36.7629 47.9096 36.7235 48.7319 36.33L48.9821 36.2105L49.0342 36.4818C49.1831 37.387 49.6793 38.1671 50.4314 38.683C51.1834 39.1989 52.09 39.3802 52.984 39.1947L53.2567 39.1384L53.2398 39.4167C53.1695 40.3304 53.4647 41.2061 54.0734 41.8864C54.682 42.5668 55.5183 42.9589 56.4306 42.9913L56.7117 43.0011L56.6274 43.2682C56.342 44.1355 56.4194 45.0576 56.8467 45.8658C57.274 46.6726 57.9937 47.256 58.8722 47.5062L59.1435 47.5835L58.9931 47.821C58.5053 48.5941 58.3591 49.5078 58.5784 50.3948C58.7977 51.2817 59.3557 52.0211 60.1471 52.4779L60.4367 52.6452L60.0304 52.9263C59.5188 53.2805 59.2166 53.84 59.2025 54.4613C59.1885 55.084 59.4654 55.6561 59.9616 56.0314L60.2933 56.283L59.8955 56.4024C59.4134 56.5458 59.0296 56.8958 58.8413 57.3625C58.6529 57.8292 58.6867 58.3464 58.934 58.785L59.1294 59.1308L58.8118 59.2376C58.3746 59.3852 58.0218 59.693 57.818 60.1063C57.6142 60.5196 57.5832 60.9876 57.7322 61.4234L57.7955 61.6075L57.617 61.6848C56.834 62.025 56.3898 62.815 56.4587 63.7455L56.4672 63.8678V63.8636Z" fill="black"/>
<path d="M67.5137 46.1662C68.6129 45.8148 68.7493 44.3149 67.7316 43.7695C68.9784 43.2396 69.1696 41.5515 68.0718 40.7573L67.6754 40.4705C68.9208 39.2279 68.5848 37.1307 67.0133 36.338C68.0451 34.9126 67.3788 32.8955 65.7019 32.3628L65.7047 32.3586C66.4975 30.7899 65.5234 28.9049 63.786 28.6421H63.7804C64.2667 27.1324 63.2996 25.5919 61.8167 25.3037C63.0354 25.9067 63.5217 27.325 62.6966 28.4383V28.4411L62.7008 28.4425C64.4677 28.912 65.0932 30.8096 63.8816 32.0241L63.8774 32.0283C65.5529 32.7114 65.8677 34.6709 64.4691 35.7279L64.4832 35.7363C66.028 36.612 66.028 38.5828 64.4832 39.4585L64.4691 39.4669L64.4776 39.4739C65.8705 40.5282 65.5585 42.4806 63.8872 43.1623L63.8774 43.1665L63.8816 43.1707C65.0918 44.3852 64.4663 46.2814 62.7008 46.7523H62.6938L62.6952 46.7565C63.0171 48.0595 62.2749 49.1011 61.7478 49.4455C60.0273 48.6106 59.4847 45.9314 60.4279 44.5933L60.4181 44.589C58.6934 44.0324 57.8247 42.4131 58.4741 40.9625L58.4783 40.9541L58.453 40.9498C56.644 40.6617 55.4464 39.2054 55.7682 37.6831L55.7725 37.6607H55.7261C53.8931 37.6607 52.3947 36.4321 52.3582 34.893V34.8536C50.5337 35.1685 48.7401 34.207 48.3156 32.6861L48.2945 32.6931C46.6021 33.3285 44.6145 32.7255 43.7993 31.3283L43.7894 31.31L43.7641 31.3255C42.2924 32.2658 40.1966 32.0606 39.0215 30.8616L39.0018 30.8405L38.9821 30.8602C37.807 32.0606 35.7112 32.2658 34.2395 31.324L34.2142 31.3086L34.2044 31.3269C33.3891 32.7241 31.4016 33.3285 29.7092 32.6917L29.6881 32.6833C29.2622 34.2056 27.8917 35.3076 26.0672 34.9928L26.0644 35.1038C26.0292 36.6022 24.5111 37.8012 22.6515 37.7998L22.6782 37.9291C22.9874 39.398 21.7912 40.798 19.978 41.0876L19.9442 41.0932L20.0033 41.2268C20.626 42.6197 19.7671 44.3023 18.0607 44.8519L17.9932 44.8744L18.0789 44.9967C18.9828 46.28 18.6089 47.9091 17.0556 48.6893L16.9629 48.7357L16.9769 48.7497C18.1787 49.9403 18.1422 51.6833 16.7155 52.701L16.7478 52.7234C18.1085 53.6933 18.6932 55.3674 17.5251 56.5257C17.5251 56.5257 19.233 57.154 18.7944 59.1261C18.7944 59.1261 20.4446 59.1458 20.4699 61.4876C20.8143 60.4741 20.2717 59.3749 19.2569 59.0334L19.181 59.008L19.2512 58.8843C19.836 57.847 19.3061 56.5369 18.1661 56.1968C19.3215 55.3211 19.2822 53.5725 18.0888 52.7487L17.9566 52.6574C19.6982 51.6552 20.2549 49.4047 19.1838 47.7053C21.1151 47.1543 22.2003 45.1063 21.5719 43.1989H21.5748C23.5806 43.1286 25.1226 41.4025 24.968 39.4008V39.398H24.9708C26.9344 39.8071 28.8447 38.497 29.1708 36.5179V36.5151L29.1764 36.5179C30.9855 37.3837 33.1516 36.5685 33.9415 34.7243V34.7201H33.9443C35.4948 35.995 37.7958 35.7195 39.0032 34.1156C40.2107 35.7195 42.5103 35.995 44.0621 34.7201L44.0649 34.7243C44.8549 36.5671 47.021 37.3823 48.83 36.5179L48.8342 36.5151V36.5179C49.1604 38.497 51.0706 39.8071 53.0343 39.398H53.0371V39.4008C52.8825 41.4011 54.4259 43.1272 56.4303 43.1975H56.4331C55.8048 45.1049 56.8899 47.1529 58.8213 47.7039C57.7502 49.4033 58.3068 51.6538 60.0484 52.656L59.9163 52.7473C59.7364 52.8724 59.5859 53.0186 59.458 53.1803C59.354 53.311 59.2683 53.4516 59.1994 53.5992C59.1994 53.5992 59.1994 53.6006 59.1994 53.602C59.1319 53.7482 59.0813 53.8986 59.049 54.0546C59.049 54.0602 59.0462 54.0658 59.0462 54.0715C59.0251 54.1727 59.0124 54.2739 59.0068 54.3765C58.9731 54.9767 59.1882 55.5895 59.6619 56.0379C59.7181 56.0928 59.7785 56.1448 59.8432 56.194C59.7729 56.215 59.704 56.2403 59.638 56.2685C59.2767 56.4231 58.9914 56.6831 58.7974 56.9966C58.7932 57.005 58.7875 57.012 58.7833 57.0205C58.7594 57.0612 58.7369 57.102 58.7159 57.1442C58.7116 57.1512 58.7088 57.1596 58.706 57.1667C58.647 57.2904 58.6006 57.4197 58.5697 57.5532C58.5641 57.5771 58.5584 57.5996 58.5542 57.6235C58.5486 57.6558 58.543 57.6882 58.5388 57.7219C58.5345 57.7514 58.5317 57.7809 58.5289 57.8119C58.5261 57.8414 58.5233 57.8709 58.5219 57.9004C58.5205 57.9412 58.5219 57.9819 58.5219 58.0227C58.5219 58.0424 58.5219 58.0635 58.5219 58.0831C58.5247 58.1436 58.5317 58.2026 58.5416 58.2631C58.5444 58.2841 58.55 58.3052 58.5542 58.3249C58.5626 58.3671 58.5725 58.4092 58.5837 58.4514C58.5894 58.4739 58.5964 58.4964 58.6034 58.5175C58.6161 58.5596 58.6315 58.6032 58.6484 58.6454C58.6554 58.6651 58.6624 58.6848 58.6709 58.703C58.6976 58.7635 58.7257 58.8239 58.7594 58.8829L58.8297 59.0066L58.7538 59.0319C57.7404 59.3735 57.1964 60.4741 57.5408 61.4862C56.6397 61.8784 56.0859 62.7962 56.1576 63.776L56.2743 64.029C56.6215 64.2033 57.0938 64.0768 57.1303 64.0711C57.1472 64.0683 57.1626 64.0655 57.1795 64.0627C57.216 64.0557 57.2512 64.0487 57.2849 64.0388C57.2976 64.036 57.3102 64.0332 57.3229 64.029C57.3679 64.0163 57.4114 64.0009 57.4536 63.9854C57.462 63.9826 57.4705 63.9784 57.4775 63.9756C57.5112 63.9615 57.5436 63.9474 57.5759 63.932C57.5885 63.9264 57.5998 63.9193 57.6124 63.9123C57.6405 63.8968 57.6673 63.8814 57.694 63.8659C57.7038 63.8603 57.715 63.8533 57.7249 63.8477C57.7952 63.8013 57.8598 63.7507 57.9189 63.6987C57.9259 63.6916 57.9329 63.6846 57.9414 63.6776C57.9638 63.6565 57.9849 63.6354 58.006 63.6129C58.013 63.6059 58.0201 63.5989 58.0257 63.5918C58.0496 63.5651 58.0735 63.5384 58.096 63.5117C58.096 63.5103 58.0988 63.5089 58.1002 63.5075C58.1241 63.4766 58.148 63.447 58.1691 63.4161C58.1719 63.4133 58.1733 63.4091 58.1761 63.4063C58.1944 63.3796 58.2126 63.3529 58.2295 63.3262C58.2323 63.3219 58.2351 63.3163 58.2379 63.3121C58.2562 63.284 58.2731 63.2545 58.2885 63.2278C58.4347 62.9649 58.4853 62.7456 58.4853 62.7456L58.4924 62.7484C59.5536 63.2039 60.6402 62.1623 60.2339 61.0828L60.2311 61.0757H60.2368C61.3332 61.4398 62.3283 60.3097 61.8293 59.2681L61.8265 59.2625H61.8293C62.9524 59.5295 63.8464 58.3165 63.2589 57.3227V57.3199C64.4017 57.4872 65.186 56.1996 64.5113 55.2606H64.5141C65.6667 55.3253 66.3302 53.9745 65.5754 53.1002H65.574V53.0988C66.728 53.058 67.2663 51.6524 66.4356 50.8511C67.5798 50.7064 67.9888 49.2571 67.0878 48.5347C68.2137 48.2844 68.4878 46.8043 67.525 46.169L67.5137 46.1662Z" fill="black"/>
<path opacity="0.2" d="M24.2832 22.3731C24.0429 21.6225 24.4238 20.6905 25.1913 20.3982C25.6369 20.2182 26.1513 20.3419 26.5646 20.5036L26.4493 20.5696C26.5393 19.0108 27.907 18.2503 29.113 19.3889L28.9893 19.4297C29.1411 18.852 29.5909 18.2194 30.2445 18.1266C30.8729 18.01 31.5757 18.2756 31.8891 18.8323C31.8948 18.8435 31.8849 18.8576 31.8723 18.8534C31.5799 18.7775 31.3227 18.7268 31.0739 18.71C30.3486 18.6777 29.5726 18.8618 29.1538 19.514C29.1271 19.5562 29.075 19.573 29.0301 19.5548C28.1825 19.2877 26.9329 19.7403 26.6306 20.6202C26.6138 20.668 26.5632 20.6947 26.5154 20.6863C26.2469 20.6568 25.9728 20.7046 25.7423 20.7875C25.2728 20.9478 24.8975 21.1797 24.6501 21.6253C24.5208 21.8431 24.4322 22.0976 24.3437 22.3745C24.3367 22.4026 24.2903 22.404 24.2832 22.3745V22.3731Z" fill="white"/>
<path opacity="0.2" d="M14.8636 49.5149C14.2381 49.4418 13.9612 48.4635 14.5291 48.1149L14.5375 48.188C13.8951 47.8521 13.8178 47.0593 14.5066 46.7233L14.501 46.7964C13.9106 46.4816 14.1257 45.4091 14.7976 45.4062C14.5164 45.8181 14.4391 46.2524 14.5811 46.729C14.5895 46.7528 14.5923 46.7824 14.5755 46.802C14.4377 46.9806 14.4602 47.2518 14.4377 47.4571C14.4265 47.6749 14.4405 47.9251 14.6022 48.1051C14.6148 48.1205 14.6204 48.1402 14.6162 48.1585C14.4785 48.635 14.5164 49.1171 14.8791 49.484C14.8903 49.4952 14.8791 49.5177 14.8636 49.5149Z" fill="white"/>
<path opacity="0.2" d="M54.8871 35.5252C54.3768 35.8063 53.7134 35.833 53.1975 35.5168C52.6535 35.2146 52.4188 34.4344 52.7505 33.9101L52.7477 33.934C52.7477 33.9256 52.7477 33.9186 52.7477 33.9101L52.8138 33.9692L52.8433 33.9607C52.6142 34.1308 52.3429 34.2714 52.0407 34.3318C51.4306 34.4583 50.7433 34.1632 50.4242 33.6178C50.2611 33.3451 50.2119 33.0091 50.2963 32.7238C50.3061 32.6886 50.3441 32.669 50.3792 32.6788C50.4031 32.6858 50.4214 32.7069 50.4256 32.7294C50.479 32.9951 50.5858 33.2186 50.7418 33.3943C51.2099 33.8975 52.1292 34.1322 52.7786 33.8525C52.8461 33.816 52.8883 33.8891 52.8742 33.9495C52.7463 35.1836 53.8778 35.4395 54.8674 35.4381C54.9124 35.4381 54.9292 35.5041 54.8885 35.5252H54.8871Z" fill="white"/>
<path opacity="0.15" d="M63.6562 41.417C64.1496 41.885 63.9922 42.8043 63.3568 43.0615L63.3709 43.0081C63.5831 43.2035 63.8193 43.5352 63.8151 43.8698C63.8319 44.2043 63.6942 44.5796 63.3976 44.7553C63.3624 44.7764 63.3189 44.7329 63.3414 44.6991C63.6197 44.1931 63.5634 43.5563 63.3062 43.0531C63.2936 43.0334 63.2992 43.0081 63.3175 42.9955C63.6647 42.7397 63.7054 42.2744 63.6759 41.8752C63.6647 41.7374 63.6365 41.5983 63.6084 41.4465C63.6014 41.4198 63.6379 41.3987 63.6576 41.4184L63.6562 41.417Z" fill="white"/>
</svg>
