<svg width="50" height="38" viewBox="0 0 50 38" fill="none" xmlns="http://www.w3.org/2000/svg">
<path d="M32.5 36C42.165 36 50 28.3888 50 19C50 9.61116 42.165 2 32.5 2C22.835 2 15 9.61116 15 19C15 28.3888 22.835 36 32.5 36Z" fill="#32FCE3"/>
<g filter="url(#filter0_i_88_63)">
<path d="M32.4992 33.2061C40.5759 33.2061 47.1233 26.8457 47.1233 18.9998C47.1233 11.1538 40.5759 4.79346 32.4992 4.79346C24.4225 4.79346 17.875 11.1538 17.875 18.9998C17.875 26.8457 24.4225 33.2061 32.4992 33.2061Z" fill="#00E2CC"/>
</g>
<path d="M33.5615 12.5842C34.532 12.5842 35.3688 12.6963 36.065 12.9137C36.7612 13.1312 37.3379 13.4343 37.7879 13.8166C38.238 14.2054 38.5685 14.6601 38.7865 15.1939C39.0045 15.7277 39.11 16.301 39.11 16.9205V17.2171C39.11 17.8365 38.9975 18.4231 38.7725 18.9766C38.5474 19.5302 38.2029 20.0179 37.7387 20.433C37.2746 20.8482 36.6979 21.1777 36.0088 21.4216C35.3196 21.6654 34.5038 21.7906 33.5615 21.7906H30.3266V26.5289C30.3266 26.9375 30.186 27.234 29.8976 27.412C29.6164 27.5965 29.2788 27.6887 28.885 27.6887C28.4912 27.6887 28.1607 27.5965 27.8723 27.412C27.584 27.2274 27.4434 26.9375 27.4434 26.5289V14.3306C27.4434 13.6716 27.584 13.2169 27.8583 12.9599C28.1325 12.7028 28.6318 12.5776 29.3562 12.5776H33.5615V12.5842ZM30.3266 19.517H33.1818C34.1241 19.517 34.8695 19.3457 35.404 19.0096C35.9455 18.6735 36.2127 18.0606 36.2127 17.1775V16.9469C36.2127 16.5251 36.1424 16.1824 36.0088 15.9122C35.8751 15.6486 35.6853 15.4312 35.4321 15.273C35.186 15.1148 34.8906 14.9962 34.546 14.9369C34.2014 14.871 33.8287 14.8446 33.4209 14.8446H30.3196V19.5236L30.3266 19.517Z" fill="white"/>
<g filter="url(#filter1_d_88_63)">
<path d="M24.5 36C34.165 36 42 28.3888 42 19C42 9.61116 34.165 2 24.5 2C14.835 2 7 9.61116 7 19C7 28.3888 14.835 36 24.5 36Z" fill="#32FCE3"/>
</g>
<g filter="url(#filter2_i_88_63)">
<path d="M24.4992 33.2061C32.5759 33.2061 39.1233 26.8457 39.1233 18.9998C39.1233 11.1538 32.5759 4.79346 24.4992 4.79346C16.4225 4.79346 9.875 11.1538 9.875 18.9998C9.875 26.8457 16.4225 33.2061 24.4992 33.2061Z" fill="#00E2CC"/>
</g>
<path d="M25.5615 12.5842C26.532 12.5842 27.3688 12.6963 28.065 12.9137C28.7612 13.1312 29.3379 13.4343 29.7879 13.8166C30.238 14.2054 30.5685 14.6601 30.7865 15.1939C31.0045 15.7277 31.11 16.301 31.11 16.9205V17.2171C31.11 17.8365 30.9975 18.4231 30.7725 18.9766C30.5474 19.5302 30.2029 20.0179 29.7387 20.433C29.2746 20.8482 28.6979 21.1777 28.0088 21.4216C27.3196 21.6654 26.5038 21.7906 25.5615 21.7906H22.3266V26.5289C22.3266 26.9375 22.186 27.234 21.8976 27.412C21.6164 27.5965 21.2788 27.6887 20.885 27.6887C20.4912 27.6887 20.1607 27.5965 19.8723 27.412C19.584 27.2274 19.4434 26.9375 19.4434 26.5289V14.3306C19.4434 13.6716 19.584 13.2169 19.8583 12.9599C20.1325 12.7028 20.6318 12.5776 21.3562 12.5776H25.5615V12.5842ZM22.3266 19.517H25.1818C26.1241 19.517 26.8695 19.3457 27.404 19.0096C27.9455 18.6735 28.2127 18.0606 28.2127 17.1775V16.9469C28.2127 16.5251 28.1424 16.1824 28.0088 15.9122C27.8751 15.6486 27.6853 15.4312 27.4321 15.273C27.186 15.1148 26.8906 14.9962 26.546 14.9369C26.2014 14.871 25.8287 14.8446 25.4209 14.8446H22.3196V19.5236L22.3266 19.517Z" fill="white"/>
<g filter="url(#filter3_d_88_63)">
<path d="M17 36C26.3888 36 34 28.3888 34 19C34 9.61116 26.3888 2 17 2C7.61116 2 0 9.61116 0 19C0 28.3888 7.61116 36 17 36Z" fill="#32FCE3"/>
</g>
<g filter="url(#filter4_i_88_63)">
<path d="M16.9992 33.2061C24.8451 33.2061 31.2055 26.8457 31.2055 18.9998C31.2055 11.1538 24.8451 4.79346 16.9992 4.79346C9.15325 4.79346 2.79286 11.1538 2.79286 18.9998C2.79286 26.8457 9.15325 33.2061 16.9992 33.2061Z" fill="#00E2CC"/>
</g>
<path d="M18.0312 12.5842C18.9739 12.5842 19.7869 12.6963 20.4632 12.9137C21.1395 13.1312 21.6996 13.4343 22.1369 13.8166C22.5741 14.2054 22.8951 14.6601 23.1069 15.1939C23.3187 15.7277 23.4212 16.301 23.4212 16.9205V17.2171C23.4212 17.8365 23.3119 18.4231 23.0933 18.9766C22.8747 19.5302 22.5399 20.0179 22.089 20.433C21.6382 20.8482 21.078 21.1777 20.4085 21.4216C19.739 21.6654 18.9466 21.7906 18.0312 21.7906H14.8887V26.5289C14.8887 26.9375 14.7521 27.234 14.472 27.412C14.1987 27.5965 13.8708 27.6887 13.4883 27.6887C13.1057 27.6887 12.7846 27.5965 12.5046 27.412C12.2245 27.2274 12.0878 26.9375 12.0878 26.5289V14.3306C12.0878 13.6716 12.2245 13.2169 12.4909 12.9599C12.7573 12.7028 13.2423 12.5776 13.946 12.5776H18.0312V12.5842ZM14.8887 19.517H17.6623C18.5777 19.517 19.3018 19.3457 19.821 19.0096C20.347 18.6735 20.6066 18.0606 20.6066 17.1775V16.9469C20.6066 16.5251 20.5383 16.1824 20.4085 15.9122C20.2787 15.6486 20.0943 15.4312 19.8483 15.273C19.6092 15.1148 19.3223 14.9962 18.9876 14.9369C18.6528 14.871 18.2908 14.8446 17.8945 14.8446H14.8819V19.5236L14.8887 19.517Z" fill="white"/>
<defs>
<filter id="filter0_i_88_63" x="17.875" y="4.79346" width="29.2483" height="28.4126" filterUnits="userSpaceOnUse" color-interpolation-filters="sRGB">
<feFlood flood-opacity="0" result="BackgroundImageFix"/>
<feBlend mode="normal" in="SourceGraphic" in2="BackgroundImageFix" result="shape"/>
<feColorMatrix in="SourceAlpha" type="matrix" values="0 0 0 0 0 0 0 0 0 0 0 0 0 0 0 0 0 0 127 0" result="hardAlpha"/>
<feOffset dx="2.5" dy="2.5"/>
<feComposite in2="hardAlpha" operator="arithmetic" k2="-1" k3="1"/>
<feColorMatrix type="matrix" values="0 0 0 0 0 0 0 0 0 0 0 0 0 0 0 0 0 0 0.1 0"/>
<feBlend mode="normal" in2="shape" result="effect1_innerShadow_88_63"/>
</filter>
<filter id="filter1_d_88_63" x="7" y="0" width="40" height="38" filterUnits="userSpaceOnUse" color-interpolation-filters="sRGB">
<feFlood flood-opacity="0" result="BackgroundImageFix"/>
<feColorMatrix in="SourceAlpha" type="matrix" values="0 0 0 0 0 0 0 0 0 0 0 0 0 0 0 0 0 0 127 0" result="hardAlpha"/>
<feOffset dx="3"/>
<feGaussianBlur stdDeviation="1"/>
<feComposite in2="hardAlpha" operator="out"/>
<feColorMatrix type="matrix" values="0 0 0 0 0 0 0 0 0 0 0 0 0 0 0 0 0 0 0.2 0"/>
<feBlend mode="normal" in2="BackgroundImageFix" result="effect1_dropShadow_88_63"/>
<feBlend mode="normal" in="SourceGraphic" in2="effect1_dropShadow_88_63" result="shape"/>
</filter>
<filter id="filter2_i_88_63" x="9.875" y="4.79346" width="29.2483" height="28.4126" filterUnits="userSpaceOnUse" color-interpolation-filters="sRGB">
<feFlood flood-opacity="0" result="BackgroundImageFix"/>
<feBlend mode="normal" in="SourceGraphic" in2="BackgroundImageFix" result="shape"/>
<feColorMatrix in="SourceAlpha" type="matrix" values="0 0 0 0 0 0 0 0 0 0 0 0 0 0 0 0 0 0 127 0" result="hardAlpha"/>
<feOffset dx="2.5" dy="2.5"/>
<feComposite in2="hardAlpha" operator="arithmetic" k2="-1" k3="1"/>
<feColorMatrix type="matrix" values="0 0 0 0 0 0 0 0 0 0 0 0 0 0 0 0 0 0 0.1 0"/>
<feBlend mode="normal" in2="shape" result="effect1_innerShadow_88_63"/>
</filter>
<filter id="filter3_d_88_63" x="0" y="0" width="39" height="38" filterUnits="userSpaceOnUse" color-interpolation-filters="sRGB">
<feFlood flood-opacity="0" result="BackgroundImageFix"/>
<feColorMatrix in="SourceAlpha" type="matrix" values="0 0 0 0 0 0 0 0 0 0 0 0 0 0 0 0 0 0 127 0" result="hardAlpha"/>
<feOffset dx="3"/>
<feGaussianBlur stdDeviation="1"/>
<feComposite in2="hardAlpha" operator="out"/>
<feColorMatrix type="matrix" values="0 0 0 0 0 0 0 0 0 0 0 0 0 0 0 0 0 0 0.2 0"/>
<feBlend mode="normal" in2="BackgroundImageFix" result="effect1_dropShadow_88_63"/>
<feBlend mode="normal" in="SourceGraphic" in2="effect1_dropShadow_88_63" result="shape"/>
</filter>
<filter id="filter4_i_88_63" x="2.79286" y="4.79346" width="28.4127" height="28.4126" filterUnits="userSpaceOnUse" color-interpolation-filters="sRGB">
<feFlood flood-opacity="0" result="BackgroundImageFix"/>
<feBlend mode="normal" in="SourceGraphic" in2="BackgroundImageFix" result="shape"/>
<feColorMatrix in="SourceAlpha" type="matrix" values="0 0 0 0 0 0 0 0 0 0 0 0 0 0 0 0 0 0 127 0" result="hardAlpha"/>
<feOffset dx="2.5" dy="2.5"/>
<feComposite in2="hardAlpha" operator="arithmetic" k2="-1" k3="1"/>
<feColorMatrix type="matrix" values="0 0 0 0 0 0 0 0 0 0 0 0 0 0 0 0 0 0 0.1 0"/>
<feBlend mode="normal" in2="shape" result="effect1_innerShadow_88_63"/>
</filter>
</defs>
</svg>
