<svg width="16" height="19" viewBox="0 0 16 19" fill="none" xmlns="http://www.w3.org/2000/svg">
<path d="M15.8109 13.8999C15.3797 14.8577 15.1719 15.2858 14.6172 16.1312C13.8406 17.3124 12.7453 18.7874 11.3922 18.7968C10.1875 18.8077 9.87655 18.0108 8.24061 18.0249C6.60624 18.0327 6.26561 18.8124 5.05936 18.7999C3.70467 18.7874 2.66874 17.4593 1.89217 16.2796C-0.279702 12.9718 -0.509389 9.09365 0.832798 7.03115C1.7828 5.56865 3.28436 4.70928 4.6953 4.70928C6.1328 4.70928 7.03592 5.49834 8.22342 5.49834C9.37655 5.49834 10.0781 4.70771 11.7406 4.70771C12.9969 4.70771 14.325 5.39209 15.275 6.57334C12.1687 8.27646 12.6734 12.7124 15.8109 13.8999ZM10.4781 3.3874C11.0828 2.61084 11.5422 1.51553 11.375 0.399902C10.389 0.46709 9.23592 1.09678 8.56249 1.9124C7.95155 2.65615 7.4453 3.75928 7.64217 4.82646C8.71874 4.86084 9.8328 4.21865 10.4781 3.3874Z" fill="white"/>
</svg>
