<svg width="19" height="18" viewBox="0 0 19 18" fill="none" xmlns="http://www.w3.org/2000/svg">
<path d="M19.0002 8.45567V9.57604C19.0002 10.0411 18.662 10.4005 18.1969 10.4745L16.9603 10.6119C16.622 10.6436 16.3261 10.8761 16.1887 11.2038C16.1253 11.4363 16.0196 11.6688 15.9244 11.8696C15.7553 12.1656 15.8293 12.5672 16.0301 12.8315L16.8334 13.7933C17.1294 14.1527 17.0977 14.6494 16.77 14.9877L15.9667 15.7804C15.6285 16.108 15.1317 16.1398 14.7618 15.8438L13.7894 15.0511C13.5252 14.8186 13.1552 14.7868 12.817 14.956C12.5845 15.0511 12.3836 15.1568 12.1511 15.2202C11.8129 15.3153 11.5803 15.6218 11.5486 15.9812L11.4112 17.2073C11.3795 17.6723 10.9779 18 10.5128 18H9.38188C8.91681 18 8.54688 17.6723 8.48346 17.2073L8.34606 15.9812C8.31435 15.6536 8.08182 15.3576 7.74359 15.2202C7.51106 15.1568 7.27853 15.0511 7.07771 14.956C6.78176 14.7868 6.38011 14.8608 6.10531 15.0511L5.1329 15.8438C4.76297 16.1398 4.2662 16.108 3.92797 15.7804L3.12468 14.9877C2.78646 14.66 2.75475 14.1632 3.06127 13.7933L3.83285 12.8315C4.06538 12.5672 4.09709 12.2079 3.93854 11.8696C3.83285 11.6371 3.73772 11.4363 3.6743 11.2038C3.57918 10.8761 3.27266 10.6436 2.90272 10.6119L1.66608 10.4745C1.20102 10.4427 0.862793 10.0411 0.862793 9.57604V8.45567C0.862793 7.9906 1.20102 7.63124 1.66608 7.55725L2.90272 7.41985C3.24095 7.38814 3.5369 7.15561 3.6743 6.82795C3.73772 6.59542 3.84342 6.36289 3.93854 6.16207C4.10765 5.86612 4.03367 5.46447 3.83285 5.20024L3.06127 4.2384C2.76532 3.87904 2.79703 3.38227 3.12468 3.04404L3.92797 2.25132C4.2662 1.92366 4.76297 1.89196 5.1329 2.1879L6.10531 2.94891C6.36954 3.18144 6.73948 3.21315 7.07771 3.04404C7.31024 2.94891 7.51106 2.84322 7.74359 2.7798C8.08182 2.68467 8.31435 2.37816 8.34606 2.01879L8.48346 0.792719C8.51517 0.327657 8.91681 0 9.38188 0H10.5128C10.9779 0 11.3478 0.327657 11.4112 0.792719L11.5486 2.01879C11.5803 2.34645 11.8129 2.6424 12.1511 2.7798C12.3836 2.84322 12.6162 2.94891 12.817 3.04404C13.1129 3.21315 13.5146 3.13917 13.7894 2.94891L14.7618 2.1879C15.1317 1.89196 15.6285 1.92366 15.9667 2.25132L16.77 3.04404C17.1082 3.3717 17.1399 3.86847 16.8334 4.2384L16.0301 5.20024C15.7976 5.46447 15.7659 5.82384 15.9244 6.16207C16.0301 6.3946 16.1253 6.59542 16.1887 6.82795C16.2838 7.15561 16.5903 7.38814 16.9603 7.41985L18.1969 7.55725C18.662 7.58896 19.0002 7.9906 19.0002 8.45567ZM13.7894 9.02643C13.7894 6.94422 12.056 5.22137 9.94206 5.22137C7.82815 5.22137 6.09474 6.94422 6.09474 9.02643C6.09474 11.1086 7.82815 12.8315 9.94206 12.8315C12.0454 12.7998 13.7894 11.1086 13.7894 9.02643Z" fill="#001738"/>
</svg>
