<svg width="60" height="20" viewBox="0 0 60 20" fill="none" xmlns="http://www.w3.org/2000/svg">
<path d="M37.6032 2.02578H25.7974L22.4583 0H37.6032V2.02578Z" fill="black"/>
<path d="M34.2841 3.28027H26.2631V4.26531H34.2841V3.28027Z" fill="black"/>
<path d="M25.5202 1.38375C24.6113 0.507178 23.3243 0 21.9699 0H4.41509C1.97594 0 0 1.97594 0 4.41509L0.941065 11.5302C1.81177 16.945 6.3412 19.3226 10.812 19.3226C15.2828 19.3226 19.5894 17.546 22.565 14.5997C25.1889 11.9964 26.8306 8.48718 26.8306 4.47959C26.8306 3.2219 26.3234 2.15771 25.5202 1.38375ZM21.4393 14.4531C18.578 17.0271 14.8049 18.4431 10.812 18.4431C8.64255 18.4431 6.59039 17.8392 5.03367 16.7398C3.26588 15.4909 2.18409 13.6967 1.81177 11.4013L0.8795 4.35939C0.908817 2.43328 2.48312 0.8795 4.41509 0.8795H21.9699C23.0165 0.8795 24.0397 1.24889 24.7784 1.89386C25.3149 2.36292 25.9511 3.19259 25.9511 4.47959C25.9511 8.29075 24.3504 11.8322 21.4393 14.4531Z" fill="black"/>
<path d="M25.9505 4.47899V4.55228L4.14771 16.0122C2.89882 14.8307 2.11607 13.2828 1.81118 11.4007L0.878906 4.35879C0.908223 2.43269 2.48253 0.878906 4.4145 0.878906H21.9693C23.0159 0.878906 24.0391 1.2483 24.7779 1.89326C25.3144 2.36233 25.9505 3.19199 25.9505 4.47899Z" fill="black"/>
<path d="M25.9497 4.55225C25.9291 8.3341 24.3314 11.8492 21.4378 14.4525C18.5765 17.0265 14.8035 18.4425 10.8105 18.4425C8.6411 18.4425 6.58893 17.8386 5.03221 16.7392C4.71559 16.5164 4.4195 16.2731 4.14685 16.0121L25.9497 4.55225Z" fill="#2D2D2D"/>
<path d="M33.1696 4.47959C33.1696 8.48718 34.8113 11.9964 37.4351 14.5997C40.4108 17.546 44.647 19.3226 49.1882 19.3226C53.659 19.3226 58.1884 16.945 59.0591 11.5302L60.0002 4.41509C60.0002 1.97594 58.0242 0 55.5851 0H38.0303C36.6758 0 35.3888 0.507178 34.48 1.38375C33.6767 2.15771 33.1696 3.2219 33.1696 4.47959ZM34.0491 4.47959C34.0491 3.19259 34.6852 2.36292 35.2217 1.89386C35.9605 1.24889 36.9837 0.8795 38.0303 0.8795H55.5851C57.5171 0.8795 59.0914 2.43328 59.1207 4.35939L58.1884 11.4013C57.8161 13.6967 56.7343 15.4909 54.9665 16.7398C53.4098 17.8392 51.3576 18.4431 49.1882 18.4431C45.1953 18.4431 41.4222 17.0271 38.5609 14.4531C35.6497 11.8322 34.0491 8.29075 34.0491 4.47959Z" fill="black"/>
<path d="M59.1201 4.35879L59.0937 4.55228L39.2111 15.0037C38.9883 14.8278 38.7714 14.6431 38.5603 14.4525C35.6667 11.8492 34.069 8.33414 34.0485 4.55228V4.47899C34.0485 3.19199 34.6846 2.36233 35.2211 1.89326C35.9599 1.2483 36.9831 0.878906 38.0297 0.878906H55.5845C57.5165 0.878906 59.0908 2.43269 59.1201 4.35879Z" fill="black"/>
<path d="M59.0948 4.55225V4.55811L58.189 11.4006C57.8841 13.2828 57.1013 14.8307 55.8524 16.0121C55.5798 16.2731 55.2837 16.5164 54.9671 16.7392C53.4103 17.8386 51.3582 18.4425 49.1887 18.4425C45.4919 18.4425 41.9827 17.2288 39.2123 15.0036L59.0948 4.55225Z" fill="#2D2D2D"/>
</svg>
