<svg width="276" height="159" viewBox="0 0 276 159" fill="none" xmlns="http://www.w3.org/2000/svg">
<path d="M12.03 100.24C13.54 99.0899 14.65 98.0799 15.34 97.2599C15.87 96.6199 16.25 96.0099 16.47 95.4399C16.68 95.9399 17.03 96.4899 17.5 97.0799C18.12 97.8599 19.21 98.8499 20.72 99.9999C21.91 100.92 23.12 101.81 24.3 102.65C25.49 103.5 26.47 104.19 27.22 104.71C27.74 105.06 28.26 105.24 28.76 105.24C28.99 105.24 29.22 105.2 29.45 105.13C30.14 104.9 30.7 104.51 31.12 103.96C31.58 103.37 31.8 102.68 31.76 101.92C31.72 101.14 31.32 100.51 30.6 100.04C29.57 99.3699 28.45 98.5899 27.28 97.7199C26.1 96.8499 24.8 95.8499 23.42 94.7499C21.98 93.6599 20.97 92.4999 20.41 91.3099C19.85 90.1099 19.57 88.5599 19.57 86.6899V84.2699H29.02C29.8 84.2699 30.39 83.9899 30.76 83.4399C31.12 82.9099 31.3 82.2799 31.3 81.5699C31.3 80.8599 31.12 80.2199 30.76 79.6699C30.38 79.0999 29.8 78.7999 29.01 78.7999H3.33003C2.51003 78.7999 1.90003 79.0899 1.52003 79.6699C1.16003 80.2199 0.980029 80.8499 0.980029 81.5699C0.980029 82.2899 1.16003 82.9099 1.52003 83.4399C1.89003 83.9899 2.50003 84.2699 3.32003 84.2699H13.18V86.8699C13.18 88.6999 12.9 90.2299 12.34 91.4299C11.78 92.6299 10.77 93.7999 9.33003 94.9299C7.94003 96.0399 6.57003 97.0799 5.26003 98.0199C3.92003 98.9799 2.55003 99.9199 1.19003 100.81C0.420029 101.37 0.0200286 102.04 2.85743e-05 102.82C-0.0199714 103.58 0.200029 104.26 0.670029 104.85C1.04003 105.39 1.60003 105.8 2.31003 106.05C2.56003 106.14 2.81003 106.18 3.05003 106.18C3.54003 106.18 4.03003 106.01 4.51003 105.67C5.69003 104.86 6.93003 103.98 8.20003 103.08C9.50003 102.15 10.79 101.2 12.02 100.25L12.03 100.24ZM18.2 97.5699C17.99 97.3499 17.81 97.1499 17.65 96.9499C17.03 96.1799 16.65 95.4899 16.49 94.8999H16.43C16.33 95.3399 16.1 95.8199 15.77 96.3299C16.1 95.8299 16.33 95.3499 16.43 94.8999H16.49C16.65 95.4999 17.04 96.1799 17.65 96.9499C17.8 97.1399 17.99 97.3499 18.2 97.5699ZM26.44 103.93C26.76 104.15 27.06 104.36 27.33 104.55C27.49 104.66 27.65 104.74 27.8 104.81C27.64 104.74 27.49 104.66 27.33 104.55C27.06 104.37 26.76 104.16 26.44 103.93ZM28.39 105C28.53 105.03 28.67 105.03 28.81 105.03C28.79 105.03 28.77 105.03 28.76 105.03C28.64 105.03 28.52 105.02 28.39 104.99V105ZM31.44 102.94C31.54 102.62 31.58 102.28 31.56 101.93C31.58 102.29 31.54 102.63 31.44 102.94ZM19.83 90.3999C19.94 90.7499 20.06 91.0799 20.21 91.3899C20.71 92.4699 21.58 93.4999 22.77 94.4799C21.58 93.4899 20.72 92.4699 20.21 91.3899C20.07 91.0799 19.94 90.7499 19.83 90.3999C19.61 89.6999 19.47 88.9199 19.4 88.0499C19.47 88.9199 19.62 89.6999 19.83 90.3999ZM12.53 91.4999C12.82 90.8899 13.03 90.1899 13.18 89.4199C13.32 88.6499 13.4 87.7899 13.4 86.8599C13.4 87.7899 13.33 88.6499 13.18 89.4199C13.04 90.1899 12.82 90.8899 12.53 91.4999C12.1 92.4199 11.42 93.3199 10.48 94.1999C11.41 93.3199 12.1 92.4199 12.53 91.4999ZM0.200029 102.82C0.180029 103.53 0.390029 104.17 0.830029 104.73C0.390029 104.18 0.180029 103.54 0.200029 102.82ZM2.94003 105.97C3.24003 105.99 3.54003 105.93 3.84003 105.81C3.58003 105.92 3.32003 105.98 3.05003 105.98C3.01003 105.98 2.97003 105.98 2.94003 105.97ZM4.40003 105.5C4.74003 105.27 5.10003 105.01 5.45003 104.77C5.10003 105.02 4.74003 105.27 4.40003 105.5Z" fill="white"/>
<path d="M50.75 93.02C51.11 92.49 51.29 91.82 51.29 91.03C51.29 90.32 51.11 89.68 50.75 89.13C50.37 88.56 49.75 88.27 48.89 88.27H42.54V78.41C42.54 77.47 42.21 76.77 41.56 76.34C40.93 75.92 40.19 75.71 39.36 75.71C38.53 75.71 37.79 75.92 37.16 76.34C36.51 76.78 36.18 77.47 36.18 78.41V104.44C36.18 105.38 36.51 106.08 37.16 106.51C37.79 106.93 38.53 107.14 39.36 107.14C40.19 107.14 40.93 106.93 41.56 106.51C42.21 106.08 42.54 105.38 42.54 104.44V93.86H48.89C49.75 93.86 50.38 93.58 50.75 93.03V93.02ZM37.27 106.33C36.67 105.93 36.38 105.3 36.38 104.42V78.39C36.38 77.88 36.5 77.45 36.7 77.11C36.49 77.46 36.38 77.88 36.38 78.39V104.42C36.38 105.29 36.68 105.93 37.27 106.33C37.42 106.43 37.57 106.52 37.74 106.59C37.58 106.52 37.42 106.43 37.27 106.33ZM41.44 106.33C41.29 106.43 41.14 106.52 40.97 106.59C41.13 106.52 41.29 106.43 41.44 106.33C41.89 106.03 42.17 105.6 42.28 105.04C42.17 105.61 41.89 106.04 41.44 106.33Z" fill="white"/>
<path d="M98.01 119.91H78.26V106.59H87.9C89.72 106.59 90.94 106.26 91.64 105.58C92.34 104.9 92.68 103.7 92.68 101.92V80.02C92.68 79.12 92.34 78.4299 91.67 77.9799C91.02 77.5399 90.27 77.3199 89.44 77.3199C88.69 77.3199 87.98 77.5399 87.33 77.9799C86.66 78.4299 86.32 79.12 86.32 80.02V89.7199H63.82V80.02C63.82 79.12 63.48 78.4299 62.81 77.9799C62.16 77.5399 61.43 77.3199 60.64 77.3199C59.85 77.3199 59.13 77.5399 58.5 77.9799C57.85 78.4299 57.52 79.12 57.52 80.02V101.92C57.52 103.7 57.85 104.9 58.53 105.58C59.21 106.26 60.42 106.59 62.25 106.59H71.89V119.91H52.14C51.36 119.91 50.77 120.19 50.4 120.74C50.04 121.27 49.86 121.9 49.86 122.61C49.86 123.32 50.04 123.96 50.4 124.51C50.77 125.08 51.36 125.37 52.15 125.37H98.01C98.79 125.37 99.38 125.08 99.76 124.51C100.12 123.96 100.3 123.32 100.3 122.61C100.3 121.9 100.12 121.27 99.76 120.74C99.38 120.19 98.8 119.91 98.02 119.91H98.01ZM98.01 120.11C98.37 120.11 98.68 120.17 98.94 120.3C98.68 120.18 98.37 120.11 98.01 120.11ZM63.83 94.4299H86.33V101.65H63.83V94.4299ZM91.51 105.44C91.18 105.76 90.72 106 90.12 106.15C90.72 105.99 91.18 105.75 91.51 105.44ZM86.54 80.0299C86.54 79.1999 86.85 78.5699 87.46 78.1499C87.77 77.9399 88.09 77.7899 88.42 77.6799C88.75 77.5699 89.1 77.52 89.46 77.52C89.86 77.52 90.23 77.5699 90.58 77.6799C90.93 77.7899 91.26 77.9399 91.57 78.1499C92.19 78.5699 92.49 79.1899 92.49 80.0299C92.49 79.1999 92.18 78.5699 91.57 78.1499C91.26 77.9399 90.93 77.7899 90.58 77.6799C90.23 77.5699 89.85 77.52 89.46 77.52C89.1 77.52 88.76 77.5699 88.42 77.6799C88.08 77.7899 87.77 77.9399 87.46 78.1499C86.84 78.5699 86.54 79.1899 86.54 80.0299ZM57.74 80.0299C57.74 79.1999 58.04 78.5699 58.63 78.1499C58.93 77.9399 59.25 77.7899 59.58 77.6799C59.92 77.5799 60.27 77.52 60.65 77.52C61.03 77.52 61.39 77.5699 61.73 77.6799C62.07 77.7799 62.4 77.9399 62.71 78.1499C63.32 78.5699 63.63 79.1899 63.63 80.0299C63.63 79.1999 63.32 78.5699 62.71 78.1499C62.4 77.9399 62.08 77.7899 61.73 77.6799C61.39 77.5799 61.03 77.52 60.65 77.52C60.27 77.52 59.92 77.5699 59.58 77.6799C59.24 77.7899 58.93 77.9399 58.63 78.1499C58.03 78.5699 57.74 79.1899 57.74 80.0299ZM62.26 106.39C61.39 106.39 60.65 106.31 60.06 106.15C59.46 105.99 59.01 105.75 58.69 105.44C59.01 105.76 59.46 106 60.06 106.15C60.66 106.31 61.39 106.39 62.26 106.39ZM52.16 120.11C51.8 120.11 51.49 120.17 51.23 120.3C51.49 120.18 51.8 120.11 52.16 120.11ZM50.58 120.86C50.66 120.74 50.76 120.63 50.87 120.53C50.76 120.62 50.67 120.73 50.58 120.86C50.24 121.36 50.07 121.94 50.07 122.62C50.07 121.95 50.24 121.36 50.58 120.86ZM52.16 125.18C51.98 125.18 51.81 125.16 51.66 125.13C51.82 125.16 51.98 125.18 52.16 125.18ZM99.59 124.4C99.34 124.79 98.98 125.03 98.51 125.13C98.98 125.03 99.33 124.79 99.59 124.4ZM100.1 122.61C100.1 121.94 99.93 121.35 99.59 120.85C99.51 120.73 99.41 120.62 99.3 120.52C99.41 120.61 99.5 120.72 99.59 120.85C99.93 121.35 100.1 121.93 100.1 122.61Z" fill="white"/>
<path d="M124.43 79.75H106.33C105.51 79.75 104.9 80.04 104.52 80.61C104.16 81.16 103.98 81.81 103.98 82.57C103.98 83.28 104.16 83.92 104.52 84.47C104.89 85.04 105.5 85.33 106.33 85.33H121.81C122.22 85.33 122.51 85.4 122.65 85.54C122.79 85.68 122.86 85.95 122.86 86.32V90.91C122.86 92.16 122.8 93.31 122.68 94.31C122.56 95.29 122.29 96.24 121.87 97.1C121.44 97.97 120.82 98.86 120.03 99.73C119.23 100.61 118.14 101.59 116.81 102.62C115.47 103.66 113.78 104.84 111.79 106.12C109.79 107.41 107.36 108.92 104.56 110.61C103.82 111.09 103.44 111.74 103.42 112.56C103.4 113.35 103.6 114.06 104.02 114.65C104.44 115.24 105.01 115.67 105.72 115.94C106.01 116.05 106.3 116.11 106.59 116.11C107.03 116.11 107.48 115.98 107.92 115.72C110.96 113.87 113.62 112.18 115.85 110.71C118.06 109.25 119.98 107.88 121.55 106.62C123.12 105.37 124.42 104.16 125.42 103.02C126.42 101.88 127.21 100.69 127.77 99.49C128.33 98.29 128.72 97 128.92 95.65C129.12 94.31 129.22 92.79 129.22 91.12V84.39C129.22 82.63 128.87 81.4 128.18 80.73C127.48 80.05 126.25 79.72 124.44 79.72L124.43 79.75ZM106.33 79.95C105.76 79.95 105.32 80.1 104.98 80.39C105.31 80.1 105.76 79.95 106.33 79.95ZM123.06 90.91C123.06 91.55 123.04 92.15 123.02 92.72C123.05 92.15 123.06 91.55 123.06 90.91ZM104.67 80.76C104.35 81.27 104.18 81.87 104.18 82.57C104.18 81.87 104.34 81.27 104.67 80.76ZM104.69 84.36C104.44 83.97 104.28 83.54 104.22 83.07C104.28 83.55 104.44 83.98 104.69 84.36ZM122.05 97.19C121.8 97.69 121.49 98.19 121.13 98.7C121.49 98.2 121.81 97.7 122.05 97.19ZM104.66 110.8C107.48 109.09 109.89 107.59 111.9 106.3C113.9 105.01 115.58 103.84 116.93 102.79C118.28 101.74 119.36 100.76 120.18 99.87C119.37 100.76 118.28 101.74 116.93 102.79C115.58 103.84 113.9 105.01 111.9 106.3C109.9 107.59 107.48 109.09 104.66 110.8ZM103.69 112.05C103.64 112.22 103.62 112.4 103.61 112.59C103.61 112.4 103.64 112.22 103.69 112.05ZM104.88 115.27C105.15 115.47 105.45 115.64 105.79 115.77C105.45 115.64 105.15 115.48 104.88 115.27ZM106.39 115.91C106.49 115.91 106.58 115.91 106.68 115.91C106.65 115.91 106.62 115.92 106.59 115.92C106.52 115.92 106.46 115.91 106.39 115.9V115.91ZM121.42 106.48C120.64 107.1 119.77 107.76 118.82 108.44C119.77 107.76 120.63 107.11 121.42 106.48C122.2 105.85 122.92 105.24 123.56 104.65C122.92 105.25 122.21 105.86 121.42 106.48ZM125.26 102.91C126.25 101.78 127.03 100.62 127.58 99.43C127.02 100.62 126.25 101.78 125.26 102.91ZM128.96 83.24C128.88 82.52 128.71 81.94 128.47 81.48C128.72 81.93 128.88 82.52 128.96 83.24Z" fill="white"/>
<path d="M165.26 121.44C165.26 121.44 165.17 121.44 165.13 121.44C163.11 121.63 161.13 121.74 159.25 121.79C157.34 121.83 155.4 121.86 153.48 121.86C153.07 121.86 152.85 122.06 152.74 122.23C152.6 122.45 152.52 122.71 152.52 122.99C152.52 123.27 152.59 123.53 152.74 123.75C152.85 123.92 153.07 124.12 153.48 124.12C155.63 124.12 157.72 124.08 159.69 124.01C161.67 123.94 163.57 123.82 165.32 123.66C165.63 123.62 165.87 123.47 166.01 123.22C166.14 122.99 166.19 122.72 166.15 122.44C166.13 122.15 166.04 121.89 165.87 121.7C165.71 121.52 165.51 121.43 165.25 121.43L165.26 121.44ZM165.41 121.67C165.33 121.65 165.25 121.64 165.16 121.65C165.2 121.65 165.23 121.65 165.27 121.65C165.32 121.65 165.37 121.67 165.41 121.68V121.67ZM165.73 121.85C165.67 121.78 165.59 121.73 165.5 121.69C165.59 121.72 165.67 121.77 165.73 121.85ZM159.25 122C159.73 121.99 160.22 121.96 160.7 121.94C160.22 121.96 159.72 121.99 159.25 122C158.3 122.02 157.33 122.02 156.36 122.03C157.32 122.02 158.29 122.02 159.25 122ZM152.9 122.35C152.99 122.21 153.14 122.14 153.31 122.1C153.14 122.14 153 122.21 152.9 122.35C152.78 122.54 152.71 122.76 152.71 123C152.71 122.75 152.77 122.54 152.9 122.35ZM165.31 123.48C165.56 123.45 165.73 123.34 165.84 123.14C165.88 123.07 165.89 123 165.91 122.93C165.89 123 165.87 123.07 165.84 123.14C165.73 123.34 165.55 123.45 165.31 123.48Z" fill="white"/>
<path d="M168.18 108.34C167.87 108.34 167.58 108.42 167.33 108.59C167.05 108.77 166.91 109.06 166.91 109.45V126.44C166.91 126.83 167.05 127.12 167.33 127.3C167.58 127.47 167.87 127.55 168.18 127.55C168.49 127.55 168.8 127.47 169.05 127.3C169.33 127.12 169.47 126.83 169.47 126.44V109.45C169.47 109.06 169.33 108.77 169.05 108.59C168.8 108.42 168.51 108.34 168.18 108.34ZM167.44 108.76C167.66 108.62 167.9 108.54 168.18 108.54C168.47 108.54 168.72 108.61 168.94 108.76C168.72 108.62 168.47 108.54 168.18 108.54C167.89 108.54 167.66 108.61 167.44 108.76C167.39 108.8 167.36 108.85 167.32 108.9C167.36 108.85 167.39 108.79 167.44 108.76Z" fill="white"/>
<path d="M155.08 117.97C155.53 118.42 156.11 118.77 156.8 119.02C157.48 119.27 158.28 119.39 159.17 119.39C160.06 119.39 160.86 119.27 161.54 119.02C162.23 118.77 162.8 118.42 163.26 117.97C163.71 117.52 164.06 116.99 164.3 116.39C164.53 115.79 164.65 115.13 164.65 114.42C164.65 113.71 164.53 113.08 164.3 112.47C164.07 111.87 163.72 111.33 163.26 110.89C162.81 110.44 162.23 110.09 161.54 109.84C160.86 109.59 160.06 109.47 159.17 109.47C158.28 109.47 157.48 109.59 156.8 109.84C156.12 110.09 155.54 110.44 155.08 110.89C154.63 111.34 154.28 111.87 154.04 112.47C153.81 113.07 153.69 113.72 153.69 114.41C153.69 115.1 153.81 115.78 154.04 116.38C154.27 116.98 154.62 117.52 155.08 117.96V117.97ZM163.68 117.13C163.51 117.38 163.32 117.62 163.11 117.83C162.89 118.04 162.65 118.23 162.37 118.4C162.09 118.57 161.79 118.71 161.46 118.83C161.13 118.95 160.77 119.04 160.39 119.1C160.01 119.16 159.6 119.19 159.16 119.19C158.72 119.19 158.32 119.16 157.93 119.1C157.55 119.04 157.19 118.95 156.86 118.83C156.53 118.71 156.23 118.57 155.95 118.4C155.68 118.23 155.43 118.04 155.21 117.83C154.77 117.4 154.44 116.9 154.22 116.32C154.13 116.08 154.07 115.83 154.01 115.57C154.06 115.83 154.13 116.08 154.22 116.32C154.44 116.9 154.77 117.41 155.21 117.83C155.43 118.04 155.67 118.24 155.95 118.4C156.22 118.57 156.53 118.71 156.86 118.83C157.19 118.95 157.55 119.04 157.93 119.1C158.31 119.16 158.72 119.19 159.16 119.19C159.6 119.19 160 119.16 160.39 119.1C160.77 119.04 161.13 118.95 161.46 118.83C161.79 118.71 162.09 118.57 162.37 118.4C162.65 118.23 162.89 118.04 163.11 117.83C163.33 117.62 163.52 117.38 163.68 117.13C163.85 116.88 163.98 116.61 164.1 116.32C164.16 116.17 164.18 116.02 164.23 115.87C164.19 116.02 164.16 116.18 164.1 116.32C163.99 116.61 163.85 116.88 163.68 117.13ZM156.89 112.48C157.37 111.97 158.14 111.71 159.16 111.71C160.18 111.71 160.95 111.97 161.43 112.49C161.92 113.02 162.16 113.65 162.16 114.43C162.16 115.21 161.91 115.86 161.43 116.39C160.95 116.91 160.19 117.17 159.16 117.17C158.13 117.17 157.37 116.91 156.89 116.38C156.41 115.85 156.16 115.2 156.16 114.43C156.16 113.66 156.4 113.01 156.89 112.49V112.48ZM159.16 117.36C159.98 117.36 160.63 117.2 161.13 116.88C160.63 117.2 159.97 117.36 159.16 117.36ZM161.93 112.78C162.11 113.06 162.22 113.37 162.29 113.7C162.22 113.37 162.1 113.06 161.93 112.78ZM163.11 111.03C163.55 111.46 163.88 111.96 164.1 112.54C164.33 113.12 164.44 113.75 164.44 114.41C164.44 113.74 164.33 113.12 164.1 112.54C163.87 111.96 163.54 111.45 163.11 111.03C162.67 110.6 162.13 110.27 161.47 110.03C162.13 110.27 162.68 110.6 163.11 111.03ZM154.23 112.55C154.45 111.97 154.79 111.46 155.22 111.04C155.66 110.61 156.2 110.28 156.86 110.04C156.2 110.28 155.65 110.61 155.22 111.04C154.78 111.47 154.45 111.97 154.23 112.55C154 113.13 153.89 113.76 153.89 114.42C153.89 113.75 154 113.13 154.23 112.55Z" fill="white"/>
<path d="M37.63 110.7H12.52C10.7 110.7 9.47002 111.03 8.76002 111.71C8.06002 112.38 7.71002 113.62 7.71002 115.38V127.52C7.71002 129.28 8.06002 130.52 8.76002 131.19C9.46002 131.87 10.69 132.2 12.52 132.2H37.63C39.43 132.2 40.69 131.86 41.39 131.19C42.09 130.51 42.44 129.28 42.44 127.52V115.38C42.44 113.62 42.09 112.38 41.39 111.71C40.7 111.04 39.43 110.7 37.63 110.7ZM36.12 125.72C36.12 126.45 35.79 126.78 35.07 126.78H15.1C14.37 126.78 14.05 126.45 14.05 125.72V117.17C14.05 116.44 14.38 116.12 15.1 116.12H35.07C35.8 116.12 36.12 116.45 36.12 117.17V125.72ZM35.06 115.92H15.1C14.26 115.92 13.85 116.34 13.85 117.17C13.85 116.33 14.27 115.92 15.1 115.92H35.07C35.91 115.92 36.32 116.34 36.32 117.17C36.32 116.33 35.9 115.92 35.07 115.92H35.06ZM42.24 127.52C42.24 129.23 41.91 130.41 41.25 131.05C40.59 131.69 39.39 132.01 37.63 132.01H12.52C10.77 132.01 9.56002 131.69 8.90002 131.05C8.24002 130.41 7.91002 129.24 7.91002 127.52C7.91002 129.23 8.24002 130.41 8.90002 131.05C9.56002 131.69 10.76 132.01 12.52 132.01H37.63C39.38 132.01 40.59 131.69 41.25 131.05C41.91 130.41 42.24 129.24 42.24 127.52Z" fill="white"/>
<path d="M144.92 76.13C144.27 75.71 143.52 75.5 142.7 75.5C141.88 75.5 141.18 75.71 140.54 76.13C139.87 76.56 139.52 77.26 139.52 78.2V125.65C139.52 126.59 139.86 127.29 140.54 127.72C141.19 128.14 141.91 128.35 142.7 128.35C143.49 128.35 144.28 128.14 144.92 127.72C145.59 127.28 145.93 126.59 145.93 125.65V78.2C145.93 77.26 145.59 76.56 144.92 76.13ZM141.61 75.85C141.95 75.75 142.31 75.7 142.69 75.7C143.09 75.7 143.46 75.75 143.81 75.85C143.46 75.75 143.08 75.7 142.69 75.7C142.3 75.7 141.95 75.75 141.61 75.85C141.27 75.95 140.94 76.1 140.64 76.3C140.95 76.1 141.27 75.95 141.61 75.85Z" fill="white"/>
<path d="M225.12 96.96C225.12 96.21 224.94 95.56 224.58 95.03C224.2 94.48 223.58 94.2 222.72 94.2H216.37V78.32C216.37 77.38 216.04 76.68 215.39 76.25C214.76 75.83 214.02 75.62 213.19 75.62C212.36 75.62 211.68 75.83 211.05 76.25C210.4 76.69 210.07 77.38 210.07 78.32V125.77C210.07 126.66 210.35 127.21 211.05 127.67C211.68 128.09 212.4 128.3 213.19 128.3C214.02 128.3 214.76 128.09 215.38 127.67C216.03 127.23 216.36 126.54 216.36 125.6V99.78H222.71C223.57 99.78 224.2 99.49 224.57 98.92C224.93 98.37 225.11 97.71 225.11 96.96H225.12ZM210.29 126.07C210.32 126.36 210.37 126.62 210.49 126.82C210.38 126.61 210.32 126.36 210.29 126.07ZM224.11 99.15C224.22 99.05 224.32 98.94 224.41 98.81C224.33 98.94 224.23 99.05 224.11 99.15Z" fill="white"/>
<path d="M274.46 108.39C274.08 107.84 273.5 107.56 272.72 107.56H226.86C226.08 107.56 225.49 107.84 225.12 108.39C224.76 108.92 224.58 109.55 224.58 110.26C224.58 110.97 224.76 111.61 225.12 112.16C225.49 112.73 226.08 113.02 226.87 113.02H246.62V125.61C246.62 126.55 246.95 127.25 247.6 127.68C248.23 128.1 248.97 128.31 249.8 128.31C250.63 128.31 251.37 128.1 252 127.68C252.65 127.24 252.98 126.55 252.98 125.61V113.02H272.73C273.51 113.02 274.1 112.73 274.48 112.16C274.84 111.61 275.02 110.97 275.02 110.26C275.02 109.55 274.84 108.92 274.48 108.39H274.46ZM224.77 110.26C224.77 110.77 224.86 111.23 225.05 111.64C224.86 111.22 224.77 110.76 224.77 110.26ZM247.7 127.51C247.92 127.66 248.17 127.77 248.42 127.86C248.17 127.77 247.93 127.66 247.7 127.51ZM251.87 127.51C251.65 127.66 251.4 127.77 251.15 127.86C251.4 127.77 251.64 127.66 251.87 127.51ZM274.51 111.64C274.7 111.22 274.8 110.76 274.8 110.26C274.8 110.77 274.7 111.23 274.51 111.64Z" fill="white"/>
<path d="M233.76 82.4699H260.62C261.35 82.4699 261.67 82.7799 261.67 83.4599V86.3799C261.67 87.0699 261.35 87.3699 260.62 87.3699H236.38C234.56 87.3699 233.34 87.6999 232.64 88.3799C231.95 89.0499 231.6 90.2799 231.6 92.0399V98.1699C231.6 99.9499 231.94 101.14 232.65 101.8C233.35 102.46 234.57 102.78 236.39 102.78H266.88C267.66 102.78 268.24 102.51 268.62 101.98C268.98 101.47 269.16 100.85 269.16 100.14C269.16 99.4699 268.98 98.8599 268.62 98.3299C268.24 97.7799 267.66 97.4999 266.88 97.4999H238.89C238.16 97.4999 237.84 97.1899 237.84 96.5099V93.5299C237.84 92.8399 238.16 92.5399 238.89 92.5399H263.13C264.95 92.5399 266.17 92.2099 266.87 91.5299C267.56 90.8599 267.91 89.6299 267.91 87.8699V81.7999C267.91 80.0199 267.57 78.8199 266.87 78.1399C266.18 77.4699 264.92 77.1299 263.13 77.1299H233.77C232.99 77.1299 232.4 77.4099 232.03 77.9599C231.67 78.4899 231.49 79.1199 231.49 79.8299C231.49 80.4999 231.67 81.1099 232.03 81.6399C232.4 82.1899 232.99 82.4699 233.77 82.4699H233.76ZM236.38 87.5699C235.29 87.5699 234.43 87.7099 233.77 87.9599C234.44 87.7099 235.29 87.5699 236.38 87.5699ZM232.35 89.0999C232.1 89.5499 231.94 90.1399 231.86 90.8599C231.94 90.1399 232.11 89.5499 232.35 89.0999ZM232.78 101.65C232.7 101.57 232.64 101.46 232.57 101.37C232.64 101.46 232.7 101.58 232.78 101.65C232.94 101.8 233.14 101.94 233.37 102.05C233.14 101.93 232.94 101.8 232.78 101.65ZM266.88 102.58C267.06 102.58 267.23 102.57 267.38 102.54C267.22 102.57 267.06 102.58 266.88 102.58ZM268.46 101.86C268.29 102.1 268.08 102.28 267.81 102.4C268.07 102.28 268.29 102.1 268.46 101.86C268.54 101.74 268.62 101.62 268.68 101.48C268.62 101.61 268.54 101.74 268.46 101.86ZM232.19 78.0699C232.27 77.9499 232.37 77.8399 232.48 77.7399C232.37 77.8299 232.28 77.9399 232.19 78.0699Z" fill="white"/>
<path d="M203.77 84.7499H193.25V79.8299C193.25 78.8899 192.92 78.1899 192.27 77.7599C191.64 77.3399 190.9 77.1299 190.07 77.1299C189.24 77.1299 188.55 77.3399 187.91 77.7599C187.24 78.1899 186.9 78.8899 186.9 79.8299V84.7499H175.73C174.95 84.7499 174.36 85.0299 173.99 85.5799C173.63 86.1099 173.45 86.7399 173.45 87.4499C173.45 88.1599 173.63 88.7999 173.99 89.3499C174.36 89.9199 174.95 90.2099 175.74 90.2099H203.79C204.57 90.2099 205.16 89.9199 205.54 89.3499C205.9 88.7999 206.08 88.1599 206.08 87.4499C206.08 86.7399 205.9 86.1099 205.54 85.5799C205.16 85.0299 204.58 84.7499 203.8 84.7499H203.77ZM205.35 89.2399C205.35 89.2399 205.32 89.2799 205.3 89.2999C205.32 89.2799 205.34 89.2599 205.35 89.2399C205.5 89.0199 205.6 88.7799 205.69 88.5199C205.61 88.7699 205.5 89.0099 205.35 89.2399ZM205.35 85.6899C205.18 85.4399 204.97 85.2599 204.7 85.1299C204.96 85.2499 205.18 85.4399 205.35 85.6899C205.52 85.9399 205.64 86.2099 205.73 86.4999C205.65 86.2099 205.52 85.9399 205.35 85.6899Z" fill="white"/>
<path d="M199.59 97.0099C198.48 95.9599 197.11 95.1399 195.5 94.5499C193.89 93.9699 192.07 93.6699 190.07 93.6699C188.07 93.6699 186.25 93.9599 184.64 94.5499C183.03 95.1299 181.65 95.9599 180.52 96.9999C179.39 98.0499 178.52 99.3099 177.94 100.76C177.36 102.21 177.06 103.83 177.06 105.6C177.06 107.37 177.36 108.99 177.94 110.44C178.52 111.89 179.39 113.16 180.52 114.2C181.64 115.25 183.03 116.07 184.64 116.65C186.24 117.23 188.07 117.53 190.07 117.53C192.07 117.53 193.9 117.24 195.5 116.65C197.11 116.07 198.48 115.24 199.59 114.2C200.7 113.15 201.57 111.89 202.17 110.44C202.77 108.99 203.08 107.37 203.08 105.6C203.08 103.83 202.77 102.2 202.17 100.76C201.57 99.3099 200.7 98.0499 199.59 96.9999V97.0099ZM195.33 110.47C194.04 111.7 192.28 112.32 190.08 112.32C187.88 112.32 186.11 111.7 184.83 110.47C183.55 109.25 182.9 107.61 182.9 105.61C182.9 103.61 183.55 101.93 184.83 100.72C186.12 99.5099 187.88 98.8999 190.08 98.8999C192.28 98.8999 194.05 99.5099 195.33 100.72C196.61 101.93 197.26 103.57 197.26 105.61C197.26 107.65 196.61 109.24 195.33 110.47ZM197.18 107.77C197.06 108.21 196.89 108.63 196.68 109.02C196.89 108.63 197.05 108.21 197.18 107.77ZM197.46 105.61C197.46 104.03 197.09 102.69 196.34 101.6C197.09 102.7 197.46 104.04 197.46 105.61ZM178.14 100.85C177.85 101.56 177.64 102.32 177.49 103.11C177.63 102.32 177.85 101.56 178.14 100.85ZM177.27 105.61C177.27 106.05 177.29 106.47 177.32 106.89C177.28 106.47 177.27 106.05 177.27 105.61ZM180.67 114.07C181.23 114.59 181.84 115.05 182.52 115.45C181.85 115.05 181.23 114.59 180.67 114.07ZM197.63 115.45C198.3 115.05 198.91 114.59 199.45 114.07C198.9 114.59 198.3 115.05 197.63 115.45Z" fill="white"/>
<path d="M190.79 104.36V100.64C190.79 100.29 190.5 100 190.15 100C189.8 100 189.51 100.29 189.51 100.64V104.36C189.14 104.58 188.88 104.97 188.88 105.43C188.88 105.57 188.92 105.71 188.96 105.84L186.26 109C186.15 109.13 186.1 109.29 186.11 109.46C186.12 109.63 186.2 109.78 186.33 109.9C186.45 110 186.59 110.05 186.75 110.05C186.94 110.05 187.11 109.97 187.23 109.83L189.93 106.66C190 106.67 190.07 106.7 190.14 106.7C190.84 106.7 191.41 106.13 191.41 105.43C191.41 104.97 191.15 104.58 190.78 104.36H190.79ZM190.16 100.2C190.34 100.2 190.5 100.31 190.56 100.47C190.49 100.31 190.34 100.2 190.16 100.2C189.98 100.2 189.82 100.31 189.76 100.47C189.83 100.31 189.98 100.2 190.16 100.2ZM189.09 105.43C189.09 105.51 189.12 105.57 189.13 105.65C189.11 105.58 189.09 105.51 189.09 105.43ZM187.09 109.7C187 109.8 186.88 109.85 186.76 109.85C186.66 109.85 186.56 109.82 186.47 109.74C186.38 109.66 186.33 109.55 186.32 109.44C186.32 109.55 186.38 109.66 186.47 109.74C186.55 109.81 186.65 109.85 186.76 109.85C186.88 109.85 187.01 109.8 187.09 109.7ZM190.16 106.5C190.16 106.5 190.12 106.49 190.09 106.49C190.09 106.49 190.13 106.5 190.16 106.5Z" fill="white"/>
<path d="M274.09 56.8162L273.4 57.1419C271.71 57.9412 270.37 58.5728 268.07 58.5728C265.44 58.5728 264.16 58.0892 262.8 57.5859C261.42 57.0728 260 56.53 257.19 56.53C254.38 56.53 252.96 57.0629 251.58 57.5859C250.22 58.0991 248.94 58.5728 246.31 58.5728C243.68 58.5728 242.4 58.0892 241.04 57.5859C239.66 57.0728 238.24 56.53 235.43 56.53C232.62 56.53 231.2 57.0629 229.82 57.5859C228.46 58.0991 227.18 58.5728 224.55 58.5728C221.92 58.5728 220.64 58.0892 219.28 57.5859C217.9 57.0728 216.48 56.53 213.67 56.53C210.86 56.53 209.44 57.0629 208.06 57.5859C206.7 58.0991 205.42 58.5728 202.79 58.5728C200.16 58.5728 198.88 58.0892 197.52 57.5859C196.14 57.0728 194.72 56.53 191.91 56.53C189.1 56.53 187.68 57.0629 186.3 57.5859C184.94 58.0991 183.66 58.5728 181.03 58.5728C178.4 58.5728 177.12 58.0892 175.76 57.5859C174.38 57.0728 172.96 56.53 170.15 56.53C167.34 56.53 165.92 57.0629 164.54 57.5859C163.18 58.0991 161.9 58.5728 159.27 58.5728C156.64 58.5728 155.36 58.0892 154 57.5859C152.62 57.0728 151.2 56.53 148.39 56.53C145.58 56.53 144.16 57.0629 142.78 57.5859C141.42 58.0991 140.14 58.5728 137.51 58.5728C134.88 58.5728 133.6 58.0892 132.24 57.5859C130.86 57.0728 129.44 56.53 126.63 56.53C123.82 56.53 122.4 57.0629 121.02 57.5859C119.66 58.0991 118.38 58.5728 115.75 58.5728C113.12 58.5728 111.84 58.0892 110.48 57.5859C109.1 57.0728 107.68 56.53 104.87 56.53C102.06 56.53 100.64 57.0629 99.26 57.5859C97.9 58.0991 96.62 58.5728 93.99 58.5728C91.36 58.5728 90.08 58.0892 88.72 57.5859C87.34 57.0728 85.92 56.53 83.11 56.53C80.3 56.53 78.88 57.0629 77.5 57.5859C76.14 58.0991 74.86 58.5728 72.23 58.5728C69.6 58.5728 68.32 58.0892 66.96 57.5859C65.58 57.0728 64.16 56.53 61.35 56.53C58.54 56.53 57.12 57.0629 55.74 57.5859C54.38 58.0991 53.1 58.5728 50.47 58.5728C47.84 58.5728 46.56 58.0892 45.2 57.5859C43.82 57.0728 42.4 56.53 39.59 56.53C36.78 56.53 35.35 57.0629 33.98 57.5859C32.62 58.0991 31.34 58.5728 28.71 58.5728C26.08 58.5728 24.8 58.0892 23.44 57.5859C22.06 57.0728 20.64 56.53 17.83 56.53C15.02 56.53 13.6 57.0629 12.22 57.5859C10.86 58.0991 9.58002 58.5728 6.95002 58.5728C4.65002 58.5728 3.31002 57.9412 1.62002 57.1419L0.93002 56.8162L0.52002 57.6846L1.20002 58.0004C2.93002 58.8195 4.43002 59.53 6.95002 59.53C9.76002 59.53 11.18 58.9971 12.56 58.4741C13.92 57.961 15.2 57.4873 17.83 57.4873C20.46 57.4873 21.74 57.9708 23.1 58.4741C24.48 58.9873 25.9 59.53 28.71 59.53C31.52 59.53 32.94 58.9971 34.32 58.4741C35.68 57.961 36.96 57.4873 39.59 57.4873C42.22 57.4873 43.5 57.9708 44.86 58.4741C46.24 58.9873 47.66 59.53 50.47 59.53C53.28 59.53 54.7 58.9971 56.08 58.4741C57.44 57.961 58.72 57.4873 61.35 57.4873C63.98 57.4873 65.26 57.9708 66.62 58.4741C68 58.9873 69.42 59.53 72.23 59.53C75.04 59.53 76.46 58.9971 77.84 58.4741C79.2 57.961 80.48 57.4873 83.11 57.4873C85.74 57.4873 87.02 57.9708 88.38 58.4741C89.76 58.9873 91.18 59.53 93.99 59.53C96.8 59.53 98.22 58.9971 99.6 58.4741C100.96 57.961 102.24 57.4873 104.87 57.4873C107.5 57.4873 108.78 57.9708 110.14 58.4741C111.52 58.9873 112.94 59.53 115.75 59.53C118.56 59.53 119.99 58.9971 121.36 58.4741C122.72 57.961 124 57.4873 126.63 57.4873C129.26 57.4873 130.54 57.9708 131.9 58.4741C133.28 58.9873 134.7 59.53 137.51 59.53C140.32 59.53 141.74 58.9971 143.12 58.4741C144.48 57.961 145.76 57.4873 148.39 57.4873C151.02 57.4873 152.3 57.9708 153.66 58.4741C155.04 58.9873 156.46 59.53 159.27 59.53C162.08 59.53 163.5 58.9971 164.88 58.4741C166.24 57.961 167.52 57.4873 170.15 57.4873C172.78 57.4873 174.06 57.9708 175.42 58.4741C176.8 58.9873 178.22 59.53 181.03 59.53C183.84 59.53 185.26 58.9971 186.64 58.4741C188 57.961 189.28 57.4873 191.91 57.4873C194.54 57.4873 195.82 57.9708 197.18 58.4741C198.56 58.9873 199.98 59.53 202.79 59.53C205.6 59.53 207.02 58.9971 208.4 58.4741C209.76 57.961 211.04 57.4873 213.67 57.4873C216.3 57.4873 217.58 57.9708 218.94 58.4741C220.32 58.9873 221.74 59.53 224.55 59.53C227.36 59.53 228.78 58.9971 230.16 58.4741C231.52 57.961 232.8 57.4873 235.43 57.4873C238.06 57.4873 239.34 57.9708 240.7 58.4741C242.08 58.9873 243.5 59.53 246.31 59.53C249.12 59.53 250.54 58.9971 251.92 58.4741C253.28 57.961 254.56 57.4873 257.19 57.4873C259.82 57.4873 261.1 57.9708 262.46 58.4741C263.84 58.9873 265.26 59.53 268.07 59.53C270.59 59.53 272.09 58.8195 273.82 58.0004L274.5 57.6846L274.09 56.8162Z" fill="#00E2CC"/>
<path d="M137.5 68C156.278 68 171.5 52.7777 171.5 34C171.5 15.2223 156.278 0 137.5 0C118.722 0 103.5 15.2223 103.5 34C103.5 52.7777 118.722 68 137.5 68Z" fill="#00E2CC"/>
<path d="M137.5 66C155.173 66 169.5 51.6731 169.5 34C169.5 16.3269 155.173 2 137.5 2C119.827 2 105.5 16.3269 105.5 34C105.5 51.6731 119.827 66 137.5 66Z" fill="white"/>
<mask id="mask0_335_42" style="mask-type:luminance" maskUnits="userSpaceOnUse" x="105" y="1" width="65" height="65">
<path d="M169.5 34C169.5 41.34 167.83 46.53 163.67 51.93C163.52 52.13 165.84 52.55 165.84 52.55L168.56 54.61L166.41 60.73L156.69 63.24L152.59 62.22C152.59 62.22 152.3 62.37 152.19 62.43C147.79 64.71 142.79 66 137.49 66C132.19 66 126.95 64.65 122.47 62.26C122.44 62.25 122.39 62.22 122.39 62.22L118.42 63.26L108.78 60.36L106.49 56.61L107.91 51.5C107.91 51.5 112.38 52.64 112.01 52.16C107.85 46.76 105.49 41.33 105.49 33.99C105.49 16.32 119.82 1.98999 137.49 1.98999C155.16 1.98999 169.49 16.32 169.49 33.99L169.5 34Z" fill="white"/>
</mask>
<g mask="url(#mask0_335_42)">
<path d="M137.5 10.6H137.51H137.52C150.22 10.6 160.52 20.9 160.52 33.6C160.52 41.1 156.93 48.09 151.37 52.29C152.59 53.24 154.22 53.68 157.18 53.86C162.51 54.19 164.03 52.54 165.76 53.14C167.49 53.73 167.5 55.32 167.5 55.74C167.5 57.88 165.03 60.94 158.19 61.75C154.7 62.16 152.17 61.54 152.17 61.54C152.17 61.54 151.86 65.63 157.33 70.71C159.46 72.69 160.24 73.06 160.65 74.35C161.06 75.64 160.68 78.17 157.15 78.53C153.82 78.87 150.71 77.25 147.46 72.79C146.14 70.97 145.79 69.16 145.61 68.7C145.79 70.32 145.95 71.89 146.52 73.95C146.94 75.49 147.32 76.67 148.59 78.98C149.21 80.11 149.39 82.15 147.6 83.36C146.24 84.28 143.74 84.64 141.59 82.78C139.14 80.67 138.76 78.09 138 73.98C137.72 72.43 137.49 69.65 137.49 69.65C137.49 69.65 137.26 72.43 136.98 73.98C136.23 78.09 135.84 80.67 133.39 82.78C131.24 84.63 128.74 84.27 127.38 83.36C125.59 82.14 125.77 80.11 126.39 78.98C127.66 76.67 128.04 75.5 128.46 73.95C129.02 71.89 129.18 70.32 129.37 68.7C129.18 69.16 128.84 70.97 127.52 72.79C124.27 77.26 121.16 78.87 117.83 78.53C114.3 78.17 113.92 75.66 114.33 74.35C114.74 73.04 115.52 72.69 117.65 70.71C123.13 65.63 122.81 61.54 122.81 61.54C122.81 61.54 120.29 62.16 116.79 61.75C109.95 60.94 107.48 57.88 107.48 55.74C107.48 55.32 107.48 53.73 109.22 53.14C110.95 52.55 112.47 54.19 117.8 53.86C120.76 53.68 122.39 53.24 123.61 52.29C118.05 48.09 114.46 41.1 114.46 33.6C114.46 20.9 124.76 10.6 137.46 10.6H137.47H137.48H137.5Z" fill="#A9C0FF" stroke="#231815" stroke-width="0.5" stroke-linecap="round" stroke-linejoin="round"/>
<path d="M129.96 32.03C130.59 32.03 131.1 31.3002 131.1 30.4C131.1 29.4998 130.59 28.77 129.96 28.77C129.33 28.77 128.82 29.4998 128.82 30.4C128.82 31.3002 129.33 32.03 129.96 32.03Z" fill="#231815"/>
<path d="M145.01 32.03C145.64 32.03 146.15 31.3002 146.15 30.4C146.15 29.4998 145.64 28.77 145.01 28.77C144.38 28.77 143.87 29.4998 143.87 30.4C143.87 31.3002 144.38 32.03 145.01 32.03Z" fill="#231815"/>
<path d="M145.92 35.73C146.33 35.83 146.62 36.22 146.59 36.65C146.27 41.59 142.68 43.76 137.48 43.76C132.28 43.76 128.71 41.59 128.37 36.69C128.34 36.25 128.65 35.85 129.08 35.76C130.08 35.56 131.86 35.23 133.01 35.23C134.69 35.23 137.53 35.91 137.53 35.91C137.53 35.91 140.82 35.23 142.59 35.23C143.75 35.23 145.11 35.52 145.91 35.72L145.92 35.73Z" fill="#F482A0" stroke="#231815" stroke-width="0.22" stroke-miterlimit="10"/>
<path d="M130.84 38.57C130.84 38.57 133.84 39.97 137.7 39.97C142 39.97 144.26 38.37 144.26 38.37" stroke="#231815" stroke-width="0.22" stroke-miterlimit="10"/>
</g>
<path d="M102.32 150.13C101.04 150.33 100.13 150.68 99.24 151.01C97.88 151.53 96.6 152.01 93.97 152.01C91.34 152.01 90.06 151.52 88.7 151.01C87.32 150.49 85.9 149.94 83.09 149.94C80.28 149.94 78.86 150.48 77.48 151.01C76.12 151.53 74.84 152.01 72.21 152.01C69.58 152.01 68.3 151.52 66.94 151.01C65.56 150.49 64.14 149.94 61.33 149.94C58.52 149.94 57.1 150.48 55.72 151.01C54.36 151.53 53.08 152.01 50.45 152.01C47.82 152.01 46.54 151.52 45.18 151.01C43.8 150.49 42.38 149.94 39.57 149.94C36.76 149.94 35.33 150.48 33.96 151.01C32.6 151.53 31.32 152.01 28.69 152.01C26.06 152.01 24.78 151.52 23.42 151.01C22.04 150.49 20.62 149.94 17.81 149.94C15 149.94 13.58 150.48 12.2 151.01C10.84 151.53 9.56003 152.01 6.93003 152.01C4.63003 152.01 3.29003 151.37 1.60003 150.56L0.910031 150.23L0.500031 151.11L1.18003 151.43C2.91003 152.26 4.41003 152.98 6.93003 152.98C9.74003 152.98 11.16 152.44 12.54 151.91C13.9 151.39 15.18 150.91 17.81 150.91C20.44 150.91 21.72 151.4 23.08 151.91C24.46 152.43 25.88 152.98 28.69 152.98C31.5 152.98 32.92 152.44 34.3 151.91C35.66 151.39 36.94 150.91 39.57 150.91C42.2 150.91 43.48 151.4 44.84 151.91C46.22 152.43 47.64 152.98 50.45 152.98C53.26 152.98 54.68 152.44 56.06 151.91C57.42 151.39 58.7 150.91 61.33 150.91C63.96 150.91 65.24 151.4 66.6 151.91C67.98 152.43 69.4 152.98 72.21 152.98C75.02 152.98 76.44 152.44 77.82 151.91C79.18 151.39 80.46 150.91 83.09 150.91C85.72 150.91 87 151.4 88.36 151.91C89.74 152.43 91.16 152.98 93.97 152.98C96.78 152.98 98.2 152.44 99.58 151.91C100.41 151.59 101.21 151.29 102.31 151.1V150.12L102.32 150.13Z" fill="#00E2CC"/>
<path d="M274.09 150.24L273.4 150.57C271.71 151.38 270.37 152.02 268.07 152.02C265.44 152.02 264.16 151.53 262.8 151.02C261.42 150.5 260 149.95 257.19 149.95C254.38 149.95 252.96 150.49 251.58 151.02C250.22 151.54 248.94 152.02 246.31 152.02C243.68 152.02 242.4 151.53 241.04 151.02C239.66 150.5 238.24 149.95 235.43 149.95C232.62 149.95 231.2 150.49 229.82 151.02C228.46 151.54 227.18 152.02 224.55 152.02C221.92 152.02 220.64 151.53 219.28 151.02C217.9 150.5 216.48 149.95 213.67 149.95C210.86 149.95 209.44 150.49 208.06 151.02C206.7 151.54 205.42 152.02 202.79 152.02C200.16 152.02 198.88 151.53 197.52 151.02C196.14 150.5 194.72 149.95 191.91 149.95C189.1 149.95 187.68 150.49 186.3 151.02C184.94 151.54 183.66 152.02 181.03 152.02C178.4 152.02 177.12 151.53 175.76 151.02C174.87 150.68 173.96 150.34 172.68 150.14V151.12C173.78 151.31 174.58 151.61 175.41 151.93C176.79 152.45 178.21 153 181.02 153C183.83 153 185.25 152.46 186.63 151.93C187.99 151.41 189.27 150.93 191.9 150.93C194.53 150.93 195.81 151.42 197.17 151.93C198.55 152.45 199.97 153 202.78 153C205.59 153 207.01 152.46 208.39 151.93C209.75 151.41 211.03 150.93 213.66 150.93C216.29 150.93 217.57 151.42 218.93 151.93C220.31 152.45 221.73 153 224.54 153C227.35 153 228.77 152.46 230.15 151.93C231.51 151.41 232.79 150.93 235.42 150.93C238.05 150.93 239.33 151.42 240.69 151.93C242.07 152.45 243.49 153 246.3 153C249.11 153 250.53 152.46 251.91 151.93C253.27 151.41 254.55 150.93 257.18 150.93C259.81 150.93 261.09 151.42 262.45 151.93C263.83 152.45 265.25 153 268.06 153C270.58 153 272.08 152.28 273.81 151.45L274.49 151.13L274.08 150.25L274.09 150.24Z" fill="#00E2CC"/>
<path d="M155.32 144.86C155.41 144.71 155.56 144.64 155.77 144.64H164.33C164.82 144.64 165.16 144.73 165.34 144.91C165.52 145.09 165.61 145.42 165.61 145.89V147.42C165.61 148.44 165.56 149.36 165.47 150.16C165.38 150.97 165.25 151.75 165.08 152.52C165.02 152.74 164.9 152.9 164.71 153C164.52 153.1 164.3 153.11 164.06 153.06C163.86 153.03 163.7 152.94 163.57 152.81C163.44 152.68 163.4 152.5 163.45 152.28C163.61 151.49 163.73 150.71 163.82 149.93C163.91 149.15 163.95 148.3 163.95 147.38V146.45C163.95 146.22 163.83 146.1 163.6 146.1H155.78C155.57 146.1 155.42 146.03 155.33 145.89C155.24 145.75 155.2 145.58 155.2 145.38C155.2 145.18 155.24 145.01 155.33 144.86H155.32Z" fill="#00E2CC"/>
<path d="M123.88 144.81C123.97 144.66 124.12 144.59 124.33 144.59H132.89C133.38 144.59 133.72 144.68 133.9 144.86C134.08 145.04 134.18 145.37 134.18 145.84V147.37C134.18 148.39 134.13 149.31 134.04 150.11C133.95 150.91 133.82 151.7 133.65 152.47C133.59 152.69 133.47 152.85 133.28 152.95C133.09 153.05 132.87 153.06 132.63 153.01C132.43 152.98 132.27 152.89 132.14 152.76C132.01 152.63 131.97 152.45 132.02 152.23C132.18 151.44 132.3 150.66 132.39 149.88C132.48 149.1 132.52 148.25 132.52 147.33V146.4C132.52 146.17 132.4 146.05 132.17 146.05H124.35C124.14 146.05 123.99 145.98 123.9 145.84C123.81 145.7 123.77 145.53 123.77 145.33C123.77 145.13 123.81 144.96 123.9 144.81H123.88Z" fill="#00E2CC"/>
<path d="M107.99 152.15C107.81 152.06 107.67 151.92 107.58 151.73C107.5 151.57 107.48 151.39 107.51 151.19C107.54 150.98 107.66 150.84 107.88 150.75C108.65 150.41 109.31 150.1 109.86 149.84C110.41 149.58 110.87 149.34 111.24 149.13C111.61 148.92 111.9 148.73 112.11 148.55C112.32 148.37 112.48 148.19 112.59 148.01C112.7 147.83 112.77 147.63 112.8 147.43C112.83 147.23 112.84 147 112.84 146.75V146.15C112.84 146.03 112.82 145.94 112.76 145.88C112.71 145.82 112.62 145.8 112.48 145.8H108.23C108.03 145.8 107.88 145.73 107.79 145.59C107.7 145.45 107.65 145.29 107.65 145.1C107.65 144.9 107.7 144.73 107.79 144.58C107.88 144.43 108.03 144.36 108.23 144.36H113.22C113.71 144.36 114.05 144.45 114.23 144.63C114.41 144.81 114.51 145.14 114.51 145.61V146.81C114.51 146.9 114.49 146.96 114.49 147.04H117.89V144.21C117.89 143.96 117.97 143.79 118.14 143.68C118.31 143.57 118.5 143.51 118.72 143.51C118.94 143.51 119.12 143.57 119.29 143.68C119.46 143.79 119.54 143.97 119.54 144.21V151.5C119.54 151.74 119.46 151.92 119.29 152.03C119.12 152.14 118.93 152.2 118.72 152.2C118.5 152.2 118.3 152.14 118.14 152.03C117.97 151.92 117.89 151.74 117.89 151.5V148.46H114.22C114.18 148.54 114.15 148.63 114.1 148.71C113.94 148.98 113.73 149.23 113.46 149.48C113.19 149.73 112.83 149.98 112.38 150.25C111.94 150.52 111.4 150.8 110.77 151.11C110.14 151.42 109.4 151.76 108.54 152.15C108.35 152.24 108.16 152.24 107.98 152.15H107.99Z" fill="#00E2CC"/>
<path d="M119.77 158.57C119.68 158.72 119.53 158.79 119.33 158.79H111.02C110.53 158.79 110.19 158.7 110.01 158.52C109.83 158.34 109.73 158.01 109.73 157.54V154.25C109.73 153.77 109.82 153.44 110.01 153.27C110.19 153.09 110.53 153 111.02 153H119.16C119.36 153 119.51 153.07 119.6 153.21C119.69 153.35 119.74 153.51 119.74 153.7C119.74 153.89 119.69 154.06 119.6 154.2C119.51 154.34 119.36 154.42 119.16 154.42H111.76C111.63 154.42 111.53 154.44 111.48 154.49C111.43 154.54 111.4 154.63 111.4 154.75V157.04C111.4 157.16 111.42 157.25 111.48 157.3C111.53 157.35 111.62 157.38 111.76 157.38H119.33C119.53 157.38 119.68 157.45 119.77 157.59C119.86 157.73 119.91 157.89 119.91 158.08C119.91 158.27 119.86 158.44 119.77 158.58V158.57Z" fill="#00E2CC"/>
<path d="M135.91 156.27C135.82 156.42 135.67 156.49 135.47 156.49H122.63C122.43 156.49 122.28 156.42 122.19 156.27C122.1 156.13 122.05 155.96 122.05 155.77C122.05 155.58 122.1 155.42 122.19 155.28C122.28 155.14 122.43 155.07 122.63 155.07H127.18V150.18C127.18 149.94 127.26 149.76 127.43 149.65C127.6 149.54 127.79 149.48 128 149.48C128.22 149.48 128.42 149.54 128.58 149.65C128.75 149.76 128.83 149.94 128.83 150.18V155.07H135.47C135.67 155.07 135.82 155.14 135.91 155.28C136 155.42 136.05 155.58 136.05 155.77C136.05 155.96 136 156.13 135.91 156.27Z" fill="#00E2CC"/>
<path d="M146.93 153.84C146.8 153.98 146.64 154.07 146.45 154.11C146.26 154.14 146.08 154.09 145.92 153.94C145.67 153.72 145.41 153.46 145.11 153.18C144.81 152.9 144.49 152.59 144.15 152.25C143.92 152 143.72 151.8 143.57 151.62C143.41 151.45 143.29 151.3 143.2 151.16C143.11 151.03 143.04 150.91 143 150.81C142.96 150.71 142.93 150.62 142.92 150.53H142.9C142.88 150.63 142.85 150.73 142.81 150.83C142.77 150.93 142.7 151.05 142.61 151.18C142.51 151.31 142.39 151.47 142.24 151.65C142.09 151.83 141.89 152.04 141.65 152.28C141.32 152.61 140.99 152.94 140.67 153.25C140.35 153.56 140.01 153.87 139.65 154.18C139.47 154.34 139.28 154.39 139.08 154.33C138.88 154.27 138.72 154.17 138.6 154.03C138.47 153.87 138.4 153.7 138.39 153.5C138.38 153.3 138.46 153.14 138.63 152.99C139.02 152.65 139.39 152.31 139.73 151.97C140.07 151.64 140.42 151.29 140.78 150.94C141.03 150.69 141.23 150.46 141.39 150.22C141.55 149.99 141.68 149.74 141.78 149.49C141.88 149.24 141.95 148.97 141.99 148.68C142.03 148.39 142.05 148.06 142.05 147.7V146.13H139.25C139.04 146.13 138.89 146.06 138.79 145.91C138.7 145.76 138.65 145.6 138.65 145.41C138.65 145.22 138.7 145.05 138.79 144.91C138.88 144.76 139.04 144.69 139.25 144.69H146.47C146.67 144.69 146.82 144.76 146.91 144.91C147 145.05 147.05 145.22 147.05 145.41C147.05 145.6 147 145.77 146.91 145.91C146.81 146.05 146.67 146.13 146.47 146.13H143.75V147.7C143.75 148.07 143.77 148.39 143.81 148.68C143.85 148.97 143.92 149.24 144.02 149.49C144.12 149.74 144.25 149.98 144.41 150.22C144.57 150.45 144.77 150.69 145.02 150.94C145.38 151.3 145.72 151.63 146.05 151.96C146.38 152.28 146.69 152.56 146.97 152.79C147.14 152.95 147.21 153.12 147.18 153.32C147.15 153.52 147.07 153.69 146.94 153.82L146.93 153.84Z" fill="#00E2CC"/>
<path d="M152.48 149.82C152.39 149.97 152.23 150.04 152 150.04H150.17V157.26C150.17 157.5 150.09 157.68 149.92 157.79C149.75 157.9 149.56 157.96 149.34 157.96C149.12 157.96 148.92 157.9 148.76 157.79C148.59 157.68 148.51 157.5 148.51 157.26V144.25C148.51 144 148.59 143.83 148.76 143.72C148.93 143.61 149.12 143.55 149.34 143.55C149.56 143.55 149.76 143.61 149.92 143.72C150.08 143.83 150.17 144.01 150.17 144.25V148.59H152C152.22 148.59 152.38 148.66 152.48 148.8C152.57 148.94 152.62 149.11 152.62 149.31C152.62 149.51 152.57 149.68 152.48 149.83V149.82Z" fill="#00E2CC"/>
<path d="M167.36 156.31C167.27 156.46 167.12 156.53 166.92 156.53H154.08C153.88 156.53 153.73 156.46 153.64 156.31C153.54 156.17 153.5 156 153.5 155.81C153.5 155.62 153.55 155.46 153.64 155.32C153.73 155.18 153.88 155.11 154.08 155.11H158.63V150.22C158.63 149.98 158.71 149.8 158.88 149.69C159.05 149.58 159.24 149.52 159.45 149.52C159.67 149.52 159.87 149.58 160.03 149.69C160.2 149.8 160.28 149.98 160.28 150.22V155.11H166.92C167.12 155.11 167.27 155.18 167.36 155.32C167.45 155.46 167.5 155.62 167.5 155.81C167.5 156 167.45 156.17 167.36 156.31Z" fill="#00E2CC"/>
</svg>
