<svg width="57" height="57" viewBox="0 0 57 57" fill="none" xmlns="http://www.w3.org/2000/svg">
<path d="M21.3907 6.97823L25.2837 9.03846L28.3422 5.86889L31.4081 9.03132L35.2964 6.96201L37.235 10.9171L41.5724 10.1506L42.1939 14.5111L46.5559 15.1225L45.7996 19.4617L49.7591 21.391L47.6989 25.2841L50.8685 28.3426L47.706 31.4085L49.7753 35.2968L45.8203 37.2354L46.5868 41.5728L42.2262 42.1943L41.6149 46.5563L37.2757 45.8L35.3463 49.7595L31.4532 47.6993L28.3947 50.8689L25.3288 47.7064L21.4406 49.7757L19.502 45.8207L15.1645 46.5872L14.543 42.2266L10.181 41.6153L10.9374 37.2761L6.97783 35.3467L9.03806 31.4536L5.86849 28.3951L9.03092 25.3292L6.96161 21.4409L10.9167 19.5024L10.1502 15.1649L14.5107 14.5434L15.1221 10.1814L19.4613 10.9378L21.3907 6.97823Z" fill="#00E2CC"/>
<path d="M19.31 29.4928C17.7843 30.0008 16.2972 28.915 15.304 25.932C14.3108 22.949 14.8768 21.2681 16.4025 20.7601C17.9282 20.2522 19.3888 21.2583 20.382 24.2413C21.3751 27.2243 20.8357 28.9849 19.31 29.4928ZM18.8248 28.0355C19.303 27.8763 19.4588 27.2047 18.6627 24.8137C17.8629 22.4114 17.3621 22.0469 16.8839 22.2061C16.4057 22.3653 16.2234 22.9572 17.0232 25.3596C17.8193 27.7505 18.3466 28.1947 18.8248 28.0355ZM22.5435 28.2645L19.727 19.805L21.822 19.1075C23.507 18.5465 24.8844 18.8088 25.5478 20.8013C26.1922 22.7368 25.3228 24.0002 23.6377 24.5612L23.2278 24.6977L24.2286 27.7035L22.5435 28.2645ZM22.7805 23.3542L23.0652 23.2594C23.9874 22.9524 24.2077 22.3225 23.8855 21.3548C23.5633 20.387 23.0663 20.1857 22.144 20.4927L21.8594 20.5875L22.7805 23.3542ZM28.3502 26.3312L25.5336 17.8718L29.7804 16.4578L30.2505 17.8696L27.7001 18.7188L28.3559 20.6885L30.485 19.9796L30.9551 21.3914L28.826 22.1003L29.5766 24.3546L32.218 23.4751L32.688 24.887L28.3502 26.3312ZM33.7355 24.5382L30.919 16.0788L32.5699 15.5291L35.1452 19.4272L36.3474 21.3288L36.393 21.3136C36.0214 20.4635 35.5474 19.3439 35.2366 18.4102L34.107 15.0173L35.4504 14.57L38.267 23.0295L36.6161 23.5791L34.0408 19.6811L32.8385 17.7795L32.793 17.7946C33.1684 18.6562 33.6347 19.753 33.9456 20.6866L35.079 24.0909L33.7355 24.5382ZM18.1936 42.3604L15.3771 33.9009L19.6239 32.487L20.094 33.8988L17.5436 34.7479L18.1994 36.7176L20.3285 36.0088L20.7985 37.4206L18.6694 38.1294L19.42 40.3838L22.0615 39.5043L22.5315 40.9161L18.1936 42.3604ZM24.7858 40.1656L20.2956 32.2634L22.0604 31.6758L24.0019 35.6078C24.4494 36.5339 24.8741 37.3916 25.3405 38.2988L25.3975 38.2798C25.2498 37.2666 25.0642 36.3292 24.8786 35.3159L24.0529 31.0124L25.7607 30.4438L26.9035 39.4605L24.7858 40.1656ZM29.3514 38.6455L26.5349 30.186L30.7817 28.7721L31.2518 30.1839L28.7014 31.033L29.3572 33.0027L31.4863 32.2938L31.9564 33.7057L29.8273 34.4145L30.5778 36.6689L33.2193 35.7894L33.6893 37.2012L29.3514 38.6455ZM34.7368 36.8525L31.9203 28.393L33.5712 27.8434L36.1464 31.7415L37.3487 33.643L37.3942 33.6279C37.0227 32.7777 36.5487 31.6581 36.2379 30.7245L35.1082 27.3316L36.4517 26.8843L39.2682 35.3438L37.6173 35.8934L35.0421 31.9953L33.8398 30.0937L33.7943 30.1089C34.1696 30.9704 34.636 32.0673 34.9469 33.0009L36.0803 36.4052L34.7368 36.8525ZM41.7389 34.5212L39.3924 27.4735L37.6163 28.0649L37.1462 26.6531L42.3836 24.9093L42.8536 26.3211L41.0889 26.9087L43.4353 33.9563L41.7389 34.5212Z" fill="#00E2CC"/>
<path d="M19.31 29.4928C17.7843 30.0008 16.2972 28.915 15.304 25.932C14.3108 22.949 14.8768 21.2681 16.4025 20.7601C17.9282 20.2522 19.3888 21.2583 20.382 24.2413C21.3751 27.2243 20.8357 28.9849 19.31 29.4928ZM18.8248 28.0355C19.303 27.8763 19.4588 27.2047 18.6627 24.8137C17.8629 22.4114 17.3621 22.0469 16.8839 22.2061C16.4057 22.3653 16.2234 22.9572 17.0232 25.3596C17.8193 27.7505 18.3466 28.1947 18.8248 28.0355ZM22.5435 28.2645L19.727 19.805L21.822 19.1075C23.507 18.5465 24.8844 18.8088 25.5478 20.8013C26.1922 22.7368 25.3228 24.0002 23.6377 24.5612L23.2278 24.6977L24.2286 27.7035L22.5435 28.2645ZM22.7805 23.3542L23.0652 23.2594C23.9874 22.9524 24.2077 22.3225 23.8855 21.3548C23.5633 20.387 23.0663 20.1857 22.144 20.4927L21.8594 20.5875L22.7805 23.3542ZM28.3502 26.3312L25.5336 17.8718L29.7804 16.4578L30.2505 17.8696L27.7001 18.7188L28.3559 20.6885L30.485 19.9796L30.9551 21.3914L28.826 22.1003L29.5766 24.3546L32.218 23.4751L32.688 24.887L28.3502 26.3312ZM33.7355 24.5382L30.919 16.0788L32.5699 15.5291L35.1452 19.4272L36.3474 21.3288L36.393 21.3136C36.0214 20.4635 35.5474 19.3439 35.2366 18.4102L34.107 15.0173L35.4504 14.57L38.267 23.0295L36.6161 23.5791L34.0408 19.6811L32.8385 17.7795L32.793 17.7946C33.1684 18.6562 33.6347 19.753 33.9456 20.6866L35.079 24.0909L33.7355 24.5382ZM18.1936 42.3604L15.3771 33.9009L19.6239 32.487L20.094 33.8988L17.5436 34.7479L18.1994 36.7176L20.3285 36.0088L20.7985 37.4206L18.6694 38.1294L19.42 40.3838L22.0615 39.5043L22.5315 40.9161L18.1936 42.3604ZM24.7858 40.1656L20.2956 32.2634L22.0604 31.6758L24.0019 35.6078C24.4494 36.5339 24.8741 37.3916 25.3405 38.2988L25.3975 38.2798C25.2498 37.2666 25.0642 36.3292 24.8786 35.3159L24.0529 31.0124L25.7607 30.4438L26.9035 39.4605L24.7858 40.1656ZM29.3514 38.6455L26.5349 30.186L30.7817 28.7721L31.2518 30.1839L28.7014 31.033L29.3572 33.0027L31.4863 32.2938L31.9564 33.7057L29.8273 34.4145L30.5778 36.6689L33.2193 35.7894L33.6893 37.2012L29.3514 38.6455ZM34.7368 36.8525L31.9203 28.393L33.5712 27.8434L36.1464 31.7415L37.3487 33.643L37.3942 33.6279C37.0227 32.7777 36.5487 31.6581 36.2379 30.7245L35.1082 27.3316L36.4517 26.8843L39.2682 35.3438L37.6173 35.8934L35.0421 31.9953L33.8398 30.0937L33.7943 30.1089C34.1696 30.9704 34.636 32.0673 34.9469 33.0009L36.0803 36.4052L34.7368 36.8525ZM41.7389 34.5212L39.3924 27.4735L37.6163 28.0649L37.1462 26.6531L42.3836 24.9093L42.8536 26.3211L41.0889 26.9087L43.4353 33.9563L41.7389 34.5212Z" fill="#3B2AFF"/>
</svg>
