<svg width="100" height="90" viewBox="0 0 100 90" fill="none" xmlns="http://www.w3.org/2000/svg">
<g filter="url(#filter0_d_1944_15775)">
<circle cx="50" cy="50" r="39.5" fill="white" stroke="#00E2CC"/>
<mask id="mask0_1944_15775" style="mask-type:alpha" maskUnits="userSpaceOnUse" x="10" y="10" width="80" height="80">
<circle cx="49.9991" cy="50" r="39.0244" fill="white"/>
</mask>
<g mask="url(#mask0_1944_15775)">
<path d="M49.8099 19.123H49.8288H49.8477C66.1894 19.123 79.4367 32.3704 79.4367 48.712C79.4367 58.3657 74.8104 67.3574 67.6571 72.7592C69.227 73.9773 71.3264 74.5485 75.1357 74.7792C81.9939 75.1991 83.9496 73.0883 86.1776 73.8487C88.4057 74.609 88.4095 76.6555 88.4095 77.2002C88.4095 79.9541 85.2282 83.8844 76.4332 84.9285C71.9354 85.4618 68.6936 84.6599 68.6936 84.6599C68.6936 84.6599 68.2926 89.9255 75.3399 96.4622C78.0787 99.0042 79.0849 99.4846 79.6107 101.145C80.1441 102.836 79.6523 106.059 75.1092 106.521C70.8233 106.959 66.8211 104.879 62.6449 99.1328C60.9426 96.7875 60.5001 94.4649 60.2617 93.8672C60.4963 95.9515 60.7043 97.9715 61.4268 100.616C61.9678 102.602 62.4633 104.115 64.0937 107.084C64.8919 108.541 65.1264 111.158 62.8227 112.721C61.0788 113.905 57.8597 114.366 55.0907 111.979C51.9434 109.267 51.4441 105.946 50.4757 100.657C50.1087 98.6638 49.8175 95.0815 49.8175 95.0815C49.8175 95.0815 49.5262 98.6638 49.163 100.657C48.1909 105.949 47.6953 109.271 44.548 111.979C41.779 114.366 38.5599 113.901 36.816 112.721C34.5123 111.158 34.743 108.541 35.545 107.084C37.1754 104.111 37.6709 102.602 38.2119 100.616C38.9344 97.9715 39.1424 95.9477 39.377 93.8672C39.1386 94.4611 38.6961 96.7875 36.9938 99.1328C32.8176 104.879 28.8154 106.956 24.5295 106.521C19.9826 106.055 19.4946 102.832 20.028 101.145C20.5538 99.4846 21.5562 99.0042 24.2988 96.4622C31.3461 89.9255 30.9451 84.6599 30.9451 84.6599C30.9451 84.6599 27.7033 85.4618 23.2055 84.9285C14.4068 83.8844 11.2292 79.9541 11.2292 77.2002C11.2292 76.6555 11.233 74.609 13.4611 73.8487C15.6891 73.0883 17.6448 75.1991 24.503 74.7792C28.3123 74.5447 30.4117 73.9773 31.9816 72.7592C24.8283 67.3574 20.202 58.3657 20.202 48.712C20.1869 32.3704 33.4342 19.123 49.7758 19.123H49.7948H49.8137H49.8099Z" fill="#A9C0FF"/>
<path d="M59.5091 113.977C58.0111 113.977 56.3732 113.47 54.8979 112.199C51.7998 109.528 51.2021 106.268 50.3018 101.327L50.1883 100.711C50.0484 99.9429 49.916 98.9366 49.8101 97.9872C49.7041 98.9366 49.5717 99.9429 49.4318 100.711L49.3183 101.327C48.418 106.268 47.8203 109.528 44.7222 112.199C41.9381 114.597 38.5827 114.276 36.6459 112.959C34.1531 111.269 34.4671 108.439 35.2841 106.952C36.9372 103.941 37.4025 102.462 37.9245 100.544C38.3331 99.0463 38.5752 97.764 38.7492 96.5459C38.3974 97.3857 37.9094 98.339 37.2058 99.2998C33.1431 104.891 29.0993 107.274 24.4843 106.801C21.9839 106.548 20.7885 105.473 20.2286 104.622C19.4267 103.4 19.4494 101.978 19.7407 101.059C20.1568 99.7386 20.8868 99.0993 22.3394 97.8245C22.8388 97.3857 23.4062 96.8902 24.0909 96.2546C27.6694 92.9334 29.2619 89.9639 29.9655 88.0536C30.5027 86.5972 30.62 85.5229 30.6427 85.0122C29.6818 85.2051 26.8523 85.6515 23.1527 85.2127C13.5028 84.0627 10.9268 79.6331 10.9268 77.197C10.9268 74.8895 12.247 73.9551 13.3515 73.5768C14.4145 73.2137 15.3942 73.452 16.7485 73.7773C18.4091 74.1783 20.6788 74.7268 24.4691 74.4923C27.9758 74.2766 29.9996 73.7811 31.4938 72.7484C24.2308 67.112 19.9033 58.1544 19.9033 48.705C19.9033 32.2385 33.3057 18.8398 49.776 18.8398H49.829C66.3182 18.8398 79.7168 32.2385 79.7168 48.7125C79.7168 58.1619 75.3931 67.1196 68.1263 72.756C69.6205 73.7887 71.6443 74.2842 75.151 74.4998C78.9375 74.7306 81.211 74.1821 82.8717 73.7849C84.2259 73.4596 85.2056 73.2212 86.2686 73.5844C87.3732 73.9627 88.6934 74.897 88.6934 77.2045C88.6934 79.6406 86.1173 84.0703 76.4636 85.2127C72.7678 85.6515 69.9383 85.2051 68.9737 85.0122C68.9964 85.5229 69.1136 86.5972 69.6508 88.0536C70.3544 89.9601 71.9469 92.9334 75.5255 96.2546C76.2102 96.8902 76.7776 97.3857 77.2769 97.8245C78.7295 99.0993 79.4596 99.7424 79.8757 101.059C80.167 101.982 80.1896 103.4 79.3877 104.622C78.8278 105.477 77.6325 106.548 75.1321 106.801C70.5133 107.274 66.4733 104.887 62.4105 99.2998C61.7107 98.3352 61.219 97.3819 60.8672 96.5459C61.0449 97.7678 61.2833 99.0501 61.6918 100.544C62.2138 102.462 62.6829 103.941 64.3322 106.952C65.1493 108.443 65.4632 111.269 62.9704 112.959C62.0587 113.576 60.8331 113.977 59.5054 113.977H59.5091ZM39.362 93.584C39.3847 93.584 39.4074 93.584 39.4301 93.5916C39.5663 93.6256 39.6571 93.758 39.6419 93.898L39.6079 94.1855C39.3885 96.1336 39.1615 98.146 38.4693 100.692C37.9359 102.648 37.4592 104.161 35.7759 107.225C35.0572 108.53 34.781 111.011 36.9599 112.49C38.7265 113.69 41.7905 113.973 44.3477 111.772C47.2945 109.233 47.8468 106.222 48.7584 101.229L48.8719 100.612C49.2313 98.6567 49.5226 95.1009 49.5226 95.0668C49.5339 94.9193 49.6587 94.8058 49.8063 94.8058C49.9538 94.8058 50.0786 94.9193 50.09 95.0668C50.09 95.1009 50.385 98.6567 50.7444 100.612L50.8579 101.229C51.7695 106.219 52.3181 109.233 55.2686 111.772C57.8258 113.977 60.8936 113.69 62.6564 112.49C64.8353 111.011 64.5554 108.534 63.8404 107.225C62.1571 104.161 61.6805 102.648 61.1471 100.692C60.4548 98.146 60.2279 96.1336 60.0085 94.1855L59.9744 93.898C59.9593 93.758 60.0501 93.6256 60.1863 93.5916C60.3262 93.5575 60.4662 93.6294 60.5191 93.7618C60.5721 93.8942 60.6288 94.0795 60.7045 94.3368C60.9958 95.3127 61.5367 97.1285 62.872 98.9669C66.8024 104.376 70.6797 106.688 75.0791 106.237C76.8835 106.052 78.2113 105.386 78.9186 104.308C79.6147 103.253 79.592 102.023 79.3385 101.225C78.9678 100.056 78.3663 99.5268 76.9062 98.2444C76.4031 97.8018 75.8357 97.3025 75.1434 96.6632C68.0772 90.1076 68.3911 84.8533 68.41 84.6339C68.4176 84.5507 68.4592 84.475 68.5273 84.4259C68.5954 84.3767 68.6824 84.3615 68.7618 84.3805C68.7921 84.388 72.015 85.1635 76.3993 84.6453C82.047 83.9757 88.1259 81.358 88.1259 77.2007C88.1259 75.6157 87.4375 74.5793 86.087 74.1178C85.1791 73.8076 84.3167 74.0156 83.0078 74.3334C81.3131 74.7419 78.9943 75.3018 75.1207 75.0635C71.2471 74.8251 69.1061 74.2426 67.4833 72.9829C67.4152 72.93 67.3736 72.8467 67.3736 72.756C67.3736 72.6689 67.4152 72.5857 67.487 72.5328C74.7916 67.0175 79.1532 58.1128 79.1532 48.7125C79.1494 32.5525 66.0042 19.4073 49.8479 19.4073H49.7949C33.6159 19.4073 20.4707 32.5525 20.4707 48.7125C20.4707 58.1128 24.8323 67.0175 32.1369 72.5328C32.2087 72.5857 32.2503 72.6689 32.2503 72.756C32.2503 72.843 32.2087 72.9262 32.1406 72.9829C30.5178 74.2426 28.3768 74.8251 24.5032 75.0635C20.6296 75.3018 18.3108 74.7419 16.6161 74.3334C15.3072 74.0194 14.441 73.8076 13.5369 74.1178C12.1826 74.5793 11.498 75.6157 11.498 77.2007C11.498 81.3618 17.5769 83.9757 23.2246 84.6453C27.6089 85.1673 30.8318 84.388 30.8621 84.3805C30.9415 84.3615 31.0285 84.3805 31.0966 84.4259C31.1647 84.4713 31.2063 84.5507 31.2139 84.6339C31.229 84.8533 31.5467 90.1114 24.4805 96.6632C23.7882 97.3025 23.2208 97.8018 22.7177 98.2444C21.2576 99.5268 20.6561 100.056 20.2854 101.225C20.0319 102.023 20.013 103.253 20.7053 104.308C21.4127 105.386 22.7404 106.052 24.5448 106.237C28.9442 106.688 32.8178 104.376 36.7519 98.9669C38.0872 97.1285 38.6281 95.3127 38.9194 94.3368C38.9951 94.0795 39.0518 93.8942 39.1048 93.7618C39.1502 93.6521 39.2561 93.584 39.3696 93.584H39.362Z" fill="black"/>
<path d="M40.1339 46.7187C40.9445 46.7187 41.6016 45.7804 41.6016 44.623C41.6016 43.4656 40.9445 42.5273 40.1339 42.5273C39.3233 42.5273 38.6662 43.4656 38.6662 44.623C38.6662 45.7804 39.3233 46.7187 40.1339 46.7187Z" fill="black"/>
<path d="M59.4854 46.7187C60.296 46.7187 60.9531 45.7804 60.9531 44.623C60.9531 43.4656 60.296 42.5273 59.4854 42.5273C58.6748 42.5273 58.0176 43.4656 58.0176 44.623C58.0176 45.7804 58.6748 46.7187 59.4854 46.7187Z" fill="black"/>
<path d="M59.4411 51.2585C59.9782 51.406 60.349 51.9697 60.3073 52.5863C59.895 58.8127 55.768 61.5628 49.8063 61.5628C43.8446 61.5628 39.7441 58.8316 39.3091 52.6468C39.2637 52.0075 39.6647 51.4287 40.2245 51.3039C41.3896 51.0467 43.3642 50.8008 44.6617 50.8008C46.2883 50.8008 48.8682 51.2698 49.6474 51.4666C49.8025 51.5044 49.9576 51.5082 50.1127 51.4741C50.9676 51.285 53.9787 50.8008 55.715 50.8008C57.0012 50.8008 58.5067 51.0013 59.4411 51.2547V51.2585Z" fill="#EB85A3"/>
<path d="M49.8104 61.7059C43.3608 61.7059 39.5818 58.4905 39.1732 52.6575C39.124 51.9501 39.5666 51.307 40.1984 51.167C41.3143 50.9174 43.2927 50.6602 44.6658 50.6602C46.3265 50.6602 48.929 51.1406 49.6856 51.3297C49.818 51.3638 49.9504 51.3638 50.0828 51.3373C50.9301 51.1519 53.945 50.6602 55.7154 50.6602C56.9637 50.6602 58.473 50.8455 59.4792 51.1217C60.0883 51.2881 60.4968 51.9085 60.4514 52.5969C60.0618 58.4716 56.2828 61.7059 49.8104 61.7059ZM44.6658 50.9439C43.3305 50.9439 41.3408 51.2011 40.2589 51.4432C39.7596 51.5529 39.4153 52.0674 39.4532 52.6348C39.7369 56.6407 41.7607 61.4184 49.8104 61.4184C57.8602 61.4184 59.9029 56.6105 60.1677 52.5742C60.2055 52.0295 59.8764 51.5188 59.4036 51.3902C58.4352 51.1254 56.9183 50.9401 55.7154 50.9401C54.0472 50.9401 51.055 51.4091 50.1433 51.6096C49.9693 51.6475 49.7877 51.6475 49.6137 51.6021C48.8685 51.4129 46.3 50.9401 44.6658 50.9401V50.9439Z" fill="black"/>
<path d="M57.8558 54.7354C58.0412 54.7354 58.1244 54.9283 57.9806 55.0304C57.0312 55.6886 54.4021 57.1942 50.2221 57.1942C46.5264 57.1942 43.4585 55.8551 42.248 55.2422C42.0778 55.1552 42.1497 54.9358 42.3464 54.9358L57.8558 54.7354Z" fill="#AD475F"/>
<path d="M61.3066 51.28C61.8593 51.4147 62.2389 51.9137 62.2035 52.4639C61.7787 58.8349 56.9777 61.6447 50.0171 61.6447C43.0565 61.6447 38.283 58.8501 37.8346 52.517C37.7933 51.9459 38.2063 51.4356 38.7885 51.3217C40.12 51.0599 42.5038 50.6406 44.0517 50.6406C46.2958 50.6406 50.0997 51.5229 50.0997 51.5229C50.0997 51.5229 54.5034 50.6406 56.8675 50.6406C58.4134 50.6406 60.2328 51.0182 61.3066 51.28Z" fill="#674F8E"/>
<path d="M50.0171 61.7877C42.4881 61.7877 38.1099 58.4979 37.689 52.5272C37.6438 51.8878 38.104 51.3111 38.761 51.182C40.063 50.9259 42.4842 50.499 44.0517 50.499C46.1778 50.499 49.726 51.2921 50.1017 51.3775C50.5088 51.2978 54.6214 50.499 56.8675 50.499C58.4626 50.499 60.3567 50.9012 61.344 51.1422C61.9695 51.294 62.3923 51.8537 62.351 52.4722C61.9518 58.4789 57.5717 61.7877 50.0171 61.7877ZM44.0517 50.7836C42.5097 50.7836 40.1102 51.2067 38.818 51.4609C38.3066 51.5615 37.9467 52.0111 37.9821 52.5082C38.1945 55.5154 39.4041 57.8149 41.5774 59.3422C43.619 60.7765 46.4591 61.5031 50.0171 61.5031C53.5751 61.5031 56.4309 60.7708 58.4744 59.3289C60.6497 57.794 61.8554 55.4812 62.056 52.4551C62.0875 51.9732 61.7571 51.5368 61.2713 51.4192C60.2977 51.182 58.4292 50.7855 56.8675 50.7855C54.5447 50.7855 50.1725 51.6564 50.1292 51.6639L50.0977 51.6696L50.0663 51.662C50.0289 51.6526 46.2546 50.7836 44.0537 50.7836H44.0517Z" fill="black"/>
<path d="M50.3063 56.8922C45.1788 56.8922 41.1114 55.0917 41.072 55.0746C40.9973 55.0424 40.9658 54.957 41.0012 54.8849C41.0347 54.8128 41.1232 54.7825 41.1979 54.8166C41.2372 54.8337 45.2496 56.6076 50.3082 56.6076C55.9392 56.6076 58.9662 54.5833 58.9977 54.5624C59.0645 54.5168 59.157 54.532 59.2042 54.5965C59.2514 54.661 59.2356 54.7502 59.1688 54.7957C59.1373 54.8166 56.0415 56.8941 50.3102 56.8941L50.3063 56.8922Z" fill="black"/>
<path d="M49.8109 28.6301C48.2123 30.7535 45.1676 31.1183 43.113 29.4303L43.1112 29.4359C42.0653 31.8757 39.1974 32.9551 36.8022 31.8106L36.7967 31.8069V31.8106C36.3649 34.4309 33.8357 36.1654 31.2359 35.6239H31.2322V35.6276C31.4369 38.2758 29.3934 40.5612 26.7396 40.6542H26.7359C27.5678 43.1797 26.1311 45.8912 23.574 46.6207C24.9921 48.8707 24.2551 51.8502 21.9493 53.1772L22.1242 53.2981C23.7043 54.3887 23.7545 56.7038 22.2266 57.8633C23.7359 58.3136 24.4375 60.05 23.6633 61.4216L23.5703 61.5853L23.6708 61.6188C25.0126 62.0711 25.7328 63.5283 25.2768 64.8682C26.4698 65.3874 27.0634 66.5059 26.9685 67.8012L26.9425 68.2162C24.4282 68.9495 24.0299 66.5283 24.0299 66.5283L24.0206 66.532C22.6156 67.1349 21.177 65.7559 21.7148 64.3266L21.7185 64.3173H21.7111C20.2595 64.7993 18.9419 63.3031 19.6025 61.924L19.6063 61.9166H19.6025C18.1156 62.2702 16.9319 60.6641 17.7099 59.3484V59.3446C16.1968 59.5661 15.1584 57.8614 16.0517 56.6182H16.0479C14.5219 56.7038 13.6435 54.9135 14.6429 53.7578H14.6447V53.7559C13.1168 53.702 12.404 51.8409 13.5039 50.7801C11.989 50.5885 11.4475 48.6697 12.6404 47.7132C11.1497 47.3819 10.7868 45.4222 12.0616 44.581C10.6063 44.1158 10.4258 42.13 11.7731 41.408C10.1224 40.7082 9.8693 38.4712 11.3228 37.4198L11.8476 37.0401C10.1987 35.3949 10.6435 32.6183 12.7241 31.5686C11.3581 29.6816 12.2403 27.011 14.4605 26.3056L14.4568 26.3001C13.4071 24.2231 14.6968 21.7275 16.9971 21.3795H17.0045C16.288 19.1593 17.9481 16.8869 20.2818 16.8944C19.9096 14.5904 21.8935 12.5916 24.1993 12.949C24.1714 10.6134 26.4288 8.92913 28.6602 9.61957V9.61585C28.971 7.30258 31.448 5.96263 33.5547 6.96945H33.5585V6.97131C34.2005 4.72318 36.845 3.75172 38.7898 5.05072V5.047C39.7445 2.91425 42.4989 2.32988 44.2389 3.88943L44.2427 3.89316L44.2483 3.88385C45.4914 1.90929 48.2979 1.71388 49.8035 3.49862L49.8109 3.50792L49.8183 3.49862C51.3221 1.71388 54.1285 1.90743 55.3735 3.88385L55.3791 3.89316L55.3828 3.88943C57.1229 2.32988 59.8773 2.91425 60.832 5.047V5.05072H60.8338C62.7767 3.75172 65.4231 4.72318 66.0652 6.97131L66.0689 6.96945C68.1756 5.96263 70.6527 7.30258 70.9635 9.61585V9.61957C73.1948 8.92913 75.4523 10.6134 75.4244 12.949C77.732 12.5916 79.7159 14.5904 79.3418 16.8944C81.6737 16.8869 83.3356 19.1593 82.6191 21.3795H82.6266C84.9287 21.7275 86.2165 24.2231 85.1669 26.3001L85.1632 26.3056C87.3834 27.011 88.2637 29.6816 86.8995 31.5686C88.9802 32.6183 89.4231 35.3931 87.7761 37.0401L88.3009 37.4198C89.7543 38.4712 89.5013 40.7063 87.8505 41.408C89.196 42.13 89.0155 44.1139 87.562 44.581C88.8369 45.4222 88.474 47.3838 86.9833 47.7132C88.1762 48.6679 87.6346 50.5866 86.1197 50.7801C87.2196 51.8409 86.505 53.702 84.9789 53.7559L84.9808 53.7578C85.9802 54.9135 85.0999 56.702 83.5757 56.6182H83.572C84.4634 57.8614 83.4268 59.5661 81.9138 59.3446L81.9157 59.3484C82.6936 60.6641 81.5118 62.2702 80.023 61.9185H80.0193L80.023 61.924C80.6837 63.3031 79.366 64.7993 77.9144 64.3192H77.907L77.9107 64.3266C78.4504 65.7559 77.01 67.1331 75.6049 66.532L75.5956 66.5283C75.5956 66.5283 75.1861 68.9662 72.6719 68.233L72.6477 67.8719C72.5509 66.5748 73.1558 65.3856 74.3487 64.8663C73.8927 63.5245 74.6111 62.0692 75.9548 61.617L76.0553 61.5835L75.9622 61.4197C75.188 60.0481 75.8896 58.3118 77.3989 57.8614C75.8691 56.702 75.9213 54.3868 77.5013 53.2963L77.6762 53.1753C75.3704 51.8484 74.6334 48.8689 76.0515 46.6189C73.4945 45.8893 72.0577 43.1778 72.8896 40.6524H72.8859C70.2302 40.5593 68.1886 38.274 68.3934 35.6257V35.622H68.3896C65.7898 36.1636 63.2606 34.4291 62.8289 31.8087V31.805L62.8214 31.8087C60.4263 32.9551 57.5584 31.8757 56.5125 29.434V29.4285H56.5088C54.456 31.1164 51.4095 30.7517 49.8109 28.6282" fill="url(#paint0_linear_1944_15775)"/>
<path d="M73.556 68.654C73.2564 68.654 72.9344 68.6038 72.5939 68.5051L72.4078 68.4512L72.3687 67.8966C72.2663 66.512 72.8916 65.3172 74.0138 64.7235C73.8538 64.074 73.9264 63.3966 74.226 62.7899C74.5294 62.1776 75.03 61.703 75.6534 61.4388C75.3035 60.7372 75.27 59.9276 75.5659 59.1944C75.819 58.569 76.2843 58.0684 76.8743 57.7744C76.2992 57.1844 75.9865 56.3954 76.0051 55.5523C76.0256 54.6162 76.4499 53.7694 77.1757 53.1962C76.1857 52.5095 75.4896 51.5008 75.1956 50.3172C74.896 49.1094 75.0523 47.8681 75.6348 46.785C74.4772 46.3662 73.5337 45.5455 72.9512 44.4475C72.3687 43.3495 72.2217 42.1063 72.5232 40.9134C71.2967 40.785 70.1838 40.2155 69.3575 39.2906C68.5294 38.3638 68.0883 37.1932 68.0976 35.963C66.8768 36.1305 65.6615 35.842 64.6361 35.1404C63.6106 34.437 62.9034 33.406 62.6206 32.2074C61.4723 32.6615 60.2235 32.6727 59.0604 32.2354C57.8954 31.798 56.963 30.9643 56.4028 29.8681C55.3997 30.5809 54.1901 30.8898 52.9562 30.7428C51.7223 30.5958 50.6169 30.0077 49.811 29.079C49.0052 30.0077 47.9016 30.5958 46.6659 30.7428C45.432 30.8898 44.2205 30.5809 43.2192 29.8681C42.6572 30.9661 41.7248 31.798 40.5617 32.2354C39.3967 32.6727 38.146 32.6615 37.0015 32.2074C36.7168 33.4078 36.0114 34.437 34.986 35.1404C33.9606 35.8439 32.7435 36.1305 31.5245 35.9649C31.5338 37.1987 31.0927 38.3675 30.2664 39.2924C29.4383 40.2192 28.3235 40.7887 27.1008 40.9171C27.4041 42.11 27.2553 43.3513 26.6728 44.4494C26.0902 45.5474 25.1467 46.3681 23.9891 46.7868C24.5716 47.8718 24.728 49.1113 24.4283 50.3191C24.1343 51.5027 23.4383 52.5114 22.4482 53.1981C23.174 53.7713 23.5983 54.6199 23.6188 55.5542C23.6374 56.3991 23.3247 57.1863 22.7497 57.7762C23.3415 58.0722 23.8068 58.5709 24.058 59.1962C24.3539 59.9295 24.3204 60.739 23.9705 61.4406C24.5921 61.7049 25.0946 62.1795 25.3979 62.7917C25.6976 63.3984 25.7701 64.0759 25.6101 64.7235C26.7397 65.3153 27.3464 66.458 27.246 67.8277L27.2069 68.4344L27.0189 68.4884C26.1684 68.7359 25.4445 68.6763 24.8638 68.3116C24.2422 67.9208 23.9556 67.2768 23.8328 66.8935C23.1572 67.0703 22.4594 66.8897 21.9439 66.3984C21.4656 65.9406 21.2515 65.3134 21.3372 64.6863C20.7044 64.7458 20.0903 64.5039 19.6548 64.0089C19.2174 63.5138 19.0574 62.8699 19.197 62.252C18.5679 62.2558 17.9724 61.9617 17.5816 61.4295C17.1908 60.8972 17.0865 60.244 17.2764 59.641C16.6473 59.587 16.0834 59.2427 15.741 58.6807C15.3986 58.1187 15.3521 57.4599 15.594 56.8755C14.9724 56.7676 14.4401 56.3749 14.1498 55.7812C13.8595 55.1894 13.8725 54.5287 14.1666 53.9704C13.558 53.8066 13.0648 53.3656 12.8303 52.7514C12.594 52.1354 12.6666 51.4804 13.0109 50.95C12.4191 50.7304 11.9687 50.2483 11.79 49.6137C11.6114 48.9791 11.7435 48.3333 12.1343 47.8383C11.5648 47.5647 11.161 47.0436 11.0419 46.396C10.9228 45.7484 11.1126 45.1156 11.5481 44.6578C11.0028 44.3321 10.6511 43.7775 10.5897 43.1224C10.5301 42.4711 10.7739 41.8625 11.2429 41.4456C10.6101 41.0288 10.1951 40.3607 10.1077 39.5827C10.0016 38.6448 10.3943 37.7533 11.161 37.2006L11.4308 37.0052C10.7367 36.1826 10.4408 35.1218 10.612 34.0443C10.7851 32.963 11.4029 32.0437 12.3241 31.4798C11.764 30.5567 11.6374 29.455 11.9817 28.4146C12.3241 27.3743 13.0816 26.5648 14.0791 26.1553C13.6697 25.1541 13.7181 24.0449 14.2205 23.0716C14.723 22.0964 15.5996 21.4153 16.6529 21.1696C16.4054 20.1163 16.625 19.0294 17.2726 18.1436C17.9203 17.2577 18.8899 16.718 19.9674 16.6343C19.8818 15.5549 20.2633 14.5127 21.0357 13.7348C21.8099 12.955 22.8483 12.5679 23.9277 12.6461C24.0022 11.5667 24.5344 10.5915 25.4128 9.93454C26.2931 9.2776 27.3781 9.04683 28.4352 9.28132C28.6603 8.22983 29.3303 7.33467 30.2999 6.80986C31.2658 6.28691 32.375 6.21619 33.3874 6.60328C33.7689 5.58902 34.5561 4.80552 35.5871 4.42773C36.6181 4.04994 37.7255 4.13741 38.6727 4.66222C39.1901 3.71495 40.0834 3.04684 41.1609 2.81793C42.2348 2.58902 43.3216 2.83468 44.1833 3.48977C44.8365 2.61694 45.8117 2.08468 46.906 2.00838C48.004 1.93208 49.0461 2.32848 49.8092 3.10081C50.5778 2.32476 51.6181 1.93208 52.7105 2.00838C53.8085 2.08468 54.7856 2.6188 55.4351 3.48977C56.2986 2.83282 57.3836 2.58902 58.4574 2.81793C59.5331 3.04684 60.4245 3.71123 60.9456 4.66222C61.8929 4.13555 63.0002 4.04808 64.0312 4.42773C65.0622 4.80552 65.8495 5.59088 66.231 6.60328C67.2452 6.21619 68.3526 6.28877 69.3184 6.80986C70.2843 7.33281 70.9524 8.22239 71.1832 9.28132C72.2403 9.04683 73.3253 9.2776 74.2055 9.93454C75.0858 10.5915 75.6162 11.5667 75.6906 12.6461C76.77 12.5698 77.8104 12.9569 78.5827 13.7348C79.3569 14.5127 79.7365 15.5567 79.6509 16.6343C80.7285 16.718 81.6981 17.2577 82.3457 18.1436C82.9933 19.0294 83.2111 20.1163 82.9654 21.1696C84.0206 21.4171 84.8953 22.0983 85.3978 23.0716C85.9003 24.0468 85.9487 25.1541 85.5393 26.1553C86.5386 26.5648 87.2942 27.3743 87.6366 28.4146C87.9791 29.455 87.8525 30.5548 87.2942 31.4798C88.2154 32.0437 88.8333 32.963 89.0064 34.0443C89.1794 35.1218 88.8817 36.1845 88.1894 37.0052L88.4592 37.2006C89.2241 37.7533 89.6186 38.6448 89.5126 39.5827C89.4251 40.3607 89.0101 41.0288 88.3755 41.4456C88.8463 41.8644 89.0901 42.4711 89.0306 43.1224C88.971 43.7794 88.6155 44.3358 88.074 44.6596C88.5076 45.1175 88.6993 45.7484 88.5783 46.396C88.4592 47.0436 88.0554 47.5666 87.4859 47.8383C87.8767 48.3333 88.0089 48.981 87.8302 49.6156C87.6515 50.2502 87.2012 50.7322 86.6093 50.9518C86.9518 51.4822 87.0244 52.1373 86.788 52.7533C86.5517 53.3675 86.0603 53.8085 85.4518 53.9723C85.7458 54.5306 85.7589 55.1913 85.4685 55.7831C85.1782 56.3749 84.646 56.7676 84.0244 56.8755C84.2663 57.458 84.2198 58.1168 83.8773 58.6807C83.5349 59.2427 82.971 59.5889 82.342 59.641C82.5337 60.244 82.4295 60.8972 82.0368 61.4295C81.6478 61.958 81.0597 62.2502 80.4307 62.2502H80.4195C80.5591 62.8699 80.3972 63.512 79.9617 64.007C79.5244 64.502 78.9084 64.744 78.2775 64.6844C78.3631 65.3172 78.1472 65.9406 77.6708 66.3966C77.1534 66.8916 76.4518 67.0703 75.78 66.8935C75.6553 67.2806 75.365 67.9319 74.7359 68.3265C74.3898 68.5442 73.9915 68.6522 73.5467 68.654H73.556ZM72.9363 68.0175C73.5393 68.159 74.0455 68.105 74.4456 67.8556C75.1528 67.4146 75.3203 66.4933 75.3221 66.484L75.3817 66.1379L75.7055 66.2737C76.262 66.512 76.8668 66.4022 77.2948 65.9927C77.7229 65.5833 77.8587 64.984 77.6503 64.4276L77.4456 63.8842L77.9946 64.0535C78.5659 64.2434 79.1596 64.0814 79.5523 63.6367C79.945 63.1919 80.0287 62.5814 79.7719 62.0473L79.5244 61.5318L80.0808 61.6472C80.6671 61.7868 81.244 61.5746 81.5957 61.0963C81.9474 60.618 81.9791 60.0039 81.6757 59.494L81.378 58.9915L81.953 59.0734C82.5411 59.159 83.0976 58.8966 83.4065 58.3904C83.7154 57.8823 83.6912 57.2682 83.3451 56.7862L83.0157 56.3265L83.5796 56.3432C84.1807 56.3767 84.7111 56.066 84.9735 55.5356C85.2359 55.0033 85.1559 54.3947 84.7688 53.9462L84.3873 53.5052L84.9679 53.4828C85.5597 53.4624 86.0603 53.105 86.2725 52.5523C86.4846 51.9996 86.3507 51.3985 85.9245 50.9872L85.5057 50.5833L86.0845 50.5108C86.6726 50.4363 87.1379 50.0362 87.2979 49.4648C87.458 48.8954 87.2719 48.3091 86.8085 47.9388L86.3544 47.574L86.9239 47.4475C87.5026 47.3191 87.9288 46.878 88.0368 46.2936C88.1447 45.7111 87.9046 45.1454 87.4096 44.8197L86.9183 44.4959L87.4803 44.3209C88.0442 44.1404 88.4276 43.6621 88.4816 43.0722C88.5355 42.4822 88.2452 41.9407 87.7222 41.6615L87.2086 41.3861L87.7446 41.1572C88.4257 40.8687 88.8817 40.2564 88.9654 39.5213C89.0492 38.7862 88.7402 38.0883 88.141 37.6528L87.3519 37.0815L87.5845 36.8507C88.3066 36.1305 88.6267 35.1404 88.4667 34.1336C88.3047 33.1268 87.6906 32.2856 86.7806 31.8278L86.4884 31.6808L86.6801 31.4146C87.2775 30.5883 87.4375 29.5592 87.1174 28.5914C86.7973 27.6237 86.0566 26.8905 85.0852 26.5815L84.7818 26.4848L84.9177 26.1963C85.3829 25.2732 85.3792 24.2329 84.9102 23.3284C84.4431 22.424 83.5963 21.8173 82.5895 21.6647L82.2638 21.6163L82.3569 21.3018C82.6714 20.3303 82.5039 19.2993 81.9028 18.4748C81.3017 17.6541 80.3749 17.1833 79.3587 17.1833H79.0182L79.0703 16.8595C79.2341 15.8508 78.914 14.8551 78.1937 14.1293C77.4772 13.4072 76.489 13.0797 75.4822 13.2323L75.1435 13.3179L75.1472 12.9569C75.1602 11.9333 74.6968 10.9953 73.8761 10.3849C73.0554 9.77263 72.0262 9.59583 71.0473 9.89732L70.7496 9.99037L70.6882 9.66469C70.5523 8.65043 69.9568 7.79063 69.0579 7.30489C68.159 6.81916 67.1131 6.79125 66.19 7.23231L65.8923 7.37375L65.7974 7.05738C65.5163 6.07289 64.8036 5.30614 63.8433 4.95254C62.8811 4.59895 61.8427 4.72363 60.9903 5.29311L60.7297 5.46805L60.579 5.17215C60.1603 4.2379 59.347 3.58096 58.3458 3.36694C57.3445 3.15478 56.334 3.42463 55.5709 4.10763L55.3253 4.32909L55.1448 4.05366C54.5939 3.17897 53.6969 2.64113 52.6752 2.57041C51.6535 2.49969 50.6913 2.90726 50.0325 3.6889L49.9488 3.78753L49.6808 3.79684L49.5952 3.69634C48.9289 2.9054 47.9667 2.49783 46.945 2.56855C45.9252 2.63927 45.0282 3.17525 44.4829 4.04063L44.3079 4.31979L44.0548 4.11135C43.2881 3.42463 42.2776 3.15478 41.2763 3.36694C40.2751 3.5791 39.4618 4.2379 39.0431 5.17215L38.9072 5.47363L38.6299 5.29311C37.7776 4.72363 36.7391 4.60081 35.7769 4.95254C34.8148 5.30614 34.1039 6.07289 33.8229 7.05738L33.7317 7.37561L33.4339 7.23231C32.5071 6.78939 31.4612 6.81544 30.5623 7.30303C29.6634 7.78876 29.0679 8.65042 28.9321 9.66283L28.8874 9.99037L28.571 9.89732C27.594 9.59397 26.5629 9.77263 25.7422 10.3831C24.9215 10.9953 24.46 11.9333 24.4711 12.955L24.4749 13.2844L24.1492 13.2342C23.1386 13.0778 22.1467 13.4035 21.4246 14.1293C20.7044 14.8551 20.3843 15.8489 20.5481 16.8595L20.6002 17.1833H20.2615C19.2435 17.1833 18.3167 17.6541 17.7156 18.4748C17.1126 19.2993 16.947 20.3303 17.2615 21.3018L17.362 21.6126L17.04 21.6628C16.0239 21.8173 15.1771 22.424 14.71 23.3284C14.2429 24.2329 14.2373 25.2751 14.697 26.1833L14.844 26.4754L14.5351 26.5815C13.5636 26.8905 12.8229 27.6218 12.5028 28.5914C12.1827 29.5592 12.3428 30.5883 12.9402 31.4146L13.1318 31.6808L12.8397 31.8278C11.9296 32.2875 11.3155 33.1268 11.1536 34.1336C10.9916 35.1404 11.3136 36.1305 12.0357 36.8507L12.2683 37.0815L11.4792 37.6528C10.88 38.0865 10.571 38.7844 10.6548 39.5213C10.7385 40.2583 11.1945 40.8687 11.8756 41.1572L12.4153 41.3861L11.8961 41.6615C11.3732 41.9407 11.0828 42.4822 11.1368 43.0722C11.1908 43.6621 11.5741 44.1404 12.138 44.3228L12.6926 44.5015L12.2088 44.8234C11.7137 45.1491 11.4737 45.7149 11.5816 46.2974C11.6895 46.8799 12.1157 47.3228 12.6945 47.4493L13.264 47.5759L12.8099 47.9407C12.3465 48.311 12.1604 48.8954 12.3204 49.4667C12.4805 50.0362 12.9457 50.4382 13.5338 50.5126L14.1126 50.5852L13.6939 50.989C13.2677 51.4003 13.1337 51.9996 13.3459 52.5542C13.558 53.1088 14.0586 53.4642 14.6504 53.4847L15.2236 53.5052L14.8552 53.9444C14.4625 54.3985 14.3843 55.007 14.6467 55.5393C14.9073 56.0715 15.4377 56.3805 16.0295 56.3488L16.612 56.3172L16.2751 56.7918C15.929 57.2738 15.9048 57.8879 16.2137 58.396C16.5226 58.904 17.0791 59.1664 17.6672 59.079L18.2181 58.999L17.9519 59.4884C17.643 60.0114 17.6746 60.6255 18.0264 61.1038C18.3781 61.5821 18.955 61.7924 19.5338 61.6565L20.1107 61.5188L19.852 62.0492C19.5934 62.587 19.679 63.1974 20.0698 63.6422C20.4625 64.087 21.0543 64.2489 21.6182 64.0628L22.1728 63.8786L21.9736 64.4239C21.7615 64.9878 21.8973 65.587 22.3254 65.9983C22.7534 66.4096 23.3582 66.5175 23.9035 66.2849L24.2311 66.1453L24.2981 66.4933C24.2981 66.4933 24.4618 67.4108 25.1597 67.8463C25.558 68.0957 26.0661 68.1497 26.6709 68.0064L26.6839 67.7924C26.7732 66.579 26.2038 65.587 25.1597 65.1329L24.9234 65.0306L25.0071 64.7868C25.2044 64.2099 25.1634 63.5901 24.8936 63.043C24.6237 62.4958 24.1566 62.0864 23.5778 61.8929L23.1572 61.7514L23.4159 61.2936C23.7435 60.713 23.7881 60.0281 23.5388 59.4102C23.2894 58.7924 22.7813 58.3308 22.143 58.1391L21.6163 57.981L22.0555 57.6478C22.7125 57.1491 23.0772 56.3916 23.0605 55.5691C23.0419 54.7446 22.6417 54.0039 21.9643 53.5368L21.4265 53.1646L21.8099 52.9431C22.8576 52.3383 23.5965 51.3594 23.8868 50.1851C24.1771 49.0108 23.9836 47.8011 23.3378 46.7775L23.1386 46.463L23.4978 46.3606C24.661 46.0294 25.6138 45.257 26.1796 44.1888C26.7453 43.1206 26.8495 41.8997 26.4699 40.7496L26.3527 40.3923L26.7286 40.383C27.9364 40.3402 29.0437 39.8209 29.8495 38.9202C30.6554 38.0195 31.0462 36.86 30.9531 35.6559L30.9252 35.2856L31.2881 35.3563C32.4755 35.6038 33.6758 35.3638 34.6715 34.6789C35.6671 33.9959 36.3241 32.963 36.5214 31.7701L36.5809 31.4053L36.9159 31.5598C38.0121 32.0846 39.2348 32.1367 40.3644 31.7124C41.4941 31.2862 42.378 30.4413 42.8545 29.3321L42.9941 29.0065L43.2807 29.213C44.2242 29.9891 45.3985 30.3315 46.5989 30.1882C47.7993 30.0449 48.86 29.4345 49.5858 28.4686L49.8092 28.6361L50.0325 28.4686C50.7583 29.4345 51.821 30.0449 53.0195 30.1882C54.2198 30.3315 55.3941 29.9891 56.3284 29.2205L56.3619 29.1963L56.6373 29.0307L56.762 29.3266C57.2403 30.4413 58.1243 31.2862 59.2539 31.7124C60.3836 32.1367 61.6063 32.0846 62.695 31.5635L63.0263 31.4053L63.0951 31.7645C63.2924 32.963 63.9493 33.9959 64.945 34.6789C65.9407 35.3619 67.141 35.602 68.3246 35.3563L68.6857 35.2819L68.6634 35.6504C68.5703 36.86 68.9611 38.0195 69.767 38.9202C70.5728 39.8209 71.6801 40.3402 72.8879 40.383L73.2601 40.396L73.1485 40.7496C72.7707 41.8979 72.873 43.1187 73.4388 44.1888C74.0045 45.257 74.9574 46.0294 76.1205 46.3606L76.4797 46.463L76.2806 46.7775C75.6348 47.8011 75.4413 49.0108 75.7316 50.1851C76.0219 51.3594 76.7607 52.3383 77.8085 52.9431L78.1919 53.1646L77.654 53.5368C76.9766 54.0058 76.5765 54.7465 76.5579 55.5691C76.5393 56.3935 76.9059 57.1509 77.5628 57.6478L78.002 57.981L77.4754 58.1391C76.837 58.329 76.329 58.7924 76.0796 59.4102C75.8302 60.0281 75.8749 60.713 76.2024 61.2936L76.4611 61.7514L76.0405 61.8929C75.4617 62.0883 74.9946 62.4958 74.7248 63.043C74.4549 63.5901 74.414 64.2099 74.6112 64.7868L74.695 65.0306L74.4586 65.1329C73.422 65.5833 72.8339 66.6292 72.9251 67.8612L72.9363 68.0231V68.0175Z" fill="black"/>
<g opacity="0.3">
<path d="M87.5631 44.5873C89.0184 44.1221 89.199 42.1364 87.8516 41.4143C89.5023 40.7127 89.7554 38.4776 88.3019 37.4261L87.7771 37.0464C89.426 35.4013 88.9812 32.6246 86.9006 31.575C88.2666 29.6879 87.3845 27.0173 85.1642 26.312L85.168 26.3064C86.2176 24.2295 84.9279 21.7338 82.6276 21.3858H82.6202C83.2641 19.387 81.9837 17.3473 80.0203 16.9658C81.6339 17.7642 82.2778 19.642 81.1853 21.1159V21.1197L81.1909 21.1215C83.5303 21.7431 84.3584 24.2555 82.7542 25.8634L82.7486 25.869C84.967 26.7735 85.3839 29.3678 83.5321 30.7673L83.5507 30.7784C85.596 31.9379 85.596 34.547 83.5507 35.7065L83.5321 35.7176L83.5433 35.7269C85.3876 37.1227 84.9744 39.7077 82.7616 40.6103L82.7486 40.6159L82.7542 40.6215C84.3566 42.2294 83.5284 44.74 81.1909 45.3634H81.1816L81.1835 45.369C81.6097 47.0942 80.627 48.4732 79.9291 48.9291C77.6512 47.8237 76.9329 44.2766 78.1816 42.5048L78.1686 42.4993C75.8851 41.7623 74.735 39.6184 75.5948 37.6978L75.6004 37.6866L75.5669 37.681C73.1717 37.2995 71.5861 35.3715 72.0123 33.356L72.0179 33.3262H71.9565C69.5297 33.3262 67.5458 31.6997 67.4974 29.6618V29.6097C65.0818 30.0266 62.7071 28.7536 62.1451 26.74L62.1171 26.7493C59.8765 27.5905 57.2449 26.7921 56.1655 24.9422L56.1525 24.918L56.119 24.9385C54.1705 26.1835 51.3957 25.9118 49.8399 24.3244L49.8138 24.2964L49.7878 24.3225C48.2319 25.9118 45.4571 26.1835 43.5086 24.9366L43.4751 24.9162L43.4621 24.9404C42.3827 26.7902 39.7512 27.5905 37.5105 26.7474L37.4826 26.7363C36.9187 28.7518 35.1042 30.2108 32.6886 29.794L32.6848 29.941C32.6383 31.9248 30.6284 33.5123 28.1662 33.5104L28.2016 33.6817C28.611 35.6264 27.0273 37.48 24.6265 37.8634L24.5819 37.8709L24.66 38.0477C25.4845 39.8919 24.3474 42.1196 22.0881 42.8473L21.9988 42.8771L22.1123 43.039C23.3089 44.7381 22.8139 46.895 20.7574 47.9279L20.6346 47.9893L20.6532 48.0079C22.2444 49.5842 22.196 51.8919 20.3071 53.2393L20.3499 53.2691C22.1514 54.5532 22.9255 56.7697 21.379 58.3032C21.379 58.3032 23.6402 59.1351 23.0595 61.7461C23.0595 61.7461 25.2444 61.7722 25.2779 64.8727C25.7339 63.5309 25.0155 62.0755 23.6718 61.6233L23.5713 61.5898L23.6644 61.426C24.4386 60.0526 23.737 58.3181 22.2277 57.8677C23.7574 56.7083 23.7053 54.3932 22.1253 53.3026L21.9504 53.1816C24.2562 51.8547 24.9932 48.8752 23.5751 46.6252C26.1321 45.8957 27.5688 43.1841 26.737 40.6587H26.7407C29.3964 40.5656 31.4379 38.2803 31.2332 35.6302V35.6264H31.2369C33.8368 36.168 36.366 34.4335 36.7977 31.8132V31.8095L36.8052 31.8132C39.2003 32.9596 42.0682 31.8802 43.1141 29.4385V29.4329H43.1178C45.1705 31.1209 48.2171 30.7561 49.8157 28.6327C51.4143 30.7561 54.459 31.1209 56.5136 29.4329L56.5173 29.4385C57.5632 31.8783 60.431 32.9577 62.8262 31.8132L62.8318 31.8095V31.8132C63.2635 34.4335 65.7927 36.168 68.3926 35.6264H68.3963V35.6302C68.1916 38.2784 70.235 40.5638 72.8888 40.6568H72.8926C72.0607 43.1823 73.4974 45.8938 76.0545 46.6233C74.6363 48.8733 75.3733 51.8528 77.6791 53.1798L77.5042 53.3007C77.266 53.4664 77.0669 53.6599 76.8975 53.8739C76.7598 54.047 76.6463 54.2331 76.5551 54.4285C76.5551 54.4285 76.5551 54.4304 76.5551 54.4322C76.4658 54.6258 76.3988 54.8249 76.3559 55.0315C76.3559 55.0389 76.3522 55.0464 76.3522 55.0538C76.3243 55.1878 76.3076 55.3218 76.3001 55.4577C76.2555 56.2523 76.5402 57.0637 77.1674 57.6574C77.2418 57.73 77.3218 57.7989 77.4074 57.864C77.3144 57.8919 77.2232 57.9254 77.1357 57.9626C76.6574 58.1673 76.2796 58.5116 76.0228 58.9266C76.0172 58.9378 76.0098 58.9471 76.0042 58.9583C75.9726 59.0123 75.9428 59.0662 75.9149 59.1221C75.9093 59.1314 75.9056 59.1425 75.9019 59.1518C75.8237 59.3156 75.7623 59.4868 75.7213 59.6636C75.7139 59.6953 75.7064 59.725 75.7009 59.7567C75.6934 59.7995 75.686 59.8423 75.6804 59.8869C75.6748 59.926 75.6711 59.9651 75.6674 60.0061C75.6636 60.0451 75.6599 60.0842 75.6581 60.1233C75.6562 60.1773 75.6581 60.2312 75.6581 60.2852C75.6581 60.3113 75.6581 60.3392 75.6581 60.3652C75.6618 60.4453 75.6711 60.5234 75.6841 60.6034C75.6878 60.6314 75.6953 60.6593 75.7009 60.6853C75.712 60.7412 75.7251 60.797 75.7399 60.8528C75.7474 60.8826 75.7567 60.9124 75.766 60.9403C75.7828 60.9961 75.8032 61.0538 75.8256 61.1096C75.8349 61.1357 75.8442 61.1618 75.8553 61.1859C75.8907 61.266 75.9279 61.346 75.9726 61.4242L76.0656 61.5879L75.9651 61.6214C74.6233 62.0737 73.9031 63.5309 74.3591 64.8708C73.1661 65.39 72.4329 66.6053 72.5278 67.9024L72.6823 68.2374C73.1419 68.4682 73.7672 68.3007 73.8156 68.2933C73.838 68.2895 73.8584 68.2858 73.8808 68.2821C73.9292 68.2728 73.9757 68.2635 74.0203 68.2504C74.0371 68.2467 74.0538 68.243 74.0706 68.2374C74.1301 68.2207 74.1878 68.2002 74.2437 68.1797C74.2548 68.176 74.266 68.1704 74.2753 68.1667C74.32 68.1481 74.3628 68.1295 74.4056 68.109C74.4223 68.1016 74.4372 68.0923 74.454 68.083C74.4912 68.0625 74.5266 68.042 74.5619 68.0215C74.5749 68.0141 74.5898 68.0048 74.6029 67.9973C74.6959 67.9359 74.7815 67.8689 74.8597 67.8001C74.869 67.7908 74.8783 67.7815 74.8895 67.7722C74.9192 67.7442 74.9471 67.7163 74.9751 67.6866C74.9844 67.6772 74.9937 67.6679 75.0011 67.6586C75.0327 67.6233 75.0644 67.5879 75.0942 67.5526C75.0942 67.5507 75.0979 67.5488 75.0997 67.547C75.1314 67.506 75.163 67.467 75.1909 67.426C75.1947 67.4223 75.1965 67.4167 75.2002 67.413C75.2244 67.3776 75.2486 67.3423 75.271 67.3069C75.2747 67.3013 75.2784 67.2939 75.2821 67.2883C75.3063 67.2511 75.3287 67.212 75.3491 67.1766C75.5427 66.8286 75.6097 66.5383 75.6097 66.5383L75.619 66.542C77.0241 67.145 78.4626 65.766 77.9248 64.3367L77.9211 64.3274H77.9285C79.3801 64.8094 80.6978 63.3131 80.0371 61.9341L80.0334 61.9266H80.0371C81.5241 62.2802 82.7077 60.6742 81.9298 59.3584V59.3547C83.4428 59.5762 84.4812 57.8714 83.5879 56.6283H83.5917C85.1177 56.7139 85.9961 54.9254 84.9967 53.7678H84.9949V53.766C86.5228 53.712 87.2356 51.851 86.1357 50.7902C87.6506 50.5985 88.1922 48.6798 86.9992 47.7232C88.4899 47.3919 88.8528 45.4323 87.578 44.5911L87.5631 44.5873Z" fill="black" fill-opacity="0.6"/>
</g>
<path opacity="0.4" d="M30.3278 13.0857C30.0095 12.0919 30.5139 10.8581 31.53 10.471C32.12 10.2328 32.8011 10.3965 33.3483 10.6105L33.1956 10.698C33.3148 8.63412 35.1255 7.6273 36.7223 9.13474L36.5585 9.18871C36.7595 8.42382 37.3551 7.58636 38.2204 7.46353C39.0523 7.30906 39.9829 7.6608 40.3979 8.39777C40.4053 8.41266 40.3923 8.43127 40.3755 8.42568C39.9884 8.32519 39.6479 8.25819 39.3185 8.23586C38.3582 8.19305 37.3309 8.43685 36.7763 9.30037C36.7409 9.3562 36.6721 9.37854 36.6125 9.35434C35.4903 9.00074 33.8358 9.6 33.4357 10.765C33.4134 10.8283 33.3464 10.8636 33.2831 10.8525C32.9277 10.8134 32.5648 10.8767 32.2595 10.9865C31.638 11.1986 31.1411 11.5057 30.8135 12.0957C30.6423 12.3841 30.5251 12.721 30.4078 13.0876C30.3985 13.1248 30.3371 13.1267 30.3278 13.0876V13.0857Z" fill="white"/>
<path opacity="0.4" d="M17.8549 49.0199C17.0267 48.9231 16.6601 47.6278 17.412 47.1663L17.4231 47.2631C16.5726 46.8183 16.4703 45.7687 17.3822 45.3239L17.3747 45.4206C16.5931 45.0038 16.8778 43.5838 17.7674 43.5801C17.3952 44.1254 17.2929 44.7004 17.4808 45.3313C17.492 45.363 17.4957 45.402 17.4734 45.4281C17.291 45.6644 17.3208 46.0236 17.291 46.2953C17.2761 46.5838 17.2947 46.9151 17.5087 47.1533C17.5255 47.1737 17.5329 47.1998 17.5273 47.224C17.345 47.8549 17.3952 48.4932 17.8754 48.9789C17.8902 48.9938 17.8754 49.0236 17.8549 49.0199Z" fill="white"/>
<path opacity="0.3" d="M70.8428 30.4995C70.1673 30.8717 69.2889 30.9071 68.6059 30.4883C67.8856 30.0882 67.5748 29.0553 68.0141 28.3612L68.0103 28.3928C68.0103 28.3816 68.0103 28.3723 68.0103 28.3612L68.0978 28.4393L68.1369 28.4282C67.8335 28.6533 67.4744 28.8394 67.0742 28.9195C66.2665 29.087 65.3565 28.6961 64.934 27.9741C64.7182 27.613 64.653 27.1682 64.7647 26.7904C64.7777 26.7439 64.828 26.7179 64.8745 26.7309C64.9061 26.7402 64.9303 26.7681 64.9359 26.7979C65.0066 27.1496 65.1481 27.4455 65.3546 27.6782C65.9744 28.3444 67.1915 28.6552 68.0513 28.2849C68.1406 28.2365 68.1964 28.3332 68.1778 28.4133C68.0085 30.0473 69.5066 30.386 70.8168 30.3841C70.8763 30.3841 70.8987 30.4716 70.8447 30.4995H70.8428Z" fill="white"/>
<path opacity="0.3" d="M82.4572 38.2984C83.1104 38.9181 82.902 40.1352 82.0608 40.4758L82.0794 40.4051C82.3604 40.6638 82.6731 41.103 82.6675 41.5459C82.6898 41.9888 82.5074 42.4857 82.1148 42.7184C82.0682 42.7463 82.0106 42.6886 82.0403 42.6439C82.4088 41.9739 82.3344 41.1309 81.9938 40.4646C81.9771 40.4386 81.9845 40.4051 82.0087 40.3883C82.4684 40.0496 82.5223 39.4336 82.4833 38.9051C82.4684 38.7227 82.4311 38.5385 82.3939 38.3375C82.3846 38.3021 82.433 38.2742 82.4591 38.3003L82.4572 38.2984Z" fill="white"/>
</g>
</g>
<defs>
<filter id="filter0_d_1944_15775" x="0" y="0" width="100" height="100" filterUnits="userSpaceOnUse" color-interpolation-filters="sRGB">
<feFlood flood-opacity="0" result="BackgroundImageFix"/>
<feColorMatrix in="SourceAlpha" type="matrix" values="0 0 0 0 0 0 0 0 0 0 0 0 0 0 0 0 0 0 127 0" result="hardAlpha"/>
<feOffset/>
<feGaussianBlur stdDeviation="5"/>
<feComposite in2="hardAlpha" operator="out"/>
<feColorMatrix type="matrix" values="0 0 0 0 0 0 0 0 0 0 0 0 0 0 0 0 0 0 0.3 0"/>
<feBlend mode="normal" in2="BackgroundImageFix" result="effect1_dropShadow_1944_15775"/>
<feBlend mode="normal" in="SourceGraphic" in2="effect1_dropShadow_1944_15775" result="shape"/>
</filter>
<linearGradient id="paint0_linear_1944_15775" x1="10.3681" y1="35.3242" x2="89.2556" y2="35.3242" gradientUnits="userSpaceOnUse">
<stop stop-color="#E60012"/>
<stop offset="0.07" stop-color="#E60112"/>
<stop offset="0.09" stop-color="#E60812"/>
<stop offset="0.11" stop-color="#E61412"/>
<stop offset="0.13" stop-color="#E72512"/>
<stop offset="0.14" stop-color="#E83B13"/>
<stop offset="0.15" stop-color="#EA5514"/>
<stop offset="0.22" stop-color="#EA5614"/>
<stop offset="0.24" stop-color="#EB5D16"/>
<stop offset="0.26" stop-color="#EC6919"/>
<stop offset="0.27" stop-color="#EF7A1D"/>
<stop offset="0.29" stop-color="#F29023"/>
<stop offset="0.3" stop-color="#F8B62D"/>
<stop offset="0.36" stop-color="#F6B52D"/>
<stop offset="0.38" stop-color="#EFB42D"/>
<stop offset="0.39" stop-color="#E3B32E"/>
<stop offset="0.4" stop-color="#D2B130"/>
<stop offset="0.41" stop-color="#BCAF32"/>
<stop offset="0.42" stop-color="#A1AB35"/>
<stop offset="0.43" stop-color="#80A838"/>
<stop offset="0.44" stop-color="#319E3F"/>
<stop offset="0.45" stop-color="#009944"/>
<stop offset="0.51" stop-color="#009945"/>
<stop offset="0.53" stop-color="#00994C"/>
<stop offset="0.55" stop-color="#009958"/>
<stop offset="0.56" stop-color="#009A69"/>
<stop offset="0.57" stop-color="#009B7F"/>
<stop offset="0.58" stop-color="#009C9A"/>
<stop offset="0.59" stop-color="#009EBA"/>
<stop offset="0.6" stop-color="#00A0E9"/>
<stop offset="0.67" stop-color="#009EE7"/>
<stop offset="0.69" stop-color="#0197E1"/>
<stop offset="0.71" stop-color="#038BD8"/>
<stop offset="0.72" stop-color="#077ACA"/>
<stop offset="0.73" stop-color="#0B64B8"/>
<stop offset="0.74" stop-color="#104AA2"/>
<stop offset="0.75" stop-color="#172A88"/>
<stop offset="0.82" stop-color="#182A88"/>
<stop offset="0.84" stop-color="#1F2A88"/>
<stop offset="0.86" stop-color="#2B2B89"/>
<stop offset="0.87" stop-color="#3C2C8A"/>
<stop offset="0.88" stop-color="#522E8B"/>
<stop offset="0.89" stop-color="#6C2F8D"/>
<stop offset="0.9" stop-color="#7E318E"/>
</linearGradient>
</defs>
</svg>
