<svg width="160" height="216" viewBox="0 0 160 216" fill="none" xmlns="http://www.w3.org/2000/svg">
<path d="M80.0019 50.9576C76.9431 55.0206 71.1174 55.7185 67.1861 52.4888L67.1825 52.4994C65.1813 57.1678 59.6939 59.2332 55.1109 57.0432L55.1003 57.0361V57.0432C54.2741 62.057 49.4348 65.3758 44.4602 64.3396H44.453V64.3467C44.8447 69.4139 40.9348 73.7868 35.8569 73.9648H35.8498C37.4415 78.797 34.6925 83.9853 29.7998 85.3812C32.5132 89.6864 31.1031 95.3875 26.6911 97.9264L27.0258 98.1579C30.049 100.245 30.1452 104.674 27.2216 106.893C30.1096 107.755 31.452 111.077 29.9707 113.701L29.7926 114.015L29.9849 114.079C32.5524 114.944 33.9305 117.732 33.058 120.296C35.3406 121.29 36.4765 123.43 36.2949 125.908L36.2451 126.702C31.4342 128.105 30.6722 123.473 30.6722 123.473L30.6544 123.48C27.9659 124.633 25.2133 121.995 26.2424 119.26L26.2495 119.242H26.2353C23.4577 120.164 20.9366 117.302 22.2007 114.663L22.2078 114.649H22.2007C19.3555 115.325 17.0908 112.252 18.5792 109.735V109.727C15.6842 110.151 13.6972 106.889 15.4064 104.511H15.3993C12.4793 104.674 10.7986 101.249 12.7108 99.0374H12.7144V99.0339C9.79082 98.9306 8.42698 95.3697 10.5315 93.3399C7.63289 92.9731 6.59665 89.3018 8.87922 87.4715C6.0269 86.8376 5.33252 83.088 7.77176 81.4784C4.9871 80.5882 4.64169 76.7886 7.21982 75.407C4.06126 74.0681 3.57697 69.7878 6.35807 67.7759L7.36225 67.0495C4.20726 63.9016 5.05832 58.5887 9.03946 56.5803C6.42573 52.9695 8.11361 47.8595 12.3618 46.5099L12.3547 46.4992C10.3463 42.5252 12.8141 37.75 17.2154 37.0841H17.2296C15.8587 32.8359 19.035 28.488 23.5005 28.5022C22.7883 24.0938 26.5842 20.2693 30.9962 20.953C30.9428 16.4841 35.2622 13.2614 39.5318 14.5825V14.5754C40.1265 10.1491 44.8661 7.58525 48.8971 9.51172H48.9042V9.51528C50.1327 5.21366 55.1928 3.35485 58.914 5.84039V5.83327C60.7408 1.75243 66.011 0.63429 69.3405 3.61836L69.3476 3.62548L69.3583 3.60768C71.737 -0.170483 77.1069 -0.544383 79.9877 2.87056L80.0019 2.88837L80.0162 2.87056C82.8934 -0.544383 88.2633 -0.174044 90.6456 3.60768L90.6563 3.62548L90.6634 3.61836C93.9929 0.63429 99.2631 1.75243 101.09 5.83327V5.84039H101.093C104.811 3.35485 109.875 5.21366 111.103 9.51528L111.11 9.51172C115.141 7.58525 119.881 10.1491 120.476 14.5754V14.5825C124.745 13.2614 129.065 16.4841 129.011 20.953C133.427 20.2693 137.223 24.0938 136.507 28.5022C140.969 28.488 144.149 32.8359 142.778 37.0841H142.792C147.197 37.75 149.661 42.5252 147.653 46.4992L147.646 46.5099C151.894 47.8595 153.578 52.9695 150.968 56.5803C154.949 58.5887 155.797 63.898 152.645 67.0495L153.649 67.7759C156.43 69.7878 155.946 74.0645 152.788 75.407C155.362 76.7886 155.017 80.5846 152.236 81.4784C154.675 83.088 153.981 86.8412 151.128 87.4715C153.411 89.2982 152.375 92.9696 149.476 93.3399C151.58 95.3697 150.213 98.9306 147.293 99.0339L147.297 99.0374C149.209 101.249 147.525 104.671 144.608 104.511H144.601C146.307 106.889 144.323 110.151 141.428 109.727L141.432 109.735C142.92 112.252 140.659 115.325 137.81 114.652H137.803L137.81 114.663C139.074 117.302 136.553 120.165 133.776 119.246H133.762L133.769 119.26C134.801 121.995 132.045 124.63 129.357 123.48L129.339 123.473C129.339 123.473 128.555 128.137 123.745 126.734L123.698 126.044C123.513 123.562 124.67 121.286 126.953 120.293C126.081 117.725 127.455 114.941 130.026 114.075L130.218 114.011L130.04 113.698C128.559 111.073 129.901 107.751 132.789 106.889C129.862 104.671 129.962 100.241 132.985 98.1543L133.32 97.9228C128.908 95.3839 127.498 89.6828 130.211 85.3776C125.319 83.9818 122.569 78.7935 124.161 73.9613H124.154C119.073 73.7832 115.166 69.4104 115.558 64.3431V64.336H115.551C110.576 65.3723 105.737 62.0535 104.911 57.0396V57.0325L104.896 57.0396C100.314 59.2332 94.8261 57.1678 92.8249 52.4959V52.4852H92.8178C88.8901 55.715 83.0608 55.017 80.0019 50.954" fill="#171515"/>
<path d="M125.436 127.539C124.863 127.539 124.247 127.443 123.595 127.254L123.239 127.151L123.164 126.09C122.968 123.44 124.165 121.154 126.312 120.018C126.006 118.775 126.145 117.479 126.718 116.318C127.298 115.147 128.256 114.239 129.449 113.733C128.78 112.391 128.716 110.842 129.282 109.439C129.766 108.242 130.656 107.284 131.785 106.722C130.685 105.593 130.087 104.083 130.122 102.47C130.161 100.679 130.973 99.0584 132.362 97.9617C130.468 96.6477 129.136 94.7177 128.573 92.4529C128 90.1418 128.299 87.7667 129.413 85.6942C127.199 84.893 125.393 83.3226 124.279 81.2217C123.164 79.1207 122.883 76.742 123.46 74.4594C121.113 74.2137 118.983 73.1241 117.402 71.3543C115.818 69.5809 114.974 67.3411 114.992 64.9873C112.656 65.3078 110.33 64.7559 108.368 63.4134C106.406 62.0674 105.053 60.0946 104.512 57.8013C102.315 58.6702 99.9253 58.6916 97.6997 57.8548C95.4706 57.0179 93.6865 55.4226 92.6147 53.3252C90.6954 54.6891 88.3807 55.2802 86.0198 54.9989C83.6589 54.7176 81.5437 53.5923 80.0018 51.8154C78.4599 53.5923 76.3483 54.7176 73.9838 54.9989C71.6229 55.2802 69.3048 54.6891 67.389 53.3252C66.3136 55.4262 64.5295 57.0179 62.3039 57.8548C60.0748 58.6916 57.6818 58.6702 55.4919 57.8013C54.947 60.0982 53.5974 62.0674 51.6354 63.4134C49.6733 64.7594 47.3444 65.3078 45.012 64.9909C45.0298 67.3518 44.1859 69.5881 42.6048 71.3578C41.0202 73.1312 38.8872 74.2209 36.5476 74.4666C37.1281 76.7491 36.8432 79.1243 35.7286 81.2252C34.6141 83.3262 32.8087 84.8966 30.5937 85.6978C31.7083 87.7738 32.0074 90.1454 31.4341 92.4565C30.8715 94.7212 29.5397 96.6512 27.6453 97.9652C29.0341 99.062 29.8459 100.686 29.8851 102.473C29.9207 104.09 29.3225 105.596 28.2222 106.725C29.3545 107.291 30.2448 108.246 30.7255 109.442C31.2917 110.845 31.2276 112.394 30.5581 113.737C31.7475 114.242 32.7089 115.15 33.2894 116.322C33.8627 117.483 34.0016 118.779 33.6953 120.018C35.8568 121.151 37.0177 123.337 36.8254 125.958L36.7506 127.119L36.391 127.222C34.7636 127.696 33.3784 127.582 32.2674 126.884C31.078 126.136 30.5296 124.904 30.2946 124.17C29.002 124.509 27.6667 124.163 26.6803 123.223C25.7651 122.347 25.3556 121.147 25.5194 119.947C24.3087 120.061 23.1336 119.598 22.3003 118.651C21.4635 117.704 21.1572 116.471 21.4243 115.289C20.2207 115.296 19.0812 114.734 18.3334 113.715C17.5856 112.697 17.3862 111.447 17.7494 110.293C16.5458 110.19 15.4669 109.531 14.8116 108.456C14.1564 107.38 14.0674 106.12 14.5303 105.002C13.341 104.795 12.3225 104.044 11.767 102.908C11.2115 101.775 11.2365 100.511 11.7991 99.443C10.6347 99.1297 9.69101 98.2857 9.24233 97.1106C8.79009 95.9319 8.92897 94.6785 9.58774 93.6636C8.45536 93.2434 7.59361 92.3211 7.25176 91.1068C6.90991 89.8926 7.16274 88.6569 7.91054 87.7097C6.82089 87.1863 6.04816 86.1892 5.82026 84.95C5.59236 83.7108 5.95558 82.5 6.78884 81.6241C5.74548 81.0009 5.07247 79.9397 4.95495 78.6863C4.841 77.4399 5.30749 76.2755 6.20485 75.4779C4.99412 74.6802 4.20003 73.4018 4.03267 71.9134C3.8297 70.1187 4.58106 68.413 6.04816 67.3554L6.5645 66.9815C5.23627 65.4075 4.67008 63.3778 4.99769 61.316C5.32885 59.2471 6.51109 57.488 8.27375 56.409C7.20191 54.6428 6.95977 52.5347 7.61854 50.5441C8.27375 48.5536 9.72306 47.0046 11.6317 46.2211C10.8483 44.3054 10.9409 42.183 11.9024 40.3207C12.8638 38.4547 14.541 37.1514 16.5565 36.6814C16.0829 34.6659 16.5031 32.5863 17.7423 30.8913C18.9815 29.1963 20.8368 28.1636 22.8985 28.0034C22.7347 25.938 23.4647 23.9439 24.9425 22.4554C26.4239 20.9634 28.4109 20.2227 30.4762 20.3723C30.6187 18.3069 31.6371 16.441 33.3179 15.184C35.0022 13.927 37.0782 13.4854 39.1008 13.9341C39.5317 11.9221 40.8137 10.2093 42.6689 9.20514C44.517 8.20451 46.6394 8.0692 48.5765 8.80987C49.3065 6.86916 50.8128 5.37 52.7855 4.64713C54.7583 3.92426 56.8771 4.09162 58.6896 5.09581C59.6795 3.28329 61.3888 2.00491 63.4506 1.56692C65.5052 1.12892 67.5848 1.59896 69.2335 2.85242C70.4834 1.18233 72.3494 0.163903 74.4432 0.0179045C76.5442 -0.128094 78.5383 0.630387 79.9983 2.10818C81.4689 0.623265 83.4595 -0.128094 85.5498 0.0179045C87.6507 0.163903 89.5202 1.18589 90.763 2.85242C92.4153 1.5954 94.4913 1.12892 96.546 1.56692C98.6042 2.00491 100.31 3.27617 101.307 5.09581C103.119 4.08806 105.238 3.9207 107.211 4.64713C109.184 5.37 110.69 6.87272 111.42 8.80987C113.361 8.0692 115.48 8.20808 117.328 9.20514C119.176 10.2058 120.454 11.9079 120.896 13.9341C122.918 13.4854 124.994 13.927 126.679 15.184C128.363 16.441 129.378 18.3069 129.52 20.3723C131.586 20.2263 133.576 20.9669 135.054 22.4554C136.535 23.9439 137.262 25.9416 137.098 28.0034C139.16 28.1636 141.015 29.1963 142.254 30.8913C143.493 32.5863 143.91 34.6659 143.44 36.6814C145.459 37.155 147.133 38.4583 148.094 40.3207C149.056 42.1866 149.148 44.3054 148.365 46.2211C150.277 47.0046 151.723 48.5536 152.378 50.5441C153.033 52.5347 152.791 54.6392 151.723 56.409C153.485 57.488 154.668 59.2471 154.999 61.316C155.33 63.3778 154.76 65.4111 153.436 66.9815L153.952 67.3554C155.415 68.413 156.17 70.1187 155.967 71.9134C155.8 73.4018 155.006 74.6802 153.792 75.4779C154.693 76.2791 155.159 77.4399 155.045 78.6863C154.931 79.9433 154.251 81.008 153.215 81.6276C154.045 82.5036 154.411 83.7108 154.18 84.95C153.952 86.1892 153.179 87.1898 152.09 87.7097C152.837 88.6569 153.09 89.8961 152.748 91.1104C152.407 92.3247 151.545 93.247 150.412 93.6672C151.068 94.682 151.206 95.9355 150.754 97.1142C150.302 98.2893 149.362 99.1332 148.197 99.4466C148.76 100.515 148.785 101.779 148.23 102.911C147.674 104.044 146.656 104.795 145.466 105.002C145.929 106.116 145.84 107.377 145.185 108.456C144.53 109.531 143.451 110.194 142.247 110.293C142.614 111.447 142.414 112.697 141.663 113.715C140.919 114.727 139.794 115.286 138.59 115.286H138.569C138.836 116.471 138.526 117.7 137.693 118.647C136.856 119.594 135.677 120.057 134.47 119.943C134.634 121.154 134.221 122.347 133.309 123.219C132.319 124.167 130.977 124.509 129.691 124.17C129.453 124.911 128.897 126.157 127.694 126.912C127.031 127.329 126.269 127.535 125.418 127.539H125.436ZM124.25 126.321C125.404 126.592 126.372 126.488 127.138 126.011C128.491 125.167 128.812 123.405 128.815 123.387L128.929 122.724L129.549 122.984C130.614 123.44 131.771 123.23 132.59 122.447C133.409 121.663 133.669 120.517 133.27 119.452L132.878 118.412L133.929 118.736C135.022 119.099 136.158 118.79 136.909 117.939C137.661 117.088 137.821 115.92 137.329 114.898L136.856 113.911L137.921 114.132C139.042 114.399 140.146 113.993 140.819 113.078C141.492 112.163 141.553 110.988 140.972 110.012L140.403 109.05L141.503 109.207C142.628 109.371 143.693 108.869 144.284 107.9C144.875 106.928 144.829 105.753 144.166 104.831L143.536 103.951L144.615 103.983C145.765 104.047 146.78 103.453 147.282 102.438C147.784 101.419 147.631 100.255 146.891 99.3967L146.161 98.5528L147.272 98.5101C148.404 98.4709 149.362 97.7872 149.768 96.7296C150.174 95.672 149.917 94.5218 149.102 93.7348L148.301 92.9621L149.408 92.8232C150.533 92.6808 151.424 91.9152 151.73 90.822C152.036 89.7323 151.68 88.6106 150.793 87.902L149.925 87.2041L151.014 86.9619C152.122 86.7162 152.937 85.8723 153.144 84.7541C153.35 83.6395 152.891 82.557 151.944 81.9339L151.003 81.3143L152.079 80.9795C153.158 80.6341 153.891 79.719 153.995 78.5901C154.098 77.4613 153.542 76.4251 152.542 75.8909L151.559 75.3639L152.585 74.9259C153.888 74.374 154.76 73.2024 154.921 71.7959C155.081 70.3893 154.49 69.0539 153.343 68.2207L151.833 67.1275L152.278 66.6859C153.66 65.3078 154.272 63.4134 153.966 61.4869C153.656 59.5604 152.481 57.9509 150.74 57.0749L150.181 56.7936L150.548 56.2844C151.691 54.7033 151.997 52.7341 151.385 50.8824C150.772 49.0307 149.355 47.6277 147.496 47.0366L146.916 46.8514L147.175 46.2995C148.066 44.5333 148.059 42.5427 147.161 40.8121C146.267 39.0815 144.647 37.9206 142.721 37.6286L142.098 37.536L142.276 36.9342C142.877 35.0754 142.557 33.1026 141.407 31.5251C140.257 29.9548 138.483 29.0538 136.539 29.0538H135.887L135.987 28.4342C136.3 26.5042 135.688 24.5991 134.31 23.2103C132.939 21.8287 131.048 21.202 129.121 21.494L128.473 21.6578L128.481 20.9669C128.505 19.0084 127.619 17.2137 126.048 16.0457C124.478 14.8742 122.509 14.5359 120.636 15.1127L120.066 15.2908L119.949 14.6676C119.689 12.7269 118.549 11.0818 116.829 10.1524C115.109 9.22294 113.108 9.16953 111.342 10.0135L110.772 10.2841L110.59 9.67875C110.053 7.79501 108.689 6.3279 106.851 5.65132C105.01 4.97474 103.023 5.21332 101.392 6.30297L100.894 6.6377L100.605 6.07151C99.8042 4.28392 98.2481 3.0269 96.3323 2.61739C94.4165 2.21145 92.4829 2.72778 91.023 4.03465L90.5529 4.4584L90.2075 3.93138C89.1535 2.25774 87.4371 1.22863 85.4821 1.09331C83.5272 0.957994 81.6862 1.73784 80.4256 3.23344L80.2653 3.42217L79.7526 3.43997L79.5888 3.24768C78.3139 1.73428 76.4729 0.954433 74.518 1.08975C72.5666 1.22506 70.8502 2.25062 69.8069 3.90646L69.4721 4.4406L68.9878 4.04177C67.5207 2.72778 65.5871 2.21145 63.6713 2.61739C61.7556 3.02334 60.1994 4.28392 59.3982 6.07151L59.1383 6.64838L58.6077 6.30297C56.9768 5.21332 54.9898 4.9783 53.1488 5.65132C51.3078 6.3279 49.9475 7.79501 49.4098 9.67875L49.2353 10.2877L48.6655 10.0135C46.8922 9.16597 44.8909 9.21582 43.171 10.1488C41.4511 11.0782 40.3116 12.7269 40.0516 14.6641L39.9661 15.2908L39.3608 15.1127C37.4913 14.5323 35.5185 14.8742 33.9482 16.0422C32.3778 17.2137 31.4947 19.0084 31.516 20.9634L31.5232 21.5937L30.9 21.4975C28.9664 21.1984 27.0684 21.8216 25.6868 23.2103C24.3087 24.5991 23.6962 26.5006 24.0096 28.4342L24.1093 29.0538H23.4612C21.5133 29.0538 19.74 29.9548 18.5898 31.5251C17.4361 33.1026 17.1191 35.0754 17.7209 36.9342L17.9132 37.5289L17.2972 37.625C15.3529 37.9206 13.7327 39.0815 12.8389 40.8121C11.9451 42.5427 11.9344 44.5368 12.814 46.2746L13.0953 46.8336L12.5042 47.0366C10.6453 47.6277 9.22809 49.0272 8.6156 50.8824C8.00312 52.7341 8.30936 54.7033 9.45243 56.2844L9.8192 56.7936L9.26013 57.0749C7.51883 57.9545 6.34372 59.5604 6.03392 61.4869C5.72412 63.4134 6.34016 65.3078 7.72181 66.6859L8.16693 67.1275L6.65709 68.2207C5.51046 69.0504 4.91935 70.3857 5.07959 71.7959C5.23983 73.206 6.11226 74.374 7.41557 74.9259L8.44824 75.3639L7.45474 75.8909C6.45411 76.4251 5.8986 77.4613 6.00187 78.5901C6.10514 79.719 6.83869 80.6341 7.91766 80.9831L8.97882 81.3249L8.05298 81.941C7.10576 82.5641 6.6464 83.6467 6.85294 84.7612C7.05947 85.8758 7.87493 86.7233 8.98238 86.9655L10.072 87.2076L9.20316 87.9056C8.31648 88.6142 7.96039 89.7323 8.26663 90.8255C8.57287 91.9152 9.46311 92.6844 10.5884 92.8268L11.6958 92.9657L10.8946 93.7384C10.0792 94.5254 9.82276 95.672 10.2287 96.7331C10.6347 97.7943 11.5926 98.4744 12.7249 98.5136L13.8217 98.5528L13.1166 99.3932C12.3653 100.262 12.2157 101.426 12.7178 102.445C13.2163 103.463 14.2312 104.054 15.3636 103.994L16.4782 103.933L15.8336 104.841C15.1713 105.764 15.125 106.939 15.7161 107.911C16.3072 108.883 17.372 109.385 18.4972 109.218L19.5513 109.065L19.042 110.001C18.4509 111.002 18.5115 112.177 19.1845 113.092C19.8575 114.007 20.9614 114.41 22.0688 114.15L23.1727 113.886L22.6778 114.901C22.1828 115.93 22.3466 117.098 23.0944 117.949C23.8458 118.8 24.9781 119.11 26.0571 118.754L27.1183 118.401L26.7372 119.445C26.3313 120.524 26.5912 121.67 27.4103 122.457C28.2293 123.244 29.3866 123.451 30.4299 123.006L31.0567 122.739L31.1849 123.405C31.1849 123.405 31.4982 125.16 32.8336 125.993C33.5956 126.471 34.5678 126.574 35.7251 126.3L35.75 125.89C35.9209 123.568 34.8313 121.67 32.8336 120.802L32.3813 120.606L32.5416 120.139C32.919 119.035 32.8407 117.85 32.3244 116.803C31.808 115.756 30.9142 114.972 29.8068 114.602L29.002 114.331L29.497 113.455C30.1237 112.344 30.2092 111.034 29.732 109.852C29.2548 108.669 28.2827 107.786 27.0613 107.42L26.0535 107.117L26.8939 106.479C28.1509 105.525 28.8489 104.076 28.8168 102.502C28.7812 100.924 28.0156 99.5071 26.7194 98.6133L25.6903 97.9011L26.4239 97.4774C28.4287 96.3201 29.8424 94.447 30.3979 92.2001C30.9534 89.9531 30.5831 87.6385 29.3474 85.68L28.9664 85.0782L29.6537 84.8823C31.8792 84.2485 33.7024 82.7707 34.785 80.7267C35.8675 78.6827 36.0669 76.3467 35.3405 74.1461L35.1161 73.4624L35.8355 73.4446C38.1465 73.3627 40.2653 72.3692 41.8072 70.6457C43.349 68.9222 44.0968 66.7037 43.9188 64.3998L43.8654 63.6911L44.5598 63.8265C46.8316 64.3001 49.1285 63.8407 51.0336 62.5303C52.9387 61.2234 54.1957 59.2471 54.5731 56.9645L54.6871 56.2666L55.3281 56.5621C57.4255 57.5663 59.765 57.666 61.9265 56.8541C64.088 56.0387 65.7794 54.422 66.691 52.2997L66.9581 51.6765L67.5065 52.0718C69.3119 53.5567 71.5588 54.2119 73.8556 53.9377C76.1525 53.6635 78.1822 52.4955 79.571 50.6474L79.9983 50.9679L80.4256 50.6474C81.8144 52.4955 83.8476 53.6635 86.1409 53.9377C88.4377 54.2119 90.6847 53.5567 92.4723 52.086L92.5364 52.0397L93.0634 51.7228L93.302 52.289C94.2171 54.422 95.9086 56.0387 98.0701 56.8541C100.232 57.666 102.571 57.5663 104.654 56.5693L105.288 56.2666L105.42 56.9538C105.797 59.2471 107.054 61.2234 108.959 62.5303C110.865 63.8371 113.161 64.2965 115.426 63.8265L116.117 63.684L116.074 64.3891C115.896 66.7037 116.644 68.9222 118.186 70.6457C119.728 72.3692 121.846 73.3627 124.158 73.4446L124.87 73.4695L124.656 74.1461C123.933 76.3432 124.129 78.6792 125.212 80.7267C126.294 82.7707 128.117 84.2485 130.343 84.8823L131.03 85.0782L130.649 85.68C129.413 87.6385 129.043 89.9531 129.599 92.2001C130.154 94.447 131.568 96.3201 133.573 97.4774L134.306 97.9011L133.277 98.6133C131.981 99.5107 131.215 100.928 131.18 102.502C131.144 104.079 131.846 105.529 133.103 106.479L133.943 107.117L132.935 107.42C131.714 107.783 130.742 108.669 130.265 109.852C129.787 111.034 129.873 112.344 130.5 113.455L130.995 114.331L130.19 114.602C129.082 114.976 128.189 115.756 127.672 116.803C127.156 117.85 127.078 119.035 127.455 120.139L127.615 120.606L127.163 120.802C125.18 121.663 124.054 123.665 124.229 126.022L124.25 126.332V126.321Z" fill="black"/>
<path d="M152.54 81.376C155.325 80.4857 155.67 76.6862 153.092 75.3045C156.251 73.9621 156.735 69.6854 153.954 67.6734L152.95 66.947C156.105 63.7991 155.254 58.4862 151.273 56.4778C153.886 52.867 152.199 47.7571 147.95 46.4075L147.957 46.3968C149.966 42.4228 147.498 37.6476 143.097 36.9817H143.082C144.315 33.1572 141.865 29.2544 138.108 28.5244C141.195 30.0521 142.427 33.6451 140.337 36.4653V36.4724L140.348 36.476C144.824 37.6654 146.408 42.4726 143.339 45.5493L143.328 45.56C147.573 47.2906 148.371 52.2545 144.827 54.9324L144.863 54.9537C148.776 57.1722 148.776 62.1647 144.863 64.3831L144.827 64.4045L144.849 64.4223C148.378 67.093 147.587 72.0392 143.353 73.7662L143.328 73.7769L143.339 73.7876C146.405 76.8642 144.82 81.6679 140.348 82.8609H140.33L140.333 82.8715C141.149 86.1725 139.269 88.8112 137.933 89.6836C133.575 87.5684 132.2 80.7813 134.59 77.3913L134.565 77.3806C130.195 75.9704 127.995 71.8682 129.64 68.1933L129.651 68.172L129.587 68.1613C125.004 67.4313 121.97 63.7422 122.785 59.8857L122.796 59.8287H122.678C118.035 59.8287 114.239 56.7164 114.146 52.8172V52.7175C109.524 53.5151 104.98 51.0794 103.905 47.2265L103.852 47.2443C99.5642 48.8538 94.529 47.3262 92.4637 43.7866L92.4388 43.7403L92.3747 43.7795C88.6464 46.1618 83.337 45.6419 80.3601 42.6044L80.3102 42.551L80.2603 42.6008C77.2834 45.6419 71.974 46.1618 68.2457 43.7759L68.1816 43.7368L68.1567 43.7831C66.0914 47.3226 61.0562 48.8538 56.7688 47.2407L56.7154 47.2194C55.6364 51.0759 52.1645 53.8677 47.5424 53.07L47.5353 53.3513C47.4462 57.1473 43.6004 60.1848 38.8893 60.1812L38.957 60.5088C39.7404 64.23 36.71 67.7767 32.1164 68.5103L32.0309 68.5245L32.1805 68.8628C33.758 72.3917 31.5822 76.6541 27.2593 78.0465L27.0883 78.1034L27.3056 78.4132C29.5952 81.6644 28.648 85.7915 24.7132 87.7678L24.4782 87.8854L24.5138 87.921C27.5584 90.9371 27.4658 95.3527 23.8514 97.9308L23.9333 97.9878C27.3803 100.445 28.8617 104.686 25.9025 107.62C25.9025 107.62 30.2291 109.212 29.1181 114.208C29.1181 114.208 33.2986 114.258 33.3627 120.19C34.2352 117.623 32.8606 114.838 30.2896 113.973L30.0973 113.909L30.2754 113.595C31.7567 110.967 30.4143 107.649 27.5263 106.787C30.4534 104.568 30.3537 100.139 27.3305 98.0519L26.9958 97.8204C31.4078 95.2814 32.8179 89.5804 30.1045 85.2752C34.9972 83.8793 37.7462 78.691 36.1545 73.8588H36.1616C41.2431 73.6808 45.1494 69.3079 44.7577 64.2371V64.23H44.7649C49.7395 65.2662 54.5788 61.9474 55.405 56.9336V56.9265L55.4192 56.9336C60.0021 59.1272 65.4896 57.0618 67.4908 52.3899V52.3792H67.4979C71.4256 55.609 77.2549 54.911 80.3138 50.848C83.3726 54.911 89.1983 55.609 93.1296 52.3792L93.1367 52.3899C95.138 57.0583 100.625 59.1236 105.208 56.9336L105.219 56.9265V56.9336C106.045 61.9474 110.884 65.2662 115.859 64.23H115.866V64.2371C115.475 69.3044 119.384 73.6772 124.462 73.8552H124.469C122.878 78.6874 125.627 83.8757 130.519 85.2716C127.806 89.5768 129.216 95.2779 133.628 97.8168L133.293 98.0483C132.838 98.3652 132.457 98.7356 132.133 99.1451C131.869 99.4762 131.652 99.8323 131.477 100.206C131.477 100.206 131.477 100.21 131.477 100.213C131.306 100.584 131.178 100.965 131.096 101.36C131.096 101.374 131.089 101.388 131.089 101.403C131.036 101.659 131.004 101.915 130.99 102.175C130.904 103.696 131.449 105.249 132.649 106.384C132.791 106.523 132.945 106.655 133.108 106.78C132.93 106.833 132.756 106.897 132.588 106.968C131.673 107.36 130.95 108.019 130.459 108.813C130.448 108.834 130.434 108.852 130.423 108.874C130.363 108.977 130.306 109.08 130.252 109.187C130.242 109.205 130.235 109.226 130.228 109.244C130.078 109.557 129.96 109.885 129.882 110.223C129.868 110.284 129.854 110.341 129.843 110.401C129.829 110.483 129.814 110.565 129.804 110.65C129.793 110.725 129.786 110.8 129.779 110.878C129.772 110.953 129.765 111.028 129.761 111.103C129.757 111.206 129.761 111.309 129.761 111.413C129.761 111.462 129.761 111.516 129.761 111.566C129.768 111.719 129.786 111.868 129.811 112.021C129.818 112.075 129.832 112.128 129.843 112.178C129.864 112.285 129.889 112.392 129.918 112.499C129.932 112.556 129.95 112.613 129.968 112.666C130 112.773 130.039 112.883 130.082 112.99C130.099 113.04 130.117 113.09 130.138 113.136C130.206 113.289 130.277 113.442 130.363 113.592L130.541 113.905L130.349 113.969C127.781 114.835 126.403 117.623 127.275 120.187C124.993 121.18 123.59 123.505 123.772 125.987L124.067 126.628C124.947 127.07 126.143 126.75 126.236 126.735C126.278 126.728 126.318 126.721 126.36 126.714C126.453 126.696 126.542 126.678 126.627 126.653C126.659 126.646 126.691 126.639 126.724 126.628C126.837 126.596 126.948 126.557 127.055 126.518C127.076 126.511 127.097 126.5 127.115 126.493C127.201 126.458 127.283 126.422 127.365 126.383C127.397 126.368 127.425 126.351 127.457 126.333C127.528 126.294 127.596 126.255 127.664 126.215C127.689 126.201 127.717 126.183 127.742 126.169C127.92 126.052 128.084 125.923 128.233 125.792C128.251 125.774 128.269 125.756 128.29 125.738C128.347 125.685 128.401 125.631 128.454 125.574C128.472 125.557 128.49 125.539 128.504 125.521C128.565 125.453 128.625 125.386 128.682 125.318C128.682 125.314 128.689 125.311 128.693 125.307C128.753 125.229 128.814 125.154 128.867 125.076C128.874 125.069 128.878 125.058 128.885 125.051C128.931 124.983 128.978 124.916 129.02 124.848C129.027 124.837 129.035 124.823 129.042 124.812C129.088 124.741 129.131 124.666 129.17 124.599C129.54 123.933 129.668 123.377 129.668 123.377L129.686 123.384C132.375 124.538 135.127 121.9 134.098 119.165L134.091 119.147H134.105C136.883 120.069 139.404 117.206 138.14 114.568L138.133 114.553H138.14C140.985 115.23 143.25 112.157 141.761 109.639V109.632C144.656 110.056 146.643 106.794 144.934 104.415H144.941C147.861 104.579 149.542 101.157 147.63 98.9421H147.626V98.9385C150.55 98.8353 151.914 95.2743 149.809 93.2446C152.708 92.8778 153.744 89.2065 151.461 87.3761C154.314 86.7423 155.008 82.9926 152.569 81.3831L152.54 81.376Z" fill="black"/>
<path opacity="0.2" d="M42.7226 21.2128C42.1137 19.3113 43.0787 16.9504 45.023 16.2097C46.1518 15.7539 47.4551 16.0673 48.502 16.4768L48.21 16.6441C48.4379 12.695 51.9027 10.7686 54.958 13.6529L54.6447 13.7562C55.0292 12.2927 56.1687 10.6902 57.8246 10.4552C59.4163 10.1596 61.1968 10.8327 61.9909 12.2428C62.0051 12.2713 61.9802 12.3069 61.9482 12.2962C61.2075 12.1039 60.5558 11.9757 59.9255 11.933C58.0881 11.8511 56.1225 12.3176 55.0613 13.9699C54.9936 14.0767 54.8619 14.1194 54.7479 14.0731C52.6007 13.3965 49.435 14.5432 48.6694 16.7723C48.6267 16.8934 48.4985 16.9611 48.3774 16.9397C47.6973 16.8649 47.0029 16.986 46.4189 17.1961C45.2295 17.602 44.2788 18.1896 43.652 19.3184C43.3244 19.8703 43.1001 20.5149 42.8757 21.2164C42.8579 21.2876 42.7404 21.2912 42.7226 21.2164V21.2128Z" fill="white"/>
<path opacity="0.2" d="M18.8557 89.9711C17.2711 89.786 16.5696 87.3076 18.0082 86.4244L18.0296 86.6096C16.4022 85.7585 16.2064 83.7502 17.9513 82.8991L17.937 83.0843C16.4414 82.2866 16.9862 79.5696 18.6884 79.5625C17.9762 80.6059 17.7803 81.7062 18.14 82.9133C18.1613 82.9739 18.1685 83.0487 18.1257 83.0985C17.7768 83.5508 17.8337 84.238 17.7768 84.7579C17.7483 85.3099 17.7839 85.9437 18.1934 86.3995C18.2254 86.4387 18.2397 86.4885 18.229 86.5348C17.88 87.742 17.9762 88.9634 18.8949 89.8928C18.9234 89.9213 18.8949 89.9783 18.8557 89.9711Z" fill="white"/>
<path opacity="0.2" d="M120.244 54.5342C118.951 55.2464 117.27 55.3141 115.964 54.5128C114.586 53.7472 113.991 51.7709 114.831 50.4427L114.824 50.5032C114.824 50.4819 114.824 50.4641 114.824 50.4427L114.991 50.5923L115.066 50.5709C114.486 51.0018 113.799 51.3579 113.033 51.511C111.488 51.8315 109.746 51.0837 108.938 49.702C108.525 49.0112 108.4 48.1601 108.614 47.4373C108.639 47.3482 108.735 47.2984 108.824 47.3233C108.884 47.3411 108.931 47.3945 108.941 47.4515C109.077 48.1245 109.347 48.6907 109.743 49.1358C110.928 50.4106 113.257 51.0053 114.902 50.2967C115.073 50.2041 115.18 50.3893 115.145 50.5424C114.821 53.6689 117.687 54.317 120.194 54.3134C120.308 54.3134 120.351 54.4808 120.247 54.5342H120.244Z" fill="white"/>
<path opacity="0.15" d="M142.47 69.4564C143.72 70.6422 143.321 72.9711 141.712 73.6227L141.747 73.4874C142.285 73.9824 142.883 74.8228 142.872 75.6703C142.915 76.5178 142.566 77.4685 141.815 77.9137C141.726 77.9671 141.615 77.8567 141.672 77.7712C142.377 76.4893 142.235 74.8762 141.583 73.6014C141.551 73.5515 141.566 73.4874 141.612 73.4554C142.491 72.8073 142.595 71.6286 142.52 70.6173C142.491 70.2683 142.42 69.9158 142.349 69.5312C142.331 69.4635 142.424 69.4101 142.474 69.46L142.47 69.4564Z" fill="white"/>
</svg>
