<svg width="100" height="100" viewBox="0 0 100 100" fill="none" xmlns="http://www.w3.org/2000/svg">
<g filter="url(#filter0_d_1944_14070)">
<circle cx="50" cy="50" r="39.5" fill="white" stroke="#00E2CC"/>
<mask id="mask0_1944_14070" style="mask-type:alpha" maskUnits="userSpaceOnUse" x="10" y="10" width="80" height="80">
<circle cx="49.9991" cy="50" r="39.0244" fill="white"/>
</mask>
<g mask="url(#mask0_1944_14070)">
<path d="M50.0005 20.2959H50.0195H50.0384C66.3807 20.2959 79.6287 33.5438 79.6287 49.8862C79.6287 59.5403 75.0021 68.5324 67.8485 73.9344C69.4185 75.1526 71.518 75.7238 75.3274 75.9545C82.1859 76.3745 84.1417 74.2636 86.3699 75.0239C88.5981 75.7843 88.6018 77.8309 88.6018 78.3756C88.6018 81.1296 85.4204 85.0601 76.625 86.1042C72.1271 86.6376 68.8851 85.8356 68.8851 85.8356C68.8851 85.8356 68.4841 91.1015 75.5317 97.6385C78.2706 100.181 79.2768 100.661 79.8027 102.322C80.3361 104.013 79.8443 107.236 75.301 107.697C71.0149 108.136 67.0125 106.056 62.8361 100.309C61.1338 97.9638 60.6912 95.6411 60.4529 95.0434C60.6874 97.1278 60.8955 99.1479 61.618 101.792C62.159 103.778 62.6545 105.291 64.285 108.261C65.0832 109.717 65.3177 112.335 63.0139 113.898C61.27 115.082 58.0507 115.543 55.2815 113.156C52.1341 110.444 51.6348 107.122 50.6663 101.834C50.2994 99.8401 50.0081 96.2577 50.0081 96.2577C50.0081 96.2577 49.7168 99.8401 49.3537 101.834C48.3814 107.126 47.8859 110.448 44.7384 113.156C41.9693 115.543 38.75 115.078 37.0061 113.898C34.7023 112.335 34.933 109.717 35.735 108.261C37.3655 105.288 37.861 103.778 38.402 101.792C39.1245 99.1479 39.3326 97.124 39.5671 95.0434C39.3288 95.6373 38.8862 97.9638 37.1839 100.309C33.0075 106.056 29.0051 108.132 24.719 107.697C20.1719 107.232 19.6839 104.009 20.2173 102.322C20.7431 100.661 21.7456 100.181 24.4883 97.6385C31.5359 91.1015 31.1349 85.8356 31.1349 85.8356C31.1349 85.8356 27.8929 86.6376 23.395 86.1042C14.5958 85.0601 11.4182 81.1296 11.4182 78.3756C11.4182 77.8309 11.4219 75.7843 13.6501 75.0239C15.8783 74.2636 17.834 76.3745 24.6926 75.9545C28.502 75.72 30.6015 75.1526 32.1715 73.9344C25.0179 68.5324 20.3913 59.5403 20.3913 49.8862C20.3762 33.5438 33.6241 20.2959 49.9665 20.2959H49.9854H50.0043H50.0005Z" fill="#A9C0FF"/>
<path d="M59.7002 115.154C58.2021 115.154 56.5641 114.647 55.0888 113.376C51.9905 110.705 51.3928 107.444 50.4925 102.504L50.379 101.887C50.239 101.119 50.1066 100.113 50.0007 99.1635C49.8948 100.113 49.7624 101.119 49.6224 101.887L49.5089 102.504C48.6086 107.444 48.0108 110.705 44.9126 113.376C42.1283 115.774 38.7729 115.453 36.836 114.136C34.343 112.445 34.657 109.616 35.4741 108.129C37.1273 105.118 37.5926 103.639 38.1146 101.721C38.5232 100.223 38.7653 98.9403 38.9393 97.7222C38.5875 98.562 38.0995 99.5153 37.3959 100.476C33.333 106.067 29.289 108.451 24.6738 107.978C22.1732 107.724 20.9778 106.65 20.418 105.799C19.616 104.577 19.6387 103.155 19.93 102.235C20.3461 100.915 21.0762 100.276 22.5288 99.0008C23.0282 98.562 23.5956 98.0665 24.2804 97.4309C27.859 94.1095 29.4517 91.1399 30.1553 89.2295C30.6925 87.773 30.8097 86.6987 30.8324 86.188C29.8716 86.3809 27.0419 86.8273 23.3422 86.3885C13.6919 85.2384 11.1157 80.8086 11.1157 78.3724C11.1157 76.0648 12.4359 75.1304 13.5405 74.7521C14.6035 74.3889 15.5833 74.6273 16.9376 74.9526C18.5984 75.3536 20.8681 75.9021 24.6586 75.6676C28.1655 75.4519 30.1893 74.9564 31.6836 73.9236C24.4203 68.287 20.0926 59.329 20.0926 49.8791C20.0926 33.4119 33.4956 20.0127 49.9666 20.0127H50.0196C66.5095 20.0127 79.9087 33.4119 79.9087 49.8867C79.9087 59.3365 75.5848 68.2946 68.3178 73.9312C69.812 74.9639 71.8359 75.4595 75.3427 75.6751C79.1295 75.9059 81.403 75.3574 83.0637 74.9602C84.418 74.6348 85.3978 74.3965 86.4608 74.7597C87.5655 75.138 88.8857 76.0723 88.8857 78.3799C88.8857 80.8162 86.3095 85.246 76.6554 86.3885C72.9594 86.8273 70.1298 86.3809 69.1651 86.188C69.1878 86.6987 69.3051 87.773 69.8423 89.2295C70.5459 91.1361 72.1385 94.1095 75.7172 97.4309C76.4019 98.0665 76.9694 98.562 77.4687 99.0008C78.9214 100.276 79.6515 100.919 80.0676 102.235C80.3589 103.158 80.3816 104.577 79.5796 105.799C79.0197 106.654 77.8243 107.724 75.3238 107.978C70.7048 108.451 66.6646 106.064 62.6017 100.476C61.9019 99.5115 61.4101 98.5582 61.0583 97.7222C61.2361 98.9441 61.4744 100.227 61.8829 101.721C62.405 103.639 62.8741 105.118 64.5235 108.129C65.3406 109.62 65.6546 112.445 63.1616 114.136C62.2499 114.753 61.0242 115.154 59.6964 115.154H59.7002ZM39.5522 94.7602C39.5749 94.7602 39.5975 94.7602 39.6202 94.7677C39.7564 94.8018 39.8472 94.9342 39.8321 95.0741L39.798 95.3616C39.5786 97.3099 39.3517 99.3224 38.6594 101.868C38.126 103.824 37.6493 105.337 35.9659 108.401C35.2471 109.707 34.971 112.188 37.15 113.667C38.9166 114.867 41.9808 115.15 44.5381 112.949C47.485 110.41 48.0373 107.399 48.949 102.406L49.0625 101.789C49.4219 99.8331 49.7132 96.2771 49.7132 96.2431C49.7245 96.0955 49.8494 95.982 49.9969 95.982C50.1444 95.982 50.2693 96.0955 50.2806 96.2431C50.2806 96.2771 50.5757 99.8331 50.9351 101.789L51.0486 102.406C51.9603 107.395 52.5088 110.41 55.4595 112.949C58.0168 115.154 61.0847 114.867 62.8476 113.667C65.0266 112.188 64.7467 109.71 64.0317 108.401C62.3483 105.337 61.8716 103.824 61.3382 101.868C60.6459 99.3224 60.4189 97.3099 60.1995 95.3616L60.1655 95.0741C60.1504 94.9342 60.2411 94.8018 60.3773 94.7677C60.5173 94.7337 60.6573 94.8055 60.7102 94.938C60.7632 95.0704 60.8199 95.2557 60.8956 95.513C61.1869 96.489 61.7279 98.3048 63.0632 100.143C66.9937 105.553 70.8713 107.864 75.2708 107.414C77.0753 107.229 78.4031 106.563 79.1105 105.485C79.8066 104.429 79.7839 103.2 79.5304 102.402C79.1597 101.233 78.5582 100.703 77.098 99.4208C76.5949 98.9781 76.0274 98.4788 75.3351 97.8395C68.2686 91.2836 68.5826 86.0291 68.6015 85.8097C68.6091 85.7264 68.6507 85.6508 68.7188 85.6016C68.7868 85.5524 68.8739 85.5373 68.9533 85.5562C68.9836 85.5638 72.2066 86.3393 76.5911 85.821C82.239 85.1514 88.3183 82.5336 88.3183 78.3762C88.3183 76.7911 87.6298 75.7546 86.2792 75.2931C85.3713 74.9829 84.5088 75.1909 83.1999 75.5087C81.5051 75.9172 79.1862 76.4771 75.3124 76.2388C71.4387 76.0005 69.2975 75.4179 67.6747 74.1582C67.6066 74.1052 67.565 74.022 67.565 73.9312C67.565 73.8442 67.6066 73.761 67.6784 73.708C74.9833 68.1924 79.3451 59.2874 79.3451 49.8867C79.3413 33.7259 66.1955 20.5801 50.0385 20.5801H49.9855C33.8058 20.5801 20.6601 33.7259 20.6601 49.8867C20.6601 59.2874 25.0218 68.1924 32.3267 73.708C32.3986 73.761 32.4402 73.8442 32.4402 73.9312C32.4402 74.0182 32.3986 74.1014 32.3305 74.1582C30.7076 75.4179 28.5664 76.0005 24.6927 76.2388C20.8189 76.4771 18.5 75.9172 16.8052 75.5087C15.4963 75.1947 14.63 74.9829 13.7259 75.2931C12.3716 75.7546 11.6869 76.7911 11.6869 78.3762C11.6869 82.5374 17.7661 85.1514 23.4141 85.821C27.7985 86.3431 31.0216 85.5638 31.0518 85.5562C31.1313 85.5373 31.2183 85.5562 31.2864 85.6016C31.3545 85.647 31.3961 85.7264 31.4037 85.8097C31.4188 86.0291 31.7366 91.2874 24.67 97.8395C23.9777 98.4788 23.4103 98.9781 22.9071 99.4208C21.4469 100.703 20.8454 101.233 20.4747 102.402C20.2212 103.2 20.2023 104.429 20.8946 105.485C21.602 106.563 22.9298 107.229 24.7343 107.414C29.1339 107.864 33.0076 105.553 36.9419 100.143C38.2773 98.3048 38.8183 96.489 39.1095 95.513C39.1852 95.2557 39.2419 95.0704 39.2949 94.938C39.3403 94.8282 39.4462 94.7602 39.5597 94.7602H39.5522Z" fill="black"/>
<path d="M40.3241 47.8927C41.1347 47.8927 41.7919 46.9544 41.7919 45.7969C41.7919 44.6395 41.1347 43.7012 40.3241 43.7012C39.5135 43.7012 38.8563 44.6395 38.8563 45.7969C38.8563 46.9544 39.5135 47.8927 40.3241 47.8927Z" fill="black"/>
<path d="M59.6764 47.8927C60.4871 47.8927 61.1442 46.9544 61.1442 45.7969C61.1442 44.6395 60.4871 43.7012 59.6764 43.7012C58.8658 43.7012 58.2086 44.6395 58.2086 45.7969C58.2086 46.9544 58.8658 47.8927 59.6764 47.8927Z" fill="black"/>
<path d="M59.6321 52.4323C60.1693 52.5799 60.54 53.1435 60.4984 53.7602C60.0861 59.9869 55.9589 62.7371 49.9969 62.7371C44.035 62.7371 39.9343 60.0058 39.4992 53.8207C39.4538 53.1814 39.8548 52.6026 40.4147 52.4777C41.5799 52.2205 43.5546 51.9746 44.8521 51.9746C46.4788 51.9746 49.0588 52.4437 49.8381 52.6404C49.9932 52.6782 50.1483 52.682 50.3034 52.648C51.1583 52.4588 54.1695 51.9746 55.9059 51.9746C57.1921 51.9746 58.6977 52.1751 59.6321 52.4286V52.4323Z" fill="#EB85A3"/>
<path d="M50.0011 62.8812C43.5511 62.8812 39.7719 59.6657 39.3634 53.8324C39.3142 53.1249 39.7568 52.4818 40.3886 52.3419C41.5045 52.0922 43.483 51.835 44.8562 51.835C46.5169 51.835 49.1196 52.3154 49.8762 52.5045C50.0086 52.5386 50.141 52.5386 50.2734 52.5121C51.1208 52.3267 54.1358 51.835 55.9062 51.835C57.1546 51.835 58.664 52.0203 59.6703 52.2965C60.2793 52.4629 60.6879 53.0833 60.6425 53.7718C60.2529 59.6468 56.4737 62.8812 50.0011 62.8812ZM44.8562 52.1187C43.5208 52.1187 41.531 52.3759 40.4491 52.618C39.9497 52.7277 39.6055 53.2422 39.6433 53.8097C39.927 57.8158 41.9509 62.5937 50.0011 62.5937C58.0512 62.5937 60.094 57.7856 60.3588 53.7491C60.3966 53.2044 60.0675 52.6937 59.5946 52.5651C58.6262 52.3003 57.1092 52.1149 55.9062 52.1149C54.238 52.1149 51.2456 52.584 50.334 52.7845C50.1599 52.8223 49.9784 52.8223 49.8043 52.7769C49.0591 52.5878 46.4905 52.1149 44.8562 52.1149V52.1187Z" fill="black"/>
<path d="M58.0468 55.9092C58.2322 55.9092 58.3154 56.1021 58.1716 56.2042C57.2221 56.8625 54.5929 58.3681 50.4128 58.3681C46.7168 58.3681 43.6489 57.0289 42.4383 56.4161C42.2681 56.3291 42.34 56.1097 42.5367 56.1097L58.0468 55.9092Z" fill="#AD475F"/>
<path d="M50.0017 29.8041C48.403 31.9276 45.3582 32.2924 43.3036 30.6044L43.3017 30.61C42.2557 33.0499 39.3878 34.1293 36.9925 32.9848L36.9869 32.981V32.9848C36.5551 35.6052 34.0259 37.3398 31.4259 36.7982H31.4222V36.8019C31.6269 39.4503 29.5834 41.7357 26.9294 41.8288H26.9257C27.7576 44.3543 26.3208 47.066 23.7637 47.7956C25.1818 50.0457 24.4448 53.0253 22.1389 54.3523L22.3138 54.4733C23.8939 55.5639 23.9442 57.8791 22.4162 59.0386C23.9256 59.489 24.6272 61.2254 23.853 62.5971L23.7599 62.7608L23.8604 62.7943C25.2023 63.2466 25.9226 64.7038 25.4666 66.0438C26.6596 66.5631 27.2533 67.6816 27.1583 68.977L27.1323 69.392C24.6179 70.1253 24.2196 67.704 24.2196 67.704L24.2103 67.7077C22.8052 68.3107 21.3665 66.9316 21.9044 65.5023L21.9081 65.493H21.9007C20.449 65.975 19.1313 64.4786 19.792 63.0996L19.7957 63.0921H19.792C18.305 63.4457 17.1213 61.8396 17.8993 60.5238V60.52C16.3862 60.7415 15.3477 59.0367 16.241 57.7935H16.2373C14.7112 57.8791 13.8327 56.0887 14.8321 54.933H14.834V54.9311C13.306 54.8771 12.5932 53.016 13.6931 51.9552C12.1782 51.7635 11.6366 49.8447 12.8296 48.888C11.3388 48.5568 10.9759 46.597 12.2508 45.7558C10.7954 45.2905 10.6148 43.3047 11.9623 42.5826C10.3115 41.8828 10.0584 39.6457 11.5119 38.5942L12.0367 38.2145C10.3878 36.5693 10.8326 33.7925 12.9133 32.7428C11.5473 30.8556 12.4294 28.1849 14.6497 27.4796L14.646 27.474C13.5964 25.397 14.8861 22.9012 17.1865 22.5532H17.1939C16.4774 20.3329 18.1375 18.0604 20.4713 18.0679C20.0991 15.7638 22.0831 13.765 24.389 14.1223C24.3611 11.7866 26.6186 10.1023 28.8501 10.7927V10.789C29.1609 8.47565 31.6381 7.13565 33.7448 8.14251H33.7486V8.14437C34.3907 5.89614 37.0353 4.92464 38.9802 6.2237V6.21998C39.9349 4.08713 42.6894 3.50274 44.4295 5.06236L44.4333 5.06608L44.4388 5.05677C45.6821 3.08213 48.4886 2.88671 49.9943 4.67152L50.0017 4.68083L50.0092 4.67152C51.513 2.88671 54.3195 3.08026 55.5646 5.05677L55.5702 5.06608L55.5739 5.06236C57.3141 3.50274 60.0685 4.08713 61.0233 6.21998V6.2237H61.0251C62.9682 4.92464 65.6147 5.89614 66.2568 8.14437L66.2605 8.14251C68.3673 7.13565 70.8444 8.47565 71.1552 10.789V10.7927C73.3867 10.1023 75.6442 11.7866 75.6163 14.1223C77.9241 13.765 79.9081 15.7638 79.534 18.0679C81.866 18.0604 83.528 20.3329 82.8114 22.5532H82.8189C85.1211 22.9012 86.409 25.397 85.3593 27.474L85.3556 27.4796C87.5759 28.1849 88.4562 30.8556 87.092 32.7428C89.1727 33.7925 89.6157 36.5674 87.9686 38.2145L88.4934 38.5942C89.947 39.6457 89.6938 41.8809 88.043 42.5826C89.3886 43.3047 89.2081 45.2886 87.7546 45.7558C89.0294 46.597 88.6665 48.5586 87.1757 48.888C88.3687 49.8428 87.8271 51.7616 86.3122 51.9552C87.4121 53.016 86.6974 54.8771 85.1713 54.9311L85.1732 54.933C86.1726 56.0887 85.2923 57.8773 83.768 57.7935H83.7643C84.6558 59.0367 83.6191 60.7415 82.1061 60.52L82.1079 60.5238C82.8859 61.8396 81.704 63.4457 80.2152 63.094H80.2114L80.2152 63.0996C80.8759 64.4786 79.5582 65.975 78.1065 65.4948H78.0991L78.1028 65.5023C78.6425 66.9316 77.202 68.3088 75.7969 67.7077L75.7875 67.704C75.7875 67.704 75.3781 70.142 72.8637 69.4088L72.8395 69.0477C72.7428 67.7505 73.3476 66.5612 74.5406 66.042C74.0846 64.7001 74.803 63.2447 76.1468 62.7925L76.2472 62.759L76.1542 62.5952C75.38 61.2235 76.0816 59.4871 77.591 59.0367C76.0611 57.8773 76.1133 55.562 77.6933 54.4714L77.8683 54.3504C75.5624 53.0234 74.8253 50.0438 76.2435 47.7937C73.6863 47.0641 72.2496 44.3525 73.0815 41.8269H73.0778C70.4219 41.7339 68.3803 39.4484 68.585 36.8001V36.7963H68.5813C65.9813 37.3379 63.452 35.6034 63.0203 32.9829V32.9792L63.0128 32.9829C60.6176 34.1293 57.7496 33.0499 56.7036 30.6081V30.6025H56.6999C54.6471 32.2906 51.6004 31.9258 50.0017 29.8022" fill="#171515"/>
<path d="M73.7477 69.8289C73.4481 69.8289 73.1261 69.7786 72.7855 69.68L72.5994 69.626L72.5603 69.0714C72.458 67.6867 73.0833 66.4919 74.2055 65.8982C74.0455 65.2486 74.1181 64.5712 74.4177 63.9645C74.7211 63.3522 75.2217 62.8776 75.8452 62.6133C75.4953 61.9117 75.4618 61.1021 75.7577 60.3688C76.0108 59.7434 76.4761 59.2428 77.0661 58.9487C76.491 58.3588 76.1783 57.5697 76.1969 56.7266C76.2174 55.7904 76.6418 54.9436 77.3676 54.3704C76.3775 53.6836 75.6814 52.6749 75.3874 51.4912C75.0877 50.2834 75.244 49.042 75.8266 47.9588C74.669 47.5401 73.7254 46.7193 73.1428 45.6213C72.5603 44.5232 72.4133 43.28 72.7148 42.087C71.4883 41.9586 70.3754 41.3891 69.549 40.4641C68.7208 39.5373 68.2797 38.3666 68.289 37.1364C67.0681 37.3039 65.8528 37.0154 64.8274 36.3138C63.8019 35.6103 63.0947 34.5792 62.8118 33.3807C61.6634 33.8348 60.4146 33.8459 59.2514 33.4086C58.0864 32.9712 57.154 32.1374 56.5938 31.0412C55.5906 31.754 54.3809 32.063 53.147 31.916C51.913 31.7689 50.8075 31.1808 50.0017 30.2521C49.1958 31.1808 48.0922 31.7689 46.8564 31.916C45.6225 32.063 44.4109 31.754 43.4096 31.0412C42.8475 32.1393 41.9151 32.9712 40.7519 33.4086C39.5868 33.8459 38.3362 33.8348 37.1916 33.3807C36.9068 34.5811 36.2015 35.6103 35.176 36.3138C34.1505 37.0173 32.9333 37.3039 31.7143 37.1383C31.7236 38.3722 31.2825 39.541 30.4562 40.466C29.628 41.3928 28.5132 41.9623 27.2904 42.0907C27.5938 43.2837 27.4449 44.5251 26.8624 45.6231C26.2798 46.7212 25.3362 47.5419 24.1786 47.9607C24.7612 49.0457 24.9175 50.2852 24.6178 51.4931C24.3238 52.6768 23.6277 53.6855 22.6376 54.3722C23.3635 54.9455 23.7878 55.7941 23.8083 56.7284C23.8269 57.5734 23.5142 58.3606 22.9391 58.9506C23.531 59.2465 23.9962 59.7453 24.2475 60.3706C24.5434 61.1039 24.5099 61.9135 24.16 62.6152C24.7816 62.8794 25.2841 63.354 25.5875 63.9663C25.8871 64.5731 25.9597 65.2505 25.7997 65.8982C26.9294 66.49 27.5361 67.6327 27.4356 69.0025L27.3965 69.6092L27.2085 69.6632C26.358 69.9108 25.634 69.8512 25.0533 69.4864C24.4317 69.0956 24.1451 68.4516 24.0223 68.0682C23.3467 68.245 22.6488 68.0645 22.1333 67.5732C21.6549 67.1153 21.4409 66.4881 21.5265 65.861C20.8937 65.9205 20.2796 65.6786 19.8441 65.1835C19.4067 64.6884 19.2467 64.0445 19.3862 63.4266C18.7572 63.4303 18.1616 63.1363 17.7708 62.604C17.3799 62.0717 17.2757 61.4185 17.4656 60.8154C16.8365 60.7615 16.2726 60.4172 15.9301 59.8551C15.5877 59.2931 15.5412 58.6342 15.7831 58.0498C15.1615 57.9419 14.6292 57.5492 14.3389 56.9555C14.0485 56.3637 14.0616 55.7029 14.3556 55.1446C13.747 54.9808 13.2538 54.5398 13.0193 53.9256C12.783 53.3096 12.8556 52.6544 13.1999 52.124C12.608 51.9044 12.1576 51.4224 11.979 50.7877C11.8003 50.1531 11.9324 49.5073 12.3233 49.0122C11.7538 48.7386 11.3499 48.2175 11.2308 47.5699C11.1117 46.9222 11.3015 46.2894 11.737 45.8316C11.1917 45.5059 10.84 44.9513 10.7786 44.2961C10.719 43.6447 10.9628 43.0362 11.4318 42.6193C10.799 42.2024 10.384 41.5342 10.2965 40.7563C10.1904 39.8183 10.5831 38.9268 11.3499 38.3741L11.6198 38.1786C10.9256 37.356 10.6297 36.2952 10.8009 35.2176C10.974 34.1363 11.5919 33.2169 12.5131 32.653C11.9529 31.7299 11.8264 30.6281 12.1707 29.5877C12.5131 28.5473 13.2706 27.7377 14.2682 27.3283C13.8587 26.327 13.9071 25.2178 14.4096 24.2444C14.9121 23.2692 15.7887 22.588 16.8421 22.3424C16.5946 21.289 16.8142 20.2021 17.4618 19.3162C18.1095 18.4303 19.0792 17.8906 20.1567 17.8068C20.0711 16.7274 20.4527 15.6851 21.225 14.9072C21.9992 14.1274 23.0378 13.7403 24.1172 13.8184C24.1916 12.739 24.7239 11.7637 25.6024 11.1068C26.4827 10.4498 27.5677 10.219 28.6248 10.4535C28.85 9.40198 29.52 8.50678 30.4897 7.98195C31.4556 7.45897 32.5648 7.38825 33.5773 7.77536C33.9588 6.76105 34.7461 5.97752 35.7771 5.59971C36.8082 5.22191 37.9156 5.30938 38.8629 5.83421C39.3803 4.8869 40.2736 4.21876 41.3512 3.98984C42.425 3.76093 43.5119 4.00659 44.3736 4.66171C45.0269 3.78884 46.0021 3.25656 47.0965 3.18026C48.1945 3.10395 49.2367 3.50037 49.9998 4.27273C50.7684 3.49665 51.8088 3.10395 52.9013 3.18026C53.9994 3.25656 54.9764 3.7907 55.626 4.66171C56.4895 4.00473 57.5746 3.76093 58.6484 3.98984C59.7242 4.21876 60.6156 4.88318 61.1368 5.83421C62.0841 5.30752 63.1914 5.22004 64.2225 5.59971C65.2536 5.97752 66.0408 6.76291 66.4223 7.77536C67.4366 7.38825 68.544 7.46083 69.5099 7.98195C70.4759 8.50492 71.144 9.39454 71.3748 10.4535C72.4319 10.219 73.5169 10.4498 74.3972 11.1068C75.2775 11.7637 75.808 12.739 75.8824 13.8184C76.9619 13.7421 78.0022 14.1292 78.7746 14.9072C79.5488 15.6851 79.9285 16.7292 79.8429 17.8068C80.9205 17.8906 81.8901 18.4303 82.5378 19.3162C83.1854 20.2021 83.4032 21.289 83.1575 22.3424C84.2128 22.5899 85.0875 23.2711 85.59 24.2444C86.0925 25.2197 86.1409 26.327 85.7315 27.3283C86.7309 27.7377 87.4865 28.5473 87.8289 29.5877C88.1714 30.6281 88.0448 31.728 87.4865 32.653C88.4078 33.2169 89.0256 34.1363 89.1987 35.2176C89.3718 36.2952 89.074 37.3579 88.3817 38.1786L88.6516 38.3741C89.4165 38.9268 89.811 39.8183 89.7049 40.7563C89.6175 41.5342 89.2025 42.2024 88.5678 42.6193C89.0387 43.038 89.2825 43.6447 89.2229 44.2961C89.1634 44.9531 88.8079 45.5096 88.2663 45.8334C88.7 46.2913 88.8916 46.9222 88.7707 47.5699C88.6516 48.2175 88.2477 48.7405 87.6782 49.0122C88.069 49.5073 88.2012 50.1549 88.0225 50.7896C87.8438 51.4242 87.3934 51.9063 86.8016 52.1259C87.1441 52.6563 87.2166 53.3114 86.9803 53.9274C86.7439 54.5416 86.2526 54.9827 85.644 55.1465C85.938 55.7048 85.9511 56.3655 85.6607 56.9573C85.3704 57.5492 84.8381 57.9419 84.2165 58.0498C84.4585 58.6324 84.4119 59.2912 84.0695 59.8551C83.727 60.4172 83.1631 60.7633 82.5341 60.8154C82.7258 61.4185 82.6215 62.0717 82.2288 62.604C81.8399 63.1325 81.2517 63.4247 80.6227 63.4247H80.6115C80.7511 64.0445 80.5892 64.6866 80.1537 65.1816C79.7163 65.6767 79.1003 65.9186 78.4694 65.8591C78.555 66.4919 78.3391 67.1153 77.8626 67.5713C77.3453 68.0664 76.6436 68.245 75.9717 68.0682C75.8471 68.4554 75.5567 69.1067 74.9277 69.5013C74.5815 69.7191 74.1832 69.827 73.7384 69.8289H73.7477ZM73.128 69.1924C73.731 69.3338 74.2372 69.2798 74.6373 69.0304C75.3446 68.5894 75.512 67.6681 75.5139 67.6588L75.5735 67.3126L75.8973 67.4485C76.4538 67.6867 77.0586 67.5769 77.4867 67.1675C77.9148 66.758 78.0506 66.1587 77.8422 65.6023L77.6375 65.0588L78.1865 65.2282C78.7578 65.418 79.3515 65.2561 79.7442 64.8113C80.1369 64.3665 80.2207 63.756 79.9638 63.2219L79.7163 62.7063L80.2728 62.8217C80.859 62.9613 81.436 62.7492 81.7878 62.2708C82.1395 61.7925 82.1711 61.1784 81.8678 60.6684L81.57 60.1659L82.1451 60.2478C82.7332 60.3334 83.2897 60.071 83.5986 59.5648C83.9076 59.0567 83.8834 58.4425 83.5372 57.9605L83.2078 57.5008L83.7717 57.5175C84.3728 57.551 84.9033 57.2402 85.1657 56.7098C85.4281 56.1775 85.3481 55.569 84.961 55.1204L84.5794 54.6793L85.1601 54.657C85.7519 54.6365 86.2526 54.2792 86.4647 53.7264C86.6769 53.1737 86.5429 52.5725 86.1167 52.1612L85.698 51.7574L86.2768 51.6848C86.8649 51.6103 87.3302 51.2102 87.4902 50.6388C87.6503 50.0693 87.4642 49.4831 87.0007 49.1127L86.5466 48.7479L87.1161 48.6214C87.6949 48.493 88.1211 48.0519 88.2291 47.4675C88.337 46.885 88.0969 46.3192 87.6019 45.9935L87.1105 45.6696L87.6726 45.4947C88.2365 45.3142 88.6199 44.8359 88.6739 44.2459C88.7279 43.6559 88.4375 43.1143 87.9146 42.8352L87.4009 42.5597L87.9369 42.3308C88.6181 42.0423 89.074 41.43 89.1578 40.6949C89.2415 39.9597 88.9326 39.2618 88.3333 38.8263L87.5442 38.2549L87.7768 38.0242C88.4989 37.3039 88.8191 36.3138 88.659 35.3069C88.4971 34.3001 87.8829 33.4588 86.9728 33.001L86.6806 32.854L86.8723 32.5878C87.4697 31.7615 87.6298 30.7323 87.3097 29.7645C86.9896 28.7967 86.2489 28.0634 85.2774 27.7545L84.974 27.6577L85.1098 27.3692C85.5751 26.4461 85.5714 25.4058 85.1024 24.5013C84.6353 23.5968 83.7885 22.99 82.7816 22.8374L82.4559 22.789L82.549 22.4745C82.8635 21.503 82.696 20.4719 82.0948 19.6475C81.4937 18.8267 80.5668 18.3558 79.5507 18.3558H79.2101L79.2622 18.032C79.426 17.0233 79.1059 16.0276 78.3856 15.3017C77.6691 14.5796 76.6808 14.2521 75.674 14.4047L75.3352 14.4903L75.339 14.1292C75.352 13.1056 74.8886 12.1676 74.0678 11.5572C73.2471 10.9449 72.2179 10.768 71.2389 11.0695L70.9411 11.1626L70.8797 10.8369C70.7439 9.8226 70.1483 8.96276 69.2494 8.47701C68.3505 7.99125 67.3045 7.96334 66.3814 8.40442L66.0836 8.54587L65.9887 8.22948C65.7077 7.24494 64.9949 6.47816 64.0345 6.12455C63.0723 5.77094 62.0338 5.89563 61.1814 6.46513L60.9209 6.64008L60.7701 6.34416C60.3514 5.40988 59.5381 4.7529 58.5368 4.53887C57.5355 4.32671 56.5249 4.59657 55.7618 5.2796L55.5162 5.50107L55.3356 5.22563C54.7847 4.3509 53.8877 3.81304 52.8659 3.74231C51.8442 3.67159 50.882 4.07918 50.2231 4.86085L50.1394 4.95949L49.8714 4.96879L49.7858 4.86829C49.1195 4.07732 48.1573 3.66973 47.1355 3.74045C46.1156 3.81118 45.2186 4.34718 44.6733 5.2126L44.4983 5.49177L44.2452 5.28332C43.4784 4.59657 42.4679 4.32671 41.4666 4.53887C40.4653 4.75104 39.652 5.40988 39.2332 6.34416L39.0974 6.64566L38.8201 6.46513C37.9677 5.89563 36.9292 5.7728 35.967 6.12455C35.0048 6.47816 34.2938 7.24494 34.0128 8.22948L33.9216 8.54773L33.6238 8.40442C32.697 7.96148 31.651 7.98753 30.7521 8.47515C29.8532 8.9609 29.2576 9.8226 29.1218 10.835L29.0771 11.1626L28.7607 11.0695C27.7836 10.7662 26.7526 10.9449 25.9318 11.5553C25.111 12.1676 24.6495 13.1056 24.6607 14.1274L24.6644 14.4568L24.3387 14.4065C23.3281 14.2502 22.3361 14.5759 21.614 15.3017C20.8937 16.0276 20.5736 17.0214 20.7374 18.032L20.7895 18.3558H20.4508C19.4328 18.3558 18.5059 18.8267 17.9048 19.6475C17.3018 20.4719 17.1361 21.503 17.4507 22.4745L17.5512 22.7853L17.2292 22.8356C16.213 22.99 15.3662 23.5968 14.8991 24.5013C14.4319 25.4058 14.4264 26.448 14.886 27.3562L15.0331 27.6484L14.7241 27.7545C13.7526 28.0634 13.0119 28.7949 12.6918 29.7645C12.3717 30.7323 12.5317 31.7615 13.1291 32.5878L13.3208 32.854L13.0286 33.001C12.1186 33.4607 11.5044 34.3001 11.3425 35.3069C11.1806 36.3138 11.5025 37.3039 12.2246 38.0242L12.4573 38.2549L11.6682 38.8263C11.0689 39.2599 10.7599 39.9579 10.8437 40.6949C10.9274 41.4319 11.3834 42.0423 12.0646 42.3308L12.6043 42.5597L12.0851 42.8352C11.5621 43.1143 11.2718 43.6559 11.3257 44.2459C11.3797 44.8359 11.7631 45.3142 12.327 45.4966L12.8816 45.6752L12.3977 45.9972C11.9027 46.3229 11.6626 46.8887 11.7705 47.4712C11.8785 48.0537 12.3047 48.4967 12.8835 48.6232L13.453 48.7498L12.9989 49.1146C12.5355 49.4849 12.3493 50.0693 12.5094 50.6407C12.6695 51.2102 13.1347 51.6122 13.7228 51.6867L14.3017 51.7592L13.8829 52.1631C13.4567 52.5744 13.3227 53.1737 13.5349 53.7283C13.747 54.2829 14.2477 54.6384 14.8395 54.6589L15.4127 54.6793L15.0442 55.1186C14.6515 55.5727 14.5734 56.1813 14.8358 56.7135C15.0964 57.2458 15.6268 57.5548 16.2186 57.5231L16.8011 57.4915L16.4643 57.9661C16.1181 58.4481 16.0939 59.0623 16.4029 59.5704C16.7118 60.0784 17.2683 60.3409 17.8564 60.2534L18.4073 60.1734L18.1411 60.6628C17.8322 61.1858 17.8638 61.8 18.2156 62.2783C18.5673 62.7566 19.1443 62.9669 19.7231 62.831L20.3 62.6933L20.0414 63.2237C19.7827 63.7616 19.8683 64.3721 20.2591 64.8169C20.6518 65.2617 21.2436 65.4236 21.8076 65.2375L22.3622 65.0532L22.163 65.5985C21.9509 66.1625 22.0867 66.7617 22.5148 67.173C22.9428 67.5844 23.5477 67.6923 24.093 67.4597L24.4206 67.3201L24.4876 67.6681C24.4876 67.6681 24.6513 68.5856 25.3493 69.0211C25.7475 69.2705 26.2556 69.3245 26.8605 69.1812L26.8735 68.9672C26.9629 67.7537 26.3934 66.7617 25.3493 66.3076L25.1129 66.2053L25.1967 65.9615C25.3939 65.3845 25.353 64.7647 25.0831 64.2176C24.8133 63.6704 24.3461 63.261 23.7673 63.0674L23.3467 62.926L23.6054 62.4681C23.933 61.8875 23.9776 61.2026 23.7282 60.5847C23.4788 59.9668 22.9708 59.5052 22.3324 59.3135L21.8057 59.1553L22.2449 58.8222C22.9019 58.3234 23.2667 57.5659 23.2499 56.7433C23.2313 55.9188 22.8312 55.1781 22.1537 54.711L21.6159 54.3388L21.9992 54.1173C23.0471 53.5124 23.7859 52.5335 24.0763 51.3591C24.3666 50.1847 24.173 48.975 23.5272 47.9514L23.3281 47.6368L23.6873 47.5345C24.8505 47.2032 25.8034 46.4308 26.3692 45.3626C26.9349 44.2943 27.0392 43.0734 26.6595 41.9232L26.5422 41.5659L26.9182 41.5566C28.1261 41.5138 29.2334 40.9945 30.0393 40.0937C30.8452 39.1929 31.236 38.0335 31.1429 36.8293L31.115 36.459L31.4779 36.5297C32.6653 36.7772 33.8658 36.5371 34.8615 35.8522C35.8572 35.1692 36.5141 34.1363 36.7114 32.9433L36.771 32.5785L37.106 32.733C38.2022 33.2578 39.4249 33.3099 40.5546 32.8856C41.6843 32.4594 42.5684 31.6145 43.0448 30.5052L43.1844 30.1795L43.471 30.3861C44.4146 31.1622 45.589 31.5047 46.7894 31.3613C47.9898 31.218 49.0506 30.6076 49.7765 29.6417L49.9998 29.8092L50.2231 29.6417C50.949 30.6076 52.0117 31.218 53.2102 31.3613C54.4107 31.5047 55.585 31.1622 56.5193 30.3936L56.5528 30.3694L56.8283 30.2037L56.953 30.4997C57.4313 31.6145 58.3153 32.4594 59.445 32.8856C60.5747 33.3099 61.7975 33.2578 62.8862 32.7367L63.2175 32.5785L63.2864 32.9377C63.4836 34.1363 64.1406 35.1692 65.1363 35.8522C66.132 36.5353 67.3324 36.7753 68.5161 36.5297L68.8772 36.4552L68.8548 36.8237C68.7618 38.0335 69.1526 39.1929 69.9585 40.0937C70.7643 40.9945 71.8717 41.5138 73.0796 41.5566L73.4518 41.5696L73.3401 41.9232C72.9623 43.0715 73.0647 44.2924 73.6305 45.3626C74.1962 46.4308 75.1491 47.2032 76.3123 47.5345L76.6715 47.6368L76.4724 47.9514C75.8266 48.975 75.633 50.1847 75.9234 51.3591C76.2137 52.5335 76.9526 53.5124 78.0004 54.1173L78.3838 54.3388L77.8459 54.711C77.1684 55.18 76.7683 55.9207 76.7497 56.7433C76.7311 57.5678 77.0977 58.3253 77.7547 58.8222L78.1939 59.1553L77.6672 59.3135C77.0289 59.5034 76.5208 59.9668 76.2714 60.5847C76.022 61.2026 76.0667 61.8875 76.3942 62.4681L76.6529 62.926L76.2323 63.0674C75.6535 63.2628 75.1864 63.6704 74.9165 64.2176C74.6466 64.7647 74.6057 65.3845 74.803 65.9615L74.8867 66.2053L74.6504 66.3076C73.6137 66.758 73.0256 67.804 73.1168 69.036L73.128 69.1979V69.1924Z" fill="black"/>
<path d="M87.9138 45.7019C89.3692 45.2366 89.5497 43.2508 88.2023 42.5287C89.8531 41.827 90.1062 39.5918 88.6527 38.5403L88.1278 38.1606C89.7768 36.5154 89.332 33.7386 87.2513 32.6889C88.6173 30.8017 87.7351 28.131 85.5148 27.4257L85.5185 27.4201C86.5682 25.3431 85.2785 22.8473 82.9781 22.4993H82.9707C83.6146 20.5004 82.3342 18.4606 80.3707 18.0791C81.9843 18.8775 82.6282 20.7554 81.5358 22.2294V22.2331L81.5413 22.235C83.8808 22.8566 84.709 25.3691 83.1047 26.9771L83.0991 26.9827C85.3176 27.8872 85.7344 30.4816 83.8826 31.8812L83.9012 31.8923C85.9466 33.0518 85.9466 35.6611 83.9012 36.8206L83.8826 36.8318L83.8938 36.8411C85.7382 38.2369 85.325 40.822 83.1121 41.7246L83.0991 41.7302L83.1047 41.7358C84.7071 43.3438 83.8789 45.8545 81.5413 46.4779H81.532L81.5339 46.4835C81.9601 48.2088 80.9774 49.5879 80.2795 50.0439C78.0015 48.9384 77.2831 45.3911 78.5319 43.6193L78.5189 43.6137C76.2353 42.8767 75.0851 40.7327 75.9449 38.812L75.9505 38.8008L75.917 38.7952C73.5218 38.4137 71.9361 36.4856 72.3623 34.47L72.3679 34.4402H72.3065C69.8796 34.4402 67.8956 32.8136 67.8472 30.7757V30.7236C65.4315 31.1404 63.0567 29.8674 62.4946 27.8537L62.4667 27.863C60.2259 28.7042 57.5943 27.9058 56.5149 26.0559L56.5018 26.0317L56.4683 26.0521C54.5197 27.2972 51.7448 27.0255 50.1889 25.438L50.1628 25.4101L50.1368 25.4361C48.5809 27.0255 45.806 27.2972 43.8574 26.0503L43.8239 26.0298L43.8108 26.054C42.7314 27.904 40.0998 28.7042 37.859 27.8612L37.8311 27.85C37.2671 29.8656 35.4526 31.3247 33.0368 30.9078L33.0331 31.0548C32.9866 33.0388 30.9766 34.6263 28.5143 34.6245L28.5497 34.7957C28.9591 36.7406 27.3753 38.5942 24.9744 38.9776L24.9298 38.9851L25.0079 39.1619C25.8324 41.0063 24.6953 43.234 22.4359 43.9617L22.3465 43.9915L22.4601 44.1534C23.6568 45.8526 23.1617 48.0097 21.1052 49.0426L20.9823 49.104L21.001 49.1226C22.5922 50.699 22.5438 53.0068 20.6548 54.3542L20.6976 54.384C22.4992 55.6682 23.2734 57.8848 21.7268 59.4183C21.7268 59.4183 23.9881 60.2502 23.4074 62.8614C23.4074 62.8614 25.5923 62.8875 25.6258 65.9881C26.0818 64.6462 25.3634 63.1908 24.0197 62.7386L23.9192 62.7051L24.0122 62.5413C24.7865 61.1678 24.0848 59.4332 22.5755 58.9828C24.1053 57.8233 24.0532 55.5081 22.4731 54.4175L22.2982 54.2965C24.6041 52.9695 25.3411 49.9899 23.9229 47.7398C26.4801 47.0102 27.9169 44.2986 27.085 41.773H27.0887C29.7445 41.68 31.7861 39.3945 31.5814 36.7443V36.7406H31.5851C34.1851 37.2822 36.7144 35.5476 37.1462 32.9271V32.9234L37.1536 32.9271C39.5489 34.0736 42.4169 32.9941 43.4628 30.5523V30.5468H43.4665C45.5194 32.2348 48.566 31.87 50.1647 29.7465C51.7634 31.87 54.8082 32.2348 56.8629 30.5468L56.8666 30.5523C57.9126 32.9923 60.7805 34.0717 63.1758 32.9271L63.1814 32.9234V32.9271C63.6132 35.5476 66.1424 37.2822 68.7424 36.7406H68.7461V36.7443C68.5414 39.3927 70.5849 41.6781 73.2389 41.7712H73.2426C72.4107 44.2967 73.8475 47.0084 76.4046 47.7379C74.9865 49.988 75.7235 52.9677 78.0294 54.2947L77.8545 54.4156C77.6162 54.5813 77.4171 54.7748 77.2477 54.9889C77.11 55.1619 76.9965 55.3481 76.9053 55.5435C76.9053 55.5435 76.9053 55.5453 76.9053 55.5472C76.8159 55.7408 76.7489 55.9399 76.7061 56.1465C76.7061 56.1539 76.7024 56.1614 76.7024 56.1688C76.6745 56.3028 76.6578 56.4368 76.6503 56.5727C76.6056 57.3674 76.8904 58.1788 77.5176 58.7725C77.592 58.8451 77.6721 58.914 77.7577 58.9791C77.6646 59.007 77.5734 59.0405 77.486 59.0777C77.0076 59.2825 76.6298 59.6268 76.373 60.0418C76.3674 60.053 76.36 60.0623 76.3544 60.0734C76.3228 60.1274 76.293 60.1814 76.2651 60.2372C76.2595 60.2465 76.2558 60.2577 76.252 60.267C76.1739 60.4308 76.1124 60.602 76.0715 60.7788C76.0641 60.8104 76.0566 60.8402 76.051 60.8719C76.0436 60.9147 76.0361 60.9575 76.0306 61.0021C76.025 61.0412 76.0213 61.0803 76.0175 61.1213C76.0138 61.1603 76.0101 61.1994 76.0082 61.2385C76.0064 61.2925 76.0082 61.3465 76.0082 61.4004C76.0082 61.4265 76.0082 61.4544 76.0082 61.4804C76.0119 61.5605 76.0213 61.6386 76.0343 61.7187C76.038 61.7466 76.0454 61.7745 76.051 61.8006C76.0622 61.8564 76.0752 61.9122 76.0901 61.9681C76.0976 61.9978 76.1069 62.0276 76.1162 62.0555C76.1329 62.1114 76.1534 62.1691 76.1757 62.2249C76.185 62.251 76.1943 62.277 76.2055 62.3012C76.2409 62.3812 76.2781 62.4613 76.3228 62.5394L76.4158 62.7032L76.3153 62.7367C74.9734 63.189 74.2532 64.6462 74.7092 65.9862C73.5162 66.5055 72.7829 67.7208 72.8778 69.018L73.0323 69.353C73.492 69.5838 74.1173 69.4163 74.1657 69.4088C74.188 69.4051 74.2085 69.4014 74.2309 69.3977C74.2792 69.3884 74.3258 69.379 74.3704 69.366C74.3872 69.3623 74.4039 69.3586 74.4207 69.353C74.4802 69.3362 74.5379 69.3158 74.5938 69.2953C74.6049 69.2916 74.6161 69.286 74.6254 69.2823C74.6701 69.2637 74.7129 69.245 74.7557 69.2246C74.7724 69.2171 74.7873 69.2078 74.8041 69.1985C74.8413 69.178 74.8767 69.1576 74.912 69.1371C74.9251 69.1297 74.9399 69.1204 74.953 69.1129C75.046 69.0515 75.1316 68.9845 75.2098 68.9156C75.2191 68.9063 75.2284 68.897 75.2396 68.8877C75.2694 68.8598 75.2973 68.8319 75.3252 68.8021C75.3345 68.7928 75.3438 68.7835 75.3512 68.7742C75.3829 68.7388 75.4145 68.7035 75.4443 68.6681C75.4443 68.6662 75.448 68.6644 75.4499 68.6625C75.4815 68.6216 75.5132 68.5825 75.5411 68.5415C75.5448 68.5378 75.5467 68.5322 75.5504 68.5285C75.5746 68.4932 75.5988 68.4578 75.6211 68.4224C75.6248 68.4168 75.6286 68.4094 75.6323 68.4038C75.6565 68.3666 75.6788 68.3275 75.6993 68.2922C75.8928 67.9441 75.9598 67.6538 75.9598 67.6538L75.9691 67.6575C77.3743 68.2605 78.8129 66.8814 78.2751 65.4521L78.2713 65.4428H78.2788C79.7305 65.9248 81.0481 64.4285 80.3874 63.0494L80.3837 63.0419H80.3874C81.8745 63.3955 83.0581 61.7894 82.2802 60.4736V60.4699C83.7933 60.6913 84.8318 58.9865 83.9385 57.7433H83.9422C85.4683 57.8289 86.3467 56.0404 85.3473 54.8828H85.3455V54.8809C86.8734 54.8269 87.5863 52.9658 86.4863 51.905C88.0013 51.7133 88.5429 49.7945 87.3499 48.8379C88.8406 48.5066 89.2036 46.5468 87.9287 45.7056L87.9138 45.7019Z" fill="black"/>
<path opacity="0.2" d="M30.5177 14.2579C30.1995 13.264 30.7038 12.0301 31.72 11.643C32.31 11.4048 32.9912 11.5685 33.5383 11.7826L33.3857 11.87C33.5048 9.80605 35.3157 8.79918 36.9125 10.3067L36.7488 10.3607C36.9498 9.59574 37.5453 8.75824 38.4107 8.6354C39.2427 8.48093 40.1732 8.83268 40.5883 9.56969C40.5957 9.58458 40.5827 9.60319 40.5659 9.5976C40.1788 9.4971 39.8382 9.4301 39.5088 9.40777C38.5485 9.36496 37.5211 9.60877 36.9665 10.4723C36.9312 10.5282 36.8623 10.5505 36.8027 10.5263C35.6805 10.1727 34.0259 10.772 33.6258 11.937C33.6035 12.0003 33.5365 12.0357 33.4732 12.0245C33.1177 11.9854 32.7548 12.0487 32.4496 12.1585C31.828 12.3707 31.331 12.6778 31.0035 13.2677C30.8323 13.5562 30.715 13.8931 30.5978 14.2597C30.5885 14.2969 30.527 14.2988 30.5177 14.2597V14.2579Z" fill="white"/>
<path opacity="0.2" d="M18.0438 50.194C17.2156 50.0972 16.849 48.8018 17.6009 48.3403L17.612 48.4371C16.7615 47.9923 16.6591 46.9426 17.5711 46.4978L17.5636 46.5946C16.782 46.1777 17.0667 44.7576 17.9563 44.7539C17.5841 45.2992 17.4817 45.8743 17.6697 46.5052C17.6809 46.5369 17.6846 46.5759 17.6623 46.602C17.4799 46.8384 17.5097 47.1976 17.4799 47.4693C17.465 47.7578 17.4836 48.089 17.6976 48.3273C17.7144 48.3477 17.7218 48.3738 17.7163 48.398C17.5339 49.0289 17.5841 49.6673 18.0643 50.153C18.0792 50.1679 18.0643 50.1977 18.0438 50.194Z" fill="white"/>
<path opacity="0.2" d="M71.0341 31.6735C70.3585 32.0457 69.48 32.0811 68.797 31.6623C68.0768 31.2622 67.766 30.2293 68.2052 29.5351L68.2015 29.5667C68.2015 29.5555 68.2015 29.5462 68.2015 29.5351L68.2889 29.6132L68.328 29.6021C68.0246 29.8273 67.6655 30.0134 67.2653 30.0934C66.4576 30.2609 65.5475 29.8701 65.125 29.1479C64.9091 28.7869 64.844 28.3421 64.9557 27.9643C64.9687 27.9177 65.0189 27.8917 65.0655 27.9047C65.0971 27.914 65.1213 27.9419 65.1269 27.9717C65.1976 28.3235 65.339 28.6194 65.5456 28.852C66.1654 29.5183 67.3826 29.8291 68.2424 29.4588C68.3317 29.4104 68.3876 29.5071 68.369 29.5872C68.1996 31.2212 69.6978 31.56 71.008 31.5581C71.0676 31.5581 71.0899 31.6456 71.0359 31.6735H71.0341Z" fill="white"/>
<path opacity="0.15" d="M82.6505 39.4722C83.3038 40.092 83.0953 41.3091 82.2541 41.6497L82.2727 41.579C82.5537 41.8377 82.8664 42.2769 82.8608 42.7199C82.8832 43.1628 82.7008 43.6597 82.3081 43.8924C82.2615 43.9203 82.2039 43.8626 82.2336 43.8179C82.6021 43.1479 82.5277 42.3048 82.1871 41.6386C82.1704 41.6125 82.1778 41.579 82.202 41.5623C82.6617 41.2235 82.7157 40.6075 82.6766 40.079C82.6617 39.8966 82.6245 39.7123 82.5872 39.5113C82.5779 39.4759 82.6263 39.448 82.6524 39.4741L82.6505 39.4722Z" fill="white"/>
<path d="M54.3612 41.2037H47.3406L45.3549 39.999H54.3612V41.2037Z" fill="#560A00"/>
<path d="M52.3865 42.374H47.6166V42.9598H52.3865V42.374Z" fill="#560A00"/>
<path opacity="0.9" d="M47.4322 42.6633V42.7069L34.4667 49.5218C33.724 48.8192 33.2585 47.8987 33.0772 46.7794L32.5228 42.5919C32.5403 41.4465 33.4765 40.5225 34.6253 40.5225H45.0647C45.6871 40.5225 46.2955 40.7421 46.7349 41.1257C47.0539 41.4046 47.4322 41.898 47.4322 42.6633Z" fill="#FFC700" fill-opacity="0.93"/>
<path opacity="0.9" d="M47.4317 42.7061C47.4195 44.955 46.4694 47.0453 44.7486 48.5934C43.0471 50.1241 40.8034 50.9662 38.4289 50.9662C37.1388 50.9662 35.9184 50.607 34.9927 49.9533C34.8044 49.8208 34.6283 49.6761 34.4662 49.5209L47.4317 42.7061Z" fill="#FFD645" fill-opacity="0.93"/>
<path opacity="0.9" d="M67.1568 42.5919L67.1411 42.7069L55.3175 48.9221C55.185 48.8175 55.056 48.7076 54.9305 48.5943C53.2098 47.0462 52.2596 44.9559 52.2474 42.7069V42.6633C52.2474 41.898 52.6257 41.4046 52.9448 41.1257C53.3841 40.7421 53.9926 40.5225 54.6149 40.5225H65.0543C66.2032 40.5225 67.1394 41.4465 67.1568 42.5919Z" fill="#FFC700" fill-opacity="0.93"/>
<path opacity="0.9" d="M67.1413 42.7061V42.7095L66.6026 46.7786C66.4213 47.8978 65.9558 48.8183 65.2132 49.5209C65.051 49.6761 64.875 49.8208 64.6867 49.9533C63.7609 50.607 62.5406 50.9662 61.2505 50.9662C59.0521 50.9662 56.9652 50.2444 55.3177 48.9212L67.1413 42.7061Z" fill="#FFD645" fill-opacity="0.93"/>
<path d="M47.1755 40.8219C46.6351 40.3006 45.8697 39.999 45.0643 39.999H34.6249C33.1744 39.999 31.9994 41.1741 31.9994 42.6246L32.559 46.8557C33.0768 50.0758 35.7703 51.4896 38.429 51.4896C41.0876 51.4896 43.6487 50.4331 45.4182 48.6811C46.9785 47.1329 47.9548 45.0461 47.9548 42.6629C47.9548 41.915 47.6532 41.2822 47.1755 40.8219ZM32.8711 42.5723C32.899 41.6326 33.68 40.8707 34.6249 40.8707H45.0643C45.603 40.8707 46.1295 41.059 46.5043 41.3885C46.7676 41.6186 47.0831 42.0283 47.0831 42.6629C47.0831 44.8299 46.1713 46.8435 44.5151 48.3341C42.8781 49.8073 40.7163 50.6179 38.429 50.6179C37.2086 50.6179 36.0597 50.2815 35.1933 49.6695C34.2239 48.9844 33.6277 47.9959 33.4202 46.7285L32.8693 42.5723H32.8711Z" fill="#560A00"/>
<path d="M51.724 42.6629C51.724 45.0461 52.7003 47.1329 54.2606 48.6811C56.0301 50.4331 58.5493 51.4896 61.2498 51.4896C63.9503 51.4896 66.602 50.0758 67.1198 46.8557L67.6794 42.6246C67.6794 41.1741 66.5044 39.999 65.0539 39.999H54.6145C53.8091 39.999 53.0437 40.3006 52.5033 40.8219C52.0256 41.2822 51.724 41.915 51.724 42.6629ZM66.2568 46.7285C66.0511 47.9959 65.4549 48.9844 64.4838 49.6695C63.6173 50.2815 62.4684 50.6179 61.2481 50.6179C58.959 50.6179 56.799 49.8073 55.1619 48.3341C53.5057 46.8435 52.5939 44.8299 52.5939 42.6629C52.5939 42.0266 52.9078 41.6186 53.1727 41.3885C53.5493 41.0607 54.0741 40.8707 54.6128 40.8707H65.0521C65.997 40.8707 66.7781 41.6326 66.806 42.5723L66.2551 46.7285H66.2568Z" fill="#560A00"/>
</g>
</g>
<defs>
<filter id="filter0_d_1944_14070" x="0" y="0" width="100" height="100" filterUnits="userSpaceOnUse" color-interpolation-filters="sRGB">
<feFlood flood-opacity="0" result="BackgroundImageFix"/>
<feColorMatrix in="SourceAlpha" type="matrix" values="0 0 0 0 0 0 0 0 0 0 0 0 0 0 0 0 0 0 127 0" result="hardAlpha"/>
<feOffset/>
<feGaussianBlur stdDeviation="5"/>
<feComposite in2="hardAlpha" operator="out"/>
<feColorMatrix type="matrix" values="0 0 0 0 0 0 0 0 0 0 0 0 0 0 0 0 0 0 0.3 0"/>
<feBlend mode="normal" in2="BackgroundImageFix" result="effect1_dropShadow_1944_14070"/>
<feBlend mode="normal" in="SourceGraphic" in2="effect1_dropShadow_1944_14070" result="shape"/>
</filter>
</defs>
</svg>
