<svg width="160" height="216" viewBox="0 0 160 216" fill="none" xmlns="http://www.w3.org/2000/svg">
<path d="M88.3879 71.1049H74.9545L71.155 68.7998H88.3879V71.1049Z" fill="black"/>
<path d="M84.6091 72.5317H75.4823V73.6526H84.6091V72.5317Z" fill="black"/>
<path d="M74.6383 70.3743C73.6042 69.3769 72.1398 68.7998 70.5986 68.7998H50.6237C47.8483 68.7998 45.6 71.0481 45.6 73.8236L46.6708 81.9196C47.6615 88.0809 52.8154 90.7862 57.9025 90.7862C62.9896 90.7862 67.8899 88.7647 71.2758 85.4122C74.2614 82.45 76.1294 78.457 76.1294 73.8969C76.1294 72.4659 75.5523 71.255 74.6383 70.3743ZM69.9949 85.2454C66.7391 88.1743 62.4459 89.7855 57.9025 89.7855C55.434 89.7855 53.0989 89.0983 51.3276 87.8474C49.3161 86.4263 48.0852 84.3848 47.6615 81.7728L46.6007 73.7602C46.6341 71.5685 48.4254 69.8006 50.6237 69.8006H70.5986C71.7895 69.8006 72.9537 70.2209 73.7944 70.9547C74.4048 71.4885 75.1287 72.4325 75.1287 73.8969C75.1287 78.2335 73.3073 82.2632 69.9949 85.2454Z" fill="black"/>
<path d="M75.1293 73.8967V73.9801L50.3208 87.0198C48.8997 85.6755 48.009 83.9142 47.6621 81.7726L46.6013 73.7599C46.6347 71.5683 48.426 69.8003 50.6243 69.8003H70.5992C71.7901 69.8003 72.9543 70.2206 73.795 70.9545C74.4054 71.4882 75.1293 72.4323 75.1293 73.8967Z" fill="black"/>
<path d="M75.1287 73.98C75.1054 78.2832 73.2873 82.2828 69.9949 85.2451C66.7391 88.1739 62.4459 89.7851 57.9025 89.7851C55.434 89.7851 53.0989 89.0979 51.3276 87.847C50.9673 87.5935 50.6304 87.3166 50.3202 87.0197L75.1287 73.98Z" fill="#2D2D2D"/>
<path d="M83.3424 73.8969C83.3424 78.457 85.2105 82.45 88.196 85.4122C91.5819 88.7647 96.4022 90.7862 101.569 90.7862C106.656 90.7862 111.81 88.0809 112.801 81.9196L113.872 73.8236C113.872 71.0481 111.624 68.7998 108.848 68.7998H88.8732C87.3321 68.7998 85.8676 69.3769 84.8335 70.3743C83.9195 71.255 83.3424 72.4659 83.3424 73.8969ZM84.3432 73.8969C84.3432 72.4325 85.067 71.4885 85.6775 70.9547C86.5181 70.2209 87.6823 69.8006 88.8732 69.8006H108.848C111.046 69.8006 112.838 71.5685 112.871 73.7602L111.81 81.7728C111.387 84.3848 110.156 86.4263 108.144 87.8474C106.373 89.0983 104.038 89.7855 101.569 89.7855C97.026 89.7855 92.7328 88.1743 89.477 85.2454C86.1645 82.2632 84.3432 78.2335 84.3432 73.8969Z" fill="black"/>
<path d="M112.87 73.7599L112.84 73.9801L90.2168 85.8723C89.9633 85.6721 89.7164 85.462 89.4762 85.2452C86.1838 82.2829 84.3658 78.2833 84.3424 73.9801V73.8967C84.3424 72.4323 85.0663 71.4882 85.6767 70.9545C86.5174 70.2206 87.6816 69.8003 88.8725 69.8003H108.847C111.046 69.8003 112.837 71.5683 112.87 73.7599Z" fill="black"/>
<path d="M112.84 73.98V73.9867L111.809 81.7725C111.462 83.9141 110.572 85.6754 109.151 87.0197C108.84 87.3166 108.503 87.5935 108.143 87.847C106.372 89.0979 104.037 89.7851 101.568 89.7851C97.3618 89.7851 93.3688 88.4041 90.2164 85.8722L112.84 73.98Z" fill="#2D2D2D"/>
</svg>
