<svg width="280" height="452" viewBox="0 0 280 452" fill="none" xmlns="http://www.w3.org/2000/svg">
<path d="M158.384 79.5211L158.437 79.5555L158.489 79.59C209.015 112.642 223.173 180.39 190.125 230.909C170.6 260.756 138.112 279.209 105.074 281.437C107.466 288.388 112.804 294.385 124.116 302.812C144.471 317.982 154.791 315.405 160.142 322.262C165.493 329.12 161.369 335.449 160.264 337.139C154.694 345.653 136.908 351.37 107.599 336.806C92.6196 329.362 84.2164 320.316 84.2164 320.316C84.2164 320.316 72.3246 335.776 80.8928 370.24C84.2248 383.642 86.3642 387.163 84.6215 393.363C82.8506 399.669 74.8174 408.643 59.822 400.879C45.693 393.566 37.5174 379.04 36.2271 352.828C35.7018 342.13 39.0408 334.052 39.4993 331.73C36.0146 338.652 32.5723 345.318 29.4485 354.957C27.1063 362.201 25.574 367.862 24.607 380.356C24.133 386.468 19.5579 395.032 9.27158 395.208C1.48515 395.342 -9.40125 390.258 -13.1386 377.283C-17.3874 362.538 -12.2079 351.263 -4.50805 332.944C-1.60847 326.048 4.73054 314.379 4.73054 314.379C4.73054 314.379 -3.41545 324.866 -8.57229 330.286C-22.272 344.679 -30.5275 353.942 -45.7401 355.956C-59.1311 357.726 -68.1507 349.788 -71.1418 342.604C-75.1008 333.109 -69.0871 325.486 -63.6775 322.603C-52.6172 316.712 -48.0441 313.04 -42.3452 307.992C-34.7692 301.274 -30.0365 295.444 -25.0899 289.478C-27.0337 290.828 -33.1016 297.129 -43.1102 300.928C-67.644 310.247 -84.228 308.575 -96.5896 298.56C-109.705 287.935 -104.707 276.975 -99.6375 272.826C-94.6589 268.751 -90.5724 269.295 -76.9574 266.979C-41.9477 261.023 -32.547 243.933 -32.547 243.933C-32.547 243.933 -44.2018 239.858 -57.0233 229.116C-82.1099 208.096 -83.9966 189.509 -78.4268 180.995C-77.3212 179.305 -73.1742 172.991 -64.7476 175.147C-56.3211 177.302 -54.5474 187.79 -32.494 200.363C-20.2401 207.352 -12.6034 209.834 -5.28028 209.247C-16.4751 178.083 -12.5829 140.924 6.94223 111.077C40.0021 60.5649 107.754 46.4003 158.273 79.4484L158.326 79.4828L158.378 79.5173L158.384 79.5211Z" fill="#A9C0FF"/>
<path d="M-3.47138 392.4C-8.1087 389.367 -12.1418 384.49 -14.1324 377.577C-18.3193 363.056 -13.5624 351.763 -6.35774 334.673L-5.46149 332.538C-4.34109 329.88 -2.71529 326.501 -1.12239 323.352C-3.37227 326.063 -5.80889 328.92 -7.80061 331.007L-9.39475 332.678C-22.1724 346.122 -30.6134 355.005 -45.5995 356.992C-59.0582 358.776 -68.7781 350.99 -72.1134 343.004C-76.395 332.738 -69.7111 324.627 -64.1742 321.677C-52.9731 315.711 -48.5392 312.073 -43.0441 307.209C-38.7512 303.404 -35.4149 299.925 -32.4036 296.509C-35.186 298.388 -38.6325 300.35 -42.7433 301.911C-64.6537 310.233 -81.0448 310.232 -93.8866 301.831C-95.0387 301.078 -96.1583 300.262 -97.2475 299.374C-104.462 293.527 -105.993 287.799 -105.994 284.024C-106.008 278.62 -103.059 274.278 -100.292 272.014C-96.3354 268.774 -92.7851 268.274 -85.7118 267.264C-83.2805 266.918 -80.5259 266.523 -77.1236 265.943C-59.3362 262.916 -48.4084 256.946 -42.3673 252.473C-37.7609 249.057 -35.2255 245.972 -34.1262 244.445C-37.4892 243.088 -47.1383 238.755 -57.6833 229.92C-85.2179 206.872 -84.2234 187.966 -79.2962 180.434C-74.6292 173.3 -68.6635 173.078 -64.4774 174.146C-60.4565 175.173 -57.9113 177.882 -54.3802 181.636C-50.0568 186.235 -44.1392 192.519 -31.9593 199.468C-20.6852 205.9 -13.4219 208.455 -6.71723 208.29C-11.9708 193.013 -13.6949 176.195 -11.7154 159.561C-9.6327 142.094 -3.48123 125.134 6.07859 110.52C39.3887 59.5874 107.924 45.259 158.847 78.5711L159.01 78.6782C209.992 112.029 224.32 180.564 191.008 231.487C181.444 246.106 168.373 258.531 153.203 267.437C138.752 275.92 122.65 281.069 106.553 282.38C109.084 288.595 114.339 294.22 124.749 301.973C135.989 310.345 144.124 313.253 150.063 315.369C154.918 317.1 158.42 318.347 160.972 321.619C163.631 325.021 165.817 330.576 161.147 337.716C156.219 345.248 139.295 353.733 107.14 337.75C94.8196 331.628 86.9837 324.523 84.3935 321.985C83.4308 323.61 81.6147 327.165 80.3395 332.752C78.6609 340.08 77.5691 352.484 81.9215 369.994C82.7531 373.344 83.4955 376.026 84.1556 378.386C86.0646 385.272 87.0288 388.725 85.6452 393.648C84.6827 397.085 81.8858 401.527 76.9254 403.684C73.4634 405.185 67.6044 406.087 59.3571 401.82C58.111 401.171 56.9052 400.474 55.7591 399.725C42.9114 391.32 36.3537 376.3 35.1964 352.897C34.9837 348.499 35.3972 344.561 36.0041 341.259C34.0806 345.387 32.2354 349.841 30.4629 355.295C28.2018 362.275 26.6508 367.798 25.6717 380.452C25.1873 386.706 20.4293 396.086 9.31162 396.27C5.24206 396.338 0.651342 395.097 -3.46553 392.404L-3.47138 392.4ZM5.31384 313.5C5.76997 313.798 5.92055 314.398 5.66308 314.881C5.60211 315 -0.679532 326.581 -3.52981 333.35L-4.42605 335.486C-11.7028 352.762 -16.095 363.191 -12.1179 376.999C-8.66244 388.988 1.38866 394.302 9.2662 394.169C18.9847 394.005 23.1499 385.774 23.577 380.284C24.5735 367.4 26.1623 361.767 28.4687 354.642C31.4716 345.367 34.8402 338.686 38.102 332.219L38.5803 331.27C38.8204 330.801 39.3651 330.581 39.855 330.752C40.3545 330.92 40.6439 331.435 40.5437 331.945C40.4435 332.456 40.2382 333.14 39.9518 334.088C38.8726 337.691 36.8727 344.399 37.2829 352.784C38.4997 377.462 45.813 392.45 60.3099 399.954C66.2598 403.037 71.7154 403.658 76.0791 401.761C80.3599 399.902 82.7821 396.059 83.6149 393.088C84.8387 388.728 84.0444 385.871 82.1235 378.952C81.4652 376.576 80.7149 373.881 79.8773 370.502C71.285 335.948 82.8867 320.332 83.387 319.682C83.5728 319.436 83.8603 319.29 84.1703 319.276C84.4803 319.261 84.7779 319.381 84.9873 319.61C85.0714 319.698 93.4521 328.612 108.065 335.876C126.881 345.228 150.966 349.436 159.383 336.571C162.584 331.676 162.562 327.077 159.308 322.911C157.131 320.125 154.032 319.017 149.346 317.346C143.28 315.181 134.972 312.219 123.48 303.657C111.988 295.095 106.55 288.958 104.075 281.777C103.969 281.466 104.015 281.128 104.195 280.853C104.374 280.579 104.671 280.405 105.001 280.387C121.243 279.288 137.541 274.185 152.136 265.621C167.029 256.884 179.864 244.68 189.252 230.329C221.935 180.381 207.879 113.152 157.921 80.4708L157.757 80.3637C107.741 47.6445 40.5118 61.6999 7.83091 111.658C-1.55677 126.008 -7.59277 142.652 -9.63558 159.803C-11.6349 176.607 -9.78155 193.585 -4.2814 208.907C-4.17214 209.212 -4.21181 209.553 -4.38575 209.832C-4.56555 210.107 -4.85667 210.284 -5.18398 210.312C-12.7492 210.924 -20.5471 208.395 -33.0055 201.297C-45.46 194.194 -51.4971 187.773 -55.9104 183.082C-59.3183 179.458 -61.5758 177.063 -65.0004 176.184C-70.1209 174.872 -74.34 176.687 -77.5457 181.588C-85.9617 194.453 -72.4574 214.836 -56.3501 228.329C-43.841 238.808 -32.3196 242.921 -32.201 242.957C-31.9075 243.057 -31.6788 243.282 -31.5677 243.572C-31.4566 243.862 -31.481 244.18 -31.6259 244.452C-32.0209 245.171 -41.6773 262.051 -76.7838 268.028C-80.2151 268.614 -82.9852 269.006 -85.4262 269.355C-92.5247 270.365 -95.4709 270.784 -98.9754 273.652C-101.367 275.611 -103.92 279.36 -103.903 284.031C-103.893 288.789 -101.138 293.539 -95.9301 297.756C-83.2464 308.032 -66.5836 308.728 -43.4852 299.956C-35.6421 296.979 -30.2934 292.453 -27.4247 290.021C-26.6705 289.379 -26.1202 288.92 -25.6925 288.624C-25.261 288.322 -24.6712 288.39 -24.3228 288.777C-23.9648 289.161 -23.9519 289.754 -24.2876 290.153L-24.9647 290.971C-29.5832 296.55 -34.3553 302.313 -41.6505 308.78C-47.2551 313.748 -51.7794 317.46 -63.185 323.535C-68.0448 326.126 -73.9196 333.23 -70.1744 342.21C-67.1399 349.481 -58.2382 356.565 -45.8753 354.924C-31.6248 353.041 -23.835 344.834 -10.9209 331.246L-9.32297 329.569C-4.25636 324.249 3.82638 313.846 3.91076 313.743C4.24425 313.31 4.85386 313.208 5.30999 313.506L5.31384 313.5Z" fill="#231815"/>
<path d="M72.6543 145.28C75.1605 146.919 79.0916 145.345 81.4346 141.763C83.7777 138.181 83.6454 133.949 81.1392 132.309C78.6329 130.67 74.7019 132.244 72.3588 135.826C70.0158 139.407 70.1481 143.64 72.6543 145.28Z" fill="#231815"/>
<path d="M132.481 184.418C134.988 186.058 138.919 184.483 141.262 180.902C143.605 177.32 143.473 173.087 140.966 171.448C138.46 169.808 134.529 171.383 132.186 174.964C129.843 178.546 129.975 182.779 132.481 184.418Z" fill="#231815"/>
<path d="M123.165 198.359C124.533 199.906 124.543 202.392 123.159 204.226C109.285 222.64 90.9728 222.793 72.5405 210.735C54.1081 198.677 46.9599 181.943 58.1183 161.937C59.2709 159.869 61.6716 158.893 63.6609 159.643C67.7872 161.198 74.3878 164.447 78.3878 167.064C83.4169 170.354 90.4387 177.018 92.4502 179.202C92.8435 179.635 93.3251 179.958 93.8676 180.163C96.8992 181.311 107.188 185.904 112.557 189.416C116.533 192.017 120.78 195.672 123.155 198.361L123.165 198.359Z" fill="#EB85A3"/>
<path d="M72.2544 211.175C52.3133 198.13 47.1347 180.555 57.6614 161.681C58.9439 159.389 61.5994 158.303 63.8512 159.15C67.8084 160.645 74.4338 163.843 78.6851 166.624C83.8195 169.983 90.8945 176.732 92.8472 178.853C93.1877 179.226 93.5991 179.504 94.0696 179.678C97.0682 180.813 107.386 185.4 112.86 188.98C116.714 191.501 121.017 195.135 123.564 198.02C125.11 199.766 125.118 202.511 123.585 204.548C110.503 221.917 92.2714 224.27 72.2602 211.179L72.2544 211.175ZM78.1113 167.502C73.9828 164.801 67.3009 161.574 63.4818 160.136C61.7123 159.471 59.6055 160.356 58.5768 162.196C53.2753 171.705 51.982 180.779 54.7511 189.17C57.347 197.048 63.4269 204.156 72.8244 210.304C82.2218 216.451 91.2252 219.193 99.5078 218.39C108.331 217.54 116.146 212.665 122.741 203.911C123.954 202.3 123.971 200.065 122.773 198.705C120.32 195.932 116.005 192.291 112.28 189.854C107.128 186.484 96.9166 181.874 93.6924 180.65C93.072 180.411 92.5262 180.046 92.0703 179.556C90.1488 177.464 83.1638 170.807 78.1055 167.498L78.1113 167.502Z" fill="#231815"/>
<path d="M111.241 205.902C111.818 206.271 111.683 207.051 111.036 207.07C106.769 207.185 95.5955 206.522 82.6659 198.064C71.2393 190.589 64.4567 180.24 61.9497 175.903C61.6014 175.3 62.2615 174.763 62.8774 175.149L111.235 205.898L111.241 205.902Z" fill="#AD475F"/>
</svg>
