<svg width="100" height="100" viewBox="0 0 100 100" fill="none" xmlns="http://www.w3.org/2000/svg">
<g filter="url(#filter0_d_1944_15331)">
<circle cx="50" cy="50" r="39.5" fill="white" stroke="#00E2CC"/>
<mask id="mask0_1944_15331" style="mask-type:alpha" maskUnits="userSpaceOnUse" x="10" y="10" width="80" height="80">
<circle cx="49.9991" cy="50" r="39.0244" fill="white"/>
</mask>
<g mask="url(#mask0_1944_15331)">
<path d="M49.8099 18.123H49.8288H49.8477C66.1894 18.123 79.4367 31.3704 79.4367 47.712C79.4367 57.3657 74.8104 66.3574 67.6571 71.7592C69.227 72.9773 71.3264 73.5485 75.1357 73.7792C81.9939 74.1991 83.9496 72.0883 86.1776 72.8487C88.4057 73.609 88.4095 75.6555 88.4095 76.2002C88.4095 78.9541 85.2282 82.8844 76.4332 83.9285C71.9354 84.4618 68.6936 83.6599 68.6936 83.6599C68.6936 83.6599 68.2926 88.9255 75.3399 95.4622C78.0787 98.0042 79.0849 98.4846 79.6107 100.145C80.1441 101.836 79.6523 105.059 75.1092 105.521C70.8233 105.959 66.8211 103.879 62.6449 98.1328C60.9426 95.7875 60.5001 93.4649 60.2617 92.8672C60.4963 94.9515 60.7043 96.9715 61.4268 99.6157C61.9678 101.602 62.4633 103.115 64.0937 106.084C64.8919 107.541 65.1264 110.158 62.8227 111.721C61.0788 112.905 57.8597 113.366 55.0907 110.979C51.9434 108.267 51.4441 104.946 50.4757 99.6573C50.1087 97.6638 49.8175 94.0815 49.8175 94.0815C49.8175 94.0815 49.5262 97.6638 49.163 99.6573C48.1909 104.949 47.6953 108.271 44.548 110.979C41.779 113.366 38.5599 112.901 36.816 111.721C34.5123 110.158 34.743 107.541 35.545 106.084C37.1754 103.111 37.6709 101.602 38.2119 99.6157C38.9344 96.9715 39.1424 94.9477 39.377 92.8672C39.1386 93.4611 38.6961 95.7875 36.9938 98.1328C32.8176 103.879 28.8154 105.956 24.5295 105.521C19.9826 105.055 19.4946 101.832 20.028 100.145C20.5538 98.4846 21.5562 98.0042 24.2988 95.4622C31.3461 88.9255 30.9451 83.6599 30.9451 83.6599C30.9451 83.6599 27.7033 84.4618 23.2055 83.9285C14.4068 82.8844 11.2292 78.9541 11.2292 76.2002C11.2292 75.6555 11.233 73.609 13.4611 72.8487C15.6891 72.0883 17.6448 74.1991 24.503 73.7792C28.3123 73.5447 30.4117 72.9773 31.9816 71.7592C24.8283 66.3574 20.202 57.3657 20.202 47.712C20.1869 31.3704 33.4342 18.123 49.7758 18.123H49.7948H49.8137H49.8099Z" fill="#A9C0FF"/>
<path d="M59.5091 112.977C58.0111 112.977 56.3732 112.47 54.8979 111.199C51.7998 108.528 51.2021 105.268 50.3018 100.327L50.1883 99.7108C50.0484 98.9429 49.916 97.9366 49.8101 96.9872C49.7041 97.9366 49.5717 98.9429 49.4318 99.7108L49.3183 100.327C48.418 105.268 47.8203 108.528 44.7222 111.199C41.9381 113.597 38.5827 113.276 36.6459 111.959C34.1531 110.269 34.4671 107.439 35.2841 105.952C36.9372 102.941 37.4025 101.462 37.9245 99.5443C38.3331 98.0463 38.5752 96.764 38.7492 95.5459C38.3974 96.3857 37.9094 97.339 37.2058 98.2998C33.1431 103.891 29.0993 106.274 24.4843 105.801C21.9839 105.548 20.7885 104.473 20.2286 103.622C19.4267 102.4 19.4494 100.978 19.7407 100.059C20.1568 98.7386 20.8868 98.0993 22.3394 96.8245C22.8388 96.3857 23.4062 95.8902 24.0909 95.2546C27.6694 91.9334 29.2619 88.9639 29.9655 87.0536C30.5027 85.5972 30.62 84.5229 30.6427 84.0122C29.6818 84.2051 26.8523 84.6515 23.1527 84.2127C13.5028 83.0627 10.9268 78.6331 10.9268 76.197C10.9268 73.8895 12.247 72.9551 13.3515 72.5768C14.4145 72.2137 15.3942 72.452 16.7485 72.7773C18.4091 73.1783 20.6788 73.7268 24.4691 73.4923C27.9758 73.2766 29.9996 72.7811 31.4938 71.7484C24.2308 66.112 19.9033 57.1544 19.9033 47.705C19.9033 31.2385 33.3057 17.8398 49.776 17.8398H49.829C66.3182 17.8398 79.7168 31.2385 79.7168 47.7125C79.7168 57.1619 75.3931 66.1196 68.1263 71.756C69.6205 72.7887 71.6443 73.2842 75.151 73.4998C78.9375 73.7306 81.211 73.1821 82.8717 72.7849C84.2259 72.4596 85.2056 72.2212 86.2686 72.5844C87.3732 72.9627 88.6934 73.897 88.6934 76.2045C88.6934 78.6406 86.1173 83.0703 76.4636 84.2127C72.7678 84.6515 69.9383 84.2051 68.9737 84.0122C68.9964 84.5229 69.1136 85.5972 69.6508 87.0536C70.3544 88.9601 71.9469 91.9334 75.5255 95.2546C76.2102 95.8902 76.7776 96.3857 77.2769 96.8245C78.7295 98.0993 79.4596 98.7424 79.8757 100.059C80.167 100.982 80.1896 102.4 79.3877 103.622C78.8278 104.477 77.6325 105.548 75.1321 105.801C70.5133 106.274 66.4733 103.887 62.4105 98.2998C61.7107 97.3352 61.219 96.3819 60.8672 95.5459C61.0449 96.7678 61.2833 98.0501 61.6918 99.5443C62.2138 101.462 62.6829 102.941 64.3322 105.952C65.1493 107.443 65.4632 110.269 62.9704 111.959C62.0587 112.576 60.8331 112.977 59.5054 112.977H59.5091ZM39.362 92.584C39.3847 92.584 39.4074 92.584 39.4301 92.5916C39.5663 92.6256 39.6571 92.758 39.6419 92.898L39.6079 93.1855C39.3885 95.1336 39.1615 97.146 38.4693 99.6919C37.9359 101.648 37.4592 103.161 35.7759 106.225C35.0572 107.53 34.781 110.011 36.9599 111.49C38.7265 112.69 41.7905 112.973 44.3477 110.772C47.2945 108.233 47.8468 105.222 48.7584 100.229L48.8719 99.6124C49.2313 97.6567 49.5226 94.1009 49.5226 94.0668C49.5339 93.9193 49.6587 93.8058 49.8063 93.8058C49.9538 93.8058 50.0786 93.9193 50.09 94.0668C50.09 94.1009 50.385 97.6567 50.7444 99.6124L50.8579 100.229C51.7695 105.219 52.3181 108.233 55.2686 110.772C57.8258 112.977 60.8936 112.69 62.6564 111.49C64.8353 110.011 64.5554 107.534 63.8404 106.225C62.1571 103.161 61.6805 101.648 61.1471 99.6919C60.4548 97.146 60.2279 95.1336 60.0085 93.1855L59.9744 92.898C59.9593 92.758 60.0501 92.6256 60.1863 92.5916C60.3262 92.5575 60.4662 92.6294 60.5191 92.7618C60.5721 92.8942 60.6288 93.0795 60.7045 93.3368C60.9958 94.3127 61.5367 96.1285 62.872 97.9669C66.8024 103.376 70.6797 105.688 75.0791 105.237C76.8835 105.052 78.2113 104.386 78.9186 103.308C79.6147 102.253 79.592 101.023 79.3385 100.225C78.9678 99.0564 78.3663 98.5268 76.9062 97.2444C76.4031 96.8018 75.8357 96.3025 75.1434 95.6632C68.0772 89.1076 68.3911 83.8533 68.41 83.6339C68.4176 83.5507 68.4592 83.475 68.5273 83.4259C68.5954 83.3767 68.6824 83.3615 68.7618 83.3805C68.7921 83.388 72.015 84.1635 76.3993 83.6453C82.047 82.9757 88.1259 80.358 88.1259 76.2007C88.1259 74.6157 87.4375 73.5793 86.087 73.1178C85.1791 72.8076 84.3167 73.0156 83.0078 73.3334C81.3131 73.7419 78.9943 74.3018 75.1207 74.0635C71.2471 73.8251 69.1061 73.2426 67.4833 71.9829C67.4152 71.93 67.3736 71.8467 67.3736 71.756C67.3736 71.6689 67.4152 71.5857 67.487 71.5328C74.7916 66.0175 79.1532 57.1128 79.1532 47.7125C79.1494 31.5525 66.0042 18.4073 49.8479 18.4073H49.7949C33.6159 18.4073 20.4707 31.5525 20.4707 47.7125C20.4707 57.1128 24.8323 66.0175 32.1369 71.5328C32.2087 71.5857 32.2503 71.6689 32.2503 71.756C32.2503 71.843 32.2087 71.9262 32.1406 71.9829C30.5178 73.2426 28.3768 73.8251 24.5032 74.0635C20.6296 74.3018 18.3108 73.7419 16.6161 73.3334C15.3072 73.0194 14.441 72.8076 13.5369 73.1178C12.1826 73.5793 11.498 74.6157 11.498 76.2007C11.498 80.3618 17.5769 82.9757 23.2246 83.6453C27.6089 84.1673 30.8318 83.388 30.8621 83.3805C30.9415 83.3615 31.0285 83.3805 31.0966 83.4259C31.1647 83.4713 31.2063 83.5507 31.2139 83.6339C31.229 83.8533 31.5467 89.1114 24.4805 95.6632C23.7882 96.3025 23.2208 96.8018 22.7177 97.2444C21.2576 98.5268 20.6561 99.0564 20.2854 100.225C20.0319 101.023 20.013 102.253 20.7053 103.308C21.4127 104.386 22.7404 105.052 24.5448 105.237C28.9442 105.688 32.8178 103.376 36.7519 97.9669C38.0872 96.1285 38.6281 94.3127 38.9194 93.3368C38.9951 93.0795 39.0518 92.8942 39.1048 92.7618C39.1502 92.6521 39.2561 92.584 39.3696 92.584H39.362Z" fill="black"/>
<path d="M40.1339 45.7187C40.9445 45.7187 41.6016 44.7804 41.6016 43.623C41.6016 42.4656 40.9445 41.5273 40.1339 41.5273C39.3233 41.5273 38.6662 42.4656 38.6662 43.623C38.6662 44.7804 39.3233 45.7187 40.1339 45.7187Z" fill="black"/>
<path d="M59.4854 45.7187C60.296 45.7187 60.9531 44.7804 60.9531 43.623C60.9531 42.4656 60.296 41.5273 59.4854 41.5273C58.6748 41.5273 58.0176 42.4656 58.0176 43.623C58.0176 44.7804 58.6748 45.7187 59.4854 45.7187Z" fill="black"/>
<path d="M59.4411 50.2585C59.9782 50.406 60.349 50.9697 60.3073 51.5863C59.895 57.8127 55.768 60.5628 49.8063 60.5628C43.8446 60.5628 39.7441 57.8316 39.3091 51.6468C39.2637 51.0075 39.6647 50.4287 40.2245 50.3039C41.3896 50.0467 43.3642 49.8008 44.6617 49.8008C46.2883 49.8008 48.8682 50.2698 49.6474 50.4666C49.8025 50.5044 49.9576 50.5082 50.1127 50.4741C50.9676 50.285 53.9787 49.8008 55.715 49.8008C57.0012 49.8008 58.5067 50.0013 59.4411 50.2547V50.2585Z" fill="#EB85A3"/>
<path d="M49.8104 60.7059C43.3608 60.7059 39.5818 57.4905 39.1732 51.6575C39.124 50.9501 39.5666 50.307 40.1984 50.167C41.3143 49.9174 43.2927 49.6602 44.6658 49.6602C46.3265 49.6602 48.929 50.1406 49.6856 50.3297C49.818 50.3638 49.9504 50.3638 50.0828 50.3373C50.9301 50.1519 53.945 49.6602 55.7154 49.6602C56.9637 49.6602 58.473 49.8455 59.4792 50.1217C60.0883 50.2881 60.4968 50.9085 60.4514 51.5969C60.0618 57.4716 56.2828 60.7059 49.8104 60.7059ZM44.6658 49.9439C43.3305 49.9439 41.3408 50.2011 40.2589 50.4432C39.7596 50.5529 39.4153 51.0674 39.4532 51.6348C39.7369 55.6407 41.7607 60.4184 49.8104 60.4184C57.8602 60.4184 59.9029 55.6105 60.1677 51.5742C60.2055 51.0295 59.8764 50.5188 59.4036 50.3902C58.4352 50.1254 56.9183 49.9401 55.7154 49.9401C54.0472 49.9401 51.055 50.4091 50.1433 50.6096C49.9693 50.6475 49.7877 50.6475 49.6137 50.6021C48.8685 50.4129 46.3 49.9401 44.6658 49.9401V49.9439Z" fill="black"/>
<path d="M57.8558 53.7354C58.0412 53.7354 58.1244 53.9283 57.9806 54.0304C57.0312 54.6886 54.4021 56.1942 50.2221 56.1942C46.5264 56.1942 43.4585 54.8551 42.248 54.2422C42.0778 54.1552 42.1497 53.9358 42.3464 53.9358L57.8558 53.7354Z" fill="#AD475F"/>
<path d="M50.835 18.4169C50.835 18.4169 52.2465 21.0579 41.385 27.3517C32.204 32.6735 28.4376 48.654 29.9874 62.598C29.9874 62.598 26.1793 46.0168 33.7234 33.06C36.6012 28.1171 41.4115 26.7132 41.4115 26.7132L50.835 18.415V18.4169Z" fill="#645450"/>
<path d="M29.8982 62.6186C29.8603 62.4519 26.1697 45.8518 33.6456 33.0124C36.4136 28.2589 41.0192 26.7376 41.3678 26.6296L50.7762 18.3447L50.9221 18.3713C50.9808 18.483 52.2521 21.1638 41.436 27.4329C32.0258 32.8873 28.6023 49.2468 30.0858 62.5864L29.9001 62.6186H29.8982ZM50.7857 18.5872L41.4758 26.785L41.4398 26.8039C41.3925 26.8172 36.6314 28.2551 33.8067 33.1071C27.9847 43.1085 28.9718 55.4098 29.6936 60.3603C28.8069 47.4224 32.382 32.4611 41.3394 27.27C50.6474 21.8762 50.8766 19.1821 50.7857 18.5872Z" fill="black"/>
<path d="M79.5249 40.5379C78.8827 22.909 60.6552 11.2177 50.8603 16.8464C50.6481 16.6039 45.7109 12.1707 35.073 16.693C28.4345 19.514 20.1136 26.3685 19.333 41.8603C18.4426 59.5422 21.1973 67.3288 21.1973 67.3288L27.1367 68.996C26.0776 52.9813 27.7789 42.3169 30.814 37.0632C33.8491 31.8096 39.2315 27.3518 43.9698 26.1677C48.153 25.1219 50.1498 26.539 50.1498 26.539L50.7296 18.5042C50.7296 18.5042 51.0081 26.5598 51.1464 26.539C51.5859 26.4822 52.9216 25.9498 56.688 26.3761C60.873 26.8497 63.802 31.3322 65.2684 37.1144C66.6893 42.7204 66.2422 52.9586 65.276 58.2898C63.2753 69.3446 60.6059 73.0636 60.5377 73.2398L77.8028 67.3572C77.8028 67.3572 80.1501 57.7063 79.5249 40.5379Z" fill="#645450"/>
<path d="M60.5387 73.5241C60.463 73.5241 60.3891 73.4938 60.3341 73.437C60.2584 73.3574 60.2337 73.2399 60.2735 73.1376C60.2887 73.0997 60.3095 73.0656 60.3644 72.9747C61.4121 71.2393 63.409 67.0163 64.9966 58.2407C66.427 50.3348 65.9022 40.7729 64.9928 37.1846C63.4033 30.9156 60.3644 27.0791 56.6568 26.6585C53.5194 26.3023 52.0928 26.6244 51.4828 26.7608C51.3615 26.7873 51.2649 26.8101 51.1834 26.8195C51.1058 26.829 51.0224 26.8063 50.9618 26.7551C50.8708 26.6793 50.7875 26.6111 50.6454 23.6196L50.4332 26.5581C50.4256 26.6604 50.3631 26.7513 50.2703 26.7949C50.1774 26.8385 50.0675 26.829 49.9842 26.7703C49.9652 26.757 48.0214 25.446 44.0372 26.4425C39.386 27.6058 34.051 32.0315 31.0595 37.2055C27.7364 42.9536 26.4443 54.2375 27.4181 68.9772C27.4238 69.07 27.3859 69.1591 27.3139 69.2159C27.2419 69.2746 27.1472 69.2936 27.0582 69.2689L21.1187 67.6017C21.0297 67.5771 20.9577 67.5108 20.9274 67.4236C20.899 67.3422 20.2226 65.4022 19.6467 61.2644C19.1181 57.4602 18.5857 51.0016 19.0461 41.8453C19.4004 34.8278 21.3271 28.9433 24.7771 24.3528C27.3745 20.8972 30.8946 18.1576 34.9604 16.4298C44.9011 12.203 49.9198 15.6852 50.8955 16.4999C54.8646 14.3268 60.3967 14.7891 65.7469 17.7579C69.4924 19.8362 72.9045 23.0304 75.3561 26.7532C78.0918 30.908 79.6321 35.6728 79.8083 40.5285C80.1322 49.414 79.6453 56.2496 79.1793 60.4176C78.6734 64.9418 78.0823 67.4009 78.0766 67.4255C78.0539 67.5203 77.9838 67.5961 77.8929 67.6283L60.6278 73.5108C60.5975 73.5203 60.5672 73.526 60.5368 73.526L60.5387 73.5241ZM54.0537 25.9291C54.7736 25.9291 55.6508 25.9727 56.7193 26.0939C60.6752 26.541 63.8921 30.5329 65.5423 37.0445C67.0143 42.8494 66.4952 53.1425 65.5555 58.3411C64.0948 66.4101 62.2817 70.6899 61.1621 72.7284L77.5632 67.1414C77.8512 65.8474 79.8177 56.3272 79.2437 40.5494C79.0713 35.7959 77.5632 31.1334 74.8843 27.0658C72.482 23.4188 69.14 20.289 65.4741 18.2561C60.2205 15.3423 54.8096 14.9066 51.0034 17.0948C50.886 17.163 50.7363 17.1365 50.6473 17.0361C50.6037 16.9887 45.8218 12.4361 35.1858 16.9565C32.416 18.1349 28.4393 20.433 25.2356 24.6976C21.8538 29.1934 19.9649 34.9737 19.6163 41.8756C19.1579 50.9694 19.6845 57.3806 20.2074 61.1584C20.6906 64.6424 21.257 66.5863 21.42 67.0978L26.827 68.6153C25.8949 53.9609 27.2211 42.7149 30.5688 36.9232C33.6304 31.626 39.1132 27.0905 43.9008 25.8931C47.1272 25.086 49.0956 25.7036 49.8989 26.0788L50.4464 18.4854C50.4578 18.3357 50.581 18.222 50.7306 18.222C50.7306 18.222 50.7344 18.222 50.7363 18.222C50.8879 18.2239 51.0091 18.3452 51.0148 18.4968C51.1039 21.0847 51.2706 25.1523 51.3748 26.2057C51.8048 26.1091 52.6138 25.931 54.0556 25.931L54.0537 25.9291ZM51.1133 26.2569C51.1133 26.2569 51.1076 26.2569 51.1039 26.2569C51.1076 26.2569 51.1095 26.2569 51.1133 26.2569Z" fill="black"/>
<path opacity="0.4" d="M70.2686 63.2338C69.1129 68.5973 67.1767 70.6377 67.1767 70.6377C67.7867 69.5559 68.7624 66.7008 69.3801 63.8874C70.4259 59.1207 71.1136 53.5166 71.1136 53.2646C71.1666 56.1879 71.2064 58.882 70.2686 63.2319V63.2338Z" fill="black"/>
<path opacity="0.4" d="M78.0573 46.3806C78.1028 49.1713 77.5761 51.4656 77.5761 51.4656C77.722 49.8458 77.6765 49.0766 77.6462 46.7766C77.6216 45.0317 77.5818 41.5078 77.5818 41.5078C77.5818 41.5078 78.0081 43.3039 78.0592 46.3825L78.0573 46.3806Z" fill="black"/>
<path opacity="0.4" d="M31.9842 21.6142C31.9842 21.6142 27.2073 25.0682 24.404 30.958C21.8669 36.2875 21.3514 41.5876 21.3514 41.5876C21.3514 41.5876 20.7351 36.3283 24.3277 29.4298C27.687 22.9792 31.984 21.6123 31.984 21.6123L31.9842 21.6142Z" fill="black"/>
<path opacity="0.4" d="M51.8493 26.4688C51.8493 26.4688 58.9274 22.6342 64.8782 31.1142C69.2735 37.3776 68.1425 49.9859 68.1425 49.9859C68.1425 49.9859 70.9805 38.0843 66.2612 30.7864C60.1134 21.2834 51.8512 26.4706 51.8512 26.4706L51.8493 26.4688Z" fill="black"/>
<path opacity="0.15" d="M36.2506 17.083L37.6469 18.1193C37.7738 18.2046 37.7776 18.3599 37.7738 18.4944L37.7984 19.8472L37.5313 19.203C37.5559 19.222 38.543 20.0612 38.5297 20.048C38.6642 20.1617 38.7154 20.3378 38.6775 20.497L38.3706 21.7815L38.255 21.4556L39.0716 22.4806C39.2534 22.706 38.9484 23.013 38.723 22.8311L37.6904 22.024C37.6184 21.9672 37.5787 21.8838 37.5768 21.7985V21.6981L37.5446 20.3776L37.7776 20.9005L36.7564 20.2791L36.7091 20.2507C36.4969 20.1219 36.4097 19.8623 36.4893 19.635L36.9421 18.3599L37.069 18.7351L35.9493 17.4051C35.7807 17.2099 36.046 16.9276 36.2506 17.0849V17.083Z" fill="white"/>
<path opacity="0.15" d="M39.1509 18.7305L40.5472 19.7668C40.6741 19.852 40.6779 20.0074 40.6741 20.1419L40.6987 21.4946L40.4316 20.8505C40.4562 20.8694 41.4433 21.7087 41.43 21.6954C41.5645 21.8091 41.6157 21.9853 41.5778 22.1444L41.2709 23.429L41.1553 23.1031L41.9719 24.128C42.1537 24.3535 41.8487 24.6604 41.6233 24.4785L40.5907 23.6715C40.5187 23.6146 40.479 23.5313 40.4771 23.446V23.3456L40.4449 22.0251L40.6779 22.548L39.6567 21.9266L39.6094 21.8982C39.3972 21.7693 39.31 21.5098 39.3915 21.2824L39.8443 20.0074L39.9712 20.3825L38.8515 19.0525C38.6829 18.8574 38.9482 18.5751 39.1528 18.7324L39.1509 18.7305Z" fill="white"/>
<path opacity="0.15" d="M64.1731 18.0552L65.9578 19.137C66.4144 19.3984 66.422 20.0975 65.9768 20.3722L65.7324 20.5295L63.618 21.8917L64.2508 20.7095L64.2622 22.0357V22.3426C64.2679 22.6647 64.0557 22.9394 63.762 23.0303L61.6003 23.6953L61.7936 22.9716L62.4586 24.258C62.6954 24.7354 62.0323 25.1333 61.7235 24.6994L60.9012 23.5077C60.7629 23.3088 60.8008 23.0398 60.9789 22.8844L61.0945 22.784L62.7996 21.2987L62.2994 22.2933L61.9679 21.0088C61.8372 20.5068 62.1194 19.9933 62.6007 19.8266L64.9689 18.9779L64.7434 20.3704L63.637 18.6008C63.4172 18.2541 63.8302 17.843 64.1731 18.0571V18.0552Z" fill="white"/>
<path d="M77.1605 73.8248L76.025 73.751C75.9947 73.5921 75.972 73.5145 75.972 73.5145C75.726 72.0914 71.7557 71.2511 69.6797 72.2295L63.6466 76.8982C63.6466 76.8982 58.0734 78.4764 49.883 78.4764H49.741C41.5506 78.4764 35.9774 76.8982 35.9774 76.8982L29.9424 72.2314C27.8645 71.2511 23.8961 72.0933 23.6482 73.5164C23.6482 73.5164 23.6255 73.5921 23.5952 73.7529L22.4598 73.8267C22.4598 73.8267 22.1532 75.581 22.6471 79.012C23.2489 83.2018 24.0475 84.1386 24.0475 84.1386L25.2511 84.2048C25.5104 84.659 25.6901 84.8085 25.6901 84.8085C25.6901 84.8085 26.3809 85.1435 27.8002 84.8861C29.2441 84.6249 29.7967 84.2086 30.0711 84.1386C29.0492 88.1278 27.0849 90.9192 27.0016 91.2333C26.5209 93.0463 37.673 98.029 49.794 98.029H49.8262C61.9491 98.029 73.1012 93.0463 72.6186 91.2333C72.5354 90.9211 70.571 88.1278 69.5491 84.1386C69.8235 84.2086 70.3761 84.6268 71.82 84.8861C73.2393 85.1416 74.1269 84.8085 74.1269 84.8085C74.1269 84.8085 74.2783 84.6571 74.5073 84.1973L75.5746 84.1386C75.5746 84.1386 76.3732 83.2018 76.975 79.012C77.467 75.581 77.1624 73.8267 77.1624 73.8267L77.1605 73.8248Z" fill="#001E4F"/>
<mask id="mask1_1944_15331" style="mask-type:luminance" maskUnits="userSpaceOnUse" x="22" y="71" width="56" height="28">
<path d="M77.1605 73.8248L76.025 73.751C75.9947 73.5921 75.972 73.5145 75.972 73.5145C75.726 72.0914 71.7557 71.2511 69.6797 72.2295L63.6466 76.8982C63.6466 76.8982 58.0734 78.4764 49.883 78.4764H49.741C41.5506 78.4764 35.9774 76.8982 35.9774 76.8982L29.9424 72.2314C27.8645 71.2511 23.8961 72.0933 23.6482 73.5164C23.6482 73.5164 23.6255 73.5921 23.5952 73.7529L22.4598 73.8267C22.4598 73.8267 22.1532 75.581 22.6471 79.012C23.2489 83.2018 24.0475 84.1386 24.0475 84.1386L25.2511 84.2048C25.5104 84.659 25.6901 84.8085 25.6901 84.8085C25.6901 84.8085 26.3809 85.1435 27.8002 84.8861C29.2441 84.6249 29.7967 84.2086 30.0711 84.1386C29.0492 88.1278 27.0849 90.9192 27.0016 91.2333C26.5209 93.0463 37.673 98.029 49.794 98.029H49.8262C61.9491 98.029 73.1012 93.0463 72.6186 91.2333C72.5354 90.9211 70.571 88.1278 69.5491 84.1386C69.8235 84.2086 70.3761 84.6268 71.82 84.8861C73.2393 85.1416 74.1269 84.8085 74.1269 84.8085C74.1269 84.8085 74.2783 84.6571 74.5073 84.1973L75.5746 84.1386C75.5746 84.1386 76.3732 83.2018 76.975 79.012C77.467 75.581 77.1624 73.8267 77.1624 73.8267L77.1605 73.8248Z" fill="white"/>
</mask>
<g mask="url(#mask1_1944_15331)">
<path d="M76.2483 73.3327L75.6806 72.7669V72.765H75.1129L74.5451 72.1973V72.765H73.9774L74.5451 73.3327V73.9023L75.1129 74.4682V74.4701L75.6806 75.0378V74.4701L75.1129 73.9023H75.6806V73.3346L76.2483 73.9005H76.8161L76.2483 73.3327Z" fill="#BC2045"/>
<path d="M76.2483 76.5515V76.5496L75.6806 75.9837H75.1129L74.5451 75.416V75.9837H73.9774L74.5451 76.5515V77.1192L75.1129 77.6869L75.6806 78.2547V77.6869L75.1129 77.1192H75.6806V76.5515L76.2483 77.1192H76.8161L76.2483 76.5515Z" fill="#BC2045"/>
<path d="M76.2483 79.7702V79.7683L75.6806 79.2024V79.2005H75.1129L74.5451 78.6328V79.2005H73.9774L74.5451 79.7702V80.3379L75.1129 80.9037V80.9056L75.6806 81.4734V80.9056L75.1129 80.3379H75.6806V79.7702L76.2483 80.336H76.8161L76.2483 79.7702Z" fill="#BC2045"/>
<path d="M76.2483 82.988L75.6806 82.4203H75.1129L74.5451 81.8525V82.4203H73.9774L74.5451 82.988V83.5557L75.1129 84.1235L75.6806 84.6912V84.1235L75.1129 83.5557H75.6806V82.9899L76.2483 83.5557H76.8161L76.2483 82.988Z" fill="#BC2045"/>
<path d="M76.2483 86.2067V86.2048L75.6806 85.639V85.6371H75.1129L74.5451 85.0693V85.6371H73.9774L74.5451 86.2067V86.7744L75.1129 87.3421L75.6806 87.9099V87.3421L75.1129 86.7744H75.6806V86.2067L76.2483 86.7725H76.8161L76.2483 86.2067Z" fill="#BC2045"/>
<path d="M76.2483 89.4235L75.6806 88.8558H75.1129L74.5451 88.2881V88.8558H73.9774L74.5451 89.4235V89.9913L75.1129 90.559V90.5609L75.6806 91.1267V90.5609L75.1129 89.9913H75.6806V89.4254L76.2483 89.9913H76.8161L76.2483 89.4235Z" fill="#BC2045"/>
<path d="M73.0312 73.3327L72.4635 72.7669V72.765H71.8957L71.328 72.1973V72.765H70.7603L71.328 73.3327V73.9023L71.8957 74.4682V74.4701L72.4635 75.0378V74.4701L71.8957 73.9023H72.4635V73.3346L73.0312 73.9005H73.5989L73.0312 73.3327Z" fill="#BC2045"/>
<path d="M73.0312 76.5515V76.5496L72.4635 75.9837H71.8957L71.328 75.416V75.9837H70.7603L71.328 76.5515V77.1192L71.8957 77.6869L72.4635 78.2547V77.6869L71.8957 77.1192H72.4635V76.5515L73.0312 77.1192H73.5989L73.0312 76.5515Z" fill="#BC2045"/>
<path d="M73.0312 79.7702V79.7683L72.4635 79.2024V79.2005H71.8957L71.328 78.6328V79.2005H70.7603L71.328 79.7702V80.3379L71.8957 80.9037V80.9056L72.4635 81.4734V80.9056L71.8957 80.3379H72.4635V79.7702L73.0312 80.336H73.5989L73.0312 79.7702Z" fill="#BC2045"/>
<path d="M73.0312 82.988L72.4635 82.4203H71.8957L71.328 81.8525V82.4203H70.7603L71.328 82.988V83.5557L71.8957 84.1235L72.4635 84.6912V84.1235L71.8957 83.5557H72.4635V82.9899L73.0312 83.5557H73.5989L73.0312 82.988Z" fill="#BC2045"/>
<path d="M73.0312 86.2067V86.2048L72.4635 85.639V85.6371H71.8957L71.328 85.0693V85.6371H70.7603L71.328 86.2067V86.7744L71.8957 87.3421L72.4635 87.9099V87.3421L71.8957 86.7744H72.4635V86.2067L73.0312 86.7725H73.5989L73.0312 86.2067Z" fill="#BC2045"/>
<path d="M73.0312 89.4235L72.4635 88.8558H71.8957L71.328 88.2881V88.8558H70.7603L71.328 89.4235V89.9913L71.8957 90.559V90.5609L72.4635 91.1267V90.5609L71.8957 89.9913H72.4635V89.4254L73.0312 89.9913H73.5989L73.0312 89.4235Z" fill="#BC2045"/>
<path d="M69.8141 73.3327L69.2463 72.7669V72.765H68.6786L68.1109 72.1973V72.765H67.5432L68.1109 73.3327V73.9023L68.6786 74.4682V74.4701L69.2463 75.0378V74.4701L68.6786 73.9023H69.2463V73.3346L69.8141 73.9005H70.3818L69.8141 73.3327Z" fill="#BC2045"/>
<path d="M69.8141 76.5515V76.5496L69.2463 75.9837H68.6786L68.1109 75.416V75.9837H67.5432L68.1109 76.5515V77.1192L68.6786 77.6869L69.2463 78.2547V77.6869L68.6786 77.1192H69.2463V76.5515L69.8141 77.1192H70.3818L69.8141 76.5515Z" fill="#BC2045"/>
<path d="M69.8141 79.7702V79.7683L69.2463 79.2024V79.2005H68.6786L68.1109 78.6328V79.2005H67.5432L68.1109 79.7702V80.3379L68.6786 80.9037V80.9056L69.2463 81.4734V80.9056L68.6786 80.3379H69.2463V79.7702L69.8141 80.336H70.3818L69.8141 79.7702Z" fill="#BC2045"/>
<path d="M69.8141 82.988L69.2463 82.4203H68.6786L68.1109 81.8525V82.4203H67.5432L68.1109 82.988V83.5557L68.6786 84.1235L69.2463 84.6912V84.1235L68.6786 83.5557H69.2463V82.9899L69.8141 83.5557H70.3818L69.8141 82.988Z" fill="#BC2045"/>
<path d="M69.8141 86.2067V86.2048L69.2463 85.639V85.6371H68.6786L68.1109 85.0693V85.6371H67.5432L68.1109 86.2067V86.7744L68.6786 87.3421L69.2463 87.9099V87.3421L68.6786 86.7744H69.2463V86.2067L69.8141 86.7725H70.3818L69.8141 86.2067Z" fill="#BC2045"/>
<path d="M69.8141 89.4235L69.2463 88.8558H68.6786L68.1109 88.2881V88.8558H67.5432L68.1109 89.4235V89.9913L68.6786 90.559V90.5609L69.2463 91.1267V90.5609L68.6786 89.9913H69.2463V89.4254L69.8141 89.9913H70.3818L69.8141 89.4235Z" fill="#BC2045"/>
<path d="M66.5969 73.3327L66.0292 72.7669V72.765H65.4615L64.8937 72.1973V72.765H64.326L64.8937 73.3327V73.9023L65.4615 74.4682V74.4701L66.0292 75.0378V74.4701L65.4615 73.9023H66.0292V73.3346L66.5969 73.9005H67.1647L66.5969 73.3327Z" fill="#BC2045"/>
<path d="M66.5969 76.5515V76.5496L66.0292 75.9837H65.4615L64.8937 75.416V75.9837H64.326L64.8937 76.5515V77.1192L65.4615 77.6869L66.0292 78.2547V77.6869L65.4615 77.1192H66.0292V76.5515L66.5969 77.1192H67.1647L66.5969 76.5515Z" fill="#BC2045"/>
<path d="M66.5969 79.7702V79.7683L66.0292 79.2024V79.2005H65.4615L64.8937 78.6328V79.2005H64.326L64.8937 79.7702V80.3379L65.4615 80.9037V80.9056L66.0292 81.4734V80.9056L65.4615 80.3379H66.0292V79.7702L66.5969 80.336H67.1647L66.5969 79.7702Z" fill="#BC2045"/>
<path d="M66.5969 82.988L66.0292 82.4203H65.4615L64.8937 81.8525V82.4203H64.326L64.8937 82.988V83.5557L65.4615 84.1235L66.0292 84.6912V84.1235L65.4615 83.5557H66.0292V82.9899L66.5969 83.5557H67.1647L66.5969 82.988Z" fill="#BC2045"/>
<path d="M66.5969 86.2067V86.2048L66.0292 85.639V85.6371H65.4615L64.8937 85.0693V85.6371H64.326L64.8937 86.2067V86.7744L65.4615 87.3421L66.0292 87.9099V87.3421L65.4615 86.7744H66.0292V86.2067L66.5969 86.7725H67.1647L66.5969 86.2067Z" fill="#BC2045"/>
<path d="M66.5969 89.4235L66.0292 88.8558H65.4615L64.8937 88.2881V88.8558H64.326L64.8937 89.4235V89.9913L65.4615 90.559V90.5609L66.0292 91.1267V90.5609L65.4615 89.9913H66.0292V89.4254L66.5969 89.9913H67.1647L66.5969 89.4235Z" fill="#BC2045"/>
<path d="M63.3798 73.3327L62.8121 72.7669V72.765H62.2443L61.6766 72.1973V72.765H61.1089L61.6766 73.3327V73.9023L62.2443 74.4682V74.4701L62.8121 75.0378V74.4701L62.2443 73.9023H62.8121V73.3346L63.3798 73.9005H63.9475L63.3798 73.3327Z" fill="#BC2045"/>
<path d="M63.3798 76.5515V76.5496L62.8121 75.9837H62.2443L61.6766 75.416V75.9837H61.1089L61.6766 76.5515V77.1192L62.2443 77.6869L62.8121 78.2547V77.6869L62.2443 77.1192H62.8121V76.5515L63.3798 77.1192H63.9475L63.3798 76.5515Z" fill="#BC2045"/>
<path d="M63.3798 79.7702V79.7683L62.8121 79.2024V79.2005H62.2443L61.6766 78.6328V79.2005H61.1089L61.6766 79.7702V80.3379L62.2443 80.9037V80.9056L62.8121 81.4734V80.9056L62.2443 80.3379H62.8121V79.7702L63.3798 80.336H63.9475L63.3798 79.7702Z" fill="#BC2045"/>
<path d="M63.3798 82.988L62.8121 82.4203H62.2443L61.6766 81.8525V82.4203H61.1089L61.6766 82.988V83.5557L62.2443 84.1235L62.8121 84.6912V84.1235L62.2443 83.5557H62.8121V82.9899L63.3798 83.5557H63.9475L63.3798 82.988Z" fill="#BC2045"/>
<path d="M63.3798 86.2067V86.2048L62.8121 85.639V85.6371H62.2443L61.6766 85.0693V85.6371H61.1089L61.6766 86.2067V86.7744L62.2443 87.3421L62.8121 87.9099V87.3421L62.2443 86.7744H62.8121V86.2067L63.3798 86.7725H63.9475L63.3798 86.2067Z" fill="#BC2045"/>
<path d="M63.3798 89.4235L62.8121 88.8558H62.2443L61.6766 88.2881V88.8558H61.1089L61.6766 89.4235V89.9913L62.2443 90.559V90.5609L62.8121 91.1267V90.5609L62.2443 89.9913H62.8121V89.4254L63.3798 89.9913H63.9475L63.3798 89.4235Z" fill="#BC2045"/>
<path d="M60.1627 73.3327L59.5949 72.7669V72.765H59.0272L58.4595 72.1973V72.765H57.8918L58.4595 73.3327V73.9023L59.0272 74.4682V74.4701L59.5949 75.0378V74.4701L59.0272 73.9023H59.5949V73.3346L60.1627 73.9005H60.7304L60.1627 73.3327Z" fill="#BC2045"/>
<path d="M60.1627 76.5515V76.5496L59.5949 75.9837H59.0272L58.4595 75.416V75.9837H57.8918L58.4595 76.5515V77.1192L59.0272 77.6869L59.5949 78.2547V77.6869L59.0272 77.1192H59.5949V76.5515L60.1627 77.1192H60.7304L60.1627 76.5515Z" fill="#BC2045"/>
<path d="M60.1627 79.7702V79.7683L59.5949 79.2024V79.2005H59.0272L58.4595 78.6328V79.2005H57.8918L58.4595 79.7702V80.3379L59.0272 80.9037V80.9056L59.5949 81.4734V80.9056L59.0272 80.3379H59.5949V79.7702L60.1627 80.336H60.7304L60.1627 79.7702Z" fill="#BC2045"/>
<path d="M60.1627 82.988L59.5949 82.4203H59.0272L58.4595 81.8525V82.4203H57.8918L58.4595 82.988V83.5557L59.0272 84.1235L59.5949 84.6912V84.1235L59.0272 83.5557H59.5949V82.9899L60.1627 83.5557H60.7304L60.1627 82.988Z" fill="#BC2045"/>
<path d="M60.1627 86.2067V86.2048L59.5949 85.639V85.6371H59.0272L58.4595 85.0693V85.6371H57.8918L58.4595 86.2067V86.7744L59.0272 87.3421L59.5949 87.9099V87.3421L59.0272 86.7744H59.5949V86.2067L60.1627 86.7725H60.7304L60.1627 86.2067Z" fill="#BC2045"/>
<path d="M60.1627 89.4235L59.5949 88.8558H59.0272L58.4595 88.2881V88.8558H57.8918L58.4595 89.4235V89.9913L59.0272 90.559V90.5609L59.5949 91.1267V90.5609L59.0272 89.9913H59.5949V89.4254L60.1627 89.9913H60.7304L60.1627 89.4235Z" fill="#BC2045"/>
<path d="M56.9455 73.3327L56.3778 72.7669V72.765H55.8101L55.2424 72.1973V72.765H54.6746L55.2424 73.3327V73.9023L55.8101 74.4682V74.4701L56.3778 75.0378V74.4701L55.8101 73.9023H56.3778V73.3346L56.9455 73.9005H57.5133L56.9455 73.3327Z" fill="#BC2045"/>
<path d="M56.9455 76.5515V76.5496L56.3778 75.9837H55.8101L55.2424 75.416V75.9837H54.6746L55.2424 76.5515V77.1192L55.8101 77.6869L56.3778 78.2547V77.6869L55.8101 77.1192H56.3778V76.5515L56.9455 77.1192H57.5133L56.9455 76.5515Z" fill="#BC2045"/>
<path d="M56.9455 79.7702V79.7683L56.3778 79.2024V79.2005H55.8101L55.2424 78.6328V79.2005H54.6746L55.2424 79.7702V80.3379L55.8101 80.9037V80.9056L56.3778 81.4734V80.9056L55.8101 80.3379H56.3778V79.7702L56.9455 80.336H57.5133L56.9455 79.7702Z" fill="#BC2045"/>
<path d="M56.9455 82.988L56.3778 82.4203H55.8101L55.2424 81.8525V82.4203H54.6746L55.2424 82.988V83.5557L55.8101 84.1235L56.3778 84.6912V84.1235L55.8101 83.5557H56.3778V82.9899L56.9455 83.5557H57.5133L56.9455 82.988Z" fill="#BC2045"/>
<path d="M56.9455 86.2067V86.2048L56.3778 85.639V85.6371H55.8101L55.2424 85.0693V85.6371H54.6746L55.2424 86.2067V86.7744L55.8101 87.3421L56.3778 87.9099V87.3421L55.8101 86.7744H56.3778V86.2067L56.9455 86.7725H57.5133L56.9455 86.2067Z" fill="#BC2045"/>
<path d="M56.9455 89.4235L56.3778 88.8558H55.8101L55.2424 88.2881V88.8558H54.6746L55.2424 89.4235V89.9913L55.8101 90.559V90.5609L56.3778 91.1267V90.5609L55.8101 89.9913H56.3778V89.4254L56.9455 89.9913H57.5133L56.9455 89.4235Z" fill="#BC2045"/>
<path d="M53.7284 73.3327L53.1607 72.7669V72.765H52.5929L52.0252 72.1973V72.765H51.4575L52.0252 73.3327V73.9023L52.5929 74.4682V74.4701L53.1607 75.0378V74.4701L52.5929 73.9023H53.1607V73.3346L53.7284 73.9005H54.2961L53.7284 73.3327Z" fill="#BC2045"/>
<path d="M53.7284 76.5515V76.5496L53.1607 75.9837H52.5929L52.0252 75.416V75.9837H51.4575L52.0252 76.5515V77.1192L52.5929 77.6869L53.1607 78.2547V77.6869L52.5929 77.1192H53.1607V76.5515L53.7284 77.1192H54.2961L53.7284 76.5515Z" fill="#BC2045"/>
<path d="M53.7284 79.7702V79.7683L53.1607 79.2024V79.2005H52.5929L52.0252 78.6328V79.2005H51.4575L52.0252 79.7702V80.3379L52.5929 80.9037V80.9056L53.1607 81.4734V80.9056L52.5929 80.3379H53.1607V79.7702L53.7284 80.336H54.2961L53.7284 79.7702Z" fill="#BC2045"/>
<path d="M53.7284 82.988L53.1607 82.4203H52.5929L52.0252 81.8525V82.4203H51.4575L52.0252 82.988V83.5557L52.5929 84.1235L53.1607 84.6912V84.1235L52.5929 83.5557H53.1607V82.9899L53.7284 83.5557H54.2961L53.7284 82.988Z" fill="#BC2045"/>
<path d="M53.7284 86.2067V86.2048L53.1607 85.639V85.6371H52.5929L52.0252 85.0693V85.6371H51.4575L52.0252 86.2067V86.7744L52.5929 87.3421L53.1607 87.9099V87.3421L52.5929 86.7744H53.1607V86.2067L53.7284 86.7725H54.2961L53.7284 86.2067Z" fill="#BC2045"/>
<path d="M53.7284 89.4235L53.1607 88.8558H52.5929L52.0252 88.2881V88.8558H51.4575L52.0252 89.4235V89.9913L52.5929 90.559V90.5609L53.1607 91.1267V90.5609L52.5929 89.9913H53.1607V89.4254L53.7284 89.9913H54.2961L53.7284 89.4235Z" fill="#BC2045"/>
<path d="M50.5113 73.3327L49.9435 72.7669V72.765H49.3758L48.8081 72.1973V72.765H48.2404L48.8081 73.3327V73.9023L49.3758 74.4682V74.4701L49.9435 75.0378V74.4701L49.3758 73.9023H49.9435V73.3346L50.5113 73.9005H51.079L50.5113 73.3327Z" fill="#BC2045"/>
<path d="M50.5113 76.5515V76.5496L49.9435 75.9837H49.3758L48.8081 75.416V75.9837H48.2404L48.8081 76.5515V77.1192L49.3758 77.6869L49.9435 78.2547V77.6869L49.3758 77.1192H49.9435V76.5515L50.5113 77.1192H51.079L50.5113 76.5515Z" fill="#BC2045"/>
<path d="M50.5113 79.7702V79.7683L49.9435 79.2024V79.2005H49.3758L48.8081 78.6328V79.2005H48.2404L48.8081 79.7702V80.3379L49.3758 80.9037V80.9056L49.9435 81.4734V80.9056L49.3758 80.3379H49.9435V79.7702L50.5113 80.336H51.079L50.5113 79.7702Z" fill="#BC2045"/>
<path d="M50.5113 82.988L49.9435 82.4203H49.3758L48.8081 81.8525V82.4203H48.2404L48.8081 82.988V83.5557L49.3758 84.1235L49.9435 84.6912V84.1235L49.3758 83.5557H49.9435V82.9899L50.5113 83.5557H51.079L50.5113 82.988Z" fill="#BC2045"/>
<path d="M50.5113 86.2067V86.2048L49.9435 85.639V85.6371H49.3758L48.8081 85.0693V85.6371H48.2404L48.8081 86.2067V86.7744L49.3758 87.3421L49.9435 87.9099V87.3421L49.3758 86.7744H49.9435V86.2067L50.5113 86.7725H51.079L50.5113 86.2067Z" fill="#BC2045"/>
<path d="M50.5113 89.4235L49.9435 88.8558H49.3758L48.8081 88.2881V88.8558H48.2404L48.8081 89.4235V89.9913L49.3758 90.559V90.5609L49.9435 91.1267V90.5609L49.3758 89.9913H49.9435V89.4254L50.5113 89.9913H51.079L50.5113 89.4235Z" fill="#BC2045"/>
<path d="M47.2941 73.3327L46.7264 72.7669V72.765H46.1587L45.591 72.1973V72.765H45.0232L45.591 73.3327V73.9023L46.1587 74.4682V74.4701L46.7264 75.0378V74.4701L46.1587 73.9023H46.7264V73.3346L47.2941 73.9005H47.8619L47.2941 73.3327Z" fill="#BC2045"/>
<path d="M47.2941 76.5515V76.5496L46.7264 75.9837H46.1587L45.591 75.416V75.9837H45.0232L45.591 76.5515V77.1192L46.1587 77.6869L46.7264 78.2547V77.6869L46.1587 77.1192H46.7264V76.5515L47.2941 77.1192H47.8619L47.2941 76.5515Z" fill="#BC2045"/>
<path d="M47.2941 79.7702V79.7683L46.7264 79.2024V79.2005H46.1587L45.591 78.6328V79.2005H45.0232L45.591 79.7702V80.3379L46.1587 80.9037V80.9056L46.7264 81.4734V80.9056L46.1587 80.3379H46.7264V79.7702L47.2941 80.336H47.8619L47.2941 79.7702Z" fill="#BC2045"/>
<path d="M47.2941 82.988L46.7264 82.4203H46.1587L45.591 81.8525V82.4203H45.0232L45.591 82.988V83.5557L46.1587 84.1235L46.7264 84.6912V84.1235L46.1587 83.5557H46.7264V82.9899L47.2941 83.5557H47.8619L47.2941 82.988Z" fill="#BC2045"/>
<path d="M47.2941 86.2067V86.2048L46.7264 85.639V85.6371H46.1587L45.591 85.0693V85.6371H45.0232L45.591 86.2067V86.7744L46.1587 87.3421L46.7264 87.9099V87.3421L46.1587 86.7744H46.7264V86.2067L47.2941 86.7725H47.8619L47.2941 86.2067Z" fill="#BC2045"/>
<path d="M47.2941 89.4235L46.7264 88.8558H46.1587L45.591 88.2881V88.8558H45.0232L45.591 89.4235V89.9913L46.1587 90.559V90.5609L46.7264 91.1267V90.5609L46.1587 89.9913H46.7264V89.4254L47.2941 89.9913H47.8619L47.2941 89.4235Z" fill="#BC2045"/>
<path d="M44.077 73.3327L43.5093 72.7669V72.765H42.9415L42.3738 72.1973V72.765H41.8061L42.3738 73.3327V73.9023L42.9415 74.4682V74.4701L43.5093 75.0378V74.4701L42.9415 73.9023H43.5093V73.3346L44.077 73.9005H44.6447L44.077 73.3327Z" fill="#BC2045"/>
<path d="M44.077 76.5515V76.5496L43.5093 75.9837H42.9415L42.3738 75.416V75.9837H41.8061L42.3738 76.5515V77.1192L42.9415 77.6869L43.5093 78.2547V77.6869L42.9415 77.1192H43.5093V76.5515L44.077 77.1192H44.6447L44.077 76.5515Z" fill="#BC2045"/>
<path d="M44.077 79.7702V79.7683L43.5093 79.2024V79.2005H42.9415L42.3738 78.6328V79.2005H41.8061L42.3738 79.7702V80.3379L42.9415 80.9037V80.9056L43.5093 81.4734V80.9056L42.9415 80.3379H43.5093V79.7702L44.077 80.336H44.6447L44.077 79.7702Z" fill="#BC2045"/>
<path d="M44.077 82.988L43.5093 82.4203H42.9415L42.3738 81.8525V82.4203H41.8061L42.3738 82.988V83.5557L42.9415 84.1235L43.5093 84.6912V84.1235L42.9415 83.5557H43.5093V82.9899L44.077 83.5557H44.6447L44.077 82.988Z" fill="#BC2045"/>
<path d="M44.077 86.2067V86.2048L43.5093 85.639V85.6371H42.9415L42.3738 85.0693V85.6371H41.8061L42.3738 86.2067V86.7744L42.9415 87.3421L43.5093 87.9099V87.3421L42.9415 86.7744H43.5093V86.2067L44.077 86.7725H44.6447L44.077 86.2067Z" fill="#BC2045"/>
<path d="M44.077 89.4235L43.5093 88.8558H42.9415L42.3738 88.2881V88.8558H41.8061L42.3738 89.4235V89.9913L42.9415 90.559V90.5609L43.5093 91.1267V90.5609L42.9415 89.9913H43.5093V89.4254L44.077 89.9913H44.6447L44.077 89.4235Z" fill="#BC2045"/>
<path d="M40.8599 73.3327L40.2921 72.7669V72.765H39.7244L39.1567 72.1973V72.765H38.589L39.1567 73.3327V73.9023L39.7244 74.4682V74.4701L40.2921 75.0378V74.4701L39.7244 73.9023H40.2921V73.3346L40.8599 73.9005H41.4276L40.8599 73.3327Z" fill="#BC2045"/>
<path d="M40.8599 76.5515V76.5496L40.2921 75.9837H39.7244L39.1567 75.416V75.9837H38.589L39.1567 76.5515V77.1192L39.7244 77.6869L40.2921 78.2547V77.6869L39.7244 77.1192H40.2921V76.5515L40.8599 77.1192H41.4276L40.8599 76.5515Z" fill="#BC2045"/>
<path d="M40.8599 79.7702V79.7683L40.2921 79.2024V79.2005H39.7244L39.1567 78.6328V79.2005H38.589L39.1567 79.7702V80.3379L39.7244 80.9037V80.9056L40.2921 81.4734V80.9056L39.7244 80.3379H40.2921V79.7702L40.8599 80.336H41.4276L40.8599 79.7702Z" fill="#BC2045"/>
<path d="M40.8599 82.988L40.2921 82.4203H39.7244L39.1567 81.8525V82.4203H38.589L39.1567 82.988V83.5557L39.7244 84.1235L40.2921 84.6912V84.1235L39.7244 83.5557H40.2921V82.9899L40.8599 83.5557H41.4276L40.8599 82.988Z" fill="#BC2045"/>
<path d="M40.8599 86.2067V86.2048L40.2921 85.639V85.6371H39.7244L39.1567 85.0693V85.6371H38.589L39.1567 86.2067V86.7744L39.7244 87.3421L40.2921 87.9099V87.3421L39.7244 86.7744H40.2921V86.2067L40.8599 86.7725H41.4276L40.8599 86.2067Z" fill="#BC2045"/>
<path d="M40.8599 89.4235L40.2921 88.8558H39.7244L39.1567 88.2881V88.8558H38.589L39.1567 89.4235V89.9913L39.7244 90.559V90.5609L40.2921 91.1267V90.5609L39.7244 89.9913H40.2921V89.4254L40.8599 89.9913H41.4276L40.8599 89.4235Z" fill="#BC2045"/>
<path d="M37.6427 73.3327L37.075 72.7669V72.765H36.5073L35.9396 72.1973V72.765H35.3718L35.9396 73.3327V73.9023L36.5073 74.4682V74.4701L37.075 75.0378V74.4701L36.5073 73.9023H37.075V73.3346L37.6427 73.9005H38.2105L37.6427 73.3327Z" fill="#BC2045"/>
<path d="M37.6427 76.5515V76.5496L37.075 75.9837H36.5073L35.9396 75.416V75.9837H35.3718L35.9396 76.5515V77.1192L36.5073 77.6869L37.075 78.2547V77.6869L36.5073 77.1192H37.075V76.5515L37.6427 77.1192H38.2105L37.6427 76.5515Z" fill="#BC2045"/>
<path d="M37.6427 79.7702V79.7683L37.075 79.2024V79.2005H36.5073L35.9396 78.6328V79.2005H35.3718L35.9396 79.7702V80.3379L36.5073 80.9037V80.9056L37.075 81.4734V80.9056L36.5073 80.3379H37.075V79.7702L37.6427 80.336H38.2105L37.6427 79.7702Z" fill="#BC2045"/>
<path d="M37.6427 82.988L37.075 82.4203H36.5073L35.9396 81.8525V82.4203H35.3718L35.9396 82.988V83.5557L36.5073 84.1235L37.075 84.6912V84.1235L36.5073 83.5557H37.075V82.9899L37.6427 83.5557H38.2105L37.6427 82.988Z" fill="#BC2045"/>
<path d="M37.6427 86.2067V86.2048L37.075 85.639V85.6371H36.5073L35.9396 85.0693V85.6371H35.3718L35.9396 86.2067V86.7744L36.5073 87.3421L37.075 87.9099V87.3421L36.5073 86.7744H37.075V86.2067L37.6427 86.7725H38.2105L37.6427 86.2067Z" fill="#BC2045"/>
<path d="M37.6427 89.4235L37.075 88.8558H36.5073L35.9396 88.2881V88.8558H35.3718L35.9396 89.4235V89.9913L36.5073 90.559V90.5609L37.075 91.1267V90.5609L36.5073 89.9913H37.075V89.4254L37.6427 89.9913H38.2105L37.6427 89.4235Z" fill="#BC2045"/>
<path d="M34.4256 73.3327L33.8579 72.7669V72.765H33.2902L32.7224 72.1973V72.765H32.1547L32.7224 73.3327V73.9023L33.2902 74.4682V74.4701L33.8579 75.0378V74.4701L33.2902 73.9023H33.8579V73.3346L34.4256 73.9005H34.9933L34.4256 73.3327Z" fill="#BC2045"/>
<path d="M34.4256 76.5515V76.5496L33.8579 75.9837H33.2902L32.7224 75.416V75.9837H32.1547L32.7224 76.5515V77.1192L33.2902 77.6869L33.8579 78.2547V77.6869L33.2902 77.1192H33.8579V76.5515L34.4256 77.1192H34.9933L34.4256 76.5515Z" fill="#BC2045"/>
<path d="M34.4256 79.7702V79.7683L33.8579 79.2024V79.2005H33.2902L32.7224 78.6328V79.2005H32.1547L32.7224 79.7702V80.3379L33.2902 80.9037V80.9056L33.8579 81.4734V80.9056L33.2902 80.3379H33.8579V79.7702L34.4256 80.336H34.9933L34.4256 79.7702Z" fill="#BC2045"/>
<path d="M34.4256 82.988L33.8579 82.4203H33.2902L32.7224 81.8525V82.4203H32.1547L32.7224 82.988V83.5557L33.2902 84.1235L33.8579 84.6912V84.1235L33.2902 83.5557H33.8579V82.9899L34.4256 83.5557H34.9933L34.4256 82.988Z" fill="#BC2045"/>
<path d="M34.4256 86.2067V86.2048L33.8579 85.639V85.6371H33.2902L32.7224 85.0693V85.6371H32.1547L32.7224 86.2067V86.7744L33.2902 87.3421L33.8579 87.9099V87.3421L33.2902 86.7744H33.8579V86.2067L34.4256 86.7725H34.9933L34.4256 86.2067Z" fill="#BC2045"/>
<path d="M34.4256 89.4235L33.8579 88.8558H33.2902L32.7224 88.2881V88.8558H32.1547L32.7224 89.4235V89.9913L33.2902 90.559V90.5609L33.8579 91.1267V90.5609L33.2902 89.9913H33.8579V89.4254L34.4256 89.9913H34.9933L34.4256 89.4235Z" fill="#BC2045"/>
<path d="M31.2085 73.3327L30.6407 72.7669V72.765H30.073L29.5053 72.1973V72.765H28.9376L29.5053 73.3327V73.9023L30.073 74.4682V74.4701L30.6407 75.0378V74.4701L30.073 73.9023H30.6407V73.3346L31.2085 73.9005H31.7762L31.2085 73.3327Z" fill="#BC2045"/>
<path d="M31.2085 76.5515V76.5496L30.6407 75.9837H30.073L29.5053 75.416V75.9837H28.9376L29.5053 76.5515V77.1192L30.073 77.6869L30.6407 78.2547V77.6869L30.073 77.1192H30.6407V76.5515L31.2085 77.1192H31.7762L31.2085 76.5515Z" fill="#BC2045"/>
<path d="M31.2085 79.7702V79.7683L30.6407 79.2024V79.2005H30.073L29.5053 78.6328V79.2005H28.9376L29.5053 79.7702V80.3379L30.073 80.9037V80.9056L30.6407 81.4734V80.9056L30.073 80.3379H30.6407V79.7702L31.2085 80.336H31.7762L31.2085 79.7702Z" fill="#BC2045"/>
<path d="M31.2085 82.988L30.6407 82.4203H30.073L29.5053 81.8525V82.4203H28.9376L29.5053 82.988V83.5557L30.073 84.1235L30.6407 84.6912V84.1235L30.073 83.5557H30.6407V82.9899L31.2085 83.5557H31.7762L31.2085 82.988Z" fill="#BC2045"/>
<path d="M31.2085 86.2067V86.2048L30.6407 85.639V85.6371H30.073L29.5053 85.0693V85.6371H28.9376L29.5053 86.2067V86.7744L30.073 87.3421L30.6407 87.9099V87.3421L30.073 86.7744H30.6407V86.2067L31.2085 86.7725H31.7762L31.2085 86.2067Z" fill="#BC2045"/>
<path d="M31.2085 89.4235L30.6407 88.8558H30.073L29.5053 88.2881V88.8558H28.9376L29.5053 89.4235V89.9913L30.073 90.559V90.5609L30.6407 91.1267V90.5609L30.073 89.9913H30.6407V89.4254L31.2085 89.9913H31.7762L31.2085 89.4235Z" fill="#BC2045"/>
<path d="M27.9913 73.3327L27.4236 72.7669V72.765H26.8559L26.2882 72.1973V72.765H25.7204L26.2882 73.3327V73.9023L26.8559 74.4682V74.4701L27.4236 75.0378V74.4701L26.8559 73.9023H27.4236V73.3346L27.9913 73.9005H28.5591L27.9913 73.3327Z" fill="#BC2045"/>
<path d="M27.9913 76.5515V76.5496L27.4236 75.9837H26.8559L26.2882 75.416V75.9837H25.7204L26.2882 76.5515V77.1192L26.8559 77.6869L27.4236 78.2547V77.6869L26.8559 77.1192H27.4236V76.5515L27.9913 77.1192H28.5591L27.9913 76.5515Z" fill="#BC2045"/>
<path d="M27.9913 79.7702V79.7683L27.4236 79.2024V79.2005H26.8559L26.2882 78.6328V79.2005H25.7204L26.2882 79.7702V80.3379L26.8559 80.9037V80.9056L27.4236 81.4734V80.9056L26.8559 80.3379H27.4236V79.7702L27.9913 80.336H28.5591L27.9913 79.7702Z" fill="#BC2045"/>
<path d="M27.9913 82.988L27.4236 82.4203H26.8559L26.2882 81.8525V82.4203H25.7204L26.2882 82.988V83.5557L26.8559 84.1235L27.4236 84.6912V84.1235L26.8559 83.5557H27.4236V82.9899L27.9913 83.5557H28.5591L27.9913 82.988Z" fill="#BC2045"/>
<path d="M27.9913 86.2067V86.2048L27.4236 85.639V85.6371H26.8559L26.2882 85.0693V85.6371H25.7204L26.2882 86.2067V86.7744L26.8559 87.3421L27.4236 87.9099V87.3421L26.8559 86.7744H27.4236V86.2067L27.9913 86.7725H28.5591L27.9913 86.2067Z" fill="#BC2045"/>
<path d="M27.9913 89.4235L27.4236 88.8558H26.8559L26.2882 88.2881V88.8558H25.7204L26.2882 89.4235V89.9913L26.8559 90.559V90.5609L27.4236 91.1267V90.5609L26.8559 89.9913H27.4236V89.4254L27.9913 89.9913H28.5591L27.9913 89.4235Z" fill="#BC2045"/>
<path d="M24.7742 73.3327L24.2065 72.7669V72.765H23.6388L23.071 72.1973V72.765H22.5033L23.071 73.3327V73.9023L23.6388 74.4682V74.4701L24.2065 75.0378V74.4701L23.6388 73.9023H24.2065V73.3346L24.7742 73.9005H25.3419L24.7742 73.3327Z" fill="#BC2045"/>
<path d="M24.7742 76.5515V76.5496L24.2065 75.9837H23.6388L23.071 75.416V75.9837H22.5033L23.071 76.5515V77.1192L23.6388 77.6869L24.2065 78.2547V77.6869L23.6388 77.1192H24.2065V76.5515L24.7742 77.1192H25.3419L24.7742 76.5515Z" fill="#BC2045"/>
<path d="M24.7742 79.7702V79.7683L24.2065 79.2024V79.2005H23.6388L23.071 78.6328V79.2005H22.5033L23.071 79.7702V80.3379L23.6388 80.9037V80.9056L24.2065 81.4734V80.9056L23.6388 80.3379H24.2065V79.7702L24.7742 80.336H25.3419L24.7742 79.7702Z" fill="#BC2045"/>
<path d="M24.7742 82.988L24.2065 82.4203H23.6388L23.071 81.8525V82.4203H22.5033L23.071 82.988V83.5557L23.6388 84.1235L24.2065 84.6912V84.1235L23.6388 83.5557H24.2065V82.9899L24.7742 83.5557H25.3419L24.7742 82.988Z" fill="#BC2045"/>
<path d="M24.7742 86.2067V86.2048L24.2065 85.639V85.6371H23.6388L23.071 85.0693V85.6371H22.5033L23.071 86.2067V86.7744L23.6388 87.3421L24.2065 87.9099V87.3421L23.6388 86.7744H24.2065V86.2067L24.7742 86.7725H25.3419L24.7742 86.2067Z" fill="#BC2045"/>
<path d="M24.7742 89.4235L24.2065 88.8558H23.6388L23.071 88.2881V88.8558H22.5033L23.071 89.4235V89.9913L23.6388 90.559V90.5609L24.2065 91.1267V90.5609L23.6388 89.9913H24.2065V89.4254L24.7742 89.9913H25.3419L24.7742 89.4235Z" fill="#BC2045"/>
</g>
<path d="M23.5953 73.7516C23.5953 73.7516 23.4098 76.2704 23.8318 79.109C24.3031 82.2864 25.2512 84.2035 25.2512 84.2035L24.0305 84.5044L23.2414 83.4522L22.0321 76.5921L22.4049 73.5566L23.5953 73.7516Z" fill="#BC2045"/>
<path d="M76.0269 73.7413C76.0269 73.7413 76.2445 76.2582 75.8622 79.1026C75.4346 82.2856 74.511 84.214 74.511 84.214L75.7355 84.4998L76.5095 83.4381L77.6279 76.561L77.2153 73.5312L76.0269 73.7432V73.7413Z" fill="#BC2045"/>
<path d="M71.9031 71.808C73.7993 71.808 75.7996 72.5195 75.9719 73.5168C75.9719 73.5168 75.9946 73.5925 76.0248 73.7534L77.1603 73.8272C77.1603 73.8272 77.4669 75.5815 76.9729 79.0124C76.3712 83.2023 75.5726 84.139 75.5726 84.139L74.5052 84.1977C74.2781 84.6576 74.1248 84.809 74.1248 84.809C74.1248 84.809 73.6612 84.985 72.8664 84.985C72.5617 84.985 72.2097 84.9585 71.818 84.8884C70.374 84.6273 69.8215 84.211 69.5471 84.1409C70.569 88.1302 72.5333 90.9215 72.6166 91.2357C73.0973 93.0486 61.9452 98.0314 49.8242 98.0314H49.792C37.6691 98.0314 26.517 93.0486 26.9995 91.2357C27.0828 90.9234 29.0472 88.1302 30.0691 84.1409C29.7947 84.211 29.2421 84.6292 27.7982 84.8884C27.4045 84.9604 27.0677 84.985 26.7857 84.985C26.0495 84.985 25.6881 84.809 25.6881 84.809C25.6881 84.809 25.5102 84.6595 25.249 84.2053L24.0455 84.139C24.0455 84.139 23.2469 83.2023 22.6451 79.0124C22.153 75.5815 22.4577 73.8272 22.4577 73.8272L23.5932 73.7534C23.6235 73.5944 23.6462 73.5168 23.6462 73.5168C23.8184 72.5195 25.8187 71.808 27.7149 71.808C28.5248 71.808 29.3178 71.9385 29.9385 72.2319L35.9716 76.9005C35.9716 76.9005 41.5448 78.4788 49.7352 78.4788H49.8771C58.0676 78.4788 63.6408 76.9005 63.6408 76.9005L69.6739 72.2319C70.2965 71.9385 71.0875 71.808 71.8974 71.808M71.9031 71.2402C70.9512 71.2402 70.0996 71.4049 69.4354 71.7171C69.3976 71.7342 69.3635 71.7569 69.3294 71.7815L63.3834 76.382C61.3926 76.927 56.1714 77.9092 49.879 77.9092H49.7371C43.4448 77.9092 38.2217 76.927 36.2327 76.382L30.2886 71.7815C30.2564 71.7569 30.2205 71.7342 30.1826 71.7171C29.5222 71.4049 28.6687 71.2402 27.7168 71.2402C26.71 71.2402 25.6559 71.4295 24.8251 71.7607C23.9111 72.124 23.3339 72.6236 23.139 73.2121L22.4199 73.2576C22.1587 73.2746 21.943 73.4676 21.8976 73.7269C21.8843 73.8026 21.5815 75.6099 22.083 79.09C22.6905 83.3215 23.5194 84.3964 23.6121 84.5043C23.7124 84.6216 23.8581 84.6935 24.0133 84.703L24.9198 84.7522C25.1241 85.0625 25.2737 85.2007 25.3229 85.2423C25.3588 85.2726 25.3986 85.2972 25.4402 85.318C25.5197 85.3559 25.9606 85.5508 26.7857 85.5508C27.1358 85.5508 27.5105 85.5148 27.8985 85.4448C28.4397 85.3464 28.8636 85.2291 29.1986 85.1136C28.4075 87.6192 27.3042 89.5306 26.7971 90.4106C26.5719 90.8004 26.4867 90.9461 26.4507 91.088C26.3542 91.4552 26.4602 91.8431 26.7687 92.2443C27.7319 93.4971 30.8431 95.0546 34.8834 96.3074C39.6448 97.7835 44.9398 98.5972 49.792 98.5972H49.8242C54.6763 98.5972 59.9714 97.7835 64.7327 96.3074C68.7749 95.0546 71.8842 93.4971 72.8475 92.2443C73.1559 91.8431 73.2619 91.4552 73.1654 91.088C73.1275 90.948 73.0443 90.8004 72.8191 90.4106C72.3119 89.5306 71.2086 87.6192 70.4176 85.1136C70.7525 85.2291 71.1764 85.3483 71.7177 85.4448C72.1056 85.5148 72.4936 85.5508 72.8683 85.5508C73.7407 85.5508 74.2687 85.3615 74.3273 85.3388C74.403 85.3105 74.4712 85.2669 74.5279 85.2102C74.5677 85.1704 74.6888 85.0379 74.8572 84.7446L75.6047 84.703C75.7599 84.6935 75.9056 84.6235 76.0059 84.5043C76.0986 84.3964 76.9275 83.3215 77.535 79.09C78.0346 75.6099 77.7337 73.8007 77.7205 73.7269C77.675 73.4695 77.4593 73.2746 77.1982 73.2576L76.479 73.2121C76.2841 72.6236 75.7069 72.1259 74.7929 71.7607C73.964 71.4295 72.9099 71.2402 71.9031 71.2402Z" fill="black"/>
</g>
</g>
<defs>
<filter id="filter0_d_1944_15331" x="0" y="0" width="100" height="100" filterUnits="userSpaceOnUse" color-interpolation-filters="sRGB">
<feFlood flood-opacity="0" result="BackgroundImageFix"/>
<feColorMatrix in="SourceAlpha" type="matrix" values="0 0 0 0 0 0 0 0 0 0 0 0 0 0 0 0 0 0 127 0" result="hardAlpha"/>
<feOffset/>
<feGaussianBlur stdDeviation="5"/>
<feComposite in2="hardAlpha" operator="out"/>
<feColorMatrix type="matrix" values="0 0 0 0 0 0 0 0 0 0 0 0 0 0 0 0 0 0 0.3 0"/>
<feBlend mode="normal" in2="BackgroundImageFix" result="effect1_dropShadow_1944_15331"/>
<feBlend mode="normal" in="SourceGraphic" in2="effect1_dropShadow_1944_15331" result="shape"/>
</filter>
</defs>
</svg>
