<svg width="100" height="100" viewBox="0 0 100 100" fill="none" xmlns="http://www.w3.org/2000/svg">
<g filter="url(#filter0_d_1944_14119)">
<circle cx="50" cy="50" r="39.5" fill="white" stroke="#00E2CC"/>
<mask id="mask0_1944_14119" style="mask-type:alpha" maskUnits="userSpaceOnUse" x="10" y="10" width="80" height="80">
<circle cx="49.9991" cy="50" r="39.0244" fill="white"/>
</mask>
<g mask="url(#mask0_1944_14119)">
<path d="M50.0005 20.2959H50.0195H50.0384C66.3807 20.2959 79.6287 33.5438 79.6287 49.8862C79.6287 59.5403 75.0021 68.5324 67.8485 73.9344C69.4185 75.1526 71.518 75.7238 75.3274 75.9545C82.1859 76.3745 84.1417 74.2636 86.3699 75.0239C88.5981 75.7843 88.6018 77.8309 88.6018 78.3756C88.6018 81.1296 85.4204 85.0601 76.625 86.1042C72.1271 86.6376 68.8851 85.8356 68.8851 85.8356C68.8851 85.8356 68.4841 91.1015 75.5317 97.6385C78.2706 100.181 79.2768 100.661 79.8027 102.322C80.3361 104.013 79.8443 107.236 75.301 107.697C71.0149 108.136 67.0125 106.056 62.8361 100.309C61.1338 97.9638 60.6912 95.6411 60.4529 95.0434C60.6874 97.1278 60.8955 99.1479 61.618 101.792C62.159 103.778 62.6545 105.291 64.285 108.261C65.0832 109.717 65.3177 112.335 63.0139 113.898C61.27 115.082 58.0507 115.543 55.2815 113.156C52.1341 110.444 51.6348 107.122 50.6663 101.834C50.2994 99.8401 50.0081 96.2577 50.0081 96.2577C50.0081 96.2577 49.7168 99.8401 49.3537 101.834C48.3814 107.126 47.8859 110.448 44.7384 113.156C41.9693 115.543 38.75 115.078 37.0061 113.898C34.7023 112.335 34.933 109.717 35.735 108.261C37.3655 105.288 37.861 103.778 38.402 101.792C39.1245 99.1479 39.3326 97.124 39.5671 95.0434C39.3288 95.6373 38.8862 97.9638 37.1839 100.309C33.0075 106.056 29.0051 108.132 24.719 107.697C20.1719 107.232 19.6839 104.009 20.2173 102.322C20.7431 100.661 21.7456 100.181 24.4883 97.6385C31.5359 91.1015 31.1349 85.8356 31.1349 85.8356C31.1349 85.8356 27.8929 86.6376 23.395 86.1042C14.5958 85.0601 11.4182 81.1296 11.4182 78.3756C11.4182 77.8309 11.4219 75.7843 13.6501 75.0239C15.8783 74.2636 17.834 76.3745 24.6926 75.9545C28.502 75.72 30.6015 75.1526 32.1715 73.9344C25.0179 68.5324 20.3913 59.5403 20.3913 49.8862C20.3762 33.5438 33.6241 20.2959 49.9665 20.2959H49.9854H50.0043H50.0005Z" fill="#A9C0FF"/>
<path d="M59.7002 115.154C58.2021 115.154 56.5641 114.647 55.0888 113.376C51.9905 110.705 51.3928 107.444 50.4925 102.504L50.379 101.887C50.239 101.119 50.1066 100.113 50.0007 99.1635C49.8948 100.113 49.7624 101.119 49.6224 101.887L49.5089 102.504C48.6086 107.444 48.0108 110.705 44.9126 113.376C42.1283 115.774 38.7729 115.453 36.836 114.136C34.343 112.445 34.657 109.616 35.4741 108.129C37.1273 105.118 37.5926 103.639 38.1146 101.721C38.5232 100.223 38.7653 98.9403 38.9393 97.7222C38.5875 98.562 38.0995 99.5153 37.3959 100.476C33.333 106.067 29.289 108.451 24.6738 107.978C22.1732 107.724 20.9778 106.65 20.418 105.799C19.616 104.577 19.6387 103.155 19.93 102.235C20.3461 100.915 21.0762 100.276 22.5288 99.0008C23.0282 98.562 23.5956 98.0665 24.2804 97.4309C27.859 94.1095 29.4517 91.1399 30.1553 89.2295C30.6925 87.773 30.8097 86.6987 30.8324 86.188C29.8716 86.3809 27.0419 86.8273 23.3422 86.3885C13.6919 85.2384 11.1157 80.8086 11.1157 78.3724C11.1157 76.0648 12.4359 75.1304 13.5405 74.7521C14.6035 74.3889 15.5833 74.6273 16.9376 74.9526C18.5984 75.3536 20.8681 75.9021 24.6586 75.6676C28.1655 75.4519 30.1893 74.9564 31.6836 73.9236C24.4203 68.287 20.0926 59.329 20.0926 49.8791C20.0926 33.4119 33.4956 20.0127 49.9666 20.0127H50.0196C66.5095 20.0127 79.9087 33.4119 79.9087 49.8867C79.9087 59.3365 75.5848 68.2946 68.3178 73.9312C69.812 74.9639 71.8359 75.4595 75.3427 75.6751C79.1295 75.9059 81.403 75.3574 83.0637 74.9602C84.418 74.6348 85.3978 74.3965 86.4608 74.7597C87.5655 75.138 88.8857 76.0723 88.8857 78.3799C88.8857 80.8162 86.3095 85.246 76.6554 86.3885C72.9594 86.8273 70.1298 86.3809 69.1651 86.188C69.1878 86.6987 69.3051 87.773 69.8423 89.2295C70.5459 91.1361 72.1385 94.1095 75.7172 97.4309C76.4019 98.0665 76.9694 98.562 77.4687 99.0008C78.9214 100.276 79.6515 100.919 80.0676 102.235C80.3589 103.158 80.3816 104.577 79.5796 105.799C79.0197 106.654 77.8243 107.724 75.3238 107.978C70.7048 108.451 66.6646 106.064 62.6017 100.476C61.9019 99.5115 61.4101 98.5582 61.0583 97.7222C61.2361 98.9441 61.4744 100.227 61.8829 101.721C62.405 103.639 62.8741 105.118 64.5235 108.129C65.3406 109.62 65.6546 112.445 63.1616 114.136C62.2499 114.753 61.0242 115.154 59.6964 115.154H59.7002ZM39.5522 94.7602C39.5749 94.7602 39.5975 94.7602 39.6202 94.7677C39.7564 94.8018 39.8472 94.9342 39.8321 95.0741L39.798 95.3616C39.5786 97.3099 39.3517 99.3224 38.6594 101.868C38.126 103.824 37.6493 105.337 35.9659 108.401C35.2471 109.707 34.971 112.188 37.15 113.667C38.9166 114.867 41.9808 115.15 44.5381 112.949C47.485 110.41 48.0373 107.399 48.949 102.406L49.0625 101.789C49.4219 99.8331 49.7132 96.2771 49.7132 96.2431C49.7245 96.0955 49.8494 95.982 49.9969 95.982C50.1444 95.982 50.2693 96.0955 50.2806 96.2431C50.2806 96.2771 50.5757 99.8331 50.9351 101.789L51.0486 102.406C51.9603 107.395 52.5088 110.41 55.4595 112.949C58.0168 115.154 61.0847 114.867 62.8476 113.667C65.0266 112.188 64.7467 109.71 64.0317 108.401C62.3483 105.337 61.8716 103.824 61.3382 101.868C60.6459 99.3224 60.4189 97.3099 60.1995 95.3616L60.1655 95.0741C60.1504 94.9342 60.2411 94.8018 60.3773 94.7677C60.5173 94.7337 60.6573 94.8055 60.7102 94.938C60.7632 95.0704 60.8199 95.2557 60.8956 95.513C61.1869 96.489 61.7279 98.3048 63.0632 100.143C66.9937 105.553 70.8713 107.864 75.2708 107.414C77.0753 107.229 78.4031 106.563 79.1105 105.485C79.8066 104.429 79.7839 103.2 79.5304 102.402C79.1597 101.233 78.5582 100.703 77.098 99.4208C76.5949 98.9781 76.0274 98.4788 75.3351 97.8395C68.2686 91.2836 68.5826 86.0291 68.6015 85.8097C68.6091 85.7264 68.6507 85.6508 68.7188 85.6016C68.7868 85.5524 68.8739 85.5373 68.9533 85.5562C68.9836 85.5638 72.2066 86.3393 76.5911 85.821C82.239 85.1514 88.3183 82.5336 88.3183 78.3762C88.3183 76.7911 87.6298 75.7546 86.2792 75.2931C85.3713 74.9829 84.5088 75.1909 83.1999 75.5087C81.5051 75.9172 79.1862 76.4771 75.3124 76.2388C71.4387 76.0005 69.2975 75.4179 67.6747 74.1582C67.6066 74.1052 67.565 74.022 67.565 73.9312C67.565 73.8442 67.6066 73.761 67.6784 73.708C74.9833 68.1924 79.3451 59.2874 79.3451 49.8867C79.3413 33.7259 66.1955 20.5801 50.0385 20.5801H49.9855C33.8058 20.5801 20.6601 33.7259 20.6601 49.8867C20.6601 59.2874 25.0218 68.1924 32.3267 73.708C32.3986 73.761 32.4402 73.8442 32.4402 73.9312C32.4402 74.0182 32.3986 74.1014 32.3305 74.1582C30.7076 75.4179 28.5664 76.0005 24.6927 76.2388C20.8189 76.4771 18.5 75.9172 16.8052 75.5087C15.4963 75.1947 14.63 74.9829 13.7259 75.2931C12.3716 75.7546 11.6869 76.7911 11.6869 78.3762C11.6869 82.5374 17.7661 85.1514 23.4141 85.821C27.7985 86.3431 31.0216 85.5638 31.0518 85.5562C31.1313 85.5373 31.2183 85.5562 31.2864 85.6016C31.3545 85.647 31.3961 85.7264 31.4037 85.8097C31.4188 86.0291 31.7366 91.2874 24.67 97.8395C23.9777 98.4788 23.4103 98.9781 22.9071 99.4208C21.4469 100.703 20.8454 101.233 20.4747 102.402C20.2212 103.2 20.2023 104.429 20.8946 105.485C21.602 106.563 22.9298 107.229 24.7343 107.414C29.1339 107.864 33.0076 105.553 36.9419 100.143C38.2773 98.3048 38.8183 96.489 39.1095 95.513C39.1852 95.2557 39.2419 95.0704 39.2949 94.938C39.3403 94.8282 39.4462 94.7602 39.5597 94.7602H39.5522Z" fill="black"/>
<path d="M40.3241 47.8927C41.1347 47.8927 41.7919 46.9544 41.7919 45.7969C41.7919 44.6395 41.1347 43.7012 40.3241 43.7012C39.5135 43.7012 38.8563 44.6395 38.8563 45.7969C38.8563 46.9544 39.5135 47.8927 40.3241 47.8927Z" fill="black"/>
<path d="M59.6764 47.8927C60.4871 47.8927 61.1442 46.9544 61.1442 45.7969C61.1442 44.6395 60.4871 43.7012 59.6764 43.7012C58.8658 43.7012 58.2086 44.6395 58.2086 45.7969C58.2086 46.9544 58.8658 47.8927 59.6764 47.8927Z" fill="black"/>
<path d="M59.6321 52.4323C60.1693 52.5799 60.54 53.1435 60.4984 53.7602C60.0861 59.9869 55.9589 62.7371 49.9969 62.7371C44.035 62.7371 39.9343 60.0058 39.4992 53.8207C39.4538 53.1814 39.8548 52.6026 40.4147 52.4777C41.5799 52.2205 43.5546 51.9746 44.8521 51.9746C46.4788 51.9746 49.0588 52.4437 49.8381 52.6404C49.9932 52.6782 50.1483 52.682 50.3034 52.648C51.1583 52.4588 54.1695 51.9746 55.9059 51.9746C57.1921 51.9746 58.6977 52.1751 59.6321 52.4286V52.4323Z" fill="#EB85A3"/>
<path d="M50.0011 62.8812C43.5511 62.8812 39.7719 59.6657 39.3634 53.8324C39.3142 53.1249 39.7568 52.4818 40.3886 52.3419C41.5045 52.0922 43.483 51.835 44.8562 51.835C46.5169 51.835 49.1196 52.3154 49.8762 52.5045C50.0086 52.5386 50.141 52.5386 50.2734 52.5121C51.1208 52.3267 54.1358 51.835 55.9062 51.835C57.1546 51.835 58.664 52.0203 59.6703 52.2965C60.2793 52.4629 60.6879 53.0833 60.6425 53.7718C60.2529 59.6468 56.4737 62.8812 50.0011 62.8812ZM44.8562 52.1187C43.5208 52.1187 41.531 52.3759 40.4491 52.618C39.9497 52.7277 39.6055 53.2422 39.6433 53.8097C39.927 57.8158 41.9509 62.5937 50.0011 62.5937C58.0512 62.5937 60.094 57.7856 60.3588 53.7491C60.3966 53.2044 60.0675 52.6937 59.5946 52.5651C58.6262 52.3003 57.1092 52.1149 55.9062 52.1149C54.238 52.1149 51.2456 52.584 50.334 52.7845C50.1599 52.8223 49.9784 52.8223 49.8043 52.7769C49.0591 52.5878 46.4905 52.1149 44.8562 52.1149V52.1187Z" fill="black"/>
<path d="M58.0468 55.9092C58.2322 55.9092 58.3154 56.1021 58.1716 56.2042C57.2221 56.8625 54.5929 58.3681 50.4128 58.3681C46.7168 58.3681 43.6489 57.0289 42.4383 56.4161C42.2681 56.3291 42.34 56.1097 42.5367 56.1097L58.0468 55.9092Z" fill="#AD475F"/>
<path d="M54.3846 40.3336H47.3637L45.3779 39.1289H54.3846V40.3336Z" fill="black"/>
<path d="M52.4096 41.0791H47.6395V41.6649H52.4096V41.0791Z" fill="black"/>
<path d="M47.1984 39.9518C46.658 39.4305 45.8926 39.1289 45.0871 39.1289H34.6473C33.1967 39.1289 32.0216 40.304 32.0216 41.7546L32.5813 45.9859C33.0991 49.2061 35.7927 50.6201 38.4515 50.6201C41.1103 50.6201 43.6714 49.5635 45.441 47.8113C47.0014 46.2632 47.9778 44.1762 47.9778 41.7929C47.9778 41.045 47.6762 40.4121 47.1984 39.9518ZM44.7715 47.7242C43.0699 49.2549 40.8261 50.097 38.4515 50.097C37.1613 50.097 35.9409 49.7379 35.0151 49.0841C33.9638 48.3414 33.3205 47.2744 33.0991 45.9092L32.5446 41.7214C32.5621 40.576 33.4983 39.6519 34.6473 39.6519H45.0871C45.7095 39.6519 46.318 39.8716 46.7573 40.2552C47.0764 40.5341 47.4547 41.0275 47.4547 41.7929C47.4547 44.0594 46.5028 46.1655 44.7715 47.7242Z" fill="black"/>
<path d="M47.4551 41.7933V41.8369L34.4889 48.6521C33.7462 47.9495 33.2807 47.0289 33.0994 45.9096L32.545 41.7218C32.5624 40.5764 33.4987 39.6523 34.6476 39.6523H45.0875C45.7099 39.6523 46.3183 39.872 46.7577 40.2556C47.0767 40.5345 47.4551 41.0279 47.4551 41.7933Z" fill="black"/>
<path d="M47.4548 41.8359C47.4426 44.085 46.4924 46.1754 44.7716 47.7236C43.07 49.2544 40.8261 50.0965 38.4515 50.0965C37.1614 50.0965 35.941 49.7373 35.0152 49.0835C34.8269 48.951 34.6508 48.8063 34.4886 48.6511L47.4548 41.8359Z" fill="#2D2D2D"/>
<path d="M51.7476 41.7929C51.7476 44.1762 52.7239 46.2632 54.2843 47.8113C56.0539 49.5635 58.5732 50.6201 61.2739 50.6201C63.9326 50.6201 66.6263 49.2061 67.1441 45.9859L67.7038 41.7546C67.7038 40.304 66.5287 39.1289 65.0781 39.1289H54.6382C53.8328 39.1289 53.0674 39.4305 52.5269 39.9518C52.0492 40.4121 51.7476 41.045 51.7476 41.7929ZM52.2706 41.7929C52.2706 41.0275 52.649 40.5341 52.968 40.2552C53.4074 39.8716 54.0158 39.6519 54.6382 39.6519H65.0781C66.227 39.6519 67.1633 40.576 67.1807 41.7214L66.6263 45.9092C66.4049 47.2744 65.7615 48.3414 64.7102 49.0841C63.7845 49.7379 62.564 50.097 61.2739 50.097C58.8993 50.097 56.6554 49.2549 54.9538 47.7242C53.2226 46.1655 52.2706 44.0594 52.2706 41.7929Z" fill="black"/>
<path d="M67.1803 41.7218L67.1646 41.8369L55.3405 48.0523C55.208 47.9477 55.079 47.8379 54.9534 47.7246C53.2326 46.1764 52.2824 44.086 52.2702 41.8369V41.7933C52.2702 41.0279 52.6486 40.5345 52.9676 40.2556C53.407 39.872 54.0154 39.6523 54.6379 39.6523H65.0777C66.2266 39.6523 67.1629 40.5764 67.1803 41.7218Z" fill="black"/>
<path d="M67.1645 41.8359V41.8394L66.6258 45.9087C66.4444 47.028 65.9789 47.9485 65.2362 48.6511C65.0741 48.8063 64.898 48.951 64.7097 49.0835C63.7839 49.7373 62.5635 50.0965 61.2733 50.0965C59.0748 50.0965 56.9879 49.3747 55.3403 48.0514L67.1645 41.8359Z" fill="#2D2D2D"/>
</g>
</g>
<defs>
<filter id="filter0_d_1944_14119" x="0" y="0" width="100" height="100" filterUnits="userSpaceOnUse" color-interpolation-filters="sRGB">
<feFlood flood-opacity="0" result="BackgroundImageFix"/>
<feColorMatrix in="SourceAlpha" type="matrix" values="0 0 0 0 0 0 0 0 0 0 0 0 0 0 0 0 0 0 127 0" result="hardAlpha"/>
<feOffset/>
<feGaussianBlur stdDeviation="5"/>
<feComposite in2="hardAlpha" operator="out"/>
<feColorMatrix type="matrix" values="0 0 0 0 0 0 0 0 0 0 0 0 0 0 0 0 0 0 0.3 0"/>
<feBlend mode="normal" in2="BackgroundImageFix" result="effect1_dropShadow_1944_14119"/>
<feBlend mode="normal" in="SourceGraphic" in2="effect1_dropShadow_1944_14119" result="shape"/>
</filter>
</defs>
</svg>
