<svg width="160" height="216" viewBox="0 0 160 216" fill="none" xmlns="http://www.w3.org/2000/svg">
<path d="M79.9997 32.7666H80.0359H80.072C111.34 32.7666 136.688 58.1143 136.688 89.3827C136.688 107.854 127.836 125.059 114.149 135.395C117.153 137.726 121.17 138.819 128.458 139.26C141.581 140.064 145.323 136.025 149.586 137.48C153.85 138.934 153.857 142.85 153.857 143.893C153.857 149.162 147.77 156.682 130.941 158.68C122.335 159.7 116.132 158.166 116.132 158.166C116.132 158.166 115.365 168.241 128.849 180.749C134.09 185.613 136.015 186.532 137.021 189.709C138.042 192.945 137.101 199.112 128.408 199.995C120.207 200.834 112.549 196.853 104.558 185.859C101.301 181.371 100.454 176.927 99.9984 175.783C100.447 179.772 100.845 183.637 102.228 188.696C103.263 192.496 104.211 195.391 107.331 201.073C108.858 203.86 109.307 208.869 104.899 211.858C101.562 214.123 95.4023 215.006 90.104 210.439C84.0819 205.25 83.1265 198.895 81.2736 188.776C80.5715 184.961 80.0141 178.107 80.0141 178.107C80.0141 178.107 79.4568 184.961 78.762 188.776C76.9018 198.902 75.9536 205.257 69.9315 210.439C64.6333 215.006 58.4737 214.116 55.1369 211.858C50.729 208.869 51.1705 203.86 52.7049 201.073C55.8246 195.384 56.7727 192.496 57.8078 188.696C59.1902 183.637 59.5883 179.764 60.0371 175.783C59.5811 176.92 58.7343 181.371 55.4771 185.859C47.4863 196.853 39.8284 200.827 31.6277 199.995C22.9276 199.104 21.9939 192.938 23.0144 189.709C24.0205 186.532 25.9386 185.613 31.1862 180.749C44.6707 168.241 43.9035 158.166 43.9035 158.166C43.9035 158.166 37.7005 159.7 29.0944 158.68C12.2587 156.682 6.17871 149.162 6.17871 143.893C6.17871 142.85 6.18595 138.934 10.4492 137.48C14.7124 136.025 18.4545 140.064 31.5771 139.26C38.8658 138.811 42.8829 137.726 45.8867 135.395C32.1995 125.059 23.3474 107.854 23.3474 89.3827C23.3184 58.1143 48.6661 32.7666 79.9345 32.7666H79.9707H80.0069H79.9997Z" fill="#A9C0FF"/>
<path d="M98.5584 214.261C95.6921 214.261 92.558 213.291 89.7352 210.859C83.8072 205.749 82.6636 199.51 80.9409 190.057L80.7238 188.877C80.456 187.408 80.2026 185.483 80 183.666C79.7973 185.483 79.544 187.408 79.2762 188.877L79.059 190.057C77.3364 199.51 76.1928 205.749 70.2648 210.859C64.9376 215.448 58.5174 214.833 54.8115 212.314C50.0417 209.079 50.6424 203.665 52.2058 200.82C55.3689 195.059 56.2591 192.229 57.258 188.559C58.0397 185.693 58.5029 183.239 58.8359 180.908C58.1628 182.515 57.229 184.339 55.8828 186.178C48.1091 196.875 40.3716 201.435 31.5412 200.531C26.7568 200.046 24.4696 197.99 23.3984 196.362C21.8639 194.024 21.9073 191.302 22.4647 189.543C23.2608 187.017 24.6578 185.794 27.4372 183.355C28.3926 182.515 29.4783 181.567 30.7884 180.351C37.6356 173.996 40.6828 168.314 42.0291 164.659C43.0569 161.872 43.2813 159.817 43.3247 158.839C41.4863 159.209 36.0722 160.063 28.9934 159.223C10.5291 157.023 5.59998 148.547 5.59998 143.886C5.59998 139.47 8.12606 137.683 10.2396 136.959C12.2735 136.264 14.1481 136.72 16.7393 137.342C19.9169 138.11 24.2597 139.159 31.5122 138.71C38.2219 138.298 42.0943 137.35 44.9533 135.374C31.0562 124.589 22.7759 107.449 22.7759 89.3686C22.7759 57.8613 48.4203 32.2241 79.9348 32.2241H80.0362C111.587 32.2241 137.224 57.8613 137.224 89.3831C137.224 107.464 128.951 124.603 115.047 135.388C117.906 137.364 121.778 138.312 128.488 138.725C135.733 139.166 140.083 138.117 143.261 137.357C145.852 136.734 147.726 136.278 149.76 136.973C151.874 137.697 154.4 139.485 154.4 143.9C154.4 148.561 149.471 157.037 130.999 159.223C123.928 160.063 118.514 159.209 116.668 158.839C116.711 159.817 116.936 161.872 117.964 164.659C119.31 168.307 122.357 173.996 129.204 180.351C130.514 181.567 131.6 182.515 132.556 183.355C135.335 185.794 136.732 187.024 137.528 189.543C138.085 191.309 138.129 194.024 136.594 196.362C135.523 197.997 133.236 200.046 128.452 200.531C119.614 201.435 111.884 196.868 104.11 186.178C102.771 184.332 101.83 182.508 101.157 180.908C101.497 183.246 101.953 185.7 102.735 188.559C103.734 192.229 104.631 195.059 107.787 200.82C109.35 203.672 109.951 209.079 105.181 212.314C103.437 213.494 101.092 214.261 98.5511 214.261H98.5584ZM60.0085 175.241C60.0519 175.241 60.0953 175.241 60.1387 175.255C60.3993 175.321 60.573 175.574 60.5441 175.842L60.4789 176.392C60.0591 180.119 59.6248 183.97 58.3003 188.841C57.2797 192.583 56.3677 195.479 53.1468 201.341C51.7716 203.838 51.2432 208.587 55.4123 211.417C58.7925 213.711 64.6553 214.254 69.5482 210.042C75.1867 205.185 76.2434 199.423 77.9878 189.869L78.2049 188.689C78.8926 184.947 79.4499 178.143 79.4499 178.078C79.4716 177.796 79.7105 177.579 79.9927 177.579C80.275 177.579 80.5139 177.796 80.5356 178.078C80.5356 178.143 81.1002 184.947 81.7878 188.689L82.0049 189.869C83.7493 199.416 84.7988 205.185 90.4445 210.042C95.3374 214.261 101.207 213.711 104.58 211.417C108.75 208.587 108.214 203.846 106.846 201.341C103.625 195.479 102.713 192.583 101.692 188.841C100.368 183.97 99.9336 180.119 99.5138 176.392L99.4486 175.842C99.4197 175.574 99.5934 175.321 99.854 175.255C100.122 175.19 100.39 175.328 100.491 175.581C100.592 175.834 100.701 176.189 100.846 176.681C101.403 178.549 102.438 182.023 104.993 185.541C112.513 195.891 119.932 200.314 128.35 199.452C131.803 199.098 134.343 197.824 135.697 195.761C137.029 193.741 136.985 191.389 136.5 189.862C135.791 187.625 134.64 186.612 131.846 184.158C130.884 183.311 129.798 182.356 128.473 181.133C114.953 168.589 115.553 158.535 115.59 158.116C115.604 157.956 115.684 157.812 115.814 157.718C115.944 157.623 116.111 157.595 116.263 157.631C116.321 157.645 122.487 159.129 130.876 158.137C141.683 156.856 153.314 151.848 153.314 143.893C153.314 140.86 151.997 138.877 149.413 137.994C147.676 137.4 146.026 137.798 143.521 138.406C140.279 139.188 135.842 140.259 128.43 139.803C121.018 139.347 116.921 138.233 113.816 135.822C113.686 135.721 113.606 135.562 113.606 135.388C113.606 135.222 113.686 135.062 113.823 134.961C127.8 124.408 136.146 107.37 136.146 89.3831C136.138 58.4621 110.986 33.3098 80.0724 33.3098H79.971C49.0139 33.3098 23.8616 58.4621 23.8616 89.3831C23.8616 107.37 32.2071 124.408 46.1838 134.961C46.3213 135.062 46.4009 135.222 46.4009 135.388C46.4009 135.555 46.3213 135.714 46.191 135.822C43.0859 138.233 38.9891 139.347 31.5774 139.803C24.1656 140.259 19.7287 139.188 16.486 138.406C13.9816 137.806 12.3241 137.4 10.5942 137.994C8.00301 138.877 6.69292 140.86 6.69292 143.893C6.69292 151.855 18.3245 156.856 29.1309 158.137C37.5198 159.136 43.6866 157.645 43.7445 157.631C43.8965 157.595 44.063 157.631 44.1933 157.718C44.3236 157.804 44.4032 157.956 44.4177 158.116C44.4466 158.535 45.0546 168.596 31.5339 181.133C30.2094 182.356 29.1237 183.311 28.161 184.158C25.3671 186.612 24.2163 187.625 23.5069 189.862C23.022 191.389 22.9858 193.741 24.3104 195.761C25.6639 197.824 28.2044 199.098 31.657 199.452C40.0748 200.314 47.4866 195.891 55.0142 185.541C57.5692 182.023 58.6043 178.549 59.1616 176.681C59.3064 176.189 59.4149 175.834 59.5163 175.581C59.6031 175.371 59.8058 175.241 60.0229 175.241H60.0085Z" fill="black"/>
<path d="M61.4855 85.5681C63.0365 85.5681 64.2939 83.7728 64.2939 81.5582C64.2939 79.3436 63.0365 77.5483 61.4855 77.5483C59.9345 77.5483 58.6771 79.3436 58.6771 81.5582C58.6771 83.7728 59.9345 85.5681 61.4855 85.5681Z" fill="black"/>
<path d="M98.513 85.5681C100.064 85.5681 101.321 83.7728 101.321 81.5582C101.321 79.3436 100.064 77.5483 98.513 77.5483C96.9619 77.5483 95.7046 79.3436 95.7046 81.5582C95.7046 83.7728 96.9619 85.5681 98.513 85.5681Z" fill="black"/>
<path d="M98.4282 94.2537C99.456 94.536 100.165 95.6145 100.086 96.7943C99.2967 108.708 91.4 113.97 79.9928 113.97C68.5856 113.97 60.7396 108.744 59.9072 96.9101C59.8204 95.6869 60.5876 94.5794 61.6588 94.3406C63.8881 93.8484 67.6664 93.3779 70.1491 93.3779C73.2614 93.3779 78.1978 94.2755 79.6888 94.6518C79.9856 94.7242 80.2823 94.7314 80.5791 94.6663C82.2149 94.3044 87.9764 93.3779 91.2987 93.3779C93.7596 93.3779 96.6404 93.7616 98.4282 94.2465V94.2537Z" fill="#EB85A3"/>
<path d="M80.0007 114.245C67.6598 114.245 60.429 108.093 59.6473 96.932C59.5532 95.5785 60.4 94.3481 61.6088 94.0802C63.744 93.6025 67.5295 93.1104 70.1569 93.1104C73.3344 93.1104 78.3142 94.0296 79.7618 94.3915C80.0152 94.4566 80.2685 94.4566 80.5218 94.406C82.1432 94.0513 87.9119 93.1104 91.2993 93.1104C93.6879 93.1104 96.5758 93.465 98.5012 93.9934C99.6665 94.3119 100.448 95.4989 100.361 96.8162C99.6158 108.057 92.385 114.245 80.0007 114.245ZM70.1569 93.6532C67.6019 93.6532 63.7947 94.1454 61.7246 94.6086C60.7692 94.8185 60.1105 95.8029 60.1829 96.8886C60.7257 104.554 64.5981 113.695 80.0007 113.695C95.4033 113.695 99.3118 104.496 99.8185 96.7728C99.8909 95.7305 99.2612 94.7534 98.3564 94.5073C96.5034 94.0006 93.601 93.646 91.2993 93.646C88.1073 93.646 82.382 94.5435 80.6376 94.9271C80.3047 94.9995 79.9573 94.9995 79.6243 94.9126C78.1984 94.5507 73.2838 93.646 70.1569 93.646V93.6532Z" fill="black"/>
<path d="M95.3949 100.906C95.7496 100.906 95.9088 101.275 95.6338 101.471C93.817 102.73 88.7866 105.611 80.7885 105.611C73.7169 105.611 67.8469 103.049 65.5307 101.876C65.205 101.71 65.3425 101.29 65.7189 101.29L95.3949 100.906Z" fill="#AD475F"/>
</svg>
