<svg width="120" height="162" viewBox="0 0 120 162" fill="none" xmlns="http://www.w3.org/2000/svg">
<path d="M59.7891 25.145H59.8161H59.8431C83.2058 25.145 102.145 44.0627 102.145 67.3992C102.145 81.185 95.5307 94.0254 85.3041 101.739C87.5485 103.479 90.5499 104.295 95.9958 104.624C105.801 105.224 108.597 102.209 111.782 103.295C114.967 104.381 114.973 107.303 114.973 108.081C114.973 112.014 110.424 117.627 97.8508 119.118C91.4206 119.879 86.7859 118.734 86.7859 118.734C86.7859 118.734 86.2127 126.254 96.2878 135.588C100.203 139.218 101.642 139.904 102.394 142.276C103.156 144.69 102.453 149.293 95.958 149.952C89.8307 150.579 84.109 147.607 78.1385 139.402C75.7049 136.053 75.0722 132.736 74.7314 131.882C75.0667 134.859 75.3642 137.743 76.3971 141.519C77.1705 144.355 77.8789 146.516 80.2098 150.757C81.3509 152.837 81.6862 156.575 78.3927 158.806C75.8996 160.497 71.2973 161.156 67.3387 157.747C62.8392 153.874 62.1253 149.131 60.7409 141.579C60.2163 138.732 59.7999 133.616 59.7999 133.616C59.7999 133.616 59.3835 138.732 58.8643 141.579C57.4744 149.136 56.766 153.879 52.2665 157.747C48.3078 161.156 43.7056 160.491 41.2125 158.806C37.919 156.575 38.2489 152.837 39.3954 150.757C41.7262 146.511 42.4347 144.355 43.208 141.519C44.241 137.743 44.5384 134.853 44.8737 131.882C44.533 132.73 43.9003 136.053 41.4667 139.402C35.4962 147.607 29.7745 150.573 23.6472 149.952C17.1467 149.287 16.4491 144.685 17.2116 142.276C17.9634 139.904 19.3965 139.218 23.3173 135.588C33.3925 126.254 32.8192 118.734 32.8192 118.734C32.8192 118.734 28.1845 119.879 21.7544 119.118C9.17531 117.627 4.63257 112.014 4.63257 108.081C4.63257 107.303 4.63798 104.381 7.82331 103.295C11.0086 102.209 13.8046 105.224 23.6093 104.624C29.0552 104.289 32.0567 103.479 34.301 101.739C24.0744 94.0254 17.4604 81.185 17.4604 67.3992C17.4388 44.0627 36.3777 25.145 59.7404 25.145H59.7674H59.7945H59.7891Z" fill="#A9C0FF"/>
<path d="M73.6553 160.6C71.5138 160.6 69.1721 159.876 67.0629 158.061C62.6338 154.247 61.7793 149.59 60.4922 142.535L60.33 141.655C60.1299 140.558 59.9406 139.121 59.7892 137.765C59.6377 139.121 59.4484 140.558 59.2483 141.655L59.0861 142.535C57.799 149.59 56.9445 154.247 52.5153 158.061C48.535 161.485 43.7381 161.026 40.9692 159.146C37.4053 156.732 37.8542 152.691 39.0223 150.568C41.3856 146.268 42.0508 144.156 42.7971 141.417C43.3812 139.278 43.7273 137.447 43.9761 135.707C43.4731 136.907 42.7755 138.268 41.7696 139.64C35.9614 147.624 30.1802 151.027 23.5824 150.352C20.0077 149.99 18.2987 148.456 17.4984 147.24C16.3519 145.496 16.3843 143.465 16.8007 142.152C17.3956 140.267 18.4394 139.354 20.516 137.533C21.2299 136.907 22.0411 136.199 23.02 135.291C28.136 130.548 30.4127 126.308 31.4186 123.58C32.1866 121.5 32.3542 119.966 32.3867 119.237C31.013 119.512 26.9678 120.15 21.6788 119.523C7.88288 117.881 4.20001 111.555 4.20001 108.076C4.20001 104.781 6.08741 103.447 7.66656 102.907C9.18622 102.388 10.5869 102.728 12.523 103.193C14.8971 103.766 18.1419 104.549 23.5608 104.214C28.574 103.906 31.4673 103.198 33.6035 101.724C23.2201 93.6747 17.0333 80.8828 17.0333 67.3887C17.0333 43.874 36.1939 24.7402 59.7405 24.7402H59.8162C83.3898 24.7402 102.545 43.874 102.545 67.3995C102.545 80.8936 96.3637 93.6855 85.9748 101.734C88.111 103.209 91.0043 103.917 96.0175 104.225C101.431 104.554 104.681 103.771 107.055 103.204C108.991 102.739 110.392 102.399 111.912 102.917C113.491 103.458 115.378 104.792 115.378 108.087C115.378 111.566 111.695 117.892 97.8941 119.523C92.6105 120.15 88.5653 119.512 87.1862 119.237C87.2187 119.966 87.3863 121.5 88.1543 123.58C89.1602 126.302 91.4369 130.548 96.5529 135.291C97.5318 136.199 98.343 136.907 99.0568 137.533C101.134 139.354 102.177 140.272 102.772 142.152C103.189 143.47 103.221 145.496 102.075 147.24C101.274 148.461 99.5652 149.99 95.9905 150.352C89.3873 151.027 83.6115 147.619 77.8033 139.64C76.8028 138.262 76.0998 136.901 75.5968 135.707C75.851 137.452 76.1917 139.283 76.7758 141.417C77.5221 144.156 78.1927 146.268 80.5506 150.568C81.7187 152.696 82.1676 156.732 78.6037 159.146C77.3003 160.027 75.5481 160.6 73.6499 160.6H73.6553ZM44.8522 131.478C44.8846 131.478 44.9171 131.478 44.9495 131.488C45.1442 131.537 45.274 131.726 45.2524 131.926L45.2037 132.336C44.89 135.118 44.5655 137.992 43.5759 141.628C42.8133 144.421 42.1319 146.581 39.7254 150.957C38.6978 152.821 38.303 156.364 41.4181 158.477C43.9436 160.189 48.3241 160.594 51.98 157.45C56.1928 153.825 56.9824 149.526 58.2857 142.395L58.448 141.514C58.9617 138.722 59.3781 133.644 59.3781 133.595C59.3944 133.384 59.5728 133.222 59.7837 133.222C59.9947 133.222 60.1731 133.384 60.1893 133.595C60.1893 133.644 60.6112 138.722 61.1249 141.514L61.2872 142.395C62.5905 149.52 63.3747 153.825 67.5929 157.45C71.2488 160.6 75.6347 160.189 78.1548 158.477C81.2698 156.364 80.8697 152.826 79.8475 150.957C77.441 146.581 76.7595 144.421 75.997 141.628C75.0073 137.992 74.6829 135.118 74.3692 132.336L74.3205 131.926C74.2989 131.726 74.4287 131.537 74.6234 131.488C74.8235 131.44 75.0236 131.542 75.0993 131.731C75.175 131.921 75.2561 132.185 75.3643 132.553C75.7807 133.946 76.554 136.539 78.4631 139.165C84.082 146.889 89.6252 150.19 95.9148 149.547C98.4944 149.282 100.393 148.332 101.404 146.792C102.399 145.285 102.367 143.529 102.004 142.39C101.474 140.72 100.614 139.964 98.5269 138.133C97.8076 137.501 96.9964 136.788 96.0067 135.875C85.9045 126.513 86.3534 119.01 86.3804 118.697C86.3913 118.578 86.4507 118.47 86.5481 118.399C86.6454 118.329 86.7698 118.308 86.8834 118.335C86.9266 118.345 91.5343 119.453 97.8022 118.713C105.876 117.757 114.567 114.018 114.567 108.082C114.567 105.818 113.583 104.338 111.652 103.679C110.354 103.236 109.121 103.533 107.25 103.987C104.827 104.57 101.512 105.37 95.9743 105.03C90.4364 104.689 87.3755 103.857 85.0555 102.059C84.9581 101.983 84.8986 101.864 84.8986 101.734C84.8986 101.61 84.9581 101.491 85.0609 101.416C95.5038 93.5396 101.739 80.8234 101.739 67.3995C101.734 44.3223 82.9409 25.5505 59.8432 25.5505H59.7675C36.6374 25.5505 17.8445 44.3223 17.8445 67.3995C17.8445 80.8234 24.0799 93.5396 34.5228 101.416C34.6256 101.491 34.6851 101.61 34.6851 101.734C34.6851 101.859 34.6256 101.977 34.5282 102.059C32.2082 103.857 29.1473 104.689 23.6094 105.03C18.0716 105.37 14.7565 104.57 12.3337 103.987C10.4625 103.539 9.22407 103.236 7.93155 103.679C5.99548 104.338 5.01662 105.818 5.01662 108.082C5.01662 114.024 13.7073 117.757 21.7815 118.713C28.0494 119.458 32.6571 118.345 32.7003 118.335C32.8139 118.308 32.9383 118.335 33.0356 118.399C33.133 118.464 33.1925 118.578 33.2033 118.697C33.2249 119.01 33.6792 126.519 23.577 135.875C22.5873 136.788 21.7761 137.501 21.0568 138.133C18.9693 139.964 18.1095 140.72 17.5795 142.39C17.2171 143.529 17.1901 145.285 18.1798 146.792C19.1911 148.332 21.0893 149.282 23.6689 149.547C29.9585 150.19 35.4963 146.889 41.1206 139.165C43.0297 136.539 43.803 133.946 44.2194 132.553C44.3276 132.185 44.4087 131.921 44.4844 131.731C44.5493 131.575 44.7007 131.478 44.863 131.478H44.8522Z" fill="black"/>
<path d="M45.9552 64.5523C47.1141 64.5523 48.0535 63.2124 48.0535 61.5596C48.0535 59.9068 47.1141 58.5669 45.9552 58.5669C44.7963 58.5669 43.8569 59.9068 43.8569 61.5596C43.8569 63.2124 44.7963 64.5523 45.9552 64.5523Z" fill="black"/>
<path d="M73.6217 64.5523C74.7806 64.5523 75.72 63.2124 75.72 61.5596C75.72 59.9068 74.7806 58.5669 73.6217 58.5669C72.4628 58.5669 71.5234 59.9068 71.5234 61.5596C71.5234 63.2124 72.4628 64.5523 73.6217 64.5523Z" fill="black"/>
<path d="M73.5582 71.0345C74.3261 71.2452 74.8561 72.0501 74.7966 72.9306C74.2072 81.8222 68.307 85.7494 59.784 85.7494C51.2609 85.7494 45.3986 81.8492 44.7767 73.017C44.7118 72.1041 45.285 71.2776 46.0854 71.0993C47.7511 70.732 50.5741 70.3809 52.429 70.3809C54.7545 70.3809 58.4428 71.0507 59.5568 71.3316C59.7785 71.3856 60.0003 71.391 60.222 71.3424C61.4442 71.0723 65.749 70.3809 68.2313 70.3809C70.07 70.3809 72.2224 70.6672 73.5582 71.0291V71.0345Z" fill="#EB85A3"/>
<path d="M59.7893 85.9549C50.5686 85.9549 45.166 81.3632 44.5819 73.0334C44.5116 72.0232 45.1444 71.1049 46.0475 70.905C47.6429 70.5485 50.4713 70.1812 52.4344 70.1812C54.8085 70.1812 58.5292 70.8672 59.6108 71.1373C59.8001 71.1859 59.9894 71.1859 60.1787 71.1481C61.3901 70.8834 65.7003 70.1812 68.2312 70.1812C70.0159 70.1812 72.1737 70.4458 73.6122 70.8402C74.4829 71.0779 75.067 71.9638 75.0021 72.947C74.4451 81.3362 69.0424 85.9549 59.7893 85.9549ZM52.4344 70.5863C50.5254 70.5863 47.6807 70.9536 46.134 71.2994C45.4202 71.456 44.928 72.1907 44.9821 73.001C45.3877 78.7216 48.281 85.5443 59.7893 85.5443C71.2976 85.5443 74.2179 78.6784 74.5965 72.9145C74.6506 72.1367 74.1801 71.4074 73.5041 71.2237C72.1196 70.8456 69.951 70.5809 68.2312 70.5809C65.8463 70.5809 61.5685 71.2507 60.2652 71.537C60.0164 71.5911 59.7569 71.5911 59.5081 71.5262C58.4427 71.2561 54.7707 70.5809 52.4344 70.5809V70.5863Z" fill="black"/>
<path d="M71.2918 75.9995C71.5568 75.9995 71.6758 76.275 71.4703 76.4209C70.1129 77.3608 66.3543 79.5108 60.3784 79.5108C55.0948 79.5108 50.7089 77.5985 48.9783 76.7234C48.7349 76.5991 48.8377 76.2858 49.1189 76.2858L71.2918 75.9995Z" fill="#AD475F"/>
<path d="M60.0015 38.175C57.7074 41.2188 53.3381 41.7417 50.3896 39.3221L50.3869 39.3301C48.886 42.8275 44.7704 44.3747 41.3332 42.7341L41.3252 42.7288V42.7341C40.7056 46.4902 37.0761 48.9765 33.3452 48.2002H33.3398V48.2056C33.6336 52.0017 30.7012 55.2777 26.8927 55.4111H26.8874C28.0812 59.0312 26.0194 62.918 22.3498 63.9637C24.3849 67.189 23.3273 71.46 20.0183 73.3621L20.2694 73.5355C22.5368 75.0988 22.6089 78.4174 20.4163 80.0794C22.5822 80.725 23.5891 83.214 22.478 85.1801L22.3445 85.4148L22.4887 85.4628C24.4143 86.1111 25.4479 88.1999 24.7935 90.1207C26.5055 90.8649 27.3574 92.4682 27.2212 94.325L27.1838 94.9199C23.5757 95.9709 23.0042 92.5003 23.0042 92.5003L22.9908 92.5056C20.9744 93.3699 18.91 91.3932 19.6818 89.3444L19.6872 89.331H19.6765C17.5933 90.0219 15.7025 87.8771 16.6506 85.9003L16.6559 85.8897H16.6506C14.5167 86.3965 12.8181 84.0943 13.9345 82.2082V82.2029C11.7632 82.5203 10.2729 80.0767 11.5548 78.2947H11.5495C9.35953 78.4174 8.09895 75.8511 9.53312 74.1944H9.53579V74.1917C7.34314 74.1144 6.32026 71.4467 7.89865 69.9261C5.72469 69.6513 4.94752 66.9009 6.65944 65.5297C4.52021 65.0548 3.99942 62.2457 5.82885 61.0399C3.74036 60.373 3.4813 57.5266 5.41489 56.4915C3.04597 55.4884 2.68276 52.2818 4.76858 50.7746L5.52172 50.2304C3.15547 47.8721 3.79377 43.8919 6.77962 42.3873C4.81932 39.6822 6.08524 35.8541 9.27139 34.843L9.26605 34.835C7.75977 31.8578 9.61057 28.2804 12.9116 27.7816H12.9223C11.894 24.599 14.2763 21.3417 17.6254 21.3524C17.0912 18.0498 19.9382 15.1847 23.2472 15.6969C23.2071 12.3489 26.4467 9.9346 29.6489 10.9243V10.919C30.0949 7.60302 33.6496 5.68226 36.6729 7.1255H36.6782V7.12816C37.5996 3.90557 41.3947 2.51302 44.1856 4.37509V4.36975C45.5556 1.31255 49.5083 0.474892 52.0054 2.71043L52.0107 2.71577L52.0187 2.70243C53.8028 -0.12801 57.8302 -0.40812 59.9908 2.15021L60.0015 2.16355L60.0122 2.15021C62.1701 -0.40812 66.1975 -0.130678 67.9842 2.70243L67.9922 2.71577L67.9976 2.71043C70.4947 0.474892 74.4473 1.31255 75.8174 4.36975V4.37509H75.8201C78.6083 2.51302 82.4061 3.90557 83.3274 7.12816L83.3328 7.1255C86.356 5.68226 89.9107 7.60302 90.3568 10.919V10.9243C93.5589 9.9346 96.7985 12.3489 96.7584 15.6969C100.07 15.1847 102.917 18.0498 102.38 21.3524C105.727 21.3417 108.112 24.599 107.083 27.7816H107.094C110.398 28.2804 112.246 31.8578 110.74 34.835L110.734 34.843C113.92 35.8541 115.184 39.6822 113.226 42.3873C116.212 43.8919 116.847 47.8694 114.484 50.2304L115.237 50.7746C117.323 52.2818 116.96 55.4858 114.591 56.4915C116.522 57.5266 116.263 60.3703 114.177 61.0399C116.006 62.2457 115.485 65.0575 113.346 65.5297C115.058 66.8982 114.281 69.6486 112.107 69.9261C113.685 71.4467 112.66 74.1144 110.47 74.1917L110.473 74.1944C111.907 75.8511 110.643 78.4147 108.456 78.2947H108.451C109.73 80.0767 108.242 82.5203 106.071 82.2029L106.074 82.2082C107.19 84.0943 105.494 86.3965 103.358 85.8923H103.352L103.358 85.9003C104.306 87.8771 102.415 90.0219 100.332 89.3337H100.321L100.326 89.3444C101.101 91.3932 99.0339 93.3673 97.0175 92.5056L97.0041 92.5003C97.0041 92.5003 96.4166 95.995 92.8085 94.9439L92.7737 94.4263C92.6349 92.5669 93.5028 90.8623 95.2148 90.118C94.5604 88.1946 95.5913 86.1084 97.5196 85.4602L97.6638 85.4121L97.5303 85.1774C96.4193 83.2113 97.4261 80.7223 99.5921 80.0767C97.3967 78.4147 97.4715 75.0961 99.7389 73.5328L99.99 73.3594C96.681 71.4574 95.6234 67.1863 97.6585 63.9611C93.9889 62.9153 91.9271 59.0285 93.1209 55.4084H93.1156C89.3045 55.275 86.3747 51.9991 86.6685 48.2029V48.1976H86.6632C82.9322 48.9739 79.3027 46.4876 78.6831 42.7314V42.7261L78.6724 42.7314C75.2352 44.3747 71.1196 42.8275 69.6187 39.3274V39.3194H69.6134C66.6676 41.739 62.2956 41.2162 60.0015 38.1723" fill="#171515"/>
<path d="M94.0769 95.5468C93.6469 95.5468 93.1849 95.4748 92.6962 95.3334L92.4291 95.256L92.373 94.461C92.2261 92.4763 93.1235 90.7636 94.7339 89.9126C94.5042 88.9816 94.6084 88.0105 95.0384 87.1408C95.4737 86.2632 96.1921 85.5829 97.0868 85.2041C96.5847 84.1984 96.5367 83.0379 96.9613 81.9868C97.3245 81.0905 97.9922 80.3729 98.8388 79.9514C98.0135 79.1057 97.5649 77.9746 97.5916 76.7661C97.621 75.4243 98.2299 74.2104 99.2715 73.3888C97.8506 72.4044 96.8518 70.9585 96.4298 69.2618C95.9998 67.5305 96.2242 65.7511 97.0601 64.1985C95.3989 63.5983 94.0449 62.4218 93.209 60.8479C92.373 59.2739 92.162 57.4919 92.5947 55.7819C90.8347 55.5978 89.2376 54.7815 88.0518 53.4557C86.8633 52.1271 86.2304 50.4491 86.2438 48.6858C84.4918 48.9259 82.7478 48.5124 81.2762 47.5067C79.8047 46.4983 78.7898 45.0204 78.3839 43.3024C76.736 43.9533 74.944 43.9693 73.2748 43.3424C71.6029 42.7155 70.2649 41.5203 69.461 39.949C68.0215 40.9708 66.2855 41.4136 64.5149 41.2029C62.7442 40.9921 61.1578 40.1491 60.0014 38.8179C58.845 40.1491 57.2612 40.9921 55.4879 41.2029C53.7172 41.4136 51.9786 40.9708 50.5417 39.949C49.7352 41.523 48.3972 42.7155 46.728 43.3424C45.0561 43.9693 43.2614 43.9533 41.6189 43.3024C41.2103 45.023 40.1981 46.4983 38.7265 47.5067C37.255 48.5151 35.5083 48.9259 33.759 48.6885C33.7724 50.4572 33.1394 52.1325 31.9536 53.4583C30.7651 54.7868 29.1654 55.6032 27.4107 55.7872C27.8461 57.4972 27.6324 59.2766 26.7965 60.8506C25.9605 62.4245 24.6065 63.601 22.9453 64.2012C23.7812 65.7565 24.0056 67.5332 23.5756 69.2645C23.1536 70.9612 22.1548 72.4071 20.734 73.3915C21.7755 74.2131 22.3845 75.4296 22.4138 76.7688C22.4405 77.9799 21.9919 79.1084 21.1666 79.954C22.0159 80.3782 22.6836 81.0931 23.0441 81.9895C23.4688 83.0406 23.4207 84.201 22.9186 85.2067C23.8106 85.5856 24.5317 86.2658 24.967 87.1435C25.397 88.0132 25.5012 88.9842 25.2715 89.9126C26.8926 90.7609 27.7633 92.3989 27.619 94.3623L27.563 95.232L27.2932 95.3094C26.0727 95.6642 25.0338 95.5788 24.2005 95.0559C23.3085 94.4957 22.8972 93.5727 22.721 93.0231C21.7515 93.2766 20.75 93.0178 20.0102 92.3135C19.3238 91.6573 19.0167 90.7583 19.1396 89.8592C18.2315 89.9446 17.3502 89.5978 16.7252 88.8882C16.0976 88.1786 15.8679 87.2555 16.0682 86.3699C15.1655 86.3752 14.3109 85.9537 13.7501 85.1908C13.1892 84.4278 13.0397 83.4914 13.3121 82.6271C12.4094 82.5497 11.6001 82.0562 11.1087 81.2505C10.6173 80.4449 10.5506 79.5005 10.8977 78.6629C10.0057 78.5081 9.24191 77.9452 8.82528 77.0942C8.40865 76.2459 8.42734 75.2989 8.84932 74.4986C7.97599 74.2638 7.26826 73.6316 6.93175 72.7512C6.59257 71.8682 6.69673 70.9292 7.19081 70.1689C6.34152 69.8541 5.69521 69.1631 5.43882 68.2534C5.18243 67.3438 5.37205 66.4181 5.9329 65.7085C5.11567 65.3163 4.53612 64.5693 4.3652 63.641C4.19427 62.7126 4.46668 61.8056 5.09163 61.1493C4.30911 60.6825 3.80435 59.8875 3.71622 58.9485C3.63075 58.0148 3.98062 57.1424 4.65363 56.5449C3.74559 55.9473 3.15003 54.9896 3.0245 53.8745C2.87227 52.53 3.43579 51.2521 4.53612 50.4598L4.92338 50.1797C3.9272 49.0006 3.50256 47.48 3.74826 45.9354C3.99664 44.3854 4.88332 43.0676 6.20532 42.2593C5.40143 40.9361 5.21982 39.3568 5.71391 37.8656C6.20532 36.3743 7.29229 35.2139 8.72379 34.627C8.13624 33.1917 8.20568 31.6018 8.92677 30.2066C9.64786 28.8087 10.9058 27.8323 12.4174 27.4802C12.0622 25.9702 12.3773 24.4123 13.3067 23.1425C14.2361 21.8726 15.6276 21.099 17.1739 20.979C17.0511 19.4317 17.5986 17.9378 18.7069 16.8227C19.8179 15.7049 21.3082 15.15 22.8572 15.262C22.964 13.7148 23.7278 12.3169 24.9884 11.3752C26.2516 10.4335 27.8087 10.1027 29.3256 10.4388C29.6488 8.93157 30.6102 7.6484 32.0017 6.89611C33.3878 6.14648 34.9795 6.04511 36.4324 6.59999C36.9799 5.14609 38.1096 4.02298 39.5892 3.48144C41.0687 2.93989 42.6578 3.06527 44.0172 3.81757C44.7596 2.4597 46.0416 1.502 47.5879 1.17387C49.1289 0.845739 50.6886 1.19788 51.9252 2.13691C52.8626 0.885755 54.262 0.122789 55.8324 0.0134133C57.4081 -0.0959628 58.9037 0.472259 59.9987 1.57936C61.1017 0.466924 62.5946 -0.0959628 64.1623 0.0134133C65.7381 0.122789 67.1402 0.888422 68.0723 2.13691C69.3115 1.19521 70.8685 0.845739 72.4095 1.17387C73.9532 1.502 75.2324 2.45437 75.9802 3.81757C77.3396 3.06261 78.9287 2.93722 80.4083 3.48144C81.8878 4.02298 83.0175 5.14876 83.565 6.59999C85.0206 6.04511 86.6096 6.14915 87.9957 6.89611C89.3818 7.64573 90.3406 8.9209 90.6718 10.4388C92.1887 10.1027 93.7458 10.4335 95.009 11.3752C96.2723 12.3169 97.0334 13.7148 97.1402 15.262C98.6892 15.1527 100.182 15.7076 101.291 16.8227C102.402 17.9378 102.946 19.4343 102.824 20.979C104.37 21.099 105.761 21.8726 106.691 23.1425C107.62 24.4123 107.933 25.9702 107.58 27.4802C109.094 27.835 110.35 28.8113 111.071 30.2066C111.792 31.6044 111.861 33.1917 111.274 34.627C112.708 35.2139 113.792 36.3743 114.284 37.8656C114.775 39.3568 114.593 40.9334 113.792 42.2593C115.114 43.0676 116.001 44.3854 116.249 45.9354C116.498 47.48 116.07 49.0033 115.077 50.1797L115.464 50.4598C116.562 51.2521 117.128 52.53 116.976 53.8745C116.85 54.9896 116.254 55.9473 115.344 56.5449C116.019 57.1451 116.369 58.0148 116.284 58.9485C116.198 59.8902 115.688 60.6878 114.911 61.152C115.533 61.8083 115.808 62.7126 115.635 63.641C115.464 64.5693 114.884 65.319 114.067 65.7085C114.628 66.4181 114.818 67.3464 114.561 68.2561C114.305 69.1658 113.659 69.8567 112.809 70.1715C113.301 70.9318 113.405 71.8709 113.066 72.7539C112.726 73.6342 112.021 74.2665 111.148 74.5012C111.57 75.3015 111.589 76.2486 111.172 77.0969C110.756 77.9452 109.992 78.5081 109.1 78.6629C109.447 79.4979 109.38 80.4422 108.889 81.2505C108.397 82.0562 107.588 82.5524 106.685 82.6271C106.96 83.4914 106.811 84.4278 106.247 85.1908C105.689 85.9484 104.845 86.3672 103.943 86.3672H103.927C104.127 87.2556 103.894 88.1759 103.27 88.8855C102.642 89.5951 101.758 89.9419 100.853 89.8566C100.975 90.7636 100.666 91.6573 99.9819 92.3109C99.2394 93.0205 98.2326 93.2766 97.2684 93.0231C97.0895 93.578 96.6729 94.5117 95.7702 95.0773C95.2734 95.3894 94.7019 95.5441 94.0636 95.5468H94.0769ZM93.1876 94.6344C94.0529 94.8372 94.7793 94.7598 95.3535 94.4024C96.3684 93.7701 96.6088 92.4496 96.6114 92.4362L96.6969 91.94L97.1616 92.1348C97.9601 92.4763 98.8281 92.3189 99.4424 91.732C100.057 91.1451 100.252 90.2861 99.9525 89.4884L99.6587 88.7095L100.447 88.9522C101.266 89.2243 102.118 88.9922 102.682 88.3546C103.245 87.7171 103.366 86.8421 102.997 86.0764L102.642 85.3375L103.44 85.5029C104.282 85.7029 105.11 85.3988 105.614 84.7132C106.119 84.0276 106.165 83.1473 105.729 82.4163L105.302 81.696L106.127 81.8134C106.971 81.9361 107.77 81.56 108.213 80.8344C108.656 80.1061 108.622 79.2257 108.125 78.5348L107.652 77.8759L108.461 77.8999C109.324 77.9479 110.085 77.5024 110.462 76.7421C110.838 75.9791 110.723 75.1068 110.168 74.4639L109.62 73.8316L110.454 73.7996C111.303 73.7703 112.021 73.2581 112.326 72.4658C112.63 71.6735 112.438 70.8118 111.826 70.2222L111.226 69.6433L112.056 69.5393C112.9 69.4326 113.568 68.859 113.797 68.04C114.027 67.2237 113.76 66.3834 113.095 65.8525L112.443 65.3296L113.261 65.1482C114.091 64.9642 114.703 64.3319 114.858 63.4943C115.013 62.6593 114.668 61.8483 113.958 61.3814L113.253 60.9172L114.059 60.6665C114.868 60.4077 115.419 59.7221 115.496 58.8764C115.573 58.0308 115.157 57.2545 114.406 56.8543L113.669 56.4595L114.438 56.1314C115.416 55.7179 116.07 54.8402 116.19 53.7865C116.311 52.7327 115.867 51.7323 115.007 51.1081L113.875 50.2891L114.209 49.9583C115.245 48.9259 115.704 47.5067 115.475 46.0634C115.242 44.6202 114.361 43.4144 113.055 42.7581L112.636 42.5474L112.911 42.1659C113.768 40.9814 113.998 39.5062 113.538 38.119C113.079 36.7318 112.016 35.6807 110.622 35.2379L110.187 35.0991L110.382 34.6856C111.049 33.3625 111.044 31.8712 110.371 30.5747C109.701 29.2782 108.485 28.4085 107.041 28.1898L106.573 28.1204L106.707 27.6696C107.158 26.277 106.918 24.7991 106.055 23.6173C105.192 22.4409 103.862 21.7659 102.404 21.7659H101.915L101.99 21.3017C102.225 19.8558 101.766 18.4286 100.732 17.3882C99.7041 16.3531 98.286 15.8836 96.8411 16.1024L96.355 16.2251L96.3604 15.7076C96.3791 14.2403 95.7141 12.8958 94.5363 12.0208C93.3585 11.1431 91.8816 10.8897 90.4768 11.3218L90.0495 11.4552L89.9614 10.9884C89.7664 9.53447 88.9118 8.30199 87.6218 7.60572C86.3319 6.90944 84.8309 6.86943 83.5063 7.50168L83.079 7.70442L82.9428 7.25091C82.5395 5.83969 81.5166 4.7406 80.1385 4.23373C78.7578 3.72687 77.2675 3.9056 76.0443 4.72192L75.6704 4.97269L75.4541 4.54852C74.8532 3.20933 73.6861 2.26763 72.2492 1.96084C70.8124 1.65672 69.3622 2.04354 68.2672 3.02259L67.9147 3.34005L67.6556 2.94523C66.8651 1.6914 65.5778 0.920435 64.1116 0.819062C62.6454 0.717689 61.2646 1.30192 60.3192 2.42236L60.199 2.56374L59.8144 2.57708L59.6916 2.43303C58.7355 1.29925 57.3547 0.715021 55.8885 0.816394C54.4249 0.917767 53.1377 1.68607 52.3551 2.92655L52.1041 3.32671L51.7409 3.02793C50.6405 2.04354 49.1903 1.65672 47.7535 1.96084C46.3167 2.26496 45.1496 3.20933 44.5487 4.54852L44.3537 4.98069L43.9558 4.72192C42.7326 3.9056 41.2423 3.72953 39.8616 4.23373C38.4808 4.7406 37.4606 5.83969 37.0573 7.25091L36.9265 7.70709L36.4991 7.50168C35.1691 6.86676 33.6682 6.90411 32.3782 7.60305C31.0883 8.29932 30.2337 9.53447 30.0387 10.9857L29.9746 11.4552L29.5206 11.3218C28.1185 10.887 26.6389 11.1431 25.4611 12.0181C24.2833 12.8958 23.621 14.2403 23.637 15.7049L23.6424 16.1771L23.175 16.105C21.7248 15.881 20.3013 16.3478 19.2651 17.3882C18.2315 18.4286 17.7721 19.8532 18.0072 21.3017L18.082 21.7659H17.5959C16.135 21.7659 14.805 22.4409 13.9424 23.6173C13.077 24.7991 12.8394 26.277 13.2907 27.6696L13.4349 28.1151L12.9729 28.1871C11.5147 28.4085 10.2995 29.2782 9.62916 30.5747C8.95881 31.8712 8.9508 33.3651 9.61047 34.667L9.82145 35.0858L9.37812 35.2379C7.98401 35.6807 6.92106 36.7291 6.4617 38.119C6.00234 39.5062 6.23202 40.9814 7.08932 42.1659L7.3644 42.5474L6.9451 42.7581C5.63913 43.4171 4.75779 44.6202 4.52544 46.0634C4.29309 47.5067 4.75512 48.9259 5.79136 49.9583L6.12519 50.2891L4.99281 51.1081C4.13285 51.7296 3.68951 52.73 3.80969 53.7865C3.92987 54.8429 4.5842 55.7179 5.56167 56.1314L6.33618 56.4595L5.59105 56.8543C4.84058 57.2545 4.42395 58.0308 4.5014 58.8764C4.57885 59.7221 5.12902 60.4077 5.93824 60.6691L6.73412 60.9252L6.03973 61.3868C5.32932 61.8536 4.9848 62.6646 5.1397 63.4996C5.2946 64.3346 5.9062 64.9695 6.73679 65.1509L7.55402 65.3323L6.90237 65.8552C6.23736 66.386 5.97029 67.2237 6.19997 68.0427C6.42965 68.859 7.09733 69.4352 7.94127 69.542L8.77186 69.646L8.17096 70.2249C7.55936 70.8145 7.36707 71.6735 7.67153 72.4684C7.97599 73.2634 8.69441 73.7729 9.5437 73.8023L10.3663 73.8316L9.83748 74.4612C9.27396 75.1121 9.16179 75.9845 9.53836 76.7474C9.91226 77.5104 10.6734 77.9532 11.5227 77.9079L12.3586 77.8625L11.8752 78.5428C11.3785 79.2337 11.3438 80.1141 11.7871 80.8424C12.2304 81.5707 13.029 81.9468 13.8729 81.8214L14.6634 81.7067L14.2815 82.4083C13.8382 83.158 13.8836 84.0383 14.3884 84.7239C14.8931 85.4095 15.721 85.711 16.5516 85.5162L17.3796 85.3188L17.0083 86.0791C16.6371 86.8501 16.76 87.7251 17.3208 88.3626C17.8843 89.0002 18.7336 89.2323 19.5428 88.9656L20.3387 88.7015L20.0529 89.4831C19.7485 90.2914 19.9434 91.1504 20.5577 91.74C21.172 92.3295 22.0399 92.4843 22.8225 92.1508L23.2925 91.9507L23.3886 92.4496C23.3886 92.4496 23.6237 93.7648 24.6252 94.389C25.1967 94.7465 25.9258 94.8238 26.7938 94.6184L26.8125 94.3117C26.9407 92.5723 26.1235 91.1504 24.6252 90.4995L24.286 90.3528L24.4062 90.0033C24.6893 89.1763 24.6305 88.288 24.2433 87.5036C23.856 86.7193 23.1857 86.1324 22.3551 85.855L21.7515 85.6523L22.1227 84.996C22.5928 84.1637 22.6569 83.182 22.299 82.2963C21.9411 81.4106 21.212 80.749 20.296 80.4742L19.5402 80.2475L20.1704 79.77C21.1132 79.055 21.6367 77.9692 21.6126 76.7901C21.5859 75.6083 21.0117 74.5466 20.0396 73.877L19.2677 73.3434L19.8179 73.026C21.3215 72.159 22.3818 70.7558 22.7984 69.0724C23.215 67.3891 22.9373 65.6551 22.0106 64.1879L21.7248 63.737L22.2402 63.5903C23.9094 63.1154 25.2768 62.0083 26.0887 60.4771C26.9006 58.9458 27.0502 57.1958 26.5054 55.5471L26.3371 55.0349L26.8766 55.0216C28.6099 54.9602 30.1989 54.216 31.3554 52.9248C32.5118 51.6336 33.0726 49.9716 32.9391 48.2456L32.899 47.7147L33.4198 47.8161C35.1237 48.1709 36.8463 47.8268 38.2752 46.8451C39.704 45.866 40.6468 44.3854 40.9299 42.6754L41.0153 42.1526L41.496 42.374C43.0691 43.1263 44.8237 43.201 46.4449 42.5927C48.066 41.9818 49.3346 40.7707 50.0183 39.1807L50.2186 38.7139L50.6299 39.01C51.9839 40.1224 53.6691 40.6133 55.3917 40.4079C57.1143 40.2025 58.6366 39.3275 59.6782 37.9429L59.9987 38.183L60.3192 37.9429C61.3608 39.3275 62.8857 40.2025 64.6057 40.4079C66.3283 40.6133 68.0135 40.1224 69.3542 39.0207L69.4023 38.986L69.7975 38.7486L69.9765 39.1727C70.6628 40.7707 71.9314 41.9818 73.5525 42.5927C75.1737 43.201 76.9283 43.1263 78.4907 42.3793L78.9661 42.1526L79.0649 42.6674C79.348 44.3854 80.2907 45.866 81.7196 46.8451C83.1484 47.8241 84.871 48.1683 86.5696 47.8161L87.0877 47.7094L87.0556 48.2376C86.9221 49.9716 87.483 51.6336 88.6394 52.9248C89.7958 54.216 91.3849 54.9602 93.1181 55.0216L93.6523 55.0403L93.4921 55.5471C92.9499 57.1931 93.0968 58.9431 93.9087 60.4771C94.7206 62.0083 96.088 63.1154 97.7572 63.5903L98.2726 63.737L97.9869 64.1879C97.0601 65.6551 96.7824 67.3891 97.199 69.0724C97.6156 70.7558 98.6759 72.159 100.18 73.026L100.73 73.3434L99.9578 73.877C98.9857 74.5492 98.4115 75.611 98.3848 76.7901C98.3581 77.9719 98.8842 79.0577 99.827 79.77L100.457 80.2475L99.7014 80.4742C98.7854 80.7463 98.0563 81.4106 97.6984 82.2963C97.3405 83.182 97.4046 84.1637 97.8747 84.996L98.2459 85.6523L97.6423 85.855C96.8117 86.1351 96.1414 86.7193 95.7541 87.5036C95.3669 88.288 95.3081 89.1763 95.5912 90.0033L95.7114 90.3528L95.3722 90.4995C93.8846 91.1451 93.0407 92.6443 93.1716 94.4104L93.1876 94.6424V94.6344Z" fill="black"/>
<path d="M114.405 60.9633C116.494 60.2964 116.753 57.4499 114.819 56.4149C117.188 55.4091 117.551 52.2052 115.466 50.698L114.712 50.1537C117.079 47.7955 116.44 43.8153 113.455 42.3107C115.415 39.6056 114.149 35.7774 110.963 34.7664L110.968 34.7584C112.474 31.7812 110.624 28.2038 107.323 27.705H107.312C108.236 24.8398 106.399 21.916 103.581 21.3691C105.896 22.5136 106.82 25.2053 105.253 27.3181V27.3235L105.261 27.3261C108.618 28.2172 109.806 31.8186 107.504 34.1235L107.496 34.1315C110.68 35.428 111.278 39.1468 108.621 41.1529L108.647 41.1689C111.582 42.8309 111.582 46.571 108.647 48.233L108.621 48.249L108.637 48.2623C111.283 50.2631 110.69 53.9686 107.515 55.2624L107.496 55.2704L107.504 55.2784C109.804 57.5833 108.615 61.1821 105.261 62.0757H105.247L105.25 62.0837C105.862 64.5567 104.452 66.5335 103.45 67.1871C100.181 65.6025 99.1502 60.5178 100.942 57.9781L100.924 57.9701C97.6466 56.9137 95.9961 53.8405 97.23 51.0874L97.238 51.0714L97.1899 51.0634C93.7527 50.5166 91.4773 47.7528 92.0889 44.8637L92.0969 44.821H92.0088C88.5262 44.821 85.6792 42.4894 85.6097 39.5683V39.4936C82.1432 40.0911 78.7353 38.2664 77.9288 35.38L77.8887 35.3933C74.6732 36.5991 70.8968 35.4547 69.3478 32.803L69.3291 32.7683L69.281 32.7976C66.4848 34.5823 62.5028 34.1928 60.2701 31.9173L60.2327 31.8773L60.1953 31.9146C57.9626 34.1928 53.9805 34.5823 51.1843 32.7949L51.1362 32.7656L51.1176 32.8003C49.5685 35.452 45.7922 36.5991 42.5766 35.3906L42.5366 35.3746C41.7273 38.2638 39.1234 40.3552 35.6568 39.7577L35.6515 39.9684C35.5847 42.8122 32.7004 45.0878 29.167 45.0851L29.2178 45.3305C29.8053 48.1183 27.5325 50.7753 24.0873 51.3249L24.0232 51.3355L24.1354 51.589C25.3185 54.2327 23.6867 57.4259 20.4445 58.469L20.3163 58.5117L20.4792 58.7438C22.1965 61.1794 21.4861 64.2713 18.5349 65.7519L18.3587 65.8399L18.3854 65.8666C20.6688 68.1261 20.5994 71.4341 17.8886 73.3655L17.95 73.4082C20.5353 75.2489 21.6463 78.4261 19.4269 80.6243C19.4269 80.6243 22.6718 81.8168 21.8386 85.5596C21.8386 85.5596 24.974 85.597 25.0221 90.0414C25.6764 88.1179 24.6455 86.0318 22.7172 85.3835L22.573 85.3355L22.7066 85.1008C23.8176 83.132 22.8107 80.6457 20.6448 80.0001C22.8401 78.3381 22.7653 75.0195 20.4979 73.4562L20.2468 73.2828C23.5559 71.3807 24.6135 67.1097 22.5784 63.8844C26.2479 62.8387 28.3097 58.9519 27.1159 55.3318H27.1212C30.9323 55.1984 33.8621 51.9224 33.5683 48.1236V48.1183H33.5737C37.3047 48.8946 40.9341 46.4083 41.5537 42.6521V42.6468L41.5644 42.6521C45.0016 44.2955 49.1172 42.7482 50.6181 39.2481V39.2401H50.6235C53.5693 41.6597 57.9412 41.1369 60.2353 38.093C62.5295 41.1369 66.8988 41.6597 69.8472 39.2401L69.8526 39.2481C71.3535 42.7455 75.4691 44.2928 78.9063 42.6521L78.9143 42.6468V42.6521C79.5339 46.4083 83.1634 48.8946 86.8943 48.1183H86.8997V48.1236C86.6059 51.9198 89.5384 55.1957 93.3468 55.3291H93.3521C92.1583 58.9492 94.2201 62.836 97.8896 63.8818C95.8546 67.107 96.9122 71.3781 100.221 73.2801L99.9701 73.4535C99.6283 73.691 99.3425 73.9684 99.0995 74.2752C98.9018 74.5233 98.7389 74.7901 98.6081 75.0702C98.6081 75.0702 98.6081 75.0728 98.6081 75.0755C98.4799 75.3529 98.3837 75.6384 98.3223 75.9345C98.3223 75.9452 98.317 75.9558 98.317 75.9665C98.2769 76.1586 98.2529 76.3507 98.2422 76.5454C98.1781 77.6845 98.5867 78.8476 99.4867 79.6986C99.5936 79.8027 99.7084 79.9014 99.8313 79.9948C99.6977 80.0348 99.5668 80.0828 99.4413 80.1362C98.755 80.4296 98.2128 80.9231 97.8443 81.518C97.8362 81.534 97.8256 81.5474 97.8175 81.5634C97.7721 81.6407 97.7294 81.7181 97.6893 81.7981C97.6813 81.8115 97.676 81.8275 97.6707 81.8408C97.5585 82.0756 97.4704 82.321 97.4116 82.5744C97.4009 82.6198 97.3902 82.6625 97.3822 82.7078C97.3715 82.7692 97.3609 82.8305 97.3528 82.8946C97.3448 82.9506 97.3395 83.0066 97.3341 83.0653C97.3288 83.1213 97.3235 83.1773 97.3208 83.2334C97.3181 83.3107 97.3208 83.3881 97.3208 83.4655C97.3208 83.5028 97.3208 83.5428 97.3208 83.5802C97.3261 83.6949 97.3395 83.8069 97.3582 83.9216C97.3635 83.9616 97.3742 84.0017 97.3822 84.039C97.3982 84.119 97.4169 84.1991 97.4383 84.2791C97.449 84.3218 97.4623 84.3645 97.4757 84.4045C97.4997 84.4845 97.5291 84.5672 97.5612 84.6473C97.5745 84.6846 97.5879 84.7219 97.6039 84.7566C97.6546 84.8713 97.708 84.986 97.7721 85.0981L97.9057 85.3329L97.7615 85.3809C95.8359 86.0291 94.8023 88.1179 95.4566 90.0387C93.7447 90.783 92.6925 92.525 92.8287 94.3844L93.0503 94.8646C93.71 95.1954 94.6073 94.9553 94.6768 94.9446C94.7088 94.9393 94.7382 94.9339 94.7703 94.9286C94.8397 94.9153 94.9065 94.9019 94.9706 94.8833C94.9946 94.8779 95.0186 94.8726 95.0427 94.8646C95.1281 94.8406 95.2109 94.8112 95.2911 94.7819C95.3071 94.7766 95.3231 94.7685 95.3364 94.7632C95.4006 94.7365 95.462 94.7099 95.5234 94.6805C95.5474 94.6698 95.5688 94.6565 95.5928 94.6432C95.6463 94.6138 95.697 94.5845 95.7477 94.5551C95.7664 94.5445 95.7878 94.5311 95.8065 94.5205C95.94 94.4324 96.0629 94.3364 96.1751 94.2377C96.1884 94.2243 96.2018 94.211 96.2178 94.1977C96.2605 94.1576 96.3006 94.1176 96.3406 94.0749C96.354 94.0616 96.3673 94.0483 96.378 94.0349C96.4234 93.9842 96.4688 93.9335 96.5116 93.8829C96.5116 93.8802 96.5169 93.8775 96.5196 93.8749C96.565 93.8162 96.6104 93.7602 96.6504 93.7015C96.6558 93.6961 96.6585 93.6881 96.6638 93.6828C96.6985 93.6321 96.7332 93.5814 96.7653 93.5307C96.7706 93.5227 96.776 93.512 96.7813 93.504C96.816 93.4507 96.8481 93.3947 96.8775 93.344C97.1552 92.8451 97.2514 92.429 97.2514 92.429L97.2647 92.4343C99.2811 93.2986 101.346 91.3219 100.574 89.2731L100.568 89.2597H100.579C102.662 89.9507 104.553 87.8058 103.605 85.829L103.6 85.8184H103.605C105.739 86.3252 107.437 84.023 106.321 82.1369V82.1316C108.492 82.4491 109.983 80.0054 108.701 78.2234H108.706C110.896 78.3461 112.157 75.7824 110.722 74.1231H110.72V74.1205C112.912 74.0431 113.935 71.3754 112.357 69.8548C114.531 69.58 115.308 66.8296 113.596 65.4584C115.735 64.9835 116.256 62.1744 114.427 60.9686L114.405 60.9633Z" fill="black"/>
<path opacity="0.2" d="M32.0419 15.8917C31.5852 14.4672 32.309 12.6985 33.7672 12.1436C34.6138 11.8021 35.5913 12.0369 36.3765 12.3437L36.1575 12.469C36.3284 9.51055 38.927 8.06732 41.2185 10.2282L40.9835 10.3055C41.2719 9.2091 42.1265 8.00863 43.3684 7.83256C44.5622 7.61114 45.8976 8.11533 46.4931 9.17175C46.5038 9.19309 46.4851 9.21977 46.4611 9.21176C45.9056 9.06771 45.4168 8.97167 44.9441 8.93966C43.566 8.8783 42.0918 9.22777 41.2959 10.4656C41.2452 10.5456 41.1464 10.5776 41.0609 10.543C39.4505 10.0361 37.0762 10.8951 36.502 12.5651C36.47 12.6558 36.3738 12.7065 36.283 12.6905C35.7729 12.6344 35.2521 12.7251 34.8141 12.8825C33.9221 13.1867 33.209 13.6268 32.739 14.4725C32.4933 14.886 32.325 15.3688 32.1568 15.8944C32.1434 15.9477 32.0553 15.9504 32.0419 15.8944V15.8917Z" fill="white"/>
<path opacity="0.2" d="M14.1418 67.4027C12.9534 67.264 12.4272 65.4073 13.5062 64.7457L13.5222 64.8844C12.3017 64.2468 12.1548 62.7422 13.4635 62.1046L13.4528 62.2433C12.3311 61.6458 12.7397 59.6103 14.0163 59.605C13.4822 60.3866 13.3353 61.2109 13.605 62.1153C13.621 62.1606 13.6264 62.2167 13.5943 62.254C13.3326 62.5928 13.3753 63.1077 13.3326 63.4972C13.3112 63.9107 13.3379 64.3855 13.6451 64.727C13.6691 64.7563 13.6798 64.7937 13.6718 64.8284C13.4101 65.7327 13.4822 66.6477 14.1712 67.344C14.1926 67.3653 14.1712 67.408 14.1418 67.4027Z" fill="white"/>
<path opacity="0.2" d="M90.1828 40.8547C89.2134 41.3882 87.9528 41.4389 86.9726 40.8387C85.9391 40.2651 85.4931 38.7845 86.1234 37.7895L86.118 37.8348C86.118 37.8188 86.118 37.8055 86.118 37.7895L86.2435 37.9015L86.2996 37.8855C85.8643 38.2083 85.3489 38.4751 84.7747 38.5898C83.6156 38.8299 82.3096 38.2697 81.7033 37.2346C81.3935 36.7171 81.3001 36.0795 81.4603 35.5379C81.479 35.4712 81.5511 35.4339 81.6179 35.4526C81.6633 35.4659 81.698 35.5059 81.706 35.5486C81.8075 36.0528 82.0105 36.477 82.3069 36.8104C83.1963 37.7655 84.9429 38.211 86.1768 37.6801C86.305 37.6107 86.3851 37.7495 86.3584 37.8642C86.1153 40.2064 88.2653 40.6919 90.1454 40.6893C90.2309 40.6893 90.2629 40.8147 90.1855 40.8547H90.1828Z" fill="white"/>
<path opacity="0.15" d="M106.852 52.034C107.79 52.9223 107.491 54.667 106.284 55.1552L106.31 55.0538C106.714 55.4246 107.162 56.0542 107.154 56.6891C107.186 57.324 106.925 58.0363 106.361 58.3698C106.294 58.4098 106.211 58.3271 106.254 58.2631C106.783 57.3027 106.676 56.0942 106.187 55.1392C106.163 55.1018 106.174 55.0538 106.209 55.0298C106.868 54.5443 106.946 53.6613 106.89 52.9036C106.868 52.6422 106.815 52.3781 106.762 52.09C106.748 52.0393 106.818 51.9993 106.855 52.0366L106.852 52.034Z" fill="white"/>
</svg>
