<svg width="140" height="172" viewBox="0 0 140 172" fill="none" xmlns="http://www.w3.org/2000/svg">
<path d="M69.9987 0.510254H70.0294H70.06C99.4792 0.510254 123.324 24.3589 123.324 53.7747C123.324 71.1538 114.999 87.3446 102.122 97.0658C104.951 99.2621 108.727 100.284 115.588 100.702C127.935 101.458 131.456 97.6549 135.467 99.0237C139.478 100.393 139.485 104.073 139.485 105.057C139.485 110.015 133.757 117.091 117.921 118.97C109.827 119.93 103.987 118.483 103.987 118.483C103.987 118.483 103.262 127.959 115.949 139.727C120.883 144.303 122.695 145.168 123.638 148.161C124.581 151.154 123.716 157.007 115.53 157.842C107.818 158.628 100.61 154.886 93.0915 144.542C90.0236 140.32 89.2302 136.135 88.7978 135.066C89.2234 138.818 89.5979 142.454 90.8952 147.218C91.8725 150.797 92.7578 153.514 95.6963 158.867C97.1332 161.485 97.552 166.198 93.4047 169.013C90.2653 171.145 84.47 171.976 79.4851 167.682C73.8192 162.803 72.9236 156.824 71.1769 147.3C70.5197 143.714 69.9919 137.265 69.9919 137.265C69.9919 137.265 69.4676 143.714 68.8104 147.3C67.0636 156.824 66.1681 162.803 60.5022 167.682C55.5139 171.976 49.7186 171.145 46.5826 169.013C42.4353 166.198 42.8541 161.485 44.291 158.867C47.2295 153.514 48.1148 150.797 49.092 147.218C50.3893 142.458 50.7639 138.818 51.1895 135.066C50.7571 136.135 49.9637 140.323 46.8958 144.542C39.3776 154.886 32.1692 158.628 24.4569 157.842C16.2746 157.007 15.3893 151.205 16.3496 148.161C17.2927 145.172 19.1042 144.303 24.038 139.727C36.7251 127.959 35.9998 118.483 35.9998 118.483C35.9998 118.483 30.1602 119.93 22.0666 118.97C6.2299 117.091 0.502686 110.015 0.502686 105.057C0.502686 104.073 0.509495 100.393 4.52059 99.0237C8.53168 97.6549 12.0524 101.458 24.399 100.702C31.2601 100.284 35.0362 99.2587 37.8658 97.0658C24.988 87.3446 16.6628 71.1538 16.6628 53.7747C16.6696 24.3589 40.5183 0.510254 69.9341 0.510254H69.9647H69.9953H69.9987Z" fill="#A9C0FF"/>
<path d="M87.4608 171.268C84.7607 171.268 81.8154 170.356 79.1595 168.067C73.5787 163.263 72.5061 157.389 70.8819 148.495L70.6776 147.389C70.4256 146.006 70.1873 144.195 69.9966 142.486C69.8059 144.192 69.571 146.006 69.3156 147.389L69.1113 148.499C67.4871 157.389 66.4145 163.263 60.8371 168.067C55.825 172.385 49.7845 171.803 46.2944 169.436C41.81 166.392 42.3718 161.302 43.8428 158.622C46.8188 153.201 47.6564 150.535 48.5996 147.086C49.3351 144.392 49.7675 142.08 50.0842 139.884C49.4508 141.393 48.5689 143.109 47.3091 144.845C39.9951 154.907 32.7152 159.201 24.407 158.353C19.9056 157.893 17.7537 155.966 16.7458 154.427C15.2987 152.227 15.3429 149.67 15.8673 148.009C16.6164 145.632 17.9307 144.481 20.5458 142.183C21.4447 141.393 22.4628 140.497 23.6954 139.356C30.1411 133.377 33.0047 128.028 34.2747 124.592C35.2418 121.971 35.4529 120.036 35.4937 119.121C33.7606 119.464 28.6701 120.271 22.0133 119.481C4.63761 117.421 0 109.447 0 105.061C0 100.907 2.37329 99.2251 4.36521 98.5441C6.27882 97.8903 8.03921 98.316 10.4806 98.905C13.4702 99.6269 17.5596 100.611 24.3798 100.196C30.6927 99.8108 34.336 98.9152 37.026 97.0595C30.8084 92.2312 25.6192 85.8332 21.9895 78.5227C18.1793 70.8444 16.1635 62.2877 16.1635 53.7786C16.1601 24.1244 40.2846 0 69.9353 0H70.0306C99.7154 0 123.84 24.1244 123.84 53.7752C123.84 62.2877 121.824 70.841 118.014 78.5193C114.384 85.8332 109.192 92.2278 102.977 97.0561C105.667 98.9153 109.311 99.8074 115.624 100.192C122.44 100.608 126.533 99.6235 129.519 98.9016C131.961 98.3126 133.721 97.8869 135.635 98.5407C137.627 99.2183 140 100.9 140 105.058C140 109.444 135.362 117.418 117.987 119.478C111.33 120.268 106.239 119.461 104.506 119.117C104.547 120.036 104.755 121.971 105.725 124.589C106.995 128.025 109.859 133.374 116.305 139.353C117.537 140.497 118.555 141.393 119.454 142.183C122.069 144.481 123.38 145.632 124.133 148.009C124.657 149.667 124.701 152.224 123.254 154.427C122.243 155.963 120.094 157.893 115.593 158.353C114.912 158.421 114.234 158.458 113.567 158.458C106.086 158.458 99.4056 154.083 92.6909 144.845C91.4311 143.109 90.5492 141.393 89.9159 139.884C90.2325 142.08 90.6684 144.389 91.4004 147.086C92.3402 150.535 93.1812 153.201 96.1572 158.622C97.6282 161.302 98.19 166.396 93.7056 169.436C92.0644 170.55 89.8614 171.268 87.4642 171.268H87.4608ZM69.9966 136.752C70.2622 136.752 70.4835 136.956 70.5073 137.221C70.5142 137.286 71.0419 143.684 71.6855 147.205L71.8898 148.315C73.531 157.301 74.5218 162.725 79.8268 167.294C84.4338 171.261 89.9499 170.747 93.1268 168.592C97.0459 165.932 96.5488 161.465 95.2583 159.112C92.2279 153.593 91.3732 150.872 90.413 147.351C89.1633 142.772 88.7547 139.145 88.3598 135.638L88.3019 135.124C88.2746 134.869 88.4381 134.634 88.6832 134.572C88.9318 134.508 89.1872 134.641 89.2825 134.875C89.3779 135.11 89.4766 135.444 89.6162 135.907C90.1372 137.664 91.111 140.933 93.5149 144.243C100.594 153.981 107.574 158.142 115.487 157.335C118.736 157.005 121.126 155.803 122.4 153.865C123.649 151.962 123.612 149.752 123.159 148.318C122.495 146.214 121.409 145.261 118.78 142.952C117.878 142.159 116.853 141.26 115.61 140.106C102.889 128.307 103.454 118.845 103.485 118.446C103.495 118.297 103.573 118.16 103.696 118.072C103.818 117.983 103.972 117.953 104.118 117.99C104.176 118.004 109.971 119.403 117.868 118.467C128.035 117.261 138.979 112.552 138.979 105.061C138.979 102.211 137.742 100.342 135.305 99.5111C133.674 98.9561 132.114 99.3307 129.758 99.8993C126.707 100.635 122.529 101.643 115.559 101.217C108.589 100.791 104.734 99.7393 101.81 97.4715C101.684 97.3728 101.612 97.223 101.612 97.0629C101.612 96.9029 101.687 96.7531 101.816 96.6577C108.146 91.8771 113.431 85.4485 117.098 78.063C120.84 70.5278 122.818 62.1276 122.818 53.7718C122.818 24.6863 99.1536 1.0215 70.0647 1.0215H69.9694C40.8464 1.0215 17.1816 24.6862 17.1816 53.7752C17.1816 62.131 19.1599 70.5278 22.902 78.0664C26.5692 85.4519 31.8538 91.8805 38.1837 96.6611C38.3097 96.7565 38.3846 96.9063 38.388 97.0663C38.388 97.2264 38.3165 97.3762 38.1905 97.4749C35.269 99.7427 31.4145 100.791 24.4411 101.22C17.4711 101.646 13.2931 100.638 10.2422 99.9027C7.88598 99.3341 6.32649 98.9595 4.6955 99.5145C2.25752 100.345 1.0215 102.211 1.0215 105.065C1.0215 112.556 11.9652 117.265 22.1325 118.47C30.0287 119.407 35.824 118.01 35.8819 117.993C36.0283 117.956 36.1815 117.987 36.3041 118.075C36.4267 118.164 36.5016 118.3 36.5152 118.45C36.5459 118.848 37.1111 128.307 24.39 140.109C23.1472 141.263 22.1223 142.162 21.22 142.956C18.5947 145.264 17.5051 146.218 16.8411 148.322C16.3883 149.759 16.3474 151.969 17.6004 153.869C18.8739 155.806 21.2642 157.008 24.5126 157.338C32.4258 158.145 39.4061 153.984 46.4851 144.246C48.889 140.936 49.8628 137.668 50.3838 135.911C50.52 135.447 50.6221 135.114 50.7141 134.879C50.8094 134.641 51.0648 134.511 51.3134 134.576C51.5619 134.637 51.7254 134.875 51.6947 135.127L51.6368 135.638C51.2419 139.145 50.8333 142.772 49.5836 147.355C48.6234 150.876 47.7688 153.596 44.7383 159.112C43.4478 161.465 42.9473 165.929 46.8698 168.592C50.0467 170.747 55.5662 171.261 60.1698 167.294C65.4748 162.725 66.4656 157.301 68.1068 148.315L68.3111 147.205C68.9581 143.684 69.479 137.286 69.4858 137.221C69.5063 136.956 69.7276 136.752 69.9932 136.752H69.9966Z" fill="black"/>
<path d="M52.5845 50.1929C54.0438 50.1929 55.2268 48.5023 55.2268 46.4168C55.2268 44.3313 54.0438 42.6406 52.5845 42.6406C51.1252 42.6406 49.9423 44.3313 49.9423 46.4168C49.9423 48.5023 51.1252 50.1929 52.5845 50.1929Z" fill="#65FF11"/>
<path d="M87.4205 50.1929C88.8798 50.1929 90.0628 48.5023 90.0628 46.4168C90.0628 44.3313 88.8798 42.6406 87.4205 42.6406C85.9612 42.6406 84.7782 44.3313 84.7782 46.4168C84.7782 48.5023 85.9612 50.1929 87.4205 50.1929Z" fill="#65FF11"/>
<path d="M50.9937 35.7463C50.9604 35.753 50.9223 35.7538 50.8869 35.7505C50.7019 35.7289 50.5666 35.5583 50.5882 35.3732C50.6917 34.4942 51.0842 33.8416 51.6898 33.5383C52.2962 33.2385 53.0523 33.3182 53.8172 33.7679C53.9791 33.8636 54.035 34.0712 53.9392 34.233C53.8434 34.3948 53.6358 34.4507 53.474 34.355C52.9143 34.027 52.3886 33.9528 51.9944 34.1507C51.5995 34.3452 51.3428 34.8106 51.2648 35.4552C51.2465 35.6048 51.1346 35.7212 50.9944 35.7496L50.9937 35.7463Z" fill="black"/>
<path d="M89.2411 35.4864C89.0981 35.4864 88.9653 35.3945 88.9176 35.2515C88.7167 34.6352 88.3694 34.2334 87.9472 34.1176C87.5215 34.0053 87.021 34.1789 86.5375 34.6114C86.3979 34.7373 86.1834 34.7237 86.0574 34.5841C85.9314 34.4445 85.945 34.23 86.0846 34.104C86.7452 33.5115 87.4671 33.2834 88.1242 33.4571C88.778 33.6307 89.2921 34.1925 89.5679 35.037C89.6258 35.214 89.5305 35.4081 89.35 35.466C89.316 35.4762 89.2785 35.483 89.2445 35.483L89.2411 35.4864Z" fill="black"/>
<path d="M52.8505 51.0441C55.1316 51.0441 56.9807 48.7848 56.9807 45.9979C56.9807 43.2109 55.1316 40.9517 52.8505 40.9517C50.5694 40.9517 48.7202 43.2109 48.7202 45.9979C48.7202 48.7848 50.5694 51.0441 52.8505 51.0441Z" fill="black"/>
<path d="M52.8796 49.9957C54.1452 49.9957 55.1711 48.9698 55.1711 47.7042C55.1711 46.4386 54.1452 45.4126 52.8796 45.4126C51.614 45.4126 50.588 46.4386 50.588 47.7042C50.588 48.9698 51.614 49.9957 52.8796 49.9957Z" fill="white"/>
<path d="M51.6062 44.7409C52.1929 44.7409 52.6685 44.2653 52.6685 43.6786C52.6685 43.0918 52.1929 42.6162 51.6062 42.6162C51.0195 42.6162 50.5438 43.0918 50.5438 43.6786C50.5438 44.2653 51.0195 44.7409 51.6062 44.7409Z" fill="white"/>
<path d="M55.0375 46.6219C55.3365 46.6219 55.5789 46.3795 55.5789 46.0805C55.5789 45.7815 55.3365 45.5391 55.0375 45.5391C54.7385 45.5391 54.4961 45.7815 54.4961 46.0805C54.4961 46.3795 54.7385 46.6219 55.0375 46.6219Z" fill="white"/>
<path d="M87.1837 51.0441C89.4648 51.0441 91.314 48.7848 91.314 45.9979C91.314 43.2109 89.4648 40.9517 87.1837 40.9517C84.9026 40.9517 83.0535 43.2109 83.0535 45.9979C83.0535 48.7848 84.9026 51.0441 87.1837 51.0441Z" fill="black"/>
<path d="M87.2149 49.9957C88.4805 49.9957 89.5065 48.9698 89.5065 47.7042C89.5065 46.4386 88.4805 45.4126 87.2149 45.4126C85.9493 45.4126 84.9233 46.4386 84.9233 47.7042C84.9233 48.9698 85.9493 49.9957 87.2149 49.9957Z" fill="white"/>
<path d="M85.9437 44.7409C86.5304 44.7409 87.0061 44.2653 87.0061 43.6786C87.0061 43.0918 86.5304 42.6162 85.9437 42.6162C85.357 42.6162 84.8813 43.0918 84.8813 43.6786C84.8813 44.2653 85.357 44.7409 85.9437 44.7409Z" fill="white"/>
<path d="M89.3749 46.6219C89.6739 46.6219 89.9163 46.3795 89.9163 46.0805C89.9163 45.7815 89.6739 45.5391 89.3749 45.5391C89.0759 45.5391 88.8335 45.7815 88.8335 46.0805C88.8335 46.3795 89.0759 46.6219 89.3749 46.6219Z" fill="white"/>
<path d="M51.7847 52.2641C53.4772 52.2641 54.8492 51.915 54.8492 51.4843C54.8492 51.0537 53.4772 50.7046 51.7847 50.7046C50.0922 50.7046 48.7202 51.0537 48.7202 51.4843C48.7202 51.915 50.0922 52.2641 51.7847 52.2641Z" fill="white"/>
<path d="M88.2508 52.2641C89.9433 52.2641 91.3153 51.915 91.3153 51.4843C91.3153 51.0537 89.9433 50.7046 88.2508 50.7046C86.5583 50.7046 85.1863 51.0537 85.1863 51.4843C85.1863 51.915 86.5583 52.2641 88.2508 52.2641Z" fill="white"/>
<path d="M87.032 66.6365C87.032 76.4055 80.1879 84.3017 70.0478 84.3017C59.9077 84.3017 53.0637 75.384 53.0637 66.6365C53.0637 66.6365 58.6342 53.6431 61.7532 53.6431C64.8722 53.6431 70.3917 54.273 70.3917 54.273C70.3917 54.273 76.2824 53.6431 79.5682 53.6431C82.854 53.6431 87.0286 66.6365 87.0286 66.6365H87.032Z" fill="#EB85A3"/>
<path d="M70.0517 84.5561C65.2609 84.5561 60.8276 82.5539 57.569 78.9174C54.5488 75.5464 52.8156 71.0689 52.8156 66.6322V66.5811L52.836 66.5334C53.4114 65.1884 58.5632 53.3833 61.7605 53.3833C64.7433 53.3833 69.9666 53.9656 70.399 54.0132C70.8451 53.9656 76.4293 53.3833 79.5755 53.3833C81.0498 53.3833 82.7966 55.6204 84.7715 60.0333C86.2152 63.2578 87.2674 66.5232 87.281 66.5572L87.2946 66.6356C87.2946 71.5149 85.6057 76.0129 82.5378 79.3056C79.3814 82.6935 74.9481 84.5561 70.0585 84.5561H70.0517ZM53.323 66.6866C53.3366 70.9803 55.0186 75.3115 57.9469 78.5769C61.1068 82.1011 65.4073 84.0453 70.0517 84.0453C74.6961 84.0453 79.0988 82.2373 82.1599 78.9549C85.1325 75.7678 86.7702 71.406 86.7804 66.673C85.6227 63.0807 82.1088 53.8941 79.5755 53.8941C76.3407 53.8941 70.4842 54.5172 70.4263 54.524H70.399H70.3718C70.3173 54.5172 64.8318 53.8941 61.7639 53.8941C59.3532 53.8941 54.879 63.0807 53.3297 66.6866H53.323Z" fill="black"/>
<path d="M70.0483 76.3131C77.2564 76.3131 83.0997 72.8206 83.0997 68.5123C83.0997 64.204 77.2564 60.7114 70.0483 60.7114C62.8403 60.7114 56.9969 64.204 56.9969 68.5123C56.9969 72.8206 62.8403 76.3131 70.0483 76.3131Z" fill="#AD475F"/>
</svg>
