<svg width="80" height="80" viewBox="0 0 80 80" fill="none" xmlns="http://www.w3.org/2000/svg">
<path d="M40 80C62.0914 80 80 62.0914 80 40C80 17.9086 62.0914 0 40 0C17.9086 0 0 17.9086 0 40C0 62.0914 17.9086 80 40 80Z" fill="#00E2CC"/>
<mask id="mask0_1436_15687" style="mask-type:luminance" maskUnits="userSpaceOnUse" x="0" y="0" width="80" height="80">
<path d="M80 40C80 46.3882 76.3176 53.5529 71.9765 59.7647C71.9176 59.8471 76.7647 64.6588 76.7647 64.6588L73.6588 71.1177L63.4824 74.6706L58.2706 75.5882C58.2706 75.5882 58.2353 75.6 58.2235 75.6118C52.7529 78.4118 46.5529 80 39.9882 80C31.6353 80 23.8941 77.4471 17.4824 73.0706L17.4588 73.0588L12.5294 73.1177L3 69L4.07059 61.0588C4.07059 61.0588 9.22353 62.4118 8.91765 61.9647C4.49412 55.3765 0 46.9647 0 40C0 17.9059 17.9059 0 40 0C62.0941 0 80 17.9059 80 40Z" fill="white"/>
</mask>
<g mask="url(#mask0_1436_15687)">
<path d="M39.5817 12.2598H39.5972H39.6128C54.5662 12.2598 66.6864 24.3817 66.6864 39.3333C66.6864 48.1669 62.4548 56.3964 55.9092 61.3376C57.3474 62.4539 59.2668 62.9731 62.7542 63.186C69.0298 63.5702 70.8193 61.637 72.8581 62.3328C74.8969 63.0285 74.9003 64.8994 74.9003 65.3996C74.9003 67.9195 71.9893 71.5159 63.9397 72.4713C59.8258 72.9593 56.8576 72.2238 56.8576 72.2238C56.8576 72.2238 56.489 77.0404 62.9376 83.0217C65.4454 85.3478 66.3662 85.7874 66.8456 87.3087C67.325 88.83 66.8854 91.8051 62.7248 92.2291C58.8047 92.6289 55.1408 90.7268 51.3194 85.4689C49.76 83.3229 49.3567 81.1958 49.1369 80.6524C49.3533 82.5596 49.5437 84.408 50.2031 86.8293C50.6998 88.6483 51.1498 90.0294 52.6434 92.75C53.3737 94.081 53.5866 96.4763 51.4786 97.9076C49.8829 98.991 46.9372 99.4133 44.4034 97.2309C41.5235 94.7507 41.0684 91.7116 40.1805 86.8708C39.8465 85.0484 39.5782 81.7704 39.5782 81.7704C39.5782 81.7704 39.3117 85.0484 38.9776 86.8708C38.0898 91.7116 37.6346 94.7507 34.7547 97.2309C32.2192 99.4133 29.2735 98.991 27.6796 97.9076C25.5715 96.4763 25.7844 94.081 26.5148 92.75C28.0084 90.0294 28.4584 88.6483 28.9551 86.8293C29.6145 84.4097 29.8049 82.5596 30.0212 80.6524C29.8014 81.1958 29.3982 83.3246 27.8388 85.4689C24.0174 90.7268 20.3534 92.6289 16.4334 92.2291C12.2745 91.8051 11.8245 88.8559 12.3126 87.3087C12.792 85.7891 13.7127 85.3478 16.2205 83.0217C22.6691 77.0404 22.3005 72.2238 22.3005 72.2238C22.3005 72.2238 19.3323 72.9593 15.2184 72.4713C7.16887 71.5159 4.25781 67.9195 4.25781 65.3996C4.25781 64.8994 4.26127 63.0285 6.30005 62.3328C8.33883 61.637 10.1284 63.5702 16.404 63.186C19.8913 62.9731 21.8107 62.4522 23.2489 61.3376C16.7034 56.3964 12.4718 48.1669 12.4718 39.3333C12.4752 24.3817 24.5972 12.2598 39.5488 12.2598H39.5644H39.5799H39.5817Z" fill="#A9C0FF"/>
<path d="M48.4551 99.0531C47.0826 99.0531 45.5856 98.5893 44.2356 97.4263C41.399 94.9842 40.8538 91.9987 40.0283 87.4781L39.9244 86.9156C39.7963 86.213 39.6752 85.2922 39.5783 84.4234C39.4814 85.2905 39.3619 86.213 39.2321 86.9156L39.1283 87.4799C38.3027 91.9987 37.7576 94.9842 34.9227 97.4263C32.375 99.6208 29.3048 99.3249 27.5308 98.122C25.2514 96.5748 25.537 93.9873 26.2847 92.6253C27.7973 89.87 28.2231 88.5148 28.7025 86.7616C29.0763 85.3926 29.2961 84.2175 29.4571 83.1012C29.1351 83.8679 28.6869 84.7401 28.0465 85.6228C24.329 90.7371 20.6287 92.9195 16.4058 92.4885C14.1177 92.2549 13.0239 91.2753 12.5116 90.493C11.7761 89.375 11.7986 88.0752 12.0651 87.2306C12.4459 86.0226 13.1139 85.4376 14.4431 84.2694C14.9 83.8679 15.4175 83.4127 16.044 82.8329C19.3203 79.7938 20.7758 77.0748 21.4214 75.3285C21.9129 73.9959 22.0202 73.0128 22.041 72.5473C21.16 72.7221 18.5726 73.1322 15.1891 72.7307C6.35723 71.6836 4 67.6303 4 65.4011C4 63.2897 5.20631 62.4347 6.21877 62.0886C7.19144 61.7563 8.08621 61.9726 9.32714 62.272C10.8467 62.6389 12.9253 63.1391 16.3919 62.928C19.6006 62.7324 21.4525 62.2772 22.8198 61.334C19.6595 58.8798 17.0219 55.6278 15.1769 51.912C13.2403 48.0092 12.2157 43.6599 12.2157 39.3349C12.214 24.2621 24.4761 12 39.5471 12H39.5956C54.6839 12 66.946 24.2621 66.946 39.3332C66.946 43.6599 65.9215 48.0075 63.9848 51.9102C62.1399 55.6278 59.5005 58.8781 56.342 61.3322C57.7092 62.2772 59.5611 62.7307 62.7698 62.9262C66.2347 63.1374 68.315 62.6372 69.8329 62.2703C71.0738 61.9709 71.9686 61.7545 72.9412 62.0868C73.9537 62.4312 75.16 63.2862 75.16 65.3994C75.16 67.6286 72.8028 71.6819 63.9709 72.729C60.5874 73.1305 58 72.7203 57.1191 72.5455C57.1398 73.0128 57.2454 73.9959 57.7386 75.3268C58.3842 77.0731 59.8397 79.792 63.116 82.8312C63.7425 83.4127 64.26 83.8679 64.7169 84.2694C66.0461 85.4376 66.7124 86.0226 67.0949 87.2306C67.3614 88.0735 67.3839 89.3733 66.6484 90.493C66.1343 91.2736 65.0423 92.2549 62.7543 92.4885C62.4081 92.5232 62.0637 92.5422 61.7245 92.5422C57.9221 92.5422 54.5264 90.3182 51.1135 85.6228C50.4731 84.7401 50.0249 83.8679 49.7029 83.1012C49.8639 84.2175 50.0854 85.3909 50.4575 86.7616C50.9352 88.5148 51.3627 89.87 52.8753 92.6253C53.623 93.9873 53.9086 96.5765 51.6292 98.122C50.795 98.688 49.6753 99.0531 48.4568 99.0531H48.4551ZM39.5783 81.5089C39.7133 81.5089 39.8258 81.6127 39.8379 81.7477C39.8413 81.7806 40.1096 85.0326 40.4367 86.8222L40.5406 87.3864C41.3748 91.9538 41.8784 94.7108 44.5748 97.0334C46.9165 99.0497 49.7203 98.7883 51.335 97.6928C53.3271 96.3411 53.0744 94.0704 52.4184 92.8745C50.8781 90.069 50.4437 88.6862 49.9556 86.8966C49.3205 84.5688 49.1128 82.7256 48.912 80.943L48.8826 80.6816C48.8687 80.5518 48.9518 80.4324 49.0764 80.4012C49.2028 80.3684 49.3326 80.4359 49.381 80.5553C49.4295 80.6747 49.4797 80.8443 49.5506 81.0797C49.8154 81.9727 50.3104 83.6342 51.5323 85.3165C55.1305 90.2663 58.6784 92.3812 62.7006 91.9711C64.3517 91.8032 65.5667 91.1922 66.214 90.2075C66.8491 89.24 66.8301 88.1168 66.5999 87.3881C66.2624 86.3186 65.7103 85.8339 64.3742 84.6605C63.9156 84.2573 63.3946 83.8004 62.7629 83.2137C56.297 77.2167 56.5843 72.4071 56.5998 72.2046C56.605 72.1284 56.6448 72.0592 56.7071 72.0142C56.7694 71.9692 56.8473 71.9536 56.9217 71.9727C56.9512 71.9796 59.8968 72.6909 63.9104 72.215C69.0783 71.6023 74.6408 69.2087 74.6408 65.4011C74.6408 63.9525 74.0125 63.0024 72.7734 62.5801C71.9443 62.298 71.1517 62.4884 69.954 62.7774C68.4033 63.1512 66.2797 63.6635 62.7369 63.4472C59.1942 63.2308 57.235 62.696 55.7483 61.5434C55.6843 61.4932 55.6479 61.417 55.6479 61.3357C55.6479 61.2544 55.686 61.1782 55.7518 61.1298C58.9692 58.6998 61.6553 55.4322 63.5192 51.6783C65.4213 47.8483 66.4268 43.5786 66.4268 39.3314C66.4268 24.5477 54.3984 12.5192 39.6129 12.5192H39.5644C24.7616 12.5192 12.7332 24.5477 12.7332 39.3332C12.7332 43.5803 13.7387 47.8483 15.6408 51.6801C17.5048 55.434 20.1908 58.7016 23.4082 61.1315C23.4723 61.1799 23.5103 61.2561 23.5121 61.3374C23.5121 61.4188 23.4757 61.4949 23.4117 61.5451C21.9267 62.6978 19.9676 63.2308 16.4231 63.4489C12.8803 63.6652 10.7567 63.153 9.20599 62.7791C8.00833 62.4901 7.21567 62.2997 6.38665 62.5818C5.14746 63.0041 4.51921 63.9525 4.51921 65.4029C4.51921 69.2105 10.0817 71.604 15.2496 72.2167C19.2632 72.6926 22.2088 71.9831 22.2383 71.9744C22.3127 71.9554 22.3906 71.9709 22.4529 72.0159C22.5152 72.0609 22.5532 72.1302 22.5602 72.2063C22.5757 72.4088 22.863 77.2167 16.3971 83.2154C15.7654 83.8021 15.2444 84.259 14.7858 84.6623C13.4514 85.8357 12.8976 86.3203 12.5601 87.3899C12.3299 88.1202 12.3092 89.2435 12.9461 90.2092C13.5933 91.194 14.8083 91.8049 16.4594 91.9728C20.4816 92.383 24.0295 90.268 27.6277 85.3182C28.8496 83.6359 29.3446 81.9745 29.6094 81.0814C29.6786 80.846 29.7305 80.6764 29.7772 80.557C29.8257 80.4359 29.9555 80.3701 30.0818 80.403C30.2082 80.4341 30.2913 80.5553 30.2757 80.6833L30.2463 80.943C30.0455 82.7256 29.8378 84.5688 29.2026 86.8983C28.7146 88.6879 28.2802 90.0707 26.7398 92.8745C26.0839 94.0704 25.8295 96.3394 27.8233 97.6928C29.438 98.7883 32.2435 99.0497 34.5834 97.0334C37.2799 94.7108 37.7835 91.9538 38.6177 87.3864L38.7216 86.8222C39.0504 85.0326 39.3152 81.7806 39.3187 81.7477C39.3291 81.6127 39.4415 81.5089 39.5765 81.5089H39.5783Z" fill="black"/>
<path d="M30.7258 37.5125C31.4676 37.5125 32.0689 36.6532 32.0689 35.5932C32.0689 34.5332 31.4676 33.6738 30.7258 33.6738C29.9841 33.6738 29.3828 34.5332 29.3828 35.5932C29.3828 36.6532 29.9841 37.5125 30.7258 37.5125Z" fill="#65FF11"/>
<path d="M48.4315 37.5125C49.1733 37.5125 49.7746 36.6532 49.7746 35.5932C49.7746 34.5332 49.1733 33.6738 48.4315 33.6738C47.6898 33.6738 47.0885 34.5332 47.0885 35.5932C47.0885 36.6532 47.6898 37.5125 48.4315 37.5125Z" fill="#65FF11"/>
<path d="M29.9185 30.1693C29.9015 30.1727 29.8821 30.1731 29.8642 30.1714C29.7701 30.1605 29.7013 30.0737 29.7123 29.9797C29.7649 29.5329 29.9644 29.2011 30.2723 29.047C30.5805 28.8946 30.9648 28.9351 31.3536 29.1637C31.4359 29.2124 31.4643 29.3179 31.4156 29.4001C31.3669 29.4824 31.2614 29.5108 31.1791 29.4621C30.8947 29.2954 30.6275 29.2577 30.4271 29.3583C30.2264 29.4571 30.0959 29.6937 30.0563 30.0213C30.0469 30.0974 29.99 30.1566 29.9188 30.171L29.9185 30.1693Z" fill="black"/>
<path d="M49.3601 30.0383C49.2874 30.0383 49.2199 29.9916 49.1957 29.9189C49.0936 29.6057 48.917 29.4014 48.7024 29.3426C48.4861 29.2855 48.2317 29.3737 47.9859 29.5935C47.9149 29.6576 47.8059 29.6507 47.7419 29.5797C47.6778 29.5087 47.6848 29.3997 47.7557 29.3357C48.0915 29.0345 48.4584 28.9186 48.7924 29.0068C49.1247 29.0951 49.386 29.3807 49.5262 29.8099C49.5557 29.8999 49.5072 29.9985 49.4155 30.028C49.3982 30.0331 49.3791 30.0366 49.3618 30.0366L49.3601 30.0383Z" fill="black"/>
<path d="M30.8597 37.9448C32.0192 37.9448 32.9591 36.7964 32.9591 35.3799C32.9591 33.9633 32.0192 32.8149 30.8597 32.8149C29.7003 32.8149 28.7604 33.9633 28.7604 35.3799C28.7604 36.7964 29.7003 37.9448 30.8597 37.9448Z" fill="black"/>
<path d="M30.8783 37.413C31.5216 37.413 32.043 36.8916 32.043 36.2483C32.043 35.605 31.5216 35.0835 30.8783 35.0835C30.235 35.0835 29.7135 35.605 29.7135 36.2483C29.7135 36.8916 30.235 37.413 30.8783 37.413Z" fill="white"/>
<path d="M30.2327 34.7421C30.531 34.7421 30.7727 34.5003 30.7727 34.2021C30.7727 33.9039 30.531 33.6621 30.2327 33.6621C29.9345 33.6621 29.6927 33.9039 29.6927 34.2021C29.6927 34.5003 29.9345 34.7421 30.2327 34.7421Z" fill="white"/>
<path d="M31.9731 35.6968C32.125 35.6968 32.2482 35.5736 32.2482 35.4217C32.2482 35.2697 32.125 35.1465 31.9731 35.1465C31.8211 35.1465 31.6979 35.2697 31.6979 35.4217C31.6979 35.5736 31.8211 35.6968 31.9731 35.6968Z" fill="white"/>
<path d="M48.3129 37.9448C49.4723 37.9448 50.4122 36.7964 50.4122 35.3799C50.4122 33.9633 49.4723 32.8149 48.3129 32.8149C47.1534 32.8149 46.2135 33.9633 46.2135 35.3799C46.2135 36.7964 47.1534 37.9448 48.3129 37.9448Z" fill="black"/>
<path d="M48.3288 37.413C48.9721 37.413 49.4936 36.8916 49.4936 36.2483C49.4936 35.605 48.9721 35.0835 48.3288 35.0835C47.6855 35.0835 47.1641 35.605 47.1641 36.2483C47.1641 36.8916 47.6855 37.413 48.3288 37.413Z" fill="white"/>
<path d="M47.6859 34.7421C47.9841 34.7421 48.2258 34.5003 48.2258 34.2021C48.2258 33.9039 47.9841 33.6621 47.6859 33.6621C47.3876 33.6621 47.1459 33.9039 47.1459 34.2021C47.1459 34.5003 47.3876 34.7421 47.6859 34.7421Z" fill="white"/>
<path d="M49.4262 35.6968C49.5782 35.6968 49.7014 35.5736 49.7014 35.4217C49.7014 35.2697 49.5782 35.1465 49.4262 35.1465C49.2742 35.1465 49.151 35.2697 49.151 35.4217C49.151 35.5736 49.2742 35.6968 49.4262 35.6968Z" fill="white"/>
<path d="M39.6457 50.2332C44.914 50.2332 48.4689 47.4727 48.4689 44.2605C48.4689 44.2605 46.4682 41.4187 43.9535 41.2699C41.6585 41.1349 39.5851 41.9881 39.5851 41.9881C39.5851 41.9881 37.5135 41.1349 35.2186 41.2699C32.7038 41.4187 30.7031 44.2605 30.7031 44.2605C30.7031 47.471 34.2597 50.2332 39.5263 50.2332H39.6423H39.6457Z" fill="#EB85A3"/>
<path d="M39.6471 50.3627H39.5311C34.4272 50.3627 30.5781 47.7389 30.5781 44.2602V44.2187L30.6024 44.1858C30.6231 44.1563 31.1198 43.4554 31.9367 42.7233C32.6948 42.0449 33.8803 41.2176 35.2164 41.1397C37.3193 41.0151 39.2594 41.7212 39.5917 41.8476C39.9222 41.7195 41.8641 41.0151 43.9669 41.1397C45.303 41.2176 46.4886 42.0449 47.2466 42.7233C48.0618 43.4537 48.5602 44.1563 48.581 44.1858L48.6052 44.2187V44.2602C48.6052 47.7389 44.7561 50.3627 39.6523 50.3627H39.6471ZM30.8377 44.3035C30.8689 47.6126 34.5968 50.1031 39.5311 50.1031H39.6471C44.5831 50.1031 48.3093 47.6126 48.3404 44.3035C48.1085 43.9885 46.2255 41.5343 43.9479 41.401C41.7101 41.2695 39.6574 42.102 39.6367 42.1106L39.5865 42.1314L39.5363 42.1106C39.5155 42.102 37.4646 41.2695 35.2268 41.401C32.9492 41.5343 31.0662 43.9902 30.8343 44.3035H30.8377Z" fill="black"/>
<path d="M35.6094 44.5454C35.6094 44.5454 37.1653 44.9348 39.7614 44.9348C42.3574 44.9348 43.7593 44.5454 43.7593 44.5454" fill="#EB85A3"/>
<path d="M39.7569 45.0644C39.7572 45.0647 39.757 45.0653 39.7565 45.0653C37.5832 45.0652 36.1151 44.7892 35.6958 44.6989C35.6261 44.6838 35.586 44.6172 35.6031 44.5479C35.621 44.4757 35.6922 44.4315 35.765 44.4469C36.1887 44.5367 37.6265 44.8039 39.756 44.8039C41.8624 44.8039 43.1856 44.5436 43.5885 44.4505C43.6596 44.4341 43.7361 44.4786 43.7555 44.5489C43.7737 44.6151 43.735 44.6834 43.6681 44.6992C43.2754 44.7921 41.9431 45.0634 39.7573 45.0635C39.7568 45.0635 39.7566 45.0641 39.7569 45.0644Z" fill="black"/>
<path d="M30.7598 38.7898C31.8643 38.7898 32.7598 38.5619 32.7598 38.2809C32.7598 37.9998 31.8643 37.772 30.7598 37.772C29.6552 37.772 28.7598 37.9998 28.7598 38.2809C28.7598 38.5619 29.6552 38.7898 30.7598 38.7898Z" fill="white"/>
<path d="M48.3027 38.7898C49.4073 38.7898 50.3027 38.5619 50.3027 38.2809C50.3027 37.9998 49.4073 37.772 48.3027 37.772C47.1982 37.772 46.3027 37.9998 46.3027 38.2809C46.3027 38.5619 47.1982 38.7898 48.3027 38.7898Z" fill="white"/>
</g>
</svg>
